<?xml version="1.0" encoding="utf-8"?>
<!-- Generator: Adobe Illustrator 24.3.0, SVG Export Plug-In . SVG Version: 6.00 Build 0)  -->
<svg version="1.1" id="Foreground" xmlns="http://www.w3.org/2000/svg" xmlns:xlink="http://www.w3.org/1999/xlink" x="0px" y="0px"
	 viewBox="0 0 462 165" style="enable-background:new 0 0 462 165;" xml:space="preserve">
<style type="text/css">
	.st0{fill-rule:evenodd;clip-rule:evenodd;fill:#314A7D;stroke:#1A171B;stroke-width:0.5;stroke-miterlimit:3.8637;}
	.st1{fill-rule:evenodd;clip-rule:evenodd;fill:#1A366F;}
	.st2{fill-rule:evenodd;clip-rule:evenodd;fill:#A3A2A4;stroke:#1A171B;stroke-width:0.5;stroke-miterlimit:3.8637;}
	.st3{fill-rule:evenodd;clip-rule:evenodd;fill:#064080;stroke:#1A171B;stroke-width:0.5;stroke-miterlimit:3.8637;}
	.st4{clip-path:url(#SVGID_4_);}
	.st5{clip-path:url(#SVGID_5_);}
	
		.st6{clip-path:url(#SVGID_6_);fill-rule:evenodd;clip-rule:evenodd;fill:#D1D1D1;stroke:#1A171B;stroke-width:0.5;stroke-miterlimit:3.8637;}
	.st7{clip-path:url(#SVGID_10_);}
	.st8{clip-path:url(#SVGID_11_);}
	
		.st9{clip-path:url(#SVGID_12_);fill-rule:evenodd;clip-rule:evenodd;fill:#D1D1D1;stroke:#1A171B;stroke-width:0.5;stroke-miterlimit:3.8637;}
	.st10{clip-path:url(#SVGID_16_);}
	.st11{clip-path:url(#SVGID_17_);}
	
		.st12{clip-path:url(#SVGID_18_);fill-rule:evenodd;clip-rule:evenodd;fill:#D1D1D1;stroke:#1A171B;stroke-width:0.5;stroke-miterlimit:3.8637;}
	.st13{clip-path:url(#SVGID_22_);}
	.st14{clip-path:url(#SVGID_23_);}
	
		.st15{clip-path:url(#SVGID_24_);fill-rule:evenodd;clip-rule:evenodd;fill:#D1D1D1;stroke:#1A171B;stroke-width:0.5;stroke-miterlimit:3.8637;}
	.st16{clip-path:url(#SVGID_28_);}
	.st17{clip-path:url(#SVGID_29_);}
	
		.st18{clip-path:url(#SVGID_30_);fill-rule:evenodd;clip-rule:evenodd;fill:#D1D1D1;stroke:#1A171B;stroke-width:0.5;stroke-miterlimit:3.8637;}
	.st19{clip-path:url(#SVGID_34_);}
	.st20{clip-path:url(#SVGID_35_);}
	
		.st21{clip-path:url(#SVGID_36_);fill-rule:evenodd;clip-rule:evenodd;fill:#D1D1D1;stroke:#1A171B;stroke-width:0.5;stroke-miterlimit:3.8637;}
	.st22{clip-path:url(#SVGID_40_);}
	.st23{clip-path:url(#SVGID_41_);}
	
		.st24{clip-path:url(#SVGID_42_);fill-rule:evenodd;clip-rule:evenodd;fill:#D1D1D1;stroke:#1A171B;stroke-width:0.5;stroke-miterlimit:3.8637;}
	.st25{clip-path:url(#SVGID_46_);}
	.st26{clip-path:url(#SVGID_47_);}
	
		.st27{clip-path:url(#SVGID_48_);fill-rule:evenodd;clip-rule:evenodd;fill:#D1D1D1;stroke:#1A171B;stroke-width:0.5;stroke-miterlimit:3.8637;}
	.st28{clip-path:url(#SVGID_52_);}
	.st29{clip-path:url(#SVGID_53_);}
	
		.st30{clip-path:url(#SVGID_54_);fill-rule:evenodd;clip-rule:evenodd;fill:#D1D1D1;stroke:#1A171B;stroke-width:0.5;stroke-miterlimit:3.8637;}
	.st31{clip-path:url(#SVGID_58_);}
	.st32{clip-path:url(#SVGID_59_);}
	
		.st33{clip-path:url(#SVGID_60_);fill-rule:evenodd;clip-rule:evenodd;fill:#D1D1D1;stroke:#1A171B;stroke-width:0.5;stroke-miterlimit:3.8637;}
	.st34{fill-rule:evenodd;clip-rule:evenodd;fill:#FFFFFF;}
	.st35{fill:#FFFFFF;}
	.st36{fill-rule:evenodd;clip-rule:evenodd;fill:none;stroke:#FFFFFF;stroke-width:0.79;stroke-miterlimit:3.8637;}
	.st37{fill-rule:evenodd;clip-rule:evenodd;fill:none;stroke:#FFFFFF;stroke-width:0.7553;stroke-miterlimit:3.8637;}
	.st38{fill-rule:evenodd;clip-rule:evenodd;fill:none;}
</style>
<g>
	<path class="st0" d="M0.3,65.5c0-3.9,3.2-7.1,7.1-7.1H142c3.9,0,7.1,3.2,7.1,7.1v92.1c0,3.9-3.2,7.1-7.1,7.1H7.4
		c-3.9,0-7.1-3.2-7.1-7.1V65.5z"/>
	<path class="st1" d="M7.4,71.1c0-3.1,2.5-5.7,5.7-5.7h123.3c3.1,0,5.7,2.5,5.7,5.7v80.8c0,3.1-2.5,5.7-5.7,5.7H13
		c-3.1,0-5.7-2.5-5.7-5.7V71.1z"/>
	<path class="st2" d="M7.4,87.5c0-3.9,3.2-7.1,7.1-7.1l0,0c3.9,0,7.1,3.2,7.1,7.1V130c0,3.9-3.2,7.1-7.1,7.1l0,0
		c-3.9,0-7.1-3.2-7.1-7.1V87.5z"/>
	<g>
		<path class="st3" d="M91.1,154.7c-3.9,0-7.1-3.2-7.1-7.1l0,0c0-3.9,3.2-7.1,7.1-7.1h14.4c3.9,0,7.1,3.2,7.1,7.1l0,0
			c0,3.9-3.2,7.1-7.1,7.1H91.1z"/>
		<g>
			<defs>
				<path id="SVGID_1_" d="M85.5,147.6c0-3.1,2.5-5.7,5.7-5.7s5.7,2.5,5.7,5.7s-2.5,5.7-5.7,5.7S85.5,150.7,85.5,147.6z"/>
			</defs>
			<defs>
				<path id="SVGID_2_" d="M85.5,147.6c0-3.1,2.5-5.7,5.7-5.7s5.7,2.5,5.7,5.7s-2.5,5.7-5.7,5.7S85.5,150.7,85.5,147.6z"/>
			</defs>
			<defs>
				<path id="SVGID_3_" d="M85.5,147.6c0-3.1,2.5-5.7,5.7-5.7s5.7,2.5,5.7,5.7s-2.5,5.7-5.7,5.7S85.5,150.7,85.5,147.6z"/>
			</defs>
			<use xlink:href="#SVGID_1_"  style="overflow:visible;fill-rule:evenodd;clip-rule:evenodd;fill:#FFFFFF;"/>
			<clipPath id="SVGID_4_">
				<use xlink:href="#SVGID_1_"  style="overflow:visible;"/>
			</clipPath>
			<clipPath id="SVGID_5_" class="st4">
				<use xlink:href="#SVGID_2_"  style="overflow:visible;"/>
			</clipPath>
			<clipPath id="SVGID_6_" class="st5">
				<use xlink:href="#SVGID_3_"  style="overflow:visible;"/>
			</clipPath>
			
				<rect x="90" y="141.4" transform="matrix(0.7071 -0.7071 0.7071 0.7071 -77.6582 107.6864)" class="st6" width="2.3" height="12.4"/>
			
				<use xlink:href="#SVGID_3_"  style="overflow:visible;fill-rule:evenodd;clip-rule:evenodd;fill:none;stroke:#1A171B;stroke-width:0.5;stroke-miterlimit:3.8637;"/>
		</g>
		<g>
			<defs>
				<path id="SVGID_7_" d="M99.6,147.6c0-3.1,2.5-5.7,5.7-5.7s5.7,2.5,5.7,5.7s-2.5,5.7-5.7,5.7S99.6,150.7,99.6,147.6z"/>
			</defs>
			<defs>
				<path id="SVGID_8_" d="M99.6,147.6c0-3.1,2.5-5.7,5.7-5.7s5.7,2.5,5.7,5.7s-2.5,5.7-5.7,5.7S99.6,150.7,99.6,147.6z"/>
			</defs>
			<defs>
				<path id="SVGID_9_" d="M99.6,147.6c0-3.1,2.5-5.7,5.7-5.7s5.7,2.5,5.7,5.7s-2.5,5.7-5.7,5.7S99.6,150.7,99.6,147.6z"/>
			</defs>
			<use xlink:href="#SVGID_7_"  style="overflow:visible;fill-rule:evenodd;clip-rule:evenodd;fill:#FFFFFF;"/>
			<clipPath id="SVGID_10_">
				<use xlink:href="#SVGID_7_"  style="overflow:visible;"/>
			</clipPath>
			<clipPath id="SVGID_11_" class="st7">
				<use xlink:href="#SVGID_8_"  style="overflow:visible;"/>
			</clipPath>
			<clipPath id="SVGID_12_" class="st8">
				<use xlink:href="#SVGID_9_"  style="overflow:visible;"/>
			</clipPath>
			
				<rect x="104.1" y="141.4" transform="matrix(0.7071 -0.7071 0.7071 0.7071 -73.5256 117.6633)" class="st9" width="2.3" height="12.4"/>
			
				<use xlink:href="#SVGID_9_"  style="overflow:visible;fill-rule:evenodd;clip-rule:evenodd;fill:none;stroke:#1A171B;stroke-width:0.5;stroke-miterlimit:3.8637;"/>
		</g>
	</g>
	<g>
		<defs>
			<path id="SVGID_13_" d="M8.9,87.5c0-3.1,2.5-5.7,5.7-5.7s5.7,2.5,5.7,5.7c0,3.1-2.5,5.7-5.7,5.7S8.9,90.7,8.9,87.5z"/>
		</defs>
		<defs>
			<path id="SVGID_14_" d="M8.9,87.5c0-3.1,2.5-5.7,5.7-5.7s5.7,2.5,5.7,5.7c0,3.1-2.5,5.7-5.7,5.7S8.9,90.7,8.9,87.5z"/>
		</defs>
		<defs>
			<path id="SVGID_15_" d="M8.9,87.5c0-3.1,2.5-5.7,5.7-5.7s5.7,2.5,5.7,5.7c0,3.1-2.5,5.7-5.7,5.7S8.9,90.7,8.9,87.5z"/>
		</defs>
		<use xlink:href="#SVGID_13_"  style="overflow:visible;fill-rule:evenodd;clip-rule:evenodd;fill:#FFFFFF;"/>
		<clipPath id="SVGID_16_">
			<use xlink:href="#SVGID_13_"  style="overflow:visible;"/>
		</clipPath>
		<clipPath id="SVGID_17_" class="st10">
			<use xlink:href="#SVGID_14_"  style="overflow:visible;"/>
		</clipPath>
		<clipPath id="SVGID_18_" class="st11">
			<use xlink:href="#SVGID_15_"  style="overflow:visible;"/>
		</clipPath>
		
			<rect x="8.3" y="86.4" transform="matrix(0.7071 -0.7071 0.7071 0.7071 -57.6482 35.9148)" class="st12" width="12.4" height="2.3"/>
		
			<use xlink:href="#SVGID_15_"  style="overflow:visible;fill-rule:evenodd;clip-rule:evenodd;fill:none;stroke:#1A171B;stroke-width:0.5;stroke-miterlimit:3.8637;"/>
	</g>
	<g>
		<defs>
			<path id="SVGID_19_" d="M8.9,129.9c0-3.1,2.5-5.7,5.7-5.7s5.7,2.5,5.7,5.7s-2.5,5.7-5.7,5.7S8.9,133,8.9,129.9z"/>
		</defs>
		<defs>
			<path id="SVGID_20_" d="M8.9,129.9c0-3.1,2.5-5.7,5.7-5.7s5.7,2.5,5.7,5.7s-2.5,5.7-5.7,5.7S8.9,133,8.9,129.9z"/>
		</defs>
		<defs>
			<path id="SVGID_21_" d="M8.9,129.9c0-3.1,2.5-5.7,5.7-5.7s5.7,2.5,5.7,5.7s-2.5,5.7-5.7,5.7S8.9,133,8.9,129.9z"/>
		</defs>
		<use xlink:href="#SVGID_19_"  style="overflow:visible;fill-rule:evenodd;clip-rule:evenodd;fill:#FFFFFF;"/>
		<clipPath id="SVGID_22_">
			<use xlink:href="#SVGID_19_"  style="overflow:visible;"/>
		</clipPath>
		<clipPath id="SVGID_23_" class="st13">
			<use xlink:href="#SVGID_20_"  style="overflow:visible;"/>
		</clipPath>
		<clipPath id="SVGID_24_" class="st14">
			<use xlink:href="#SVGID_21_"  style="overflow:visible;"/>
		</clipPath>
		
			<rect x="8.3" y="128.7" transform="matrix(0.7071 -0.7071 0.7071 0.7071 -87.5794 48.3127)" class="st15" width="12.4" height="2.3"/>
		
			<use xlink:href="#SVGID_21_"  style="overflow:visible;fill-rule:evenodd;clip-rule:evenodd;fill:none;stroke:#1A171B;stroke-width:0.5;stroke-miterlimit:3.8637;"/>
	</g>
	<g>
		<defs>
			<path id="SVGID_25_" d="M8.9,115.8c0-3.1,2.5-5.7,5.7-5.7s5.7,2.5,5.7,5.7s-2.5,5.7-5.7,5.7S8.9,118.9,8.9,115.8z"/>
		</defs>
		<defs>
			<path id="SVGID_26_" d="M8.9,115.8c0-3.1,2.5-5.7,5.7-5.7s5.7,2.5,5.7,5.7s-2.5,5.7-5.7,5.7S8.9,118.9,8.9,115.8z"/>
		</defs>
		<defs>
			<path id="SVGID_27_" d="M8.9,115.8c0-3.1,2.5-5.7,5.7-5.7s5.7,2.5,5.7,5.7s-2.5,5.7-5.7,5.7S8.9,118.9,8.9,115.8z"/>
		</defs>
		<use xlink:href="#SVGID_25_"  style="overflow:visible;fill-rule:evenodd;clip-rule:evenodd;fill:#FFFFFF;"/>
		<clipPath id="SVGID_28_">
			<use xlink:href="#SVGID_25_"  style="overflow:visible;"/>
		</clipPath>
		<clipPath id="SVGID_29_" class="st16">
			<use xlink:href="#SVGID_26_"  style="overflow:visible;"/>
		</clipPath>
		<clipPath id="SVGID_30_" class="st17">
			<use xlink:href="#SVGID_27_"  style="overflow:visible;"/>
		</clipPath>
		
			<rect x="8.3" y="114.6" transform="matrix(0.7071 -0.7071 0.7071 0.7071 -77.6025 44.1802)" class="st18" width="12.4" height="2.3"/>
		
			<use xlink:href="#SVGID_27_"  style="overflow:visible;fill-rule:evenodd;clip-rule:evenodd;fill:none;stroke:#1A171B;stroke-width:0.5;stroke-miterlimit:3.8637;"/>
	</g>
	<g>
		<defs>
			<path id="SVGID_31_" d="M8.9,101.7c0-3.1,2.5-5.7,5.7-5.7s5.7,2.5,5.7,5.7c0,3.1-2.5,5.7-5.7,5.7S8.9,104.8,8.9,101.7z"/>
		</defs>
		<defs>
			<path id="SVGID_32_" d="M8.9,101.7c0-3.1,2.5-5.7,5.7-5.7s5.7,2.5,5.7,5.7c0,3.1-2.5,5.7-5.7,5.7S8.9,104.8,8.9,101.7z"/>
		</defs>
		<defs>
			<path id="SVGID_33_" d="M8.9,101.7c0-3.1,2.5-5.7,5.7-5.7s5.7,2.5,5.7,5.7c0,3.1-2.5,5.7-5.7,5.7S8.9,104.8,8.9,101.7z"/>
		</defs>
		<use xlink:href="#SVGID_31_"  style="overflow:visible;fill-rule:evenodd;clip-rule:evenodd;fill:#FFFFFF;"/>
		<clipPath id="SVGID_34_">
			<use xlink:href="#SVGID_31_"  style="overflow:visible;"/>
		</clipPath>
		<clipPath id="SVGID_35_" class="st19">
			<use xlink:href="#SVGID_32_"  style="overflow:visible;"/>
		</clipPath>
		<clipPath id="SVGID_36_" class="st20">
			<use xlink:href="#SVGID_33_"  style="overflow:visible;"/>
		</clipPath>
		
			<rect x="8.3" y="100.5" transform="matrix(0.7069 -0.7073 0.7073 0.7069 -67.644 40.0725)" class="st21" width="12.4" height="2.3"/>
		
			<use xlink:href="#SVGID_33_"  style="overflow:visible;fill-rule:evenodd;clip-rule:evenodd;fill:none;stroke:#1A171B;stroke-width:0.5;stroke-miterlimit:3.8637;"/>
	</g>
	<g>
		<path class="st2" d="M127.8,87.5c0-3.9,3.2-7.1,7.1-7.1l0,0c3.9,0,7.1,3.2,7.1,7.1V130c0,3.9-3.2,7.1-7.1,7.1l0,0
			c-3.9,0-7.1-3.2-7.1-7.1V87.5z"/>
		<g>
			<defs>
				<path id="SVGID_37_" d="M129.3,87.5c0-3.1,2.5-5.7,5.7-5.7s5.7,2.5,5.7,5.7c0,3.1-2.5,5.7-5.7,5.7S129.3,90.7,129.3,87.5z"/>
			</defs>
			<defs>
				<path id="SVGID_38_" d="M129.3,87.5c0-3.1,2.5-5.7,5.7-5.7s5.7,2.5,5.7,5.7c0,3.1-2.5,5.7-5.7,5.7S129.3,90.7,129.3,87.5z"/>
			</defs>
			<defs>
				<path id="SVGID_39_" d="M129.3,87.5c0-3.1,2.5-5.7,5.7-5.7s5.7,2.5,5.7,5.7c0,3.1-2.5,5.7-5.7,5.7S129.3,90.7,129.3,87.5z"/>
			</defs>
			<use xlink:href="#SVGID_37_"  style="overflow:visible;fill-rule:evenodd;clip-rule:evenodd;fill:#FFFFFF;"/>
			<clipPath id="SVGID_40_">
				<use xlink:href="#SVGID_37_"  style="overflow:visible;"/>
			</clipPath>
			<clipPath id="SVGID_41_" class="st22">
				<use xlink:href="#SVGID_38_"  style="overflow:visible;"/>
			</clipPath>
			<clipPath id="SVGID_42_" class="st23">
				<use xlink:href="#SVGID_39_"  style="overflow:visible;"/>
			</clipPath>
			
				<rect x="128.8" y="86.4" transform="matrix(0.7072 -0.7071 0.7071 0.7072 -22.3652 121.0897)" class="st24" width="12.4" height="2.3"/>
			
				<use xlink:href="#SVGID_39_"  style="overflow:visible;fill-rule:evenodd;clip-rule:evenodd;fill:none;stroke:#1A171B;stroke-width:0.5;stroke-miterlimit:3.8637;"/>
		</g>
		<g>
			<defs>
				<path id="SVGID_43_" d="M129.3,129.9c0-3.1,2.5-5.7,5.7-5.7s5.7,2.5,5.7,5.7s-2.5,5.7-5.7,5.7S129.3,133,129.3,129.9z"/>
			</defs>
			<defs>
				<path id="SVGID_44_" d="M129.3,129.9c0-3.1,2.5-5.7,5.7-5.7s5.7,2.5,5.7,5.7s-2.5,5.7-5.7,5.7S129.3,133,129.3,129.9z"/>
			</defs>
			<defs>
				<path id="SVGID_45_" d="M129.3,129.9c0-3.1,2.5-5.7,5.7-5.7s5.7,2.5,5.7,5.7s-2.5,5.7-5.7,5.7S129.3,133,129.3,129.9z"/>
			</defs>
			<use xlink:href="#SVGID_43_"  style="overflow:visible;fill-rule:evenodd;clip-rule:evenodd;fill:#FFFFFF;"/>
			<clipPath id="SVGID_46_">
				<use xlink:href="#SVGID_43_"  style="overflow:visible;"/>
			</clipPath>
			<clipPath id="SVGID_47_" class="st25">
				<use xlink:href="#SVGID_44_"  style="overflow:visible;"/>
			</clipPath>
			<clipPath id="SVGID_48_" class="st26">
				<use xlink:href="#SVGID_45_"  style="overflow:visible;"/>
			</clipPath>
			
				<rect x="128.8" y="128.7" transform="matrix(0.7072 -0.7071 0.7071 0.7072 -52.2941 133.4854)" class="st27" width="12.4" height="2.3"/>
			
				<use xlink:href="#SVGID_45_"  style="overflow:visible;fill-rule:evenodd;clip-rule:evenodd;fill:none;stroke:#1A171B;stroke-width:0.5;stroke-miterlimit:3.8637;"/>
		</g>
		<g>
			<defs>
				<path id="SVGID_49_" d="M129.3,115.8c0-3.1,2.5-5.7,5.7-5.7s5.7,2.5,5.7,5.7s-2.5,5.7-5.7,5.7S129.3,118.9,129.3,115.8z"/>
			</defs>
			<defs>
				<path id="SVGID_50_" d="M129.3,115.8c0-3.1,2.5-5.7,5.7-5.7s5.7,2.5,5.7,5.7s-2.5,5.7-5.7,5.7S129.3,118.9,129.3,115.8z"/>
			</defs>
			<defs>
				<path id="SVGID_51_" d="M129.3,115.8c0-3.1,2.5-5.7,5.7-5.7s5.7,2.5,5.7,5.7s-2.5,5.7-5.7,5.7S129.3,118.9,129.3,115.8z"/>
			</defs>
			<use xlink:href="#SVGID_49_"  style="overflow:visible;fill-rule:evenodd;clip-rule:evenodd;fill:#FFFFFF;"/>
			<clipPath id="SVGID_52_">
				<use xlink:href="#SVGID_49_"  style="overflow:visible;"/>
			</clipPath>
			<clipPath id="SVGID_53_" class="st28">
				<use xlink:href="#SVGID_50_"  style="overflow:visible;"/>
			</clipPath>
			<clipPath id="SVGID_54_" class="st29">
				<use xlink:href="#SVGID_51_"  style="overflow:visible;"/>
			</clipPath>
			
				<rect x="128.8" y="114.6" transform="matrix(0.7072 -0.7071 0.7071 0.7072 -42.318 129.3536)" class="st30" width="12.4" height="2.3"/>
			
				<use xlink:href="#SVGID_51_"  style="overflow:visible;fill-rule:evenodd;clip-rule:evenodd;fill:none;stroke:#1A171B;stroke-width:0.5;stroke-miterlimit:3.8637;"/>
		</g>
		<g>
			<defs>
				<path id="SVGID_55_" d="M129.3,101.7c0-3.1,2.5-5.7,5.7-5.7s5.7,2.5,5.7,5.7c0,3.1-2.5,5.7-5.7,5.7S129.3,104.8,129.3,101.7z"/>
			</defs>
			<defs>
				<path id="SVGID_56_" d="M129.3,101.7c0-3.1,2.5-5.7,5.7-5.7s5.7,2.5,5.7,5.7c0,3.1-2.5,5.7-5.7,5.7S129.3,104.8,129.3,101.7z"/>
			</defs>
			<defs>
				<path id="SVGID_57_" d="M129.3,101.7c0-3.1,2.5-5.7,5.7-5.7s5.7,2.5,5.7,5.7c0,3.1-2.5,5.7-5.7,5.7S129.3,104.8,129.3,101.7z"/>
			</defs>
			<use xlink:href="#SVGID_55_"  style="overflow:visible;fill-rule:evenodd;clip-rule:evenodd;fill:#FFFFFF;"/>
			<clipPath id="SVGID_58_">
				<use xlink:href="#SVGID_55_"  style="overflow:visible;"/>
			</clipPath>
			<clipPath id="SVGID_59_" class="st31">
				<use xlink:href="#SVGID_56_"  style="overflow:visible;"/>
			</clipPath>
			<clipPath id="SVGID_60_" class="st32">
				<use xlink:href="#SVGID_57_"  style="overflow:visible;"/>
			</clipPath>
			
				<rect x="128.8" y="100.5" transform="matrix(0.7069 -0.7073 0.7073 0.7069 -32.3342 125.2726)" class="st33" width="12.4" height="2.3"/>
			
				<use xlink:href="#SVGID_57_"  style="overflow:visible;fill-rule:evenodd;clip-rule:evenodd;fill:none;stroke:#1A171B;stroke-width:0.5;stroke-miterlimit:3.8637;"/>
		</g>
	</g>
	<g>
		<g>
			<g>
				<path class="st34" d="M47.1,102.9c0.2,0,0.4,0.1,0.5,0.2c0.1,0.1,0.2,0.3,0.2,0.5c0,0.2-0.1,0.4-0.2,0.5
					c-0.1,0.1-0.3,0.2-0.5,0.2c-0.2,0-0.4-0.1-0.5-0.2c-0.1-0.1-0.2-0.3-0.2-0.5s0.1-0.4,0.2-0.5C46.7,102.9,46.9,102.9,47.1,102.9z
					 M46.4,112.2v-5.7h-0.9v-1h2.1v6.8H46.4z"/>
				<path class="st34" d="M53.7,112.2v-3.9c0-0.7-0.1-1.2-0.3-1.5c-0.2-0.3-0.6-0.4-1.1-0.4c-0.3,0-0.6,0.1-0.9,0.2
					s-0.5,0.4-0.7,0.6v5h-1.2v-6.8h0.8l0.4,0.9c0.4-0.7,1-1,1.9-1c1.5,0,2.2,0.9,2.2,2.7v4.2H53.7z"/>
				<path class="st34" d="M56.3,114l0.6-1c0.7,0.5,1.3,0.7,1.9,0.7c0.5,0,1-0.1,1.3-0.3c0.3-0.2,0.5-0.4,0.5-0.7
					c0-0.5-0.4-0.8-1.2-0.8c-0.1,0-0.4,0-0.7,0.1s-0.6,0.1-0.8,0.1c-1,0-1.4-0.4-1.4-1.1c0-0.2,0.1-0.4,0.3-0.6
					c0.2-0.2,0.5-0.3,0.8-0.4c-0.9-0.4-1.4-1.2-1.4-2.3c0-0.7,0.2-1.3,0.7-1.8c0.5-0.5,1.1-0.7,1.8-0.7c0.7,0,1.2,0.1,1.6,0.4
					L61,105l0.8,0.7l-0.7,0.5c0.3,0.4,0.5,0.9,0.5,1.6c0,0.7-0.2,1.3-0.6,1.7c-0.4,0.5-1,0.7-1.7,0.8l-1,0.1c-0.1,0-0.3,0.1-0.5,0.1
					c-0.2,0.1-0.3,0.2-0.3,0.3c0,0.2,0.2,0.3,0.6,0.3c0.2,0,0.5,0,0.8-0.1c0.4-0.1,0.7-0.1,0.9-0.1c0.7,0,1.2,0.2,1.6,0.5
					c0.4,0.3,0.6,0.8,0.6,1.3c0,0.6-0.3,1.1-0.8,1.5c-0.6,0.4-1.3,0.6-2.1,0.6c-0.4,0-0.9-0.1-1.4-0.2C57,114.4,56.6,114.2,56.3,114
					z M58.9,106.3c-0.4,0-0.8,0.1-1,0.4c-0.3,0.3-0.4,0.7-0.4,1.1c0,0.5,0.1,0.9,0.4,1.2c0.3,0.3,0.6,0.5,1,0.5c0.4,0,0.8-0.1,1-0.4
					c0.2-0.3,0.4-0.7,0.4-1.2c0-0.4-0.1-0.8-0.4-1.1C59.6,106.4,59.3,106.3,58.9,106.3z"/>
				<path class="st34" d="M68.8,108.9h-4.9c0,0.8,0.2,1.4,0.6,1.8c0.4,0.4,0.9,0.6,1.5,0.6c0.7,0,1.3-0.2,1.7-0.6l0.5,0.9
					c-0.2,0.2-0.5,0.3-0.9,0.5c-0.5,0.2-1,0.3-1.6,0.3c-0.8,0-1.6-0.3-2.2-0.9c-0.7-0.6-1-1.5-1-2.6c0-1.1,0.3-2,1-2.7
					c0.6-0.6,1.3-0.9,2.1-0.9c1,0,1.7,0.3,2.3,0.8c0.5,0.5,0.8,1.2,0.8,2.1C68.8,108.4,68.8,108.7,68.8,108.9z M65.8,106.3
					c-0.5,0-1,0.2-1.3,0.5c-0.3,0.3-0.5,0.7-0.6,1.2h3.7c0-0.5-0.2-0.9-0.5-1.2C66.9,106.5,66.4,106.3,65.8,106.3z"/>
				<path class="st34" d="M74.3,112.2v-3.9c0-0.7-0.1-1.2-0.3-1.5c-0.2-0.3-0.6-0.4-1.1-0.4c-0.3,0-0.6,0.1-0.9,0.2
					s-0.5,0.4-0.7,0.6v5h-1.2v-6.8h0.8l0.4,0.9c0.4-0.7,1-1,1.9-1c1.5,0,2.2,0.9,2.2,2.7v4.2H74.3z"/>
				<path class="st34" d="M78.4,102.9c0.2,0,0.4,0.1,0.5,0.2c0.1,0.1,0.2,0.3,0.2,0.5c0,0.2-0.1,0.4-0.2,0.5
					c-0.1,0.1-0.3,0.2-0.5,0.2c-0.2,0-0.4-0.1-0.5-0.2c-0.1-0.1-0.2-0.3-0.2-0.5s0.1-0.4,0.2-0.5S78.2,102.9,78.4,102.9z
					 M77.7,112.2v-5.7h-0.9v-1h2.1v6.8H77.7z"/>
				<path class="st34" d="M82,105.4v4.3c0,1,0.5,1.6,1.4,1.6c0.4,0,0.8-0.1,1.1-0.3c0.3-0.2,0.5-0.5,0.6-0.8v-4.7h1.2v6.8h-1.2v-0.9
					c-0.1,0.3-0.4,0.5-0.8,0.7c-0.4,0.2-0.8,0.3-1.2,0.3c-0.7,0-1.3-0.2-1.7-0.6c-0.4-0.4-0.6-1-0.6-1.8v-4.4H82z"/>
				<path class="st34" d="M95.7,112.2v-4.3c0-1.1-0.5-1.6-1.4-1.6c-0.3,0-0.6,0.1-0.8,0.3c-0.3,0.2-0.4,0.4-0.5,0.6v5h-1.2v-4.8
					c0-0.3-0.1-0.6-0.4-0.8c-0.2-0.2-0.6-0.3-1-0.3c-0.2,0-0.5,0.1-0.8,0.3c-0.3,0.2-0.5,0.4-0.6,0.6v5h-1.2v-6.8h0.8l0.4,0.8
					c0.5-0.6,1-0.9,1.7-0.9c1,0,1.6,0.3,2,0.9c0.1-0.3,0.4-0.5,0.8-0.6c0.4-0.2,0.7-0.3,1.1-0.3c0.7,0,1.2,0.2,1.6,0.6
					c0.4,0.4,0.6,1,0.6,1.7v4.5H95.7z"/>
			</g>
			<g>
				<polygon class="st34" points="65.9,117.9 65.8,117.9 65.1,116.2 64.3,117.9 64.2,117.9 63.4,115.4 63.8,115.4 64.3,117 
					65,115.4 65.1,115.4 65.8,117 66.3,115.4 66.7,115.4 				"/>
				<polygon class="st34" points="69.3,117.9 69.2,117.9 68.5,116.2 67.8,117.9 67.7,117.9 66.8,115.4 67.3,115.4 67.8,117 
					68.4,115.4 68.5,115.4 69.2,117 69.8,115.4 70.2,115.4 				"/>
				<polygon class="st34" points="72.8,117.9 72.7,117.9 71.9,116.2 71.2,117.9 71.1,117.9 70.3,115.4 70.7,115.4 71.2,117 
					71.9,115.4 72,115.4 72.7,117 73.2,115.4 73.6,115.4 				"/>
				<path class="st34" d="M74.5,117.2c0.1,0,0.2,0,0.2,0.1c0.1,0.1,0.1,0.1,0.1,0.2s0,0.2-0.1,0.2c-0.1,0.1-0.1,0.1-0.2,0.1
					s-0.2,0-0.2-0.1c-0.1-0.1-0.1-0.1-0.1-0.2s0-0.2,0.1-0.2C74.3,117.2,74.4,117.2,74.5,117.2z"/>
				<path class="st34" d="M76.1,114.5c0.1,0,0.1,0,0.2,0.1c0.1,0.1,0.1,0.1,0.1,0.2c0,0.1,0,0.1-0.1,0.2c-0.1,0.1-0.1,0.1-0.2,0.1
					c-0.1,0-0.1,0-0.2-0.1c-0.1-0.1-0.1-0.1-0.1-0.2c0-0.1,0-0.1,0.1-0.2C76,114.5,76.1,114.5,76.1,114.5z M75.9,117.8v-2.1h-0.3
					v-0.4h0.8v2.4H75.9z"/>
				<path class="st34" d="M78.5,117.8v-1.4c0-0.3,0-0.4-0.1-0.5c-0.1-0.1-0.2-0.2-0.4-0.2c-0.1,0-0.2,0-0.3,0.1
					c-0.1,0.1-0.2,0.1-0.2,0.2v1.8H77v-2.4h0.3l0.1,0.3c0.1-0.2,0.4-0.4,0.7-0.4c0.5,0,0.8,0.3,0.8,1v1.5H78.5z"/>
				<path class="st34" d="M79.4,118.5l0.2-0.3c0.3,0.2,0.5,0.3,0.7,0.3c0.2,0,0.3,0,0.5-0.1c0.1-0.1,0.2-0.1,0.2-0.2
					c0-0.2-0.1-0.3-0.4-0.3c0,0-0.1,0-0.3,0s-0.2,0-0.3,0c-0.3,0-0.5-0.1-0.5-0.4c0-0.1,0-0.2,0.1-0.2c0.1-0.1,0.2-0.1,0.3-0.1
					c-0.3-0.2-0.5-0.4-0.5-0.8c0-0.3,0.1-0.5,0.3-0.6s0.4-0.3,0.7-0.3c0.2,0,0.4,0,0.6,0.1l0.2-0.3l0.3,0.3l-0.3,0.2
					c0.1,0.1,0.2,0.3,0.2,0.6c0,0.2-0.1,0.4-0.2,0.6s-0.4,0.3-0.6,0.3l-0.4,0c0,0-0.1,0-0.2,0c-0.1,0-0.1,0.1-0.1,0.1
					c0,0.1,0.1,0.1,0.2,0.1c0.1,0,0.2,0,0.3,0c0.1,0,0.2,0,0.3,0c0.2,0,0.4,0.1,0.6,0.2c0.1,0.1,0.2,0.3,0.2,0.5
					c0,0.2-0.1,0.4-0.3,0.5c-0.2,0.1-0.5,0.2-0.8,0.2c-0.2,0-0.3,0-0.5-0.1C79.7,118.6,79.6,118.6,79.4,118.5z M80.4,115.7
					c-0.1,0-0.3,0.1-0.4,0.2c-0.1,0.1-0.1,0.2-0.1,0.4c0,0.2,0,0.3,0.1,0.4c0.1,0.1,0.2,0.2,0.4,0.2c0.2,0,0.3-0.1,0.4-0.2
					c0.1-0.1,0.1-0.3,0.1-0.4c0-0.2,0-0.3-0.1-0.4C80.6,115.7,80.5,115.7,80.4,115.7z"/>
				<path class="st34" d="M83.9,116.6h-1.7c0,0.3,0.1,0.5,0.2,0.7c0.1,0.1,0.3,0.2,0.5,0.2c0.2,0,0.5-0.1,0.6-0.2l0.2,0.3
					c-0.1,0.1-0.2,0.1-0.3,0.2c-0.2,0.1-0.4,0.1-0.6,0.1c-0.3,0-0.6-0.1-0.8-0.3c-0.2-0.2-0.4-0.5-0.4-0.9c0-0.4,0.1-0.7,0.4-1
					c0.2-0.2,0.5-0.3,0.8-0.3c0.3,0,0.6,0.1,0.8,0.3c0.2,0.2,0.3,0.4,0.3,0.7C83.9,116.5,83.9,116.6,83.9,116.6z M82.9,115.7
					c-0.2,0-0.4,0.1-0.5,0.2c-0.1,0.1-0.2,0.3-0.2,0.4h1.3c0-0.2-0.1-0.3-0.2-0.4C83.2,115.8,83.1,115.7,82.9,115.7z"/>
				<path class="st34" d="M85.9,117.8v-1.4c0-0.3,0-0.4-0.1-0.5c-0.1-0.1-0.2-0.2-0.4-0.2c-0.1,0-0.2,0-0.3,0.1
					c-0.1,0.1-0.2,0.1-0.2,0.2v1.8h-0.4v-2.4h0.3l0.1,0.3c0.1-0.2,0.4-0.4,0.7-0.4c0.5,0,0.8,0.3,0.8,1v1.5H85.9z"/>
				<path class="st34" d="M87.4,114.5c0.1,0,0.1,0,0.2,0.1c0.1,0.1,0.1,0.1,0.1,0.2c0,0.1,0,0.1-0.1,0.2c-0.1,0.1-0.1,0.1-0.2,0.1
					c-0.1,0-0.1,0-0.2-0.1c-0.1-0.1-0.1-0.1-0.1-0.2c0-0.1,0-0.1,0.1-0.2C87.2,114.5,87.3,114.5,87.4,114.5z M87.1,117.8v-2.1h-0.3
					v-0.4h0.8v2.4H87.1z"/>
				<path class="st34" d="M88.6,115.4v1.5c0,0.4,0.2,0.6,0.5,0.6c0.1,0,0.3,0,0.4-0.1c0.1-0.1,0.2-0.2,0.2-0.3v-1.7h0.4v2.4h-0.4
					v-0.3c0,0.1-0.1,0.2-0.3,0.3c-0.1,0.1-0.3,0.1-0.4,0.1c-0.3,0-0.5-0.1-0.6-0.2c-0.1-0.2-0.2-0.4-0.2-0.6v-1.6H88.6z"/>
				<path class="st34" d="M93.6,117.8v-1.5c0-0.4-0.2-0.6-0.5-0.6c-0.1,0-0.2,0-0.3,0.1c-0.1,0.1-0.2,0.1-0.2,0.2v1.8h-0.4v-1.7
					c0-0.1,0-0.2-0.1-0.3c-0.1-0.1-0.2-0.1-0.4-0.1c-0.1,0-0.2,0-0.3,0.1c-0.1,0.1-0.2,0.1-0.2,0.2v1.8h-0.4v-2.4h0.3l0.1,0.3
					c0.2-0.2,0.4-0.3,0.6-0.3c0.3,0,0.6,0.1,0.7,0.3c0-0.1,0.1-0.2,0.3-0.2c0.1-0.1,0.3-0.1,0.4-0.1c0.3,0,0.4,0.1,0.6,0.2
					c0.1,0.1,0.2,0.4,0.2,0.6v1.6H93.6z"/>
				<path class="st34" d="M94.5,117.7l0.2-0.4c0.2,0.2,0.4,0.2,0.6,0.2c0.3,0,0.4-0.1,0.4-0.3c0-0.2-0.1-0.3-0.4-0.4
					c-0.2-0.1-0.3-0.2-0.4-0.2c-0.1,0-0.1-0.1-0.2-0.2c0-0.1-0.1-0.1-0.1-0.2c0-0.1,0-0.1,0-0.2c0-0.2,0.1-0.4,0.2-0.5
					s0.3-0.2,0.6-0.2c0.2,0,0.4,0.1,0.7,0.2l-0.1,0.4c-0.2-0.1-0.3-0.2-0.5-0.2c-0.1,0-0.2,0-0.3,0.1c-0.1,0-0.1,0.1-0.1,0.2
					c0,0.2,0.1,0.3,0.3,0.4l0.3,0.1c0.2,0.1,0.3,0.2,0.4,0.3c0.1,0.1,0.1,0.2,0.1,0.4c0,0.2-0.1,0.4-0.2,0.5
					c-0.2,0.1-0.4,0.2-0.6,0.2C94.9,117.9,94.7,117.8,94.5,117.7z"/>
				<path class="st34" d="M96.5,117.1v-2.7H97v2.7c0,0.1,0,0.2,0.1,0.3c0.1,0.1,0.2,0.1,0.3,0.1v0.4
					C96.8,117.9,96.5,117.6,96.5,117.1z"/>
				<path class="st34" d="M98.4,117.2c0.1,0,0.2,0,0.2,0.1s0.1,0.1,0.1,0.2s0,0.2-0.1,0.2c-0.1,0.1-0.1,0.1-0.2,0.1s-0.2,0-0.2-0.1
					c-0.1-0.1-0.1-0.1-0.1-0.2s0-0.2,0.1-0.2S98.3,117.2,98.4,117.2z"/>
				<path class="st34" d="M101.4,115.6l-0.2,0.3c0,0-0.1-0.1-0.2-0.1c-0.1,0-0.2-0.1-0.3-0.1c-0.2,0-0.4,0.1-0.6,0.2
					c-0.1,0.2-0.2,0.4-0.2,0.7c0,0.3,0.1,0.5,0.2,0.6c0.1,0.1,0.3,0.2,0.6,0.2c0.2,0,0.4-0.1,0.6-0.2l0.2,0.4
					c-0.2,0.1-0.5,0.2-0.9,0.2c-0.3,0-0.6-0.1-0.8-0.3c-0.2-0.2-0.3-0.5-0.3-0.9c0-0.4,0.1-0.7,0.3-0.9c0.2-0.2,0.5-0.4,0.9-0.4
					c0.1,0,0.3,0,0.4,0.1S101.3,115.5,101.4,115.6z"/>
				<path class="st34" d="M101.7,116.6c0-0.4,0.1-0.7,0.3-0.9c0.2-0.2,0.5-0.3,0.8-0.3c0.3,0,0.6,0.1,0.8,0.3
					c0.2,0.2,0.3,0.5,0.3,0.9c0,0.4-0.1,0.7-0.3,0.9s-0.5,0.3-0.8,0.3c-0.3,0-0.6-0.1-0.8-0.3S101.7,117,101.7,116.6z M102.2,116.6
					c0,0.6,0.2,0.9,0.6,0.9c0.2,0,0.4-0.1,0.5-0.2c0.1-0.2,0.2-0.4,0.2-0.7c0-0.6-0.2-0.9-0.6-0.9c-0.2,0-0.4,0.1-0.5,0.2
					C102.2,116.1,102.2,116.3,102.2,116.6z"/>
				<path class="st34" d="M107.2,117.8v-1.5c0-0.4-0.2-0.6-0.5-0.6c-0.1,0-0.2,0-0.3,0.1c-0.1,0.1-0.2,0.1-0.2,0.2v1.8h-0.4v-1.7
					c0-0.1,0-0.2-0.1-0.3c-0.1-0.1-0.2-0.1-0.4-0.1c-0.1,0-0.2,0-0.3,0.1c-0.1,0.1-0.2,0.1-0.2,0.2v1.8h-0.4v-2.4h0.3l0.1,0.3
					c0.2-0.2,0.4-0.3,0.6-0.3c0.3,0,0.6,0.1,0.7,0.3c0-0.1,0.1-0.2,0.3-0.2c0.1-0.1,0.3-0.1,0.4-0.1c0.3,0,0.4,0.1,0.6,0.2
					c0.1,0.1,0.2,0.4,0.2,0.6v1.6H107.2z"/>
			</g>
			<path class="st35" d="M68.8,81.1l6.5,6.5H81l8.1-8.1l5.1,5.1l-16.1,16.1L62,84.6l3.5-3.5c-0.1-0.3-0.2-0.6-0.2-0.9
				c0-1,0.8-1.9,1.9-1.9s1.9,0.8,1.9,1.9C69,80.6,68.9,80.9,68.8,81.1z M66.2,81.9l-2.7,2.7l14.6,14.6l14.6-14.6L89,81l-7.6,7.6
				h-6.6L68,81.9c-0.3,0.2-0.6,0.2-0.9,0.2C66.8,82.1,66.5,82.1,66.2,81.9z M75.2,72.8c0.2,0.3,0.3,0.6,0.3,1c0,0.4-0.1,0.8-0.3,1.1
				l2.8,2.8l3.7-3.7l-3.7-3.7L75.2,72.8z M71.8,73.7c0-1,0.8-1.9,1.9-1.9c0.3,0,0.6,0.1,0.8,0.2l3.5-3.5l5.2,5.2l-5.2,5.2l-3.6-3.6
				c-0.2,0.1-0.5,0.1-0.7,0.1C72.6,75.6,71.8,74.8,71.8,73.7z M68.5,77c0-1,0.8-1.9,1.9-1.9c1,0,1.9,0.8,1.9,1.9
				c0,0.4-0.1,0.7-0.3,1l4.9,4.9h2.5l6.2-6.2l0.8,0.8l-6.5,6.5h-3.4l-5.2-5.2c-0.2,0.1-0.5,0.2-0.8,0.2C69.3,78.9,68.5,78,68.5,77z"
				/>
		</g>
		<g>
			<polygon class="st34" points="114.4,86.8 113.1,86.8 113.1,88.4 112.5,88.4 112.5,86.8 111.2,86.8 111.2,86 112.5,86 112.5,84.5 
				113.1,84.5 113.1,86 114.4,86 			"/>
			<path class="st34" d="M117.8,88.4h-2.3v-0.8h0.7v-2.3h-0.7v-0.7c0.1,0,0.2,0,0.3,0c0.1,0,0.2,0,0.3-0.1c0.1,0,0.1-0.1,0.2-0.2
				c0-0.1,0.1-0.2,0.1-0.3h0.8v3.6h0.7V88.4z"/>
			<path class="st34" d="M121.4,88.4h-2.7v-0.7c0.2-0.2,0.4-0.4,0.6-0.6c0.2-0.2,0.4-0.4,0.5-0.6c0.2-0.2,0.3-0.4,0.4-0.6
				c0.1-0.2,0.1-0.3,0.1-0.5c0-0.2-0.1-0.4-0.2-0.5c-0.1-0.1-0.2-0.2-0.4-0.2c-0.1,0-0.3,0-0.5,0.1c-0.2,0.1-0.3,0.2-0.4,0.3h-0.1
				v-1c0.1-0.1,0.3-0.1,0.5-0.2c0.2-0.1,0.4-0.1,0.7-0.1c0.4,0,0.8,0.1,1,0.3c0.2,0.2,0.3,0.6,0.3,1c0,0.3-0.1,0.5-0.2,0.8
				c-0.1,0.2-0.3,0.5-0.5,0.8c-0.1,0.2-0.3,0.3-0.4,0.5c-0.1,0.1-0.2,0.2-0.3,0.3h1.6V88.4z"/>
			<polygon class="st34" points="125.3,84 124,88.4 123,88.4 121.7,84 122.7,84 123.5,87.1 124.4,84 			"/>
		</g>
		<path class="st34" d="M125.3,103.1h-1.2l-0.3-0.9h-1.6l-0.3,0.9h-1.1l1.6-4.4h1.3L125.3,103.1z M123.5,101.4l-0.5-1.6l-0.5,1.6
			H123.5z"/>
		<path class="st34" d="M125.1,116.4c0,0.2,0,0.4-0.1,0.6c-0.1,0.2-0.2,0.3-0.3,0.4c-0.2,0.1-0.4,0.2-0.6,0.3
			c-0.2,0.1-0.5,0.1-0.8,0.1h-1.9v-4.4h1.7c0.4,0,0.6,0,0.8,0c0.2,0,0.3,0.1,0.5,0.2c0.2,0.1,0.3,0.2,0.4,0.3
			c0.1,0.1,0.1,0.3,0.1,0.5c0,0.2-0.1,0.4-0.2,0.6c-0.1,0.2-0.3,0.3-0.5,0.4v0c0.3,0.1,0.5,0.2,0.7,0.4
			C125,115.9,125.1,116.1,125.1,116.4z M123.6,114.6c0-0.1,0-0.1-0.1-0.2c0-0.1-0.1-0.1-0.2-0.2c-0.1,0-0.2,0-0.3,0
			c-0.1,0-0.3,0-0.5,0h-0.1v0.9h0.2c0.2,0,0.3,0,0.5,0s0.2,0,0.3-0.1c0.1,0,0.2-0.1,0.2-0.2C123.6,114.8,123.6,114.7,123.6,114.6z
			 M123.9,116.4c0-0.1,0-0.2-0.1-0.3c-0.1-0.1-0.1-0.1-0.3-0.2c-0.1,0-0.2,0-0.4,0s-0.3,0-0.5,0h-0.2v1.1h0.1c0.3,0,0.5,0,0.7,0
			s0.3,0,0.4-0.1c0.1,0,0.2-0.1,0.2-0.2C123.9,116.6,123.9,116.5,123.9,116.4z"/>
		<g>
			<path class="st34" d="M115,129.4c0-0.1,0-0.2-0.1-0.3s-0.1-0.1-0.2-0.2c-0.1,0-0.2,0-0.3-0.1c-0.1,0-0.2,0-0.4,0h-0.4v1.2h0.3
				c0.2,0,0.3,0,0.5,0s0.2-0.1,0.3-0.1c0.1-0.1,0.1-0.1,0.2-0.2C115,129.6,115,129.5,115,129.4z M116.7,132.4h-1.4l-1.2-1.6h-0.5
				v1.6h-1.1v-4.4h1.9c0.3,0,0.5,0,0.7,0s0.4,0.1,0.5,0.2c0.2,0.1,0.3,0.2,0.4,0.4c0.1,0.2,0.1,0.3,0.1,0.6c0,0.3-0.1,0.6-0.2,0.8
				c-0.1,0.2-0.4,0.4-0.6,0.5L116.7,132.4z"/>
			<path class="st34" d="M120.4,131H118c0,0.3,0.1,0.5,0.3,0.6c0.2,0.1,0.4,0.2,0.8,0.2c0.2,0,0.4,0,0.6-0.1s0.4-0.2,0.5-0.3h0.1
				v0.8c-0.2,0.1-0.5,0.2-0.7,0.2s-0.4,0.1-0.7,0.1c-0.7,0-1.2-0.1-1.5-0.4s-0.5-0.7-0.5-1.3c0-0.5,0.2-1,0.5-1.3
				c0.3-0.3,0.8-0.5,1.4-0.5c0.5,0,0.9,0.1,1.2,0.4c0.3,0.3,0.4,0.7,0.4,1.2V131z M119.4,130.4c0-0.2-0.1-0.4-0.2-0.5
				s-0.3-0.2-0.5-0.2c-0.2,0-0.4,0.1-0.5,0.2s-0.2,0.3-0.2,0.5H119.4z"/>
			<path class="st34" d="M123.3,128.7L123.3,128.7c-0.1,0-0.2,0-0.3,0c-0.1,0-0.2,0-0.2,0c-0.2,0-0.3,0-0.4,0.1
				c-0.1,0.1-0.1,0.2-0.1,0.4v0h0.8v0.7h-0.8v2.6h-1.1v-2.6h-0.5v-0.7h0.5v-0.1c0-0.4,0.1-0.7,0.3-0.9c0.2-0.2,0.5-0.3,1-0.3
				c0.2,0,0.3,0,0.4,0c0.1,0,0.2,0,0.3,0V128.7z"/>
			<rect x="123.7" y="131.3" class="st34" width="1.1" height="1.2"/>
		</g>
		<g>
			<polygon class="st34" points="40.7,96 37.1,96 37.1,95.2 39.2,92.5 37.2,92.5 37.2,91.7 40.6,91.7 40.6,92.5 38.4,95.2 
				40.7,95.2 			"/>
			<path class="st34" d="M44.9,96h-3.4v-0.7c0.3-0.2,0.5-0.4,0.8-0.6c0.3-0.2,0.5-0.4,0.6-0.6c0.2-0.2,0.4-0.4,0.5-0.6
				s0.1-0.3,0.1-0.5c0-0.2-0.1-0.4-0.2-0.5c-0.1-0.1-0.3-0.2-0.6-0.2c-0.2,0-0.4,0-0.6,0.1c-0.2,0.1-0.4,0.2-0.6,0.3h-0.1v-1
				c0.1-0.1,0.3-0.1,0.6-0.2c0.3-0.1,0.5-0.1,0.8-0.1c0.5,0,1,0.1,1.3,0.3c0.3,0.2,0.4,0.6,0.4,1c0,0.3-0.1,0.5-0.2,0.8
				c-0.1,0.2-0.3,0.5-0.6,0.8c-0.2,0.2-0.4,0.3-0.5,0.5C43.2,95,43,95.1,43,95.2h2V96z"/>
		</g>
		<g>
			<polygon class="st34" points="40.7,124.1 37.1,124.1 37.1,123.3 39.2,120.6 37.2,120.6 37.2,119.8 40.6,119.8 40.6,120.6 
				38.4,123.3 40.7,123.3 			"/>
			<path class="st34" d="M44.6,124.1h-2.9v-0.8h0.9v-2.3h-0.9v-0.7c0.1,0,0.3,0,0.4,0c0.1,0,0.2,0,0.3-0.1c0.1,0,0.2-0.1,0.2-0.2
				s0.1-0.2,0.1-0.3h1v3.6h0.9V124.1z"/>
		</g>
		<g>
			<polygon class="st34" points="92.9,134.6 92.9,137.2 92.2,137.2 92.2,136.5 89.3,136.5 89.3,137.2 88.6,137.2 88.6,134.6 
				89.3,134.6 89.3,135.3 92.2,135.3 92.2,134.6 			"/>
			<polygon class="st34" points="92.9,129.7 92.9,130.8 89.9,132.7 92.9,132.7 92.9,133.7 88.6,133.7 88.6,132.4 91.1,130.8 
				88.6,130.8 88.6,129.7 			"/>
			<path class="st34" d="M92.9,125.2v3.4h-0.7c-0.2-0.3-0.4-0.5-0.6-0.8c-0.2-0.3-0.4-0.5-0.6-0.6c-0.2-0.2-0.4-0.4-0.6-0.5
				s-0.3-0.1-0.5-0.1c-0.2,0-0.4,0.1-0.5,0.2c-0.1,0.1-0.2,0.3-0.2,0.6c0,0.2,0,0.4,0.1,0.6c0.1,0.2,0.2,0.4,0.3,0.6v0.1h-1
				c-0.1-0.1-0.1-0.3-0.2-0.6c-0.1-0.3-0.1-0.5-0.1-0.8c0-0.5,0.1-1,0.3-1.3c0.2-0.3,0.6-0.4,1-0.4c0.3,0,0.5,0.1,0.8,0.2
				c0.2,0.1,0.5,0.3,0.8,0.6c0.2,0.2,0.3,0.4,0.5,0.5c0.1,0.2,0.2,0.3,0.3,0.4v-2H92.9z"/>
		</g>
		<g>
			<polygon class="st34" points="106.9,134.6 106.9,137.2 106.1,137.2 106.1,136.5 103.3,136.5 103.3,137.2 102.6,137.2 
				102.6,134.6 103.3,134.6 103.3,135.3 106.1,135.3 106.1,134.6 			"/>
			<polygon class="st34" points="106.9,129.7 106.9,130.8 103.9,132.7 106.9,132.7 106.9,133.7 102.6,133.7 102.6,132.4 
				105.1,130.8 102.6,130.8 102.6,129.7 			"/>
			<path class="st34" d="M106.9,125.5v2.9h-0.8v-0.9h-2.3v0.9h-0.7c0-0.1,0-0.3,0-0.4c0-0.1,0-0.2-0.1-0.3c0-0.1-0.1-0.2-0.2-0.2
				s-0.2-0.1-0.3-0.1v-1h3.6v-0.9H106.9z"/>
		</g>
		<g>
			<polyline class="st36" points="24.9,87.5 30.5,87.5 30.5,91.8 			"/>
			<polyline class="st36" points="24.9,101.7 30.5,101.7 30.5,97.2 34.1,93.7 			"/>
		</g>
		<g>
			<polyline class="st36" points="24.9,115.8 30.5,115.8 30.5,120 			"/>
			<polyline class="st36" points="24.9,129.9 30.5,129.9 30.5,125.5 34.1,121.9 			"/>
		</g>
		<g>
			<rect x="24.7" y="140.9" class="st37" width="13.5" height="13.5"/>
			<rect x="27.5" y="143.6" class="st37" width="8" height="8"/>
		</g>
		<g>
			<polygon class="st34" points="20.1,72.3 17.2,75.2 17.2,74.1 11,74.1 11,70.6 17.2,70.6 17.2,69.5 			"/>
			<path class="st34" d="M25.1,71.1c0-0.4,0.2-1.6,1.3-1.6c0.9,0,1.1,0.7,1.1,1.3c0,0.6-0.3,1.2-0.6,1.5c-0.8,1.1-2.4,2.4-3.1,3v1.2
				h5l0.1-1.2h-3.6c3-2.2,3.6-3.5,3.6-4.6c0-1.2-0.7-2.4-2.4-2.4c-2.1,0-2.5,1.9-2.6,2.5L25.1,71.1z"/>
			<polygon class="st34" points="30.4,68.5 30.4,76.5 35.1,76.5 35.1,75.4 31.8,75.4 31.8,72.9 34.3,72.9 34.3,71.9 31.8,71.9 
				31.8,69.6 35,69.6 35,68.5 			"/>
			<path class="st34" d="M36.8,71.1c0-0.4,0.2-1.6,1.3-1.6c0.9,0,1.1,0.7,1.1,1.3c0,0.6-0.3,1.2-0.6,1.5c-0.8,1.1-2.4,2.4-3.1,3v1.2
				h5l0.1-1.2H37c3-2.2,3.6-3.5,3.6-4.6c0-1.2-0.7-2.4-2.4-2.4c-2.1,0-2.5,1.9-2.6,2.5L36.8,71.1z"/>
			<path class="st34" d="M46.8,70.3c-0.2-0.6-0.6-1.9-2.5-1.9c-1.7,0-2.5,1.2-2.5,2.3c0,0.7,0.3,1.3,0.7,1.6
				c0.4,0.4,0.8,0.5,1.7,0.9c0.7,0.3,1.4,0.6,1.4,1.3c0,0.4-0.2,1.2-1.3,1.2c-1.3,0-1.5-1.1-1.6-1.5l-1.2,0.3
				c0.1,0.5,0.5,2.2,2.8,2.2c1.9,0,2.7-1.3,2.7-2.4c0-1.6-1.3-2.1-2.2-2.4c-0.9-0.4-1.6-0.6-1.6-1.3c0-0.4,0.2-1,1.1-1
				c0.8,0,1.2,0.5,1.4,1.2L46.8,70.3z"/>
		</g>
		<g>
			<rect x="49.1" y="127.2" class="st38" width="28.3" height="28.3"/>
			<path class="st34" d="M59.1,128.1H60v1.8h-0.9V128.1z M61,128.1h0.9v0.9H61V128.1z M64.6,128.1h3.7v0.9h-1.8v0.9h-0.9v0.9h0.9
				v0.9h-0.9v0.9h-0.9v-0.9h-0.9v0.9h0.9v0.9h-0.9v0.9h-0.9v-2.7H61v-1.8h0.9v0.9h0.9v-0.9h0.9V129h0.9V128.1z M57.3,129h0.9v0.9
				h-0.9V129z M61.9,129h0.9v0.9h-0.9V129z M68.3,129h0.9v1.8h-0.9V129z M57.3,130.8H60v0.9h-0.9v1.8h-0.9v0.9h-0.9v-1.8h0.9v-0.9
				h-0.9V130.8z M67.4,130.8h0.9v0.9h0.9v3.7h-0.9v0.9h0.9v-0.9h0.9v0.9H71v-0.9h0.9v0.9h0.9v1.8h0.9v0.9h0.9v0.9h-1.8v-0.9h-3.7
				v-0.9h0.9v-0.9h-0.9v0.9h-0.9v-0.9h-1.8v-0.9h0.9v-1.8h0.9v-1.8h-0.9V130.8z M60,132.7h1.8v1.8H61v-0.9H60V132.7z M65.5,132.7
				h0.9v0.9h-0.9V132.7z M59.1,133.6H60v0.9H61v1.8H60v-0.9h-0.9v0.9h-0.9v1.8h-0.9v-1.8h-1.8v-0.9h2.7v-0.9h0.9V133.6z M64.6,133.6
				h0.9v1.8h-0.9v0.9h-1.8v0.9h1.8v-0.9h0.9v2.7h-0.9v-0.9h-0.9v2.7h-0.9V140H61v-1.8h0.9v0.9h0.9v-0.9h-0.9v-0.9H61v-0.9h0.9v-0.9
				h1.8v-0.9h0.9V133.6z M66.4,133.6h0.9v0.9h-0.9V133.6z M50,135.4h4.6v0.9h0.9v0.9h-1.8v-0.9H50V135.4z M65.5,135.4h0.9v0.9h-0.9
				V135.4z M72.8,135.4h0.9v0.9h-0.9V135.4z M74.7,135.4h0.9v0.9h-0.9V135.4z M59.1,136.3H60v1.8h-0.9V136.3z M75.6,136.3h0.9v0.9
				h-0.9V136.3z M50,137.2h0.9v0.9H50V137.2z M51.8,137.2h1.8v0.9h0.9v0.9h-2.7v0.9h0.9v0.9h-1.8v0.9H50V140h0.9v-1.8h0.9V137.2z
				 M55.5,137.2h0.9v0.9h-0.9V137.2z M56.4,138.2h0.9v0.9h-0.9V138.2z M67.4,138.2h0.9v0.9h-0.9V138.2z M74.7,138.2h0.9v0.9h-0.9
				V138.2z M55.5,139.1h0.9v0.9h-0.9V139.1z M57.3,139.1H60v0.9h-1.8v0.9h-0.9v1.8h-0.9v-0.9h-1.8v0.9h-0.9v0.9h-1.8v-0.9h0.9v-1.8
				h3.7V140h0.9V139.1z M65.5,139.1h0.9v0.9h-0.9V139.1z M64.6,140h0.9v0.9h-0.9V140z M66.4,140h6.4v0.9h-0.9v0.9h0.9v0.9H71v-0.9
				h-1.8v-0.9h-1.8v0.9h1.8v0.9h-0.9v1.8h-0.9v-1.8h-0.9v-0.9h-0.9v-0.9h0.9V140z M75.6,140h0.9v0.9h-0.9V140z M60,140.9h2.7v0.9H61
				v0.9h1.8v1.8h1.8v1.8h1.8v0.9h0.9v0.9h0.9v1.8h-0.9v-0.9h-0.9v-0.9h-0.9v1.8h-0.9v-0.9h-0.9v-0.9h0.9v-0.9h-0.9v-0.9h-0.9v-0.9
				h-0.9v-0.9H61v-0.9H60v0.9h-1.8v-0.9h0.9v-0.9h-0.9v-0.9H60V140.9z M63.7,140.9h0.9v0.9h-0.9V140.9z M72.8,140.9h1.8v0.9h-1.8
				V140.9z M62.8,141.8h0.9v0.9h-0.9V141.8z M74.7,141.8h0.9v0.9h-0.9V141.8z M54.6,142.7h1.8v0.9h-0.9v0.9h2.7v0.9H61v0.9h1.8v0.9
				h-0.9v0.9H60v0.9h-0.9v-0.9h-0.9v0.9h-0.9v-1.8h-2.7v-1.8h-1.8v0.9h-0.9v-1.8h1.8v-0.9h0.9V142.7z M55.5,145.5h1.8v0.9h-1.8
				V145.5z M58.2,146.4H60v0.9h-1.8V146.4z M63.7,142.7h2.7v0.9h-0.9v0.9h-0.9v-0.9h-0.9V142.7z M72.8,142.7h1.8v2.7h-0.9v-1.8h-0.9
				V142.7z M50,143.6h0.9v3.7H50V143.6z M70.1,143.6h2.7v0.9h-2.7V143.6z M75.6,143.6h0.9v0.9h-0.9V143.6z M65.5,144.6h1.8v0.9h-1.8
				V144.6z M68.3,145.5h0.9v0.9h-0.9V145.5z M71,145.5h0.9v0.9H71V145.5z M74.7,145.5h0.9v0.9h0.9v1.8h-1.8v0.9h-1.8v-1.8h0.9v-0.9
				h0.9V145.5z M52.7,146.4h0.9v0.9h-0.9V146.4z M67.4,146.4h0.9v0.9h-0.9V146.4z M62.8,147.3h0.9v0.9h-0.9V147.3z M61.9,148.2h0.9
				v0.9h-0.9V148.2z M60,149.1h1.8v0.9H60V149.1z M74.7,149.1h1.8v2.7h-0.9v1.8h-0.9v-0.9h-0.9v0.9h-3.7v-0.9h-0.9v-0.9h3.7V151h0.9
				V150h0.9v0.9h0.9V150h-0.9V149.1z M57.3,150h0.9v1.8h0.9V150H60v0.9H61v0.9H60v0.9h-1.8v0.9h0.9v0.9h-1.8V150z M61.9,150h1.8v0.9
				h-1.8V150z M65.5,150h0.9v0.9h-0.9V150z M67.4,151h1.8v0.9h-1.8V151z M61,151.9h0.9v1.8H60v-0.9H61V151.9z M62.8,151.9h2.7v1.8
				h-0.9v0.9h-0.9v-0.9h-0.9V151.9z M66.4,152.8h2.7v0.9h-0.9v0.9h-0.9v-0.9h-0.9V152.8z M61.9,153.7h0.9v0.9h-0.9V153.7z
				 M65.5,153.7h0.9v0.9h-0.9V153.7z M73.8,153.7h0.9v0.9h-0.9V153.7z"/>
			<path class="st34" d="M50,128.1h6.4l0,0l0,0v6.4l0,0l0,0H50l0,0l0,0V128.1L50,128.1L50,128.1z M50.9,129h4.6l0,0l0,0v4.6l0,0l0,0
				h-4.6l0,0l0,0V129L50.9,129L50.9,129z M51.8,129.9h2.7l0,0l0,0v2.7l0,0l0,0h-2.7l0,0l0,0V129.9L51.8,129.9L51.8,129.9z
				 M70.1,128.1h6.4l0,0l0,0v6.4l0,0l0,0h-6.4l0,0l0,0V128.1L70.1,128.1L70.1,128.1z M71,129h4.6l0,0l0,0v4.6l0,0l0,0H71l0,0l0,0
				V129L71,129L71,129z M71.9,129.9h2.7l0,0l0,0v2.7l0,0l0,0h-2.7l0,0l0,0V129.9L71.9,129.9L71.9,129.9z M50,148.2h6.4l0,0l0,0v6.4
				l0,0l0,0H50l0,0l0,0V148.2L50,148.2L50,148.2z M50.9,149.1h4.6l0,0l0,0v4.6l0,0l0,0h-4.6l0,0l0,0V149.1L50.9,149.1L50.9,149.1z
				 M51.8,150h2.7l0,0l0,0v2.7l0,0l0,0h-2.7l0,0l0,0V150L51.8,150L51.8,150z M68.3,146.4h4.6l0,0l0,0v4.6l0,0l0,0h-4.6l0,0l0,0
				V146.4L68.3,146.4L68.3,146.4z M69.2,147.3h2.7l0,0l0,0v2.7l0,0l0,0h-2.7l0,0l0,0V147.3L69.2,147.3L69.2,147.3z M70.1,148.2H71
				l0,0l0,0v0.9l0,0l0,0h-0.9l0,0l0,0V148.2L70.1,148.2L70.1,148.2z"/>
			<g>
				<path class="st34" d="M48,154.1h-2.5v0.6H48V154.1z M45.2,154.1h-0.6v0.6h0.6V154.1z"/>
				<path class="st34" d="M48,153.4v-0.6h-1.2c-0.8,0-0.9-0.4-0.9-0.5c0-0.1,0-0.4,0.6-0.4H48v-0.6h-1.5c-0.3,0-1.1,0-1.1,0.8
					c0,0.5,0.4,0.7,0.6,0.7h-0.6v0.5H48z"/>
				<path class="st34" d="M48,150.1h-2v-0.5h-0.4v0.5c-0.4,0-0.5,0-0.5-0.4c0,0,0-0.1,0-0.1h-0.4c0,0.4,0,0.7,0.1,0.8
					c0.2,0.3,0.5,0.3,0.8,0.3v0.4H46v-0.4h2V150.1z"/>
				<path class="st34" d="M46.7,147c-0.7,0-1.3,0.4-1.3,1.1c0,0.8,0.6,1.2,1.3,1.2c0.6,0,1.3-0.3,1.3-1.1
					C48,147.5,47.6,147,46.7,147z M46.7,147.6c0.3,0,0.8,0,0.8,0.6c0,0.6-0.7,0.6-0.8,0.6c-0.4,0-0.8-0.1-0.8-0.6
					C45.9,147.7,46.3,147.6,46.7,147.6z"/>
			</g>
		</g>
	</g>
</g>
</svg>
