<?xml version="1.0" encoding="utf-8"?>
<!-- Generator: Adobe Illustrator 24.3.0, SVG Export Plug-In . SVG Version: 6.00 Build 0)  -->
<svg version="1.1" id="Foreground" xmlns="http://www.w3.org/2000/svg" xmlns:xlink="http://www.w3.org/1999/xlink" x="0px" y="0px"
	 viewBox="0 0 462 261.4" style="enable-background:new 0 0 462 261.4;" xml:space="preserve">
<style type="text/css">
	.st0{fill-rule:evenodd;clip-rule:evenodd;fill:#314A7D;stroke:#1A171B;stroke-width:0.5;stroke-miterlimit:3.8637;}
	.st1{fill-rule:evenodd;clip-rule:evenodd;fill:#312F32;stroke:#1A171B;stroke-width:0.5;stroke-miterlimit:3.8637;}
	.st2{fill-rule:evenodd;clip-rule:evenodd;fill:#484649;stroke:#1A171B;stroke-width:0.5;stroke-miterlimit:3.8637;}
	.st3{fill-rule:evenodd;clip-rule:evenodd;fill:#1A171B;stroke:#1A171B;stroke-width:0.5;stroke-miterlimit:3.8637;}
	.st4{fill-rule:evenodd;clip-rule:evenodd;fill:#3C3A3E;stroke:#1A171B;stroke-width:0.5;stroke-miterlimit:3.8637;}
	.st5{clip-path:url(#SVGID_4_);}
	.st6{clip-path:url(#SVGID_5_);}
	
		.st7{clip-path:url(#SVGID_6_);fill-rule:evenodd;clip-rule:evenodd;fill:#D1D1D1;stroke:#1A171B;stroke-width:0.5;stroke-miterlimit:3.8637;}
	.st8{clip-path:url(#SVGID_10_);}
	.st9{clip-path:url(#SVGID_11_);}
	
		.st10{clip-path:url(#SVGID_12_);fill-rule:evenodd;clip-rule:evenodd;fill:#D1D1D1;stroke:#1A171B;stroke-width:0.5;stroke-miterlimit:3.8637;}
	.st11{clip-path:url(#SVGID_16_);}
	.st12{clip-path:url(#SVGID_17_);}
	
		.st13{clip-path:url(#SVGID_18_);fill-rule:evenodd;clip-rule:evenodd;fill:#D1D1D1;stroke:#1A171B;stroke-width:0.5;stroke-miterlimit:3.8637;}
	.st14{clip-path:url(#SVGID_22_);}
	.st15{clip-path:url(#SVGID_23_);}
	
		.st16{clip-path:url(#SVGID_24_);fill-rule:evenodd;clip-rule:evenodd;fill:#D1D1D1;stroke:#1A171B;stroke-width:0.5;stroke-miterlimit:3.8637;}
	.st17{fill-rule:evenodd;clip-rule:evenodd;fill:#00A768;stroke:#1A171B;stroke-width:0.5;stroke-miterlimit:3.8637;}
	.st18{fill-rule:evenodd;clip-rule:evenodd;fill:#195A39;stroke:#1A171B;stroke-width:0.5;stroke-miterlimit:3.8637;}
	.st19{fill-rule:evenodd;clip-rule:evenodd;fill:#007F50;stroke:#1A171B;stroke-width:0.5;stroke-miterlimit:3.8637;}
	.st20{clip-path:url(#SVGID_28_);}
	.st21{clip-path:url(#SVGID_29_);}
	
		.st22{clip-path:url(#SVGID_30_);fill-rule:evenodd;clip-rule:evenodd;fill:#D1D1D1;stroke:#1A171B;stroke-width:0.5;stroke-miterlimit:3.8637;}
	.st23{clip-path:url(#SVGID_34_);}
	.st24{clip-path:url(#SVGID_35_);}
	
		.st25{clip-path:url(#SVGID_36_);fill-rule:evenodd;clip-rule:evenodd;fill:#D1D1D1;stroke:#1A171B;stroke-width:0.5;stroke-miterlimit:3.8637;}
	.st26{clip-path:url(#SVGID_40_);}
	.st27{clip-path:url(#SVGID_41_);}
	
		.st28{clip-path:url(#SVGID_42_);fill-rule:evenodd;clip-rule:evenodd;fill:#D1D1D1;stroke:#1A171B;stroke-width:0.5;stroke-miterlimit:3.8637;}
	.st29{clip-path:url(#SVGID_46_);}
	.st30{clip-path:url(#SVGID_47_);}
	
		.st31{clip-path:url(#SVGID_48_);fill-rule:evenodd;clip-rule:evenodd;fill:#D1D1D1;stroke:#1A171B;stroke-width:0.5;stroke-miterlimit:3.8637;}
	.st32{clip-path:url(#SVGID_52_);}
	.st33{clip-path:url(#SVGID_53_);}
	
		.st34{clip-path:url(#SVGID_54_);fill-rule:evenodd;clip-rule:evenodd;fill:#D1D1D1;stroke:#1A171B;stroke-width:0.5;stroke-miterlimit:3.8637;}
	.st35{clip-path:url(#SVGID_58_);}
	.st36{clip-path:url(#SVGID_59_);}
	
		.st37{clip-path:url(#SVGID_60_);fill-rule:evenodd;clip-rule:evenodd;fill:#D1D1D1;stroke:#1A171B;stroke-width:0.5;stroke-miterlimit:3.8637;}
	.st38{clip-path:url(#SVGID_64_);}
	.st39{clip-path:url(#SVGID_65_);}
	
		.st40{clip-path:url(#SVGID_66_);fill-rule:evenodd;clip-rule:evenodd;fill:#D1D1D1;stroke:#1A171B;stroke-width:0.5;stroke-miterlimit:3.8637;}
	.st41{clip-path:url(#SVGID_70_);}
	.st42{clip-path:url(#SVGID_71_);}
	
		.st43{clip-path:url(#SVGID_72_);fill-rule:evenodd;clip-rule:evenodd;fill:#D1D1D1;stroke:#1A171B;stroke-width:0.5;stroke-miterlimit:3.8637;}
	.st44{clip-path:url(#SVGID_76_);}
	.st45{clip-path:url(#SVGID_77_);}
	
		.st46{clip-path:url(#SVGID_78_);fill-rule:evenodd;clip-rule:evenodd;fill:#D1D1D1;stroke:#1A171B;stroke-width:0.5;stroke-miterlimit:3.8637;}
	.st47{clip-path:url(#SVGID_82_);}
	.st48{clip-path:url(#SVGID_83_);}
	
		.st49{clip-path:url(#SVGID_84_);fill-rule:evenodd;clip-rule:evenodd;fill:#D1D1D1;stroke:#1A171B;stroke-width:0.5;stroke-miterlimit:3.8637;}
	.st50{clip-path:url(#SVGID_88_);}
	.st51{clip-path:url(#SVGID_89_);}
	
		.st52{clip-path:url(#SVGID_90_);fill-rule:evenodd;clip-rule:evenodd;fill:#D1D1D1;stroke:#1A171B;stroke-width:0.5;stroke-miterlimit:3.8637;}
	.st53{clip-path:url(#SVGID_94_);}
	.st54{clip-path:url(#SVGID_95_);}
	
		.st55{clip-path:url(#SVGID_96_);fill-rule:evenodd;clip-rule:evenodd;fill:#D1D1D1;stroke:#1A171B;stroke-width:0.5;stroke-miterlimit:3.8637;}
	.st56{clip-path:url(#SVGID_100_);}
	.st57{clip-path:url(#SVGID_101_);}
	
		.st58{clip-path:url(#SVGID_102_);fill-rule:evenodd;clip-rule:evenodd;fill:#D1D1D1;stroke:#1A171B;stroke-width:0.5;stroke-miterlimit:3.8637;}
	.st59{clip-path:url(#SVGID_106_);}
	.st60{clip-path:url(#SVGID_107_);}
	
		.st61{clip-path:url(#SVGID_108_);fill-rule:evenodd;clip-rule:evenodd;fill:#D1D1D1;stroke:#1A171B;stroke-width:0.5;stroke-miterlimit:3.8637;}
	.st62{clip-path:url(#SVGID_112_);}
	.st63{clip-path:url(#SVGID_113_);}
	
		.st64{clip-path:url(#SVGID_114_);fill-rule:evenodd;clip-rule:evenodd;fill:#D1D1D1;stroke:#1A171B;stroke-width:0.5;stroke-miterlimit:3.8637;}
	.st65{clip-path:url(#SVGID_118_);}
	.st66{clip-path:url(#SVGID_119_);}
	
		.st67{clip-path:url(#SVGID_120_);fill-rule:evenodd;clip-rule:evenodd;fill:#D1D1D1;stroke:#1A171B;stroke-width:0.5;stroke-miterlimit:3.8637;}
	.st68{fill-rule:evenodd;clip-rule:evenodd;fill:#E4E3E4;stroke:#1A171B;stroke-width:0.5;stroke-miterlimit:3.8637;}
	.st69{fill:#312F32;stroke:#1A171B;stroke-width:0.5;stroke-miterlimit:3.8637;}
	.st70{fill-rule:evenodd;clip-rule:evenodd;fill:#E8E8E8;stroke:#1A171B;stroke-width:0.5;stroke-miterlimit:3.8637;}
	.st71{fill-rule:evenodd;clip-rule:evenodd;fill:none;stroke:#1A171B;stroke-width:0.5;stroke-miterlimit:3.8637;}
	.st72{fill-rule:evenodd;clip-rule:evenodd;fill:#D6D5D6;stroke:#1A171B;stroke-width:0.5;stroke-miterlimit:3.8637;}
	.st73{fill:#D6D5D6;stroke:#1A171B;stroke-width:0.5;stroke-miterlimit:3.8637;}
	.st74{fill-rule:evenodd;clip-rule:evenodd;fill:#9C2828;stroke:#1A171B;stroke-width:0.5;stroke-miterlimit:3.8637;}
	.st75{fill-rule:evenodd;clip-rule:evenodd;fill:#BE091E;stroke:#1A171B;stroke-width:0.5;stroke-miterlimit:3.8637;}
	.st76{clip-path:url(#SVGID_124_);}
	.st77{clip-path:url(#SVGID_125_);}
	
		.st78{clip-path:url(#SVGID_126_);fill-rule:evenodd;clip-rule:evenodd;fill:#D1D1D1;stroke:#1A171B;stroke-width:0.5;stroke-miterlimit:3.8637;}
	.st79{clip-path:url(#SVGID_130_);}
	.st80{clip-path:url(#SVGID_131_);}
	
		.st81{clip-path:url(#SVGID_132_);fill-rule:evenodd;clip-rule:evenodd;fill:#D1D1D1;stroke:#1A171B;stroke-width:0.5;stroke-miterlimit:3.8637;}
	.st82{clip-path:url(#SVGID_136_);}
	.st83{clip-path:url(#SVGID_137_);}
	
		.st84{clip-path:url(#SVGID_138_);fill-rule:evenodd;clip-rule:evenodd;fill:#D1D1D1;stroke:#1A171B;stroke-width:0.5;stroke-miterlimit:3.8637;}
	.st85{clip-path:url(#SVGID_142_);}
	.st86{clip-path:url(#SVGID_143_);}
	
		.st87{clip-path:url(#SVGID_144_);fill-rule:evenodd;clip-rule:evenodd;fill:#D1D1D1;stroke:#1A171B;stroke-width:0.5;stroke-miterlimit:3.8637;}
	.st88{fill-rule:evenodd;clip-rule:evenodd;fill:#FFFFFF;}
	.st89{fill-rule:evenodd;clip-rule:evenodd;fill:#003E77;}
	.st90{fill-rule:evenodd;clip-rule:evenodd;fill:none;stroke:#003E77;stroke-width:1.0001;stroke-miterlimit:3.8637;}
	.st91{fill:none;stroke:#003E77;stroke-width:0.25;stroke-miterlimit:3.8637;}
	.st92{fill:#FFD616;}
	.st93{fill-rule:evenodd;clip-rule:evenodd;fill:none;stroke:#FFFFFF;stroke-width:0.7553;stroke-miterlimit:3.8637;}
</style>
<g>
	<rect x="0.3" y="0.3" class="st0" width="298.3" height="252.3"/>
	<g>
		<rect x="85.4" y="212.9" class="st1" width="57.8" height="35.4"/>
		<rect x="89.6" y="215.7" class="st2" width="5.7" height="5.7"/>
		<rect x="104.2" y="215.7" class="st2" width="5.7" height="5.7"/>
		<rect x="118.8" y="215.7" class="st2" width="5.7" height="5.7"/>
		<rect x="133.5" y="215.7" class="st2" width="5.7" height="5.7"/>
		<rect x="89.6" y="212.9" class="st3" width="5.7" height="2.8"/>
		<rect x="104.2" y="212.9" class="st3" width="5.7" height="2.8"/>
		<rect x="118.8" y="212.9" class="st3" width="5.7" height="2.8"/>
		<rect x="133.5" y="212.9" class="st3" width="5.7" height="2.8"/>
		<rect x="85.4" y="225.6" class="st4" width="57.8" height="17"/>
		<g>
			<defs>
				<path id="SVGID_1_" d="M130.6,233c0-3.1,2.5-5.7,5.7-5.7s5.7,2.5,5.7,5.7s-2.5,5.7-5.7,5.7S130.6,236.2,130.6,233z"/>
			</defs>
			<defs>
				<path id="SVGID_2_" d="M130.6,233c0-3.1,2.5-5.7,5.7-5.7s5.7,2.5,5.7,5.7s-2.5,5.7-5.7,5.7S130.6,236.2,130.6,233z"/>
			</defs>
			<defs>
				<path id="SVGID_3_" d="M130.6,233c0-3.1,2.5-5.7,5.7-5.7s5.7,2.5,5.7,5.7s-2.5,5.7-5.7,5.7S130.6,236.2,130.6,233z"/>
			</defs>
			<use xlink:href="#SVGID_1_"  style="overflow:visible;fill-rule:evenodd;clip-rule:evenodd;fill:#FFFFFF;"/>
			<clipPath id="SVGID_4_">
				<use xlink:href="#SVGID_1_"  style="overflow:visible;"/>
			</clipPath>
			<clipPath id="SVGID_5_" class="st5">
				<use xlink:href="#SVGID_2_"  style="overflow:visible;"/>
			</clipPath>
			<clipPath id="SVGID_6_" class="st6">
				<use xlink:href="#SVGID_3_"  style="overflow:visible;"/>
			</clipPath>
			
				<rect x="135.1" y="226.8" transform="matrix(0.7071 -0.7071 0.7071 0.7071 -124.8686 164.601)" class="st7" width="2.3" height="12.4"/>
			
				<use xlink:href="#SVGID_3_"  style="overflow:visible;fill-rule:evenodd;clip-rule:evenodd;fill:none;stroke:#1A171B;stroke-width:0.5;stroke-miterlimit:3.8637;"/>
		</g>
		<g>
			<defs>
				<path id="SVGID_7_" d="M116,233c0-3.1,2.5-5.7,5.7-5.7s5.7,2.5,5.7,5.7s-2.5,5.7-5.7,5.7S116,236.2,116,233z"/>
			</defs>
			<defs>
				<path id="SVGID_8_" d="M116,233c0-3.1,2.5-5.7,5.7-5.7s5.7,2.5,5.7,5.7s-2.5,5.7-5.7,5.7S116,236.2,116,233z"/>
			</defs>
			<defs>
				<path id="SVGID_9_" d="M116,233c0-3.1,2.5-5.7,5.7-5.7s5.7,2.5,5.7,5.7s-2.5,5.7-5.7,5.7S116,236.2,116,233z"/>
			</defs>
			<use xlink:href="#SVGID_7_"  style="overflow:visible;fill-rule:evenodd;clip-rule:evenodd;fill:#FFFFFF;"/>
			<clipPath id="SVGID_10_">
				<use xlink:href="#SVGID_7_"  style="overflow:visible;"/>
			</clipPath>
			<clipPath id="SVGID_11_" class="st8">
				<use xlink:href="#SVGID_8_"  style="overflow:visible;"/>
			</clipPath>
			<clipPath id="SVGID_12_" class="st9">
				<use xlink:href="#SVGID_9_"  style="overflow:visible;"/>
			</clipPath>
			
				<rect x="120.5" y="226.8" transform="matrix(0.7071 -0.7071 0.7071 0.7071 -129.1419 154.2962)" class="st10" width="2.3" height="12.4"/>
			
				<use xlink:href="#SVGID_9_"  style="overflow:visible;fill-rule:evenodd;clip-rule:evenodd;fill:none;stroke:#1A171B;stroke-width:0.5;stroke-miterlimit:3.8637;"/>
		</g>
		<g>
			<defs>
				<path id="SVGID_13_" d="M101.4,233c0-3.1,2.5-5.7,5.7-5.7s5.7,2.5,5.7,5.7s-2.5,5.7-5.7,5.7S101.4,236.2,101.4,233z"/>
			</defs>
			<defs>
				<path id="SVGID_14_" d="M101.4,233c0-3.1,2.5-5.7,5.7-5.7s5.7,2.5,5.7,5.7s-2.5,5.7-5.7,5.7S101.4,236.2,101.4,233z"/>
			</defs>
			<defs>
				<path id="SVGID_15_" d="M101.4,233c0-3.1,2.5-5.7,5.7-5.7s5.7,2.5,5.7,5.7s-2.5,5.7-5.7,5.7S101.4,236.2,101.4,233z"/>
			</defs>
			<use xlink:href="#SVGID_13_"  style="overflow:visible;fill-rule:evenodd;clip-rule:evenodd;fill:#FFFFFF;"/>
			<clipPath id="SVGID_16_">
				<use xlink:href="#SVGID_13_"  style="overflow:visible;"/>
			</clipPath>
			<clipPath id="SVGID_17_" class="st11">
				<use xlink:href="#SVGID_14_"  style="overflow:visible;"/>
			</clipPath>
			<clipPath id="SVGID_18_" class="st12">
				<use xlink:href="#SVGID_15_"  style="overflow:visible;"/>
			</clipPath>
			
				<rect x="106" y="226.8" transform="matrix(0.7071 -0.7071 0.7071 0.7071 -133.4091 143.9853)" class="st13" width="2.3" height="12.4"/>
			
				<use xlink:href="#SVGID_15_"  style="overflow:visible;fill-rule:evenodd;clip-rule:evenodd;fill:none;stroke:#1A171B;stroke-width:0.5;stroke-miterlimit:3.8637;"/>
		</g>
		<g>
			<defs>
				<path id="SVGID_19_" d="M86.9,233c0-3.1,2.5-5.7,5.7-5.7s5.7,2.5,5.7,5.7s-2.5,5.7-5.7,5.7S86.9,236.2,86.9,233z"/>
			</defs>
			<defs>
				<path id="SVGID_20_" d="M86.9,233c0-3.1,2.5-5.7,5.7-5.7s5.7,2.5,5.7,5.7s-2.5,5.7-5.7,5.7S86.9,236.2,86.9,233z"/>
			</defs>
			<defs>
				<path id="SVGID_21_" d="M86.9,233c0-3.1,2.5-5.7,5.7-5.7s5.7,2.5,5.7,5.7s-2.5,5.7-5.7,5.7S86.9,236.2,86.9,233z"/>
			</defs>
			<use xlink:href="#SVGID_19_"  style="overflow:visible;fill-rule:evenodd;clip-rule:evenodd;fill:#FFFFFF;"/>
			<clipPath id="SVGID_22_">
				<use xlink:href="#SVGID_19_"  style="overflow:visible;"/>
			</clipPath>
			<clipPath id="SVGID_23_" class="st14">
				<use xlink:href="#SVGID_20_"  style="overflow:visible;"/>
			</clipPath>
			<clipPath id="SVGID_24_" class="st15">
				<use xlink:href="#SVGID_21_"  style="overflow:visible;"/>
			</clipPath>
			
				<rect x="91.4" y="226.8" transform="matrix(0.7071 -0.7071 0.7071 0.7071 -137.6764 133.6744)" class="st16" width="2.3" height="12.4"/>
			
				<use xlink:href="#SVGID_21_"  style="overflow:visible;fill-rule:evenodd;clip-rule:evenodd;fill:none;stroke:#1A171B;stroke-width:0.5;stroke-miterlimit:3.8637;"/>
		</g>
		<rect x="85.4" y="245.5" class="st3" width="57.8" height="2.8"/>
	</g>
	<g>
		<rect x="208.7" y="212.9" class="st17" width="57.8" height="35.4"/>
		<rect x="212.9" y="212.9" class="st18" width="5.7" height="2.8"/>
		<rect x="227.6" y="212.9" class="st18" width="5.7" height="2.8"/>
		<rect x="242.2" y="212.9" class="st18" width="5.7" height="2.8"/>
		<rect x="256.8" y="212.9" class="st18" width="5.7" height="2.8"/>
		<rect x="208.7" y="245.5" class="st19" width="57.8" height="2.8"/>
		<rect x="208.7" y="225.6" class="st17" width="57.8" height="17"/>
		<g>
			<defs>
				<path id="SVGID_25_" d="M253.7,233c0-3.1,2.5-5.7,5.7-5.7s5.7,2.5,5.7,5.7c0,3.1-2.5,5.7-5.7,5.7S253.7,236.2,253.7,233z"/>
			</defs>
			<defs>
				<path id="SVGID_26_" d="M253.7,233c0-3.1,2.5-5.7,5.7-5.7s5.7,2.5,5.7,5.7c0,3.1-2.5,5.7-5.7,5.7S253.7,236.2,253.7,233z"/>
			</defs>
			<defs>
				<path id="SVGID_27_" d="M253.7,233c0-3.1,2.5-5.7,5.7-5.7s5.7,2.5,5.7,5.7c0,3.1-2.5,5.7-5.7,5.7S253.7,236.2,253.7,233z"/>
			</defs>
			<use xlink:href="#SVGID_25_"  style="overflow:visible;fill-rule:evenodd;clip-rule:evenodd;fill:#FFFFFF;"/>
			<clipPath id="SVGID_28_">
				<use xlink:href="#SVGID_25_"  style="overflow:visible;"/>
			</clipPath>
			<clipPath id="SVGID_29_" class="st20">
				<use xlink:href="#SVGID_26_"  style="overflow:visible;"/>
			</clipPath>
			<clipPath id="SVGID_30_" class="st21">
				<use xlink:href="#SVGID_27_"  style="overflow:visible;"/>
			</clipPath>
			
				<rect x="258.3" y="226.8" transform="matrix(0.7071 -0.7071 0.7071 0.7071 -88.7971 251.6835)" class="st22" width="2.3" height="12.4"/>
			
				<use xlink:href="#SVGID_27_"  style="overflow:visible;fill-rule:evenodd;clip-rule:evenodd;fill:none;stroke:#1A171B;stroke-width:0.5;stroke-miterlimit:3.8637;"/>
		</g>
		<g>
			<defs>
				<path id="SVGID_31_" d="M239.2,233c0-3.1,2.5-5.7,5.7-5.7s5.7,2.5,5.7,5.7c0,3.1-2.5,5.7-5.7,5.7S239.2,236.2,239.2,233z"/>
			</defs>
			<defs>
				<path id="SVGID_32_" d="M239.2,233c0-3.1,2.5-5.7,5.7-5.7s5.7,2.5,5.7,5.7c0,3.1-2.5,5.7-5.7,5.7S239.2,236.2,239.2,233z"/>
			</defs>
			<defs>
				<path id="SVGID_33_" d="M239.2,233c0-3.1,2.5-5.7,5.7-5.7s5.7,2.5,5.7,5.7c0,3.1-2.5,5.7-5.7,5.7S239.2,236.2,239.2,233z"/>
			</defs>
			<use xlink:href="#SVGID_31_"  style="overflow:visible;fill-rule:evenodd;clip-rule:evenodd;fill:#FFFFFF;"/>
			<clipPath id="SVGID_34_">
				<use xlink:href="#SVGID_31_"  style="overflow:visible;"/>
			</clipPath>
			<clipPath id="SVGID_35_" class="st23">
				<use xlink:href="#SVGID_32_"  style="overflow:visible;"/>
			</clipPath>
			<clipPath id="SVGID_36_" class="st24">
				<use xlink:href="#SVGID_33_"  style="overflow:visible;"/>
			</clipPath>
			
				<rect x="243.7" y="226.8" transform="matrix(0.7071 -0.7071 0.7071 0.7071 -93.0703 241.3786)" class="st25" width="2.3" height="12.4"/>
			
				<use xlink:href="#SVGID_33_"  style="overflow:visible;fill-rule:evenodd;clip-rule:evenodd;fill:none;stroke:#1A171B;stroke-width:0.5;stroke-miterlimit:3.8637;"/>
		</g>
		<g>
			<defs>
				<path id="SVGID_37_" d="M224.6,233c0-3.1,2.5-5.7,5.7-5.7s5.7,2.5,5.7,5.7c0,3.1-2.5,5.7-5.7,5.7S224.6,236.2,224.6,233z"/>
			</defs>
			<defs>
				<path id="SVGID_38_" d="M224.6,233c0-3.1,2.5-5.7,5.7-5.7s5.7,2.5,5.7,5.7c0,3.1-2.5,5.7-5.7,5.7S224.6,236.2,224.6,233z"/>
			</defs>
			<defs>
				<path id="SVGID_39_" d="M224.6,233c0-3.1,2.5-5.7,5.7-5.7s5.7,2.5,5.7,5.7c0,3.1-2.5,5.7-5.7,5.7S224.6,236.2,224.6,233z"/>
			</defs>
			<use xlink:href="#SVGID_37_"  style="overflow:visible;fill-rule:evenodd;clip-rule:evenodd;fill:#FFFFFF;"/>
			<clipPath id="SVGID_40_">
				<use xlink:href="#SVGID_37_"  style="overflow:visible;"/>
			</clipPath>
			<clipPath id="SVGID_41_" class="st26">
				<use xlink:href="#SVGID_38_"  style="overflow:visible;"/>
			</clipPath>
			<clipPath id="SVGID_42_" class="st27">
				<use xlink:href="#SVGID_39_"  style="overflow:visible;"/>
			</clipPath>
			
				<rect x="229.1" y="226.8" transform="matrix(0.7071 -0.7072 0.7072 0.7071 -97.3376 231.0926)" class="st28" width="2.3" height="12.4"/>
			
				<use xlink:href="#SVGID_39_"  style="overflow:visible;fill-rule:evenodd;clip-rule:evenodd;fill:none;stroke:#1A171B;stroke-width:0.5;stroke-miterlimit:3.8637;"/>
		</g>
		<g>
			<defs>
				<path id="SVGID_43_" d="M210,233c0-3.1,2.5-5.7,5.7-5.7s5.7,2.5,5.7,5.7c0,3.1-2.5,5.7-5.7,5.7S210,236.2,210,233z"/>
			</defs>
			<defs>
				<path id="SVGID_44_" d="M210,233c0-3.1,2.5-5.7,5.7-5.7s5.7,2.5,5.7,5.7c0,3.1-2.5,5.7-5.7,5.7S210,236.2,210,233z"/>
			</defs>
			<defs>
				<path id="SVGID_45_" d="M210,233c0-3.1,2.5-5.7,5.7-5.7s5.7,2.5,5.7,5.7c0,3.1-2.5,5.7-5.7,5.7S210,236.2,210,233z"/>
			</defs>
			<use xlink:href="#SVGID_43_"  style="overflow:visible;fill-rule:evenodd;clip-rule:evenodd;fill:#FFFFFF;"/>
			<clipPath id="SVGID_46_">
				<use xlink:href="#SVGID_43_"  style="overflow:visible;"/>
			</clipPath>
			<clipPath id="SVGID_47_" class="st29">
				<use xlink:href="#SVGID_44_"  style="overflow:visible;"/>
			</clipPath>
			<clipPath id="SVGID_48_" class="st30">
				<use xlink:href="#SVGID_45_"  style="overflow:visible;"/>
			</clipPath>
			
				<rect x="214.5" y="226.8" transform="matrix(0.7071 -0.7071 0.7071 0.7071 -101.6106 220.7627)" class="st31" width="2.3" height="12.4"/>
			
				<use xlink:href="#SVGID_45_"  style="overflow:visible;fill-rule:evenodd;clip-rule:evenodd;fill:none;stroke:#1A171B;stroke-width:0.5;stroke-miterlimit:3.8637;"/>
		</g>
	</g>
	<g>
		<rect x="32.4" y="4.5" class="st17" width="87" height="35.4"/>
		<rect x="109.6" y="37.1" class="st18" width="5.7" height="2.8"/>
		<rect x="94.9" y="37.1" class="st18" width="5.7" height="2.8"/>
		<rect x="80.3" y="37.1" class="st18" width="5.7" height="2.8"/>
		<rect x="65.7" y="37.1" class="st18" width="5.7" height="2.8"/>
		<rect x="51.1" y="37.1" class="st18" width="5.7" height="2.8"/>
		<rect x="36.4" y="37.1" class="st18" width="5.7" height="2.8"/>
		<rect x="32.4" y="4.5" class="st19" width="87" height="2.8"/>
		<rect x="32.4" y="10.2" class="st17" width="87" height="17"/>
		<g>
			<defs>
				<path id="SVGID_49_" d="M33.8,19.8c0-3.1,2.5-5.7,5.7-5.7s5.7,2.5,5.7,5.7s-2.5,5.7-5.7,5.7S33.8,23,33.8,19.8z"/>
			</defs>
			<defs>
				<path id="SVGID_50_" d="M33.8,19.8c0-3.1,2.5-5.7,5.7-5.7s5.7,2.5,5.7,5.7s-2.5,5.7-5.7,5.7S33.8,23,33.8,19.8z"/>
			</defs>
			<defs>
				<path id="SVGID_51_" d="M33.8,19.8c0-3.1,2.5-5.7,5.7-5.7s5.7,2.5,5.7,5.7s-2.5,5.7-5.7,5.7S33.8,23,33.8,19.8z"/>
			</defs>
			<use xlink:href="#SVGID_49_"  style="overflow:visible;fill-rule:evenodd;clip-rule:evenodd;fill:#FFFFFF;"/>
			<clipPath id="SVGID_52_">
				<use xlink:href="#SVGID_49_"  style="overflow:visible;"/>
			</clipPath>
			<clipPath id="SVGID_53_" class="st32">
				<use xlink:href="#SVGID_50_"  style="overflow:visible;"/>
			</clipPath>
			<clipPath id="SVGID_54_" class="st33">
				<use xlink:href="#SVGID_51_"  style="overflow:visible;"/>
			</clipPath>
			
				<rect x="38.4" y="13.6" transform="matrix(0.7071 -0.7071 0.7071 0.7071 -2.4474 33.7399)" class="st34" width="2.3" height="12.4"/>
			
				<use xlink:href="#SVGID_51_"  style="overflow:visible;fill-rule:evenodd;clip-rule:evenodd;fill:none;stroke:#1A171B;stroke-width:0.5;stroke-miterlimit:3.8637;"/>
		</g>
		<g>
			<defs>
				<path id="SVGID_55_" d="M48.4,19.8c0-3.1,2.5-5.7,5.7-5.7s5.7,2.5,5.7,5.7s-2.5,5.7-5.7,5.7S48.4,23,48.4,19.8z"/>
			</defs>
			<defs>
				<path id="SVGID_56_" d="M48.4,19.8c0-3.1,2.5-5.7,5.7-5.7s5.7,2.5,5.7,5.7s-2.5,5.7-5.7,5.7S48.4,23,48.4,19.8z"/>
			</defs>
			<defs>
				<path id="SVGID_57_" d="M48.4,19.8c0-3.1,2.5-5.7,5.7-5.7s5.7,2.5,5.7,5.7s-2.5,5.7-5.7,5.7S48.4,23,48.4,19.8z"/>
			</defs>
			<use xlink:href="#SVGID_55_"  style="overflow:visible;fill-rule:evenodd;clip-rule:evenodd;fill:#FFFFFF;"/>
			<clipPath id="SVGID_58_">
				<use xlink:href="#SVGID_55_"  style="overflow:visible;"/>
			</clipPath>
			<clipPath id="SVGID_59_" class="st35">
				<use xlink:href="#SVGID_56_"  style="overflow:visible;"/>
			</clipPath>
			<clipPath id="SVGID_60_" class="st36">
				<use xlink:href="#SVGID_57_"  style="overflow:visible;"/>
			</clipPath>
			
				<rect x="52.9" y="13.6" transform="matrix(0.7071 -0.7071 0.7071 0.7071 1.8259 44.0448)" class="st37" width="2.3" height="12.4"/>
			
				<use xlink:href="#SVGID_57_"  style="overflow:visible;fill-rule:evenodd;clip-rule:evenodd;fill:none;stroke:#1A171B;stroke-width:0.5;stroke-miterlimit:3.8637;"/>
		</g>
		<g>
			<defs>
				<path id="SVGID_61_" d="M63,19.8c0-3.1,2.5-5.7,5.7-5.7s5.7,2.5,5.7,5.7s-2.5,5.7-5.7,5.7S63,23,63,19.8z"/>
			</defs>
			<defs>
				<path id="SVGID_62_" d="M63,19.8c0-3.1,2.5-5.7,5.7-5.7s5.7,2.5,5.7,5.7s-2.5,5.7-5.7,5.7S63,23,63,19.8z"/>
			</defs>
			<defs>
				<path id="SVGID_63_" d="M63,19.8c0-3.1,2.5-5.7,5.7-5.7s5.7,2.5,5.7,5.7s-2.5,5.7-5.7,5.7S63,23,63,19.8z"/>
			</defs>
			<use xlink:href="#SVGID_61_"  style="overflow:visible;fill-rule:evenodd;clip-rule:evenodd;fill:#FFFFFF;"/>
			<clipPath id="SVGID_64_">
				<use xlink:href="#SVGID_61_"  style="overflow:visible;"/>
			</clipPath>
			<clipPath id="SVGID_65_" class="st38">
				<use xlink:href="#SVGID_62_"  style="overflow:visible;"/>
			</clipPath>
			<clipPath id="SVGID_66_" class="st39">
				<use xlink:href="#SVGID_63_"  style="overflow:visible;"/>
			</clipPath>
			
				<rect x="67.5" y="13.6" transform="matrix(0.7071 -0.7071 0.7071 0.7071 6.0935 54.3554)" class="st40" width="2.3" height="12.4"/>
			
				<use xlink:href="#SVGID_63_"  style="overflow:visible;fill-rule:evenodd;clip-rule:evenodd;fill:none;stroke:#1A171B;stroke-width:0.5;stroke-miterlimit:3.8637;"/>
		</g>
		<g>
			<defs>
				<path id="SVGID_67_" d="M77.6,19.8c0-3.1,2.5-5.7,5.7-5.7s5.7,2.5,5.7,5.7s-2.5,5.7-5.7,5.7S77.6,23,77.6,19.8z"/>
			</defs>
			<defs>
				<path id="SVGID_68_" d="M77.6,19.8c0-3.1,2.5-5.7,5.7-5.7s5.7,2.5,5.7,5.7s-2.5,5.7-5.7,5.7S77.6,23,77.6,19.8z"/>
			</defs>
			<defs>
				<path id="SVGID_69_" d="M77.6,19.8c0-3.1,2.5-5.7,5.7-5.7s5.7,2.5,5.7,5.7s-2.5,5.7-5.7,5.7S77.6,23,77.6,19.8z"/>
			</defs>
			<use xlink:href="#SVGID_67_"  style="overflow:visible;fill-rule:evenodd;clip-rule:evenodd;fill:#FFFFFF;"/>
			<clipPath id="SVGID_70_">
				<use xlink:href="#SVGID_67_"  style="overflow:visible;"/>
			</clipPath>
			<clipPath id="SVGID_71_" class="st41">
				<use xlink:href="#SVGID_68_"  style="overflow:visible;"/>
			</clipPath>
			<clipPath id="SVGID_72_" class="st42">
				<use xlink:href="#SVGID_69_"  style="overflow:visible;"/>
			</clipPath>
			
				<rect x="82.1" y="13.6" transform="matrix(0.7071 -0.7071 0.7071 0.7071 10.3668 64.6604)" class="st43" width="2.3" height="12.4"/>
			
				<use xlink:href="#SVGID_69_"  style="overflow:visible;fill-rule:evenodd;clip-rule:evenodd;fill:none;stroke:#1A171B;stroke-width:0.5;stroke-miterlimit:3.8637;"/>
		</g>
		<g>
			<defs>
				<path id="SVGID_73_" d="M92.1,19.8c0-3.1,2.5-5.7,5.7-5.7s5.7,2.5,5.7,5.7s-2.5,5.7-5.7,5.7S92.1,23,92.1,19.8z"/>
			</defs>
			<defs>
				<path id="SVGID_74_" d="M92.1,19.8c0-3.1,2.5-5.7,5.7-5.7s5.7,2.5,5.7,5.7s-2.5,5.7-5.7,5.7S92.1,23,92.1,19.8z"/>
			</defs>
			<defs>
				<path id="SVGID_75_" d="M92.1,19.8c0-3.1,2.5-5.7,5.7-5.7s5.7,2.5,5.7,5.7s-2.5,5.7-5.7,5.7S92.1,23,92.1,19.8z"/>
			</defs>
			<use xlink:href="#SVGID_73_"  style="overflow:visible;fill-rule:evenodd;clip-rule:evenodd;fill:#FFFFFF;"/>
			<clipPath id="SVGID_76_">
				<use xlink:href="#SVGID_73_"  style="overflow:visible;"/>
			</clipPath>
			<clipPath id="SVGID_77_" class="st44">
				<use xlink:href="#SVGID_74_"  style="overflow:visible;"/>
			</clipPath>
			<clipPath id="SVGID_78_" class="st45">
				<use xlink:href="#SVGID_75_"  style="overflow:visible;"/>
			</clipPath>
			
				<rect x="96.7" y="13.6" transform="matrix(0.7071 -0.7071 0.7071 0.7071 14.6337 74.9714)" class="st46" width="2.3" height="12.4"/>
			
				<use xlink:href="#SVGID_75_"  style="overflow:visible;fill-rule:evenodd;clip-rule:evenodd;fill:none;stroke:#1A171B;stroke-width:0.5;stroke-miterlimit:3.8637;"/>
		</g>
		<g>
			<defs>
				<path id="SVGID_79_" d="M106.7,19.8c0-3.1,2.5-5.7,5.7-5.7s5.7,2.5,5.7,5.7s-2.5,5.7-5.7,5.7S106.7,23,106.7,19.8z"/>
			</defs>
			<defs>
				<path id="SVGID_80_" d="M106.7,19.8c0-3.1,2.5-5.7,5.7-5.7s5.7,2.5,5.7,5.7s-2.5,5.7-5.7,5.7S106.7,23,106.7,19.8z"/>
			</defs>
			<defs>
				<path id="SVGID_81_" d="M106.7,19.8c0-3.1,2.5-5.7,5.7-5.7s5.7,2.5,5.7,5.7s-2.5,5.7-5.7,5.7S106.7,23,106.7,19.8z"/>
			</defs>
			<use xlink:href="#SVGID_79_"  style="overflow:visible;fill-rule:evenodd;clip-rule:evenodd;fill:#FFFFFF;"/>
			<clipPath id="SVGID_82_">
				<use xlink:href="#SVGID_79_"  style="overflow:visible;"/>
			</clipPath>
			<clipPath id="SVGID_83_" class="st47">
				<use xlink:href="#SVGID_80_"  style="overflow:visible;"/>
			</clipPath>
			<clipPath id="SVGID_84_" class="st48">
				<use xlink:href="#SVGID_81_"  style="overflow:visible;"/>
			</clipPath>
			
				<rect x="111.3" y="13.6" transform="matrix(0.7071 -0.7071 0.7071 0.7071 18.907 85.2763)" class="st49" width="2.3" height="12.4"/>
			
				<use xlink:href="#SVGID_81_"  style="overflow:visible;fill-rule:evenodd;clip-rule:evenodd;fill:none;stroke:#1A171B;stroke-width:0.5;stroke-miterlimit:3.8637;"/>
		</g>
	</g>
	<g>
		<rect x="179.5" y="4.5" class="st17" width="87" height="35.4"/>
		<rect x="256.6" y="37.1" class="st18" width="5.7" height="2.8"/>
		<rect x="242" y="37.1" class="st18" width="5.7" height="2.8"/>
		<rect x="227.4" y="37.1" class="st18" width="5.7" height="2.8"/>
		<rect x="212.7" y="37.1" class="st18" width="5.7" height="2.8"/>
		<rect x="198.1" y="37.1" class="st18" width="5.7" height="2.8"/>
		<rect x="183.5" y="37.1" class="st18" width="5.7" height="2.8"/>
		<rect x="179.5" y="4.5" class="st19" width="87" height="2.8"/>
		<rect x="179.5" y="10.2" class="st17" width="87" height="17"/>
		<g>
			<defs>
				<path id="SVGID_85_" d="M180.9,19.8c0-3.1,2.5-5.7,5.7-5.7s5.7,2.5,5.7,5.7s-2.5,5.7-5.7,5.7S180.9,23,180.9,19.8z"/>
			</defs>
			<defs>
				<path id="SVGID_86_" d="M180.9,19.8c0-3.1,2.5-5.7,5.7-5.7s5.7,2.5,5.7,5.7s-2.5,5.7-5.7,5.7S180.9,23,180.9,19.8z"/>
			</defs>
			<defs>
				<path id="SVGID_87_" d="M180.9,19.8c0-3.1,2.5-5.7,5.7-5.7s5.7,2.5,5.7,5.7s-2.5,5.7-5.7,5.7S180.9,23,180.9,19.8z"/>
			</defs>
			<use xlink:href="#SVGID_85_"  style="overflow:visible;fill-rule:evenodd;clip-rule:evenodd;fill:#FFFFFF;"/>
			<clipPath id="SVGID_88_">
				<use xlink:href="#SVGID_85_"  style="overflow:visible;"/>
			</clipPath>
			<clipPath id="SVGID_89_" class="st50">
				<use xlink:href="#SVGID_86_"  style="overflow:visible;"/>
			</clipPath>
			<clipPath id="SVGID_90_" class="st51">
				<use xlink:href="#SVGID_87_"  style="overflow:visible;"/>
			</clipPath>
			
				<rect x="185.4" y="13.6" transform="matrix(0.7071 -0.7071 0.7071 0.7071 40.6217 137.718)" class="st52" width="2.3" height="12.4"/>
			
				<use xlink:href="#SVGID_87_"  style="overflow:visible;fill-rule:evenodd;clip-rule:evenodd;fill:none;stroke:#1A171B;stroke-width:0.5;stroke-miterlimit:3.8637;"/>
		</g>
		<g>
			<defs>
				<path id="SVGID_91_" d="M195.5,19.8c0-3.1,2.5-5.7,5.7-5.7s5.7,2.5,5.7,5.7s-2.5,5.7-5.7,5.7S195.5,23,195.5,19.8z"/>
			</defs>
			<defs>
				<path id="SVGID_92_" d="M195.5,19.8c0-3.1,2.5-5.7,5.7-5.7s5.7,2.5,5.7,5.7s-2.5,5.7-5.7,5.7S195.5,23,195.5,19.8z"/>
			</defs>
			<defs>
				<path id="SVGID_93_" d="M195.5,19.8c0-3.1,2.5-5.7,5.7-5.7s5.7,2.5,5.7,5.7s-2.5,5.7-5.7,5.7S195.5,23,195.5,19.8z"/>
			</defs>
			<use xlink:href="#SVGID_91_"  style="overflow:visible;fill-rule:evenodd;clip-rule:evenodd;fill:#FFFFFF;"/>
			<clipPath id="SVGID_94_">
				<use xlink:href="#SVGID_91_"  style="overflow:visible;"/>
			</clipPath>
			<clipPath id="SVGID_95_" class="st53">
				<use xlink:href="#SVGID_92_"  style="overflow:visible;"/>
			</clipPath>
			<clipPath id="SVGID_96_" class="st54">
				<use xlink:href="#SVGID_93_"  style="overflow:visible;"/>
			</clipPath>
			
				<rect x="200" y="13.6" transform="matrix(0.7071 -0.7071 0.7071 0.7071 44.895 148.0228)" class="st55" width="2.3" height="12.4"/>
			
				<use xlink:href="#SVGID_93_"  style="overflow:visible;fill-rule:evenodd;clip-rule:evenodd;fill:none;stroke:#1A171B;stroke-width:0.5;stroke-miterlimit:3.8637;"/>
		</g>
		<g>
			<defs>
				<path id="SVGID_97_" d="M210,19.8c0-3.1,2.5-5.7,5.7-5.7s5.7,2.5,5.7,5.7s-2.5,5.7-5.7,5.7S210,23,210,19.8z"/>
			</defs>
			<defs>
				<path id="SVGID_98_" d="M210,19.8c0-3.1,2.5-5.7,5.7-5.7s5.7,2.5,5.7,5.7s-2.5,5.7-5.7,5.7S210,23,210,19.8z"/>
			</defs>
			<defs>
				<path id="SVGID_99_" d="M210,19.8c0-3.1,2.5-5.7,5.7-5.7s5.7,2.5,5.7,5.7s-2.5,5.7-5.7,5.7S210,23,210,19.8z"/>
			</defs>
			<use xlink:href="#SVGID_97_"  style="overflow:visible;fill-rule:evenodd;clip-rule:evenodd;fill:#FFFFFF;"/>
			<clipPath id="SVGID_100_">
				<use xlink:href="#SVGID_97_"  style="overflow:visible;"/>
			</clipPath>
			<clipPath id="SVGID_101_" class="st56">
				<use xlink:href="#SVGID_98_"  style="overflow:visible;"/>
			</clipPath>
			<clipPath id="SVGID_102_" class="st57">
				<use xlink:href="#SVGID_99_"  style="overflow:visible;"/>
			</clipPath>
			
				<rect x="214.6" y="13.6" transform="matrix(0.7071 -0.7071 0.7071 0.7071 49.1626 158.3335)" class="st58" width="2.3" height="12.4"/>
			
				<use xlink:href="#SVGID_99_"  style="overflow:visible;fill-rule:evenodd;clip-rule:evenodd;fill:none;stroke:#1A171B;stroke-width:0.5;stroke-miterlimit:3.8637;"/>
		</g>
		<g>
			<defs>
				<path id="SVGID_103_" d="M224.6,19.8c0-3.1,2.5-5.7,5.7-5.7s5.7,2.5,5.7,5.7s-2.5,5.7-5.7,5.7S224.6,23,224.6,19.8z"/>
			</defs>
			<defs>
				<path id="SVGID_104_" d="M224.6,19.8c0-3.1,2.5-5.7,5.7-5.7s5.7,2.5,5.7,5.7s-2.5,5.7-5.7,5.7S224.6,23,224.6,19.8z"/>
			</defs>
			<defs>
				<path id="SVGID_105_" d="M224.6,19.8c0-3.1,2.5-5.7,5.7-5.7s5.7,2.5,5.7,5.7s-2.5,5.7-5.7,5.7S224.6,23,224.6,19.8z"/>
			</defs>
			<use xlink:href="#SVGID_103_"  style="overflow:visible;fill-rule:evenodd;clip-rule:evenodd;fill:#FFFFFF;"/>
			<clipPath id="SVGID_106_">
				<use xlink:href="#SVGID_103_"  style="overflow:visible;"/>
			</clipPath>
			<clipPath id="SVGID_107_" class="st59">
				<use xlink:href="#SVGID_104_"  style="overflow:visible;"/>
			</clipPath>
			<clipPath id="SVGID_108_" class="st60">
				<use xlink:href="#SVGID_105_"  style="overflow:visible;"/>
			</clipPath>
			
				<rect x="229.1" y="13.6" transform="matrix(0.7071 -0.7071 0.7071 0.7071 53.4359 168.6385)" class="st61" width="2.3" height="12.4"/>
			
				<use xlink:href="#SVGID_105_"  style="overflow:visible;fill-rule:evenodd;clip-rule:evenodd;fill:none;stroke:#1A171B;stroke-width:0.5;stroke-miterlimit:3.8637;"/>
		</g>
		<g>
			<defs>
				<circle id="SVGID_109_" cx="244.9" cy="19.8" r="5.7"/>
			</defs>
			<defs>
				<circle id="SVGID_110_" cx="244.9" cy="19.8" r="5.7"/>
			</defs>
			<defs>
				<circle id="SVGID_111_" cx="244.9" cy="19.8" r="5.7"/>
			</defs>
			<use xlink:href="#SVGID_109_"  style="overflow:visible;fill-rule:evenodd;clip-rule:evenodd;fill:#FFFFFF;"/>
			<clipPath id="SVGID_112_">
				<use xlink:href="#SVGID_109_"  style="overflow:visible;"/>
			</clipPath>
			<clipPath id="SVGID_113_" class="st62">
				<use xlink:href="#SVGID_110_"  style="overflow:visible;"/>
			</clipPath>
			<clipPath id="SVGID_114_" class="st63">
				<use xlink:href="#SVGID_111_"  style="overflow:visible;"/>
			</clipPath>
			
				<rect x="243.7" y="13.6" transform="matrix(0.7071 -0.7071 0.7071 0.7071 57.7028 178.9495)" class="st64" width="2.3" height="12.4"/>
			
				<use xlink:href="#SVGID_111_"  style="overflow:visible;fill-rule:evenodd;clip-rule:evenodd;fill:none;stroke:#1A171B;stroke-width:0.5;stroke-miterlimit:3.8637;"/>
		</g>
		<g>
			<defs>
				<path id="SVGID_115_" d="M253.8,19.8c0-3.1,2.5-5.7,5.7-5.7s5.7,2.5,5.7,5.7s-2.5,5.7-5.7,5.7S253.8,23,253.8,19.8z"/>
			</defs>
			<defs>
				<path id="SVGID_116_" d="M253.8,19.8c0-3.1,2.5-5.7,5.7-5.7s5.7,2.5,5.7,5.7s-2.5,5.7-5.7,5.7S253.8,23,253.8,19.8z"/>
			</defs>
			<defs>
				<path id="SVGID_117_" d="M253.8,19.8c0-3.1,2.5-5.7,5.7-5.7s5.7,2.5,5.7,5.7s-2.5,5.7-5.7,5.7S253.8,23,253.8,19.8z"/>
			</defs>
			<use xlink:href="#SVGID_115_"  style="overflow:visible;fill-rule:evenodd;clip-rule:evenodd;fill:#FFFFFF;"/>
			<clipPath id="SVGID_118_">
				<use xlink:href="#SVGID_115_"  style="overflow:visible;"/>
			</clipPath>
			<clipPath id="SVGID_119_" class="st65">
				<use xlink:href="#SVGID_116_"  style="overflow:visible;"/>
			</clipPath>
			<clipPath id="SVGID_120_" class="st66">
				<use xlink:href="#SVGID_117_"  style="overflow:visible;"/>
			</clipPath>
			
				<rect x="258.3" y="13.6" transform="matrix(0.7071 -0.7071 0.7071 0.7071 61.9761 189.2544)" class="st67" width="2.3" height="12.4"/>
			
				<use xlink:href="#SVGID_117_"  style="overflow:visible;fill-rule:evenodd;clip-rule:evenodd;fill:none;stroke:#1A171B;stroke-width:0.5;stroke-miterlimit:3.8637;"/>
		</g>
	</g>
	<rect x="0.3" y="40" class="st68" width="298.3" height="172.9"/>
	<g>
		<polygon class="st69" points="133.9,252.6 139.5,252.6 139.5,256.8 159.4,256.8 159.4,252.6 165,252.6 165,261.1 133.9,261.1 		
			"/>
		<rect x="165" y="252.6" class="st70" width="2.1" height="4.3"/>
		<rect x="131.7" y="252.6" class="st70" width="2.1" height="4.3"/>
	</g>
	<rect x="1.3" y="62.6" class="st70" width="296.2" height="127.6"/>
	<rect x="4.9" y="66.2" class="st71" width="289.2" height="120.5"/>
	<rect x="7" y="68.3" class="st71" width="285" height="116.2"/>
	<g>
		<rect x="0.3" y="0.3" class="st72" width="298.3" height="4.3"/>
		<polygon class="st73" points="298.6,0.3 298.6,40 294.4,40 294.4,4.5 290.1,4.5 290.1,0.3 		"/>
		<polygon class="st73" points="0.3,0.3 0.3,40 4.5,40 4.5,4.5 8.8,4.5 8.8,0.3 		"/>
		<polygon class="st73" points="139.5,0.3 139.5,4.5 147.3,4.5 147.3,40 151.6,40 151.6,4.5 159.4,4.5 159.4,0.3 		"/>
	</g>
	<g>
		<rect x="0.3" y="248.3" class="st72" width="298.3" height="4.3"/>
		<polygon class="st73" points="298.6,252.6 298.6,212.9 294.4,212.9 294.4,248.3 290.1,248.3 290.1,252.6 		"/>
		<polygon class="st73" points="159.4,252.6 159.4,248.3 151.6,248.3 151.6,212.9 147.3,212.9 147.3,248.3 139.5,248.3 139.5,252.6 
					"/>
	</g>
	<g>
		<rect x="13.8" y="212.9" class="st74" width="57.5" height="35.4"/>
		<rect x="13.8" y="225.6" class="st75" width="57.5" height="17"/>
		<g>
			<defs>
				<path id="SVGID_121_" d="M58.9,233c0-3.1,2.5-5.7,5.7-5.7s5.7,2.5,5.7,5.7c0,3.1-2.5,5.7-5.7,5.7S58.9,236.2,58.9,233z"/>
			</defs>
			<defs>
				<path id="SVGID_122_" d="M58.9,233c0-3.1,2.5-5.7,5.7-5.7s5.7,2.5,5.7,5.7c0,3.1-2.5,5.7-5.7,5.7S58.9,236.2,58.9,233z"/>
			</defs>
			<defs>
				<path id="SVGID_123_" d="M58.9,233c0-3.1,2.5-5.7,5.7-5.7s5.7,2.5,5.7,5.7c0,3.1-2.5,5.7-5.7,5.7S58.9,236.2,58.9,233z"/>
			</defs>
			<use xlink:href="#SVGID_121_"  style="overflow:visible;fill-rule:evenodd;clip-rule:evenodd;fill:#FFFFFF;"/>
			<clipPath id="SVGID_124_">
				<use xlink:href="#SVGID_121_"  style="overflow:visible;"/>
			</clipPath>
			<clipPath id="SVGID_125_" class="st76">
				<use xlink:href="#SVGID_122_"  style="overflow:visible;"/>
			</clipPath>
			<clipPath id="SVGID_126_" class="st77">
				<use xlink:href="#SVGID_123_"  style="overflow:visible;"/>
			</clipPath>
			
				<rect x="63.5" y="226.8" transform="matrix(0.7071 -0.7071 0.7071 0.7071 -145.8554 113.9403)" class="st78" width="2.3" height="12.4"/>
			
				<use xlink:href="#SVGID_123_"  style="overflow:visible;fill-rule:evenodd;clip-rule:evenodd;fill:none;stroke:#1A171B;stroke-width:0.5;stroke-miterlimit:3.8637;"/>
		</g>
		<g>
			<defs>
				<path id="SVGID_127_" d="M44.4,233c0-3.1,2.5-5.7,5.7-5.7s5.7,2.5,5.7,5.7c0,3.1-2.5,5.7-5.7,5.7S44.4,236.2,44.4,233z"/>
			</defs>
			<defs>
				<path id="SVGID_128_" d="M44.4,233c0-3.1,2.5-5.7,5.7-5.7s5.7,2.5,5.7,5.7c0,3.1-2.5,5.7-5.7,5.7S44.4,236.2,44.4,233z"/>
			</defs>
			<defs>
				<path id="SVGID_129_" d="M44.4,233c0-3.1,2.5-5.7,5.7-5.7s5.7,2.5,5.7,5.7c0,3.1-2.5,5.7-5.7,5.7S44.4,236.2,44.4,233z"/>
			</defs>
			<use xlink:href="#SVGID_127_"  style="overflow:visible;fill-rule:evenodd;clip-rule:evenodd;fill:#FFFFFF;"/>
			<clipPath id="SVGID_130_">
				<use xlink:href="#SVGID_127_"  style="overflow:visible;"/>
			</clipPath>
			<clipPath id="SVGID_131_" class="st79">
				<use xlink:href="#SVGID_128_"  style="overflow:visible;"/>
			</clipPath>
			<clipPath id="SVGID_132_" class="st80">
				<use xlink:href="#SVGID_129_"  style="overflow:visible;"/>
			</clipPath>
			
				<rect x="48.9" y="226.8" transform="matrix(0.7071 -0.7071 0.7071 0.7071 -150.1283 103.6353)" class="st81" width="2.3" height="12.4"/>
			
				<use xlink:href="#SVGID_129_"  style="overflow:visible;fill-rule:evenodd;clip-rule:evenodd;fill:none;stroke:#1A171B;stroke-width:0.5;stroke-miterlimit:3.8637;"/>
		</g>
		<g>
			<defs>
				<path id="SVGID_133_" d="M29.8,233c0-3.1,2.5-5.7,5.7-5.7s5.7,2.5,5.7,5.7c0,3.1-2.5,5.7-5.7,5.7S29.8,236.2,29.8,233z"/>
			</defs>
			<defs>
				<path id="SVGID_134_" d="M29.8,233c0-3.1,2.5-5.7,5.7-5.7s5.7,2.5,5.7,5.7c0,3.1-2.5,5.7-5.7,5.7S29.8,236.2,29.8,233z"/>
			</defs>
			<defs>
				<path id="SVGID_135_" d="M29.8,233c0-3.1,2.5-5.7,5.7-5.7s5.7,2.5,5.7,5.7c0,3.1-2.5,5.7-5.7,5.7S29.8,236.2,29.8,233z"/>
			</defs>
			<use xlink:href="#SVGID_133_"  style="overflow:visible;fill-rule:evenodd;clip-rule:evenodd;fill:#FFFFFF;"/>
			<clipPath id="SVGID_136_">
				<use xlink:href="#SVGID_133_"  style="overflow:visible;"/>
			</clipPath>
			<clipPath id="SVGID_137_" class="st82">
				<use xlink:href="#SVGID_134_"  style="overflow:visible;"/>
			</clipPath>
			<clipPath id="SVGID_138_" class="st83">
				<use xlink:href="#SVGID_135_"  style="overflow:visible;"/>
			</clipPath>
			
				<rect x="34.3" y="226.8" transform="matrix(0.7071 -0.7071 0.7071 0.7071 -154.3956 93.3244)" class="st84" width="2.3" height="12.4"/>
			
				<use xlink:href="#SVGID_135_"  style="overflow:visible;fill-rule:evenodd;clip-rule:evenodd;fill:none;stroke:#1A171B;stroke-width:0.5;stroke-miterlimit:3.8637;"/>
		</g>
		<g>
			<defs>
				<path id="SVGID_139_" d="M15.2,233c0-3.1,2.5-5.7,5.7-5.7s5.7,2.5,5.7,5.7c0,3.1-2.5,5.7-5.7,5.7S15.2,236.2,15.2,233z"/>
			</defs>
			<defs>
				<path id="SVGID_140_" d="M15.2,233c0-3.1,2.5-5.7,5.7-5.7s5.7,2.5,5.7,5.7c0,3.1-2.5,5.7-5.7,5.7S15.2,236.2,15.2,233z"/>
			</defs>
			<defs>
				<path id="SVGID_141_" d="M15.2,233c0-3.1,2.5-5.7,5.7-5.7s5.7,2.5,5.7,5.7c0,3.1-2.5,5.7-5.7,5.7S15.2,236.2,15.2,233z"/>
			</defs>
			<use xlink:href="#SVGID_139_"  style="overflow:visible;fill-rule:evenodd;clip-rule:evenodd;fill:#FFFFFF;"/>
			<clipPath id="SVGID_142_">
				<use xlink:href="#SVGID_139_"  style="overflow:visible;"/>
			</clipPath>
			<clipPath id="SVGID_143_" class="st85">
				<use xlink:href="#SVGID_140_"  style="overflow:visible;"/>
			</clipPath>
			<clipPath id="SVGID_144_" class="st86">
				<use xlink:href="#SVGID_141_"  style="overflow:visible;"/>
			</clipPath>
			
				<rect x="19.7" y="226.8" transform="matrix(0.7071 -0.7071 0.7071 0.7071 -158.6632 83.0138)" class="st87" width="2.3" height="12.4"/>
			
				<use xlink:href="#SVGID_141_"  style="overflow:visible;fill-rule:evenodd;clip-rule:evenodd;fill:none;stroke:#1A171B;stroke-width:0.5;stroke-miterlimit:3.8637;"/>
		</g>
		<rect x="18" y="215.7" class="st71" width="5.7" height="5.7"/>
		<rect x="32.6" y="215.7" class="st71" width="5.7" height="5.7"/>
		<rect x="47.2" y="215.7" class="st71" width="5.7" height="5.7"/>
		<rect x="61.8" y="215.7" class="st71" width="5.7" height="5.7"/>
		<rect x="18" y="212.9" class="st1" width="5.7" height="2.8"/>
		<rect x="32.6" y="212.9" class="st1" width="5.7" height="2.8"/>
		<rect x="47.2" y="212.9" class="st1" width="5.7" height="2.8"/>
		<rect x="61.8" y="212.9" class="st1" width="5.7" height="2.8"/>
		<rect x="13.8" y="245.5" class="st74" width="57.5" height="2.8"/>
	</g>
	<polygon class="st73" points="0.3,252.6 0.3,212.9 4.5,212.9 4.5,248.3 8.8,248.3 8.8,252.6 	"/>
	<g>
		<rect x="9.1" y="70.5" class="st88" width="280.6" height="112"/>
		<rect x="9.1" y="98.2" class="st89" width="280.6" height="56.7"/>
		<g>
			<polygon class="st88" points="21.5,106.3 18.7,109.2 18.7,108.1 12.5,108.1 12.5,104.6 18.7,104.6 18.7,103.4 			"/>
			<path class="st88" d="M28.2,102.3l-2.9,5.3v1h3.1v1.9h1.3v-1.9h1v-1h-1v-5.2H28.2z M26.4,107.6l2.1-4.1v4.1H26.4z"/>
			<polygon class="st88" points="31.9,102.5 31.9,110.5 36.5,110.5 36.5,109.4 33.2,109.4 33.2,106.9 35.7,106.9 35.7,105.8 
				33.2,105.8 33.2,103.5 36.4,103.5 36.4,102.5 			"/>
			<path class="st88" d="M40.9,106.2c0.4-0.2,1.2-0.7,1.2-1.8c0-0.3-0.1-0.8-0.4-1.2c-0.5-0.7-1.3-0.8-2-0.8c-1.9,0-2.5,1.2-2.5,2.2
				c0,1.1,0.8,1.6,1.2,1.9c-0.5,0.3-1.5,0.7-1.5,2c0,0.7,0.3,1.3,0.7,1.6c0.6,0.5,1.5,0.6,1.9,0.6c1.9,0,2.7-1.2,2.7-2.3
				C42.3,106.9,41.3,106.4,40.9,106.2z M39.9,105.7c-0.6-0.2-1.3-0.6-1.3-1.4c0-0.7,0.5-1.1,1.2-1.1c0.8,0,1.2,0.6,1.2,1.1
				C41,105.2,40.4,105.5,39.9,105.7z M39.5,106.9c0.8,0.3,1.6,0.7,1.6,1.6c0,0.8-0.7,1.2-1.4,1.2c-0.8,0-1.5-0.4-1.5-1.3
				C38.2,107.5,39,107.1,39.5,106.9z"/>
			<path class="st88" d="M48.3,104.3c-0.2-0.6-0.6-1.9-2.5-1.9c-1.7,0-2.5,1.2-2.5,2.3c0,0.7,0.3,1.3,0.7,1.6
				c0.4,0.4,0.8,0.5,1.7,0.9c0.7,0.3,1.4,0.6,1.4,1.3c0,0.4-0.2,1.2-1.3,1.2c-1.3,0-1.5-1.1-1.6-1.5l-1.2,0.3
				c0.1,0.5,0.5,2.2,2.8,2.2c1.9,0,2.7-1.3,2.7-2.4c0-1.6-1.3-2.1-2.2-2.4c-0.9-0.4-1.6-0.6-1.6-1.3c0-0.4,0.2-1,1.1-1
				c0.8,0,1.2,0.5,1.4,1.2L48.3,104.3z"/>
		</g>
		<g>
			<g>
				<path class="st88" d="M28,122.8c0-0.3,0-0.5-0.3-0.7c-0.2-0.1-0.5-0.2-0.8-0.2c-0.5,0-1,0.2-1.1,0.7l0.5,0.1
					c0-0.1,0.1-0.4,0.6-0.4c0.2,0,0.5,0.1,0.5,0.4v0.2c-0.5,0-1.6,0-1.6,0.8c0,0.4,0.3,0.8,0.8,0.8c0.6,0,0.8-0.4,0.8-0.5
					c0,0.2,0,0.3,0.1,0.5h0.5c0-0.1-0.1-0.3-0.1-0.5V122.8z M27.4,123.4c0,0.2-0.1,0.7-0.6,0.7c-0.4,0-0.4-0.3-0.4-0.4
					c0-0.3,0.3-0.4,0.4-0.4c0.1,0,0.3-0.1,0.7-0.1V123.4z"/>
				<path class="st88" d="M30.1,123.6c-0.1,0.3-0.2,0.5-0.5,0.5c-0.5,0-0.5-0.7-0.5-0.8c0-0.1,0-0.3,0.1-0.5c0-0.1,0.2-0.4,0.5-0.4
					c0.2,0,0.4,0.1,0.5,0.5l0.5-0.1c0-0.2-0.2-0.9-1-0.9c-0.7,0-1.1,0.6-1.1,1.3c0,0.6,0.3,1.3,1.1,1.3c0.8,0,1-0.7,1-0.9
					L30.1,123.6z"/>
				<path class="st88" d="M32.1,124c-0.1,0-0.1,0-0.1,0c-0.3,0-0.4-0.1-0.4-0.4v-1.2h0.5V122h-0.5v-0.7l-0.5,0l-0.1,0.6h-0.3v0.4H31
					v1.3c0,0.3,0,0.4,0.2,0.6c0.1,0.1,0.3,0.2,0.5,0.2c0.1,0,0.3,0,0.4,0V124z"/>
				<path class="st88" d="M34.6,122h-0.6v1.2c0,0.2,0,0.4-0.1,0.5c-0.1,0.2-0.3,0.3-0.5,0.3c-0.3,0-0.3-0.2-0.3-0.5V122h-0.6v1.7
					c0,0.2,0,0.3,0.1,0.5c0.1,0.2,0.4,0.3,0.6,0.3c0.3,0,0.4-0.1,0.5-0.2c0.2-0.1,0.2-0.3,0.3-0.4v0.5h0.5V122z"/>
				<path class="st88" d="M37.3,122.8c0-0.3,0-0.5-0.3-0.7c-0.2-0.1-0.5-0.2-0.8-0.2c-0.5,0-1,0.2-1.1,0.7l0.5,0.1
					c0-0.1,0.1-0.4,0.6-0.4c0.2,0,0.5,0.1,0.5,0.4v0.2c-0.5,0-1.7,0-1.7,0.8c0,0.4,0.3,0.8,0.8,0.8c0.6,0,0.8-0.4,0.8-0.5
					c0,0.2,0,0.3,0.1,0.5h0.5c0-0.1-0.1-0.3-0.1-0.5V122.8z M36.8,123.4c0,0.2-0.1,0.7-0.6,0.7c-0.4,0-0.4-0.3-0.4-0.4
					c0-0.3,0.3-0.4,0.4-0.4c0.1,0,0.3-0.1,0.7-0.1V123.4z"/>
				<path class="st88" d="M39.1,124c-0.1,0-0.1,0-0.1,0c-0.3,0-0.4-0.1-0.4-0.4v-1.2h0.5V122h-0.5v-0.7l-0.5,0l0,0.6h-0.3v0.4H38
					v1.3c0,0.3,0,0.4,0.2,0.6c0.1,0.1,0.3,0.2,0.5,0.2c0.1,0,0.3,0,0.4,0V124z"/>
				<path class="st88" d="M41.7,123.2c0-0.7-0.4-1.3-1.1-1.3c-0.8,0-1.2,0.6-1.2,1.3c0,0.6,0.3,1.3,1.1,1.3
					C41.2,124.5,41.7,124.1,41.7,123.2z M41.1,123.2c0,0.3,0,0.8-0.6,0.8c-0.6,0-0.6-0.7-0.6-0.8c0-0.4,0.1-0.8,0.6-0.8
					C41,122.4,41.1,122.8,41.1,123.2z"/>
				<path class="st88" d="M42.2,124.5h0.6v-1c0-0.4,0.1-0.6,0.2-0.7c0.2-0.2,0.4-0.2,0.5-0.2v-0.6c-0.5,0-0.7,0.5-0.8,0.7V122h-0.5
					V124.5z"/>
			</g>
			<g>
				<path class="st88" d="M28,116.8c0-0.3,0-0.5-0.3-0.7c-0.2-0.1-0.5-0.2-0.8-0.2c-0.5,0-1,0.2-1.1,0.7l0.5,0.1
					c0-0.1,0.1-0.4,0.6-0.4c0.2,0,0.5,0.1,0.5,0.4v0.2c-0.5,0-1.6,0-1.6,0.8c0,0.4,0.3,0.8,0.8,0.8c0.6,0,0.8-0.4,0.8-0.5
					c0,0.2,0,0.3,0.1,0.5h0.5c0-0.1-0.1-0.3-0.1-0.5V116.8z M27.4,117.4c0,0.2-0.1,0.7-0.6,0.7c-0.4,0-0.4-0.3-0.4-0.4
					c0-0.3,0.3-0.4,0.4-0.4c0.1,0,0.3-0.1,0.7-0.1V117.4z"/>
				<path class="st88" d="M30.1,117.6c-0.1,0.3-0.2,0.5-0.5,0.5c-0.5,0-0.5-0.7-0.5-0.8c0-0.1,0-0.3,0.1-0.5c0-0.1,0.2-0.4,0.5-0.4
					c0.2,0,0.4,0.1,0.5,0.5l0.5-0.1c0-0.2-0.2-0.9-1-0.9c-0.7,0-1.1,0.6-1.1,1.3c0,0.6,0.3,1.3,1.1,1.3c0.8,0,1-0.7,1-0.9
					L30.1,117.6z"/>
				<path class="st88" d="M32.1,118c-0.1,0-0.1,0-0.1,0c-0.3,0-0.4-0.1-0.4-0.4v-1.2h0.5V116h-0.5v-0.7l-0.5,0l-0.1,0.6h-0.3v0.4H31
					v1.3c0,0.3,0,0.4,0.2,0.6c0.1,0.1,0.3,0.2,0.5,0.2c0.1,0,0.3,0,0.4,0V118z"/>
				<path class="st88" d="M34.6,116h-0.6v1.2c0,0.2,0,0.4-0.1,0.5c-0.1,0.2-0.3,0.3-0.5,0.3c-0.3,0-0.3-0.2-0.3-0.5V116h-0.6v1.7
					c0,0.2,0,0.3,0.1,0.5c0.1,0.2,0.4,0.3,0.6,0.3c0.3,0,0.4-0.1,0.5-0.2c0.2-0.1,0.2-0.3,0.3-0.4v0.5h0.5V116z"/>
				<path class="st88" d="M37.3,116.8c0-0.3,0-0.5-0.3-0.7c-0.2-0.1-0.5-0.2-0.8-0.2c-0.5,0-1,0.2-1.1,0.7l0.5,0.1
					c0-0.1,0.1-0.4,0.6-0.4c0.2,0,0.5,0.1,0.5,0.4v0.2c-0.5,0-1.7,0-1.7,0.8c0,0.4,0.3,0.8,0.8,0.8c0.6,0,0.8-0.4,0.8-0.5
					c0,0.2,0,0.3,0.1,0.5h0.5c0-0.1-0.1-0.3-0.1-0.5V116.8z M36.8,117.4c0,0.2-0.1,0.7-0.6,0.7c-0.4,0-0.4-0.3-0.4-0.4
					c0-0.3,0.3-0.4,0.4-0.4c0.1,0,0.3-0.1,0.7-0.1V117.4z"/>
				<path class="st88" d="M40,118.5v-3.3h-0.6v1.2c-0.2-0.4-0.4-0.4-0.7-0.4c-0.8,0-1,0.8-1,1.3c0,0.3,0.1,1.3,0.9,1.3
					c0.5,0,0.7-0.4,0.7-0.5v0.5H40z M39.4,117.4c0,0.4-0.3,0.6-0.5,0.6c-0.5,0-0.5-0.7-0.5-0.8c0-0.2,0-0.9,0.5-0.9
					c0.1,0,0.3,0.1,0.4,0.2c0.1,0.1,0.1,0.2,0.1,0.5V117.4z"/>
				<path class="st88" d="M42.8,117.2c0-0.7-0.4-1.3-1.1-1.3c-0.8,0-1.2,0.6-1.2,1.3c0,0.6,0.3,1.3,1.1,1.3
					C42.3,118.5,42.8,118.1,42.8,117.2z M42.2,117.2c0,0.3,0,0.8-0.6,0.8c-0.6,0-0.6-0.7-0.6-0.8c0-0.4,0.1-0.8,0.6-0.8
					C42.1,116.4,42.2,116.8,42.2,117.2z"/>
				<path class="st88" d="M43.3,118.5h0.6v-1c0-0.4,0.1-0.6,0.2-0.7c0.2-0.2,0.4-0.2,0.5-0.2v-0.6c-0.5,0-0.7,0.5-0.8,0.7V116h-0.5
					V118.5z"/>
			</g>
		</g>
		<g>
			<g>
				<g>
					<polygon class="st89" points="46.5,80 42.3,80 42.3,79 44.8,75.4 42.4,75.4 42.4,74.2 46.3,74.2 46.3,75.3 43.9,78.9 
						46.5,78.9 					"/>
					<path class="st89" d="M50.9,80h-3.3v-1h1V76h-1V75c0.2,0,0.3,0,0.5,0c0.1,0,0.3-0.1,0.4-0.1c0.1-0.1,0.2-0.1,0.3-0.3
						c0.1-0.1,0.1-0.2,0.1-0.4h1.1V79h1V80z"/>
				</g>
				<g>
					<polyline class="st90" points="53.8,83.6 53.8,89.2 49.6,89.2 					"/>
					<polyline class="st90" points="39.7,83.6 39.7,89.2 44.1,89.2 47.7,92.8 					"/>
				</g>
			</g>
			<g>
				<g>
					<polygon class="st89" points="75.6,80 71.5,80 71.5,79 73.9,75.4 71.6,75.4 71.6,74.2 75.5,74.2 75.5,75.3 73,78.9 75.6,78.9 
											"/>
					<path class="st89" d="M80.4,80h-3.9v-1c0.3-0.3,0.6-0.5,0.9-0.8c0.3-0.3,0.5-0.5,0.7-0.7c0.3-0.3,0.5-0.6,0.6-0.8
						s0.2-0.5,0.2-0.7c0-0.3-0.1-0.5-0.2-0.6c-0.1-0.1-0.4-0.2-0.6-0.2c-0.2,0-0.4,0-0.6,0.1c-0.2,0.1-0.4,0.2-0.6,0.4h-0.1v-1.3
						c0.2-0.1,0.4-0.2,0.7-0.2c0.3-0.1,0.6-0.1,0.9-0.1c0.6,0,1.1,0.2,1.4,0.5c0.3,0.3,0.5,0.7,0.5,1.3c0,0.4-0.1,0.7-0.2,1
						c-0.2,0.3-0.4,0.7-0.7,1c-0.2,0.2-0.4,0.4-0.6,0.6c-0.2,0.2-0.3,0.3-0.4,0.4h2.2V80z"/>
				</g>
				<g>
					<polyline class="st90" points="83,83.6 83,89.2 78.7,89.2 					"/>
					<polyline class="st90" points="68.9,83.6 68.9,89.2 73.3,89.2 76.9,92.8 					"/>
				</g>
			</g>
			<g>
				<g>
					<polygon class="st89" points="104.8,80 100.6,80 100.6,79 103.1,75.4 100.8,75.4 100.8,74.2 104.7,74.2 104.7,75.3 102.2,78.9 
						104.8,78.9 					"/>
					<path class="st89" d="M109.1,77.3c0.1,0.1,0.2,0.2,0.3,0.4c0.1,0.1,0.1,0.3,0.1,0.6c0,0.3,0,0.5-0.1,0.8
						c-0.1,0.2-0.2,0.4-0.4,0.6c-0.2,0.2-0.4,0.3-0.7,0.4c-0.3,0.1-0.6,0.1-0.9,0.1c-0.4,0-0.8,0-1.1-0.1c-0.3-0.1-0.5-0.2-0.7-0.3
						v-1.3h0.1c0.2,0.1,0.4,0.3,0.7,0.4c0.3,0.1,0.5,0.1,0.7,0.1c0.1,0,0.3,0,0.4,0c0.2,0,0.3-0.1,0.4-0.2c0.1-0.1,0.1-0.1,0.2-0.2
						c0-0.1,0.1-0.2,0.1-0.4c0-0.2,0-0.3-0.1-0.4c-0.1-0.1-0.2-0.2-0.3-0.2c-0.1,0-0.2-0.1-0.4-0.1c-0.2,0-0.3,0-0.4,0h-0.3v-1h0.3
						c0.2,0,0.3,0,0.5,0c0.1,0,0.2,0,0.3-0.1c0.1,0,0.2-0.1,0.2-0.2c0-0.1,0.1-0.2,0.1-0.4c0-0.1,0-0.2-0.1-0.3
						c-0.1-0.1-0.1-0.1-0.2-0.2c-0.1,0-0.2-0.1-0.3-0.1c-0.1,0-0.2,0-0.3,0c-0.2,0-0.4,0-0.7,0.1c-0.2,0.1-0.5,0.2-0.7,0.4h-0.1
						v-1.3c0.2-0.1,0.4-0.2,0.7-0.2c0.3-0.1,0.6-0.1,0.9-0.1c0.3,0,0.6,0,0.8,0.1c0.2,0.1,0.4,0.1,0.6,0.3c0.2,0.1,0.3,0.3,0.4,0.5
						c0.1,0.2,0.1,0.4,0.1,0.6c0,0.3-0.1,0.6-0.3,0.9c-0.2,0.3-0.4,0.4-0.7,0.5V77c0.1,0,0.2,0.1,0.4,0.1
						C108.8,77.1,109,77.2,109.1,77.3z"/>
				</g>
				<g>
					<polyline class="st90" points="112.2,83.6 112.2,89.2 107.9,89.2 					"/>
					<polyline class="st90" points="98,83.6 98,89.2 102.5,89.2 106,92.8 					"/>
				</g>
			</g>
		</g>
		<g>
			<g>
				<g>
					<polygon class="st89" points="194,80 189.8,80 189.8,79 192.3,75.4 189.9,75.4 189.9,74.2 193.8,74.2 193.8,75.3 191.4,78.9 
						194,78.9 					"/>
					<path class="st89" d="M198.8,78.7h-0.7v1.4h-1.2v-1.4h-2.4v-1.1l2.3-3.4h1.3v3.4h0.7V78.7z M196.9,77.6v-2.1l-1.4,2.1H196.9z"
						/>
				</g>
				<g>
					<polyline class="st90" points="201.3,83.6 201.3,89.2 197,89.2 					"/>
					<polyline class="st90" points="187.2,83.6 187.2,89.2 191.6,89.2 195.2,92.8 					"/>
				</g>
			</g>
			<g>
				<g>
					<polygon class="st89" points="223.1,80 219,80 219,79 221.4,75.4 219.1,75.4 219.1,74.2 223,74.2 223,75.3 220.5,78.9 
						223.1,78.9 					"/>
					<path class="st89" d="M227.8,78.1c0,0.3,0,0.6-0.1,0.8c-0.1,0.3-0.2,0.5-0.4,0.7c-0.2,0.2-0.4,0.3-0.7,0.4
						c-0.3,0.1-0.6,0.1-0.9,0.1c-0.4,0-0.7,0-1-0.1c-0.3-0.1-0.5-0.1-0.7-0.2v-1.3h0.1c0.2,0.1,0.4,0.3,0.7,0.4
						c0.2,0.1,0.5,0.1,0.7,0.1c0.1,0,0.3,0,0.5-0.1c0.2,0,0.3-0.1,0.4-0.2c0.1-0.1,0.1-0.2,0.2-0.2c0-0.1,0.1-0.2,0.1-0.4
						c0-0.1,0-0.3-0.1-0.3c-0.1-0.1-0.1-0.2-0.2-0.2c-0.1-0.1-0.3-0.1-0.4-0.2c-0.2,0-0.3,0-0.5,0c-0.2,0-0.4,0-0.6,0.1
						c-0.2,0-0.3,0.1-0.5,0.1h-0.1v-3.3h3.5v1.1h-2.3v0.9c0.1,0,0.2,0,0.3,0c0.1,0,0.2,0,0.3,0c0.3,0,0.5,0,0.7,0.1
						c0.2,0.1,0.4,0.1,0.6,0.3c0.2,0.1,0.4,0.3,0.5,0.6C227.7,77.4,227.8,77.7,227.8,78.1z"/>
				</g>
				<g>
					<polyline class="st90" points="230.5,83.6 230.5,89.2 226.2,89.2 					"/>
					<polyline class="st90" points="216.4,83.6 216.4,89.2 220.8,89.2 224.3,92.8 					"/>
				</g>
			</g>
			<g>
				<g>
					<polygon class="st89" points="252.3,80 248.1,80 248.1,79 250.6,75.4 248.2,75.4 248.2,74.2 252.1,74.2 252.1,75.3 249.7,78.9 
						252.3,78.9 					"/>
					<path class="st89" d="M257,78.1c0,0.3,0,0.6-0.1,0.8c-0.1,0.3-0.2,0.5-0.4,0.7c-0.2,0.2-0.4,0.3-0.6,0.4
						c-0.2,0.1-0.5,0.2-0.8,0.2c-0.3,0-0.6,0-0.8-0.1c-0.2-0.1-0.5-0.2-0.6-0.4c-0.2-0.2-0.4-0.5-0.5-0.9c-0.1-0.4-0.2-0.8-0.2-1.3
						c0-0.5,0-1,0.1-1.4c0.1-0.4,0.3-0.7,0.5-1.1c0.2-0.3,0.5-0.5,0.8-0.7c0.3-0.2,0.8-0.2,1.2-0.2c0.2,0,0.3,0,0.5,0
						c0.2,0,0.3,0,0.4,0.1v1.1h-0.1c-0.1,0-0.2-0.1-0.3-0.1c-0.1,0-0.3-0.1-0.5-0.1c-0.4,0-0.8,0.1-1,0.4c-0.2,0.2-0.4,0.6-0.4,1
						c0.2-0.1,0.3-0.2,0.5-0.3c0.2-0.1,0.4-0.1,0.6-0.1c0.2,0,0.4,0,0.5,0.1c0.2,0.1,0.3,0.1,0.5,0.2c0.2,0.2,0.3,0.4,0.4,0.6
						C257,77.4,257,77.7,257,78.1z M255.5,78.9c0.1-0.1,0.1-0.2,0.2-0.3c0-0.1,0.1-0.3,0.1-0.5c0-0.2,0-0.3-0.1-0.5
						c0-0.1-0.1-0.2-0.2-0.3c-0.1-0.1-0.2-0.1-0.3-0.1c-0.1,0-0.2,0-0.3,0c-0.1,0-0.2,0-0.3,0c-0.1,0-0.2,0.1-0.3,0.1
						c0,0,0,0.1,0,0.1c0,0.1,0,0.1,0,0.2c0,0.3,0,0.6,0.1,0.8c0.1,0.2,0.1,0.4,0.2,0.5c0.1,0.1,0.1,0.1,0.2,0.2
						c0.1,0,0.2,0.1,0.3,0.1c0.1,0,0.2,0,0.2-0.1C255.4,79.1,255.4,79,255.5,78.9z"/>
				</g>
				<g>
					<polyline class="st90" points="259.6,83.6 259.6,89.2 255.4,89.2 					"/>
					<polyline class="st90" points="245.5,83.6 245.5,89.2 249.9,89.2 253.5,92.8 					"/>
				</g>
			</g>
		</g>
		<g>
			<g>
				<g>
					<polygon class="st89" points="223.1,165.8 219,165.8 219,164.7 221.4,161.1 219.1,161.1 219.1,160 223,160 223,161.1 
						220.5,164.7 223.1,164.7 					"/>
					<path class="st89" d="M227.9,164.2c0,0.5-0.2,0.9-0.6,1.3c-0.4,0.3-0.9,0.5-1.5,0.5c-0.4,0-0.7,0-0.9-0.1
						c-0.3-0.1-0.5-0.2-0.6-0.4c-0.2-0.2-0.3-0.3-0.4-0.5c-0.1-0.2-0.1-0.4-0.1-0.7c0-0.3,0.1-0.5,0.2-0.8c0.1-0.2,0.4-0.4,0.8-0.6
						v0c-0.3-0.2-0.5-0.4-0.6-0.6c-0.1-0.2-0.2-0.5-0.2-0.8c0-0.5,0.2-0.8,0.5-1.1c0.4-0.3,0.8-0.4,1.4-0.4c0.6,0,1.1,0.1,1.4,0.4
						c0.3,0.3,0.5,0.6,0.5,1.1c0,0.3-0.1,0.5-0.2,0.7c-0.1,0.2-0.4,0.4-0.7,0.6v0c0.3,0.2,0.6,0.4,0.8,0.6
						C227.8,163.5,227.9,163.8,227.9,164.2z M226.5,161.5c0-0.2-0.1-0.4-0.2-0.5c-0.1-0.1-0.3-0.2-0.5-0.2c-0.1,0-0.2,0-0.2,0
						c-0.1,0-0.2,0.1-0.2,0.1c-0.1,0-0.1,0.1-0.2,0.2c0,0.1-0.1,0.2-0.1,0.2c0,0.2,0,0.3,0.1,0.4c0.1,0.1,0.2,0.2,0.4,0.3
						c0.1,0,0.1,0.1,0.3,0.1c0.1,0,0.2,0.1,0.4,0.2c0.1-0.1,0.2-0.3,0.2-0.4C226.5,161.8,226.5,161.6,226.5,161.5z M226.6,164.2
						c0-0.2,0-0.3-0.1-0.4c-0.1-0.1-0.2-0.2-0.5-0.3c-0.1,0-0.2-0.1-0.3-0.1c-0.1-0.1-0.3-0.1-0.4-0.1c-0.1,0.1-0.2,0.2-0.3,0.4
						c-0.1,0.1-0.1,0.3-0.1,0.5c0,0.3,0.1,0.5,0.2,0.6c0.2,0.2,0.4,0.2,0.6,0.2c0.1,0,0.2,0,0.2,0c0.1,0,0.2-0.1,0.2-0.1
						c0.1-0.1,0.1-0.1,0.2-0.2C226.6,164.5,226.6,164.4,226.6,164.2z"/>
				</g>
				<g>
					<polyline class="st90" points="230.5,169.4 230.5,175 226.2,175 					"/>
					<polyline class="st90" points="216.4,169.4 216.4,175 220.8,175 224.3,178.6 					"/>
				</g>
			</g>
			<g>
				<g>
					<polygon class="st89" points="252.3,165.8 248.1,165.8 248.1,164.7 250.6,161.1 248.2,161.1 248.2,160 252.1,160 252.1,161.1 
						249.7,164.7 252.3,164.7 					"/>
					<polygon class="st89" points="256.9,161.1 254.7,165.8 253.3,165.8 255.6,161.1 253,161.1 253,160 256.9,160 					"/>
				</g>
				<g>
					<polyline class="st90" points="259.6,169.4 259.6,175 255.4,175 					"/>
					<polyline class="st90" points="245.5,169.4 245.5,175 249.9,175 253.5,178.6 					"/>
				</g>
			</g>
		</g>
		<g>
			<g>
				<polygon class="st89" points="21.3,175.8 21.3,177.1 22.8,177.1 22.8,177.7 21.3,177.7 21.3,179 20.5,179 20.5,177.7 19,177.7 
					19,177.1 20.5,177.1 20.5,175.8 				"/>
				<path class="st89" d="M22.8,172.3v2.3h-0.8v-0.7h-2.3v0.7h-0.7c0-0.1,0-0.2,0-0.3c0-0.1,0-0.2-0.1-0.3c0-0.1-0.1-0.1-0.2-0.2
					c-0.1,0-0.2-0.1-0.3-0.1v-0.8h3.6v-0.7H22.8z"/>
				<path class="st89" d="M22.8,168.7v2.7h-0.7c-0.2-0.2-0.4-0.4-0.6-0.6c-0.2-0.2-0.4-0.4-0.6-0.5c-0.2-0.2-0.4-0.3-0.6-0.4
					s-0.3-0.1-0.5-0.1c-0.2,0-0.4,0.1-0.5,0.2c-0.1,0.1-0.2,0.2-0.2,0.4c0,0.1,0,0.3,0.1,0.5c0.1,0.2,0.2,0.3,0.3,0.4v0.1h-1
					c-0.1-0.1-0.1-0.3-0.2-0.5c-0.1-0.2-0.1-0.4-0.1-0.7c0-0.4,0.1-0.8,0.3-1c0.2-0.2,0.6-0.3,1-0.3c0.3,0,0.5,0.1,0.8,0.2
					c0.2,0.1,0.5,0.3,0.8,0.5c0.2,0.1,0.3,0.3,0.5,0.4c0.1,0.1,0.2,0.2,0.3,0.3v-1.6H22.8z"/>
				<polygon class="st89" points="18.5,164.9 22.8,166.1 22.8,167.1 18.5,168.4 18.5,167.5 21.5,166.6 18.5,165.8 				"/>
			</g>
			<path class="st89" d="M37.4,174.9v1.2l-0.9,0.3v1.6l0.9,0.3v1.1l-4.4-1.6v-1.3L37.4,174.9z M35.7,176.6l-1.6,0.5l1.6,0.5V176.6z"
				/>
			<path class="st89" d="M50.6,175.2c0.2,0,0.4,0,0.6,0.1c0.2,0.1,0.3,0.2,0.4,0.3c0.1,0.2,0.2,0.4,0.3,0.6c0.1,0.2,0.1,0.5,0.1,0.8
				v1.9h-4.4v-1.7c0-0.4,0-0.6,0-0.8c0-0.2,0.1-0.3,0.2-0.5c0.1-0.2,0.2-0.3,0.3-0.4c0.1-0.1,0.3-0.1,0.5-0.1c0.2,0,0.4,0.1,0.6,0.2
				c0.2,0.1,0.3,0.3,0.4,0.5h0c0.1-0.3,0.2-0.5,0.4-0.7C50.1,175.3,50.3,175.2,50.6,175.2z M48.8,176.6c-0.1,0-0.1,0-0.2,0.1
				c-0.1,0-0.1,0.1-0.2,0.2c0,0.1,0,0.2,0,0.3c0,0.1,0,0.3,0,0.5v0.1h0.9v-0.2c0-0.2,0-0.3,0-0.5s0-0.2-0.1-0.3
				c0-0.1-0.1-0.2-0.2-0.2C49,176.6,48.9,176.6,48.8,176.6z M50.6,176.3c-0.1,0-0.2,0-0.3,0.1c-0.1,0.1-0.1,0.1-0.2,0.3
				c0,0.1,0,0.2,0,0.4s0,0.3,0,0.5v0.2h1.1v-0.1c0-0.3,0-0.5,0-0.7s0-0.3-0.1-0.4c0-0.1-0.1-0.2-0.2-0.2
				C50.8,176.4,50.7,176.3,50.6,176.3z"/>
			<g>
				<path class="st89" d="M63.5,176.5c-0.1,0-0.2,0-0.3,0.1s-0.1,0.1-0.2,0.2c0,0.1,0,0.2-0.1,0.3c0,0.1,0,0.2,0,0.4v0.4h1.2v-0.3
					c0-0.2,0-0.3,0-0.5s-0.1-0.2-0.1-0.3c-0.1-0.1-0.1-0.1-0.2-0.2C63.7,176.5,63.6,176.5,63.5,176.5z M66.5,174.7v1.4l-1.6,1.2v0.5
					h1.6v1.1h-4.4V177c0-0.3,0-0.5,0-0.7s0.1-0.4,0.2-0.5c0.1-0.2,0.2-0.3,0.4-0.4c0.2-0.1,0.3-0.1,0.6-0.1c0.3,0,0.6,0.1,0.8,0.2
					c0.2,0.1,0.4,0.4,0.5,0.6L66.5,174.7z"/>
				<path class="st89" d="M65.1,171v2.4c0.3,0,0.5-0.1,0.6-0.3c0.1-0.2,0.2-0.4,0.2-0.8c0-0.2,0-0.4-0.1-0.6s-0.2-0.4-0.3-0.5v-0.1
					h0.8c0.1,0.2,0.2,0.5,0.2,0.7s0.1,0.4,0.1,0.7c0,0.7-0.1,1.2-0.4,1.5s-0.7,0.5-1.3,0.5c-0.5,0-1-0.2-1.3-0.5
					c-0.3-0.3-0.5-0.8-0.5-1.4c0-0.5,0.1-0.9,0.4-1.2c0.3-0.3,0.7-0.4,1.2-0.4H65.1z M64.5,172.1c-0.2,0-0.4,0.1-0.5,0.2
					s-0.2,0.3-0.2,0.5c0,0.2,0.1,0.4,0.2,0.5s0.3,0.2,0.5,0.2V172.1z"/>
				<path class="st89" d="M62.7,168.2L62.7,168.2c0,0.1,0,0.2,0,0.3c0,0.1,0,0.2,0,0.2c0,0.2,0,0.3,0.1,0.4c0.1,0.1,0.2,0.1,0.4,0.1
					h0v-0.8h0.7v0.8h2.6v1.1h-2.6v0.5h-0.7v-0.5h-0.1c-0.4,0-0.7-0.1-0.9-0.3c-0.2-0.2-0.3-0.5-0.3-1c0-0.2,0-0.3,0-0.4
					c0-0.1,0-0.2,0-0.3H62.7z"/>
				<rect x="65.4" y="166.6" class="st89" width="1.2" height="1.1"/>
			</g>
			<polyline class="st91" points="13.6,182.5 13.6,157.8 71.8,157.8 71.8,182.5 			"/>
		</g>
		<path class="st89" d="M32.3,167.6c0.3-0.4-0.1-2.4-1.1-4.1l-3,4.1C29,167.8,31.8,168.4,32.3,167.6z M58.4,160.7v0.3c0,0,0,0,0.1,0
			c0.1,0,0.2,0,0.2,0s0.1-0.1,0.1-0.1c0-0.1-0.1-0.2-0.2-0.2L58.4,160.7L58.4,160.7z M58.8,161.6l-0.3-0.4h-0.2v0.4h-0.1v-1h0.3
			c0.3,0,0.4,0.1,0.4,0.3c0,0.1-0.1,0.2-0.2,0.3l0.3,0.5H58.8z M59.3,161.1c0-0.2-0.1-0.4-0.2-0.5c-0.1-0.1-0.3-0.2-0.5-0.2
			s-0.4,0.1-0.5,0.2c-0.1,0.1-0.2,0.3-0.2,0.5c0,0.2,0.1,0.4,0.2,0.5c0.1,0.1,0.3,0.2,0.5,0.2s0.4-0.1,0.5-0.2
			C59.2,161.5,59.3,161.3,59.3,161.1z M57.7,161.1c0-0.2,0.1-0.4,0.2-0.6c0.2-0.2,0.4-0.2,0.6-0.2s0.4,0.1,0.6,0.2
			c0.2,0.2,0.2,0.4,0.2,0.6s-0.1,0.4-0.2,0.6c-0.2,0.2-0.4,0.2-0.6,0.2s-0.4-0.1-0.6-0.2C57.8,161.5,57.7,161.3,57.7,161.1z
			 M56.4,163.2c-0.3,0-0.5,0.1-0.6,0.3c-0.2,0.2-0.2,0.4-0.2,0.7c0,0.3,0.1,0.5,0.2,0.7c0.2,0.2,0.4,0.3,0.7,0.3
			c0.3,0,0.5-0.1,0.6-0.3c0.2-0.2,0.2-0.4,0.2-0.8c0-0.3-0.1-0.5-0.2-0.7C56.9,163.3,56.7,163.2,56.4,163.2z M53.1,167v-2.5
			c0-0.5-0.1-0.8-0.2-1c-0.1-0.2-0.4-0.3-0.7-0.3c-0.2,0-0.4,0.1-0.5,0.2c-0.2,0.1-0.3,0.2-0.4,0.4v3.2h-0.8v-4.3H51l0.2,0.6
			c0.3-0.4,0.7-0.6,1.2-0.6c0.9,0,1.4,0.6,1.4,1.7v2.7H53.1z M48.5,167v-3.6H48v-0.6h1.3v4.3H48.5z M49,161.1c0.1,0,0.2,0,0.3,0.1
			c0.1,0.1,0.1,0.2,0.1,0.3c0,0.1,0,0.2-0.1,0.3c-0.1,0.1-0.2,0.1-0.3,0.1c-0.1,0-0.2,0-0.3-0.1c-0.1-0.1-0.1-0.2-0.1-0.3
			s0-0.2,0.1-0.3C48.7,161.1,48.8,161.1,49,161.1z M44,166.7l0.3-0.7c0.1,0.1,0.3,0.2,0.6,0.3c0.2,0.1,0.4,0.1,0.6,0.1
			c0.3,0,0.6-0.1,0.8-0.3c0.2-0.2,0.3-0.4,0.3-0.7c0-0.2-0.1-0.4-0.2-0.5c-0.1-0.2-0.4-0.4-0.8-0.6l-0.5-0.2
			c-0.4-0.2-0.7-0.4-0.8-0.7c-0.2-0.3-0.2-0.6-0.2-0.9c0-0.4,0.2-0.8,0.5-1.1s0.7-0.4,1.2-0.4c0.6,0,1.1,0.1,1.4,0.3l-0.2,0.7
			c-0.1-0.1-0.3-0.2-0.5-0.2c-0.2-0.1-0.4-0.1-0.6-0.1c-0.3,0-0.5,0.1-0.6,0.2c-0.2,0.2-0.2,0.4-0.2,0.6c0,0.1,0,0.3,0.1,0.4
			c0.1,0.1,0.1,0.2,0.2,0.3c0.1,0.1,0.3,0.2,0.6,0.3l0.5,0.2c0.4,0.2,0.7,0.4,0.8,0.7c0.2,0.3,0.2,0.6,0.2,1c0,0.4-0.2,0.8-0.5,1.1
			c-0.4,0.3-0.8,0.5-1.4,0.5C44.8,167.1,44.4,166.9,44,166.7z M39,161.1h0.8v4c0,0.4,0.1,0.7,0.3,0.9c0.2,0.2,0.5,0.3,0.9,0.3
			c0.4,0,0.7-0.1,0.9-0.3c0.2-0.2,0.3-0.5,0.3-0.9v-4h0.8v4.1c0,0.6-0.2,1.1-0.6,1.4c-0.4,0.3-0.9,0.5-1.5,0.5
			c-0.7,0-1.2-0.2-1.5-0.5c-0.4-0.3-0.5-0.8-0.5-1.4V161.1z M35.1,164v2.2c0.3,0,0.5,0,0.6,0c0.5,0,0.9-0.1,1.1-0.3
			c0.2-0.2,0.3-0.5,0.3-0.9c0-0.4-0.1-0.7-0.3-0.8c-0.2-0.2-0.6-0.3-1.1-0.3L35.1,164z M35.1,161.7v1.7c0.2,0,0.4,0,0.6,0
			c0.8,0,1.1-0.3,1.1-0.9c0-0.5-0.3-0.8-1-0.8C35.6,161.7,35.4,161.7,35.1,161.7z M36,167h-1.7v-5.9c0.7,0,1.2-0.1,1.5-0.1
			c0.6,0,1,0.1,1.3,0.4c0.3,0.2,0.5,0.6,0.5,1.1c0,0.3-0.1,0.5-0.3,0.7c-0.2,0.2-0.4,0.4-0.7,0.4c0.5,0.1,0.8,0.3,1,0.6
			c0.2,0.3,0.3,0.6,0.3,1.1c0,0.5-0.2,0.9-0.6,1.2C37.1,166.8,36.6,167,36,167z M55.2,167.6c0,0,0.9,0.4,1.2,0.4
			c0.3,0,0.6-0.1,0.8-0.2c0.2-0.1,0.3-0.3,0.3-0.4c0-0.3-0.3-0.5-0.8-0.5c-0.1,0-0.2,0-0.5,0.1c-0.2,0-0.4,0.1-0.5,0.1
			c-0.6,0-0.9-0.2-0.9-0.7c0-0.1,0.1-0.3,0.2-0.4c0.1-0.1,0.3-0.2,0.5-0.2c-0.6-0.3-0.9-0.8-0.9-1.5c0-0.4,0.2-0.8,0.5-1.1
			c0.3-0.3,0.7-0.4,1.2-0.4c0.4,0,0.8,0.1,1,0.3l0.4-0.5l0.5,0.5l-0.5,0.3c0.2,0.3,0.3,0.6,0.3,1c0,0.4-0.1,0.8-0.4,1.1
			c-0.3,0.3-0.6,0.5-1.1,0.5l-0.6,0.1c-0.1,0-0.2,0-0.3,0.1c-0.1,0-0.2,0.1-0.2,0.2c0,0.1,0.1,0.2,0.4,0.2c0.1,0,0.3,0,0.5-0.1
			c0.2,0,0.4-0.1,0.5-0.1c0.4,0,0.7,0.1,1,0.3c0.2,0.2,0.4,0.5,0.4,0.8c0,0.4-0.2,0.7-0.5,1c-0.4,0.2-0.8,0.4-1.3,0.4
			c-0.3,0-0.6,0-0.9-0.1c-0.1,0-0.2-0.1-0.3-0.1c-1.8-0.9-3.9-0.5-5.8-0.3c-3.9,0.4-10.7,1.7-14.4,0.9c-0.9-0.2-1.5-0.4-2.3-0.8
			c-1.2,1-4.5,0.2-5.7-0.2l1.1-1.4l-1.9-1.5l0.4-0.6l1.9,1.4l1.3-1.8l-1.9-1.5l0.4-0.6l1.9,1.4l1-1.4c0.6,0.8,2.3,3.8,1.8,5.4
			c2.9,1.2,6.1,0.9,9.2,0.7c2.4-0.2,4.7-0.6,7.1-0.9C51.4,167.2,53.3,166.8,55.2,167.6z"/>
		<g>
			<g>
				<path class="st88" d="M116.8,134.5c0.2,0,0.4,0.1,0.6,0.2c0.2,0.2,0.2,0.3,0.2,0.5c0,0.2-0.1,0.4-0.2,0.6
					c-0.2,0.2-0.3,0.2-0.6,0.2c-0.2,0-0.4-0.1-0.6-0.2c-0.2-0.2-0.2-0.3-0.2-0.6s0.1-0.4,0.2-0.6
					C116.4,134.5,116.5,134.5,116.8,134.5z M116.1,144.3v-6.1h-1v-1.1h2.2v7.1H116.1z"/>
				<path class="st88" d="M123.7,144.3v-4.2c0-0.8-0.1-1.3-0.3-1.6c-0.2-0.3-0.6-0.5-1.1-0.5c-0.3,0-0.6,0.1-0.9,0.3
					c-0.3,0.2-0.6,0.4-0.7,0.6v5.3h-1.3v-7.1h0.9l0.4,0.9c0.4-0.7,1.1-1.1,2-1.1c1.6,0,2.3,1,2.3,2.9v4.4H123.7z"/>
				<path class="st88" d="M126.5,146.2l0.7-1c0.7,0.5,1.4,0.7,2,0.7c0.6,0,1-0.1,1.4-0.3c0.3-0.2,0.5-0.4,0.5-0.7
					c0-0.6-0.4-0.9-1.3-0.9c-0.1,0-0.4,0-0.8,0.1s-0.7,0.1-0.9,0.1c-1,0-1.5-0.4-1.5-1.1c0-0.2,0.1-0.4,0.4-0.6
					c0.2-0.2,0.5-0.3,0.9-0.4c-1-0.5-1.5-1.3-1.5-2.5c0-0.7,0.3-1.4,0.8-1.9c0.5-0.5,1.2-0.7,1.9-0.7c0.7,0,1.3,0.1,1.6,0.4l0.6-0.8
					l0.8,0.8l-0.8,0.6c0.3,0.4,0.5,1,0.5,1.7c0,0.7-0.2,1.3-0.7,1.8c-0.4,0.5-1,0.8-1.8,0.8l-1,0.1c-0.1,0-0.3,0.1-0.5,0.1
					c-0.2,0.1-0.3,0.2-0.3,0.3c0,0.2,0.2,0.3,0.7,0.3c0.2,0,0.5,0,0.9-0.1c0.4-0.1,0.7-0.1,0.9-0.1c0.7,0,1.2,0.2,1.6,0.5
					c0.4,0.3,0.6,0.8,0.6,1.4c0,0.7-0.3,1.2-0.9,1.6c-0.6,0.4-1.3,0.6-2.2,0.6c-0.5,0-0.9-0.1-1.5-0.2
					C127.3,146.7,126.9,146.5,126.5,146.2z M129.2,138c-0.4,0-0.8,0.2-1.1,0.5c-0.3,0.3-0.4,0.7-0.4,1.1c0,0.5,0.1,0.9,0.4,1.2
					c0.3,0.3,0.6,0.5,1.1,0.5c0.4,0,0.8-0.2,1.1-0.5c0.3-0.3,0.4-0.7,0.4-1.3c0-0.4-0.1-0.8-0.4-1.1C130,138.2,129.6,138,129.2,138z
					"/>
				<path class="st88" d="M139.7,140.8h-5.1c0,0.8,0.2,1.5,0.7,1.9c0.4,0.4,0.9,0.6,1.6,0.6c0.7,0,1.3-0.2,1.8-0.6l0.5,0.9
					c-0.2,0.2-0.5,0.4-0.9,0.5c-0.5,0.2-1.1,0.3-1.7,0.3c-0.9,0-1.7-0.3-2.3-0.9c-0.7-0.7-1-1.6-1-2.7c0-1.2,0.4-2.1,1.1-2.8
					c0.6-0.6,1.4-1,2.3-1c1,0,1.8,0.3,2.4,0.9c0.6,0.6,0.8,1.3,0.8,2.2C139.8,140.3,139.7,140.6,139.7,140.8z M136.6,138.1
					c-0.6,0-1,0.2-1.4,0.5c-0.4,0.3-0.6,0.8-0.6,1.3h4c0-0.5-0.2-0.9-0.5-1.3C137.7,138.3,137.2,138.1,136.6,138.1z"/>
				<path class="st88" d="M145.5,144.3v-4.2c0-0.8-0.1-1.3-0.3-1.6c-0.2-0.3-0.6-0.5-1.1-0.5c-0.3,0-0.6,0.1-0.9,0.3
					c-0.3,0.2-0.6,0.4-0.7,0.6v5.3h-1.3v-7.1h0.9l0.4,0.9c0.4-0.7,1.1-1.1,2-1.1c1.6,0,2.3,1,2.3,2.9v4.4H145.5z"/>
				<path class="st88" d="M149.9,134.5c0.2,0,0.4,0.1,0.6,0.2c0.2,0.2,0.2,0.3,0.2,0.5c0,0.2-0.1,0.4-0.2,0.6
					c-0.2,0.2-0.3,0.2-0.6,0.2c-0.2,0-0.4-0.1-0.6-0.2c-0.2-0.2-0.2-0.3-0.2-0.6s0.1-0.4,0.2-0.6
					C149.5,134.5,149.6,134.5,149.9,134.5z M149.2,144.3v-6.1h-1v-1.1h2.2v7.1H149.2z"/>
				<path class="st88" d="M153.6,137.1v4.5c0,1.1,0.5,1.7,1.4,1.7c0.4,0,0.8-0.1,1.1-0.4c0.3-0.2,0.6-0.5,0.7-0.8v-5h1.3v7.1h-1.3
					v-1c-0.1,0.3-0.4,0.5-0.9,0.8c-0.4,0.2-0.8,0.3-1.3,0.3c-0.8,0-1.4-0.2-1.8-0.7c-0.4-0.4-0.6-1.1-0.6-1.9v-4.7H153.6z"/>
				<path class="st88" d="M168.2,144.3v-4.5c0-1.1-0.5-1.7-1.5-1.7c-0.3,0-0.6,0.1-0.9,0.3c-0.3,0.2-0.4,0.4-0.5,0.6v5.3H164v-5.1
					c0-0.4-0.1-0.6-0.4-0.8c-0.3-0.2-0.6-0.3-1-0.3c-0.3,0-0.5,0.1-0.8,0.3c-0.3,0.2-0.5,0.4-0.6,0.6v5.3h-1.3v-7.1h0.8l0.4,0.8
					c0.5-0.6,1.1-1,1.8-1c1,0,1.7,0.3,2.1,1c0.1-0.3,0.4-0.5,0.8-0.7c0.4-0.2,0.8-0.3,1.2-0.3c0.7,0,1.3,0.2,1.7,0.7
					c0.4,0.4,0.6,1,0.6,1.8v4.8H168.2z"/>
			</g>
			<g>
				<polygon class="st88" points="136.6,150.3 136.5,150.3 135.7,148.6 135,150.3 134.9,150.3 134,147.7 134.5,147.7 135,149.4 
					135.7,147.7 135.8,147.7 136.5,149.4 137.1,147.7 137.5,147.7 				"/>
				<polygon class="st88" points="140.3,150.3 140.1,150.3 139.4,148.6 138.6,150.3 138.5,150.3 137.6,147.7 138.1,147.7 
					138.6,149.4 139.3,147.7 139.4,147.7 140.1,149.4 140.7,147.7 141.2,147.7 				"/>
				<polygon class="st88" points="143.9,150.3 143.8,150.3 143,148.6 142.3,150.3 142.2,150.3 141.3,147.7 141.7,147.7 142.3,149.4 
					143,147.7 143.1,147.7 143.8,149.4 144.4,147.7 144.8,147.7 				"/>
				<path class="st88" d="M145.7,149.6c0.1,0,0.2,0,0.3,0.1s0.1,0.2,0.1,0.3c0,0.1,0,0.2-0.1,0.3c-0.1,0.1-0.2,0.1-0.3,0.1
					c-0.1,0-0.2,0-0.3-0.1c-0.1-0.1-0.1-0.2-0.1-0.3c0-0.1,0-0.2,0.1-0.3C145.5,149.6,145.6,149.6,145.7,149.6z"/>
				<path class="st88" d="M147.5,146.7c0.1,0,0.1,0,0.2,0.1c0.1,0.1,0.1,0.1,0.1,0.2c0,0.1,0,0.1-0.1,0.2c-0.1,0.1-0.1,0.1-0.2,0.1
					c-0.1,0-0.1,0-0.2-0.1c-0.1-0.1-0.1-0.1-0.1-0.2s0-0.1,0.1-0.2C147.3,146.8,147.4,146.7,147.5,146.7z M147.2,150.3v-2.2h-0.4
					v-0.4h0.8v2.6H147.2z"/>
				<path class="st88" d="M150,150.3v-1.5c0-0.3,0-0.5-0.1-0.6c-0.1-0.1-0.2-0.2-0.4-0.2c-0.1,0-0.2,0-0.3,0.1
					c-0.1,0.1-0.2,0.1-0.3,0.2v1.9h-0.5v-2.6h0.3l0.1,0.3c0.1-0.3,0.4-0.4,0.7-0.4c0.6,0,0.8,0.3,0.8,1v1.6H150z"/>
				<path class="st88" d="M151,151l0.2-0.4c0.3,0.2,0.5,0.3,0.7,0.3c0.2,0,0.4,0,0.5-0.1c0.1-0.1,0.2-0.2,0.2-0.3
					c0-0.2-0.1-0.3-0.4-0.3c-0.1,0-0.1,0-0.3,0c-0.1,0-0.2,0-0.3,0c-0.4,0-0.5-0.1-0.5-0.4c0-0.1,0-0.2,0.1-0.2
					c0.1-0.1,0.2-0.1,0.3-0.1c-0.4-0.2-0.5-0.5-0.5-0.9c0-0.3,0.1-0.5,0.3-0.7s0.4-0.3,0.7-0.3c0.3,0,0.4,0.1,0.6,0.2l0.2-0.3
					l0.3,0.3l-0.3,0.2c0.1,0.2,0.2,0.3,0.2,0.6c0,0.3-0.1,0.5-0.2,0.7c-0.2,0.2-0.4,0.3-0.6,0.3l-0.4,0c0,0-0.1,0-0.2,0.1
					c-0.1,0-0.1,0.1-0.1,0.1c0,0.1,0.1,0.1,0.2,0.1c0.1,0,0.2,0,0.3,0c0.1,0,0.3,0,0.3,0c0.3,0,0.4,0.1,0.6,0.2
					c0.1,0.1,0.2,0.3,0.2,0.5c0,0.2-0.1,0.4-0.3,0.6c-0.2,0.1-0.5,0.2-0.8,0.2c-0.2,0-0.3,0-0.5-0.1C151.2,151.1,151.1,151,151,151z
					 M151.9,148c-0.2,0-0.3,0.1-0.4,0.2c-0.1,0.1-0.1,0.2-0.1,0.4c0,0.2,0,0.3,0.1,0.4c0.1,0.1,0.2,0.2,0.4,0.2
					c0.2,0,0.3-0.1,0.4-0.2c0.1-0.1,0.1-0.3,0.1-0.5c0-0.2,0-0.3-0.1-0.4C152.2,148.1,152.1,148,151.9,148z"/>
				<path class="st88" d="M155.7,149h-1.8c0,0.3,0.1,0.5,0.2,0.7c0.1,0.1,0.3,0.2,0.6,0.2c0.3,0,0.5-0.1,0.7-0.2l0.2,0.3
					c-0.1,0.1-0.2,0.1-0.3,0.2c-0.2,0.1-0.4,0.1-0.6,0.1c-0.3,0-0.6-0.1-0.8-0.3c-0.3-0.2-0.4-0.6-0.4-1c0-0.4,0.1-0.8,0.4-1
					c0.2-0.2,0.5-0.3,0.8-0.3c0.4,0,0.7,0.1,0.9,0.3c0.2,0.2,0.3,0.5,0.3,0.8C155.7,148.8,155.7,148.9,155.7,149z M154.6,148
					c-0.2,0-0.4,0.1-0.5,0.2c-0.1,0.1-0.2,0.3-0.2,0.5h1.4c0-0.2-0.1-0.3-0.2-0.5C155,148.1,154.8,148,154.6,148z"/>
				<path class="st88" d="M157.8,150.3v-1.5c0-0.3,0-0.5-0.1-0.6c-0.1-0.1-0.2-0.2-0.4-0.2c-0.1,0-0.2,0-0.3,0.1
					c-0.1,0.1-0.2,0.1-0.3,0.2v1.9h-0.5v-2.6h0.3l0.1,0.3c0.1-0.3,0.4-0.4,0.7-0.4c0.6,0,0.8,0.3,0.8,1v1.6H157.8z"/>
				<path class="st88" d="M159.3,146.7c0.1,0,0.1,0,0.2,0.1c0.1,0.1,0.1,0.1,0.1,0.2c0,0.1,0,0.1-0.1,0.2c-0.1,0.1-0.1,0.1-0.2,0.1
					c-0.1,0-0.1,0-0.2-0.1c-0.1-0.1-0.1-0.1-0.1-0.2s0-0.1,0.1-0.2C159.2,146.8,159.3,146.7,159.3,146.7z M159.1,150.3v-2.2h-0.4
					v-0.4h0.8v2.6H159.1z"/>
				<path class="st88" d="M160.7,147.7v1.6c0,0.4,0.2,0.6,0.5,0.6c0.1,0,0.3,0,0.4-0.1c0.1-0.1,0.2-0.2,0.2-0.3v-1.8h0.5v2.6h-0.5
					v-0.4c-0.1,0.1-0.2,0.2-0.3,0.3c-0.2,0.1-0.3,0.1-0.4,0.1c-0.3,0-0.5-0.1-0.6-0.2c-0.1-0.2-0.2-0.4-0.2-0.7v-1.7H160.7z"/>
				<path class="st88" d="M165.9,150.3v-1.6c0-0.4-0.2-0.6-0.5-0.6c-0.1,0-0.2,0-0.3,0.1c-0.1,0.1-0.2,0.1-0.2,0.2v1.9h-0.5v-1.8
					c0-0.1,0-0.2-0.1-0.3c-0.1-0.1-0.2-0.1-0.4-0.1c-0.1,0-0.2,0-0.3,0.1c-0.1,0.1-0.2,0.1-0.2,0.2v1.9h-0.5v-2.6h0.3l0.2,0.3
					c0.2-0.2,0.4-0.3,0.7-0.3c0.4,0,0.6,0.1,0.8,0.3c0.1-0.1,0.1-0.2,0.3-0.2s0.3-0.1,0.4-0.1c0.3,0,0.5,0.1,0.6,0.2
					c0.1,0.2,0.2,0.4,0.2,0.7v1.7H165.9z"/>
				<path class="st88" d="M166.8,150.1l0.2-0.4c0.3,0.2,0.5,0.2,0.6,0.2c0.3,0,0.4-0.1,0.4-0.4c0-0.2-0.1-0.3-0.4-0.4
					c-0.2-0.1-0.4-0.2-0.4-0.2c-0.1,0-0.1-0.1-0.2-0.2c-0.1-0.1-0.1-0.1-0.1-0.2c0-0.1,0-0.1,0-0.2c0-0.2,0.1-0.4,0.2-0.5
					s0.4-0.2,0.6-0.2c0.2,0,0.4,0.1,0.7,0.2l-0.1,0.4c-0.2-0.1-0.4-0.2-0.5-0.2c-0.1,0-0.2,0-0.3,0.1c-0.1,0.1-0.1,0.1-0.1,0.2
					c0,0.2,0.1,0.3,0.3,0.4l0.3,0.1c0.2,0.1,0.3,0.2,0.4,0.3c0.1,0.1,0.1,0.3,0.1,0.4c0,0.2-0.1,0.4-0.2,0.5
					c-0.2,0.1-0.4,0.2-0.7,0.2C167.3,150.3,167.1,150.2,166.8,150.1z"/>
				<path class="st88" d="M169,149.5v-2.9h0.5v2.8c0,0.1,0,0.2,0.1,0.3c0.1,0.1,0.2,0.1,0.3,0.1v0.4
					C169.3,150.3,169,150.1,169,149.5z"/>
				<path class="st88" d="M170.9,149.6c0.1,0,0.2,0,0.3,0.1s0.1,0.2,0.1,0.3c0,0.1,0,0.2-0.1,0.3c-0.1,0.1-0.2,0.1-0.3,0.1
					s-0.2,0-0.3-0.1c-0.1-0.1-0.1-0.2-0.1-0.3c0-0.1,0-0.2,0.1-0.3C170.8,149.6,170.9,149.6,170.9,149.6z"/>
				<path class="st88" d="M174.2,147.9l-0.2,0.3c0,0-0.1-0.1-0.2-0.1c-0.1,0-0.2-0.1-0.3-0.1c-0.2,0-0.4,0.1-0.6,0.3
					c-0.1,0.2-0.2,0.4-0.2,0.7c0,0.3,0.1,0.5,0.2,0.7c0.1,0.2,0.4,0.2,0.6,0.2c0.2,0,0.4-0.1,0.6-0.2l0.2,0.4
					c-0.2,0.2-0.5,0.2-0.9,0.2c-0.3,0-0.6-0.1-0.9-0.4c-0.2-0.2-0.3-0.6-0.3-1c0-0.4,0.1-0.7,0.4-1c0.2-0.2,0.6-0.4,1-0.4
					c0.1,0,0.3,0,0.4,0.1C174,147.8,174.1,147.8,174.2,147.9z"/>
				<path class="st88" d="M174.5,149c0-0.4,0.1-0.7,0.3-1c0.2-0.2,0.5-0.4,0.8-0.4c0.4,0,0.7,0.1,0.9,0.4c0.2,0.2,0.3,0.6,0.3,1
					c0,0.4-0.1,0.7-0.3,1s-0.5,0.4-0.8,0.4c-0.4,0-0.6-0.1-0.9-0.4C174.6,149.7,174.5,149.4,174.5,149z M175,149c0,0.6,0.2,1,0.7,1
					c0.2,0,0.4-0.1,0.5-0.3c0.1-0.2,0.2-0.4,0.2-0.7c0-0.6-0.2-1-0.7-1c-0.2,0-0.4,0.1-0.5,0.3C175,148.4,175,148.7,175,149z"/>
				<path class="st88" d="M180.2,150.3v-1.6c0-0.4-0.2-0.6-0.5-0.6c-0.1,0-0.2,0-0.3,0.1c-0.1,0.1-0.2,0.1-0.2,0.2v1.9h-0.5v-1.8
					c0-0.1,0-0.2-0.1-0.3c-0.1-0.1-0.2-0.1-0.4-0.1c-0.1,0-0.2,0-0.3,0.1c-0.1,0.1-0.2,0.1-0.2,0.2v1.9h-0.5v-2.6h0.3l0.2,0.3
					c0.2-0.2,0.4-0.3,0.7-0.3c0.4,0,0.6,0.1,0.8,0.3c0.1-0.1,0.1-0.2,0.3-0.2s0.3-0.1,0.4-0.1c0.3,0,0.5,0.1,0.6,0.2
					c0.1,0.2,0.2,0.4,0.2,0.7v1.7H180.2z"/>
			</g>
			<path class="st92" d="M139.7,111.5l6.8,6.8h6.1l8.5-8.5l5.4,5.4l-17,17l-17-17l3.7-3.7c-0.2-0.3-0.2-0.6-0.2-0.9c0-1.1,0.9-2,2-2
				c1.1,0,2,0.9,2,2C139.9,110.9,139.8,111.2,139.7,111.5z M137,112.3l-2.9,2.9l15.4,15.4l15.4-15.4l-3.8-3.8l-8.1,8.1h-7l-7.1-7.1
				c-0.3,0.2-0.6,0.3-1,0.3C137.6,112.6,137.3,112.5,137,112.3z M146.5,102.6c0.2,0.3,0.3,0.6,0.3,1c0,0.4-0.1,0.8-0.3,1.1l2.9,2.9
				l3.9-3.9l-3.9-3.9L146.5,102.6z M142.9,103.7c0-1.1,0.9-2,2-2c0.3,0,0.6,0.1,0.9,0.2l3.7-3.7l5.5,5.5l-5.5,5.5l-3.8-3.8
				c-0.2,0.1-0.5,0.1-0.7,0.1C143.7,105.6,142.9,104.8,142.9,103.7z M139.4,107.1c0-1.1,0.9-2,2-2c1.1,0,2,0.9,2,2
				c0,0.4-0.1,0.8-0.3,1.1l5.1,5.1h2.7l6.5-6.5l0.8,0.8l-6.8,6.8h-3.6l-5.5-5.5c-0.2,0.1-0.5,0.2-0.8,0.2
				C140.3,109.1,139.4,108.2,139.4,107.1z"/>
		</g>
		<g>
			<polygon class="st89" points="126.3,175.8 126.3,179 125.3,179 125.3,178.1 121.8,178.1 121.8,179 120.8,179 120.8,175.8 
				121.8,175.8 121.8,176.7 125.3,176.7 125.3,175.8 			"/>
			<polygon class="st89" points="126.3,169.7 126.3,171.1 122.5,173.4 126.3,173.4 126.3,174.7 120.8,174.7 120.8,173 123.9,171 
				120.8,171 120.8,169.7 			"/>
			<path class="st89" d="M123.7,162c0.1-0.1,0.2-0.2,0.4-0.3c0.1-0.1,0.3-0.1,0.5-0.1c0.3,0,0.5,0.1,0.7,0.2
				c0.2,0.1,0.4,0.3,0.6,0.5c0.2,0.2,0.3,0.4,0.4,0.7c0.1,0.3,0.1,0.6,0.1,1c0,0.5,0,0.8-0.1,1.2c-0.1,0.3-0.1,0.6-0.2,0.8h-1.2
				v-0.1c0.1-0.2,0.2-0.5,0.3-0.8c0.1-0.3,0.1-0.6,0.1-0.8c0-0.1,0-0.3,0-0.5c0-0.2-0.1-0.3-0.2-0.4c-0.1-0.1-0.1-0.2-0.2-0.2
				c-0.1-0.1-0.2-0.1-0.4-0.1c-0.2,0-0.3,0-0.4,0.1c-0.1,0.1-0.2,0.2-0.2,0.3c0,0.1-0.1,0.3-0.1,0.4c0,0.2,0,0.3,0,0.5v0.3h-1v-0.3
				c0-0.2,0-0.4,0-0.5c0-0.1,0-0.3-0.1-0.4c0-0.1-0.1-0.2-0.2-0.2c-0.1-0.1-0.2-0.1-0.3-0.1c-0.1,0-0.2,0-0.3,0.1
				c-0.1,0.1-0.1,0.1-0.2,0.2c0,0.1-0.1,0.2-0.1,0.3c0,0.1,0,0.2,0,0.3c0,0.2,0,0.5,0.1,0.7c0.1,0.3,0.2,0.5,0.3,0.8v0.1H121
				c-0.1-0.2-0.2-0.5-0.2-0.8c-0.1-0.3-0.1-0.7-0.1-1c0-0.3,0-0.6,0.1-0.9c0.1-0.3,0.1-0.5,0.2-0.6c0.1-0.2,0.3-0.3,0.4-0.4
				c0.2-0.1,0.4-0.1,0.6-0.1c0.3,0,0.6,0.1,0.8,0.3c0.2,0.2,0.4,0.4,0.5,0.7h0.1c0-0.1,0.1-0.3,0.1-0.4
				C123.5,162.3,123.6,162.1,123.7,162z"/>
		</g>
		<g>
			<polygon class="st89" points="140.8,175.8 140.8,179 139.8,179 139.8,178.1 136.3,178.1 136.3,179 135.4,179 135.4,175.8 
				136.3,175.8 136.3,176.7 139.8,176.7 139.8,175.8 			"/>
			<polygon class="st89" points="140.8,169.7 140.8,171.1 137.1,173.4 140.8,173.4 140.8,174.7 135.4,174.7 135.4,173 138.5,171 
				135.4,171 135.4,169.7 			"/>
			<path class="st89" d="M139.6,161.4v0.7h1.3v1.3h-1.3v2.6h-1l-3.2-2.6v-1.4h3.2v-0.7H139.6z M138.6,163.5h-2l2,1.6V163.5z"/>
		</g>
		<g>
			<polygon class="st89" points="97.1,175.8 97.1,179 96.2,179 96.2,178.1 92.6,178.1 92.6,179 91.7,179 91.7,175.8 92.6,175.8 
				92.6,176.7 96.2,176.7 96.2,175.8 			"/>
			<polygon class="st89" points="97.1,169.7 97.1,171.1 93.4,173.4 97.1,173.4 97.1,174.7 91.7,174.7 91.7,173 94.8,171 91.7,171 
				91.7,169.7 			"/>
			<path class="st89" d="M97.1,161.8v3.6h-1v-1.1h-2.9v1.1h-0.9c0-0.2,0-0.3,0-0.5c0-0.2-0.1-0.3-0.1-0.4c-0.1-0.1-0.1-0.2-0.2-0.3
				s-0.2-0.1-0.4-0.1v-1.2h4.5v-1.1H97.1z"/>
		</g>
		<g>
			<polygon class="st89" points="111.7,175.8 111.7,179 110.7,179 110.7,178.1 107.2,178.1 107.2,179 106.2,179 106.2,175.8 
				107.2,175.8 107.2,176.7 110.7,176.7 110.7,175.8 			"/>
			<polygon class="st89" points="111.7,169.7 111.7,171.1 108,173.4 111.7,173.4 111.7,174.7 106.2,174.7 106.2,173 109.4,171 
				106.2,171 106.2,169.7 			"/>
			<path class="st89" d="M111.7,161.5v4.3h-0.9c-0.2-0.3-0.5-0.7-0.8-1c-0.3-0.3-0.5-0.6-0.7-0.8c-0.3-0.3-0.5-0.5-0.7-0.6
				s-0.4-0.2-0.6-0.2c-0.2,0-0.4,0.1-0.6,0.2c-0.1,0.2-0.2,0.4-0.2,0.7c0,0.2,0,0.5,0.1,0.7c0.1,0.2,0.2,0.5,0.4,0.7v0.1h-1.2
				c-0.1-0.2-0.2-0.4-0.2-0.8c-0.1-0.3-0.1-0.7-0.1-1c0-0.7,0.1-1.2,0.4-1.6c0.3-0.4,0.7-0.5,1.2-0.5c0.3,0,0.7,0.1,1,0.3
				c0.3,0.2,0.6,0.4,1,0.8c0.2,0.2,0.4,0.4,0.6,0.7c0.2,0.2,0.3,0.4,0.4,0.5v-2.5H111.7z"/>
		</g>
		<g>
			<rect x="266" y="135.4" class="st93" width="13.5" height="13.5"/>
			<rect x="268.7" y="138.2" class="st93" width="8" height="8"/>
		</g>
		<g>
			<g>
				<rect x="258.6" y="101" class="st88" width="28.3" height="28.3"/>
				<path class="st89" d="M266.8,101.9h0.9v0.9h-0.9V101.9z M268.6,101.9h0.9v0.9h0.9v-0.9h0.9v0.9h1.8v1.8h2.7v0.9h0.9v-0.9h-0.9
					v-1.8H275v0.9h-0.9v-1.8h3.7v0.9h-0.9v0.9h1.8v0.9h-0.9v1.8h0.9v1.8h-0.9v-0.9h-0.9v0.9h0.9v0.9h-0.9v0.9h1.8v-0.9h0.9v0.9h1.8
					v-0.9h2.7v0.9h-1.8v0.9h-1.8v0.9h-1.8V111h-1.8v1.8h-0.9V112h-1.8v-5.5h-0.9v-0.9h-1.8v0.9h-0.9v0.9h-0.9v1.8h0.9v-1.8h0.9v2.7
					h0.9v1.8h1.8v0.9h-0.9v0.9h-1.8v0.9h-0.9v1.8h-1.8v-1.8h0.9v-0.9h0.9v-0.9h0.9V112h-1.8v1.8h-0.9v0.9h-0.9v-0.9h-0.9v2.7h-0.9
					v-0.9H265v-0.9h0.9v-0.9H265v-0.9h0.9V112h0.9V111h-0.9v-0.9h0.9v-0.9h0.9v1.8h0.9v-4.6h0.9v-0.9h0.9v-0.9h0.9v-0.9h-1.8v1.8
					h-1.8v0.9h-0.9v-2.7h0.9v-0.9h0.9V101.9z M275,107.4h0.9v0.9H275V107.4z M269.5,110.1h0.9v0.9h-0.9V110.1z M275,110.1h0.9v0.9
					H275V110.1z M271.4,106.5h1.8v3.7h-0.9v-2.7h-0.9V106.5z M266.8,107.4h0.9v0.9h-0.9V107.4z M259.5,109.2h3.7v0.9h-0.9v0.9h-0.9
					v-0.9h-0.9v0.9h-0.9V109.2z M265,109.2h0.9v0.9H265V109.2z M285.1,109.2h0.9v1.8h-0.9V109.2z M264,110.1h0.9v0.9h0.9v0.9H265
					v0.9H264V112h-0.9V111h0.9V110.1z M283.2,111h1.8v0.9h-1.8V111z M259.5,112h1.8v0.9h-0.9v1.8h-0.9V112z M262.2,112h0.9v0.9h0.9
					v0.9h-0.9v0.9h0.9v0.9h0.9v0.9H264v0.9h-0.9v0.9h0.9v-0.9h0.9v0.9h1.8v1.8h-0.9v-0.9H265v0.9h0.9v0.9h-3.7v-0.9h-0.9v-1.8h-0.9
					v-0.9h0.9v-0.9h1.8v-0.9h-0.9v-0.9h-0.9v-0.9h0.9V112z M263.1,119.3h0.9v0.9h-0.9V119.3z M280.5,112h0.9v0.9h-0.9V112z
					 M285.1,112h0.9v0.9h-0.9V112z M275,112.9h0.9v2.7h-1.8v-0.9h-0.9v-0.9h1.8V112.9z M282.3,112.9h1.8v0.9h1.8v1.8h-0.9v2.7h-0.9
					v2.7h1.8v0.9h-0.9v0.9h-0.9V122h-0.9v1.8h-0.9v-3.7h0.9v-1.8h-0.9v-0.9h-0.9v0.9h-0.9v-3.7h1.8v1.8h0.9v0.9h0.9v-1.8h-0.9v-1.8
					h-0.9V112.9z M264,113.8h0.9v0.9H264V113.8z M276.8,113.8h0.9v1.8h0.9v0.9h0.9v1.8h-0.9v-0.9h-1.8v4.6h-0.9v0.9h-1.8v-1.8h0.9
					v-2.7h0.9v-2.7h0.9V113.8z M279.6,113.8h0.9v0.9h-0.9V113.8z M259.5,115.6h1.8v0.9h-0.9v0.9h-0.9V115.6z M272.3,115.6h0.9v1.8
					h-1.8v-0.9h0.9V115.6z M265,116.5h0.9v0.9H265V116.5z M267.7,116.5h0.9v0.9h0.9v0.9h-1.8V116.5z M274.1,116.5h0.9v0.9h-0.9
					V116.5z M273.2,117.4h0.9v1.8h-2.7v-0.9h1.8V117.4z M259.5,118.4h0.9v0.9h-0.9V118.4z M270.4,119.3h0.9v0.9h-0.9V119.3z
					 M278.7,119.3h0.9v0.9h-0.9V119.3z M281.4,119.3h0.9v0.9h-0.9V119.3z M260.4,120.2h0.9v0.9h-0.9V120.2z M266.8,120.2h0.9v0.9
					h0.9v0.9h-1.8V120.2z M268.6,120.2h1.8v0.9h0.9v1.8h-0.9v0.9h-1.8v0.9h-0.9v-1.8h1.8v-1.8h-0.9V120.2z M272.3,121.1h0.9v0.9
					h-0.9V121.1z M276.8,122h0.9v0.9h-0.9V122z M271.4,122.9h0.9v0.9h0.9v0.9h0.9v0.9h-0.9v0.9h1.8v0.9h-1.8v0.9h-2.7v-1.8h0.9v0.9
					h0.9v-0.9h-0.9v-0.9h0.9v-0.9h-0.9V122.9z M273.2,122.9h0.9v0.9h-0.9V122.9z M275.9,122.9h0.9v0.9h-0.9V122.9z M275,123.8h0.9
					v0.9h1.8v1.8h0.9v0.9h0.9v0.9h-3.7v-2.7H275V123.8z M283.2,123.8h0.9v0.9h-0.9V123.8z M285.1,123.8h0.9v2.7h-0.9V123.8z
					 M266.8,124.8h0.9v1.8h0.9v-0.9h0.9v2.7h-0.9v-0.9h-0.9v0.9h-0.9V124.8z M270.4,124.8h0.9v0.9h-0.9V124.8z M278.7,124.8h0.9v0.9
					h-0.9V124.8z M280.5,124.8h2.7v0.9h-1.8v0.9h1.8v0.9h-0.9v0.9h-1.8v-0.9h-0.9v-0.9h0.9V124.8z M283.2,125.7h0.9v0.9h-0.9V125.7z
					 M284.2,126.6h0.9v1.8h-0.9V126.6z"/>
				<path class="st89" d="M259.5,101.9h6.4l0,0l0,0v6.4l0,0l0,0h-6.4l0,0l0,0V101.9L259.5,101.9L259.5,101.9z M260.4,102.8h4.6l0,0
					l0,0v4.6l0,0l0,0h-4.6l0,0l0,0V102.8L260.4,102.8L260.4,102.8z M261.3,103.7h2.7l0,0l0,0v2.7l0,0l0,0h-2.7l0,0l0,0V103.7
					L261.3,103.7L261.3,103.7z M279.6,101.9h6.4l0,0l0,0v6.4l0,0l0,0h-6.4l0,0l0,0V101.9L279.6,101.9L279.6,101.9z M280.5,102.8h4.6
					l0,0l0,0v4.6l0,0l0,0h-4.6l0,0l0,0V102.8L280.5,102.8L280.5,102.8z M281.4,103.7h2.7l0,0l0,0v2.7l0,0l0,0h-2.7l0,0l0,0V103.7
					L281.4,103.7L281.4,103.7z M259.5,122h6.4l0,0l0,0v6.4l0,0l0,0h-6.4l0,0l0,0V122L259.5,122L259.5,122z M260.4,122.9h4.6l0,0l0,0
					v4.6l0,0l0,0h-4.6l0,0l0,0V122.9L260.4,122.9L260.4,122.9z M261.3,123.8h2.7l0,0l0,0v2.7l0,0l0,0h-2.7l0,0l0,0V123.8
					L261.3,123.8L261.3,123.8z M277.8,120.2h4.6l0,0l0,0v4.6l0,0l0,0h-4.6l0,0l0,0V120.2L277.8,120.2L277.8,120.2z M278.7,121.1h2.7
					l0,0l0,0v2.7l0,0l0,0h-2.7l0,0l0,0V121.1L278.7,121.1L278.7,121.1z M279.6,122h0.9l0,0l0,0v0.9l0,0l0,0h-0.9l0,0l0,0V122
					L279.6,122L279.6,122z"/>
			</g>
			<g>
				<path class="st88" d="M256.6,128.7h-2.5v0.6h2.5V128.7z M253.8,128.7h-0.6v0.6h0.6V128.7z"/>
				<path class="st88" d="M256.6,128v-0.6h-1.2c-0.8,0-0.9-0.4-0.9-0.5c0-0.1,0-0.4,0.6-0.4h1.4V126h-1.5c-0.3,0-1.1,0-1.1,0.8
					c0,0.5,0.4,0.7,0.6,0.7h-0.6v0.5H256.6z"/>
				<path class="st88" d="M256.6,124.7h-2v-0.5h-0.4v0.5c-0.4,0-0.5,0-0.5-0.4c0,0,0-0.1,0-0.1h-0.4c0,0.4,0,0.7,0.1,0.8
					c0.2,0.3,0.5,0.3,0.8,0.3v0.4h0.4v-0.4h2V124.7z"/>
				<path class="st88" d="M255.3,121.6c-0.7,0-1.3,0.4-1.3,1.1c0,0.8,0.6,1.2,1.3,1.2c0.6,0,1.3-0.3,1.3-1.1
					C256.6,122.1,256.1,121.6,255.3,121.6z M255.3,122.2c0.3,0,0.8,0,0.8,0.6c0,0.6-0.7,0.6-0.8,0.6c-0.4,0-0.8-0.1-0.8-0.6
					C254.5,122.3,254.9,122.2,255.3,122.2z"/>
			</g>
		</g>
	</g>
</g>
</svg>
