<?xml version="1.0" encoding="UTF-8"?>
<!-- Generator: Adobe Illustrator 24.3.0, SVG Export Plug-In . SVG Version: 6.00 Build 0)  -->
<svg xmlns="http://www.w3.org/2000/svg" xmlns:xlink="http://www.w3.org/1999/xlink" version="1.1" id="Foreground" x="0px" y="0px" viewBox="0 0 462 261.4" style="enable-background:new 0 0 462 261.4;" xml:space="preserve">
<style type="text/css">
	.st0{fill-rule:evenodd;clip-rule:evenodd;fill:#314A7D;}
	.st1{fill-rule:evenodd;clip-rule:evenodd;fill:#9C2828;stroke:#1A171B;stroke-width:0.5;stroke-miterlimit:3.8637;}
	.st2{fill-rule:evenodd;clip-rule:evenodd;fill:#BE091E;stroke:#1A171B;stroke-width:0.5;stroke-miterlimit:3.8637;}
	.st3{clip-path:url(#SVGID_4_);}
	.st4{clip-path:url(#SVGID_5_);}
	
		.st5{clip-path:url(#SVGID_6_);fill-rule:evenodd;clip-rule:evenodd;fill:#D1D1D1;stroke:#1A171B;stroke-width:0.5;stroke-miterlimit:3.8637;}
	.st6{clip-path:url(#SVGID_10_);}
	.st7{clip-path:url(#SVGID_11_);}
	
		.st8{clip-path:url(#SVGID_12_);fill-rule:evenodd;clip-rule:evenodd;fill:#D1D1D1;stroke:#1A171B;stroke-width:0.5;stroke-miterlimit:3.8637;}
	.st9{clip-path:url(#SVGID_16_);}
	.st10{clip-path:url(#SVGID_17_);}
	
		.st11{clip-path:url(#SVGID_18_);fill-rule:evenodd;clip-rule:evenodd;fill:#D1D1D1;stroke:#1A171B;stroke-width:0.5;stroke-miterlimit:3.8637;}
	.st12{clip-path:url(#SVGID_22_);}
	.st13{clip-path:url(#SVGID_23_);}
	
		.st14{clip-path:url(#SVGID_24_);fill-rule:evenodd;clip-rule:evenodd;fill:#D1D1D1;stroke:#1A171B;stroke-width:0.5;stroke-miterlimit:3.8637;}
	.st15{fill-rule:evenodd;clip-rule:evenodd;fill:none;stroke:#1A171B;stroke-width:0.5;stroke-miterlimit:3.8637;}
	.st16{fill-rule:evenodd;clip-rule:evenodd;fill:#1A171B;stroke:#1A171B;stroke-width:0.5;stroke-miterlimit:3.8637;}
	.st17{fill-rule:evenodd;clip-rule:evenodd;fill:#D6D5D6;stroke:#1A171B;stroke-width:0.5;stroke-miterlimit:3.8637;}
	.st18{fill:#D6D5D6;stroke:#1A171B;stroke-width:0.5;stroke-miterlimit:3.8637;}
	.st19{fill:#312F32;stroke:#1A171B;stroke-width:0.5;stroke-miterlimit:3.8637;}
	.st20{fill-rule:evenodd;clip-rule:evenodd;fill:#E8E8E8;stroke:#1A171B;stroke-width:0.5;stroke-miterlimit:3.8637;}
	.st21{fill-rule:evenodd;clip-rule:evenodd;fill:#E4E3E4;stroke:#1A171B;stroke-width:0.5;stroke-miterlimit:3.8637;}
	.st22{fill-rule:evenodd;clip-rule:evenodd;fill:#3C3A3E;stroke:#1A171B;stroke-width:0.5;stroke-miterlimit:3.8637;}
	.st23{fill-rule:evenodd;clip-rule:evenodd;fill:#484649;stroke:#1A171B;stroke-width:0.5;stroke-miterlimit:3.8637;}
	.st24{fill-rule:evenodd;clip-rule:evenodd;fill:#312F32;stroke:#1A171B;stroke-width:0.5;stroke-miterlimit:3.8637;}
	.st25{clip-path:url(#SVGID_28_);}
	.st26{clip-path:url(#SVGID_29_);}
	
		.st27{clip-path:url(#SVGID_30_);fill-rule:evenodd;clip-rule:evenodd;fill:#D1D1D1;stroke:#1A171B;stroke-width:0.5;stroke-miterlimit:3.8637;}
	.st28{clip-path:url(#SVGID_34_);}
	.st29{clip-path:url(#SVGID_35_);}
	
		.st30{clip-path:url(#SVGID_36_);fill-rule:evenodd;clip-rule:evenodd;fill:#D1D1D1;stroke:#1A171B;stroke-width:0.5;stroke-miterlimit:3.8637;}
	.st31{clip-path:url(#SVGID_40_);}
	.st32{clip-path:url(#SVGID_41_);}
	
		.st33{clip-path:url(#SVGID_42_);fill-rule:evenodd;clip-rule:evenodd;fill:#D1D1D1;stroke:#1A171B;stroke-width:0.5;stroke-miterlimit:3.8637;}
	.st34{clip-path:url(#SVGID_46_);}
	.st35{clip-path:url(#SVGID_47_);}
	
		.st36{clip-path:url(#SVGID_48_);fill-rule:evenodd;clip-rule:evenodd;fill:#D1D1D1;stroke:#1A171B;stroke-width:0.5;stroke-miterlimit:3.8637;}
	.st37{fill-rule:evenodd;clip-rule:evenodd;fill:#FFFFFF;}
	.st38{fill-rule:evenodd;clip-rule:evenodd;fill:#003E77;}
	.st39{fill:none;stroke:#003E77;stroke-width:0.25;stroke-miterlimit:3.8637;}
	.st40{fill-rule:evenodd;clip-rule:evenodd;fill:#FFD616;}
</style>
<g>
	<rect x="0.3" y="0.3" class="st0" width="100.6" height="252.3"></rect>
	<g>
		<rect x="22" y="212.9" class="st1" width="57.5" height="35.4"></rect>
		<rect x="22" y="225.6" class="st2" width="57.5" height="17"></rect>
		<g>
			<defs>
				<path id="SVGID_1_" d="M67.1,233c0-3.1,2.5-5.7,5.7-5.7s5.7,2.5,5.7,5.7c0,3.1-2.5,5.7-5.7,5.7S67.1,236.2,67.1,233z"></path>
			</defs>
			<defs>
				<path id="SVGID_2_" d="M67.1,233c0-3.1,2.5-5.7,5.7-5.7s5.7,2.5,5.7,5.7c0,3.1-2.5,5.7-5.7,5.7S67.1,236.2,67.1,233z"></path>
			</defs>
			<defs>
				<path id="SVGID_3_" d="M67.1,233c0-3.1,2.5-5.7,5.7-5.7s5.7,2.5,5.7,5.7c0,3.1-2.5,5.7-5.7,5.7S67.1,236.2,67.1,233z"></path>
			</defs>
			<use xlink:href="#SVGID_1_" style="overflow:visible;fill-rule:evenodd;clip-rule:evenodd;fill:#FFFFFF;"></use>
			<clipPath id="SVGID_4_">
				<use xlink:href="#SVGID_1_" style="overflow:visible;"></use>
			</clipPath>
			<clipPath id="SVGID_5_" class="st3">
				<use xlink:href="#SVGID_2_" style="overflow:visible;"></use>
			</clipPath>
			<clipPath id="SVGID_6_" class="st4">
				<use xlink:href="#SVGID_3_" style="overflow:visible;"></use>
			</clipPath>
			
				<rect x="71.7" y="226.8" transform="matrix(0.7071 -0.7071 0.7071 0.7071 -143.4575 119.7294)" class="st5" width="2.3" height="12.4"></rect>
			
				<use xlink:href="#SVGID_3_" style="overflow:visible;fill-rule:evenodd;clip-rule:evenodd;fill:none;stroke:#1A171B;stroke-width:0.5;stroke-miterlimit:3.8637;"></use>
		</g>
		<g>
			<defs>
				<path id="SVGID_7_" d="M52.6,233c0-3.1,2.5-5.7,5.7-5.7s5.7,2.5,5.7,5.7c0,3.1-2.5,5.7-5.7,5.7S52.6,236.2,52.6,233z"></path>
			</defs>
			<defs>
				<path id="SVGID_8_" d="M52.6,233c0-3.1,2.5-5.7,5.7-5.7s5.7,2.5,5.7,5.7c0,3.1-2.5,5.7-5.7,5.7S52.6,236.2,52.6,233z"></path>
			</defs>
			<defs>
				<path id="SVGID_9_" d="M52.6,233c0-3.1,2.5-5.7,5.7-5.7s5.7,2.5,5.7,5.7c0,3.1-2.5,5.7-5.7,5.7S52.6,236.2,52.6,233z"></path>
			</defs>
			<use xlink:href="#SVGID_7_" style="overflow:visible;fill-rule:evenodd;clip-rule:evenodd;fill:#FFFFFF;"></use>
			<clipPath id="SVGID_10_">
				<use xlink:href="#SVGID_7_" style="overflow:visible;"></use>
			</clipPath>
			<clipPath id="SVGID_11_" class="st6">
				<use xlink:href="#SVGID_8_" style="overflow:visible;"></use>
			</clipPath>
			<clipPath id="SVGID_12_" class="st7">
				<use xlink:href="#SVGID_9_" style="overflow:visible;"></use>
			</clipPath>
			
				<rect x="57.1" y="226.8" transform="matrix(0.7071 -0.7071 0.7071 0.7071 -147.7304 109.4244)" class="st8" width="2.3" height="12.4"></rect>
			
				<use xlink:href="#SVGID_9_" style="overflow:visible;fill-rule:evenodd;clip-rule:evenodd;fill:none;stroke:#1A171B;stroke-width:0.5;stroke-miterlimit:3.8637;"></use>
		</g>
		<g>
			<defs>
				<path id="SVGID_13_" d="M38,233c0-3.1,2.5-5.7,5.7-5.7s5.7,2.5,5.7,5.7c0,3.1-2.5,5.7-5.7,5.7S38,236.2,38,233z"></path>
			</defs>
			<defs>
				<path id="SVGID_14_" d="M38,233c0-3.1,2.5-5.7,5.7-5.7s5.7,2.5,5.7,5.7c0,3.1-2.5,5.7-5.7,5.7S38,236.2,38,233z"></path>
			</defs>
			<defs>
				<path id="SVGID_15_" d="M38,233c0-3.1,2.5-5.7,5.7-5.7s5.7,2.5,5.7,5.7c0,3.1-2.5,5.7-5.7,5.7S38,236.2,38,233z"></path>
			</defs>
			<use xlink:href="#SVGID_13_" style="overflow:visible;fill-rule:evenodd;clip-rule:evenodd;fill:#FFFFFF;"></use>
			<clipPath id="SVGID_16_">
				<use xlink:href="#SVGID_13_" style="overflow:visible;"></use>
			</clipPath>
			<clipPath id="SVGID_17_" class="st9">
				<use xlink:href="#SVGID_14_" style="overflow:visible;"></use>
			</clipPath>
			<clipPath id="SVGID_18_" class="st10">
				<use xlink:href="#SVGID_15_" style="overflow:visible;"></use>
			</clipPath>
			
				<rect x="42.5" y="226.8" transform="matrix(0.7071 -0.7071 0.7071 0.7071 -151.9977 99.1135)" class="st11" width="2.3" height="12.4"></rect>
			
				<use xlink:href="#SVGID_15_" style="overflow:visible;fill-rule:evenodd;clip-rule:evenodd;fill:none;stroke:#1A171B;stroke-width:0.5;stroke-miterlimit:3.8637;"></use>
		</g>
		<g>
			<defs>
				<path id="SVGID_19_" d="M23.4,233c0-3.1,2.5-5.7,5.7-5.7s5.7,2.5,5.7,5.7c0,3.1-2.5,5.7-5.7,5.7S23.4,236.2,23.4,233z"></path>
			</defs>
			<defs>
				<path id="SVGID_20_" d="M23.4,233c0-3.1,2.5-5.7,5.7-5.7s5.7,2.5,5.7,5.7c0,3.1-2.5,5.7-5.7,5.7S23.4,236.2,23.4,233z"></path>
			</defs>
			<defs>
				<path id="SVGID_21_" d="M23.4,233c0-3.1,2.5-5.7,5.7-5.7s5.7,2.5,5.7,5.7c0,3.1-2.5,5.7-5.7,5.7S23.4,236.2,23.4,233z"></path>
			</defs>
			<use xlink:href="#SVGID_19_" style="overflow:visible;fill-rule:evenodd;clip-rule:evenodd;fill:#FFFFFF;"></use>
			<clipPath id="SVGID_22_">
				<use xlink:href="#SVGID_19_" style="overflow:visible;"></use>
			</clipPath>
			<clipPath id="SVGID_23_" class="st12">
				<use xlink:href="#SVGID_20_" style="overflow:visible;"></use>
			</clipPath>
			<clipPath id="SVGID_24_" class="st13">
				<use xlink:href="#SVGID_21_" style="overflow:visible;"></use>
			</clipPath>
			
				<rect x="27.9" y="226.8" transform="matrix(0.7071 -0.7071 0.7071 0.7071 -156.2653 88.8028)" class="st14" width="2.3" height="12.4"></rect>
			
				<use xlink:href="#SVGID_21_" style="overflow:visible;fill-rule:evenodd;clip-rule:evenodd;fill:none;stroke:#1A171B;stroke-width:0.5;stroke-miterlimit:3.8637;"></use>
		</g>
		<rect x="26.1" y="215.7" class="st15" width="5.7" height="5.7"></rect>
		<rect x="40.8" y="215.7" class="st15" width="5.7" height="5.7"></rect>
		<rect x="55.4" y="215.7" class="st15" width="5.7" height="5.7"></rect>
		<rect x="70" y="215.7" class="st15" width="5.7" height="5.7"></rect>
		<rect x="26.1" y="212.9" class="st16" width="5.7" height="2.8"></rect>
		<rect x="40.8" y="212.9" class="st16" width="5.7" height="2.8"></rect>
		<rect x="55.4" y="212.9" class="st16" width="5.7" height="2.8"></rect>
		<rect x="70" y="212.9" class="st16" width="5.7" height="2.8"></rect>
		<rect x="22" y="245.5" class="st1" width="57.5" height="2.8"></rect>
	</g>
	<rect x="0.3" y="0.3" class="st17" width="100.6" height="4.3"></rect>
	<polygon class="st18" points="100.9,0.3 100.9,40 96.7,40 96.7,4.5 92.4,4.5 92.4,0.3  "></polygon>
	<polygon class="st18" points="0.3,0.3 0.3,40 4.5,40 4.5,4.5 8.8,4.5 8.8,0.3  "></polygon>
	<g>
		<polygon class="st19" points="35,252.6 40.7,252.6 40.7,256.8 60.5,256.8 60.5,252.6 66.2,252.6 66.2,261.1 35,261.1   "></polygon>
		<rect x="66.2" y="252.6" class="st20" width="2.1" height="4.3"></rect>
		<rect x="32.9" y="252.6" class="st20" width="2.1" height="4.3"></rect>
	</g>
	<rect x="0.3" y="248.3" class="st17" width="100.6" height="4.3"></rect>
	<polygon class="st18" points="0.3,252.6 0.3,212.9 4.5,212.9 4.5,248.3 8.8,248.3 8.8,252.6  "></polygon>
	<polygon class="st18" points="100.9,252.6 100.9,212.9 96.7,212.9 96.7,248.3 92.4,248.3 92.4,252.6  "></polygon>
	<rect x="0.3" y="40" class="st21" width="100.6" height="172.9"></rect>
	<rect x="1" y="62.6" class="st20" width="99.2" height="127.6"></rect>
	<rect x="5.2" y="66.2" class="st15" width="90.7" height="120.5"></rect>
	<rect x="7.4" y="68.3" class="st15" width="86.5" height="116.2"></rect>
	<g>
		<rect x="22" y="4.5" class="st22" width="57.8" height="35.4"></rect>
		<rect x="70" y="31.5" class="st23" width="5.7" height="5.7"></rect>
		<rect x="55.3" y="31.5" class="st23" width="5.7" height="5.7"></rect>
		<rect x="40.7" y="31.5" class="st23" width="5.7" height="5.7"></rect>
		<rect x="26.1" y="31.5" class="st23" width="5.7" height="5.7"></rect>
		<rect x="70" y="37.1" class="st24" width="5.7" height="2.8"></rect>
		<rect x="55.3" y="37.1" class="st24" width="5.7" height="2.8"></rect>
		<rect x="40.7" y="37.1" class="st24" width="5.7" height="2.8"></rect>
		<rect x="26.1" y="37.1" class="st24" width="5.7" height="2.8"></rect>
		<rect x="22" y="4.5" class="st24" width="57.8" height="2.8"></rect>
		<rect x="22" y="10.2" class="st23" width="57.8" height="17"></rect>
		<g>
			<defs>
				<path id="SVGID_25_" d="M23.3,19.8c0-3.1,2.5-5.7,5.7-5.7s5.7,2.5,5.7,5.7c0,3.1-2.5,5.7-5.7,5.7S23.3,22.9,23.3,19.8z"></path>
			</defs>
			<defs>
				<path id="SVGID_26_" d="M23.3,19.8c0-3.1,2.5-5.7,5.7-5.7s5.7,2.5,5.7,5.7c0,3.1-2.5,5.7-5.7,5.7S23.3,22.9,23.3,19.8z"></path>
			</defs>
			<defs>
				<path id="SVGID_27_" d="M23.3,19.8c0-3.1,2.5-5.7,5.7-5.7s5.7,2.5,5.7,5.7c0,3.1-2.5,5.7-5.7,5.7S23.3,22.9,23.3,19.8z"></path>
			</defs>
			<use xlink:href="#SVGID_25_" style="overflow:visible;fill-rule:evenodd;clip-rule:evenodd;fill:#FFFFFF;"></use>
			<clipPath id="SVGID_28_">
				<use xlink:href="#SVGID_25_" style="overflow:visible;"></use>
			</clipPath>
			<clipPath id="SVGID_29_" class="st25">
				<use xlink:href="#SVGID_26_" style="overflow:visible;"></use>
			</clipPath>
			<clipPath id="SVGID_30_" class="st26">
				<use xlink:href="#SVGID_27_" style="overflow:visible;"></use>
			</clipPath>
			
				<rect x="27.8" y="13.6" transform="matrix(0.7071 -0.7071 0.7071 0.7071 -5.5298 26.2847)" class="st27" width="2.3" height="12.4"></rect>
			
				<use xlink:href="#SVGID_27_" style="overflow:visible;fill-rule:evenodd;clip-rule:evenodd;fill:none;stroke:#1A171B;stroke-width:0.5;stroke-miterlimit:3.8637;"></use>
		</g>
		<g>
			<defs>
				<path id="SVGID_31_" d="M37.9,19.8c0-3.1,2.5-5.7,5.7-5.7s5.7,2.5,5.7,5.7c0,3.1-2.5,5.7-5.7,5.7S37.9,22.9,37.9,19.8z"></path>
			</defs>
			<defs>
				<path id="SVGID_32_" d="M37.9,19.8c0-3.1,2.5-5.7,5.7-5.7s5.7,2.5,5.7,5.7c0,3.1-2.5,5.7-5.7,5.7S37.9,22.9,37.9,19.8z"></path>
			</defs>
			<defs>
				<path id="SVGID_33_" d="M37.9,19.8c0-3.1,2.5-5.7,5.7-5.7s5.7,2.5,5.7,5.7c0,3.1-2.5,5.7-5.7,5.7S37.9,22.9,37.9,19.8z"></path>
			</defs>
			<use xlink:href="#SVGID_31_" style="overflow:visible;fill-rule:evenodd;clip-rule:evenodd;fill:#FFFFFF;"></use>
			<clipPath id="SVGID_34_">
				<use xlink:href="#SVGID_31_" style="overflow:visible;"></use>
			</clipPath>
			<clipPath id="SVGID_35_" class="st28">
				<use xlink:href="#SVGID_32_" style="overflow:visible;"></use>
			</clipPath>
			<clipPath id="SVGID_36_" class="st29">
				<use xlink:href="#SVGID_33_" style="overflow:visible;"></use>
			</clipPath>
			
				<rect x="42.4" y="13.6" transform="matrix(0.7071 -0.7071 0.7071 0.7071 -1.2565 36.5897)" class="st30" width="2.3" height="12.4"></rect>
			
				<use xlink:href="#SVGID_33_" style="overflow:visible;fill-rule:evenodd;clip-rule:evenodd;fill:none;stroke:#1A171B;stroke-width:0.5;stroke-miterlimit:3.8637;"></use>
		</g>
		<g>
			<defs>
				<path id="SVGID_37_" d="M52.4,19.8c0-3.1,2.5-5.7,5.7-5.7s5.7,2.5,5.7,5.7c0,3.1-2.5,5.7-5.7,5.7S52.4,22.9,52.4,19.8z"></path>
			</defs>
			<defs>
				<path id="SVGID_38_" d="M52.4,19.8c0-3.1,2.5-5.7,5.7-5.7s5.7,2.5,5.7,5.7c0,3.1-2.5,5.7-5.7,5.7S52.4,22.9,52.4,19.8z"></path>
			</defs>
			<defs>
				<path id="SVGID_39_" d="M52.4,19.8c0-3.1,2.5-5.7,5.7-5.7s5.7,2.5,5.7,5.7c0,3.1-2.5,5.7-5.7,5.7S52.4,22.9,52.4,19.8z"></path>
			</defs>
			<use xlink:href="#SVGID_37_" style="overflow:visible;fill-rule:evenodd;clip-rule:evenodd;fill:#FFFFFF;"></use>
			<clipPath id="SVGID_40_">
				<use xlink:href="#SVGID_37_" style="overflow:visible;"></use>
			</clipPath>
			<clipPath id="SVGID_41_" class="st31">
				<use xlink:href="#SVGID_38_" style="overflow:visible;"></use>
			</clipPath>
			<clipPath id="SVGID_42_" class="st32">
				<use xlink:href="#SVGID_39_" style="overflow:visible;"></use>
			</clipPath>
			
				<rect x="57" y="13.6" transform="matrix(0.7071 -0.7071 0.7071 0.7071 3.0104 46.9006)" class="st33" width="2.3" height="12.4"></rect>
			
				<use xlink:href="#SVGID_39_" style="overflow:visible;fill-rule:evenodd;clip-rule:evenodd;fill:none;stroke:#1A171B;stroke-width:0.5;stroke-miterlimit:3.8637;"></use>
		</g>
		<g>
			<defs>
				<path id="SVGID_43_" d="M67,19.8c0-3.1,2.5-5.7,5.7-5.7s5.7,2.5,5.7,5.7c0,3.1-2.5,5.7-5.7,5.7S67,22.9,67,19.8z"></path>
			</defs>
			<defs>
				<path id="SVGID_44_" d="M67,19.8c0-3.1,2.5-5.7,5.7-5.7s5.7,2.5,5.7,5.7c0,3.1-2.5,5.7-5.7,5.7S67,22.9,67,19.8z"></path>
			</defs>
			<defs>
				<path id="SVGID_45_" d="M67,19.8c0-3.1,2.5-5.7,5.7-5.7s5.7,2.5,5.7,5.7c0,3.1-2.5,5.7-5.7,5.7S67,22.9,67,19.8z"></path>
			</defs>
			<use xlink:href="#SVGID_43_" style="overflow:visible;fill-rule:evenodd;clip-rule:evenodd;fill:#FFFFFF;"></use>
			<clipPath id="SVGID_46_">
				<use xlink:href="#SVGID_43_" style="overflow:visible;"></use>
			</clipPath>
			<clipPath id="SVGID_47_" class="st34">
				<use xlink:href="#SVGID_44_" style="overflow:visible;"></use>
			</clipPath>
			<clipPath id="SVGID_48_" class="st35">
				<use xlink:href="#SVGID_45_" style="overflow:visible;"></use>
			</clipPath>
			
				<rect x="71.6" y="13.6" transform="matrix(0.7071 -0.7072 0.7072 0.7071 7.2809 57.2164)" class="st36" width="2.3" height="12.4"></rect>
			
				<use xlink:href="#SVGID_45_" style="overflow:visible;fill-rule:evenodd;clip-rule:evenodd;fill:none;stroke:#1A171B;stroke-width:0.5;stroke-miterlimit:3.8637;"></use>
		</g>
	</g>
	<g>
		<rect x="9.5" y="70.5" class="st37" width="82.2" height="112"></rect>
		<rect x="9.5" y="70.5" class="st37" width="82.2" height="112"></rect>
		<rect x="9.5" y="98.2" class="st38" width="82.2" height="56.7"></rect>
		<g>
			<polygon class="st37" points="18,104.5 16.3,106.4 16.3,105.7 12.7,105.7 12.7,103.3 16.3,103.3 16.3,102.6    "></polygon>
			<polygon class="st37" points="20.7,101.9 20.7,107.3 21.5,107.3 21.5,102.7 22.7,107.3 23.4,107.3 24.6,102.7 24.6,107.3      25.5,107.3 25.5,101.9 24.2,101.9 23.1,105.8 22,101.9    "></polygon>
			<polygon class="st37" points="26.5,101.9 26.5,107.3 29.6,107.3 29.6,106.6 27.4,106.6 27.4,104.9 29.1,104.9 29.1,104.2      27.4,104.2 27.4,102.7 29.5,102.7 29.5,101.9    "></polygon>
			<path class="st37" d="M32.8,105.5c-0.1,0.8-0.4,1.2-0.9,1.2c-0.8,0-1-1-1-2c0-0.8,0.1-2.1,1-2.1c0.7,0,0.8,0.8,0.9,1.2l0.8-0.1     c-0.1-0.5-0.2-1.8-1.7-1.8c-1.8,0-1.9,1.9-1.9,2.8c0,0.9,0.2,2.7,1.9,2.7c1.5,0,1.7-1.3,1.7-1.8L32.8,105.5z"></path>
			<path class="st37" d="M34.4,103.3v3.9h0.8v-3.9H34.4z M35.2,102.8v-0.9h-0.9v0.9H35.2z"></path>
			<path class="st37" d="M36.1,107.3h0.8v-2.2c0-0.4,0-1.2,0.6-1.2c0.5,0,0.5,0.4,0.5,0.9v2.5h0.8v-2.5c0-0.4,0-0.8-0.1-1     c-0.2-0.4-0.6-0.5-0.9-0.5c-0.7,0-0.9,0.5-1,0.7v-0.6h-0.8V107.3z"></path>
			<path class="st37" d="M42.9,102.7c-0.1,0-0.2,0-0.3,0c-0.6,0-0.7,0.4-0.7,0.7c-0.2-0.1-0.4-0.2-0.8-0.2c-0.8,0-1.4,0.5-1.4,1.3     c0,0.6,0.3,0.9,0.5,1c-0.2,0.1-0.6,0.3-0.6,0.8c0,0.4,0.3,0.6,0.4,0.7c-0.2,0.1-0.6,0.2-0.6,0.8c0,0.9,1,1,1.6,1     c0.7,0,1.8-0.2,1.8-1.2c0-1-0.8-1-1.5-1.1c-0.8,0-1,0-1-0.3c0-0.2,0.2-0.3,0.3-0.4c0.1,0,0.3,0.1,0.5,0.1c0.9,0,1.4-0.6,1.4-1.3     c0-0.3-0.1-0.6-0.3-0.8c0.1-0.3,0.2-0.4,0.4-0.4c0.1,0,0.1,0,0.2,0L42.9,102.7z M41.2,103.8c0.5,0,0.5,0.6,0.5,0.8     c0,0.1,0,0.8-0.6,0.8s-0.6-0.6-0.6-0.8C40.6,104.2,40.7,103.8,41.2,103.8z M40.6,107.1c0.2,0,0.9,0,1.1,0.1     c0.2,0,0.5,0.1,0.5,0.5c0,0.5-0.6,0.5-0.9,0.5c-0.6,0-1-0.1-1-0.6C40.3,107.3,40.5,107.2,40.6,107.1z"></path>
			<rect x="43.2" y="105" class="st37" width="1.7" height="0.7"></rect>
			<path class="st37" d="M48.4,105.5c-0.1,0.8-0.4,1.2-0.9,1.2c-0.8,0-1-1-1-2c0-0.8,0.1-2.1,1-2.1c0.7,0,0.8,0.8,0.9,1.2l0.8-0.1     c-0.1-0.5-0.2-1.8-1.7-1.8c-1.8,0-1.9,1.9-1.9,2.8c0,0.9,0.2,2.7,1.9,2.7c1.5,0,1.7-1.3,1.7-1.8L48.4,105.5z"></path>
		</g>
		<g>
			<polygon class="st38" points="30.8,86.9 30.8,89.5 30,89.5 30,88.8 27.2,88.8 27.2,89.5 26.4,89.5 26.4,86.9 27.2,86.9      27.2,87.6 30,87.6 30,86.9    "></polygon>
			<polygon class="st38" points="30.8,82 30.8,83.1 27.8,85 30.8,85 30.8,86 26.4,86 26.4,84.7 28.9,83.1 26.4,83.1 26.4,82    "></polygon>
			<polygon class="st38" points="27.2,77.5 27.2,78.9 30.8,78.9 30.8,80 27.2,80 27.2,81.4 26.4,81.4 26.4,77.5    "></polygon>
			<path class="st38" d="M30.8,73.7v2.9H30v-0.9h-2.3v0.9H27c0-0.1,0-0.3,0-0.4c0-0.1,0-0.2-0.1-0.3c0-0.1-0.1-0.2-0.2-0.2     s-0.2-0.1-0.3-0.1v-1H30v-0.9H30.8z"></path>
		</g>
		<g>
			<polygon class="st38" points="45.3,86.9 45.3,89.5 44.6,89.5 44.6,88.8 41.7,88.8 41.7,89.5 41,89.5 41,86.9 41.7,86.9      41.7,87.6 44.6,87.6 44.6,86.9    "></polygon>
			<polygon class="st38" points="45.3,82 45.3,83.1 42.3,85 45.3,85 45.3,86 41,86 41,84.7 43.5,83.1 41,83.1 41,82    "></polygon>
			<polygon class="st38" points="41.8,77.5 41.8,78.9 45.3,78.9 45.3,80 41.8,80 41.8,81.4 41,81.4 41,77.5    "></polygon>
			<path class="st38" d="M45.3,73.4v3.4h-0.7c-0.2-0.3-0.4-0.5-0.6-0.8c-0.2-0.3-0.4-0.5-0.6-0.6c-0.2-0.2-0.4-0.4-0.6-0.5     s-0.3-0.1-0.5-0.1c-0.2,0-0.4,0.1-0.5,0.2c-0.1,0.1-0.2,0.3-0.2,0.6c0,0.2,0,0.4,0.1,0.6c0.1,0.2,0.2,0.4,0.3,0.6v0.1h-1     c-0.1-0.1-0.1-0.3-0.2-0.6c-0.1-0.3-0.1-0.5-0.1-0.8c0-0.5,0.1-1,0.3-1.3c0.2-0.3,0.6-0.4,1-0.4c0.3,0,0.5,0.1,0.8,0.2     c0.2,0.1,0.5,0.3,0.8,0.6c0.2,0.2,0.3,0.4,0.5,0.5c0.1,0.2,0.2,0.3,0.3,0.4v-2H45.3z"></path>
		</g>
		<g>
			<polygon class="st38" points="59.9,86.9 59.9,89.5 59.1,89.5 59.1,88.8 56.3,88.8 56.3,89.5 55.5,89.5 55.5,86.9 56.3,86.9      56.3,87.6 59.1,87.6 59.1,86.9    "></polygon>
			<polygon class="st38" points="59.9,82 59.9,83.1 56.9,85 59.9,85 59.9,86 55.5,86 55.5,84.7 58,83.1 55.5,83.1 55.5,82    "></polygon>
			<polygon class="st38" points="56.4,77.5 56.4,78.9 59.9,78.9 59.9,80 56.4,80 56.4,81.4 55.5,81.4 55.5,77.5    "></polygon>
			<path class="st38" d="M57.8,73.9c0.1-0.1,0.2-0.2,0.3-0.2s0.3-0.1,0.4-0.1c0.2,0,0.4,0,0.6,0.1c0.2,0.1,0.3,0.2,0.5,0.4     c0.1,0.2,0.2,0.4,0.3,0.6c0.1,0.2,0.1,0.5,0.1,0.8c0,0.4,0,0.7-0.1,0.9c-0.1,0.3-0.1,0.5-0.2,0.6h-1v-0.1     c0.1-0.2,0.2-0.4,0.3-0.6c0.1-0.2,0.1-0.4,0.1-0.6c0-0.1,0-0.2,0-0.4c0-0.1-0.1-0.2-0.1-0.3c0-0.1-0.1-0.1-0.2-0.2     c-0.1,0-0.2-0.1-0.3-0.1c-0.1,0-0.2,0-0.3,0.1c-0.1,0.1-0.1,0.1-0.1,0.2c0,0.1,0,0.2,0,0.3c0,0.1,0,0.3,0,0.4V76h-0.8v-0.2     c0-0.2,0-0.3,0-0.4s0-0.2-0.1-0.3c0-0.1-0.1-0.2-0.1-0.2c-0.1,0-0.2-0.1-0.3-0.1c-0.1,0-0.2,0-0.2,0.1c-0.1,0-0.1,0.1-0.1,0.2     c0,0.1-0.1,0.2-0.1,0.3s0,0.2,0,0.3c0,0.2,0,0.4,0.1,0.6c0.1,0.2,0.2,0.4,0.3,0.6v0.1h-0.9c-0.1-0.2-0.1-0.4-0.2-0.7     c-0.1-0.3-0.1-0.6-0.1-0.8c0-0.3,0-0.5,0.1-0.7c0-0.2,0.1-0.4,0.2-0.5c0.1-0.2,0.2-0.3,0.3-0.4s0.3-0.1,0.5-0.1     c0.2,0,0.5,0.1,0.7,0.2c0.2,0.2,0.3,0.3,0.4,0.6h0c0-0.1,0-0.2,0.1-0.3S57.8,74,57.8,73.9z"></path>
		</g>
		<g>
			<path class="st38" d="M71.4,83.6c-0.1,0-0.2,0-0.3,0.1c-0.1,0-0.1,0.1-0.2,0.2c0,0.1,0,0.2-0.1,0.3c0,0.1,0,0.2,0,0.4v0.4h1.2     v-0.3c0-0.2,0-0.3,0-0.5s-0.1-0.2-0.1-0.3c-0.1-0.1-0.1-0.1-0.2-0.2C71.6,83.6,71.5,83.6,71.4,83.6z M74.4,81.8v1.4l-1.6,1.2v0.5     h1.6V86h-4.4v-1.9c0-0.3,0-0.5,0-0.7s0.1-0.4,0.2-0.5c0.1-0.2,0.2-0.3,0.4-0.4c0.2-0.1,0.3-0.1,0.6-0.1c0.3,0,0.6,0.1,0.8,0.2     c0.2,0.1,0.4,0.4,0.5,0.6L74.4,81.8z"></path>
			<path class="st38" d="M73,78.2v2.4c0.3,0,0.5-0.1,0.6-0.3c0.1-0.2,0.2-0.4,0.2-0.8c0-0.2,0-0.4-0.1-0.6c-0.1-0.2-0.2-0.4-0.3-0.5     v-0.1h0.8c0.1,0.2,0.2,0.5,0.2,0.7c0,0.2,0.1,0.4,0.1,0.7c0,0.7-0.1,1.2-0.4,1.5c-0.3,0.4-0.7,0.5-1.3,0.5c-0.5,0-1-0.2-1.3-0.5     c-0.3-0.3-0.5-0.8-0.5-1.4c0-0.5,0.1-0.9,0.4-1.2c0.3-0.3,0.7-0.4,1.2-0.4H73z M72.4,79.2c-0.2,0-0.4,0.1-0.5,0.2     c-0.1,0.1-0.2,0.3-0.2,0.5c0,0.2,0.1,0.4,0.2,0.5s0.3,0.2,0.5,0.2V79.2z"></path>
			<path class="st38" d="M70.7,75.3L70.7,75.3c0,0.1,0,0.2,0,0.3c0,0.1,0,0.2,0,0.2c0,0.2,0,0.3,0.1,0.4c0.1,0.1,0.2,0.1,0.4,0.1h0     v-0.8h0.7v0.8h2.6v1.1h-2.6v0.5h-0.7v-0.5h-0.1c-0.4,0-0.7-0.1-0.9-0.3c-0.2-0.2-0.3-0.5-0.3-1c0-0.2,0-0.3,0-0.4     c0-0.1,0-0.2,0-0.3H70.7z"></path>
			<rect x="73.3" y="73.7" class="st38" width="1.2" height="1.1"></rect>
		</g>
		<g>
			<g>
				<g>
					<polygon class="st38" points="29.2,175.8 29.2,177.1 30.8,177.1 30.8,177.7 29.2,177.7 29.2,179 28.4,179 28.4,177.7        26.9,177.7 26.9,177.1 28.4,177.1 28.4,175.8      "></polygon>
					<path class="st38" d="M30.8,172.3v2.3H30v-0.7h-2.3v0.7H27c0-0.1,0-0.2,0-0.3c0-0.1,0-0.2-0.1-0.3c0-0.1-0.1-0.1-0.2-0.2       s-0.2-0.1-0.3-0.1v-0.8H30v-0.7H30.8z"></path>
					<path class="st38" d="M30.8,168.7v2.7H30c-0.2-0.2-0.4-0.4-0.6-0.6c-0.2-0.2-0.4-0.4-0.6-0.5c-0.2-0.2-0.4-0.3-0.6-0.4       s-0.3-0.1-0.5-0.1c-0.2,0-0.4,0.1-0.5,0.2c-0.1,0.1-0.2,0.2-0.2,0.4c0,0.1,0,0.3,0.1,0.5c0.1,0.2,0.2,0.3,0.3,0.4v0.1h-1       c-0.1-0.1-0.1-0.3-0.2-0.5c-0.1-0.2-0.1-0.4-0.1-0.7c0-0.4,0.1-0.8,0.3-1c0.2-0.2,0.6-0.3,1-0.3c0.3,0,0.5,0.1,0.8,0.2       c0.2,0.1,0.5,0.3,0.8,0.5c0.2,0.1,0.3,0.3,0.5,0.4c0.1,0.1,0.2,0.2,0.3,0.3v-1.6H30.8z"></path>
					<polygon class="st38" points="26.4,164.9 30.8,166.1 30.8,167.1 26.4,168.4 26.4,167.5 29.5,166.6 26.4,165.8      "></polygon>
				</g>
				<path class="st38" d="M45.3,174.9v1.2l-0.9,0.3v1.6l0.9,0.3v1.1l-4.4-1.6v-1.3L45.3,174.9z M43.6,176.6l-1.6,0.5l1.6,0.5V176.6z      "></path>
				<path class="st38" d="M58.6,175.2c0.2,0,0.4,0,0.6,0.1c0.2,0.1,0.3,0.2,0.4,0.3c0.1,0.2,0.2,0.4,0.3,0.6      c0.1,0.2,0.1,0.5,0.1,0.8v1.9h-4.4v-1.7c0-0.4,0-0.6,0-0.8c0-0.2,0.1-0.3,0.2-0.5c0.1-0.2,0.2-0.3,0.3-0.4      c0.1-0.1,0.3-0.1,0.5-0.1c0.2,0,0.4,0.1,0.6,0.2c0.2,0.1,0.3,0.3,0.4,0.5h0c0.1-0.3,0.2-0.5,0.4-0.7      C58,175.3,58.3,175.2,58.6,175.2z M56.8,176.6c-0.1,0-0.1,0-0.2,0.1c-0.1,0-0.1,0.1-0.2,0.2c0,0.1,0,0.2,0,0.3      c0,0.1,0,0.3,0,0.5v0.1h0.9v-0.2c0-0.2,0-0.3,0-0.5s0-0.2-0.1-0.3c0-0.1-0.1-0.2-0.2-0.2C56.9,176.6,56.9,176.6,56.8,176.6z       M58.5,176.3c-0.1,0-0.2,0-0.3,0.1c-0.1,0.1-0.1,0.1-0.2,0.3c0,0.1,0,0.2,0,0.4s0,0.3,0,0.5v0.2h1.1v-0.1c0-0.3,0-0.5,0-0.7      s0-0.3-0.1-0.4c0-0.1-0.1-0.2-0.2-0.2C58.7,176.4,58.6,176.3,58.5,176.3z"></path>
				<g>
					<path class="st38" d="M71.4,176.5c-0.1,0-0.2,0-0.3,0.1c-0.1,0-0.1,0.1-0.2,0.2c0,0.1,0,0.2-0.1,0.3c0,0.1,0,0.2,0,0.4v0.4h1.2       v-0.3c0-0.2,0-0.3,0-0.5s-0.1-0.2-0.1-0.3c-0.1-0.1-0.1-0.1-0.2-0.2C71.6,176.5,71.5,176.5,71.4,176.5z M74.4,174.7v1.4       l-1.6,1.2v0.5h1.6v1.1h-4.4V177c0-0.3,0-0.5,0-0.7s0.1-0.4,0.2-0.5c0.1-0.2,0.2-0.3,0.4-0.4c0.2-0.1,0.3-0.1,0.6-0.1       c0.3,0,0.6,0.1,0.8,0.2c0.2,0.1,0.4,0.4,0.5,0.6L74.4,174.7z"></path>
					<path class="st38" d="M73,171v2.4c0.3,0,0.5-0.1,0.6-0.3c0.1-0.2,0.2-0.4,0.2-0.8c0-0.2,0-0.4-0.1-0.6       c-0.1-0.2-0.2-0.4-0.3-0.5v-0.1h0.8c0.1,0.2,0.2,0.5,0.2,0.7c0,0.2,0.1,0.4,0.1,0.7c0,0.7-0.1,1.2-0.4,1.5       c-0.3,0.4-0.7,0.5-1.3,0.5c-0.5,0-1-0.2-1.3-0.5c-0.3-0.3-0.5-0.8-0.5-1.4c0-0.5,0.1-0.9,0.4-1.2c0.3-0.3,0.7-0.4,1.2-0.4H73z        M72.4,172.1c-0.2,0-0.4,0.1-0.5,0.2c-0.1,0.1-0.2,0.3-0.2,0.5c0,0.2,0.1,0.4,0.2,0.5s0.3,0.2,0.5,0.2V172.1z"></path>
					<path class="st38" d="M70.7,168.2L70.7,168.2c0,0.1,0,0.2,0,0.3c0,0.1,0,0.2,0,0.2c0,0.2,0,0.3,0.1,0.4       c0.1,0.1,0.2,0.1,0.4,0.1h0v-0.8h0.7v0.8h2.6v1.1h-2.6v0.5h-0.7v-0.5h-0.1c-0.4,0-0.7-0.1-0.9-0.3c-0.2-0.2-0.3-0.5-0.3-1       c0-0.2,0-0.3,0-0.4c0-0.1,0-0.2,0-0.3H70.7z"></path>
					<rect x="73.3" y="166.6" class="st38" width="1.2" height="1.1"></rect>
				</g>
				<polyline class="st39" points="21.5,182.5 21.5,157.8 79.7,157.8 79.7,182.5     "></polyline>
			</g>
			<path class="st38" d="M40.2,167.6c0.3-0.4-0.1-2.4-1.1-4.1l-3,4.1C36.9,167.8,39.7,168.4,40.2,167.6z M66.3,160.7v0.3     c0,0,0,0,0.1,0c0.1,0,0.2,0,0.2,0s0.1-0.1,0.1-0.1c0-0.1-0.1-0.2-0.2-0.2L66.3,160.7L66.3,160.7z M66.7,161.6l-0.3-0.4h-0.2v0.4     h-0.1v-1h0.3c0.3,0,0.4,0.1,0.4,0.3c0,0.1-0.1,0.2-0.2,0.3l0.3,0.5H66.7z M67.2,161.1c0-0.2-0.1-0.4-0.2-0.5     c-0.1-0.1-0.3-0.2-0.5-0.2c-0.2,0-0.4,0.1-0.5,0.2c-0.1,0.1-0.2,0.3-0.2,0.5c0,0.2,0.1,0.4,0.2,0.5c0.1,0.1,0.3,0.2,0.5,0.2     c0.2,0,0.4-0.1,0.5-0.2C67.1,161.5,67.2,161.3,67.2,161.1z M65.6,161.1c0-0.2,0.1-0.4,0.2-0.6c0.2-0.2,0.4-0.2,0.6-0.2     c0.2,0,0.4,0.1,0.6,0.2c0.2,0.2,0.2,0.4,0.2,0.6s-0.1,0.4-0.2,0.6c-0.2,0.2-0.4,0.2-0.6,0.2c-0.2,0-0.4-0.1-0.6-0.2     S65.6,161.3,65.6,161.1z M64.4,163.2c-0.3,0-0.5,0.1-0.6,0.3c-0.2,0.2-0.2,0.4-0.2,0.7c0,0.3,0.1,0.5,0.2,0.7     c0.2,0.2,0.4,0.3,0.7,0.3c0.3,0,0.5-0.1,0.6-0.3c0.2-0.2,0.2-0.4,0.2-0.8c0-0.3-0.1-0.5-0.2-0.7     C64.8,163.3,64.6,163.2,64.4,163.2z M61.1,167v-2.5c0-0.5-0.1-0.8-0.2-1c-0.1-0.2-0.4-0.3-0.7-0.3c-0.2,0-0.4,0.1-0.5,0.2     c-0.2,0.1-0.3,0.2-0.4,0.4v3.2h-0.8v-4.3H59l0.2,0.6c0.3-0.4,0.7-0.6,1.2-0.6c0.9,0,1.4,0.6,1.4,1.7v2.7H61.1z M56.5,167v-3.6     h-0.6v-0.6h1.3v4.3H56.5z M56.9,161.1c0.1,0,0.2,0,0.3,0.1c0.1,0.1,0.1,0.2,0.1,0.3c0,0.1,0,0.2-0.1,0.3     c-0.1,0.1-0.2,0.1-0.3,0.1c-0.1,0-0.2,0-0.3-0.1c-0.1-0.1-0.1-0.2-0.1-0.3s0-0.2,0.1-0.3S56.8,161.1,56.9,161.1z M52,166.7     l0.3-0.7c0.1,0.1,0.3,0.2,0.6,0.3c0.2,0.1,0.4,0.1,0.6,0.1c0.3,0,0.6-0.1,0.8-0.3s0.3-0.4,0.3-0.7c0-0.2-0.1-0.4-0.2-0.5     c-0.1-0.2-0.4-0.4-0.8-0.6l-0.5-0.2c-0.4-0.2-0.7-0.4-0.8-0.7c-0.2-0.3-0.2-0.6-0.2-0.9c0-0.4,0.2-0.8,0.5-1.1     c0.3-0.3,0.7-0.4,1.2-0.4c0.6,0,1.1,0.1,1.4,0.3l-0.2,0.7c-0.1-0.1-0.3-0.2-0.5-0.2c-0.2-0.1-0.4-0.1-0.6-0.1     c-0.3,0-0.5,0.1-0.6,0.2c-0.2,0.2-0.2,0.4-0.2,0.6c0,0.1,0,0.3,0.1,0.4c0.1,0.1,0.1,0.2,0.2,0.3c0.1,0.1,0.3,0.2,0.6,0.3l0.5,0.2     c0.4,0.2,0.7,0.4,0.8,0.7c0.2,0.3,0.2,0.6,0.2,1c0,0.4-0.2,0.8-0.5,1.1c-0.4,0.3-0.8,0.5-1.4,0.5C52.8,167.1,52.3,166.9,52,166.7     z M46.9,161.1h0.8v4c0,0.4,0.1,0.7,0.3,0.9c0.2,0.2,0.5,0.3,0.9,0.3c0.4,0,0.7-0.1,0.9-0.3c0.2-0.2,0.3-0.5,0.3-0.9v-4H51v4.1     c0,0.6-0.2,1.1-0.6,1.4c-0.4,0.3-0.9,0.5-1.5,0.5c-0.7,0-1.2-0.2-1.5-0.5s-0.5-0.8-0.5-1.4V161.1z M43.1,164v2.2     c0.3,0,0.5,0,0.6,0c0.5,0,0.9-0.1,1.1-0.3c0.2-0.2,0.3-0.5,0.3-0.9c0-0.4-0.1-0.7-0.3-0.8c-0.2-0.2-0.6-0.3-1.1-0.3L43.1,164z      M43.1,161.7v1.7c0.2,0,0.4,0,0.6,0c0.8,0,1.1-0.3,1.1-0.9c0-0.5-0.3-0.8-1-0.8C43.5,161.7,43.3,161.7,43.1,161.7z M43.9,167     h-1.7v-5.9c0.7,0,1.2-0.1,1.5-0.1c0.6,0,1,0.1,1.3,0.4c0.3,0.2,0.5,0.6,0.5,1.1c0,0.3-0.1,0.5-0.3,0.7s-0.4,0.4-0.7,0.4     c0.5,0.1,0.8,0.3,1,0.6c0.2,0.3,0.3,0.6,0.3,1.1c0,0.5-0.2,0.9-0.6,1.2C45,166.8,44.6,167,43.9,167z M63.1,167.6     c0,0,0.9,0.4,1.2,0.4c0.3,0,0.6-0.1,0.8-0.2c0.2-0.1,0.3-0.3,0.3-0.4c0-0.3-0.3-0.5-0.8-0.5c-0.1,0-0.2,0-0.5,0.1     c-0.2,0-0.4,0.1-0.5,0.1c-0.6,0-0.9-0.2-0.9-0.7c0-0.1,0.1-0.3,0.2-0.4c0.1-0.1,0.3-0.2,0.5-0.2c-0.6-0.3-0.9-0.8-0.9-1.5     c0-0.4,0.2-0.8,0.5-1.1c0.3-0.3,0.7-0.4,1.2-0.4c0.4,0,0.8,0.1,1,0.3l0.4-0.5l0.5,0.5l-0.5,0.3c0.2,0.3,0.3,0.6,0.3,1     c0,0.4-0.1,0.8-0.4,1.1s-0.6,0.5-1.1,0.5l-0.6,0.1c-0.1,0-0.2,0-0.3,0.1c-0.1,0-0.2,0.1-0.2,0.2c0,0.1,0.1,0.2,0.4,0.2     c0.1,0,0.3,0,0.5-0.1c0.2,0,0.4-0.1,0.5-0.1c0.4,0,0.7,0.1,1,0.3c0.2,0.2,0.4,0.5,0.4,0.8c0,0.4-0.2,0.7-0.5,1     c-0.4,0.2-0.8,0.4-1.3,0.4c-0.3,0-0.6,0-0.9-0.1c-0.1,0-0.2-0.1-0.3-0.1c-1.8-0.9-3.9-0.5-5.8-0.3c-3.9,0.4-10.7,1.7-14.4,0.9     c-0.9-0.2-1.5-0.4-2.3-0.8c-1.2,1-4.5,0.2-5.7-0.2l1.1-1.4l-1.9-1.5l0.4-0.6l1.9,1.4l1.3-1.8l-1.9-1.5l0.4-0.6l1.9,1.4l1-1.4     c0.6,0.8,2.3,3.8,1.8,5.4c2.9,1.2,6.1,0.9,9.2,0.7c2.4-0.2,4.7-0.6,7.1-0.9C59.3,167.2,61.3,166.8,63.1,167.6z"></path>
		</g>
		<g>
			<rect x="60.5" y="101" class="st37" width="28.3" height="28.3"></rect>
			<path class="st38" d="M72.4,101.9h0.9v0.9h-0.9V101.9z M76.1,101.9h3.7v0.9h-1.8v0.9H77v0.9h0.9v0.9H77v0.9h-0.9v-0.9h-0.9v0.9     h0.9v0.9h-0.9v0.9h-0.9v-2.7h-0.9v0.9h-1.8v-0.9h-0.9v1.8h-0.9v0.9h-0.9v-1.8h0.9v-0.9h-0.9v-0.9h2.7v-0.9h0.9v0.9h1.8v-0.9h0.9     v-0.9h0.9V101.9z M68.7,102.8h0.9v0.9h-0.9V102.8z M70.6,102.8h0.9v0.9h-0.9V102.8z M73.3,102.8h0.9v0.9h-0.9V102.8z M79.7,102.8     h0.9v1.8h-0.9V102.8z M78.8,104.6h0.9v0.9h0.9v3.7h-0.9v0.9h0.9v-0.9h0.9v0.9h0.9v-0.9h0.9v0.9h0.9v1.8h0.9v0.9h0.9v0.9h-1.8     v-0.9h-3.7V112h0.9V111h-0.9v0.9h-0.9V111h-1.8v-0.9h0.9v-1.8h0.9v-1.8h-0.9V104.6z M77,106.5h0.9v0.9H77V106.5z M70.6,107.4h0.9     v0.9h0.9v-0.9h0.9v1.8h1.8v-0.9h0.9v-0.9H77v1.8h-0.9v0.9h-1.8v0.9h1.8v-0.9H77v2.7h-0.9V112h-0.9v2.7h-0.9v-0.9h-0.9v0.9h-1.8     v-0.9h-0.9v0.9h-0.9v-0.9h-0.9v-0.9h5.5V112h-0.9v-1.8h-0.9v-0.9h-1.8v0.9h-3.7v-0.9h2.7v-0.9h0.9V107.4z M77.9,107.4h0.9v0.9     h-0.9V107.4z M61.4,109.2H66v0.9h-0.9v0.9h2.7v0.9h-3.7v0.9h-2.7V111h0.9v0.9h0.9V111h0.9v-0.9h-0.9v0.9h-0.9v-0.9h-0.9V109.2z      M77,109.2h0.9v0.9H77V109.2z M84.3,109.2h0.9v0.9h-0.9V109.2z M86.1,109.2H87v0.9h-0.9V109.2z M70.6,110.1h1.8v0.9h-0.9v0.9     h-0.9V110.1z M87,110.1H88v0.9H87V110.1z M67.8,112h0.9v0.9h-0.9V112z M78.8,112h0.9v0.9h-0.9V112z M86.1,112H87v0.9h-0.9V112z      M64.2,112.9h0.9v1.8h-0.9V112.9z M66,112.9h1.8v0.9h-0.9v0.9h0.9v0.9h-0.9v0.9h0.9v-0.9h1.8v0.9h-0.9v0.9H66v-0.9h-0.9v-0.9H66     V112.9z M77,112.9h0.9v0.9H77V112.9z M61.4,113.8h1.8v0.9h-1.8V113.8z M76.1,113.8H77v0.9h-0.9V113.8z M77.9,113.8h6.4v0.9h-0.9     v0.9h0.9v0.9h-1.8v-0.9h-1.8v-0.9h-1.8v0.9h1.8v0.9h-0.9v1.8h-0.9v-1.8h-0.9v-0.9H77v-0.9h0.9V113.8z M87,113.8H88v0.9H87V113.8z      M73.3,114.7h0.9v0.9h-0.9V114.7z M75.1,114.7h0.9v0.9h-0.9V114.7z M84.3,114.7h1.8v0.9h-1.8V114.7z M61.4,115.6h0.9v0.9h0.9v0.9     h-0.9v3.7h-0.9V115.6z M63.3,115.6h0.9v0.9h-0.9V115.6z M71.5,115.6h0.9v0.9h-0.9V115.6z M74.2,115.6h0.9v0.9h-0.9V115.6z      M86.1,115.6H87v0.9h-0.9V115.6z M70.6,116.5h0.9v0.9h0.9v0.9h-3.7v-0.9h1.8V116.5z M72.4,116.5h1.8v1.8h1.8v1.8h1.8v0.9h0.9v0.9     h0.9v1.8h-0.9v-0.9h-0.9V122H77v1.8h-0.9v-0.9h-0.9v1.8h-2.7v0.9h-0.9v-1.8h0.9v-0.9h0.9v0.9h0.9V122h1.8v-0.9h-1.8v0.9h-0.9     v-0.9h-0.9v0.9h-0.9v0.9h-0.9v-3.7h1.8v0.9h1.8v-0.9h-1.8v-0.9h0.9v-0.9h-0.9V116.5z M75.1,116.5h2.7v0.9H77v0.9h-0.9v-0.9h-0.9     V116.5z M84.3,116.5h1.8v2.7h-0.9v-1.8h-0.9V116.5z M63.3,117.4h1.8v0.9h3.7v0.9h0.9v0.9h-1.8v-0.9h-0.9v0.9h0.9v0.9h-3.7v-0.9     h0.9v-0.9h-0.9v0.9h-0.9V117.4z M81.6,117.4h2.7v0.9h-2.7V117.4z M87,117.4H88v0.9H87V117.4z M77,118.4h1.8v0.9H77V118.4z      M79.7,119.3h0.9v0.9h-0.9V119.3z M82.5,119.3h0.9v0.9h-0.9V119.3z M86.1,119.3H87v0.9H88v1.8h-1.8v0.9h-1.8v-1.8h0.9v-0.9h0.9     V119.3z M78.8,120.2h0.9v0.9h-0.9V120.2z M68.7,121.1h0.9v1.8h-0.9V121.1z M69.7,122.9h0.9v0.9h-0.9V122.9z M86.1,122.9H88v0.9     H87v0.9h-0.9v0.9H87v1.8h-0.9v-0.9h-0.9v0.9h-3.7v-0.9h-0.9v-0.9h3.7v-0.9h0.9v-0.9h0.9V122.9z M68.7,123.8h0.9v1.8h0.9v0.9h-0.9     v1.8h-0.9V123.8z M77,123.8h0.9v0.9H77V123.8z M78.8,124.8h1.8v0.9h-1.8V124.8z M87,124.8H88v0.9H87V124.8z M74.2,125.7H77v1.8     h-0.9v0.9h-3.7v-0.9h-0.9v-0.9h1.8v0.9h0.9V125.7z M77.9,126.6h2.7v0.9h-0.9v0.9h-0.9v-0.9h-0.9V126.6z M77,127.5h0.9v0.9H77     V127.5z M85.2,127.5h0.9v0.9h-0.9V127.5z"></path>
			<path class="st38" d="M61.4,101.9h6.4l0,0l0,0v6.4l0,0l0,0h-6.4l0,0l0,0V101.9L61.4,101.9L61.4,101.9z M62.3,102.8h4.6l0,0l0,0     v4.6l0,0l0,0h-4.6l0,0l0,0V102.8L62.3,102.8L62.3,102.8z M63.3,103.7H66l0,0l0,0v2.7l0,0l0,0h-2.7l0,0l0,0V103.7L63.3,103.7     L63.3,103.7z M81.6,101.9H88l0,0l0,0v6.4l0,0l0,0h-6.4l0,0l0,0V101.9L81.6,101.9L81.6,101.9z M82.5,102.8H87l0,0l0,0v4.6l0,0l0,0     h-4.6l0,0l0,0V102.8L82.5,102.8L82.5,102.8z M83.4,103.7h2.7l0,0l0,0v2.7l0,0l0,0h-2.7l0,0l0,0V103.7L83.4,103.7L83.4,103.7z      M61.4,122h6.4l0,0l0,0v6.4l0,0l0,0h-6.4l0,0l0,0V122L61.4,122L61.4,122z M62.3,122.9h4.6l0,0l0,0v4.6l0,0l0,0h-4.6l0,0l0,0     V122.9L62.3,122.9L62.3,122.9z M63.3,123.8H66l0,0l0,0v2.7l0,0l0,0h-2.7l0,0l0,0V123.8L63.3,123.8L63.3,123.8z M79.7,120.2h4.6     l0,0l0,0v4.6l0,0l0,0h-4.6l0,0l0,0V120.2L79.7,120.2L79.7,120.2z M80.6,121.1h2.7l0,0l0,0v2.7l0,0l0,0h-2.7l0,0l0,0V121.1     L80.6,121.1L80.6,121.1z M81.6,122h0.9l0,0l0,0v0.9l0,0l0,0h-0.9l0,0l0,0V122L81.6,122L81.6,122z"></path>
			<g>
				<path class="st37" d="M58.5,128.7h-2.5v0.6h2.5V128.7z M55.8,128.7h-0.6v0.6h0.6V128.7z"></path>
				<path class="st37" d="M58.5,128v-0.6h-1.2c-0.8,0-0.9-0.4-0.9-0.5c0-0.1,0-0.4,0.6-0.4h1.4V126h-1.5c-0.3,0-1.1,0-1.1,0.8      c0,0.5,0.4,0.7,0.6,0.7h-0.6v0.5H58.5z"></path>
				<path class="st37" d="M58.5,124.7h-2v-0.5h-0.4v0.5c-0.3,0-0.5,0-0.5-0.4c0,0,0-0.1,0-0.1h-0.4c0,0.4,0,0.7,0.1,0.8      c0.2,0.3,0.5,0.3,0.8,0.3v0.4h0.4v-0.4h2V124.7z"></path>
				<path class="st37" d="M57.3,121.6c-0.7,0-1.3,0.4-1.3,1.1c0,0.8,0.6,1.2,1.3,1.2c0.6,0,1.3-0.3,1.3-1.1      C58.6,122.1,58.1,121.6,57.3,121.6z M57.3,122.2c0.3,0,0.8,0,0.8,0.6c0,0.6-0.7,0.6-0.8,0.6c-0.4,0-0.8-0.1-0.8-0.6      C56.5,122.3,56.8,122.2,57.3,122.2z"></path>
			</g>
		</g>
		<g>
			<g>
				<path class="st37" d="M22.5,118.8c0-0.3,0-0.5-0.3-0.7c-0.2-0.1-0.5-0.2-0.8-0.2c-0.5,0-1,0.2-1.1,0.7l0.5,0.1      c0-0.1,0.1-0.4,0.6-0.4c0.2,0,0.5,0.1,0.5,0.4v0.2c-0.5,0-1.7,0-1.7,0.8c0,0.4,0.3,0.8,0.8,0.8c0.6,0,0.8-0.4,0.8-0.6      c0,0.2,0,0.3,0.1,0.5h0.5c0-0.1-0.1-0.3-0.1-0.5V118.8z M22,119.4c0,0.2-0.1,0.7-0.6,0.7c-0.4,0-0.4-0.3-0.4-0.4      c0-0.3,0.3-0.4,0.4-0.4c0.1,0,0.3-0.1,0.7-0.1V119.4z"></path>
				<path class="st37" d="M25.2,120.4v-3.3h-0.6v1.2c-0.2-0.4-0.4-0.4-0.7-0.4c-0.8,0-1,0.8-1,1.3c0,0.3,0.1,1.3,0.9,1.3      c0.5,0,0.7-0.4,0.7-0.5v0.5H25.2z M24.7,119.4c0,0.4-0.3,0.6-0.5,0.6c-0.5,0-0.5-0.7-0.5-0.8c0-0.2,0-0.9,0.5-0.9      c0.1,0,0.3,0.1,0.4,0.2c0.1,0.1,0.1,0.2,0.1,0.5V119.4z"></path>
				<path class="st37" d="M27.9,118.8c0-0.3,0-0.5-0.3-0.7c-0.2-0.1-0.5-0.2-0.8-0.2c-0.5,0-1,0.2-1.1,0.7l0.5,0.1      c0-0.1,0.1-0.4,0.6-0.4c0.3,0,0.5,0.1,0.5,0.4v0.2c-0.5,0-1.6,0-1.6,0.8c0,0.4,0.3,0.8,0.8,0.8c0.6,0,0.8-0.4,0.8-0.6      c0,0.2,0,0.3,0.1,0.5H28c0-0.1-0.1-0.3-0.1-0.5V118.8z M27.4,119.4c0,0.2-0.1,0.7-0.6,0.7c-0.4,0-0.4-0.3-0.4-0.4      c0-0.3,0.3-0.4,0.4-0.4c0.1,0,0.3-0.1,0.7-0.1V119.4z"></path>
				<path class="st37" d="M29.2,121.2V120c0.1,0.1,0.2,0.4,0.7,0.4c0.3,0,0.5-0.1,0.6-0.3c0.2-0.3,0.3-0.6,0.3-1      c0-0.5-0.2-1.3-0.9-1.3c-0.5,0-0.7,0.3-0.8,0.5v-0.4h-0.5v3.3H29.2z M29.2,119c0-0.5,0.3-0.7,0.5-0.7c0.4,0,0.5,0.6,0.5,0.8      c0,0.3,0,0.8-0.5,0.8c-0.3,0-0.5-0.2-0.5-0.6V119z"></path>
				<path class="st37" d="M32.4,120c-0.1,0-0.1,0-0.1,0c-0.3,0-0.4-0.1-0.4-0.4v-1.2h0.5v-0.4h-0.5v-0.7l-0.5,0l-0.1,0.6H31v0.4h0.3      v1.3c0,0.3,0,0.4,0.2,0.6c0.1,0.1,0.3,0.2,0.5,0.2c0.1,0,0.3,0,0.4-0.1V120z"></path>
				<path class="st37" d="M35,119.2c0-0.7-0.4-1.3-1.1-1.3c-0.7,0-1.2,0.6-1.2,1.3c0,0.6,0.3,1.3,1.1,1.3      C34.5,120.4,35,120,35,119.2z M34.4,119.1c0,0.3,0,0.8-0.6,0.8c-0.6,0-0.6-0.7-0.6-0.8c0-0.4,0.1-0.8,0.6-0.8      C34.3,118.3,34.4,118.7,34.4,119.1z"></path>
				<path class="st37" d="M35.5,120.4h0.6v-1c0-0.4,0.1-0.6,0.2-0.7c0.2-0.2,0.4-0.2,0.5-0.2v-0.6c-0.5,0-0.7,0.5-0.8,0.7v-0.6h-0.5      V120.4z"></path>
			</g>
			<g>
				<path class="st37" d="M22.5,112.8c0-0.3,0-0.5-0.3-0.7c-0.2-0.1-0.5-0.2-0.8-0.2c-0.5,0-1,0.2-1.1,0.7l0.5,0.1      c0-0.1,0.1-0.4,0.6-0.4c0.2,0,0.5,0.1,0.5,0.4v0.2c-0.5,0-1.7,0-1.7,0.8c0,0.4,0.3,0.8,0.8,0.8c0.6,0,0.8-0.4,0.8-0.6      c0,0.2,0,0.3,0.1,0.5h0.5c0-0.1-0.1-0.3-0.1-0.5V112.8z M22,113.4c0,0.2-0.1,0.7-0.6,0.7c-0.4,0-0.4-0.3-0.4-0.4      c0-0.3,0.3-0.4,0.4-0.4c0.1,0,0.3-0.1,0.7-0.1V113.4z"></path>
				<path class="st37" d="M25.2,114.4v-3.3h-0.6v1.2c-0.2-0.4-0.4-0.4-0.7-0.4c-0.8,0-1,0.8-1,1.3c0,0.3,0.1,1.3,0.9,1.3      c0.5,0,0.7-0.4,0.7-0.5v0.5H25.2z M24.7,113.4c0,0.4-0.3,0.6-0.5,0.6c-0.5,0-0.5-0.7-0.5-0.8c0-0.2,0-0.9,0.5-0.9      c0.1,0,0.3,0.1,0.4,0.2c0.1,0.1,0.1,0.2,0.1,0.5V113.4z"></path>
				<path class="st37" d="M27.9,112.8c0-0.3,0-0.5-0.3-0.7c-0.2-0.1-0.5-0.2-0.8-0.2c-0.5,0-1,0.2-1.1,0.7l0.5,0.1      c0-0.1,0.1-0.4,0.6-0.4c0.3,0,0.5,0.1,0.5,0.4v0.2c-0.5,0-1.6,0-1.6,0.8c0,0.4,0.3,0.8,0.8,0.8c0.6,0,0.8-0.4,0.8-0.6      c0,0.2,0,0.3,0.1,0.5H28c0-0.1-0.1-0.3-0.1-0.5V112.8z M27.4,113.4c0,0.2-0.1,0.7-0.6,0.7c-0.4,0-0.4-0.3-0.4-0.4      c0-0.3,0.3-0.4,0.4-0.4c0.1,0,0.3-0.1,0.7-0.1V113.4z"></path>
				<path class="st37" d="M29.2,115.2V114c0.1,0.1,0.2,0.4,0.7,0.4c0.3,0,0.5-0.1,0.6-0.3c0.2-0.3,0.3-0.6,0.3-1      c0-0.5-0.2-1.3-0.9-1.3c-0.5,0-0.7,0.3-0.8,0.5v-0.4h-0.5v3.3H29.2z M29.2,113c0-0.5,0.3-0.7,0.5-0.7c0.4,0,0.5,0.6,0.5,0.8      c0,0.3,0,0.8-0.5,0.8c-0.3,0-0.5-0.2-0.5-0.6V113z"></path>
				<path class="st37" d="M32.4,114c-0.1,0-0.1,0-0.1,0c-0.3,0-0.4-0.1-0.4-0.4v-1.2h0.5v-0.4h-0.5v-0.7l-0.5,0l-0.1,0.6H31v0.4h0.3      v1.3c0,0.3,0,0.4,0.2,0.6c0.1,0.1,0.3,0.2,0.5,0.2c0.1,0,0.3,0,0.4-0.1V114z"></path>
				<path class="st37" d="M34.9,112.8c0-0.3,0-0.5-0.3-0.7c-0.2-0.1-0.5-0.2-0.8-0.2c-0.5,0-1,0.2-1.1,0.7l0.5,0.1      c0-0.1,0.1-0.4,0.6-0.4c0.2,0,0.5,0.1,0.5,0.4v0.2c-0.5,0-1.7,0-1.7,0.8c0,0.4,0.3,0.8,0.8,0.8c0.6,0,0.8-0.4,0.8-0.6      c0,0.2,0,0.3,0.1,0.5H35c0-0.1-0.1-0.3-0.1-0.5V112.8z M34.4,113.4c0,0.2-0.1,0.7-0.6,0.7c-0.4,0-0.4-0.3-0.4-0.4      c0-0.3,0.3-0.4,0.4-0.4c0.1,0,0.3-0.1,0.7-0.1V113.4z"></path>
				<path class="st37" d="M37.6,114.4v-3.3h-0.6v1.2c-0.2-0.4-0.4-0.4-0.7-0.4c-0.8,0-1,0.8-1,1.3c0,0.3,0.1,1.3,0.9,1.3      c0.5,0,0.7-0.4,0.7-0.5v0.5H37.6z M37.1,113.4c0,0.4-0.3,0.6-0.5,0.6c-0.5,0-0.5-0.7-0.5-0.8c0-0.2,0-0.9,0.5-0.9      c0.1,0,0.3,0.1,0.4,0.2c0.1,0.1,0.1,0.2,0.1,0.5V113.4z"></path>
				<path class="st37" d="M40.4,113.2c0-0.7-0.4-1.3-1.1-1.3c-0.8,0-1.2,0.6-1.2,1.3c0,0.6,0.3,1.3,1.1,1.3      C39.9,114.4,40.4,114,40.4,113.2z M39.8,113.1c0,0.3,0,0.8-0.6,0.8c-0.6,0-0.6-0.7-0.6-0.8c0-0.4,0.1-0.8,0.6-0.8      C39.7,112.3,39.8,112.7,39.8,113.1z"></path>
				<path class="st37" d="M40.9,114.4h0.6v-1c0-0.4,0.1-0.6,0.2-0.7c0.2-0.2,0.4-0.2,0.5-0.2v-0.6c-0.5,0-0.7,0.5-0.8,0.7v-0.6h-0.5      V114.4z"></path>
			</g>
		</g>
		<g>
			<g>
				<path class="st37" d="M45.8,137.4c0.1,0,0.3,0,0.4,0.1c0.1,0.1,0.1,0.2,0.1,0.3c0,0.1,0,0.3-0.1,0.4c-0.1,0.1-0.2,0.1-0.4,0.1      c-0.1,0-0.3,0-0.4-0.1c-0.1-0.1-0.1-0.2-0.1-0.4s0-0.3,0.1-0.4C45.6,137.5,45.7,137.4,45.8,137.4z M45.4,143.7v-3.9h-0.6v-0.7      h1.4v4.5H45.4z"></path>
				<path class="st37" d="M50.3,143.7V141c0-0.5-0.1-0.8-0.2-1c-0.1-0.2-0.4-0.3-0.7-0.3c-0.2,0-0.4,0.1-0.6,0.2s-0.4,0.2-0.5,0.4      v3.4h-0.8v-4.5H48l0.3,0.6c0.3-0.4,0.7-0.7,1.3-0.7c1,0,1.5,0.6,1.5,1.8v2.8H50.3z"></path>
				<path class="st37" d="M52,144.9l0.4-0.6c0.5,0.3,0.9,0.5,1.3,0.5c0.4,0,0.7-0.1,0.9-0.2c0.2-0.1,0.3-0.3,0.3-0.5      c0-0.4-0.3-0.6-0.8-0.6c-0.1,0-0.3,0-0.5,0.1c-0.2,0-0.4,0.1-0.6,0.1c-0.6,0-1-0.2-1-0.7c0-0.2,0.1-0.3,0.2-0.4      c0.2-0.1,0.3-0.2,0.6-0.3c-0.6-0.3-1-0.8-1-1.6c0-0.5,0.2-0.9,0.5-1.2c0.3-0.3,0.7-0.5,1.2-0.5c0.4,0,0.8,0.1,1,0.3l0.4-0.5      l0.5,0.5l-0.5,0.4c0.2,0.3,0.3,0.6,0.3,1.1c0,0.5-0.1,0.8-0.4,1.2c-0.3,0.3-0.7,0.5-1.1,0.5l-0.7,0.1c-0.1,0-0.2,0-0.3,0.1      c-0.1,0.1-0.2,0.1-0.2,0.2c0,0.1,0.1,0.2,0.4,0.2c0.1,0,0.3,0,0.6-0.1c0.3,0,0.4-0.1,0.6-0.1c0.4,0,0.8,0.1,1,0.3      c0.3,0.2,0.4,0.5,0.4,0.9c0,0.4-0.2,0.8-0.6,1c-0.4,0.3-0.8,0.4-1.4,0.4c-0.3,0-0.6-0.1-0.9-0.2C52.5,145.2,52.2,145.1,52,144.9      z M53.8,139.7c-0.3,0-0.5,0.1-0.7,0.3c-0.2,0.2-0.3,0.4-0.3,0.7c0,0.3,0.1,0.6,0.3,0.8c0.2,0.2,0.4,0.3,0.7,0.3      c0.3,0,0.5-0.1,0.7-0.3c0.2-0.2,0.2-0.5,0.2-0.8c0-0.3-0.1-0.5-0.3-0.7C54.2,139.8,54,139.7,53.8,139.7z"></path>
				<path class="st37" d="M60.4,141.5h-3.3c0,0.5,0.1,0.9,0.4,1.2c0.3,0.2,0.6,0.4,1,0.4c0.5,0,0.8-0.1,1.2-0.4l0.3,0.6      c-0.1,0.1-0.3,0.2-0.6,0.3c-0.3,0.1-0.7,0.2-1.1,0.2c-0.6,0-1.1-0.2-1.5-0.6c-0.4-0.4-0.7-1-0.7-1.7c0-0.8,0.2-1.4,0.7-1.8      c0.4-0.4,0.9-0.6,1.4-0.6c0.6,0,1.2,0.2,1.5,0.5c0.4,0.4,0.5,0.8,0.5,1.4C60.5,141.2,60.5,141.3,60.4,141.5z M58.5,139.7      c-0.4,0-0.7,0.1-0.9,0.3c-0.2,0.2-0.4,0.5-0.4,0.8h2.5c0-0.3-0.1-0.6-0.3-0.8C59.1,139.8,58.8,139.7,58.5,139.7z"></path>
				<path class="st37" d="M64.1,143.7V141c0-0.5-0.1-0.8-0.2-1c-0.1-0.2-0.4-0.3-0.7-0.3c-0.2,0-0.4,0.1-0.6,0.2s-0.4,0.2-0.5,0.4      v3.4h-0.8v-4.5h0.6l0.3,0.6c0.3-0.4,0.7-0.7,1.3-0.7c1,0,1.5,0.6,1.5,1.8v2.8H64.1z"></path>
				<path class="st37" d="M66.9,137.4c0.1,0,0.3,0,0.4,0.1c0.1,0.1,0.1,0.2,0.1,0.3c0,0.1,0,0.3-0.1,0.4c-0.1,0.1-0.2,0.1-0.4,0.1      c-0.1,0-0.3,0-0.4-0.1c-0.1-0.1-0.1-0.2-0.1-0.4s0-0.3,0.1-0.4C66.7,137.5,66.8,137.4,66.9,137.4z M66.5,143.7v-3.9h-0.6v-0.7      h1.4v4.5H66.5z"></path>
				<path class="st37" d="M69.3,139.1v2.9c0,0.7,0.3,1.1,0.9,1.1c0.3,0,0.5-0.1,0.7-0.2c0.2-0.2,0.4-0.3,0.4-0.5v-3.2h0.8v4.5h-0.8      V143c-0.1,0.2-0.3,0.3-0.5,0.5c-0.3,0.1-0.5,0.2-0.8,0.2c-0.5,0-0.9-0.1-1.1-0.4c-0.3-0.3-0.4-0.7-0.4-1.2v-3H69.3z"></path>
				<path class="st37" d="M78.6,143.7v-2.9c0-0.7-0.3-1.1-0.9-1.1c-0.2,0-0.4,0.1-0.5,0.2c-0.2,0.1-0.3,0.3-0.3,0.4v3.4h-0.8v-3.2      c0-0.2-0.1-0.4-0.3-0.5c-0.2-0.1-0.4-0.2-0.7-0.2c-0.2,0-0.3,0.1-0.5,0.2c-0.2,0.1-0.3,0.3-0.4,0.4v3.4h-0.8v-4.5h0.5l0.3,0.5      c0.3-0.4,0.7-0.6,1.2-0.6c0.7,0,1.1,0.2,1.4,0.6c0.1-0.2,0.3-0.3,0.5-0.4s0.5-0.2,0.8-0.2c0.5,0,0.8,0.1,1.1,0.4      c0.3,0.3,0.4,0.7,0.4,1.2v3H78.6z"></path>
			</g>
			<path class="st40" d="M25.5,138.9l4.3,4.3h3.8l5.4-5.4l3.4,3.4L31.7,152L21,141.2l2.3-2.3c-0.1-0.2-0.2-0.4-0.2-0.6     c0-0.7,0.6-1.2,1.2-1.2s1.2,0.6,1.2,1.2C25.6,138.5,25.6,138.7,25.5,138.9z M31.7,130.5l3.5,3.5l-3.5,3.5l-2.4-2.4     c-0.2,0.1-0.4,0.1-0.6,0.1c-0.7,0-1.2-0.6-1.2-1.2s0.6-1.2,1.2-1.2c0.2,0,0.4,0.1,0.6,0.2L31.7,130.5z M31.7,131.5l-1.9,1.9     c0.1,0.2,0.1,0.4,0.1,0.6c0,0.2-0.1,0.5-0.2,0.6l1.9,1.9l2.5-2.5L31.7,131.5z M23.8,139.4l-1.8,1.8l9.8,9.8l9.8-9.8l-2.4-2.4     l-5.1,5.1h-4.4l-4.5-4.5c-0.2,0.1-0.4,0.2-0.6,0.2C24.2,139.6,24,139.5,23.8,139.4z M37.2,136.4l-4.3,4.3h-2.3l-3.5-3.5     c-0.2,0.1-0.3,0.1-0.5,0.1c-0.7,0-1.2-0.6-1.2-1.2c0-0.7,0.6-1.2,1.2-1.2s1.2,0.6,1.2,1.2c0,0.2-0.1,0.5-0.2,0.7l3.3,3.3h1.7     l4.4-4.4l0.5,0.5L37.2,136.4z"></path>
		</g>
	</g>
</g>
</svg>
