<?xml version="1.0" encoding="utf-8"?>
<!-- Generator: Adobe Illustrator 24.3.0, SVG Export Plug-In . SVG Version: 6.00 Build 0)  -->
<svg version="1.1" id="Foreground" xmlns="http://www.w3.org/2000/svg" xmlns:xlink="http://www.w3.org/1999/xlink" x="0px" y="0px"
	 viewBox="0 0 462 261.4" style="enable-background:new 0 0 462 261.4;" xml:space="preserve">
<style type="text/css">
	.st0{fill-rule:evenodd;clip-rule:evenodd;fill:#314A7D;stroke:#1A171B;stroke-width:0.5;stroke-miterlimit:3.8637;}
	.st1{fill-rule:evenodd;clip-rule:evenodd;fill:#E4E3E4;stroke:#1A171B;stroke-width:0.5;stroke-miterlimit:3.8637;}
	.st2{fill:#312F32;stroke:#1A171B;stroke-width:0.5;stroke-miterlimit:3.8637;}
	.st3{fill-rule:evenodd;clip-rule:evenodd;fill:#E8E8E8;stroke:#1A171B;stroke-width:0.5;stroke-miterlimit:3.8637;}
	.st4{fill-rule:evenodd;clip-rule:evenodd;fill:none;stroke:#1A171B;stroke-width:0.5;stroke-miterlimit:3.8637;}
	.st5{fill-rule:evenodd;clip-rule:evenodd;fill:#D6D5D6;stroke:#1A171B;stroke-width:0.5;stroke-miterlimit:3.8637;}
	.st6{fill:#D6D5D6;stroke:#1A171B;stroke-width:0.5;stroke-miterlimit:3.8637;}
	.st7{fill-rule:evenodd;clip-rule:evenodd;fill:#9C2828;stroke:#1A171B;stroke-width:0.5;stroke-miterlimit:3.8637;}
	.st8{fill-rule:evenodd;clip-rule:evenodd;fill:#BE091E;stroke:#1A171B;stroke-width:0.5;stroke-miterlimit:3.8637;}
	.st9{clip-path:url(#SVGID_4_);}
	.st10{clip-path:url(#SVGID_5_);}
	
		.st11{clip-path:url(#SVGID_6_);fill-rule:evenodd;clip-rule:evenodd;fill:#D1D1D1;stroke:#1A171B;stroke-width:0.5;stroke-miterlimit:3.8637;}
	.st12{clip-path:url(#SVGID_10_);}
	.st13{clip-path:url(#SVGID_11_);}
	
		.st14{clip-path:url(#SVGID_12_);fill-rule:evenodd;clip-rule:evenodd;fill:#D1D1D1;stroke:#1A171B;stroke-width:0.5;stroke-miterlimit:3.8637;}
	.st15{clip-path:url(#SVGID_16_);}
	.st16{clip-path:url(#SVGID_17_);}
	
		.st17{clip-path:url(#SVGID_18_);fill-rule:evenodd;clip-rule:evenodd;fill:#D1D1D1;stroke:#1A171B;stroke-width:0.5;stroke-miterlimit:3.8637;}
	.st18{clip-path:url(#SVGID_22_);}
	.st19{clip-path:url(#SVGID_23_);}
	
		.st20{clip-path:url(#SVGID_24_);fill-rule:evenodd;clip-rule:evenodd;fill:#D1D1D1;stroke:#1A171B;stroke-width:0.5;stroke-miterlimit:3.8637;}
	.st21{fill-rule:evenodd;clip-rule:evenodd;fill:#1A171B;stroke:#1A171B;stroke-width:0.5;stroke-miterlimit:3.8637;}
	.st22{fill-rule:evenodd;clip-rule:evenodd;fill:#3C3A3E;stroke:#1A171B;stroke-width:0.5;stroke-miterlimit:3.8637;}
	.st23{fill-rule:evenodd;clip-rule:evenodd;fill:#484649;stroke:#1A171B;stroke-width:0.5;stroke-miterlimit:3.8637;}
	.st24{fill-rule:evenodd;clip-rule:evenodd;fill:#312F32;stroke:#1A171B;stroke-width:0.5;stroke-miterlimit:3.8637;}
	.st25{clip-path:url(#SVGID_28_);}
	.st26{clip-path:url(#SVGID_29_);}
	
		.st27{clip-path:url(#SVGID_30_);fill-rule:evenodd;clip-rule:evenodd;fill:#D1D1D1;stroke:#1A171B;stroke-width:0.5;stroke-miterlimit:3.8637;}
	.st28{clip-path:url(#SVGID_34_);}
	.st29{clip-path:url(#SVGID_35_);}
	
		.st30{clip-path:url(#SVGID_36_);fill-rule:evenodd;clip-rule:evenodd;fill:#D1D1D1;stroke:#1A171B;stroke-width:0.5;stroke-miterlimit:3.8637;}
	.st31{fill:#007F50;stroke:#1A171B;stroke-width:0.5;stroke-miterlimit:3.8637;}
	.st32{fill-rule:evenodd;clip-rule:evenodd;fill:#195A39;stroke:#1A171B;stroke-width:0.5;stroke-miterlimit:3.8637;}
	.st33{fill:#00A768;stroke:#1A171B;stroke-width:0.5;stroke-miterlimit:3.8637;}
	.st34{clip-path:url(#SVGID_40_);}
	.st35{clip-path:url(#SVGID_41_);}
	
		.st36{clip-path:url(#SVGID_42_);fill-rule:evenodd;clip-rule:evenodd;fill:#D1D1D1;stroke:#1A171B;stroke-width:0.5;stroke-miterlimit:3.8637;}
	.st37{clip-path:url(#SVGID_46_);}
	.st38{clip-path:url(#SVGID_47_);}
	
		.st39{clip-path:url(#SVGID_48_);fill-rule:evenodd;clip-rule:evenodd;fill:#D1D1D1;stroke:#1A171B;stroke-width:0.5;stroke-miterlimit:3.8637;}
	.st40{clip-path:url(#SVGID_52_);}
	.st41{clip-path:url(#SVGID_53_);}
	
		.st42{clip-path:url(#SVGID_54_);fill-rule:evenodd;clip-rule:evenodd;fill:#D1D1D1;stroke:#1A171B;stroke-width:0.5;stroke-miterlimit:3.8637;}
	.st43{clip-path:url(#SVGID_58_);}
	.st44{clip-path:url(#SVGID_59_);}
	
		.st45{clip-path:url(#SVGID_60_);fill-rule:evenodd;clip-rule:evenodd;fill:#D1D1D1;stroke:#1A171B;stroke-width:0.5;stroke-miterlimit:3.8637;}
	.st46{fill-rule:evenodd;clip-rule:evenodd;fill:#FFFFFF;}
	.st47{fill-rule:evenodd;clip-rule:evenodd;fill:#003E77;}
	.st48{fill:none;stroke:#003E77;stroke-width:0.25;stroke-miterlimit:3.8637;}
	.st49{fill-rule:evenodd;clip-rule:evenodd;fill:none;stroke:#FFFFFF;stroke-width:0.5136;stroke-miterlimit:3.8637;}
	.st50{fill-rule:evenodd;clip-rule:evenodd;fill:#FFD616;}
	.st51{fill-rule:evenodd;clip-rule:evenodd;fill:#12337B;}
	.st52{fill:none;stroke:#12337B;stroke-width:1.0001;stroke-miterlimit:3.8637;}
</style>
<g>
	<rect x="0.3" y="0.3" class="st0" width="100.6" height="252.3"/>
	<rect x="0.3" y="40" class="st1" width="100.6" height="172.9"/>
	<g>
		<polygon class="st2" points="35,252.6 40.7,252.6 40.7,256.8 60.5,256.8 60.5,252.6 66.2,252.6 66.2,261.1 35,261.1 		"/>
		<rect x="66.2" y="252.6" class="st3" width="2.1" height="4.3"/>
		<rect x="32.9" y="252.6" class="st3" width="2.1" height="4.3"/>
	</g>
	<rect x="1" y="62.6" class="st3" width="99.2" height="127.6"/>
	<rect x="5.2" y="66.2" class="st4" width="90.7" height="120.5"/>
	<rect x="7.4" y="68.3" class="st4" width="86.5" height="116.2"/>
	<rect x="0.3" y="248.3" class="st5" width="100.6" height="4.3"/>
	<polygon class="st6" points="0.3,252.6 0.3,212.9 4.5,212.9 4.5,248.3 8.8,248.3 8.8,252.6 	"/>
	<polygon class="st6" points="100.9,252.6 100.9,212.9 96.7,212.9 96.7,248.3 92.4,248.3 92.4,252.6 	"/>
	<rect x="0.3" y="0.3" class="st5" width="100.6" height="4.3"/>
	<polygon class="st6" points="100.9,0.3 100.9,40 96.7,40 96.7,4.5 92.4,4.5 92.4,0.3 	"/>
	<polygon class="st6" points="0.3,0.3 0.3,40 4.5,40 4.5,4.5 8.8,4.5 8.8,0.3 	"/>
	<g>
		<rect x="7.5" y="212.9" class="st7" width="57.5" height="35.4"/>
		<rect x="7.5" y="225.6" class="st8" width="57.5" height="17"/>
		<g>
			<defs>
				<path id="SVGID_1_" d="M52.7,233c0-3.1,2.5-5.7,5.7-5.7s5.7,2.5,5.7,5.7c0,3.1-2.5,5.7-5.7,5.7S52.7,236.2,52.7,233z"/>
			</defs>
			<defs>
				<path id="SVGID_2_" d="M52.7,233c0-3.1,2.5-5.7,5.7-5.7s5.7,2.5,5.7,5.7c0,3.1-2.5,5.7-5.7,5.7S52.7,236.2,52.7,233z"/>
			</defs>
			<defs>
				<path id="SVGID_3_" d="M52.7,233c0-3.1,2.5-5.7,5.7-5.7s5.7,2.5,5.7,5.7c0,3.1-2.5,5.7-5.7,5.7S52.7,236.2,52.7,233z"/>
			</defs>
			<use xlink:href="#SVGID_1_"  style="overflow:visible;fill-rule:evenodd;clip-rule:evenodd;fill:#FFFFFF;"/>
			<clipPath id="SVGID_4_">
				<use xlink:href="#SVGID_1_"  style="overflow:visible;"/>
			</clipPath>
			<clipPath id="SVGID_5_" class="st9">
				<use xlink:href="#SVGID_2_"  style="overflow:visible;"/>
			</clipPath>
			<clipPath id="SVGID_6_" class="st10">
				<use xlink:href="#SVGID_3_"  style="overflow:visible;"/>
			</clipPath>
			
				<rect x="57.2" y="226.8" transform="matrix(0.7071 -0.7071 0.7071 0.7071 -147.6912 109.5083)" class="st11" width="2.3" height="12.4"/>
			
				<use xlink:href="#SVGID_3_"  style="overflow:visible;fill-rule:evenodd;clip-rule:evenodd;fill:none;stroke:#1A171B;stroke-width:0.5;stroke-miterlimit:3.8637;"/>
		</g>
		<g>
			<defs>
				<path id="SVGID_7_" d="M38.1,233c0-3.1,2.5-5.7,5.7-5.7s5.7,2.5,5.7,5.7c0,3.1-2.5,5.7-5.7,5.7S38.1,236.2,38.1,233z"/>
			</defs>
			<defs>
				<path id="SVGID_8_" d="M38.1,233c0-3.1,2.5-5.7,5.7-5.7s5.7,2.5,5.7,5.7c0,3.1-2.5,5.7-5.7,5.7S38.1,236.2,38.1,233z"/>
			</defs>
			<defs>
				<path id="SVGID_9_" d="M38.1,233c0-3.1,2.5-5.7,5.7-5.7s5.7,2.5,5.7,5.7c0,3.1-2.5,5.7-5.7,5.7S38.1,236.2,38.1,233z"/>
			</defs>
			<use xlink:href="#SVGID_7_"  style="overflow:visible;fill-rule:evenodd;clip-rule:evenodd;fill:#FFFFFF;"/>
			<clipPath id="SVGID_10_">
				<use xlink:href="#SVGID_7_"  style="overflow:visible;"/>
			</clipPath>
			<clipPath id="SVGID_11_" class="st12">
				<use xlink:href="#SVGID_8_"  style="overflow:visible;"/>
			</clipPath>
			<clipPath id="SVGID_12_" class="st13">
				<use xlink:href="#SVGID_9_"  style="overflow:visible;"/>
			</clipPath>
			
				<rect x="42.6" y="226.8" transform="matrix(0.7071 -0.7071 0.7071 0.7071 -151.9641 99.2033)" class="st14" width="2.3" height="12.4"/>
			
				<use xlink:href="#SVGID_9_"  style="overflow:visible;fill-rule:evenodd;clip-rule:evenodd;fill:none;stroke:#1A171B;stroke-width:0.5;stroke-miterlimit:3.8637;"/>
		</g>
		<g>
			<defs>
				<path id="SVGID_13_" d="M23.5,233c0-3.1,2.5-5.7,5.7-5.7s5.7,2.5,5.7,5.7c0,3.1-2.5,5.7-5.7,5.7S23.5,236.2,23.5,233z"/>
			</defs>
			<defs>
				<path id="SVGID_14_" d="M23.5,233c0-3.1,2.5-5.7,5.7-5.7s5.7,2.5,5.7,5.7c0,3.1-2.5,5.7-5.7,5.7S23.5,236.2,23.5,233z"/>
			</defs>
			<defs>
				<path id="SVGID_15_" d="M23.5,233c0-3.1,2.5-5.7,5.7-5.7s5.7,2.5,5.7,5.7c0,3.1-2.5,5.7-5.7,5.7S23.5,236.2,23.5,233z"/>
			</defs>
			<use xlink:href="#SVGID_13_"  style="overflow:visible;fill-rule:evenodd;clip-rule:evenodd;fill:#FFFFFF;"/>
			<clipPath id="SVGID_16_">
				<use xlink:href="#SVGID_13_"  style="overflow:visible;"/>
			</clipPath>
			<clipPath id="SVGID_17_" class="st15">
				<use xlink:href="#SVGID_14_"  style="overflow:visible;"/>
			</clipPath>
			<clipPath id="SVGID_18_" class="st16">
				<use xlink:href="#SVGID_15_"  style="overflow:visible;"/>
			</clipPath>
			
				<rect x="28.1" y="226.8" transform="matrix(0.7071 -0.7071 0.7071 0.7071 -156.2314 88.8924)" class="st17" width="2.3" height="12.4"/>
			
				<use xlink:href="#SVGID_15_"  style="overflow:visible;fill-rule:evenodd;clip-rule:evenodd;fill:none;stroke:#1A171B;stroke-width:0.5;stroke-miterlimit:3.8637;"/>
		</g>
		<g>
			<defs>
				<path id="SVGID_19_" d="M8.9,233c0-3.1,2.5-5.7,5.7-5.7s5.7,2.5,5.7,5.7c0,3.1-2.5,5.7-5.7,5.7S8.9,236.2,8.9,233z"/>
			</defs>
			<defs>
				<path id="SVGID_20_" d="M8.9,233c0-3.1,2.5-5.7,5.7-5.7s5.7,2.5,5.7,5.7c0,3.1-2.5,5.7-5.7,5.7S8.9,236.2,8.9,233z"/>
			</defs>
			<defs>
				<path id="SVGID_21_" d="M8.9,233c0-3.1,2.5-5.7,5.7-5.7s5.7,2.5,5.7,5.7c0,3.1-2.5,5.7-5.7,5.7S8.9,236.2,8.9,233z"/>
			</defs>
			<use xlink:href="#SVGID_19_"  style="overflow:visible;fill-rule:evenodd;clip-rule:evenodd;fill:#FFFFFF;"/>
			<clipPath id="SVGID_22_">
				<use xlink:href="#SVGID_19_"  style="overflow:visible;"/>
			</clipPath>
			<clipPath id="SVGID_23_" class="st18">
				<use xlink:href="#SVGID_20_"  style="overflow:visible;"/>
			</clipPath>
			<clipPath id="SVGID_24_" class="st19">
				<use xlink:href="#SVGID_21_"  style="overflow:visible;"/>
			</clipPath>
			
				<rect x="13.5" y="226.8" transform="matrix(0.7071 -0.7071 0.7071 0.7071 -160.499 78.5817)" class="st20" width="2.3" height="12.4"/>
			
				<use xlink:href="#SVGID_21_"  style="overflow:visible;fill-rule:evenodd;clip-rule:evenodd;fill:none;stroke:#1A171B;stroke-width:0.5;stroke-miterlimit:3.8637;"/>
		</g>
		<rect x="11.7" y="215.7" class="st4" width="5.7" height="5.7"/>
		<rect x="26.3" y="215.7" class="st4" width="5.7" height="5.7"/>
		<rect x="40.9" y="215.7" class="st4" width="5.7" height="5.7"/>
		<rect x="55.6" y="215.7" class="st4" width="5.7" height="5.7"/>
		<rect x="11.7" y="212.9" class="st21" width="5.7" height="2.8"/>
		<rect x="26.3" y="212.9" class="st21" width="5.7" height="2.8"/>
		<rect x="40.9" y="212.9" class="st21" width="5.7" height="2.8"/>
		<rect x="55.6" y="212.9" class="st21" width="5.7" height="2.8"/>
		<rect x="7.5" y="245.5" class="st7" width="57.5" height="2.8"/>
	</g>
	<g>
		<rect x="65.1" y="212.9" class="st22" width="28.6" height="35.4"/>
		<rect x="69.2" y="215.7" class="st23" width="5.7" height="5.7"/>
		<rect x="83.9" y="215.7" class="st23" width="5.7" height="5.7"/>
		<rect x="69.2" y="212.9" class="st24" width="5.7" height="2.8"/>
		<rect x="83.9" y="212.9" class="st24" width="5.7" height="2.8"/>
		<rect x="65.1" y="245.5" class="st24" width="28.6" height="2.8"/>
		<rect x="65.1" y="225.6" class="st23" width="28.6" height="17"/>
		<g>
			<defs>
				<path id="SVGID_25_" d="M81.1,233c0-3.1,2.5-5.7,5.7-5.7s5.7,2.5,5.7,5.7c0,3.1-2.5,5.7-5.7,5.7S81.1,236.2,81.1,233z"/>
			</defs>
			<defs>
				<path id="SVGID_26_" d="M81.1,233c0-3.1,2.5-5.7,5.7-5.7s5.7,2.5,5.7,5.7c0,3.1-2.5,5.7-5.7,5.7S81.1,236.2,81.1,233z"/>
			</defs>
			<defs>
				<path id="SVGID_27_" d="M81.1,233c0-3.1,2.5-5.7,5.7-5.7s5.7,2.5,5.7,5.7c0,3.1-2.5,5.7-5.7,5.7S81.1,236.2,81.1,233z"/>
			</defs>
			<use xlink:href="#SVGID_25_"  style="overflow:visible;fill-rule:evenodd;clip-rule:evenodd;fill:#FFFFFF;"/>
			<clipPath id="SVGID_28_">
				<use xlink:href="#SVGID_25_"  style="overflow:visible;"/>
			</clipPath>
			<clipPath id="SVGID_29_" class="st25">
				<use xlink:href="#SVGID_26_"  style="overflow:visible;"/>
			</clipPath>
			<clipPath id="SVGID_30_" class="st26">
				<use xlink:href="#SVGID_27_"  style="overflow:visible;"/>
			</clipPath>
			
				<rect x="85.6" y="226.8" transform="matrix(0.7071 -0.7071 0.7071 0.7071 -139.3773 129.5817)" class="st27" width="2.3" height="12.4"/>
			
				<use xlink:href="#SVGID_27_"  style="overflow:visible;fill-rule:evenodd;clip-rule:evenodd;fill:none;stroke:#1A171B;stroke-width:0.5;stroke-miterlimit:3.8637;"/>
		</g>
		<g>
			<defs>
				<path id="SVGID_31_" d="M66.5,233c0-3.1,2.5-5.7,5.7-5.7s5.7,2.5,5.7,5.7c0,3.1-2.5,5.7-5.7,5.7S66.5,236.2,66.5,233z"/>
			</defs>
			<defs>
				<path id="SVGID_32_" d="M66.5,233c0-3.1,2.5-5.7,5.7-5.7s5.7,2.5,5.7,5.7c0,3.1-2.5,5.7-5.7,5.7S66.5,236.2,66.5,233z"/>
			</defs>
			<defs>
				<path id="SVGID_33_" d="M66.5,233c0-3.1,2.5-5.7,5.7-5.7s5.7,2.5,5.7,5.7c0,3.1-2.5,5.7-5.7,5.7S66.5,236.2,66.5,233z"/>
			</defs>
			<use xlink:href="#SVGID_31_"  style="overflow:visible;fill-rule:evenodd;clip-rule:evenodd;fill:#FFFFFF;"/>
			<clipPath id="SVGID_34_">
				<use xlink:href="#SVGID_31_"  style="overflow:visible;"/>
			</clipPath>
			<clipPath id="SVGID_35_" class="st28">
				<use xlink:href="#SVGID_32_"  style="overflow:visible;"/>
			</clipPath>
			<clipPath id="SVGID_36_" class="st29">
				<use xlink:href="#SVGID_33_"  style="overflow:visible;"/>
			</clipPath>
			
				<rect x="71" y="226.8" transform="matrix(0.7071 -0.7071 0.7071 0.7071 -143.645 119.2709)" class="st30" width="2.3" height="12.4"/>
			
				<use xlink:href="#SVGID_33_"  style="overflow:visible;fill-rule:evenodd;clip-rule:evenodd;fill:none;stroke:#1A171B;stroke-width:0.5;stroke-miterlimit:3.8637;"/>
		</g>
	</g>
	<g>
		<polygon class="st31" points="50.6,7.1 93.1,7.1 93.1,17.9 91.3,17.9 91.3,23.6 91.3,30.5 93.1,30.5 93.1,38.8 50.6,38.8 
			50.6,30.5 50.6,17.9 		"/>
		<rect x="57" y="34.7" class="st32" width="8.5" height="2.8"/>
		<polygon class="st33" points="50.6,15.6 93.1,15.6 93.1,18.3 91.3,18.3 91.3,23.6 91.3,30.5 93.1,30.5 93.1,33.2 50.6,33.2 
			50.6,30.5 50.6,18.3 		"/>
		<rect x="70" y="18.3" class="st32" width="3.7" height="12.2"/>
		<rect x="78.2" y="34.7" class="st32" width="8.5" height="2.8"/>
		<polygon class="st31" points="8.1,7.1 50.6,7.1 50.6,38.8 8.1,38.8 8.1,30.5 9.9,30.5 9.9,17.9 8.1,17.9 		"/>
		<rect x="14.5" y="34.7" class="st32" width="8.5" height="2.8"/>
		<polygon class="st33" points="8.1,15.6 50.6,15.6 50.6,33.2 8.1,33.2 8.1,30.5 9.9,30.5 9.9,18.3 8.1,18.3 		"/>
		<rect x="27.5" y="18.3" class="st32" width="3.7" height="12.2"/>
		<rect x="35.7" y="34.7" class="st32" width="8.5" height="2.8"/>
		<rect x="48.8" y="18.3" class="st32" width="3.7" height="12.2"/>
		<g>
			<defs>
				<path id="SVGID_37_" d="M55.6,22.2c0-3.1,2.5-5.7,5.7-5.7s5.7,2.5,5.7,5.7c0,3.1-2.5,5.7-5.7,5.7S55.6,25.3,55.6,22.2z"/>
			</defs>
			<defs>
				<path id="SVGID_38_" d="M55.6,22.2c0-3.1,2.5-5.7,5.7-5.7s5.7,2.5,5.7,5.7c0,3.1-2.5,5.7-5.7,5.7S55.6,25.3,55.6,22.2z"/>
			</defs>
			<defs>
				<path id="SVGID_39_" d="M55.6,22.2c0-3.1,2.5-5.7,5.7-5.7s5.7,2.5,5.7,5.7c0,3.1-2.5,5.7-5.7,5.7S55.6,25.3,55.6,22.2z"/>
			</defs>
			<use xlink:href="#SVGID_37_"  style="overflow:visible;fill-rule:evenodd;clip-rule:evenodd;fill:#FFFFFF;"/>
			<clipPath id="SVGID_40_">
				<use xlink:href="#SVGID_37_"  style="overflow:visible;"/>
			</clipPath>
			<clipPath id="SVGID_41_" class="st34">
				<use xlink:href="#SVGID_38_"  style="overflow:visible;"/>
			</clipPath>
			<clipPath id="SVGID_42_" class="st35">
				<use xlink:href="#SVGID_39_"  style="overflow:visible;"/>
			</clipPath>
			
				<rect x="60.1" y="16" transform="matrix(0.7071 -0.7071 0.7071 0.7071 2.2635 49.7869)" class="st36" width="2.3" height="12.4"/>
			
				<use xlink:href="#SVGID_39_"  style="overflow:visible;fill-rule:evenodd;clip-rule:evenodd;fill:none;stroke:#1A171B;stroke-width:0.5;stroke-miterlimit:3.8637;"/>
		</g>
		<g>
			<defs>
				<path id="SVGID_43_" d="M76.8,22.2c0-3.1,2.5-5.7,5.7-5.7s5.7,2.5,5.7,5.7c0,3.1-2.5,5.7-5.7,5.7S76.8,25.3,76.8,22.2z"/>
			</defs>
			<defs>
				<path id="SVGID_44_" d="M76.8,22.2c0-3.1,2.5-5.7,5.7-5.7s5.7,2.5,5.7,5.7c0,3.1-2.5,5.7-5.7,5.7S76.8,25.3,76.8,22.2z"/>
			</defs>
			<defs>
				<path id="SVGID_45_" d="M76.8,22.2c0-3.1,2.5-5.7,5.7-5.7s5.7,2.5,5.7,5.7c0,3.1-2.5,5.7-5.7,5.7S76.8,25.3,76.8,22.2z"/>
			</defs>
			<use xlink:href="#SVGID_43_"  style="overflow:visible;fill-rule:evenodd;clip-rule:evenodd;fill:#FFFFFF;"/>
			<clipPath id="SVGID_46_">
				<use xlink:href="#SVGID_43_"  style="overflow:visible;"/>
			</clipPath>
			<clipPath id="SVGID_47_" class="st37">
				<use xlink:href="#SVGID_44_"  style="overflow:visible;"/>
			</clipPath>
			<clipPath id="SVGID_48_" class="st38">
				<use xlink:href="#SVGID_45_"  style="overflow:visible;"/>
			</clipPath>
			<rect x="81.4" y="16" transform="matrix(0.7071 -0.7071 0.7071 0.7071 8.4904 64.82)" class="st39" width="2.3" height="12.4"/>
			
				<use xlink:href="#SVGID_45_"  style="overflow:visible;fill-rule:evenodd;clip-rule:evenodd;fill:none;stroke:#1A171B;stroke-width:0.5;stroke-miterlimit:3.8637;"/>
		</g>
		<g>
			<defs>
				<path id="SVGID_49_" d="M13,22.2c0-3.1,2.5-5.7,5.7-5.7s5.7,2.5,5.7,5.7c0,3.1-2.5,5.7-5.7,5.7S13,25.3,13,22.2z"/>
			</defs>
			<defs>
				<path id="SVGID_50_" d="M13,22.2c0-3.1,2.5-5.7,5.7-5.7s5.7,2.5,5.7,5.7c0,3.1-2.5,5.7-5.7,5.7S13,25.3,13,22.2z"/>
			</defs>
			<defs>
				<path id="SVGID_51_" d="M13,22.2c0-3.1,2.5-5.7,5.7-5.7s5.7,2.5,5.7,5.7c0,3.1-2.5,5.7-5.7,5.7S13,25.3,13,22.2z"/>
			</defs>
			<use xlink:href="#SVGID_49_"  style="overflow:visible;fill-rule:evenodd;clip-rule:evenodd;fill:#FFFFFF;"/>
			<clipPath id="SVGID_52_">
				<use xlink:href="#SVGID_49_"  style="overflow:visible;"/>
			</clipPath>
			<clipPath id="SVGID_53_" class="st40">
				<use xlink:href="#SVGID_50_"  style="overflow:visible;"/>
			</clipPath>
			<clipPath id="SVGID_54_" class="st41">
				<use xlink:href="#SVGID_51_"  style="overflow:visible;"/>
			</clipPath>
			
				<rect x="17.6" y="16" transform="matrix(0.7071 -0.7071 0.7071 0.7071 -10.1902 19.721)" class="st42" width="2.3" height="12.4"/>
			
				<use xlink:href="#SVGID_51_"  style="overflow:visible;fill-rule:evenodd;clip-rule:evenodd;fill:none;stroke:#1A171B;stroke-width:0.5;stroke-miterlimit:3.8637;"/>
		</g>
		<g>
			<defs>
				<path id="SVGID_55_" d="M34.3,22.2c0-3.1,2.5-5.7,5.7-5.7s5.7,2.5,5.7,5.7c0,3.1-2.5,5.7-5.7,5.7S34.3,25.3,34.3,22.2z"/>
			</defs>
			<defs>
				<path id="SVGID_56_" d="M34.3,22.2c0-3.1,2.5-5.7,5.7-5.7s5.7,2.5,5.7,5.7c0,3.1-2.5,5.7-5.7,5.7S34.3,25.3,34.3,22.2z"/>
			</defs>
			<defs>
				<path id="SVGID_57_" d="M34.3,22.2c0-3.1,2.5-5.7,5.7-5.7s5.7,2.5,5.7,5.7c0,3.1-2.5,5.7-5.7,5.7S34.3,25.3,34.3,22.2z"/>
			</defs>
			<use xlink:href="#SVGID_55_"  style="overflow:visible;fill-rule:evenodd;clip-rule:evenodd;fill:#FFFFFF;"/>
			<clipPath id="SVGID_58_">
				<use xlink:href="#SVGID_55_"  style="overflow:visible;"/>
			</clipPath>
			<clipPath id="SVGID_59_" class="st43">
				<use xlink:href="#SVGID_56_"  style="overflow:visible;"/>
			</clipPath>
			<clipPath id="SVGID_60_" class="st44">
				<use xlink:href="#SVGID_57_"  style="overflow:visible;"/>
			</clipPath>
			
				<rect x="38.8" y="16" transform="matrix(0.7071 -0.7071 0.7071 0.7071 -3.9633 34.7541)" class="st45" width="2.3" height="12.4"/>
			
				<use xlink:href="#SVGID_57_"  style="overflow:visible;fill-rule:evenodd;clip-rule:evenodd;fill:none;stroke:#1A171B;stroke-width:0.5;stroke-miterlimit:3.8637;"/>
		</g>
	</g>
	<g>
		<rect x="9.5" y="70.5" class="st46" width="82.2" height="112"/>
		<rect x="9.5" y="70.5" class="st46" width="82.2" height="112"/>
		<rect x="9.5" y="98.2" class="st47" width="82.2" height="56.7"/>
		<g>
			<polygon class="st46" points="18,104.5 16.3,106.4 16.3,105.7 12.7,105.7 12.7,103.3 16.3,103.3 16.3,102.6 			"/>
			<path class="st46" d="M21.3,103.7c0-0.3,0.1-1.1,0.9-1.1c0.6,0,0.8,0.5,0.8,0.9c0,0.4-0.2,0.8-0.4,1c-0.6,0.8-1.6,1.6-2,2v0.8
				h3.3l0-0.8h-2.4c2-1.5,2.4-2.3,2.4-3.1c0-0.8-0.5-1.6-1.6-1.6c-1.4,0-1.6,1.2-1.7,1.6L21.3,103.7z"/>
			<polygon class="st46" points="24.8,101.9 24.8,107.3 27.9,107.3 27.9,106.6 25.7,106.6 25.7,104.9 27.4,104.9 27.4,104.2 
				25.7,104.2 25.7,102.7 27.9,102.7 27.9,101.9 			"/>
			<path class="st46" d="M29.1,103.7c0-0.3,0.1-1.1,0.9-1.1c0.6,0,0.8,0.5,0.8,0.9c0,0.4-0.2,0.8-0.4,1c-0.6,0.8-1.6,1.6-2,2v0.8
				h3.3l0-0.8h-2.4c2-1.5,2.4-2.3,2.4-3.1c0-0.8-0.5-1.6-1.6-1.6c-1.4,0-1.6,1.2-1.7,1.6L29.1,103.7z"/>
			<path class="st46" d="M35.8,103.1c-0.1-0.4-0.4-1.3-1.6-1.3c-1.1,0-1.6,0.8-1.6,1.5c0,0.5,0.2,0.9,0.5,1.1
				c0.3,0.2,0.5,0.3,1.1,0.6c0.5,0.2,0.9,0.4,0.9,0.9c0,0.2-0.1,0.8-0.9,0.8c-0.9,0-1-0.7-1.1-1l-0.8,0.2c0.1,0.4,0.4,1.5,1.8,1.5
				c1.2,0,1.8-0.8,1.8-1.6c0-1.1-0.9-1.4-1.5-1.6c-0.6-0.2-1.1-0.4-1.1-0.9c0-0.2,0.2-0.7,0.7-0.7c0.6,0,0.8,0.3,0.9,0.8L35.8,103.1
				z"/>
			<rect x="36.5" y="105" class="st46" width="1.7" height="0.7"/>
			<path class="st46" d="M41.7,105.5c-0.1,0.8-0.4,1.2-0.9,1.2c-0.8,0-1-1-1-2c0-0.8,0.1-2.1,1-2.1c0.7,0,0.8,0.8,0.9,1.2l0.8-0.1
				c-0.1-0.5-0.2-1.8-1.7-1.8c-1.8,0-1.9,1.9-1.9,2.8c0,0.9,0.2,2.7,1.9,2.7c1.5,0,1.7-1.3,1.7-1.8L41.7,105.5z"/>
			<path class="st46" d="M43.8,103.3c0.1-0.2,0.2-0.8,0.8-0.8c0.5,0,0.7,0.4,0.7,0.8c0,0.2-0.1,0.5-0.3,0.7
				c-0.2,0.2-0.4,0.2-0.7,0.2H44v0.7h0.3c0.3,0,1.1,0,1.1,0.9c0,0.7-0.4,0.9-0.9,0.9c-0.8,0-0.9-0.7-1-0.9l-0.8,0.2
				c0,0.3,0.1,0.6,0.4,0.9c0.4,0.5,1,0.5,1.4,0.5c1,0,1.7-0.5,1.7-1.6c0-0.2,0-0.6-0.2-0.8c-0.2-0.3-0.5-0.4-0.7-0.5
				c0.3-0.1,0.8-0.4,0.8-1.2c0-1-0.7-1.4-1.5-1.4c-1.3,0-1.6,1-1.7,1.3L43.8,103.3z"/>
			<path class="st46" d="M48.9,101.9c-1.5,0-1.7,1.4-1.7,2.8c0,1.3,0.3,2.7,1.7,2.7c1.5,0,1.7-1.5,1.7-2.8
				C50.6,103.2,50.3,101.9,48.9,101.9z M48.9,102.5c0.7,0,0.8,0.9,0.8,2.1c0,1.3-0.2,2.1-0.8,2.1c-0.7,0-0.8-0.9-0.8-2.1
				C48,103.5,48.2,102.5,48.9,102.5z"/>
			<path class="st46" d="M52.4,101.9l-1.5,5.3h0.8l0.3-1.3h1.6l0.3,1.3h0.9l-1.4-5.3H52.4z M52.2,105.3l0.6-2.4l0.6,2.4H52.2z"/>
		</g>
		<g>
			<g>
				<path class="st46" d="M22.5,118.8c0-0.3,0-0.5-0.3-0.7c-0.2-0.1-0.5-0.2-0.8-0.2c-0.5,0-1,0.2-1.1,0.7l0.5,0.1
					c0-0.1,0.1-0.4,0.6-0.4c0.2,0,0.5,0.1,0.5,0.4v0.2c-0.5,0-1.6,0-1.6,0.8c0,0.4,0.3,0.8,0.8,0.8c0.6,0,0.8-0.4,0.8-0.5
					c0,0.2,0,0.3,0.1,0.5h0.5c0-0.1-0.1-0.3-0.1-0.5V118.8z M22,119.4c0,0.2-0.1,0.7-0.6,0.7c-0.4,0-0.4-0.3-0.4-0.4
					c0-0.3,0.3-0.4,0.4-0.4c0.1,0,0.3-0.1,0.7-0.1V119.4z"/>
				<path class="st46" d="M24.6,119.5c-0.1,0.3-0.2,0.5-0.5,0.5c-0.5,0-0.5-0.7-0.5-0.8c0-0.1,0-0.3,0.1-0.5c0-0.1,0.2-0.4,0.5-0.4
					c0.2,0,0.4,0.1,0.5,0.5l0.5-0.1c0-0.2-0.2-0.9-1-0.9c-0.7,0-1.1,0.6-1.1,1.3c0,0.6,0.3,1.3,1,1.3c0.8,0,1-0.7,1-0.9L24.6,119.5z
					"/>
				<path class="st46" d="M26.7,120c-0.1,0-0.1,0-0.1,0c-0.3,0-0.4-0.1-0.4-0.4v-1.2h0.5v-0.4h-0.5v-0.7l-0.5,0l0,0.6h-0.3v0.4h0.3
					v1.3c0,0.3,0,0.4,0.2,0.6c0.1,0.1,0.3,0.2,0.5,0.2c0.1,0,0.3,0,0.4,0V120z"/>
				<path class="st46" d="M29.2,117.9h-0.6v1.2c0,0.2,0,0.4-0.1,0.5c-0.1,0.2-0.3,0.3-0.5,0.3c-0.3,0-0.3-0.2-0.3-0.5v-1.6h-0.6v1.7
					c0,0.2,0,0.3,0.1,0.5c0.1,0.2,0.4,0.3,0.6,0.3c0.3,0,0.4-0.1,0.5-0.2c0.2-0.1,0.2-0.3,0.3-0.4v0.5h0.5V117.9z"/>
				<path class="st46" d="M31.9,118.8c0-0.3,0-0.5-0.3-0.7c-0.2-0.1-0.5-0.2-0.8-0.2c-0.5,0-1,0.2-1.1,0.7l0.5,0.1
					c0-0.1,0.1-0.4,0.6-0.4c0.2,0,0.5,0.1,0.5,0.4v0.2c-0.5,0-1.7,0-1.7,0.8c0,0.4,0.3,0.8,0.8,0.8c0.6,0,0.8-0.4,0.8-0.5
					c0,0.2,0,0.3,0.1,0.5h0.5c0-0.1-0.1-0.3-0.1-0.5V118.8z M31.3,119.4c0,0.2-0.1,0.7-0.6,0.7c-0.4,0-0.4-0.3-0.4-0.4
					c0-0.3,0.3-0.4,0.4-0.4c0.1,0,0.3-0.1,0.7-0.1V119.4z"/>
				<path class="st46" d="M33.7,120c-0.1,0-0.1,0-0.1,0c-0.3,0-0.4-0.1-0.4-0.4v-1.2h0.5v-0.4h-0.5v-0.7l-0.5,0l0,0.6h-0.3v0.4h0.3
					v1.3c0,0.3,0,0.4,0.2,0.6c0.1,0.1,0.3,0.2,0.5,0.2c0.1,0,0.3,0,0.4,0V120z"/>
				<path class="st46" d="M36.3,119.2c0-0.7-0.4-1.3-1.1-1.3c-0.8,0-1.2,0.6-1.2,1.3c0,0.6,0.3,1.3,1.1,1.3
					C35.7,120.4,36.3,120,36.3,119.2z M35.7,119.1c0,0.3,0,0.8-0.6,0.8c-0.6,0-0.6-0.7-0.6-0.8c0-0.4,0.1-0.8,0.6-0.8
					C35.6,118.3,35.7,118.7,35.7,119.1z"/>
				<path class="st46" d="M36.8,120.4h0.6v-1c0-0.4,0.1-0.6,0.2-0.7c0.2-0.2,0.4-0.2,0.5-0.2v-0.6c-0.5,0-0.7,0.5-0.8,0.7v-0.6h-0.5
					V120.4z"/>
			</g>
			<g>
				<path class="st46" d="M22.5,112.8c0-0.3,0-0.5-0.3-0.7c-0.2-0.1-0.5-0.2-0.8-0.2c-0.5,0-1,0.2-1.1,0.7l0.5,0.1
					c0-0.1,0.1-0.4,0.6-0.4c0.2,0,0.5,0.1,0.5,0.4v0.2c-0.5,0-1.6,0-1.6,0.8c0,0.4,0.3,0.8,0.8,0.8c0.6,0,0.8-0.4,0.8-0.5
					c0,0.2,0,0.3,0.1,0.5h0.5c0-0.1-0.1-0.3-0.1-0.5V112.8z M22,113.4c0,0.2-0.1,0.7-0.6,0.7c-0.4,0-0.4-0.3-0.4-0.4
					c0-0.3,0.3-0.4,0.4-0.4c0.1,0,0.3-0.1,0.7-0.1V113.4z"/>
				<path class="st46" d="M24.6,113.5c-0.1,0.3-0.2,0.5-0.5,0.5c-0.5,0-0.5-0.7-0.5-0.8c0-0.1,0-0.3,0.1-0.5c0-0.1,0.2-0.4,0.5-0.4
					c0.2,0,0.4,0.1,0.5,0.5l0.5-0.1c0-0.2-0.2-0.9-1-0.9c-0.7,0-1.1,0.6-1.1,1.3c0,0.6,0.3,1.3,1,1.3c0.8,0,1-0.7,1-0.9L24.6,113.5z
					"/>
				<path class="st46" d="M26.7,114c-0.1,0-0.1,0-0.1,0c-0.3,0-0.4-0.1-0.4-0.4v-1.2h0.5v-0.4h-0.5v-0.7l-0.5,0l0,0.6h-0.3v0.4h0.3
					v1.3c0,0.3,0,0.4,0.2,0.6c0.1,0.1,0.3,0.2,0.5,0.2c0.1,0,0.3,0,0.4,0V114z"/>
				<path class="st46" d="M29.2,111.9h-0.6v1.2c0,0.2,0,0.4-0.1,0.5c-0.1,0.2-0.3,0.3-0.5,0.3c-0.3,0-0.3-0.2-0.3-0.5v-1.6h-0.6v1.7
					c0,0.2,0,0.3,0.1,0.5c0.1,0.2,0.4,0.3,0.6,0.3c0.3,0,0.4-0.1,0.5-0.2c0.2-0.1,0.2-0.3,0.3-0.4v0.5h0.5V111.9z"/>
				<path class="st46" d="M31.9,112.8c0-0.3,0-0.5-0.3-0.7c-0.2-0.1-0.5-0.2-0.8-0.2c-0.5,0-1,0.2-1.1,0.7l0.5,0.1
					c0-0.1,0.1-0.4,0.6-0.4c0.2,0,0.5,0.1,0.5,0.4v0.2c-0.5,0-1.7,0-1.7,0.8c0,0.4,0.3,0.8,0.8,0.8c0.6,0,0.8-0.4,0.8-0.5
					c0,0.2,0,0.3,0.1,0.5h0.5c0-0.1-0.1-0.3-0.1-0.5V112.8z M31.3,113.4c0,0.2-0.1,0.7-0.6,0.7c-0.4,0-0.4-0.3-0.4-0.4
					c0-0.3,0.3-0.4,0.4-0.4c0.1,0,0.3-0.1,0.7-0.1V113.4z"/>
				<path class="st46" d="M34.6,114.4v-3.3H34v1.2c-0.2-0.4-0.4-0.4-0.7-0.4c-0.8,0-1,0.8-1,1.3c0,0.3,0.1,1.3,0.9,1.3
					c0.5,0,0.7-0.4,0.7-0.5v0.5H34.6z M34,113.4c0,0.4-0.3,0.6-0.5,0.6c-0.5,0-0.5-0.7-0.5-0.8c0-0.2,0-0.9,0.5-0.9
					c0.1,0,0.3,0.1,0.4,0.2c0.1,0.1,0.1,0.2,0.1,0.5V113.4z"/>
				<path class="st46" d="M37.4,113.2c0-0.7-0.4-1.3-1.1-1.3c-0.8,0-1.2,0.6-1.2,1.3c0,0.6,0.3,1.3,1.1,1.3
					C36.8,114.4,37.4,114,37.4,113.2z M36.8,113.1c0,0.3,0,0.8-0.6,0.8c-0.6,0-0.6-0.7-0.6-0.8c0-0.4,0.1-0.8,0.6-0.8
					C36.6,112.3,36.8,112.7,36.8,113.1z"/>
				<path class="st46" d="M37.9,114.4h0.6v-1c0-0.4,0.1-0.6,0.2-0.7c0.2-0.2,0.4-0.2,0.5-0.2v-0.6c-0.5,0-0.7,0.5-0.8,0.7v-0.6h-0.5
					V114.4z"/>
			</g>
		</g>
		<g>
			<polygon class="st47" points="74.5,176.5 74.5,179.1 73.7,179.1 73.7,178.4 70.9,178.4 70.9,179.1 70.2,179.1 70.2,176.5 
				70.9,176.5 70.9,177.3 73.7,177.3 73.7,176.5 			"/>
			<polygon class="st47" points="74.5,171.7 74.5,172.7 71.5,174.6 74.5,174.6 74.5,175.6 70.2,175.6 70.2,174.3 72.7,172.7 
				70.2,172.7 70.2,171.7 			"/>
			<path class="st47" d="M74.5,167.4v2.9h-0.8v-0.9h-2.3v0.9h-0.7c0-0.1,0-0.3,0-0.4c0-0.1,0-0.2-0.1-0.3c0-0.1-0.1-0.2-0.2-0.2
				s-0.2-0.1-0.3-0.1v-1h3.6v-0.9H74.5z"/>
		</g>
		<g>
			<polygon class="st47" points="89.4,176.5 89.4,179.1 88.6,179.1 88.6,178.4 85.8,178.4 85.8,179.1 85.1,179.1 85.1,176.5 
				85.8,176.5 85.8,177.3 88.6,177.3 88.6,176.5 			"/>
			<polygon class="st47" points="89.4,171.7 89.4,172.7 86.4,174.6 89.4,174.6 89.4,175.6 85.1,175.6 85.1,174.3 87.6,172.7 
				85.1,172.7 85.1,171.7 			"/>
			<path class="st47" d="M89.4,167.1v3.4h-0.7c-0.2-0.3-0.4-0.5-0.6-0.8c-0.2-0.3-0.4-0.5-0.6-0.6c-0.2-0.2-0.4-0.4-0.6-0.5
				s-0.3-0.1-0.5-0.1c-0.2,0-0.4,0.1-0.5,0.2c-0.1,0.1-0.2,0.3-0.2,0.6c0,0.2,0,0.4,0.1,0.6c0.1,0.2,0.2,0.4,0.3,0.6v0.1h-1
				c-0.1-0.1-0.1-0.3-0.2-0.6c-0.1-0.3-0.1-0.5-0.1-0.8c0-0.5,0.1-1,0.3-1.3c0.2-0.3,0.6-0.4,1-0.4c0.3,0,0.5,0.1,0.8,0.2
				c0.2,0.1,0.5,0.3,0.8,0.6c0.2,0.2,0.3,0.4,0.5,0.5c0.1,0.2,0.2,0.3,0.3,0.4v-2H89.4z"/>
		</g>
		<g>
			<g>
				<g>
					<polygon class="st47" points="14.4,175.8 14.4,177.1 16,177.1 16,177.7 14.4,177.7 14.4,179 13.6,179 13.6,177.7 12.1,177.7 
						12.1,177.1 13.6,177.1 13.6,175.8 					"/>
					<path class="st47" d="M16,172.3v2.3h-0.8v-0.7h-2.3v0.7h-0.7c0-0.1,0-0.2,0-0.3c0-0.1,0-0.2-0.1-0.3c0-0.1-0.1-0.1-0.2-0.2
						s-0.2-0.1-0.3-0.1v-0.8h3.6v-0.7H16z"/>
					<path class="st47" d="M16,168.7v2.7h-0.7c-0.2-0.2-0.4-0.4-0.6-0.6c-0.2-0.2-0.4-0.4-0.6-0.5c-0.2-0.2-0.4-0.3-0.6-0.4
						s-0.3-0.1-0.5-0.1c-0.2,0-0.4,0.1-0.5,0.2c-0.1,0.1-0.2,0.2-0.2,0.4c0,0.1,0,0.3,0.1,0.5c0.1,0.2,0.2,0.3,0.3,0.4v0.1h-1
						c-0.1-0.1-0.1-0.3-0.2-0.5c-0.1-0.2-0.1-0.4-0.1-0.7c0-0.4,0.1-0.8,0.3-1c0.2-0.2,0.6-0.3,1-0.3c0.3,0,0.5,0.1,0.8,0.2
						c0.2,0.1,0.5,0.3,0.8,0.5c0.2,0.1,0.3,0.3,0.5,0.4c0.1,0.1,0.2,0.2,0.3,0.3v-1.6H16z"/>
					<polygon class="st47" points="11.6,164.9 16,166.1 16,167.1 11.6,168.4 11.6,167.5 14.7,166.6 11.6,165.8 					"/>
				</g>
				<path class="st47" d="M30.5,174.9v1.2l-0.9,0.3v1.6l0.9,0.3v1.1l-4.4-1.6v-1.3L30.5,174.9z M28.8,176.6l-1.6,0.5l1.6,0.5V176.6z
					"/>
				<path class="st47" d="M43.7,175.2c0.2,0,0.4,0,0.6,0.1c0.2,0.1,0.3,0.2,0.4,0.3c0.1,0.2,0.2,0.4,0.3,0.6
					c0.1,0.2,0.1,0.5,0.1,0.8v1.9h-4.4v-1.7c0-0.4,0-0.6,0-0.8c0-0.2,0.1-0.3,0.2-0.5c0.1-0.2,0.2-0.3,0.3-0.4
					c0.1-0.1,0.3-0.1,0.5-0.1c0.2,0,0.4,0.1,0.6,0.2c0.2,0.1,0.3,0.3,0.4,0.5h0c0.1-0.3,0.2-0.5,0.4-0.7
					C43.2,175.3,43.4,175.2,43.7,175.2z M41.9,176.6c-0.1,0-0.1,0-0.2,0.1c-0.1,0-0.1,0.1-0.2,0.2c0,0.1,0,0.2,0,0.3
					c0,0.1,0,0.3,0,0.5v0.1h0.9v-0.2c0-0.2,0-0.3,0-0.5s0-0.2-0.1-0.3c0-0.1-0.1-0.2-0.2-0.2C42.1,176.6,42,176.6,41.9,176.6z
					 M43.7,176.3c-0.1,0-0.2,0-0.3,0.1c-0.1,0.1-0.1,0.1-0.2,0.3c0,0.1,0,0.2,0,0.4c0,0.2,0,0.3,0,0.5v0.2h1.1v-0.1
					c0-0.3,0-0.5,0-0.7c0-0.1,0-0.3-0.1-0.4c0-0.1-0.1-0.2-0.2-0.2C43.9,176.4,43.8,176.3,43.7,176.3z"/>
				<g>
					<path class="st47" d="M56.6,176.5c-0.1,0-0.2,0-0.3,0.1c-0.1,0-0.1,0.1-0.2,0.2c0,0.1,0,0.2-0.1,0.3c0,0.1,0,0.2,0,0.4v0.4h1.2
						v-0.3c0-0.2,0-0.3,0-0.5s-0.1-0.2-0.1-0.3c-0.1-0.1-0.1-0.1-0.2-0.2C56.8,176.5,56.7,176.5,56.6,176.5z M59.6,174.7v1.4
						l-1.6,1.2v0.5h1.6v1.1h-4.4V177c0-0.3,0-0.5,0-0.7s0.1-0.4,0.2-0.5c0.1-0.2,0.2-0.3,0.4-0.4c0.2-0.1,0.3-0.1,0.6-0.1
						c0.3,0,0.6,0.1,0.8,0.2c0.2,0.1,0.4,0.4,0.5,0.6L59.6,174.7z"/>
					<path class="st47" d="M58.2,171v2.4c0.3,0,0.5-0.1,0.6-0.3c0.1-0.2,0.2-0.4,0.2-0.8c0-0.2,0-0.4-0.1-0.6
						c-0.1-0.2-0.2-0.4-0.3-0.5v-0.1h0.8c0.1,0.2,0.2,0.5,0.2,0.7s0.1,0.4,0.1,0.7c0,0.7-0.1,1.2-0.4,1.5c-0.3,0.4-0.7,0.5-1.3,0.5
						c-0.5,0-1-0.2-1.3-0.5c-0.3-0.3-0.5-0.8-0.5-1.4c0-0.5,0.1-0.9,0.4-1.2c0.3-0.3,0.7-0.4,1.2-0.4H58.2z M57.6,172.1
						c-0.2,0-0.4,0.1-0.5,0.2c-0.1,0.1-0.2,0.3-0.2,0.5c0,0.2,0.1,0.4,0.2,0.5s0.3,0.2,0.5,0.2V172.1z"/>
					<path class="st47" d="M55.8,168.2L55.8,168.2c0,0.1,0,0.2,0,0.3c0,0.1,0,0.2,0,0.2c0,0.2,0,0.3,0.1,0.4
						c0.1,0.1,0.2,0.1,0.4,0.1h0v-0.8h0.7v0.8h2.6v1.1h-2.6v0.5h-0.7v-0.5h-0.1c-0.4,0-0.7-0.1-0.9-0.3c-0.2-0.2-0.3-0.5-0.3-1
						c0-0.2,0-0.3,0-0.4c0-0.1,0-0.2,0-0.3H55.8z"/>
					<rect x="58.5" y="166.6" class="st47" width="1.2" height="1.1"/>
				</g>
				<polyline class="st48" points="9.5,157.8 64.9,157.8 64.9,182.5 				"/>
			</g>
			<path class="st47" d="M25.4,167.6c0.3-0.4-0.1-2.4-1.1-4.1l-3,4.1C22.1,167.8,24.9,168.4,25.4,167.6z M51.5,160.7v0.3
				c0,0,0,0,0.1,0c0.1,0,0.2,0,0.2,0s0.1-0.1,0.1-0.1c0-0.1-0.1-0.2-0.2-0.2L51.5,160.7L51.5,160.7z M51.9,161.6l-0.3-0.4h-0.2v0.4
				h-0.1v-1h0.3c0.3,0,0.4,0.1,0.4,0.3c0,0.1-0.1,0.2-0.2,0.3l0.3,0.5H51.9z M52.4,161.1c0-0.2-0.1-0.4-0.2-0.5
				c-0.1-0.1-0.3-0.2-0.5-0.2c-0.2,0-0.4,0.1-0.5,0.2c-0.1,0.1-0.2,0.3-0.2,0.5c0,0.2,0.1,0.4,0.2,0.5c0.1,0.1,0.3,0.2,0.5,0.2
				s0.4-0.1,0.5-0.2C52.3,161.5,52.4,161.3,52.4,161.1z M50.8,161.1c0-0.2,0.1-0.4,0.2-0.6c0.2-0.2,0.4-0.2,0.6-0.2s0.4,0.1,0.6,0.2
				c0.2,0.2,0.2,0.4,0.2,0.6s-0.1,0.4-0.2,0.6c-0.2,0.2-0.4,0.2-0.6,0.2s-0.4-0.1-0.6-0.2C50.9,161.5,50.8,161.3,50.8,161.1z
				 M49.5,163.2c-0.3,0-0.5,0.1-0.6,0.3c-0.2,0.2-0.2,0.4-0.2,0.7c0,0.3,0.1,0.5,0.2,0.7c0.2,0.2,0.4,0.3,0.7,0.3
				c0.3,0,0.5-0.1,0.6-0.3c0.2-0.2,0.2-0.4,0.2-0.8c0-0.3-0.1-0.5-0.2-0.7C50,163.3,49.8,163.2,49.5,163.2z M46.3,167v-2.5
				c0-0.5-0.1-0.8-0.2-1c-0.1-0.2-0.4-0.3-0.7-0.3c-0.2,0-0.4,0.1-0.5,0.2c-0.2,0.1-0.3,0.2-0.4,0.4v3.2h-0.8v-4.3h0.5l0.2,0.6
				c0.3-0.4,0.7-0.6,1.2-0.6c0.9,0,1.4,0.6,1.4,1.7v2.7H46.3z M41.6,167v-3.6h-0.6v-0.6h1.3v4.3H41.6z M42.1,161.1
				c0.1,0,0.2,0,0.3,0.1c0.1,0.1,0.1,0.2,0.1,0.3c0,0.1,0,0.2-0.1,0.3c-0.1,0.1-0.2,0.1-0.3,0.1c-0.1,0-0.2,0-0.3-0.1
				c-0.1-0.1-0.1-0.2-0.1-0.3s0-0.2,0.1-0.3C41.8,161.1,41.9,161.1,42.1,161.1z M37.1,166.7l0.3-0.7c0.1,0.1,0.3,0.2,0.6,0.3
				c0.2,0.1,0.4,0.1,0.6,0.1c0.3,0,0.6-0.1,0.8-0.3s0.3-0.4,0.3-0.7c0-0.2-0.1-0.4-0.2-0.5c-0.1-0.2-0.4-0.4-0.8-0.6l-0.5-0.2
				c-0.4-0.2-0.7-0.4-0.8-0.7c-0.2-0.3-0.2-0.6-0.2-0.9c0-0.4,0.2-0.8,0.5-1.1c0.3-0.3,0.7-0.4,1.2-0.4c0.6,0,1.1,0.1,1.4,0.3
				l-0.2,0.7c-0.1-0.1-0.3-0.2-0.5-0.2c-0.2-0.1-0.4-0.1-0.6-0.1c-0.3,0-0.5,0.1-0.6,0.2c-0.2,0.2-0.2,0.4-0.2,0.6
				c0,0.1,0,0.3,0.1,0.4c0.1,0.1,0.1,0.2,0.2,0.3c0.1,0.1,0.3,0.2,0.6,0.3l0.5,0.2c0.4,0.2,0.7,0.4,0.8,0.7c0.2,0.3,0.2,0.6,0.2,1
				c0,0.4-0.2,0.8-0.5,1.1c-0.4,0.3-0.8,0.5-1.4,0.5C37.9,167.1,37.5,166.9,37.1,166.7z M32.1,161.1h0.8v4c0,0.4,0.1,0.7,0.3,0.9
				c0.2,0.2,0.5,0.3,0.9,0.3c0.4,0,0.7-0.1,0.9-0.3s0.3-0.5,0.3-0.9v-4h0.8v4.1c0,0.6-0.2,1.1-0.6,1.4c-0.4,0.3-0.9,0.5-1.5,0.5
				c-0.7,0-1.2-0.2-1.5-0.5c-0.4-0.3-0.5-0.8-0.5-1.4V161.1z M28.3,164v2.2c0.3,0,0.5,0,0.6,0c0.5,0,0.9-0.1,1.1-0.3
				c0.2-0.2,0.3-0.5,0.3-0.9c0-0.4-0.1-0.7-0.3-0.8c-0.2-0.2-0.6-0.3-1.1-0.3L28.3,164z M28.3,161.7v1.7c0.2,0,0.4,0,0.6,0
				c0.8,0,1.1-0.3,1.1-0.9c0-0.5-0.3-0.8-1-0.8C28.7,161.7,28.5,161.7,28.3,161.7z M29.1,167h-1.7v-5.9c0.7,0,1.2-0.1,1.5-0.1
				c0.6,0,1,0.1,1.3,0.4c0.3,0.2,0.5,0.6,0.5,1.1c0,0.3-0.1,0.5-0.3,0.7s-0.4,0.4-0.7,0.4c0.5,0.1,0.8,0.3,1,0.6
				c0.2,0.3,0.3,0.6,0.3,1.1c0,0.5-0.2,0.9-0.6,1.2C30.2,166.8,29.7,167,29.1,167z M48.3,167.6c0,0,0.9,0.4,1.2,0.4
				c0.3,0,0.6-0.1,0.8-0.2c0.2-0.1,0.3-0.3,0.3-0.4c0-0.3-0.3-0.5-0.8-0.5c-0.1,0-0.2,0-0.5,0.1c-0.2,0-0.4,0.1-0.5,0.1
				c-0.6,0-0.9-0.2-0.9-0.7c0-0.1,0.1-0.3,0.2-0.4c0.1-0.1,0.3-0.2,0.5-0.2c-0.6-0.3-0.9-0.8-0.9-1.5c0-0.4,0.2-0.8,0.5-1.1
				c0.3-0.3,0.7-0.4,1.2-0.4c0.4,0,0.8,0.1,1,0.3l0.4-0.5l0.5,0.5l-0.5,0.3c0.2,0.3,0.3,0.6,0.3,1c0,0.4-0.1,0.8-0.4,1.1
				s-0.6,0.5-1.1,0.5l-0.6,0.1c-0.1,0-0.2,0-0.3,0.1c-0.1,0-0.2,0.1-0.2,0.2c0,0.1,0.1,0.2,0.4,0.2c0.1,0,0.3,0,0.5-0.1
				c0.2,0,0.4-0.1,0.5-0.1c0.4,0,0.7,0.1,1,0.3c0.2,0.2,0.4,0.5,0.4,0.8c0,0.4-0.2,0.7-0.5,1c-0.4,0.2-0.8,0.4-1.3,0.4
				c-0.3,0-0.6,0-0.9-0.1c-0.1,0-0.2-0.1-0.3-0.1c-1.8-0.9-3.9-0.5-5.8-0.3c-3.9,0.4-10.7,1.7-14.4,0.9c-0.9-0.2-1.5-0.4-2.3-0.8
				c-1.2,1-4.5,0.2-5.7-0.2l1.1-1.4l-1.9-1.5l0.4-0.6l1.9,1.4l1.3-1.8l-1.9-1.5l0.4-0.6l1.9,1.4l1-1.4c0.6,0.8,2.3,3.8,1.8,5.4
				c2.9,1.2,6.1,0.9,9.2,0.7c2.4-0.2,4.7-0.6,7.1-0.9C44.5,167.2,46.4,166.8,48.3,167.6z"/>
		</g>
		<g>
			<rect x="60.5" y="101" class="st46" width="28.3" height="28.3"/>
			<path class="st47" d="M71.5,101.9h1.8v0.9h-1.8V101.9z M76.1,101.9h3.7v0.9h-1.8v0.9H77v0.9h0.9v0.9H77v0.9h-0.9v-0.9h-0.9v0.9
				h0.9v0.9h-0.9v0.9h-0.9v-2.7h-1.8v-1.8h0.9v0.9h0.9v-0.9h0.9v-0.9h0.9V101.9z M68.7,102.8h0.9v0.9h-0.9V102.8z M70.6,102.8h0.9
				v1.8h-0.9v0.9h-1.8v-0.9h0.9v-0.9h0.9V102.8z M73.3,102.8h0.9v0.9h-0.9V102.8z M79.7,102.8h0.9v1.8h-0.9V102.8z M78.8,104.6h0.9
				v0.9h0.9v3.7h-0.9v0.9h0.9v-0.9h0.9v0.9h0.9v-0.9h0.9v0.9h0.9v1.8h0.9v0.9h0.9v0.9h-1.8v-0.9h-3.7V112h0.9V111h-0.9v0.9h-0.9V111
				h-1.8v-0.9h0.9v-1.8h0.9v-1.8h-0.9V104.6z M71.5,105.6h0.9v0.9h-0.9V105.6z M68.7,106.5h0.9v1.8h-0.9V106.5z M70.6,106.5h0.9v1.8
				h-0.9V106.5z M72.4,106.5h0.9v2.7h-0.9V106.5z M77,106.5h0.9v0.9H77V106.5z M76.1,107.4H77v1.8h-0.9v0.9h-1.8v0.9h1.8v-0.9H77
				v2.7h-0.9V112h-0.9v2.7h-0.9v-0.9h-0.9v-0.9h0.9V112h-0.9V111h-1.8v-0.9h1.8v-0.9h1.8v-0.9h0.9V107.4z M77.9,107.4h0.9v0.9h-0.9
				V107.4z M61.4,109.2H66v0.9h0.9v0.9H66v0.9h-1.8V111h0.9v-0.9h-0.9v0.9h-0.9v-0.9h-0.9v0.9h-0.9V109.2z M66.9,109.2h4.6v0.9h-0.9
				v1.8h2.7v0.9h-2.7v0.9h2.7v0.9h-3.7v0.9h-0.9v-1.8h0.9v-3.7h-2.7V109.2z M77,109.2h0.9v0.9H77V109.2z M84.3,109.2h0.9v0.9h-0.9
				V109.2z M86.1,109.2H87v0.9h-0.9V109.2z M87,110.1H88v0.9H87V110.1z M62.3,111h0.9v0.9h-0.9V111z M66.9,111h0.9v0.9h-0.9V111z
				 M63.3,112h0.9v0.9h-0.9V112z M66,112h0.9v0.9H66V112z M67.8,112h0.9v0.9h-0.9V112z M78.8,112h0.9v0.9h-0.9V112z M86.1,112H87
				v0.9h-0.9V112z M61.4,112.9h1.8v0.9h-0.9v0.9h-0.9V112.9z M64.2,112.9h0.9v0.9h-0.9V112.9z M66.9,112.9h0.9v0.9h-0.9V112.9z
				 M77,112.9h0.9v0.9H77V112.9z M63.3,113.8h0.9v0.9h-0.9V113.8z M76.1,113.8H77v0.9h-0.9V113.8z M77.9,113.8h6.4v0.9h-0.9v0.9h0.9
				v0.9h-1.8v-0.9h-1.8v-0.9h-1.8v0.9h1.8v0.9h-0.9v1.8h-0.9v-1.8h-0.9v-0.9H77v-0.9h0.9V113.8z M87,113.8H88v0.9H87V113.8z
				 M62.3,114.7h0.9v0.9h-0.9V114.7z M65.1,114.7H66v0.9h-0.9V114.7z M66.9,114.7h0.9v0.9h-0.9V114.7z M73.3,114.7h0.9v0.9h-0.9
				V114.7z M75.2,114.7h0.9v0.9h-0.9V114.7z M84.3,114.7h1.8v0.9h-1.8V114.7z M63.3,115.6h1.8v0.9h-0.9v2.7h-0.9v-1.8h-0.9v3.7h-0.9
				v-4.6h1.8V115.6z M67.8,115.6h0.9v0.9h-0.9V115.6z M69.7,115.6h0.9v0.9h-0.9V115.6z M71.5,115.6h1.8v0.9h0.9v1.8h1.8v1.8h1.8v0.9
				h0.9v0.9h0.9v1.8h-0.9v-0.9h-0.9V122H77v1.8h-0.9v-0.9h-0.9V122h0.9v-0.9h-0.9v-0.9h-0.9v-0.9h-0.9v-1.8h-0.9v-0.9h-0.9V115.6z
				 M74.2,115.6h0.9v0.9h-0.9V115.6z M86.1,115.6H87v0.9h-0.9V115.6z M66.9,116.5h0.9v0.9h-0.9V116.5z M68.7,116.5h0.9v6.4h-0.9
				v-2.7h-0.9v-0.9h0.9v-0.9h-0.9v-0.9h0.9V116.5z M70.6,116.5h0.9v0.9h0.9v0.9h-0.9v1.8h2.7v0.9h-0.9v0.9h-1.8v-0.9h-0.9V116.5z
				 M75.2,116.5h2.7v0.9H77v0.9h-0.9v-0.9h-0.9V116.5z M84.3,116.5h1.8v2.7h-0.9v-1.8h-0.9V116.5z M65.1,117.4H66v0.9h1.8v0.9h-0.9
				v0.9h0.9v0.9h-3.7v-1.8h0.9v0.9H66v-0.9h-0.9V117.4z M81.6,117.4h2.7v0.9h-2.7V117.4z M87,117.4H88v0.9H87V117.4z M77,118.4h1.8
				v0.9H77V118.4z M79.7,119.3h0.9v0.9h-0.9V119.3z M82.5,119.3h0.9v0.9h-0.9V119.3z M86.1,119.3H87v0.9H88v1.8h-1.8v0.9h-1.8v-1.8
				h0.9v-0.9h0.9V119.3z M78.8,120.2h0.9v0.9h-0.9V120.2z M74.2,121.1h0.9v0.9h-0.9V121.1z M70.6,122h0.9v0.9h1.8v0.9h-3.7v-0.9h0.9
				V122z M73.3,122h0.9v0.9h-0.9V122z M87,122.9H88v0.9H87V122.9z M68.7,123.8h0.9v3.7h0.9v-0.9h1.8v-0.9h0.9v1.8h-1.8v0.9h-2.7
				V123.8z M73.3,123.8h1.8v0.9h-1.8V123.8z M77,123.8h0.9v0.9H77V123.8z M85.2,123.8H87v0.9h-0.9v0.9H87v1.8h-0.9v-0.9h-0.9v0.9
				h-3.7v-0.9h-0.9v-0.9h3.7v-0.9h0.9V123.8z M70.6,124.8h1.8v0.9h-1.8V124.8z M78.8,124.8h1.8v0.9h-1.8V124.8z M87,124.8H88v0.9H87
				V124.8z M74.2,125.7H77v1.8h-0.9v0.9h-0.9v-0.9h-0.9V125.7z M77.9,126.6h2.7v0.9h-0.9v0.9h-0.9v-0.9h-0.9V126.6z M73.3,127.5h0.9
				v0.9h-0.9V127.5z M77,127.5h0.9v0.9H77V127.5z M85.2,127.5h0.9v0.9h-0.9V127.5z"/>
			<path class="st47" d="M61.4,101.9h6.4l0,0l0,0v6.4l0,0l0,0h-6.4l0,0l0,0V101.9L61.4,101.9L61.4,101.9z M62.3,102.8h4.6l0,0l0,0
				v4.6l0,0l0,0h-4.6l0,0l0,0V102.8L62.3,102.8L62.3,102.8z M63.3,103.7H66l0,0l0,0v2.7l0,0l0,0h-2.7l0,0l0,0V103.7L63.3,103.7
				L63.3,103.7z M81.6,101.9H88l0,0l0,0v6.4l0,0l0,0h-6.4l0,0l0,0V101.9L81.6,101.9L81.6,101.9z M82.5,102.8H87l0,0l0,0v4.6l0,0l0,0
				h-4.6l0,0l0,0V102.8L82.5,102.8L82.5,102.8z M83.4,103.7h2.7l0,0l0,0v2.7l0,0l0,0h-2.7l0,0l0,0V103.7L83.4,103.7L83.4,103.7z
				 M61.4,122h6.4l0,0l0,0v6.4l0,0l0,0h-6.4l0,0l0,0V122L61.4,122L61.4,122z M62.3,122.9h4.6l0,0l0,0v4.6l0,0l0,0h-4.6l0,0l0,0
				V122.9L62.3,122.9L62.3,122.9z M63.3,123.8H66l0,0l0,0v2.7l0,0l0,0h-2.7l0,0l0,0V123.8L63.3,123.8L63.3,123.8z M79.7,120.2h4.6
				l0,0l0,0v4.6l0,0l0,0h-4.6l0,0l0,0V120.2L79.7,120.2L79.7,120.2z M80.6,121.1h2.7l0,0l0,0v2.7l0,0l0,0h-2.7l0,0l0,0V121.1
				L80.6,121.1L80.6,121.1z M81.6,122h0.9l0,0l0,0v0.9l0,0l0,0h-0.9l0,0l0,0V122L81.6,122L81.6,122z"/>
			<g>
				<path class="st46" d="M58.5,128.7h-2.5v0.6h2.5V128.7z M55.8,128.7h-0.6v0.6h0.6V128.7z"/>
				<path class="st46" d="M58.5,128v-0.6h-1.2c-0.8,0-0.9-0.4-0.9-0.5c0-0.1,0-0.4,0.6-0.4h1.4V126h-1.5c-0.3,0-1.1,0-1.1,0.8
					c0,0.5,0.4,0.7,0.6,0.7h-0.6v0.5H58.5z"/>
				<path class="st46" d="M58.5,124.7h-2v-0.5h-0.4v0.5c-0.4,0-0.5,0-0.5-0.4c0,0,0-0.1,0-0.1h-0.4c0,0.4,0,0.6,0.1,0.8
					c0.2,0.3,0.5,0.3,0.8,0.3v0.4h0.4v-0.4h2V124.7z"/>
				<path class="st46" d="M57.3,121.6c-0.7,0-1.3,0.4-1.3,1.1c0,0.8,0.6,1.2,1.3,1.2c0.6,0,1.3-0.3,1.3-1.1
					C58.6,122.1,58.1,121.6,57.3,121.6z M57.3,122.2c0.3,0,0.8,0,0.8,0.6c0,0.6-0.7,0.6-0.8,0.6c-0.4,0-0.8-0.1-0.8-0.6
					C56.5,122.3,56.8,122.2,57.3,122.2z"/>
			</g>
		</g>
		<g>
			<rect x="42.6" y="111.6" class="st49" width="9.2" height="9.2"/>
			<rect x="44.4" y="113.4" class="st49" width="5.4" height="5.4"/>
		</g>
		<g>
			<g>
				<path class="st46" d="M45.8,137.4c0.1,0,0.3,0,0.4,0.1c0.1,0.1,0.1,0.2,0.1,0.3c0,0.1,0,0.3-0.1,0.4c-0.1,0.1-0.2,0.1-0.4,0.1
					c-0.1,0-0.3,0-0.4-0.1c-0.1-0.1-0.1-0.2-0.1-0.4s0-0.3,0.1-0.4C45.6,137.5,45.7,137.4,45.8,137.4z M45.4,143.7v-3.9h-0.6v-0.7
					h1.4v4.5H45.4z"/>
				<path class="st46" d="M50.3,143.7V141c0-0.5-0.1-0.8-0.2-1c-0.1-0.2-0.4-0.3-0.7-0.3c-0.2,0-0.4,0.1-0.6,0.2s-0.4,0.2-0.5,0.4
					v3.4h-0.8v-4.5H48l0.3,0.6c0.3-0.4,0.7-0.7,1.3-0.7c1,0,1.5,0.6,1.5,1.8v2.8H50.3z"/>
				<path class="st46" d="M52.1,144.9l0.4-0.6c0.5,0.3,0.9,0.5,1.3,0.5c0.4,0,0.7-0.1,0.9-0.2c0.2-0.1,0.3-0.3,0.3-0.5
					c0-0.4-0.3-0.6-0.8-0.6c-0.1,0-0.3,0-0.5,0.1c-0.2,0-0.4,0.1-0.6,0.1c-0.6,0-1-0.2-1-0.7c0-0.2,0.1-0.3,0.2-0.4
					c0.2-0.1,0.3-0.2,0.6-0.3c-0.6-0.3-1-0.8-1-1.6c0-0.5,0.2-0.9,0.5-1.2c0.3-0.3,0.7-0.5,1.2-0.5c0.4,0,0.8,0.1,1,0.3l0.4-0.5
					l0.5,0.5l-0.5,0.4c0.2,0.3,0.3,0.6,0.3,1.1c0,0.5-0.1,0.8-0.4,1.2c-0.3,0.3-0.7,0.5-1.1,0.5l-0.7,0.1c-0.1,0-0.2,0-0.3,0.1
					c-0.1,0.1-0.2,0.1-0.2,0.2c0,0.1,0.1,0.2,0.4,0.2c0.1,0,0.3,0,0.6-0.1c0.3,0,0.4-0.1,0.6-0.1c0.4,0,0.8,0.1,1,0.3
					c0.3,0.2,0.4,0.5,0.4,0.9c0,0.4-0.2,0.8-0.6,1c-0.4,0.3-0.8,0.4-1.4,0.4c-0.3,0-0.6-0.1-0.9-0.2
					C52.5,145.2,52.2,145.1,52.1,144.9z M53.8,139.7c-0.3,0-0.5,0.1-0.7,0.3c-0.2,0.2-0.3,0.4-0.3,0.7c0,0.3,0.1,0.6,0.3,0.8
					c0.2,0.2,0.4,0.3,0.7,0.3c0.3,0,0.5-0.1,0.7-0.3c0.2-0.2,0.2-0.5,0.2-0.8c0-0.3-0.1-0.5-0.3-0.7C54.2,139.8,54,139.7,53.8,139.7
					z"/>
				<path class="st46" d="M60.4,141.5h-3.3c0,0.5,0.1,0.9,0.4,1.2c0.3,0.2,0.6,0.4,1,0.4c0.5,0,0.8-0.1,1.2-0.4l0.3,0.6
					c-0.1,0.1-0.3,0.2-0.6,0.3c-0.3,0.1-0.7,0.2-1.1,0.2c-0.6,0-1.1-0.2-1.5-0.6c-0.4-0.4-0.7-1-0.7-1.7c0-0.8,0.2-1.4,0.7-1.8
					c0.4-0.4,0.9-0.6,1.4-0.6c0.6,0,1.2,0.2,1.5,0.5c0.4,0.4,0.5,0.8,0.5,1.4C60.5,141.2,60.5,141.3,60.4,141.5z M58.5,139.7
					c-0.4,0-0.7,0.1-0.9,0.3c-0.2,0.2-0.4,0.5-0.4,0.8h2.5c0-0.3-0.1-0.6-0.3-0.8C59.1,139.8,58.8,139.7,58.5,139.7z"/>
				<path class="st46" d="M64.1,143.7V141c0-0.5-0.1-0.8-0.2-1c-0.1-0.2-0.4-0.3-0.7-0.3c-0.2,0-0.4,0.1-0.6,0.2s-0.4,0.2-0.5,0.4
					v3.4h-0.8v-4.5h0.6l0.3,0.6c0.3-0.4,0.7-0.7,1.3-0.7c1,0,1.5,0.6,1.5,1.8v2.8H64.1z"/>
				<path class="st46" d="M66.9,137.4c0.1,0,0.3,0,0.4,0.1c0.1,0.1,0.1,0.2,0.1,0.3c0,0.1,0,0.3-0.1,0.4c-0.1,0.1-0.2,0.1-0.4,0.1
					c-0.1,0-0.3,0-0.4-0.1c-0.1-0.1-0.1-0.2-0.1-0.4s0-0.3,0.1-0.4C66.7,137.5,66.8,137.4,66.9,137.4z M66.5,143.7v-3.9h-0.6v-0.7
					h1.4v4.5H66.5z"/>
				<path class="st46" d="M69.3,139.1v2.9c0,0.7,0.3,1.1,0.9,1.1c0.3,0,0.5-0.1,0.7-0.2c0.2-0.2,0.4-0.3,0.4-0.5v-3.2h0.8v4.5h-0.8
					V143c-0.1,0.2-0.3,0.3-0.5,0.5c-0.3,0.1-0.5,0.2-0.8,0.2c-0.5,0-0.9-0.1-1.1-0.4c-0.3-0.3-0.4-0.7-0.4-1.2v-3H69.3z"/>
				<path class="st46" d="M78.6,143.7v-2.9c0-0.7-0.3-1.1-0.9-1.1c-0.2,0-0.4,0.1-0.5,0.2c-0.2,0.1-0.3,0.3-0.3,0.4v3.4h-0.8v-3.2
					c0-0.2-0.1-0.4-0.3-0.5c-0.2-0.1-0.4-0.2-0.7-0.2c-0.2,0-0.3,0.1-0.5,0.2c-0.2,0.1-0.3,0.3-0.4,0.4v3.4h-0.8v-4.5h0.5l0.3,0.5
					c0.3-0.4,0.7-0.6,1.2-0.6c0.7,0,1.1,0.2,1.4,0.6c0.1-0.2,0.3-0.3,0.5-0.4s0.5-0.2,0.8-0.2c0.5,0,0.8,0.1,1.1,0.4
					c0.3,0.3,0.4,0.7,0.4,1.2v3H78.6z"/>
			</g>
			<path class="st50" d="M25.5,138.9l4.3,4.3h3.8l5.4-5.4l3.4,3.4L31.7,152L21,141.2l2.3-2.3c-0.1-0.2-0.2-0.4-0.2-0.6
				c0-0.7,0.6-1.2,1.2-1.2s1.2,0.6,1.2,1.2C25.6,138.5,25.6,138.7,25.5,138.9z M31.7,130.5l3.5,3.5l-3.5,3.5l-2.4-2.4
				c-0.2,0.1-0.4,0.1-0.6,0.1c-0.7,0-1.2-0.6-1.2-1.2s0.6-1.2,1.2-1.2c0.2,0,0.4,0.1,0.6,0.2L31.7,130.5z M31.7,131.5l-1.9,1.9
				c0.1,0.2,0.1,0.4,0.1,0.6c0,0.2-0.1,0.5-0.2,0.6l1.9,1.9l2.5-2.5L31.7,131.5z M23.8,139.4l-1.8,1.8l9.8,9.8l9.8-9.8l-2.4-2.4
				l-5.1,5.1h-4.4l-4.5-4.5c-0.2,0.1-0.4,0.2-0.6,0.2C24.2,139.6,24,139.5,23.8,139.4z M37.2,136.4l-4.3,4.3h-2.3l-3.5-3.5
				c-0.2,0.1-0.3,0.1-0.5,0.1c-0.7,0-1.2-0.6-1.2-1.2c0-0.7,0.6-1.2,1.2-1.2s1.2,0.6,1.2,1.2c0,0.2-0.1,0.5-0.2,0.7l3.3,3.3h1.7
				l4.4-4.4l0.5,0.5L37.2,136.4z"/>
		</g>
		<g>
			<g>
				<polygon class="st51" points="29,80 24.9,80 24.9,79 27.3,75.4 25,75.4 25,74.2 28.9,74.2 28.9,75.3 26.4,78.9 29,78.9 				"/>
				<path class="st51" d="M33.5,80h-3.3v-1h1V76h-1V75c0.2,0,0.3,0,0.5,0c0.1,0,0.3-0.1,0.4-0.1c0.1-0.1,0.2-0.1,0.3-0.3
					c0.1-0.1,0.1-0.2,0.1-0.4h1.1V79h1V80z"/>
			</g>
			<g>
				<polyline class="st52" points="40,83.6 40,89.2 32.1,89.2 				"/>
				<polyline class="st52" points="18.7,83.6 18.7,89.2 26.7,89.2 30.3,92.8 				"/>
			</g>
		</g>
		<g>
			<g>
				<polygon class="st51" points="71.5,80 67.4,80 67.4,79 69.9,75.4 67.5,75.4 67.5,74.2 71.4,74.2 71.4,75.3 68.9,78.9 71.5,78.9 
									"/>
				<path class="st51" d="M76.3,80h-3.9v-1c0.3-0.3,0.6-0.5,0.9-0.8c0.3-0.3,0.5-0.5,0.7-0.7c0.3-0.3,0.5-0.6,0.6-0.8
					c0.1-0.2,0.2-0.5,0.2-0.7c0-0.3-0.1-0.5-0.2-0.6c-0.1-0.1-0.4-0.2-0.6-0.2c-0.2,0-0.4,0-0.6,0.1c-0.2,0.1-0.4,0.2-0.6,0.4h-0.1
					v-1.3c0.2-0.1,0.4-0.2,0.7-0.2c0.3-0.1,0.6-0.1,0.9-0.1c0.6,0,1.1,0.2,1.4,0.5c0.3,0.3,0.5,0.7,0.5,1.3c0,0.4-0.1,0.7-0.2,1
					c-0.2,0.3-0.4,0.7-0.7,1c-0.2,0.2-0.4,0.4-0.6,0.6c-0.2,0.2-0.3,0.3-0.4,0.4h2.2V80z"/>
			</g>
			<g>
				<polyline class="st52" points="82.5,83.6 82.5,89.2 74.6,89.2 				"/>
				<polyline class="st52" points="61.2,83.6 61.2,89.2 69.2,89.2 72.8,92.8 				"/>
			</g>
		</g>
	</g>
</g>
</svg>
