<svg width="103" height="81" viewBox="0 0 103 81" fill="none" xmlns="http://www.w3.org/2000/svg">
<g id="isotype-b16">
<path fill-rule="evenodd" clip-rule="evenodd" d="M28.6888 22.9709L51.316 0.34375L73.9432 22.9709L51.316 45.5981L28.6888 22.9709ZM40.0024 22.9709L51.316 34.2845L62.6296 22.9709L51.316 11.6573L40.0024 22.9709Z" fill="white"/>
<path fill-rule="evenodd" clip-rule="evenodd" d="M22.0953 29.5311L55.638 63.1998H44.2168L22.0716 40.8685L11.5403 51.3998L32.9403 72.7998H65.2381L73.2381 80.7998H29.6266L0.226562 51.3998L22.0953 29.5311ZM63.9066 58.2013L58.2497 52.5444L80.7556 29.8468L86.4454 35.5443L63.9066 58.2013ZM74.2874 68.582L79.9427 74.2374L79.5524 74.6277L102.621 51.7418L96.9468 46.06L74.2874 68.582Z" fill="white"/>
</g>
</svg>
