<svg width="101" height="87" viewBox="0 0 101 87" fill="none" xmlns="http://www.w3.org/2000/svg">
<g id="isotype-bes">
<path fill-rule="evenodd" clip-rule="evenodd" d="M29.0528 23.3108L51.68 0.683594L74.3072 23.3108L51.68 45.938L29.0528 23.3108ZM40.3664 23.3108L51.68 34.6244L62.9936 23.3108L51.68 11.9972L40.3664 23.3108Z" fill="white"/>
<path fill-rule="evenodd" clip-rule="evenodd" d="M22.4384 29.8167L47.8933 55.4854H55.9598L80.98 30.2514L100.22 49.0222L94.6333 54.7485L81.0735 41.5193L59.2935 63.4854H44.56L22.4147 41.1541L11.8945 51.6742L33.4743 73.0854H61.2266V81.0854H30.1789L0.558594 51.6965L22.4384 29.8167Z" fill="white"/>
<path fill-rule="evenodd" clip-rule="evenodd" d="M74.4266 86.8857L68.0267 81.8857C70.0267 79.6857 72.2266 77.4857 74.4266 75.2857C75.2266 74.4857 75.8267 73.8857 76.0267 73.6857C75.4267 73.4857 73.2267 73.0857 70.0267 72.2857C67.6267 71.6857 66.0266 71.2858 65.2266 71.0858L67.8266 63.6857C71.4266 65.0857 74.8267 66.8857 77.6267 68.6857C77.0267 64.0857 76.6267 60.2857 76.6267 57.4857H84.0267C84.0267 59.4857 83.6266 63.2857 82.8266 68.8857C83.4267 68.6857 84.6266 68.0857 86.4266 67.2857C89.0266 66.0857 91.2266 65.0857 93.4266 64.2857L95.6267 71.8857C92.4267 72.6857 88.8267 73.2857 84.8267 73.8857L89.8267 79.6857C90.8267 80.8857 91.6267 81.8857 92.2267 82.4857L85.8267 86.6857L80.2267 77.2857C78.6267 80.2857 76.6266 83.4857 74.4266 86.8857Z" fill="white"/>
</g>
</svg>
