<svg width="128" height="128" viewBox="0 0 128 128" fill="none" xmlns="http://www.w3.org/2000/svg">
<path id="isotype-ingenium" fill-rule="evenodd" clip-rule="evenodd" d="M52.7498 12.273L64.1752 0.847656L86.8024 23.4749L64.1752 46.1021L53.0409 34.9678C51.4027 35.7867 49.5612 36.2593 47.6123 36.2893C47.5831 38.1835 47.1359 39.9763 46.3588 41.5795L60.4694 55.69H68.3557L93.6936 30.3525L99.3504 36.0094L71.6693 63.69H57.1556L40.7686 47.303C39.1545 48.1331 37.3379 48.625 35.4124 48.6848C35.387 50.3675 35.0317 51.9703 34.4084 53.4313L54.4686 73.4915H74.547L105.591 42.2363L127.857 64.5028L64.4117 127.948L0.754883 64.2915L11.3404 53.706C10.6169 52.1168 10.2139 50.351 10.2139 48.491C10.2139 41.6655 15.6409 36.1076 22.4153 35.8971C22.5179 29.0936 28.0128 23.5974 34.8157 23.4925C34.9217 16.6252 40.5216 11.0908 47.4142 11.0908C49.3214 11.0908 51.1296 11.5146 52.7498 12.273ZM16.7962 59.5638L12.0686 64.2915L64.4117 116.635L116.544 64.5028L105.61 53.5693L77.8766 81.4915H51.1549L29.0853 59.4218C27.2384 60.4837 25.0971 61.091 22.8138 61.091C20.6345 61.091 18.5843 60.5376 16.7962 59.5638ZM58.6955 29.3088L64.1752 34.7885L75.4888 23.4749L64.1752 12.1613L58.5487 17.7877C59.4842 19.5486 60.0142 21.5578 60.0142 23.6908C60.0142 25.7095 59.5395 27.6174 58.6955 29.3088ZM42.8142 23.6908C42.8142 21.1503 44.8737 19.0908 47.4142 19.0908C49.9547 19.0908 52.0142 21.1503 52.0142 23.6908C52.0142 26.2313 49.9547 28.2908 47.4142 28.2908C44.8737 28.2908 42.8142 26.2313 42.8142 23.6908ZM30.4138 36.091C30.4138 33.5505 32.4733 31.491 35.0139 31.491C37.5544 31.491 39.6138 33.5504 39.6138 36.091C39.6138 38.6315 37.5544 40.691 35.0139 40.691C32.4733 40.691 30.4138 38.6315 30.4138 36.091ZM22.8138 43.891C20.2733 43.891 18.2139 45.9504 18.2139 48.491C18.2139 51.0315 20.2733 53.091 22.8138 53.091C25.3543 53.091 27.4138 51.0315 27.4138 48.491C27.4138 45.9504 25.3543 43.891 22.8138 43.891Z" fill="#FFD800"/>
</svg>
