<svg width="101" height="87" viewBox="0 0 101 87" fill="none" xmlns="http://www.w3.org/2000/svg">
<path fill-rule="evenodd" clip-rule="evenodd" d="M29.2608 23.2327L51.888 0.605469L74.5152 23.2327L51.888 45.8599L29.2608 23.2327ZM40.5744 23.2327L51.888 34.5463L63.2016 23.2327L51.888 11.9191L40.5744 23.2327Z" fill="black"/>
<path fill-rule="evenodd" clip-rule="evenodd" d="M22.6464 29.7385L48.1013 55.4072H56.1678L81.188 30.1733L100.428 48.9441L94.8413 54.6704L81.2815 41.4412L59.5015 63.4072H44.768L22.6227 41.076L12.1025 51.5961L33.6823 73.0072H61.4347V81.0072H30.3869L0.766602 51.6183L22.6464 29.7385Z" fill="black"/>
<path fill-rule="evenodd" clip-rule="evenodd" d="M74.6346 86.8076L68.2347 81.8076C70.2347 79.6076 72.4346 77.4076 74.6346 75.2076C75.4346 74.4076 76.0347 73.8076 76.2347 73.6076C75.6347 73.4076 73.4347 73.0076 70.2347 72.2076C67.8347 71.6076 66.2347 71.2076 65.4347 71.0076L68.0346 63.6076C71.6346 65.0076 75.0347 66.8076 77.8347 68.6076C77.2347 64.0076 76.8347 60.2076 76.8347 57.4076H84.2347C84.2347 59.4076 83.8347 63.2076 83.0347 68.8076C83.6347 68.6076 84.8346 68.0076 86.6346 67.2076C89.2346 66.0076 91.4346 65.0076 93.6346 64.2076L95.8347 71.8076C92.6347 72.6076 89.0347 73.2076 85.0347 73.8076L90.0347 79.6076C91.0347 80.8076 91.8347 81.8076 92.4347 82.4076L86.0347 86.6076L80.4347 77.2076C78.8347 80.2076 76.8346 83.4076 74.6346 86.8076Z" fill="black"/>
</svg>
