<svg width="103" height="81" viewBox="0 0 103 81" fill="none" xmlns="http://www.w3.org/2000/svg">
<path fill-rule="evenodd" clip-rule="evenodd" d="M28.8968 22.8928L51.524 0.265625L74.1512 22.8928L51.524 45.52L28.8968 22.8928ZM40.2104 22.8928L51.524 34.2064L62.8376 22.8928L51.524 11.5792L40.2104 22.8928Z" fill="black"/>
<path fill-rule="evenodd" clip-rule="evenodd" d="M22.3033 29.4529L55.846 63.1217H44.4248L22.2796 40.7904L11.7483 51.3216L33.1483 72.7217H65.4461L73.4461 80.7217H29.8346L0.43457 51.3216L22.3033 29.4529ZM64.1146 58.1231L58.4577 52.4662L80.9636 29.7687L86.6534 35.4662L64.1146 58.1231ZM74.4954 68.5039L80.1507 74.1592L79.7604 74.5496L102.829 51.6637L97.1548 45.9819L74.4954 68.5039Z" fill="black"/>
</svg>
