<svg width="102" height="81" viewBox="0 0 102 81" fill="none" xmlns="http://www.w3.org/2000/svg">
<path fill-rule="evenodd" clip-rule="evenodd" d="M43.0755 11.7477L54.501 0.322266L77.1282 22.9495L54.501 45.5767L43.3667 34.4424C43.3815 34.435 43.3962 34.4275 43.411 34.4201C41.7617 35.2528 39.9044 35.7336 37.9378 35.7639C37.9084 37.6578 37.4613 39.4503 36.6843 41.0533L50.7956 55.1646H58.6819L84.0199 29.8271L89.6767 35.4841L61.9956 63.1646H47.4819L31.0941 46.7768C29.4802 47.6069 27.6638 48.0987 25.7386 48.1586C25.7132 49.8417 25.3579 51.4448 24.7344 52.9061L44.7949 72.9666H64.8813L96.0064 41.8418L101.663 47.4987L68.195 80.9666H41.4812L19.4109 58.8964C17.5642 59.958 15.4231 60.5652 13.14 60.5652C6.18122 60.5652 0.540039 54.924 0.540039 47.9652C0.540039 41.1401 5.9667 35.5823 12.7407 35.3714C12.8431 28.5677 18.3381 23.0712 25.1412 22.9664C25.2476 16.0994 30.8473 10.5654 37.7397 10.5654C39.6469 10.5654 41.4552 10.9892 43.0755 11.7477ZM49.0211 28.7832L54.501 34.2631L65.8146 22.9495L54.501 11.6359L48.8743 17.2625C49.8098 19.0234 50.3397 21.0325 50.3397 23.1654C50.3397 25.1841 49.865 27.0919 49.0211 28.7832ZM33.1397 23.1654C33.1397 20.6249 35.1992 18.5654 37.7397 18.5654C40.2802 18.5654 42.3397 20.6249 42.3397 23.1654C42.3397 25.7059 40.2802 27.7654 37.7397 27.7654C35.1992 27.7654 33.1397 25.706 33.1397 23.1654ZM20.7393 35.5648C20.7393 33.0244 22.7988 30.9648 25.3393 30.9648C27.8798 30.9648 29.9393 33.0243 29.9393 35.5648C29.9393 38.1054 27.8798 40.1648 25.3393 40.1648C22.7988 40.1648 20.7393 38.1053 20.7393 35.5648ZM13.14 43.3652C10.5995 43.3652 8.54005 45.4247 8.54005 47.9652C8.54005 50.5058 10.5995 52.5652 13.14 52.5652C15.6805 52.5652 17.74 50.5058 17.74 47.9652C17.74 45.4247 15.6805 43.3652 13.14 43.3652Z" fill="black"/>
</svg>
