<svg width="103" height="82" viewBox="0 0 103 82" fill="none" xmlns="http://www.w3.org/2000/svg">
<path fill-rule="evenodd" clip-rule="evenodd" d="M45.5884 17.914C46.5109 19.6654 47.0331 21.6606 47.0331 23.7777C47.0331 25.7738 46.569 27.6614 45.7428 29.3386L51.2669 34.8627L62.5805 23.5491L51.2669 12.2355L45.5884 17.914ZM40.1167 35.0261C38.5194 35.8348 36.7265 36.3132 34.8279 36.3717C34.7708 38.2759 34.3003 40.0679 33.5022 41.662L47.5003 55.7778H55.5669L80.7468 30.3838L102.601 52.2895L73.2813 81.3778H29.5768L0.176758 51.9777L10.8114 41.3432C10.0551 39.7192 9.6338 37.902 9.6338 35.9779C9.6338 29.1008 15.016 23.5892 21.8391 23.3839C22.0472 16.6073 27.6061 11.1777 34.4331 11.1777C36.3563 11.1777 38.1789 11.6086 39.8096 12.3791L51.2669 0.921875L73.8941 23.5491L51.2669 46.1763L40.1167 35.0261ZM16.3331 47.1352L11.4905 51.9777L32.8905 73.3778H69.9861L91.2718 52.2604L80.7642 41.7282L58.9005 63.7778H44.167L27.821 47.2944C26.1413 48.1172 24.246 48.5779 22.2339 48.5779C20.0954 48.5779 18.089 48.0575 16.3331 47.1352ZM34.4331 19.1777C31.8926 19.1777 29.833 21.2372 29.833 23.7777C29.833 26.3182 31.8926 28.3777 34.4331 28.3777C36.9736 28.3777 39.0331 26.3183 39.0331 23.7777C39.0331 21.2372 36.9736 19.1777 34.4331 19.1777ZM22.2339 31.3779C19.643 31.3779 17.6338 33.3871 17.6338 35.9779C17.6338 38.5687 19.643 40.5779 22.2339 40.5779C24.8247 40.5779 26.8338 38.5688 26.8338 35.9779C26.8338 33.387 24.8247 31.3779 22.2339 31.3779Z" fill="black"/>
</svg>
