<svg width="128" height="128" viewBox="0 0 128 128" fill="none" xmlns="http://www.w3.org/2000/svg">
<g id="isotype-ingenium">
<path fill-rule="evenodd" clip-rule="evenodd" d="M52.2392 11.4254L63.6645 0L86.2918 22.6272L63.6645 45.2544L52.5302 34.1201C50.8921 34.9391 49.0505 35.4116 47.1016 35.4416C47.0724 37.3358 46.6252 39.1286 45.8482 40.7318L59.9587 54.8423H67.845L93.183 29.5049L98.8398 35.1618L71.1587 62.8423H56.645L40.258 46.4553C38.6438 47.2855 36.8272 47.7773 34.9017 47.8371C34.8763 49.5198 34.521 51.1226 33.8977 52.5836L53.958 72.6438H74.0363L105.08 41.3887L127.347 63.6551L63.9011 127.101L0.244141 63.4438L10.8296 52.8583C10.1062 51.2692 9.70314 49.5033 9.70314 47.6433C9.70314 40.8179 15.1302 35.26 21.9046 35.0495C22.0072 28.246 27.5021 22.7497 34.305 22.6448C34.411 15.7775 40.0109 10.2432 46.9035 10.2432C48.8107 10.2432 50.6189 10.6669 52.2392 11.4254ZM16.2855 58.7162L11.5579 63.4438L63.9011 115.787L116.033 63.6551L105.099 52.7216L77.366 80.6438H50.6442L28.5745 58.5741C26.7277 59.636 24.5864 60.2433 22.3031 60.2433C20.1237 60.2433 18.0736 59.69 16.2855 58.7162ZM58.1849 28.4611L63.6645 33.9408L74.9782 22.6272L63.6645 11.3136L58.038 16.9401C58.9736 18.701 59.5036 20.7102 59.5036 22.8432C59.5036 24.8619 59.0288 26.7697 58.1849 28.4611ZM42.3035 22.8432C42.3035 20.3026 44.363 18.2432 46.9035 18.2432C49.444 18.2432 51.5036 20.3027 51.5036 22.8432C51.5036 25.3837 49.444 27.4432 46.9035 27.4432C44.363 27.4432 42.3035 25.3837 42.3035 22.8432ZM29.9031 35.2433C29.9031 32.7028 31.9626 30.6433 34.5032 30.6433C37.0437 30.6433 39.1031 32.7028 39.1031 35.2433C39.1031 37.7838 37.0437 39.8433 34.5032 39.8433C31.9626 39.8433 29.9031 37.7838 29.9031 35.2433ZM22.3031 43.0433C19.7626 43.0433 17.7031 45.1028 17.7031 47.6433C17.7031 50.1838 19.7626 52.2433 22.3031 52.2433C24.8436 52.2433 26.9031 50.1838 26.9031 47.6433C26.9031 45.1028 24.8436 43.0433 22.3031 43.0433Z" fill="white"/>
</g>
</svg>
