<svg width="102" height="82" viewBox="0 0 102 82" fill="none" xmlns="http://www.w3.org/2000/svg">
<g id="isotype-origen">
<path fill-rule="evenodd" clip-rule="evenodd" d="M42.8675 11.8258L54.293 0.400391L76.9202 23.0276L54.293 45.6548L43.1586 34.5205C43.1735 34.5131 43.1882 34.5056 43.203 34.4982C41.5537 35.3309 39.6964 35.8117 37.7298 35.842C37.7004 37.7359 37.2532 39.5285 36.4763 41.1315L50.5876 55.2427H58.4739L83.8119 29.9053L89.4687 35.5622L61.7876 63.2427H47.2739L30.8861 46.855C29.2722 47.685 27.4558 48.1768 25.5306 48.2368C25.5052 49.9198 25.1499 51.5229 24.5264 52.9842L44.5869 73.0447H64.6733L95.7984 41.9199L101.455 47.5768L67.987 81.0447H41.2732L19.2029 58.9745C17.3562 60.0362 15.215 60.6434 12.932 60.6434C5.97321 60.6434 0.332031 55.0021 0.332031 48.0434C0.332031 41.2182 5.75869 35.6604 12.5327 35.4496C12.6351 28.6459 18.1301 23.1494 24.9332 23.0445C25.0396 16.1775 30.6393 10.6436 37.5317 10.6436C39.4389 10.6436 41.2472 11.0673 42.8675 11.8258ZM48.8131 28.8613L54.293 34.3412L65.6066 23.0276L54.293 11.714L48.6663 17.3407C49.6017 19.1015 50.1317 21.1106 50.1317 23.2436C50.1317 25.2622 49.657 27.17 48.8131 28.8613ZM32.9317 23.2436C32.9317 20.703 34.9912 18.6436 37.5317 18.6436C40.0722 18.6436 42.1317 20.7031 42.1317 23.2436C42.1317 25.784 40.0722 27.8436 37.5317 27.8436C34.9912 27.8436 32.9317 25.7841 32.9317 23.2436ZM20.5313 35.643C20.5313 33.1025 22.5908 31.043 25.1313 31.043C27.6718 31.043 29.7313 33.1024 29.7313 35.643C29.7313 38.1835 27.6718 40.243 25.1313 40.243C22.5908 40.243 20.5313 38.1835 20.5313 35.643ZM12.932 43.4434C10.3915 43.4434 8.33204 45.5028 8.33204 48.0434C8.33204 50.5839 10.3915 52.6434 12.932 52.6434C15.4725 52.6434 17.532 50.5839 17.532 48.0434C17.532 45.5028 15.4725 43.4434 12.932 43.4434Z" fill="white"/>
</g>
</svg>
