<svg width="104" height="81" viewBox="0 0 104 81" fill="none" xmlns="http://www.w3.org/2000/svg">
<g id="isotype-zclim">
<path fill-rule="evenodd" clip-rule="evenodd" d="M46.3804 16.9921C47.3029 18.7436 47.8251 20.7387 47.8251 22.8559C47.8251 24.8519 47.361 26.7395 46.5347 28.4167L52.0589 33.9408L63.3725 22.6272L52.0589 11.3136L46.3804 16.9921ZM40.9087 34.1042C39.3114 34.9129 37.5185 35.3914 35.6199 35.4498C35.5628 37.354 35.0923 39.146 34.2942 40.7402L48.2923 54.8559H56.3589L81.5388 29.4619L103.393 51.3676L74.0733 80.4559H30.3688L0.96875 51.0559L11.6034 40.4213C10.8471 38.7973 10.4258 36.9801 10.4258 35.056C10.4258 28.179 15.808 22.6673 22.6311 22.462C22.8392 15.6854 28.3981 10.2559 35.2251 10.2559C37.1483 10.2559 38.9709 10.6868 40.6016 11.4573L52.0589 0L74.6861 22.6272L52.0589 45.2544L40.9087 34.1042ZM17.1251 46.2133L12.2825 51.0559L33.6825 72.4559H70.7781L92.0638 51.3385L81.5562 40.8063L59.6925 62.8559H44.959L28.6129 46.3725C26.9333 47.1953 25.038 47.656 23.0259 47.656C20.8874 47.656 18.881 47.1356 17.1251 46.2133ZM35.2251 18.2559C32.6846 18.2559 30.625 20.3154 30.625 22.8559C30.625 25.3964 32.6846 27.4559 35.2251 27.4559C37.7656 27.4559 39.8251 25.3964 39.8251 22.8559C39.8251 20.3153 37.7656 18.2559 35.2251 18.2559ZM23.0259 30.4561C20.4349 30.4561 18.4258 32.4652 18.4258 35.056C18.4258 37.6469 20.435 39.656 23.0259 39.656C25.6167 39.656 27.6258 37.6469 27.6258 35.056C27.6258 32.4652 25.6167 30.4561 23.0259 30.4561Z" fill="white"/>
</g>
</svg>
