<svg width="134" height="42" viewBox="0 0 134 42" fill="none" xmlns="http://www.w3.org/2000/svg">
<path d="M133.598 18.6934C133.318 18.0465 132.932 17.4795 132.436 16.993C131.941 16.5058 131.371 16.1224 130.724 15.843C130.077 15.564 129.378 15.4019 128.629 15.4019C127.75 15.4019 126.935 15.6197 126.185 16.0107C125.434 16.402 124.823 16.878 124.329 17.5487C123.834 16.878 123.202 16.4024 122.46 16.0107C121.718 15.6197 120.899 15.4019 120.005 15.4019C119.27 15.4019 118.576 15.564 117.921 15.843C117.502 16.0219 117.137 16.2479 116.787 16.5114V15.4019H114.64V26.1481H116.787V20.7862C116.787 20.3409 116.856 19.9225 117.023 19.5321C117.19 19.1408 117.422 18.7979 117.718 18.5021C118.013 18.2069 118.356 17.975 118.747 17.8076C119.138 17.6396 119.558 17.556 120.005 17.556C120.451 17.556 120.875 17.6396 121.274 17.8076C121.673 17.9753 122.021 18.2069 122.317 18.5021C122.612 18.7975 122.844 19.1408 123.011 19.5321C123.179 19.9235 123.235 20.3428 123.235 20.7892L123.237 26.1481H125.396V20.7892C125.395 20.3428 125.478 19.9232 125.646 19.5321C125.814 19.1411 126.046 18.7979 126.341 18.5021C126.636 18.2069 126.98 17.975 127.371 17.8076C127.762 17.6396 128.181 17.556 128.629 17.556C129.075 17.556 129.499 17.6396 129.898 17.8076C130.297 17.9753 130.644 18.2069 130.94 18.5021C131.235 18.7975 131.467 19.1408 131.634 19.5321C131.802 19.9235 131.853 20.3428 131.853 20.7892V26.1481H134V20.7892C134 20.0391 133.877 19.3401 133.598 18.6934Z" fill="white"/>
<path d="M113.565 15.4019V20.7892C113.565 21.5241 113.425 22.2188 113.146 22.8734C112.866 23.5283 112.479 24.1034 111.984 24.5979C111.489 25.093 110.919 25.4804 110.271 25.7594C109.625 26.0394 108.926 26.1478 108.176 26.1478C107.441 26.1478 106.747 26.0394 106.092 25.7594C105.437 25.4801 104.866 25.093 104.379 24.5979C103.892 24.1034 103.509 23.5283 103.23 22.8734C102.95 22.2188 102.81 21.5241 102.81 20.7892V15.4019H104.97V20.7892C104.97 21.2369 105.026 21.6605 105.194 22.0587C105.362 22.458 105.593 22.8055 105.888 23.101C106.184 23.3962 106.527 23.6277 106.918 23.7951C107.31 23.9624 107.729 24.0007 108.176 24.0007C108.623 24.0007 109.046 23.9628 109.446 23.7951C109.844 23.6274 110.192 23.3962 110.488 23.101C110.783 22.8055 111.014 22.458 111.182 22.0587C111.349 21.6602 111.41 21.2369 111.41 20.7892V15.4019H113.565Z" fill="white"/>
<path d="M48.9477 15.4019V17.5487H50.0192V26.1478H52.1819V15.4019H48.9477Z" fill="white"/>
<path d="M50.6292 14.5939C51.4913 14.5939 52.1903 13.8949 52.1903 13.0328C52.1903 12.1706 51.4913 11.4717 50.6292 11.4717C49.767 11.4717 49.0681 12.1706 49.0681 13.0328C49.0681 13.8949 49.767 14.5939 50.6292 14.5939Z" fill="white"/>
<path d="M98.6063 15.4019V17.5487H99.6782V26.1478H101.841V15.4019H98.6063Z" fill="white"/>
<path d="M100.288 14.5939C101.15 14.5939 101.849 13.8949 101.849 13.0328C101.849 12.1706 101.15 11.4717 100.288 11.4717C99.4259 11.4717 98.727 12.1706 98.727 13.0328C98.727 13.8949 99.4259 14.5939 100.288 14.5939Z" fill="white"/>
<path d="M98.0786 18.6934C97.7989 18.0465 97.4122 17.4795 96.9174 16.993C96.422 16.5058 95.8514 16.1224 95.2048 15.843C94.5581 15.564 93.8331 15.4019 93.083 15.4019C92.3484 15.4019 91.6797 15.564 91.0248 15.843C90.6062 16.0219 90.2257 16.2479 89.8755 16.5117V15.423H87.7057V26.1478H89.8643L89.8646 20.7862C89.8646 20.3405 89.9595 19.9222 90.1269 19.5318C90.2949 19.1405 90.5258 18.7975 90.8213 18.5017C91.1167 18.2066 91.4603 17.9747 91.8517 17.8073C92.243 17.6393 92.636 17.5487 93.083 17.5487C93.5294 17.5487 93.9794 17.6393 94.3783 17.8073C94.7772 17.975 95.1247 18.2066 95.4206 18.5017C95.7157 18.7972 95.9476 19.1401 96.1153 19.5318C96.2826 19.9232 96.3393 20.3425 96.3393 20.7889V26.1478H98.4986V20.7889C98.4983 20.0388 98.3579 19.3401 98.0786 18.6934Z" fill="white"/>
<path d="M63.6294 18.6934C63.349 18.0465 62.9626 17.4795 62.4678 16.993C61.9724 16.5058 61.4019 16.1224 60.7552 15.843C60.1086 15.564 59.3835 15.4019 58.6335 15.4019C57.8989 15.4019 57.2301 15.564 56.5756 15.843C56.1566 16.0219 55.7754 16.2479 55.4263 16.5117V15.423H53.2558V26.1478H55.4147V20.7862C55.4154 20.3405 55.5099 19.9222 55.6773 19.5318C55.8453 19.1405 56.0762 18.7975 56.3717 18.5017C56.6672 18.2066 57.0101 17.9747 57.4018 17.8073C57.7928 17.6393 58.1864 17.5487 58.6335 17.5487C59.0798 17.5487 59.5295 17.6393 59.9294 17.8073C60.3276 17.975 60.6752 18.2066 60.9707 18.5017C61.2658 18.7972 61.498 19.1401 61.6654 19.5318C61.8331 19.9232 61.8897 20.3425 61.8897 20.7889V26.1478H64.049V20.7889C64.0484 20.0388 63.9084 19.3401 63.6294 18.6934Z" fill="white"/>
<path d="M86.64 20.7632C86.6397 20.0141 86.4997 19.316 86.2213 18.6701C85.9416 18.0234 85.5585 17.4571 85.072 16.9703C84.5848 16.4834 84.0188 16.1003 83.3719 15.8209C82.7256 15.5416 82.0275 15.4019 81.2768 15.4019C80.5425 15.4019 79.8484 15.5419 79.1942 15.8209C78.5393 16.1006 77.9645 16.4837 77.4701 16.9703C76.9753 17.4575 76.5882 18.0234 76.3089 18.6701C76.0295 19.3167 75.8668 20.0055 75.8668 20.7552C75.8668 21.4895 76.0292 22.1941 76.3089 22.8484C76.5886 23.5029 76.9753 24.0774 77.4701 24.5722C77.9645 25.067 78.5393 25.4544 79.1942 25.7334C79.8484 26.0127 80.5429 26.1438 81.2768 26.1438L84.4836 26.1507V24.0007H81.2801C79.8666 24.0007 78.6731 23.1155 78.2346 21.8515L86.6403 21.8568V20.7655L86.64 20.7632ZM78.201 19.7028C78.6398 18.4401 79.8412 17.5339 81.2534 17.5339C82.6676 17.5339 83.8676 18.4375 84.3058 19.7028H78.201Z" fill="white"/>
<path d="M75.3213 15.4237H73.2124V16.5285C72.8583 16.2574 72.4732 16.0258 72.0505 15.843C71.4039 15.5633 70.7052 15.4237 69.9551 15.4237C69.2205 15.4237 68.5255 15.5637 67.8712 15.843C67.216 16.1227 66.6412 16.5061 66.1464 16.9927C65.651 17.4799 65.2636 18.0461 64.9849 18.6931C64.7052 19.3398 64.5659 20.0388 64.5659 20.7892C64.5659 21.5234 64.7056 22.2182 64.9849 22.8731C65.2639 23.5279 65.651 24.1028 66.1464 24.5975C66.6412 25.0927 67.216 25.4801 67.8712 25.7587C68.5255 26.0387 69.2205 26.1478 69.9551 26.1478H73.162C72.938 26.7862 72.4099 27.3399 71.8588 27.7471C71.3084 28.1542 70.6732 28.3064 69.9551 28.3064H68.8717V30.4529H69.9551C70.7052 30.4529 71.4039 30.3498 72.0505 30.0705C72.6975 29.7908 73.2641 29.4037 73.7513 28.9089C74.2385 28.4138 74.6216 27.8433 74.9006 27.1966C75.1803 26.5497 75.32 25.8513 75.32 25.1006L75.3213 15.4237ZM73.1616 24.001H69.9548C69.5071 24.001 69.0838 23.9628 68.6852 23.7951C68.286 23.6274 67.9384 23.3962 67.6433 23.1004C67.3475 22.8052 67.1162 22.458 66.9492 22.0591C66.7812 21.6598 66.6972 21.2365 66.6972 20.7895C66.6972 20.3428 66.7812 19.9232 66.9492 19.5318C67.1166 19.1408 67.3475 18.7975 67.6433 18.5017C67.9384 18.2066 68.286 17.975 68.6852 17.8076C69.0841 17.64 69.5071 17.5556 69.9548 17.5556C70.4015 17.5556 70.8248 17.64 71.2244 17.8076C71.6233 17.9753 71.9705 18.2069 72.266 18.5017C72.5611 18.7975 72.793 19.1408 72.9607 19.5318C73.128 19.9232 73.1616 20.3428 73.1616 20.7895V24.001Z" fill="white"/>
<path fill-rule="evenodd" clip-rule="evenodd" d="M17.1279 3.76368L20.8916 0L28.3453 7.45373L20.8916 14.9075L17.2238 11.2397C16.6841 11.5094 16.0775 11.6651 15.4355 11.675C15.4259 12.299 15.2786 12.8895 15.0226 13.4176L19.6708 18.0659H22.2687L30.6154 9.71934L32.4788 11.5828L23.3603 20.7012H18.5792L13.1811 15.3031C12.6494 15.5765 12.051 15.7385 11.4167 15.7582C11.4083 16.3126 11.2913 16.8405 11.086 17.3218L17.6941 23.9299H24.3082L34.5345 13.634L41.8694 20.9689L20.9695 41.8688L0 20.8993L3.48701 17.4123C3.24869 16.8888 3.11593 16.3071 3.11593 15.6944C3.11593 13.446 4.90368 11.6152 7.13525 11.5458C7.16905 9.30464 8.97916 7.49408 11.2201 7.45954C11.2551 5.19735 13.0997 3.37425 15.3703 3.37425C15.9985 3.37425 16.5942 3.51383 17.1279 3.76368ZM5.28425 19.342L3.7269 20.8993L20.9695 38.1419L38.1425 20.9689L34.5408 17.3673L25.405 26.5652H16.6025L9.33244 19.2952C8.72407 19.645 8.01867 19.845 7.26654 19.845C6.54862 19.845 5.87328 19.6628 5.28425 19.342ZM19.0865 9.37551L20.8916 11.1806L24.6184 7.45373L20.8916 3.72686L19.0381 5.58031C19.3463 6.16038 19.5209 6.82223 19.5209 7.52487C19.5209 8.18987 19.3645 8.81834 19.0865 9.37551ZM13.855 7.52487C13.855 6.68799 14.5334 6.00956 15.3703 6.00956C16.2071 6.00956 16.8856 6.688 16.8856 7.52487C16.8856 8.36174 16.2071 9.04018 15.3703 9.04018C14.5334 9.04018 13.855 8.36176 13.855 7.52487ZM9.77009 11.6097C9.77009 10.7728 10.4485 10.0944 11.2854 10.0944C12.1223 10.0944 12.8007 10.7728 12.8007 11.6097C12.8007 12.4465 12.1223 13.125 11.2854 13.125C10.4485 13.125 9.77009 12.4465 9.77009 11.6097ZM7.26654 14.1791C6.42967 14.1791 5.75124 14.8575 5.75124 15.6944C5.75124 16.5313 6.42967 17.2097 7.26654 17.2097C8.10342 17.2097 8.78184 16.5313 8.78184 15.6944C8.78184 14.8575 8.10342 14.1791 7.26654 14.1791Z" fill="#FFD800"/>
</svg>
