<svg width="245" height="33" viewBox="0 0 245 33" fill="none" xmlns="http://www.w3.org/2000/svg">
<path d="M181.08 22.0864H181.784C181.76 22.2864 181.568 22.8784 181.04 23.2304C180.848 23.3584 180.576 23.5184 179.904 23.5184C178.728 23.5184 178.032 22.6304 178.032 21.4224C178.032 20.1264 178.656 19.0944 180.04 19.0944C181.248 19.0944 181.84 20.0544 181.84 21.5344H178.784C178.784 22.4064 179.192 22.9104 180 22.9104C180.664 22.9104 181.056 22.3984 181.08 22.0864ZM178.784 20.9744H181.112C181.072 20.3264 180.8 19.7264 179.944 19.7264C179.296 19.7264 178.784 20.3264 178.784 20.9744ZM186.205 20.5504V23.3984H185.501V20.8224C185.501 20.0944 185.293 19.7264 184.605 19.7264C184.205 19.7264 183.501 19.9824 183.501 21.1184V23.3984H182.797V19.2144H183.461V19.8064H183.477C183.629 19.5824 184.021 19.0944 184.741 19.0944C185.389 19.0944 186.205 19.3584 186.205 20.5504ZM187.891 21.2944C187.891 22.2144 188.251 22.9104 189.019 22.9104C189.467 22.9104 190.163 22.6144 190.163 21.5024C190.163 20.8224 190.051 19.7264 189.035 19.7264C187.947 19.7264 187.891 20.7584 187.891 21.2944ZM190.835 19.2144V23.0544C190.835 23.6544 190.827 25.1584 188.891 25.1584C188.395 25.1584 187.427 25.0224 187.291 23.9104H187.995C188.123 24.5744 188.771 24.5744 188.939 24.5744C190.155 24.5744 190.131 23.5984 190.131 23.1024V22.9264H190.115V22.9584C189.931 23.2544 189.563 23.5184 189.003 23.5184C187.579 23.5184 187.163 22.1824 187.163 21.1824C187.163 20.0064 187.795 19.0944 188.907 19.0944C189.667 19.0944 189.987 19.5664 190.155 19.8064H190.171V19.2144H190.835ZM192.648 19.2144V23.3984H191.944V19.2144H192.648ZM192.648 18.4544H191.944V17.6544H192.648V18.4544ZM197.229 20.5504V23.3984H196.525V20.8224C196.525 20.0944 196.317 19.7264 195.629 19.7264C195.229 19.7264 194.525 19.9824 194.525 21.1184V23.3984H193.821V19.2144H194.485V19.8064H194.501C194.653 19.5824 195.045 19.0944 195.765 19.0944C196.413 19.0944 197.229 19.3584 197.229 20.5504ZM201.235 22.0864H201.939C201.915 22.2864 201.723 22.8784 201.195 23.2304C201.003 23.3584 200.731 23.5184 200.059 23.5184C198.883 23.5184 198.187 22.6304 198.187 21.4224C198.187 20.1264 198.811 19.0944 200.195 19.0944C201.403 19.0944 201.995 20.0544 201.995 21.5344H198.939C198.939 22.4064 199.347 22.9104 200.155 22.9104C200.819 22.9104 201.211 22.3984 201.235 22.0864ZM198.939 20.9744H201.267C201.227 20.3264 200.955 19.7264 200.099 19.7264C199.451 19.7264 198.939 20.3264 198.939 20.9744ZM205.8 22.0864H206.504C206.48 22.2864 206.288 22.8784 205.76 23.2304C205.568 23.3584 205.296 23.5184 204.624 23.5184C203.448 23.5184 202.752 22.6304 202.752 21.4224C202.752 20.1264 203.376 19.0944 204.76 19.0944C205.968 19.0944 206.56 20.0544 206.56 21.5344H203.504C203.504 22.4064 203.912 22.9104 204.72 22.9104C205.384 22.9104 205.776 22.3984 205.8 22.0864ZM203.504 20.9744H205.832C205.792 20.3264 205.52 19.7264 204.664 19.7264C204.016 19.7264 203.504 20.3264 203.504 20.9744ZM208.317 20.9664V23.3984H207.613V19.2144H208.277V19.9104H208.293C208.573 19.4224 208.941 19.0944 209.469 19.0944C209.557 19.0944 209.597 19.1024 209.653 19.1184V19.8464H209.389C208.733 19.8464 208.317 20.3584 208.317 20.9664ZM211.138 19.2144V23.3984H210.434V19.2144H211.138ZM211.138 18.4544H210.434V17.6544H211.138V18.4544ZM215.72 20.5504V23.3984H215.016V20.8224C215.016 20.0944 214.808 19.7264 214.12 19.7264C213.72 19.7264 213.016 19.9824 213.016 21.1184V23.3984H212.312V19.2144H212.976V19.8064H212.992C213.144 19.5824 213.536 19.0944 214.256 19.0944C214.904 19.0944 215.72 19.3584 215.72 20.5504ZM217.405 21.2944C217.405 22.2144 217.765 22.9104 218.533 22.9104C218.981 22.9104 219.677 22.6144 219.677 21.5024C219.677 20.8224 219.565 19.7264 218.549 19.7264C217.461 19.7264 217.405 20.7584 217.405 21.2944ZM220.349 19.2144V23.0544C220.349 23.6544 220.341 25.1584 218.405 25.1584C217.909 25.1584 216.941 25.0224 216.805 23.9104H217.509C217.637 24.5744 218.285 24.5744 218.453 24.5744C219.669 24.5744 219.645 23.5984 219.645 23.1024V22.9264H219.629V22.9584C219.445 23.2544 219.077 23.5184 218.517 23.5184C217.093 23.5184 216.677 22.1824 216.677 21.1824C216.677 20.0064 217.309 19.0944 218.421 19.0944C219.181 19.0944 219.501 19.5664 219.669 19.8064H219.685V19.2144H220.349ZM224.317 21.2944C224.317 22.2144 224.677 22.9104 225.445 22.9104C225.893 22.9104 226.589 22.6144 226.589 21.5024C226.589 20.8224 226.477 19.7264 225.461 19.7264C224.373 19.7264 224.317 20.7584 224.317 21.2944ZM227.261 19.2144V23.0544C227.261 23.6544 227.253 25.1584 225.317 25.1584C224.821 25.1584 223.853 25.0224 223.717 23.9104H224.421C224.549 24.5744 225.197 24.5744 225.365 24.5744C226.581 24.5744 226.557 23.5984 226.557 23.1024V22.9264H226.541V22.9584C226.357 23.2544 225.989 23.5184 225.429 23.5184C224.005 23.5184 223.589 22.1824 223.589 21.1824C223.589 20.0064 224.221 19.0944 225.333 19.0944C226.093 19.0944 226.413 19.5664 226.581 19.8064H226.597V19.2144H227.261ZM229.076 20.9664V23.3984H228.372V19.2144H229.036V19.9104H229.052C229.332 19.4224 229.7 19.0944 230.228 19.0944C230.316 19.0944 230.356 19.1024 230.412 19.1184V19.8464H230.148C229.492 19.8464 229.076 20.3584 229.076 20.9664ZM230.664 21.3024C230.664 20.2224 231.272 19.0944 232.608 19.0944C233.944 19.0944 234.552 20.2224 234.552 21.3024C234.552 22.3824 233.944 23.5104 232.608 23.5104C231.272 23.5104 230.664 22.3824 230.664 21.3024ZM231.392 21.3024C231.392 21.8624 231.6 22.9024 232.608 22.9024C233.616 22.9024 233.824 21.8624 233.824 21.3024C233.824 20.7424 233.616 19.7024 232.608 19.7024C231.6 19.7024 231.392 20.7424 231.392 21.3024ZM238.861 23.3984H238.197V22.7904L238.181 22.7744C237.885 23.2624 237.525 23.5184 236.853 23.5184C236.237 23.5184 235.493 23.2224 235.493 22.2224V19.2144H236.197V21.9904C236.197 22.6784 236.549 22.9104 237.005 22.9104C237.893 22.9104 238.157 22.1264 238.157 21.5184V19.2144H238.861V23.3984ZM240.651 21.5024C240.651 22.6144 241.347 22.9104 241.795 22.9104C242.563 22.9104 242.923 22.2144 242.923 21.2944C242.923 20.7584 242.867 19.7264 241.779 19.7264C240.763 19.7264 240.651 20.8224 240.651 21.5024ZM239.979 25.0544V19.2144H240.643V19.8064H240.659C240.827 19.5664 241.147 19.0944 241.907 19.0944C243.019 19.0944 243.651 20.0064 243.651 21.1824C243.651 22.1824 243.235 23.5184 241.811 23.5184C241.251 23.5184 240.883 23.2544 240.699 22.9584H240.683V25.0544H239.979Z" fill="white"/>
<path d="M168.78 12.9547C168.355 11.9727 167.768 11.1122 167.016 10.3737C166.265 9.63417 165.399 9.05217 164.418 8.62817C163.435 8.20467 162.375 7.95867 161.237 7.95867C159.903 7.95867 158.666 8.28917 157.527 8.88267C156.388 9.47667 155.461 10.1992 154.711 11.2172C153.959 10.1992 153 9.47717 151.874 8.88267C150.748 8.28917 149.505 7.95867 148.147 7.95867C147.032 7.95867 145.978 8.20467 144.984 8.62817C144.349 8.89967 143.794 9.24267 143.263 9.64267V7.95867H140.004V24.2697H143.263V16.1312C143.263 15.4552 143.367 14.8202 143.621 14.2277C143.875 13.6337 144.227 13.1132 144.676 12.6642C145.124 12.2162 145.645 11.8642 146.239 11.6102C146.832 11.3552 147.47 11.2282 148.147 11.2282C148.825 11.2282 149.468 11.3552 150.074 11.6102C150.68 11.8647 151.207 12.2162 151.656 12.6642C152.104 13.1127 152.457 13.6337 152.711 14.2277C152.966 14.8217 153.05 15.4582 153.05 16.1357L153.053 24.2697H156.33V16.1357C156.328 15.4582 156.455 14.8212 156.71 14.2277C156.965 13.6342 157.317 13.1132 157.765 12.6642C158.212 12.2162 158.734 11.8642 159.328 11.6102C159.921 11.3552 160.558 11.2282 161.237 11.2282C161.915 11.2282 162.558 11.3552 163.163 11.6102C163.769 11.8647 164.296 12.2162 164.745 12.6642C165.193 13.1127 165.545 13.6337 165.799 14.2277C166.053 14.8217 166.131 15.4582 166.131 16.1357V24.2697H169.39V16.1357C169.389 14.9972 169.204 13.9362 168.78 12.9547Z" fill="white"/>
<path d="M138.373 7.95867V16.1357C138.373 17.2512 138.16 18.3057 137.736 19.2992C137.311 20.2932 136.724 21.1662 135.973 21.9167C135.222 22.6682 134.356 23.2562 133.373 23.6797C132.392 24.1047 131.331 24.2692 130.193 24.2692C129.078 24.2692 128.024 24.1047 127.03 23.6797C126.036 23.2557 125.168 22.6682 124.43 21.9167C123.691 21.1662 123.109 20.2932 122.685 19.2992C122.26 18.3057 122.049 17.2512 122.049 16.1357V7.95867H125.326V16.1357C125.326 16.8152 125.412 17.4582 125.666 18.0627C125.922 18.6687 126.273 19.1962 126.721 19.6447C127.17 20.0927 127.69 20.4442 128.284 20.6982C128.878 20.9522 129.515 21.0102 130.193 21.0102C130.871 21.0102 131.514 20.9527 132.12 20.6982C132.725 20.4437 133.253 20.0927 133.702 19.6447C134.15 19.1962 134.501 18.6687 134.756 18.0627C135.01 17.4577 135.101 16.8152 135.101 16.1357V7.95867H138.373Z" fill="white"/>
<path d="M40.2935 7.95867V11.2172H41.92V24.2692H45.2025V7.95867H40.2935Z" fill="white"/>
<path d="M42.8457 6.73217C44.1544 6.73217 45.2152 5.6713 45.2152 4.36266C45.2152 3.05402 44.1544 1.99316 42.8457 1.99316C41.5371 1.99316 40.4762 3.05402 40.4762 4.36266C40.4762 5.6713 41.5371 6.73217 42.8457 6.73217Z" fill="white"/>
<path d="M115.668 7.95867V11.2172H117.295V24.2692H120.577V7.95867H115.668Z" fill="white"/>
<path d="M118.22 6.73217C119.529 6.73217 120.59 5.6713 120.59 4.36266C120.59 3.05402 119.529 1.99316 118.22 1.99316C116.912 1.99316 115.851 3.05402 115.851 4.36266C115.851 5.6713 116.912 6.73217 118.22 6.73217Z" fill="white"/>
<path d="M114.867 12.9547C114.442 11.9727 113.855 11.1122 113.104 10.3737C112.352 9.63417 111.486 9.05217 110.505 8.62817C109.523 8.20467 108.423 7.95867 107.284 7.95867C106.169 7.95867 105.154 8.20467 104.16 8.62817C103.525 8.89967 102.947 9.24267 102.416 9.64317V7.99067H99.122V24.2692H102.399L102.399 16.1312C102.399 15.4547 102.543 14.8197 102.797 14.2272C103.052 13.6332 103.403 13.1127 103.851 12.6637C104.3 12.2157 104.821 11.8637 105.415 11.6097C106.009 11.3547 106.606 11.2172 107.284 11.2172C107.962 11.2172 108.645 11.3547 109.25 11.6097C109.856 11.8642 110.383 12.2157 110.832 12.6637C111.28 13.1122 111.632 13.6327 111.887 14.2272C112.141 14.8212 112.227 15.4577 112.227 16.1352V24.2692H115.504V16.1352C115.504 14.9967 115.291 13.9362 114.867 12.9547Z" fill="white"/>
<path d="M62.578 12.9547C62.1525 11.9727 61.566 11.1122 60.815 10.3737C60.063 9.63417 59.197 9.05217 58.2155 8.62817C57.234 8.20467 56.1335 7.95867 54.995 7.95867C53.88 7.95867 52.865 8.20467 51.8715 8.62817C51.2355 8.89967 50.657 9.24267 50.127 9.64317V7.99067H46.8325V24.2692H50.1095V16.1312C50.1105 15.4547 50.254 14.8197 50.508 14.2272C50.763 13.6332 51.1135 13.1127 51.562 12.6637C52.0105 12.2157 52.531 11.8637 53.1255 11.6097C53.719 11.3547 54.3165 11.2172 54.995 11.2172C55.6725 11.2172 56.355 11.3547 56.962 11.6097C57.5665 11.8642 58.094 12.2157 58.5425 12.6637C58.9905 13.1122 59.343 13.6327 59.597 14.2272C59.8515 14.8212 59.9375 15.4577 59.9375 16.1352V24.2692H63.215V16.1352C63.214 14.9967 63.0015 13.9362 62.578 12.9547Z" fill="white"/>
<path d="M97.5045 16.0962C97.504 14.9592 97.2915 13.8997 96.869 12.9192C96.4445 11.9377 95.863 11.0782 95.1245 10.3392C94.385 9.60017 93.526 9.01868 92.544 8.59468C91.563 8.17068 90.5035 7.95867 89.364 7.95867C88.2495 7.95867 87.196 8.17118 86.203 8.59468C85.209 9.01918 84.3365 9.60067 83.586 10.3392C82.835 11.0787 82.2475 11.9377 81.8235 12.9192C81.3995 13.9007 81.1525 14.9462 81.1525 16.0842C81.1525 17.1987 81.399 18.2682 81.8235 19.2612C82.248 20.2547 82.835 21.1267 83.586 21.8777C84.3365 22.6287 85.209 23.2167 86.203 23.6402C87.196 24.0642 88.25 24.2632 89.364 24.2632L94.2315 24.2737V21.0102H89.369C87.2235 21.0102 85.412 19.6667 84.7465 17.7482L97.505 17.7562V16.0997L97.5045 16.0962ZM84.6955 14.4867C85.3615 12.5702 87.185 11.1947 89.3285 11.1947C91.475 11.1947 93.2965 12.5662 93.9615 14.4867H84.6955Z" fill="white"/>
<path d="M80.3245 7.99166H77.1235V9.66867C76.586 9.25717 76.0015 8.90567 75.36 8.62817C74.3785 8.20367 73.318 7.99166 72.1795 7.99166C71.0645 7.99166 70.0095 8.20417 69.0165 8.62817C68.022 9.05267 67.1495 9.63467 66.3985 10.3732C65.6465 11.1127 65.0585 11.9722 64.6355 12.9542C64.211 13.9357 63.9995 14.9967 63.9995 16.1357C63.9995 17.2502 64.2115 18.3047 64.6355 19.2987C65.059 20.2927 65.6465 21.1652 66.3985 21.9162C67.1495 22.6677 68.022 23.2557 69.0165 23.6787C70.0095 24.1037 71.0645 24.2692 72.1795 24.2692H77.047C76.707 25.2382 75.9055 26.0787 75.069 26.6967C74.2335 27.3147 73.2695 27.5457 72.1795 27.5457H70.535V30.8037H72.1795C73.318 30.8037 74.3785 30.6472 75.36 30.2232C76.342 29.7987 77.202 29.2112 77.9415 28.4602C78.681 27.7087 79.2625 26.8427 79.686 25.8612C80.1105 24.8792 80.3225 23.8192 80.3225 22.6797L80.3245 7.99166ZM77.0465 21.0107H72.179C71.4995 21.0107 70.857 20.9527 70.252 20.6982C69.646 20.4437 69.1185 20.0927 68.6705 19.6437C68.2215 19.1957 67.8705 18.6687 67.617 18.0632C67.362 17.4572 67.2345 16.8147 67.2345 16.1362C67.2345 15.4582 67.362 14.8212 67.617 14.2272C67.871 13.6337 68.2215 13.1127 68.6705 12.6637C69.1185 12.2157 69.646 11.8642 70.252 11.6102C70.8575 11.3557 71.4995 11.2277 72.179 11.2277C72.857 11.2277 73.4995 11.3557 74.106 11.6102C74.7115 11.8647 75.2385 12.2162 75.687 12.6637C76.135 13.1127 76.487 13.6337 76.7415 14.2272C76.9955 14.8212 77.0465 15.4582 77.0465 16.1362V21.0107Z" fill="white"/>
<path fill-rule="evenodd" clip-rule="evenodd" d="M13.1949 3.36708L16.0513 0.510742L21.708 6.16754L16.0513 11.8243L13.2677 9.04077C12.8582 9.24551 12.3978 9.36364 11.9106 9.37115C11.9033 9.84469 11.7915 10.2929 11.5972 10.6937L15.1248 14.2213H17.0964L23.4308 7.88696L24.845 9.30118L17.9248 16.2213H14.2964L10.1997 12.1246C9.79614 12.3321 9.34198 12.4551 8.8606 12.47C8.85426 12.8907 8.76545 13.2914 8.60962 13.6566L13.6246 18.6717H18.6442L26.4051 10.8579L31.9717 16.4245L16.1104 32.2859L0.196289 16.3717L2.84264 13.7253C2.66177 13.328 2.56102 12.8866 2.56102 12.4216C2.56102 10.7152 3.91777 9.32573 5.61135 9.27311C5.637 7.57223 7.01073 6.19817 8.71145 6.17195C8.73794 4.45512 10.1379 3.07153 11.861 3.07153C12.3378 3.07153 12.7899 3.17746 13.1949 3.36708ZM4.2066 15.1898L3.0247 16.3717L16.1104 29.4575L29.1433 16.4245L26.4099 13.6911L19.4766 20.6717H12.7962L7.27884 15.1543C6.81714 15.4197 6.2818 15.5716 5.71099 15.5716C5.16615 15.5716 4.65362 15.4332 4.2066 15.1898ZM14.6814 7.62602L16.0513 8.99594L18.8796 6.16754L16.0513 3.33914L14.6447 4.74576C14.8785 5.18598 15.011 5.68828 15.011 6.22153C15.011 6.72621 14.8923 7.20317 14.6814 7.62602ZM10.7111 6.22153C10.7111 5.5864 11.2259 5.07153 11.861 5.07153C12.4962 5.07153 13.011 5.58641 13.011 6.22153C13.011 6.85665 12.4962 7.37153 11.861 7.37153C11.2259 7.37153 10.7111 6.85666 10.7111 6.22153ZM7.61098 9.32157C7.61098 8.68644 8.12585 8.17157 8.76098 8.17157C9.3961 8.17157 9.91096 8.68643 9.91096 9.32157C9.91096 9.9567 9.3961 10.4716 8.76098 10.4716C8.12585 10.4716 7.61098 9.95669 7.61098 9.32157ZM5.71099 11.2716C5.07587 11.2716 4.56101 11.7864 4.56101 12.4216C4.56101 13.0567 5.07587 13.5716 5.71099 13.5716C6.34611 13.5716 6.86098 13.0567 6.86098 12.4216C6.86098 11.7864 6.34611 11.2716 5.71099 11.2716Z" fill="#FFD800"/>
</svg>
