<svg width="130" height="173" viewBox="0 0 130 173" fill="none" xmlns="http://www.w3.org/2000/svg">
<path fill-rule="evenodd" clip-rule="evenodd" d="M53.7498 12.273L65.1752 0.847656L87.8024 23.4749L65.1752 46.1021L54.0409 34.9678C52.4027 35.7867 50.5612 36.2593 48.6123 36.2893C48.5831 38.1835 48.1359 39.9763 47.3588 41.5795L61.4694 55.69H69.3557L94.6936 30.3525L100.35 36.0094L72.6693 63.69H58.1556L41.7686 47.303C40.1545 48.1331 38.3379 48.625 36.4124 48.6848C36.387 50.3675 36.0317 51.9703 35.4084 53.4313L55.4686 73.4915H75.547L106.591 42.2363L128.857 64.5028L65.4117 127.948L1.75488 64.2915L12.3404 53.706C11.6169 52.1168 11.2139 50.351 11.2139 48.491C11.2139 41.6655 16.6409 36.1076 23.4153 35.8971C23.5179 29.0936 29.0128 23.5974 35.8157 23.4925C35.9217 16.6252 41.5216 11.0908 48.4142 11.0908C50.3214 11.0908 52.1296 11.5146 53.7498 12.273ZM17.7962 59.5638L13.0686 64.2915L65.4117 116.635L117.544 64.5028L106.61 53.5693L78.8766 81.4915H52.1549L30.0853 59.4218C28.2384 60.4837 26.0971 61.091 23.8138 61.091C21.6345 61.091 19.5843 60.5376 17.7962 59.5638ZM59.6955 29.3088L65.1752 34.7885L76.4888 23.4749L65.1752 12.1613L59.5487 17.7877C60.4842 19.5486 61.0142 21.5578 61.0142 23.6908C61.0142 25.7095 60.5395 27.6174 59.6955 29.3088ZM43.8142 23.6908C43.8142 21.1503 45.8737 19.0908 48.4142 19.0908C50.9547 19.0908 53.0142 21.1503 53.0142 23.6908C53.0142 26.2313 50.9547 28.2908 48.4142 28.2908C45.8737 28.2908 43.8142 26.2313 43.8142 23.6908ZM31.4138 36.091C31.4138 33.5505 33.4733 31.491 36.0139 31.491C38.5544 31.491 40.6138 33.5504 40.6138 36.091C40.6138 38.6315 38.5544 40.691 36.0139 40.691C33.4733 40.691 31.4138 38.6315 31.4138 36.091ZM23.8138 43.891C21.2733 43.891 19.2139 45.9504 19.2139 48.491C19.2139 51.0315 21.2733 53.091 23.8138 53.091C26.3543 53.091 28.4138 51.0315 28.4138 48.491C28.4138 45.9504 26.3543 43.891 23.8138 43.891Z" fill="#FFD800"/>
<path d="M128.998 146.677C128.573 145.695 127.986 144.835 127.234 144.096C126.483 143.357 125.617 142.775 124.636 142.351C123.653 141.927 122.593 141.681 121.455 141.681C120.121 141.681 118.884 142.012 117.745 142.605C116.606 143.199 115.679 143.922 114.929 144.94C114.177 143.922 113.218 143.2 112.092 142.605C110.966 142.012 109.723 141.681 108.365 141.681C107.25 141.681 106.196 141.927 105.202 142.351C104.567 142.622 104.012 142.965 103.481 143.365V141.681H100.222V157.992H103.481V149.854C103.481 149.178 103.585 148.543 103.839 147.95C104.093 147.356 104.445 146.836 104.894 146.387C105.342 145.939 105.863 145.587 106.457 145.333C107.05 145.078 107.688 144.951 108.365 144.951C109.043 144.951 109.686 145.078 110.292 145.333C110.898 145.587 111.425 145.939 111.874 146.387C112.322 146.835 112.675 147.356 112.929 147.95C113.184 148.544 113.268 149.181 113.268 149.858L113.271 157.992H116.548V149.858C116.546 149.181 116.673 148.544 116.928 147.95C117.183 147.357 117.535 146.836 117.983 146.387C118.43 145.939 118.952 145.587 119.546 145.333C120.139 145.078 120.776 144.951 121.455 144.951C122.133 144.951 122.776 145.078 123.381 145.333C123.987 145.587 124.514 145.939 124.963 146.387C125.411 146.835 125.763 147.356 126.017 147.95C126.271 148.544 126.349 149.181 126.349 149.858V157.992H129.608V149.858C129.607 148.72 129.422 147.659 128.998 146.677Z" fill="white"/>
<path d="M98.5906 141.681V149.858C98.5906 150.974 98.3776 152.028 97.9541 153.022C97.5291 154.016 96.9416 154.889 96.1906 155.639C95.4396 156.391 94.5736 156.979 93.5911 157.402C92.6096 157.827 91.5491 157.992 90.4106 157.992C89.2955 157.992 88.2415 157.827 87.2475 157.402C86.2535 156.978 85.386 156.391 84.648 155.639C83.9085 154.889 83.3265 154.016 82.903 153.022C82.478 152.028 82.2665 150.974 82.2665 149.858V141.681H85.544V149.858C85.544 150.538 85.63 151.181 85.884 151.785C86.14 152.391 86.4905 152.919 86.9385 153.367C87.3875 153.815 87.908 154.167 88.502 154.421C89.096 154.675 89.7325 154.733 90.411 154.733C91.0886 154.733 91.7316 154.675 92.3381 154.421C92.9431 154.166 93.4711 153.815 93.9201 153.367C94.3676 152.919 94.7191 152.391 94.9736 151.785C95.2276 151.18 95.3191 150.538 95.3191 149.858V141.681H98.5906Z" fill="white"/>
<path d="M0.510742 141.681V144.94H2.13726V157.992H5.41979V141.681H0.510742Z" fill="white"/>
<path d="M3.06302 140.455C4.37167 140.455 5.43254 139.394 5.43254 138.085C5.43254 136.777 4.37167 135.716 3.06302 135.716C1.75437 135.716 0.693498 136.777 0.693498 138.085C0.693498 139.394 1.75437 140.455 3.06302 140.455Z" fill="white"/>
<path d="M75.8854 141.681V144.94H77.5124V157.992H80.7945V141.681H75.8854Z" fill="white"/>
<path d="M78.4381 140.455C79.7467 140.455 80.8076 139.394 80.8076 138.085C80.8076 136.777 79.7467 135.716 78.4381 135.716C77.1294 135.716 76.0686 136.777 76.0686 138.085C76.0686 139.394 77.1294 140.455 78.4381 140.455Z" fill="white"/>
<path d="M75.0844 146.677C74.6599 145.695 74.0729 144.835 73.3219 144.096C72.5699 143.357 71.7039 142.775 70.7224 142.351C69.7409 141.927 68.6404 141.681 67.5019 141.681C66.3868 141.681 65.3718 141.927 64.3778 142.351C63.7423 142.622 63.1648 142.965 62.6333 143.366V141.713H59.3398V157.992H62.6163L62.6168 149.854C62.6168 149.177 62.7608 148.542 63.0148 147.95C63.2698 147.356 63.6203 146.835 64.0688 146.386C64.5173 145.938 65.0388 145.586 65.6328 145.332C66.2268 145.077 66.8233 144.94 67.5019 144.94C68.1794 144.94 68.8624 145.077 69.4679 145.332C70.0734 145.587 70.6009 145.938 71.0499 146.386C71.4979 146.835 71.8499 147.355 72.1044 147.95C72.3584 148.544 72.4444 149.18 72.4444 149.858V157.992H75.7219V149.858C75.7214 148.719 75.5084 147.659 75.0844 146.677Z" fill="white"/>
<path d="M22.7954 146.677C22.3699 145.695 21.7834 144.835 21.0324 144.096C20.2804 143.357 19.4144 142.775 18.4329 142.351C17.4514 141.927 16.3509 141.681 15.2124 141.681C14.0974 141.681 13.0824 141.927 12.0889 142.351C11.4528 142.622 10.8743 142.965 10.3443 143.366V141.713H7.0498V157.992H10.3268V149.854C10.3278 149.177 10.4713 148.542 10.7253 147.95C10.9803 147.356 11.3308 146.835 11.7793 146.386C12.2279 145.938 12.7484 145.586 13.3429 145.332C13.9364 145.077 14.5339 144.94 15.2124 144.94C15.8899 144.94 16.5724 145.077 17.1794 145.332C17.7839 145.587 18.3114 145.938 18.7599 146.386C19.2079 146.835 19.5604 147.355 19.8144 147.95C20.0689 148.544 20.1549 149.18 20.1549 149.858V157.992H23.4325V149.858C23.4315 148.719 23.219 147.659 22.7954 146.677Z" fill="white"/>
<path d="M57.7223 149.819C57.7218 148.682 57.5093 147.622 57.0868 146.642C56.6622 145.66 56.0807 144.801 55.3422 144.062C54.6027 143.323 53.7437 142.741 52.7617 142.317C51.7807 141.893 50.7212 141.681 49.5817 141.681C48.4672 141.681 47.4137 141.894 46.4207 142.317C45.4266 142.742 44.5541 143.323 43.8036 144.062C43.0526 144.801 42.4651 145.66 42.0411 146.642C41.6171 147.623 41.3701 148.669 41.3701 149.807C41.3701 150.921 41.6166 151.991 42.0411 152.984C42.4656 153.977 43.0526 154.849 43.8036 155.6C44.5541 156.351 45.4266 156.939 46.4207 157.363C47.4137 157.787 48.4677 157.986 49.5817 157.986L54.4492 157.996V154.733H49.5867C47.4412 154.733 45.6297 153.389 44.9641 151.471L57.7228 151.479V149.822L57.7223 149.819ZM44.9131 148.209C45.5791 146.293 47.4027 144.917 49.5462 144.917C51.6927 144.917 53.5142 146.289 54.1792 148.209H44.9131Z" fill="white"/>
<path d="M40.5421 141.714H37.3411V143.391C36.8036 142.98 36.2191 142.628 35.5776 142.351C34.5961 141.926 33.5355 141.714 32.397 141.714C31.282 141.714 30.227 141.927 29.234 142.351C28.2395 142.775 27.367 143.357 26.616 144.096C25.864 144.835 25.276 145.695 24.853 146.677C24.4285 147.658 24.217 148.719 24.217 149.858C24.217 150.973 24.429 152.027 24.853 153.021C25.2765 154.015 25.864 154.888 26.616 155.639C27.367 156.39 28.2395 156.978 29.234 157.401C30.227 157.826 31.282 157.992 32.397 157.992H37.2646C36.9246 158.961 36.1231 159.801 35.2866 160.419C34.4511 161.037 33.487 161.268 32.397 161.268H30.7525V164.526H32.397C33.5355 164.526 34.5961 164.369 35.5776 163.945C36.5596 163.521 37.4196 162.934 38.1591 162.183C38.8986 161.431 39.4801 160.565 39.9036 159.584C40.3281 158.602 40.5401 157.542 40.5401 156.402L40.5421 141.714ZM37.2641 154.733H32.3965C31.717 154.733 31.0745 154.675 30.4695 154.421C29.8635 154.166 29.336 153.815 28.888 153.366C28.439 152.918 28.088 152.391 27.8345 151.786C27.5795 151.18 27.452 150.537 27.452 149.859C27.452 149.181 27.5795 148.544 27.8345 147.95C28.0885 147.356 28.439 146.835 28.888 146.386C29.336 145.938 29.8635 145.587 30.4695 145.333C31.075 145.078 31.717 144.95 32.3965 144.95C33.0745 144.95 33.717 145.078 34.3236 145.333C34.9291 145.587 35.4561 145.939 35.9046 146.386C36.3526 146.835 36.7046 147.356 36.9591 147.95C37.2131 148.544 37.2641 149.181 37.2641 149.859V154.733Z" fill="white"/>
<path d="M65.6241 166.526C65.921 166.526 66.2088 166.597 66.4874 166.737C66.766 166.875 66.9783 167.055 67.1241 167.276C67.2647 167.487 67.3585 167.733 67.4054 168.015C67.447 168.207 67.4679 168.515 67.4679 168.937H64.4015C64.4145 169.361 64.5148 169.702 64.7023 169.96C64.8898 170.215 65.1801 170.343 65.5733 170.343C65.9405 170.343 66.2335 170.222 66.4522 169.979C66.5772 169.839 66.6658 169.676 66.7179 169.491H67.4093C67.391 169.645 67.3298 169.817 67.2257 170.007C67.1241 170.194 67.0095 170.348 66.8819 170.468C66.6684 170.676 66.4041 170.817 66.089 170.89C65.9197 170.931 65.7283 170.952 65.5147 170.952C64.9939 170.952 64.5525 170.763 64.1905 170.386C63.8286 170.006 63.6476 169.474 63.6476 168.792C63.6476 168.12 63.8299 167.575 64.1944 167.155C64.559 166.736 65.0356 166.526 65.6241 166.526ZM66.7452 168.378C66.7166 168.073 66.6502 167.83 66.546 167.647C66.3533 167.309 66.0317 167.14 65.5812 167.14C65.2582 167.14 64.9874 167.257 64.7687 167.491C64.5499 167.723 64.434 168.019 64.421 168.378H66.7452ZM68.4551 166.62H69.123V167.214C69.3209 166.969 69.5306 166.793 69.7519 166.687C69.9733 166.58 70.2194 166.526 70.4902 166.526C71.084 166.526 71.485 166.733 71.6933 167.147C71.8079 167.374 71.8652 167.698 71.8652 168.12V170.804H71.1504V168.167C71.1504 167.912 71.1126 167.706 71.0371 167.55C70.9121 167.289 70.6855 167.159 70.3574 167.159C70.1907 167.159 70.054 167.176 69.9472 167.21C69.7545 167.267 69.5853 167.382 69.4394 167.554C69.3222 167.692 69.2454 167.835 69.209 167.983C69.1751 168.129 69.1582 168.339 69.1582 168.612V170.804H68.4551V166.62ZM74.5047 166.546C74.8328 166.546 75.1193 166.627 75.3641 166.788C75.4969 166.879 75.6323 167.012 75.7703 167.187V166.659H76.4188V170.464C76.4188 170.995 76.3407 171.414 76.1844 171.722C75.8927 172.289 75.342 172.573 74.5321 172.573C74.0815 172.573 73.7026 172.472 73.3954 172.269C73.0881 172.068 72.9162 171.753 72.8797 171.323H73.5946C73.6284 171.511 73.6961 171.655 73.7977 171.757C73.9565 171.913 74.2065 171.991 74.5477 171.991C75.0868 171.991 75.4396 171.801 75.6063 171.421C75.7052 171.197 75.7508 170.797 75.743 170.222C75.6024 170.435 75.4331 170.594 75.2352 170.698C75.0373 170.802 74.7756 170.854 74.45 170.854C73.9969 170.854 73.5998 170.694 73.2586 170.374C72.9201 170.051 72.7508 169.519 72.7508 168.776C72.7508 168.076 72.9214 167.529 73.2625 167.136C73.6063 166.743 74.0204 166.546 74.5047 166.546ZM75.7703 168.694C75.7703 168.176 75.6636 167.792 75.45 167.542C75.2365 167.292 74.9644 167.167 74.6336 167.167C74.1388 167.167 73.8003 167.399 73.618 167.862C73.5217 168.11 73.4735 168.434 73.4735 168.835C73.4735 169.306 73.5685 169.666 73.7586 169.913C73.9513 170.158 74.2092 170.28 74.5321 170.28C75.0373 170.28 75.3927 170.052 75.5985 169.597C75.7131 169.339 75.7703 169.038 75.7703 168.694ZM77.6013 166.64H78.3161V170.804H77.6013V166.64ZM77.6013 165.065H78.3161V165.862H77.6013V165.065ZM79.5025 166.62H80.1705V167.214C80.3684 166.969 80.578 166.793 80.7994 166.687C81.0207 166.58 81.2668 166.526 81.5377 166.526C82.1314 166.526 82.5325 166.733 82.7408 167.147C82.8554 167.374 82.9127 167.698 82.9127 168.12V170.804H82.1978V168.167C82.1978 167.912 82.1601 167.706 82.0845 167.55C81.9595 167.289 81.733 167.159 81.4049 167.159C81.2382 167.159 81.1015 167.176 80.9947 167.21C80.802 167.267 80.6327 167.382 80.4869 167.554C80.3697 167.692 80.2929 167.835 80.2564 167.983C80.2226 168.129 80.2056 168.339 80.2056 168.612V170.804H79.5025V166.62ZM85.8178 166.526C86.1147 166.526 86.4025 166.597 86.6811 166.737C86.9597 166.875 87.172 167.055 87.3178 167.276C87.4584 167.487 87.5522 167.733 87.5991 168.015C87.6407 168.207 87.6616 168.515 87.6616 168.937H84.5952C84.6082 169.361 84.7084 169.702 84.8959 169.96C85.0834 170.215 85.3738 170.343 85.767 170.343C86.1342 170.343 86.4272 170.222 86.6459 169.979C86.7709 169.839 86.8595 169.676 86.9116 169.491H87.603C87.5847 169.645 87.5235 169.817 87.4194 170.007C87.3178 170.194 87.2032 170.348 87.0756 170.468C86.8621 170.676 86.5978 170.817 86.2827 170.89C86.1134 170.931 85.922 170.952 85.7084 170.952C85.1876 170.952 84.7462 170.763 84.3842 170.386C84.0222 170.006 83.8413 169.474 83.8413 168.792C83.8413 168.12 84.0236 167.575 84.3881 167.155C84.7527 166.736 85.2293 166.526 85.8178 166.526ZM86.9389 168.378C86.9103 168.073 86.8439 167.83 86.7397 167.647C86.547 167.309 86.2254 167.14 85.7748 167.14C85.4519 167.14 85.1811 167.257 84.9624 167.491C84.7436 167.723 84.6277 168.019 84.6147 168.378H86.9389ZM90.3909 166.526C90.6878 166.526 90.9756 166.597 91.2542 166.737C91.5329 166.875 91.7451 167.055 91.8909 167.276C92.0315 167.487 92.1253 167.733 92.1722 168.015C92.2138 168.207 92.2347 168.515 92.2347 168.937H89.1683C89.1813 169.361 89.2816 169.702 89.4691 169.96C89.6566 170.215 89.9469 170.343 90.3401 170.343C90.7073 170.343 91.0003 170.222 91.2191 169.979C91.3441 169.839 91.4326 169.676 91.4847 169.491H92.1761C92.1579 169.645 92.0967 169.817 91.9925 170.007C91.8909 170.194 91.7763 170.348 91.6487 170.468C91.4352 170.676 91.1709 170.817 90.8558 170.89C90.6865 170.931 90.4951 170.952 90.2816 170.952C89.7607 170.952 89.3193 170.763 88.9573 170.386C88.5954 170.006 88.4144 169.474 88.4144 168.792C88.4144 168.12 88.5967 167.575 88.9612 167.155C89.3258 166.736 89.8024 166.526 90.3909 166.526ZM91.512 168.378C91.4834 168.073 91.417 167.83 91.3128 167.647C91.1201 167.309 90.7985 167.14 90.348 167.14C90.025 167.14 89.7542 167.257 89.5355 167.491C89.3167 167.723 89.2008 168.019 89.1878 168.378H91.512ZM93.2414 166.62H93.9094V167.343C93.964 167.202 94.0982 167.032 94.3117 166.831C94.5252 166.628 94.7713 166.526 95.05 166.526C95.063 166.526 95.0851 166.528 95.1164 166.53C95.1476 166.533 95.201 166.538 95.2765 166.546V167.288C95.2349 167.28 95.1958 167.275 95.1594 167.272C95.1255 167.27 95.0877 167.269 95.0461 167.269C94.6919 167.269 94.4198 167.383 94.2297 167.612C94.0396 167.839 93.9445 168.101 93.9445 168.397V170.804H93.2414V166.62ZM96.0059 166.64H96.7208V170.804H96.0059V166.64ZM96.0059 165.065H96.7208V165.862H96.0059V165.065ZM97.9072 166.62H98.5751V167.214C98.773 166.969 98.9827 166.793 99.204 166.687C99.4254 166.58 99.6715 166.526 99.9423 166.526C100.536 166.526 100.937 166.733 101.145 167.147C101.26 167.374 101.317 167.698 101.317 168.12V170.804H100.602V168.167C100.602 167.912 100.565 167.706 100.489 167.55C100.364 167.289 100.138 167.159 99.8095 167.159C99.6428 167.159 99.5061 167.176 99.3993 167.21C99.2066 167.267 99.0374 167.382 98.8915 167.554C98.7743 167.692 98.6975 167.835 98.6611 167.983C98.6272 168.129 98.6103 168.339 98.6103 168.612V170.804H97.9072V166.62ZM103.957 166.546C104.285 166.546 104.571 166.627 104.816 166.788C104.949 166.879 105.084 167.012 105.222 167.187V166.659H105.871V170.464C105.871 170.995 105.793 171.414 105.637 171.722C105.345 172.289 104.794 172.573 103.984 172.573C103.534 172.573 103.155 172.472 102.847 172.269C102.54 172.068 102.368 171.753 102.332 171.323H103.047C103.081 171.511 103.148 171.655 103.25 171.757C103.409 171.913 103.659 171.991 104 171.991C104.539 171.991 104.892 171.801 105.058 171.421C105.157 171.197 105.203 170.797 105.195 170.222C105.054 170.435 104.885 170.594 104.687 170.698C104.489 170.802 104.228 170.854 103.902 170.854C103.449 170.854 103.052 170.694 102.711 170.374C102.372 170.051 102.203 169.519 102.203 168.776C102.203 168.076 102.374 167.529 102.715 167.136C103.058 166.743 103.472 166.546 103.957 166.546ZM105.222 168.694C105.222 168.176 105.116 167.792 104.902 167.542C104.689 167.292 104.416 167.167 104.086 167.167C103.591 167.167 103.252 167.399 103.07 167.862C102.974 168.11 102.926 168.434 102.926 168.835C102.926 169.306 103.021 169.666 103.211 169.913C103.403 170.158 103.661 170.28 103.984 170.28C104.489 170.28 104.845 170.052 105.051 169.597C105.165 169.339 105.222 169.038 105.222 168.694ZM110.876 166.546C111.205 166.546 111.491 166.627 111.736 166.788C111.869 166.879 112.004 167.012 112.142 167.187V166.659H112.791V170.464C112.791 170.995 112.712 171.414 112.556 171.722C112.265 172.289 111.714 172.573 110.904 172.573C110.453 172.573 110.074 172.472 109.767 172.269C109.46 172.068 109.288 171.753 109.252 171.323H109.966C110 171.511 110.068 171.655 110.169 171.757C110.328 171.913 110.578 171.991 110.919 171.991C111.459 171.991 111.811 171.801 111.978 171.421C112.077 171.197 112.123 170.797 112.115 170.222C111.974 170.435 111.805 170.594 111.607 170.698C111.409 170.802 111.147 170.854 110.822 170.854C110.369 170.854 109.972 170.694 109.63 170.374C109.292 170.051 109.123 169.519 109.123 168.776C109.123 168.076 109.293 167.529 109.634 167.136C109.978 166.743 110.392 166.546 110.876 166.546ZM112.142 168.694C112.142 168.176 112.035 167.792 111.822 167.542C111.608 167.292 111.336 167.167 111.005 167.167C110.511 167.167 110.172 167.399 109.99 167.862C109.893 168.11 109.845 168.434 109.845 168.835C109.845 169.306 109.94 169.666 110.13 169.913C110.323 170.158 110.581 170.28 110.904 170.28C111.409 170.28 111.765 170.052 111.97 169.597C112.085 169.339 112.142 169.038 112.142 168.694ZM113.993 166.62H114.661V167.343C114.715 167.202 114.849 167.032 115.063 166.831C115.276 166.628 115.523 166.526 115.801 166.526C115.814 166.526 115.836 166.528 115.868 166.53C115.899 166.533 115.952 166.538 116.028 166.546V167.288C115.986 167.28 115.947 167.275 115.911 167.272C115.877 167.27 115.839 167.269 115.797 167.269C115.443 167.269 115.171 167.383 114.981 167.612C114.791 167.839 114.696 168.101 114.696 168.397V170.804H113.993V166.62ZM118.417 170.351C118.883 170.351 119.202 170.175 119.374 169.823C119.549 169.469 119.636 169.076 119.636 168.644C119.636 168.253 119.574 167.935 119.449 167.69C119.251 167.305 118.909 167.112 118.425 167.112C117.995 167.112 117.683 167.276 117.488 167.605C117.292 167.933 117.195 168.328 117.195 168.792C117.195 169.237 117.292 169.608 117.488 169.905C117.683 170.202 117.993 170.351 118.417 170.351ZM118.445 166.499C118.984 166.499 119.439 166.679 119.812 167.038C120.184 167.397 120.37 167.926 120.37 168.624C120.37 169.299 120.206 169.856 119.878 170.296C119.55 170.736 119.041 170.956 118.351 170.956C117.775 170.956 117.318 170.762 116.98 170.374C116.641 169.983 116.472 169.46 116.472 168.804C116.472 168.101 116.65 167.541 117.007 167.124C117.364 166.707 117.843 166.499 118.445 166.499ZM122.033 166.62V169.397C122.033 169.611 122.067 169.785 122.135 169.921C122.26 170.171 122.493 170.296 122.834 170.296C123.324 170.296 123.657 170.077 123.834 169.64C123.93 169.405 123.979 169.084 123.979 168.675V166.62H124.682V170.804H124.018L124.026 170.187C123.934 170.345 123.821 170.479 123.686 170.589C123.417 170.808 123.092 170.917 122.709 170.917C122.113 170.917 121.707 170.718 121.49 170.319C121.373 170.106 121.315 169.821 121.315 169.464V166.62H122.033ZM127.669 170.331C127.997 170.331 128.269 170.194 128.485 169.921C128.704 169.645 128.813 169.233 128.813 168.687C128.813 168.353 128.765 168.067 128.669 167.827C128.487 167.366 128.153 167.136 127.669 167.136C127.182 167.136 126.849 167.379 126.669 167.866C126.573 168.127 126.524 168.457 126.524 168.858C126.524 169.181 126.573 169.456 126.669 169.683C126.851 170.115 127.185 170.331 127.669 170.331ZM125.849 166.64H126.532V167.194C126.673 167.004 126.827 166.857 126.993 166.753C127.23 166.597 127.509 166.519 127.829 166.519C128.303 166.519 128.705 166.701 129.036 167.065C129.367 167.427 129.532 167.946 129.532 168.62C129.532 169.532 129.294 170.183 128.817 170.573C128.515 170.821 128.164 170.944 127.763 170.944C127.448 170.944 127.183 170.875 126.97 170.737C126.845 170.659 126.705 170.525 126.552 170.335V172.472H125.849V166.64Z" fill="white"/>
</svg>
