<?xml version="1.0" encoding="utf-8"?>
<!-- Generator: Adobe Illustrator 24.3.0, SVG Export Plug-In . SVG Version: 6.00 Build 0)  -->
<svg version="1.1" id="Foreground" xmlns="http://www.w3.org/2000/svg" xmlns:xlink="http://www.w3.org/1999/xlink" x="0px" y="0px"
	 viewBox="0 0 462 261.4" style="enable-background:new 0 0 462 261.4;" xml:space="preserve">
<style type="text/css">
	.st0{fill-rule:evenodd;clip-rule:evenodd;fill:#2A4889;stroke:#1A171B;stroke-width:0.5;stroke-miterlimit:3.8637;}
	.st1{fill-rule:evenodd;clip-rule:evenodd;fill:#9C2828;stroke:#1A171B;stroke-width:0.5;stroke-miterlimit:3.8637;}
	.st2{fill-rule:evenodd;clip-rule:evenodd;fill:#BE091E;stroke:#1A171B;stroke-width:0.5;stroke-miterlimit:3.8637;}
	.st3{clip-path:url(#SVGID_4_);}
	.st4{clip-path:url(#SVGID_5_);}
	
		.st5{clip-path:url(#SVGID_6_);fill-rule:evenodd;clip-rule:evenodd;fill:#D1D1D1;stroke:#1A171B;stroke-width:0.5;stroke-miterlimit:3.8637;}
	.st6{clip-path:url(#SVGID_10_);}
	.st7{clip-path:url(#SVGID_11_);}
	
		.st8{clip-path:url(#SVGID_12_);fill-rule:evenodd;clip-rule:evenodd;fill:#D1D1D1;stroke:#1A171B;stroke-width:0.5;stroke-miterlimit:3.8637;}
	.st9{clip-path:url(#SVGID_16_);}
	.st10{clip-path:url(#SVGID_17_);}
	
		.st11{clip-path:url(#SVGID_18_);fill-rule:evenodd;clip-rule:evenodd;fill:#D1D1D1;stroke:#1A171B;stroke-width:0.5;stroke-miterlimit:3.8637;}
	.st12{clip-path:url(#SVGID_22_);}
	.st13{clip-path:url(#SVGID_23_);}
	
		.st14{clip-path:url(#SVGID_24_);fill-rule:evenodd;clip-rule:evenodd;fill:#D1D1D1;stroke:#1A171B;stroke-width:0.5;stroke-miterlimit:3.8637;}
	.st15{fill-rule:evenodd;clip-rule:evenodd;fill:none;stroke:#1A171B;stroke-width:0.5;stroke-miterlimit:3.8637;}
	.st16{fill-rule:evenodd;clip-rule:evenodd;fill:#1A171B;stroke:#1A171B;stroke-width:0.5;stroke-miterlimit:3.8637;}
	.st17{fill-rule:evenodd;clip-rule:evenodd;fill:#E4E3E4;stroke:#1A171B;stroke-width:0.5;stroke-miterlimit:3.8637;}
	.st18{fill:#312F32;stroke:#1A171B;stroke-width:0.5;stroke-miterlimit:3.8637;}
	.st19{fill-rule:evenodd;clip-rule:evenodd;fill:#E8E8E8;stroke:#1A171B;stroke-width:0.5;stroke-miterlimit:3.8637;}
	.st20{fill-rule:evenodd;clip-rule:evenodd;fill:#D6D5D6;stroke:#1A171B;stroke-width:0.5;stroke-miterlimit:3.8637;}
	.st21{fill:#D6D5D6;stroke:#1A171B;stroke-width:0.5;stroke-miterlimit:3.8637;}
	.st22{fill:#007F50;stroke:#1A171B;stroke-width:0.5;stroke-miterlimit:3.8637;}
	.st23{fill-rule:evenodd;clip-rule:evenodd;fill:#195A39;stroke:#1A171B;stroke-width:0.5;stroke-miterlimit:3.8637;}
	.st24{fill:#00A768;stroke:#1A171B;stroke-width:0.5;stroke-miterlimit:3.8637;}
	.st25{fill-rule:evenodd;clip-rule:evenodd;fill:#FFFFFF;stroke:#1A171B;stroke-width:0.5;stroke-miterlimit:3.8637;}
	.st26{fill:#CDCCCD;stroke:#1A171B;stroke-width:0.5;stroke-miterlimit:3.8637;}
	.st27{fill-rule:evenodd;clip-rule:evenodd;fill:#FFFFFF;}
	.st28{fill-rule:evenodd;clip-rule:evenodd;fill:#003E77;}
	.st29{fill-rule:evenodd;clip-rule:evenodd;fill:none;stroke:#003E77;stroke-width:0.5;stroke-miterlimit:3.8637;}
	.st30{fill:#FFD616;}
	.st31{fill:none;stroke:#003E77;stroke-width:0.25;stroke-miterlimit:3.8637;}
	.st32{fill:none;stroke:#003E77;stroke-width:1.0001;stroke-miterlimit:3.8637;}
	.st33{fill-rule:evenodd;clip-rule:evenodd;fill:none;stroke:#FFFFFF;stroke-width:0.7553;stroke-miterlimit:3.8637;}
</style>
<g>
	<rect x="0.3" y="0.3" class="st0" width="447.9" height="252.3"/>
	<g>
		<rect x="10.5" y="212.9" class="st1" width="57.5" height="35.4"/>
		<rect x="10.5" y="225.6" class="st2" width="57.5" height="17"/>
		<g>
			<defs>
				<path id="SVGID_1_" d="M55.7,233c0-3.1,2.5-5.7,5.7-5.7s5.7,2.5,5.7,5.7c0,3.1-2.5,5.7-5.7,5.7S55.7,236.2,55.7,233z"/>
			</defs>
			<defs>
				<path id="SVGID_2_" d="M55.7,233c0-3.1,2.5-5.7,5.7-5.7s5.7,2.5,5.7,5.7c0,3.1-2.5,5.7-5.7,5.7S55.7,236.2,55.7,233z"/>
			</defs>
			<defs>
				<path id="SVGID_3_" d="M55.7,233c0-3.1,2.5-5.7,5.7-5.7s5.7,2.5,5.7,5.7c0,3.1-2.5,5.7-5.7,5.7S55.7,236.2,55.7,233z"/>
			</defs>
			<use xlink:href="#SVGID_1_"  style="overflow:visible;fill-rule:evenodd;clip-rule:evenodd;fill:#FFFFFF;"/>
			<clipPath id="SVGID_4_">
				<use xlink:href="#SVGID_1_"  style="overflow:visible;"/>
			</clipPath>
			<clipPath id="SVGID_5_" class="st3">
				<use xlink:href="#SVGID_2_"  style="overflow:visible;"/>
			</clipPath>
			<clipPath id="SVGID_6_" class="st4">
				<use xlink:href="#SVGID_3_"  style="overflow:visible;"/>
			</clipPath>
			
				<rect x="60.2" y="226.8" transform="matrix(0.7071 -0.7071 0.7071 0.7071 -146.8151 111.6234)" class="st5" width="2.3" height="12.4"/>
			
				<use xlink:href="#SVGID_3_"  style="overflow:visible;fill-rule:evenodd;clip-rule:evenodd;fill:none;stroke:#1A171B;stroke-width:0.5;stroke-miterlimit:3.8637;"/>
		</g>
		<g>
			<defs>
				<path id="SVGID_7_" d="M41.1,233c0-3.1,2.5-5.7,5.7-5.7s5.7,2.5,5.7,5.7c0,3.1-2.5,5.7-5.7,5.7S41.1,236.2,41.1,233z"/>
			</defs>
			<defs>
				<path id="SVGID_8_" d="M41.1,233c0-3.1,2.5-5.7,5.7-5.7s5.7,2.5,5.7,5.7c0,3.1-2.5,5.7-5.7,5.7S41.1,236.2,41.1,233z"/>
			</defs>
			<defs>
				<path id="SVGID_9_" d="M41.1,233c0-3.1,2.5-5.7,5.7-5.7s5.7,2.5,5.7,5.7c0,3.1-2.5,5.7-5.7,5.7S41.1,236.2,41.1,233z"/>
			</defs>
			<use xlink:href="#SVGID_7_"  style="overflow:visible;fill-rule:evenodd;clip-rule:evenodd;fill:#FFFFFF;"/>
			<clipPath id="SVGID_10_">
				<use xlink:href="#SVGID_7_"  style="overflow:visible;"/>
			</clipPath>
			<clipPath id="SVGID_11_" class="st6">
				<use xlink:href="#SVGID_8_"  style="overflow:visible;"/>
			</clipPath>
			<clipPath id="SVGID_12_" class="st7">
				<use xlink:href="#SVGID_9_"  style="overflow:visible;"/>
			</clipPath>
			
				<rect x="45.6" y="226.8" transform="matrix(0.7071 -0.7071 0.7071 0.7071 -151.088 101.3184)" class="st8" width="2.3" height="12.4"/>
			
				<use xlink:href="#SVGID_9_"  style="overflow:visible;fill-rule:evenodd;clip-rule:evenodd;fill:none;stroke:#1A171B;stroke-width:0.5;stroke-miterlimit:3.8637;"/>
		</g>
		<g>
			<defs>
				<path id="SVGID_13_" d="M26.5,233c0-3.1,2.5-5.7,5.7-5.7s5.7,2.5,5.7,5.7c0,3.1-2.5,5.7-5.7,5.7S26.5,236.2,26.5,233z"/>
			</defs>
			<defs>
				<path id="SVGID_14_" d="M26.5,233c0-3.1,2.5-5.7,5.7-5.7s5.7,2.5,5.7,5.7c0,3.1-2.5,5.7-5.7,5.7S26.5,236.2,26.5,233z"/>
			</defs>
			<defs>
				<path id="SVGID_15_" d="M26.5,233c0-3.1,2.5-5.7,5.7-5.7s5.7,2.5,5.7,5.7c0,3.1-2.5,5.7-5.7,5.7S26.5,236.2,26.5,233z"/>
			</defs>
			<use xlink:href="#SVGID_13_"  style="overflow:visible;fill-rule:evenodd;clip-rule:evenodd;fill:#FFFFFF;"/>
			<clipPath id="SVGID_16_">
				<use xlink:href="#SVGID_13_"  style="overflow:visible;"/>
			</clipPath>
			<clipPath id="SVGID_17_" class="st9">
				<use xlink:href="#SVGID_14_"  style="overflow:visible;"/>
			</clipPath>
			<clipPath id="SVGID_18_" class="st10">
				<use xlink:href="#SVGID_15_"  style="overflow:visible;"/>
			</clipPath>
			
				<rect x="31" y="226.8" transform="matrix(0.7071 -0.7071 0.7071 0.7071 -155.3553 91.0075)" class="st11" width="2.3" height="12.4"/>
			
				<use xlink:href="#SVGID_15_"  style="overflow:visible;fill-rule:evenodd;clip-rule:evenodd;fill:none;stroke:#1A171B;stroke-width:0.5;stroke-miterlimit:3.8637;"/>
		</g>
		<g>
			<defs>
				<path id="SVGID_19_" d="M11.9,233c0-3.1,2.5-5.7,5.7-5.7s5.7,2.5,5.7,5.7c0,3.1-2.5,5.7-5.7,5.7S11.9,236.2,11.9,233z"/>
			</defs>
			<defs>
				<path id="SVGID_20_" d="M11.9,233c0-3.1,2.5-5.7,5.7-5.7s5.7,2.5,5.7,5.7c0,3.1-2.5,5.7-5.7,5.7S11.9,236.2,11.9,233z"/>
			</defs>
			<defs>
				<path id="SVGID_21_" d="M11.9,233c0-3.1,2.5-5.7,5.7-5.7s5.7,2.5,5.7,5.7c0,3.1-2.5,5.7-5.7,5.7S11.9,236.2,11.9,233z"/>
			</defs>
			<use xlink:href="#SVGID_19_"  style="overflow:visible;fill-rule:evenodd;clip-rule:evenodd;fill:#FFFFFF;"/>
			<clipPath id="SVGID_22_">
				<use xlink:href="#SVGID_19_"  style="overflow:visible;"/>
			</clipPath>
			<clipPath id="SVGID_23_" class="st12">
				<use xlink:href="#SVGID_20_"  style="overflow:visible;"/>
			</clipPath>
			<clipPath id="SVGID_24_" class="st13">
				<use xlink:href="#SVGID_21_"  style="overflow:visible;"/>
			</clipPath>
			
				<rect x="16.5" y="226.8" transform="matrix(0.7071 -0.7071 0.7071 0.7071 -159.6229 80.6968)" class="st14" width="2.3" height="12.4"/>
			
				<use xlink:href="#SVGID_21_"  style="overflow:visible;fill-rule:evenodd;clip-rule:evenodd;fill:none;stroke:#1A171B;stroke-width:0.5;stroke-miterlimit:3.8637;"/>
		</g>
		<rect x="14.7" y="215.7" class="st15" width="5.7" height="5.7"/>
		<rect x="29.3" y="215.7" class="st15" width="5.7" height="5.7"/>
		<rect x="43.9" y="215.7" class="st15" width="5.7" height="5.7"/>
		<rect x="58.5" y="215.7" class="st15" width="5.7" height="5.7"/>
		<rect x="14.7" y="212.9" class="st16" width="5.7" height="2.8"/>
		<rect x="29.3" y="212.9" class="st16" width="5.7" height="2.8"/>
		<rect x="43.9" y="212.9" class="st16" width="5.7" height="2.8"/>
		<rect x="58.5" y="212.9" class="st16" width="5.7" height="2.8"/>
		<rect x="10.5" y="245.5" class="st1" width="57.5" height="2.8"/>
	</g>
	<rect x="0.3" y="40" class="st17" width="447.9" height="172.9"/>
	<g>
		<polygon class="st18" points="208.6,252.6 214.3,252.6 214.3,256.8 234.1,256.8 234.1,252.6 239.8,252.6 239.8,261.1 208.6,261.1 
					"/>
		<rect x="239.8" y="252.6" class="st19" width="2.1" height="4.3"/>
		<rect x="206.5" y="252.6" class="st19" width="2.1" height="4.3"/>
	</g>
	<rect x="1" y="62.6" class="st19" width="446.4" height="127.6"/>
	<rect x="4.5" y="66.2" class="st15" width="439.4" height="120.5"/>
	<rect x="6.7" y="68.3" class="st15" width="435.1" height="116.2"/>
	<g>
		<rect x="0.3" y="0.3" class="st20" width="148.8" height="4.3"/>
		<polygon class="st21" points="0.3,0.3 0.3,40 4.5,40 4.5,4.5 8.8,4.5 8.8,0.3 		"/>
		<rect x="149.8" y="0.3" class="st20" width="148.8" height="4.3"/>
		<rect x="299.3" y="0.3" class="st20" width="148.8" height="4.3"/>
		<polygon class="st21" points="448.2,0.3 448.2,40 443.9,40 443.9,4.5 439.7,4.5 439.7,0.3 		"/>
		<polygon class="st21" points="289.4,0.3 289.4,4.5 297.2,4.5 297.2,40 301.5,40 301.5,4.5 309.3,4.5 309.3,0.3 		"/>
		<polygon class="st21" points="139.2,0.3 139.2,4.5 147,4.5 147,40 151.2,40 151.2,4.5 159,4.5 159,0.3 		"/>
	</g>
	<g>
		<rect x="0.3" y="248.3" class="st20" width="148.8" height="4.3"/>
		<polygon class="st21" points="0.3,252.6 0.3,212.9 4.5,212.9 4.5,248.3 8.8,248.3 8.8,252.6 		"/>
		<rect x="149.8" y="248.3" class="st20" width="148.8" height="4.3"/>
		<rect x="299.3" y="248.3" class="st20" width="148.8" height="4.3"/>
		<polygon class="st21" points="448.2,252.6 448.2,212.9 443.9,212.9 443.9,248.3 439.7,248.3 439.7,252.6 		"/>
		<polygon class="st21" points="289.4,252.6 289.4,248.3 297.2,248.3 297.2,212.9 301.5,212.9 301.5,248.3 309.3,248.3 309.3,252.6 
					"/>
		<polygon class="st21" points="139.2,252.6 139.2,248.3 147,248.3 147,212.9 151.2,212.9 151.2,248.3 159,248.3 159,252.6 		"/>
	</g>
	<g>
		<g>
			<polygon class="st22" points="140.6,244.6 98.1,244.6 98.1,233.8 99.9,233.8 99.9,221.2 98.1,221.2 98.1,212.9 140.6,212.9 
				140.6,221.2 138.8,221.2 138.8,233.8 140.6,233.8 			"/>
			<rect x="125.7" y="214.1" class="st23" width="8.5" height="2.8"/>
			<polygon class="st24" points="140.6,236.1 98.1,236.1 98.1,233.4 99.9,233.4 99.9,221.2 98.1,221.2 98.1,218.6 140.6,218.6 
				140.6,221.2 138.8,221.2 138.8,233.4 140.6,233.4 			"/>
			<rect x="117.5" y="221.2" class="st23" width="3.7" height="12.2"/>
			<rect x="104.5" y="214.1" class="st23" width="8.5" height="2.8"/>
		</g>
		<g>
			<path class="st25" d="M103,229.6c0-3.1,2.5-5.7,5.7-5.7s5.7,2.5,5.7,5.7s-2.5,5.7-5.7,5.7S103,232.7,103,229.6z"/>
			<path class="st26" d="M113.4,232.7c-0.4,0.6-1,1.2-1.6,1.6l-7.9-7.9c0.4-0.6,1-1.2,1.6-1.6L113.4,232.7z"/>
		</g>
		<g>
			<path class="st25" d="M124.3,229.6c0-3.1,2.5-5.7,5.7-5.7s5.7,2.5,5.7,5.7s-2.5,5.7-5.7,5.7S124.3,232.7,124.3,229.6z"/>
			<path class="st26" d="M134.7,232.7c-0.4,0.6-1,1.2-1.6,1.6l-7.9-7.9c0.4-0.6,1-1.2,1.6-1.6L134.7,232.7z"/>
		</g>
	</g>
	<g>
		<g>
			<polygon class="st22" points="309.6,8.2 352.1,8.2 352.1,40 309.6,40 309.6,31.6 311.5,31.6 311.5,19 309.6,19 			"/>
			<rect x="316" y="35.9" class="st23" width="8.5" height="2.8"/>
			<polygon class="st24" points="309.6,16.7 352.1,16.7 352.1,34.3 309.6,34.3 309.6,31.6 311.5,31.6 311.5,19.4 309.6,19.4 			"/>
			<rect x="329" y="19.4" class="st23" width="3.7" height="12.2"/>
			<rect x="337.3" y="35.9" class="st23" width="8.5" height="2.8"/>
			<polygon class="st22" points="394.7,8.2 437.2,8.2 437.2,19 435.3,19 435.3,31.6 437.2,31.6 437.2,40 394.7,40 			"/>
			<rect x="401" y="35.9" class="st23" width="8.5" height="2.8"/>
			<polygon class="st24" points="394.7,16.7 437.2,16.7 437.2,19.4 435.3,19.4 435.3,31.6 437.2,31.6 437.2,34.3 394.7,34.3 			"/>
			<rect x="414.1" y="19.4" class="st23" width="3.7" height="12.2"/>
			<rect x="422.3" y="35.9" class="st23" width="8.5" height="2.8"/>
			<rect x="352.1" y="8.2" class="st22" width="42.5" height="31.7"/>
			<rect x="358.5" y="35.9" class="st23" width="8.5" height="2.8"/>
			<rect x="352.1" y="16.7" class="st24" width="42.5" height="17.6"/>
			<rect x="371.6" y="19.4" class="st23" width="3.7" height="12.2"/>
			<rect x="379.8" y="35.9" class="st23" width="8.5" height="2.8"/>
			<rect x="392.8" y="19.4" class="st23" width="3.7" height="12.2"/>
			<rect x="350.3" y="19.4" class="st23" width="3.7" height="12.2"/>
		</g>
		<g>
			<path class="st25" d="M420.9,23.3c0-3.1,2.5-5.7,5.7-5.7s5.7,2.5,5.7,5.7s-2.5,5.7-5.7,5.7S420.9,26.4,420.9,23.3z"/>
			<path class="st26" d="M421.8,20.2c0.4-0.6,1-1.2,1.6-1.6l7.9,7.9c-0.4,0.6-1,1.2-1.6,1.6L421.8,20.2z"/>
		</g>
		<g>
			<path class="st25" d="M399.6,23.3c0-3.1,2.5-5.7,5.7-5.7s5.7,2.5,5.7,5.7s-2.5,5.7-5.7,5.7S399.6,26.4,399.6,23.3z"/>
			<path class="st26" d="M400.6,20.2c0.4-0.6,1-1.2,1.6-1.6l7.9,7.9c-0.4,0.6-1,1.2-1.6,1.6L400.6,20.2z"/>
		</g>
		<g>
			<path class="st25" d="M378.4,23.3c0-3.1,2.5-5.7,5.7-5.7s5.7,2.5,5.7,5.7S387.2,29,384,29S378.4,26.4,378.4,23.3z"/>
			<path class="st26" d="M379.3,20.2c0.4-0.6,1-1.2,1.6-1.6l7.9,7.9c-0.4,0.6-1,1.2-1.6,1.6L379.3,20.2z"/>
		</g>
		<g>
			<path class="st25" d="M357.1,23.3c0-3.1,2.5-5.7,5.7-5.7s5.7,2.5,5.7,5.7s-2.5,5.7-5.7,5.7S357.1,26.4,357.1,23.3z"/>
			<path class="st26" d="M358,20.2c0.4-0.6,1-1.2,1.6-1.6l7.9,7.9c-0.4,0.6-1,1.2-1.6,1.6L358,20.2z"/>
		</g>
		<g>
			<path class="st25" d="M335.8,23.3c0-3.1,2.5-5.7,5.7-5.7s5.7,2.5,5.7,5.7s-2.5,5.7-5.7,5.7S335.8,26.4,335.8,23.3z"/>
			<path class="st26" d="M336.8,20.2c0.4-0.6,1-1.2,1.6-1.6l7.9,7.9c-0.4,0.6-1,1.2-1.6,1.6L336.8,20.2z"/>
		</g>
		<g>
			<path class="st25" d="M314.6,23.3c0-3.1,2.5-5.7,5.7-5.7s5.7,2.5,5.7,5.7s-2.5,5.7-5.7,5.7S314.6,26.4,314.6,23.3z"/>
			<path class="st26" d="M315.5,20.2c0.4-0.6,1-1.2,1.6-1.6l7.9,7.9c-0.4,0.6-1,1.2-1.6,1.6L315.5,20.2z"/>
		</g>
	</g>
	<g>
		<g>
			<polygon class="st22" points="161.5,8.2 204,8.2 204,40 161.5,40 161.5,31.6 163.3,31.6 163.3,19 161.5,19 			"/>
			<rect x="167.9" y="35.9" class="st23" width="8.5" height="2.8"/>
			<polygon class="st24" points="161.5,16.7 204,16.7 204,34.3 161.5,34.3 161.5,31.6 163.3,31.6 163.3,19.4 161.5,19.4 			"/>
			<rect x="180.9" y="19.4" class="st23" width="3.7" height="12.2"/>
			<rect x="189.1" y="35.9" class="st23" width="8.5" height="2.8"/>
			<polygon class="st22" points="246.5,8.2 289.1,8.2 289.1,19 287.2,19 287.2,31.6 289.1,31.6 289.1,40 246.5,40 			"/>
			<rect x="252.9" y="35.9" class="st23" width="8.5" height="2.8"/>
			<polygon class="st24" points="246.5,16.7 289.1,16.7 289.1,19.4 287.2,19.4 287.2,31.6 289.1,31.6 289.1,34.3 246.5,34.3 			"/>
			<rect x="266" y="19.4" class="st23" width="3.7" height="12.2"/>
			<rect x="274.2" y="35.9" class="st23" width="8.5" height="2.8"/>
			<rect x="204" y="8.2" class="st22" width="42.5" height="31.7"/>
			<rect x="210.4" y="35.9" class="st23" width="8.5" height="2.8"/>
			<rect x="204" y="16.7" class="st24" width="42.5" height="17.6"/>
			<rect x="223.4" y="19.4" class="st23" width="3.7" height="12.2"/>
			<rect x="231.7" y="35.9" class="st23" width="8.5" height="2.8"/>
			<rect x="244.7" y="19.4" class="st23" width="3.7" height="12.2"/>
			<rect x="202.2" y="19.4" class="st23" width="3.7" height="12.2"/>
		</g>
		<g>
			<path class="st25" d="M272.8,23.3c0-3.1,2.5-5.7,5.7-5.7s5.7,2.5,5.7,5.7s-2.5,5.7-5.7,5.7S272.8,26.4,272.8,23.3z"/>
			<path class="st26" d="M273.7,20.2c0.4-0.6,1-1.2,1.6-1.6l7.9,7.9c-0.4,0.6-1,1.2-1.6,1.6L273.7,20.2z"/>
		</g>
		<g>
			<path class="st25" d="M251.5,23.3c0-3.1,2.5-5.7,5.7-5.7s5.7,2.5,5.7,5.7s-2.5,5.7-5.7,5.7S251.5,26.4,251.5,23.3z"/>
			<path class="st26" d="M252.4,20.2c0.4-0.6,1-1.2,1.6-1.6l7.9,7.9c-0.4,0.6-1,1.2-1.6,1.6L252.4,20.2z"/>
		</g>
		<g>
			<path class="st25" d="M230.2,23.3c0-3.1,2.5-5.7,5.7-5.7s5.7,2.5,5.7,5.7S239,29,235.9,29S230.2,26.4,230.2,23.3z"/>
			<path class="st26" d="M231.2,20.2c0.4-0.6,1-1.2,1.6-1.6l7.9,7.9c-0.4,0.6-1,1.2-1.6,1.6L231.2,20.2z"/>
		</g>
		<g>
			<path class="st25" d="M209,23.3c0-3.1,2.5-5.7,5.7-5.7s5.7,2.5,5.7,5.7s-2.5,5.7-5.7,5.7S209,26.4,209,23.3z"/>
			<path class="st26" d="M209.9,20.2c0.4-0.6,1-1.2,1.6-1.6l7.9,7.9c-0.4,0.6-1,1.2-1.6,1.6L209.9,20.2z"/>
		</g>
		<g>
			<path class="st25" d="M187.7,23.3c0-3.1,2.5-5.7,5.7-5.7s5.7,2.5,5.7,5.7s-2.5,5.7-5.7,5.7S187.7,26.4,187.7,23.3z"/>
			<path class="st26" d="M188.7,20.2c0.4-0.6,1-1.2,1.6-1.6l7.9,7.9c-0.4,0.6-1,1.2-1.6,1.6L188.7,20.2z"/>
		</g>
		<g>
			<path class="st25" d="M166.5,23.3c0-3.1,2.5-5.7,5.7-5.7s5.7,2.5,5.7,5.7s-2.5,5.7-5.7,5.7S166.5,26.4,166.5,23.3z"/>
			<path class="st26" d="M167.4,20.2c0.4-0.6,1-1.2,1.6-1.6l7.9,7.9c-0.4,0.6-1,1.2-1.6,1.6L167.4,20.2z"/>
		</g>
	</g>
	<g>
		<g>
			<polygon class="st22" points="13,8.2 55.6,8.2 55.6,40 13,40 13,31.6 14.9,31.6 14.9,19 13,19 			"/>
			<rect x="19.4" y="35.9" class="st23" width="8.5" height="2.8"/>
			<polygon class="st24" points="13,16.7 55.6,16.7 55.6,34.3 13,34.3 13,31.6 14.9,31.6 14.9,19.4 13,19.4 			"/>
			<rect x="32.5" y="19.4" class="st23" width="3.7" height="12.2"/>
			<rect x="40.7" y="35.9" class="st23" width="8.5" height="2.8"/>
			<polygon class="st22" points="98.1,8.2 140.6,8.2 140.6,19 138.8,19 138.8,31.6 140.6,31.6 140.6,40 98.1,40 			"/>
			<rect x="104.5" y="35.9" class="st23" width="8.5" height="2.8"/>
			<polygon class="st24" points="98.1,16.7 140.6,16.7 140.6,19.4 138.8,19.4 138.8,31.6 140.6,31.6 140.6,34.3 98.1,34.3 			"/>
			<rect x="117.5" y="19.4" class="st23" width="3.7" height="12.2"/>
			<rect x="125.7" y="35.9" class="st23" width="8.5" height="2.8"/>
			<rect x="55.6" y="8.2" class="st22" width="42.5" height="31.7"/>
			<rect x="61.9" y="35.9" class="st23" width="8.5" height="2.8"/>
			<rect x="55.6" y="16.7" class="st24" width="42.5" height="17.6"/>
			<rect x="75" y="19.4" class="st23" width="3.7" height="12.2"/>
			<rect x="83.2" y="35.9" class="st23" width="8.5" height="2.8"/>
			<rect x="96.2" y="19.4" class="st23" width="3.7" height="12.2"/>
			<rect x="53.7" y="19.4" class="st23" width="3.7" height="12.2"/>
		</g>
		<g>
			<path class="st25" d="M124.3,23.3c0-3.1,2.5-5.7,5.7-5.7s5.7,2.5,5.7,5.7S133.1,29,130,29S124.3,26.4,124.3,23.3z"/>
			<path class="st26" d="M125.2,20.2c0.4-0.6,1-1.2,1.6-1.6l7.9,7.9c-0.4,0.6-1,1.2-1.6,1.6L125.2,20.2z"/>
		</g>
		<g>
			<path class="st25" d="M103,23.3c0-3.1,2.5-5.7,5.7-5.7s5.7,2.5,5.7,5.7s-2.5,5.7-5.7,5.7S103,26.4,103,23.3z"/>
			<path class="st26" d="M104,20.2c0.4-0.6,1-1.2,1.6-1.6l7.9,7.9c-0.4,0.6-1,1.2-1.6,1.6L104,20.2z"/>
		</g>
		<g>
			<path class="st25" d="M81.8,23.3c0-3.1,2.5-5.7,5.7-5.7s5.7,2.5,5.7,5.7S90.6,29,87.5,29S81.8,26.4,81.8,23.3z"/>
			<path class="st26" d="M82.7,20.2c0.4-0.6,1-1.2,1.6-1.6l7.9,7.9c-0.4,0.6-1,1.2-1.6,1.6L82.7,20.2z"/>
		</g>
		<g>
			<path class="st25" d="M60.5,23.3c0-3.1,2.5-5.7,5.7-5.7s5.7,2.5,5.7,5.7S69.3,29,66.2,29S60.5,26.4,60.5,23.3z"/>
			<path class="st26" d="M61.5,20.2c0.4-0.6,1-1.2,1.6-1.6l7.9,7.9c-0.4,0.6-1,1.2-1.6,1.6L61.5,20.2z"/>
		</g>
		<g>
			<path class="st25" d="M39.3,23.3c0-3.1,2.5-5.7,5.7-5.7s5.7,2.5,5.7,5.7S48.1,29,44.9,29S39.3,26.4,39.3,23.3z"/>
			<path class="st26" d="M40.2,20.2c0.4-0.6,1-1.2,1.6-1.6l7.9,7.9c-0.4,0.6-1,1.2-1.6,1.6L40.2,20.2z"/>
		</g>
		<g>
			<path class="st25" d="M18,23.3c0-3.1,2.5-5.7,5.7-5.7s5.7,2.5,5.7,5.7S26.8,29,23.7,29S18,26.4,18,23.3z"/>
			<path class="st26" d="M18.9,20.2c0.4-0.6,1-1.2,1.6-1.6l7.9,7.9c-0.4,0.6-1,1.2-1.6,1.6L18.9,20.2z"/>
		</g>
	</g>
	<g>
		<g>
			<polygon class="st22" points="437.2,244.6 394.7,244.6 394.7,212.9 437.2,212.9 437.2,221.2 435.3,221.2 435.3,233.8 
				437.2,233.8 			"/>
			<rect x="422.3" y="214.1" class="st23" width="8.5" height="2.8"/>
			<polygon class="st24" points="437.2,236.1 394.7,236.1 394.7,218.6 437.2,218.6 437.2,221.2 435.3,221.2 435.3,233.4 
				437.2,233.4 			"/>
			<rect x="414.1" y="221.2" class="st23" width="3.7" height="12.2"/>
			<rect x="401" y="214.1" class="st23" width="8.5" height="2.8"/>
			<polygon class="st22" points="352.1,244.6 309.6,244.6 309.6,233.8 311.5,233.8 311.5,221.2 309.6,221.2 309.6,212.9 
				352.1,212.9 			"/>
			<rect x="337.3" y="214.1" class="st23" width="8.5" height="2.8"/>
			<polygon class="st24" points="352.1,236.1 309.6,236.1 309.6,233.4 311.5,233.4 311.5,221.2 309.6,221.2 309.6,218.6 
				352.1,218.6 			"/>
			<rect x="329" y="221.2" class="st23" width="3.7" height="12.2"/>
			<rect x="316" y="214.1" class="st23" width="8.5" height="2.8"/>
			<rect x="352.1" y="212.9" class="st22" width="42.5" height="31.7"/>
			<rect x="379.8" y="214.1" class="st23" width="8.5" height="2.8"/>
			<rect x="352.1" y="218.6" class="st24" width="42.5" height="17.6"/>
			<rect x="371.6" y="221.2" class="st23" width="3.7" height="12.2"/>
			<rect x="358.5" y="214.1" class="st23" width="8.5" height="2.8"/>
			<rect x="350.3" y="221.2" class="st23" width="3.7" height="12.2"/>
			<rect x="392.8" y="221.2" class="st23" width="3.7" height="12.2"/>
		</g>
		<g>
			<path class="st25" d="M314.6,229.6c0-3.1,2.5-5.7,5.7-5.7s5.7,2.5,5.7,5.7s-2.5,5.7-5.7,5.7S314.6,232.7,314.6,229.6z"/>
			<path class="st26" d="M325,232.7c-0.4,0.6-1,1.2-1.6,1.6l-7.9-7.9c0.4-0.6,1-1.2,1.6-1.6L325,232.7z"/>
		</g>
		<g>
			<path class="st25" d="M335.8,229.6c0-3.1,2.5-5.7,5.7-5.7s5.7,2.5,5.7,5.7s-2.5,5.7-5.7,5.7S335.8,232.7,335.8,229.6z"/>
			<path class="st26" d="M346.2,232.7c-0.4,0.6-1,1.2-1.6,1.6l-7.9-7.9c0.4-0.6,1-1.2,1.6-1.6L346.2,232.7z"/>
		</g>
		<g>
			<path class="st25" d="M357.1,229.6c0-3.1,2.5-5.7,5.7-5.7s5.7,2.5,5.7,5.7s-2.5,5.7-5.7,5.7S357.1,232.7,357.1,229.6z"/>
			<path class="st26" d="M367.5,232.7c-0.4,0.6-1,1.2-1.6,1.6l-7.9-7.9c0.4-0.6,1-1.2,1.6-1.6L367.5,232.7z"/>
		</g>
		<g>
			<path class="st25" d="M378.4,229.6c0-3.1,2.5-5.7,5.7-5.7s5.7,2.5,5.7,5.7s-2.5,5.7-5.7,5.7S378.4,232.7,378.4,229.6z"/>
			<path class="st26" d="M388.8,232.7c-0.4,0.6-1,1.2-1.6,1.6l-7.9-7.9c0.4-0.6,1-1.2,1.6-1.6L388.8,232.7z"/>
		</g>
		<g>
			<path class="st25" d="M399.6,229.6c0-3.1,2.5-5.7,5.7-5.7s5.7,2.5,5.7,5.7s-2.5,5.7-5.7,5.7S399.6,232.7,399.6,229.6z"/>
			<path class="st26" d="M410,232.7c-0.4,0.6-1,1.2-1.6,1.6l-7.9-7.9c0.4-0.6,1-1.2,1.6-1.6L410,232.7z"/>
		</g>
		<g>
			<path class="st25" d="M420.9,229.6c0-3.1,2.5-5.7,5.7-5.7s5.7,2.5,5.7,5.7s-2.5,5.7-5.7,5.7S420.9,232.7,420.9,229.6z"/>
			<path class="st26" d="M431.3,232.7c-0.4,0.6-1,1.2-1.6,1.6l-7.9-7.9c0.4-0.6,1-1.2,1.6-1.6L431.3,232.7z"/>
		</g>
	</g>
	<g>
		<g>
			<polygon class="st22" points="289.1,244.6 246.5,244.6 246.5,212.9 289.1,212.9 289.1,221.2 287.2,221.2 287.2,233.8 
				289.1,233.8 			"/>
			<rect x="274.2" y="214.1" class="st23" width="8.5" height="2.8"/>
			<polygon class="st24" points="289.1,236.1 246.5,236.1 246.5,218.6 289.1,218.6 289.1,221.2 287.2,221.2 287.2,233.4 
				289.1,233.4 			"/>
			<rect x="266" y="221.2" class="st23" width="3.7" height="12.2"/>
			<rect x="252.9" y="214.1" class="st23" width="8.5" height="2.8"/>
			<polygon class="st22" points="204,244.6 161.5,244.6 161.5,233.8 163.3,233.8 163.3,221.2 161.5,221.2 161.5,212.9 204,212.9 			
				"/>
			<rect x="189.1" y="214.1" class="st23" width="8.5" height="2.8"/>
			<polygon class="st24" points="204,236.1 161.5,236.1 161.5,233.4 163.3,233.4 163.3,221.2 161.5,221.2 161.5,218.6 204,218.6 			
				"/>
			<rect x="180.9" y="221.2" class="st23" width="3.7" height="12.2"/>
			<rect x="167.9" y="214.1" class="st23" width="8.5" height="2.8"/>
			<rect x="204" y="212.9" class="st22" width="42.5" height="31.7"/>
			<rect x="231.7" y="214.1" class="st23" width="8.5" height="2.8"/>
			<rect x="204" y="218.6" class="st24" width="42.5" height="17.6"/>
			<rect x="223.4" y="221.2" class="st23" width="3.7" height="12.2"/>
			<rect x="210.4" y="214.1" class="st23" width="8.5" height="2.8"/>
			<rect x="202.2" y="221.2" class="st23" width="3.7" height="12.2"/>
			<rect x="244.7" y="221.2" class="st23" width="3.7" height="12.2"/>
		</g>
		<g>
			<path class="st25" d="M166.5,229.6c0-3.1,2.5-5.7,5.7-5.7s5.7,2.5,5.7,5.7s-2.5,5.7-5.7,5.7S166.5,232.7,166.5,229.6z"/>
			<path class="st26" d="M176.9,232.7c-0.4,0.6-1,1.2-1.6,1.6l-7.9-7.9c0.4-0.6,1-1.2,1.6-1.6L176.9,232.7z"/>
		</g>
		<g>
			<path class="st25" d="M187.7,229.6c0-3.1,2.5-5.7,5.7-5.7s5.7,2.5,5.7,5.7s-2.5,5.7-5.7,5.7S187.7,232.7,187.7,229.6z"/>
			<path class="st26" d="M198.1,232.7c-0.4,0.6-1,1.2-1.6,1.6l-7.9-7.9c0.4-0.6,1-1.2,1.6-1.6L198.1,232.7z"/>
		</g>
		<g>
			<path class="st25" d="M209,229.6c0-3.1,2.5-5.7,5.7-5.7s5.7,2.5,5.7,5.7s-2.5,5.7-5.7,5.7S209,232.7,209,229.6z"/>
			<path class="st26" d="M219.4,232.7c-0.4,0.6-1,1.2-1.6,1.6l-7.9-7.9c0.4-0.6,1-1.2,1.6-1.6L219.4,232.7z"/>
		</g>
		<g>
			<path class="st25" d="M230.2,229.6c0-3.1,2.5-5.7,5.7-5.7s5.7,2.5,5.7,5.7s-2.5,5.7-5.7,5.7S230.2,232.7,230.2,229.6z"/>
			<path class="st26" d="M240.6,232.7c-0.4,0.6-1,1.2-1.6,1.6l-7.9-7.9c0.4-0.6,1-1.2,1.6-1.6L240.6,232.7z"/>
		</g>
		<g>
			<path class="st25" d="M251.5,229.6c0-3.1,2.5-5.7,5.7-5.7s5.7,2.5,5.7,5.7s-2.5,5.7-5.7,5.7S251.5,232.7,251.5,229.6z"/>
			<path class="st26" d="M261.9,232.7c-0.4,0.6-1,1.2-1.6,1.6l-7.9-7.9c0.4-0.6,1-1.2,1.6-1.6L261.9,232.7z"/>
		</g>
		<g>
			<path class="st25" d="M272.8,229.6c0-3.1,2.5-5.7,5.7-5.7s5.7,2.5,5.7,5.7s-2.5,5.7-5.7,5.7S272.8,232.7,272.8,229.6z"/>
			<path class="st26" d="M283.2,232.7c-0.4,0.6-1,1.2-1.6,1.6l-7.9-7.9c0.4-0.6,1-1.2,1.6-1.6L283.2,232.7z"/>
		</g>
	</g>
	<g>
		<rect x="8.8" y="70.5" class="st27" width="430.9" height="112"/>
		<rect x="8.8" y="98.2" class="st28" width="430.9" height="56.7"/>
		<line class="st29" x1="178.4" y1="167.3" x2="178.4" y2="166.3"/>
		<g>
			<g>
				<path class="st27" d="M191.6,134.5c0.2,0,0.4,0.1,0.6,0.2c0.2,0.2,0.2,0.3,0.2,0.5c0,0.2-0.1,0.4-0.2,0.6
					c-0.2,0.2-0.3,0.2-0.6,0.2c-0.2,0-0.4-0.1-0.6-0.2c-0.2-0.2-0.2-0.3-0.2-0.6s0.1-0.4,0.2-0.6
					C191.2,134.5,191.3,134.5,191.6,134.5z M190.9,144.3v-6.1h-1v-1.1h2.2v7.1H190.9z"/>
				<path class="st27" d="M198.5,144.3v-4.2c0-0.8-0.1-1.3-0.3-1.6c-0.2-0.3-0.6-0.5-1.1-0.5c-0.3,0-0.6,0.1-0.9,0.3
					c-0.3,0.2-0.6,0.4-0.7,0.6v5.3h-1.3v-7.1h0.9l0.4,0.9c0.4-0.7,1.1-1.1,2-1.1c1.6,0,2.3,1,2.3,2.9v4.4H198.5z"/>
				<path class="st27" d="M201.3,146.2l0.7-1c0.7,0.5,1.4,0.7,2,0.7c0.6,0,1-0.1,1.4-0.3c0.3-0.2,0.5-0.4,0.5-0.7
					c0-0.6-0.4-0.9-1.3-0.9c-0.1,0-0.4,0-0.8,0.1c-0.4,0.1-0.7,0.1-0.9,0.1c-1,0-1.5-0.4-1.5-1.1c0-0.2,0.1-0.4,0.4-0.6
					c0.2-0.2,0.5-0.3,0.9-0.4c-1-0.5-1.5-1.3-1.5-2.5c0-0.7,0.3-1.4,0.8-1.9c0.5-0.5,1.2-0.7,1.9-0.7c0.7,0,1.3,0.1,1.6,0.4l0.6-0.8
					l0.8,0.8l-0.8,0.6c0.3,0.4,0.5,1,0.5,1.7c0,0.7-0.2,1.3-0.7,1.8c-0.4,0.5-1,0.8-1.8,0.8l-1,0.1c-0.1,0-0.3,0.1-0.5,0.1
					c-0.2,0.1-0.3,0.2-0.3,0.3c0,0.2,0.2,0.3,0.7,0.3c0.2,0,0.5,0,0.9-0.1c0.4-0.1,0.7-0.1,0.9-0.1c0.7,0,1.2,0.2,1.6,0.5
					c0.4,0.3,0.6,0.8,0.6,1.4c0,0.7-0.3,1.2-0.9,1.6c-0.6,0.4-1.3,0.6-2.2,0.6c-0.5,0-0.9-0.1-1.5-0.2
					C202.1,146.7,201.7,146.5,201.3,146.2z M204,138c-0.4,0-0.8,0.2-1.1,0.5c-0.3,0.3-0.4,0.7-0.4,1.1c0,0.5,0.1,0.9,0.4,1.2
					c0.3,0.3,0.6,0.5,1.1,0.5c0.4,0,0.8-0.2,1.1-0.5c0.3-0.3,0.4-0.7,0.4-1.3c0-0.4-0.1-0.8-0.4-1.1C204.8,138.2,204.4,138,204,138z
					"/>
				<path class="st27" d="M214.5,140.8h-5.1c0,0.8,0.2,1.5,0.7,1.9c0.4,0.4,0.9,0.6,1.6,0.6c0.7,0,1.3-0.2,1.8-0.6l0.5,0.9
					c-0.2,0.2-0.5,0.4-0.9,0.5c-0.5,0.2-1.1,0.3-1.7,0.3c-0.9,0-1.7-0.3-2.3-0.9c-0.7-0.7-1-1.6-1-2.7c0-1.2,0.4-2.1,1.1-2.8
					c0.6-0.6,1.4-1,2.3-1c1,0,1.8,0.3,2.4,0.9c0.6,0.6,0.8,1.3,0.8,2.2C214.6,140.3,214.5,140.6,214.5,140.8z M211.4,138.1
					c-0.6,0-1,0.2-1.4,0.5c-0.4,0.3-0.6,0.8-0.6,1.3h4c0-0.5-0.2-0.9-0.5-1.3C212.5,138.3,212,138.1,211.4,138.1z"/>
				<path class="st27" d="M220.3,144.3v-4.2c0-0.8-0.1-1.3-0.3-1.6c-0.2-0.3-0.6-0.5-1.1-0.5c-0.3,0-0.6,0.1-0.9,0.3
					c-0.3,0.2-0.6,0.4-0.7,0.6v5.3h-1.3v-7.1h0.9l0.4,0.9c0.4-0.7,1.1-1.1,2-1.1c1.6,0,2.3,1,2.3,2.9v4.4H220.3z"/>
				<path class="st27" d="M224.7,134.5c0.2,0,0.4,0.1,0.6,0.2c0.2,0.2,0.2,0.3,0.2,0.5c0,0.2-0.1,0.4-0.2,0.6
					c-0.2,0.2-0.3,0.2-0.6,0.2c-0.2,0-0.4-0.1-0.6-0.2c-0.2-0.2-0.2-0.3-0.2-0.6s0.1-0.4,0.2-0.6
					C224.3,134.5,224.4,134.5,224.7,134.5z M224,144.3v-6.1h-1v-1.1h2.2v7.1H224z"/>
				<path class="st27" d="M228.4,137.1v4.5c0,1.1,0.5,1.7,1.4,1.7c0.4,0,0.8-0.1,1.1-0.4c0.3-0.2,0.6-0.5,0.7-0.8v-5h1.3v7.1h-1.3
					v-1c-0.1,0.3-0.4,0.5-0.9,0.8c-0.4,0.2-0.8,0.3-1.3,0.3c-0.8,0-1.4-0.2-1.8-0.7c-0.4-0.4-0.6-1.1-0.6-1.9v-4.7H228.4z"/>
				<path class="st27" d="M243,144.3v-4.5c0-1.1-0.5-1.7-1.5-1.7c-0.3,0-0.6,0.1-0.9,0.3c-0.3,0.2-0.4,0.4-0.5,0.6v5.3h-1.3v-5.1
					c0-0.4-0.1-0.6-0.4-0.8c-0.3-0.2-0.6-0.3-1-0.3c-0.3,0-0.5,0.1-0.8,0.3c-0.3,0.2-0.5,0.4-0.6,0.6v5.3h-1.3v-7.1h0.8l0.4,0.8
					c0.5-0.6,1.1-1,1.8-1c1,0,1.7,0.3,2.1,1c0.1-0.3,0.4-0.5,0.8-0.7s0.8-0.3,1.2-0.3c0.7,0,1.3,0.2,1.7,0.7c0.4,0.4,0.6,1,0.6,1.8
					v4.8H243z"/>
			</g>
			<g>
				<polygon class="st27" points="211.4,150.3 211.3,150.3 210.5,148.6 209.8,150.3 209.7,150.3 208.8,147.7 209.2,147.7 
					209.8,149.4 210.5,147.7 210.6,147.7 211.3,149.4 211.9,147.7 212.3,147.7 				"/>
				<polygon class="st27" points="215.1,150.3 214.9,150.3 214.2,148.6 213.4,150.3 213.3,150.3 212.4,147.7 212.9,147.7 
					213.4,149.4 214.1,147.7 214.2,147.7 214.9,149.4 215.5,147.7 216,147.7 				"/>
				<polygon class="st27" points="218.7,150.3 218.6,150.3 217.8,148.6 217.1,150.3 217,150.3 216.1,147.7 216.5,147.7 217.1,149.4 
					217.8,147.7 217.9,147.7 218.6,149.4 219.2,147.7 219.6,147.7 				"/>
				<path class="st27" d="M220.5,149.6c0.1,0,0.2,0,0.3,0.1s0.1,0.2,0.1,0.3c0,0.1,0,0.2-0.1,0.3c-0.1,0.1-0.2,0.1-0.3,0.1
					c-0.1,0-0.2,0-0.3-0.1c-0.1-0.1-0.1-0.2-0.1-0.3c0-0.1,0-0.2,0.1-0.3C220.3,149.6,220.4,149.6,220.5,149.6z"/>
				<path class="st27" d="M222.3,146.7c0.1,0,0.1,0,0.2,0.1c0.1,0.1,0.1,0.1,0.1,0.2c0,0.1,0,0.1-0.1,0.2c-0.1,0.1-0.1,0.1-0.2,0.1
					c-0.1,0-0.1,0-0.2-0.1c-0.1-0.1-0.1-0.1-0.1-0.2s0-0.1,0.1-0.2C222.1,146.8,222.2,146.7,222.3,146.7z M222,150.3v-2.2h-0.4v-0.4
					h0.8v2.6H222z"/>
				<path class="st27" d="M224.8,150.3v-1.5c0-0.3,0-0.5-0.1-0.6c-0.1-0.1-0.2-0.2-0.4-0.2c-0.1,0-0.2,0-0.3,0.1
					c-0.1,0.1-0.2,0.1-0.3,0.2v1.9h-0.5v-2.6h0.3l0.1,0.3c0.1-0.3,0.4-0.4,0.7-0.4c0.6,0,0.8,0.3,0.8,1v1.6H224.8z"/>
				<path class="st27" d="M225.8,151l0.2-0.4c0.3,0.2,0.5,0.3,0.7,0.3c0.2,0,0.4,0,0.5-0.1c0.1-0.1,0.2-0.2,0.2-0.3
					c0-0.2-0.1-0.3-0.4-0.3c-0.1,0-0.1,0-0.3,0c-0.1,0-0.2,0-0.3,0c-0.4,0-0.5-0.1-0.5-0.4c0-0.1,0-0.2,0.1-0.2
					c0.1-0.1,0.2-0.1,0.3-0.1c-0.4-0.2-0.5-0.5-0.5-0.9c0-0.3,0.1-0.5,0.3-0.7s0.4-0.3,0.7-0.3c0.3,0,0.4,0.1,0.6,0.2l0.2-0.3
					l0.3,0.3l-0.3,0.2c0.1,0.2,0.2,0.3,0.2,0.6c0,0.3-0.1,0.5-0.2,0.7c-0.2,0.2-0.4,0.3-0.6,0.3l-0.4,0c0,0-0.1,0-0.2,0.1
					c-0.1,0-0.1,0.1-0.1,0.1c0,0.1,0.1,0.1,0.2,0.1c0.1,0,0.2,0,0.3,0c0.1,0,0.3,0,0.3,0c0.3,0,0.4,0.1,0.6,0.2
					c0.1,0.1,0.2,0.3,0.2,0.5c0,0.2-0.1,0.4-0.3,0.6c-0.2,0.1-0.5,0.2-0.8,0.2c-0.2,0-0.3,0-0.5-0.1C226,151.1,225.9,151,225.8,151z
					 M226.7,148c-0.2,0-0.3,0.1-0.4,0.2c-0.1,0.1-0.1,0.2-0.1,0.4c0,0.2,0,0.3,0.1,0.4c0.1,0.1,0.2,0.2,0.4,0.2
					c0.2,0,0.3-0.1,0.4-0.2c0.1-0.1,0.1-0.3,0.1-0.5c0-0.2,0-0.3-0.1-0.4C227,148.1,226.9,148,226.7,148z"/>
				<path class="st27" d="M230.5,149h-1.8c0,0.3,0.1,0.5,0.2,0.7c0.1,0.1,0.3,0.2,0.6,0.2c0.3,0,0.5-0.1,0.7-0.2l0.2,0.3
					c-0.1,0.1-0.2,0.1-0.3,0.2c-0.2,0.1-0.4,0.1-0.6,0.1c-0.3,0-0.6-0.1-0.8-0.3c-0.3-0.2-0.4-0.6-0.4-1c0-0.4,0.1-0.8,0.4-1
					c0.2-0.2,0.5-0.3,0.8-0.3c0.4,0,0.7,0.1,0.9,0.3c0.2,0.2,0.3,0.5,0.3,0.8C230.5,148.8,230.5,148.9,230.5,149z M229.4,148
					c-0.2,0-0.4,0.1-0.5,0.2c-0.1,0.1-0.2,0.3-0.2,0.5h1.4c0-0.2-0.1-0.3-0.2-0.5C229.8,148.1,229.6,148,229.4,148z"/>
				<path class="st27" d="M232.6,150.3v-1.5c0-0.3,0-0.5-0.1-0.6c-0.1-0.1-0.2-0.2-0.4-0.2c-0.1,0-0.2,0-0.3,0.1
					c-0.1,0.1-0.2,0.1-0.3,0.2v1.9H231v-2.6h0.3l0.1,0.3c0.1-0.3,0.4-0.4,0.7-0.4c0.6,0,0.8,0.3,0.8,1v1.6H232.6z"/>
				<path class="st27" d="M234.1,146.7c0.1,0,0.1,0,0.2,0.1c0.1,0.1,0.1,0.1,0.1,0.2c0,0.1,0,0.1-0.1,0.2c-0.1,0.1-0.1,0.1-0.2,0.1
					c-0.1,0-0.1,0-0.2-0.1c-0.1-0.1-0.1-0.1-0.1-0.2s0-0.1,0.1-0.2C234,146.8,234.1,146.7,234.1,146.7z M233.9,150.3v-2.2h-0.4v-0.4
					h0.8v2.6H233.9z"/>
				<path class="st27" d="M235.5,147.7v1.6c0,0.4,0.2,0.6,0.5,0.6c0.1,0,0.3,0,0.4-0.1c0.1-0.1,0.2-0.2,0.2-0.3v-1.8h0.5v2.6h-0.5
					v-0.4c-0.1,0.1-0.2,0.2-0.3,0.3c-0.2,0.1-0.3,0.1-0.4,0.1c-0.3,0-0.5-0.1-0.6-0.2c-0.1-0.2-0.2-0.4-0.2-0.7v-1.7H235.5z"/>
				<path class="st27" d="M240.7,150.3v-1.6c0-0.4-0.2-0.6-0.5-0.6c-0.1,0-0.2,0-0.3,0.1c-0.1,0.1-0.2,0.1-0.2,0.2v1.9h-0.5v-1.8
					c0-0.1,0-0.2-0.1-0.3c-0.1-0.1-0.2-0.1-0.4-0.1c-0.1,0-0.2,0-0.3,0.1c-0.1,0.1-0.2,0.1-0.2,0.2v1.9h-0.5v-2.6h0.3l0.2,0.3
					c0.2-0.2,0.4-0.3,0.7-0.3c0.4,0,0.6,0.1,0.8,0.3c0.1-0.1,0.1-0.2,0.3-0.2s0.3-0.1,0.4-0.1c0.3,0,0.5,0.1,0.6,0.2
					c0.1,0.2,0.2,0.4,0.2,0.7v1.7H240.7z"/>
				<path class="st27" d="M241.6,150.1l0.2-0.4c0.3,0.2,0.5,0.2,0.6,0.2c0.3,0,0.4-0.1,0.4-0.4c0-0.2-0.1-0.3-0.4-0.4
					c-0.2-0.1-0.4-0.2-0.4-0.2c-0.1,0-0.1-0.1-0.2-0.2c-0.1-0.1-0.1-0.1-0.1-0.2c0-0.1,0-0.1,0-0.2c0-0.2,0.1-0.4,0.2-0.5
					s0.4-0.2,0.6-0.2c0.2,0,0.4,0.1,0.7,0.2l-0.1,0.4c-0.2-0.1-0.4-0.2-0.5-0.2c-0.1,0-0.2,0-0.3,0.1c-0.1,0.1-0.1,0.1-0.1,0.2
					c0,0.2,0.1,0.3,0.3,0.4l0.3,0.1c0.2,0.1,0.3,0.2,0.4,0.3c0.1,0.1,0.1,0.3,0.1,0.4c0,0.2-0.1,0.4-0.2,0.5
					c-0.2,0.1-0.4,0.2-0.7,0.2C242.1,150.3,241.9,150.2,241.6,150.1z"/>
				<path class="st27" d="M243.8,149.5v-2.9h0.5v2.8c0,0.1,0,0.2,0.1,0.3c0.1,0.1,0.2,0.1,0.3,0.1v0.4
					C244.1,150.3,243.8,150.1,243.8,149.5z"/>
				<path class="st27" d="M245.7,149.6c0.1,0,0.2,0,0.3,0.1c0.1,0.1,0.1,0.2,0.1,0.3c0,0.1,0,0.2-0.1,0.3c-0.1,0.1-0.2,0.1-0.3,0.1
					s-0.2,0-0.3-0.1c-0.1-0.1-0.1-0.2-0.1-0.3c0-0.1,0-0.2,0.1-0.3C245.6,149.6,245.7,149.6,245.7,149.6z"/>
				<path class="st27" d="M249,147.9l-0.2,0.3c0,0-0.1-0.1-0.2-0.1c-0.1,0-0.2-0.1-0.3-0.1c-0.2,0-0.4,0.1-0.6,0.3
					c-0.1,0.2-0.2,0.4-0.2,0.7c0,0.3,0.1,0.5,0.2,0.7c0.1,0.2,0.4,0.2,0.6,0.2c0.2,0,0.4-0.1,0.6-0.2l0.2,0.4
					c-0.2,0.2-0.5,0.2-0.9,0.2c-0.3,0-0.6-0.1-0.9-0.4c-0.2-0.2-0.3-0.6-0.3-1c0-0.4,0.1-0.7,0.4-1c0.2-0.2,0.6-0.4,1-0.4
					c0.1,0,0.3,0,0.4,0.1C248.8,147.8,248.9,147.8,249,147.9z"/>
				<path class="st27" d="M249.3,149c0-0.4,0.1-0.7,0.3-1c0.2-0.2,0.5-0.4,0.8-0.4c0.4,0,0.7,0.1,0.9,0.4c0.2,0.2,0.3,0.6,0.3,1
					c0,0.4-0.1,0.7-0.3,1s-0.5,0.4-0.8,0.4c-0.4,0-0.6-0.1-0.9-0.4C249.4,149.7,249.3,149.4,249.3,149z M249.8,149
					c0,0.6,0.2,1,0.7,1c0.2,0,0.4-0.1,0.5-0.3c0.1-0.2,0.2-0.4,0.2-0.7c0-0.6-0.2-1-0.7-1c-0.2,0-0.4,0.1-0.5,0.3
					C249.8,148.4,249.8,148.7,249.8,149z"/>
				<path class="st27" d="M255,150.3v-1.6c0-0.4-0.2-0.6-0.5-0.6c-0.1,0-0.2,0-0.3,0.1c-0.1,0.1-0.2,0.1-0.2,0.2v1.9h-0.5v-1.8
					c0-0.1,0-0.2-0.1-0.3c-0.1-0.1-0.2-0.1-0.4-0.1c-0.1,0-0.2,0-0.3,0.1c-0.1,0.1-0.2,0.1-0.2,0.2v1.9h-0.5v-2.6h0.3l0.2,0.3
					c0.2-0.2,0.4-0.3,0.7-0.3c0.4,0,0.6,0.1,0.8,0.3c0.1-0.1,0.1-0.2,0.3-0.2s0.3-0.1,0.4-0.1c0.3,0,0.5,0.1,0.6,0.2
					c0.1,0.2,0.2,0.4,0.2,0.7v1.7H255z"/>
			</g>
			<path class="st30" d="M214.5,111.5l6.8,6.8h6.1l8.5-8.5l5.4,5.4l-17,17l-17-17l3.7-3.7c-0.2-0.3-0.2-0.6-0.2-0.9c0-1.1,0.9-2,2-2
				c1.1,0,2,0.9,2,2C214.7,110.9,214.6,111.2,214.5,111.5z M211.8,112.3l-2.9,2.9l15.4,15.4l15.4-15.4l-3.8-3.8l-8.1,8.1h-7
				l-7.1-7.1c-0.3,0.2-0.6,0.3-1,0.3C212.4,112.6,212.1,112.5,211.8,112.3z M221.3,102.6c0.2,0.3,0.3,0.6,0.3,1
				c0,0.4-0.1,0.8-0.3,1.1l2.9,2.9l3.9-3.9l-3.9-3.9L221.3,102.6z M217.7,103.7c0-1.1,0.9-2,2-2c0.3,0,0.6,0.1,0.9,0.2l3.7-3.7
				l5.5,5.5l-5.5,5.5l-3.8-3.8c-0.2,0.1-0.5,0.1-0.7,0.1C218.5,105.6,217.7,104.8,217.7,103.7z M214.2,107.1c0-1.1,0.9-2,2-2
				c1.1,0,2,0.9,2,2c0,0.4-0.1,0.8-0.3,1.1l5.1,5.1h2.7l6.5-6.5l0.8,0.8l-6.8,6.8h-3.6l-5.5-5.5c-0.2,0.1-0.5,0.2-0.8,0.2
				C215.1,109.1,214.2,108.2,214.2,107.1z"/>
		</g>
		<g>
			<g>
				<polygon class="st28" points="18.7,175.8 18.7,177.1 20.2,177.1 20.2,177.7 18.7,177.7 18.7,178.9 17.9,178.9 17.9,177.7 
					16.3,177.7 16.3,177.1 17.9,177.1 17.9,175.8 				"/>
				<path class="st28" d="M20.2,172.3v2.3h-0.8v-0.7h-2.3v0.7h-0.7c0-0.1,0-0.2,0-0.3c0-0.1,0-0.2-0.1-0.3c0-0.1-0.1-0.1-0.2-0.2
					c-0.1,0-0.2-0.1-0.3-0.1v-0.8h3.6v-0.7H20.2z"/>
				<path class="st28" d="M20.2,168.7v2.7h-0.7c-0.2-0.2-0.4-0.4-0.6-0.6c-0.2-0.2-0.4-0.4-0.6-0.5c-0.2-0.2-0.4-0.3-0.6-0.4
					c-0.2-0.1-0.3-0.1-0.5-0.1c-0.2,0-0.4,0.1-0.5,0.2c-0.1,0.1-0.2,0.2-0.2,0.4c0,0.1,0,0.3,0.1,0.5c0.1,0.2,0.2,0.3,0.3,0.4v0.1
					h-1c-0.1-0.1-0.1-0.3-0.2-0.5c-0.1-0.2-0.1-0.4-0.1-0.7c0-0.4,0.1-0.8,0.3-1c0.2-0.2,0.6-0.3,1-0.3c0.3,0,0.5,0.1,0.8,0.2
					c0.2,0.1,0.5,0.3,0.8,0.5c0.2,0.1,0.3,0.3,0.5,0.4c0.1,0.1,0.2,0.2,0.3,0.3v-1.6H20.2z"/>
				<polygon class="st28" points="15.8,164.9 20.2,166.1 20.2,167.1 15.8,168.4 15.8,167.5 18.9,166.6 15.8,165.8 				"/>
			</g>
			<path class="st28" d="M34.5,174.9v1.2l-0.9,0.3v1.6l0.9,0.3v1.1l-4.4-1.6v-1.3L34.5,174.9z M32.8,176.6l-1.6,0.5l1.6,0.5V176.6z"
				/>
			<path class="st28" d="M47.5,175.2c0.2,0,0.4,0,0.6,0.1c0.2,0.1,0.3,0.2,0.4,0.3c0.1,0.2,0.2,0.4,0.3,0.6c0.1,0.2,0.1,0.5,0.1,0.8
				v1.9h-4.4v-1.7c0-0.4,0-0.6,0-0.8c0-0.2,0.1-0.3,0.2-0.5c0.1-0.2,0.2-0.3,0.3-0.4c0.1-0.1,0.3-0.1,0.5-0.1c0.2,0,0.4,0.1,0.6,0.2
				c0.2,0.1,0.3,0.3,0.4,0.5h0c0.1-0.3,0.2-0.5,0.4-0.7C47,175.3,47.2,175.2,47.5,175.2z M45.7,176.6c-0.1,0-0.1,0-0.2,0.1
				c-0.1,0-0.1,0.1-0.2,0.2c0,0.1,0,0.2,0,0.3c0,0.1,0,0.3,0,0.5v0.1h0.9v-0.2c0-0.2,0-0.3,0-0.5s0-0.2-0.1-0.3
				c0-0.1-0.1-0.2-0.2-0.2C45.9,176.6,45.8,176.6,45.7,176.6z M47.5,176.3c-0.1,0-0.2,0-0.3,0.1c-0.1,0.1-0.1,0.1-0.2,0.3
				c0,0.1,0,0.2,0,0.4s0,0.3,0,0.5v0.2H48v-0.1c0-0.3,0-0.5,0-0.7s0-0.3-0.1-0.4c0-0.1-0.1-0.2-0.2-0.2
				C47.7,176.4,47.6,176.3,47.5,176.3z"/>
			<g>
				<path class="st28" d="M60.1,176.5c-0.1,0-0.2,0-0.3,0.1s-0.1,0.1-0.2,0.2c0,0.1,0,0.2-0.1,0.3c0,0.1,0,0.2,0,0.4v0.4h1.2v-0.3
					c0-0.2,0-0.3,0-0.5s-0.1-0.2-0.1-0.3c-0.1-0.1-0.1-0.1-0.2-0.2C60.4,176.5,60.3,176.5,60.1,176.5z M63.2,174.7v1.4l-1.6,1.2v0.5
					h1.6v1.1h-4.4V177c0-0.3,0-0.5,0-0.7s0.1-0.4,0.2-0.5c0.1-0.2,0.2-0.3,0.4-0.4c0.2-0.1,0.3-0.1,0.6-0.1c0.3,0,0.6,0.1,0.8,0.2
					c0.2,0.1,0.4,0.4,0.5,0.6L63.2,174.7z"/>
				<path class="st28" d="M61.7,171v2.4c0.3,0,0.5-0.1,0.6-0.3c0.1-0.2,0.2-0.4,0.2-0.8c0-0.2,0-0.4-0.1-0.6s-0.2-0.4-0.3-0.5v-0.1
					H63c0.1,0.2,0.2,0.5,0.2,0.7s0.1,0.4,0.1,0.7c0,0.7-0.1,1.2-0.4,1.5s-0.7,0.5-1.3,0.5c-0.5,0-1-0.2-1.3-0.5
					c-0.3-0.3-0.5-0.8-0.5-1.4c0-0.5,0.1-0.9,0.4-1.2c0.3-0.3,0.7-0.4,1.2-0.4H61.7z M61.1,172.1c-0.2,0-0.4,0.1-0.5,0.2
					c-0.1,0.1-0.2,0.3-0.2,0.5c0,0.2,0.1,0.4,0.2,0.5s0.3,0.2,0.5,0.2V172.1z"/>
				<path class="st28" d="M59.4,168.2L59.4,168.2c0,0.1,0,0.2,0,0.3c0,0.1,0,0.2,0,0.2c0,0.2,0,0.3,0.1,0.4c0.1,0.1,0.2,0.1,0.4,0.1
					h0v-0.8h0.7v0.8h2.6v1.1h-2.6v0.5h-0.7v-0.5h-0.1c-0.4,0-0.7-0.1-0.9-0.3c-0.2-0.2-0.3-0.5-0.3-1c0-0.2,0-0.3,0-0.4
					c0-0.1,0-0.2,0-0.3H59.4z"/>
				<rect x="62" y="166.6" class="st28" width="1.2" height="1.1"/>
			</g>
			<polyline class="st31" points="11.6,182.5 11.6,157.8 67.2,157.8 67.2,182.5 			"/>
		</g>
		<path class="st28" d="M29.7,167.6c0.3-0.4-0.1-2.4-1.1-4.1l-3,4.1C26.3,167.8,29.1,168.4,29.7,167.6z M55.7,160.7v0.3
			c0,0,0,0,0.1,0c0.1,0,0.2,0,0.2,0c0,0,0.1-0.1,0.1-0.1c0-0.1-0.1-0.2-0.2-0.2L55.7,160.7L55.7,160.7z M56.2,161.6l-0.3-0.4h-0.2
			v0.4h-0.1v-1h0.3c0.3,0,0.4,0.1,0.4,0.3c0,0.1-0.1,0.2-0.2,0.3l0.3,0.5H56.2z M56.6,161.1c0-0.2-0.1-0.4-0.2-0.5
			c-0.1-0.1-0.3-0.2-0.5-0.2s-0.4,0.1-0.5,0.2c-0.1,0.1-0.2,0.3-0.2,0.5c0,0.2,0.1,0.4,0.2,0.5c0.1,0.1,0.3,0.2,0.5,0.2
			s0.4-0.1,0.5-0.2C56.5,161.5,56.6,161.3,56.6,161.1z M55.1,161.1c0-0.2,0.1-0.4,0.2-0.6c0.2-0.2,0.4-0.2,0.6-0.2s0.4,0.1,0.6,0.2
			c0.2,0.2,0.2,0.4,0.2,0.6s-0.1,0.4-0.2,0.6c-0.2,0.2-0.4,0.2-0.6,0.2s-0.4-0.1-0.6-0.2C55.1,161.5,55.1,161.3,55.1,161.1z
			 M53.8,163.2c-0.3,0-0.5,0.1-0.6,0.3c-0.2,0.2-0.2,0.4-0.2,0.7c0,0.3,0.1,0.5,0.2,0.7c0.2,0.2,0.4,0.3,0.7,0.3
			c0.3,0,0.5-0.1,0.6-0.3c0.2-0.2,0.2-0.4,0.2-0.8c0-0.3-0.1-0.5-0.2-0.7C54.2,163.3,54,163.2,53.8,163.2z M50.5,167v-2.5
			c0-0.5-0.1-0.8-0.2-1c-0.1-0.2-0.4-0.3-0.7-0.3c-0.2,0-0.4,0.1-0.5,0.2c-0.2,0.1-0.3,0.2-0.4,0.4v3.2h-0.8v-4.3h0.5l0.2,0.6
			c0.3-0.4,0.7-0.6,1.2-0.6c0.9,0,1.4,0.6,1.4,1.7v2.7H50.5z M45.9,167v-3.6h-0.6v-0.6h1.3v4.3H45.9z M46.3,161.1
			c0.1,0,0.2,0,0.3,0.1c0.1,0.1,0.1,0.2,0.1,0.3c0,0.1,0,0.2-0.1,0.3c-0.1,0.1-0.2,0.1-0.3,0.1c-0.1,0-0.2,0-0.3-0.1
			c-0.1-0.1-0.1-0.2-0.1-0.3s0-0.2,0.1-0.3C46.1,161.1,46.2,161.1,46.3,161.1z M41.4,166.7l0.3-0.7c0.1,0.1,0.3,0.2,0.6,0.3
			c0.2,0.1,0.4,0.1,0.6,0.1c0.3,0,0.6-0.1,0.8-0.3c0.2-0.2,0.3-0.4,0.3-0.7c0-0.2-0.1-0.4-0.2-0.5c-0.1-0.2-0.4-0.4-0.8-0.6
			l-0.5-0.2c-0.4-0.2-0.7-0.4-0.8-0.7c-0.2-0.3-0.2-0.6-0.2-0.9c0-0.4,0.2-0.8,0.5-1.1s0.7-0.4,1.2-0.4c0.6,0,1.1,0.1,1.4,0.3
			l-0.2,0.7c-0.1-0.1-0.3-0.2-0.5-0.2c-0.2-0.1-0.4-0.1-0.6-0.1c-0.3,0-0.5,0.1-0.6,0.2c-0.2,0.2-0.2,0.4-0.2,0.6
			c0,0.1,0,0.3,0.1,0.4c0.1,0.1,0.1,0.2,0.2,0.3c0.1,0.1,0.3,0.2,0.6,0.3l0.5,0.2c0.4,0.2,0.7,0.4,0.8,0.7c0.2,0.3,0.2,0.6,0.2,1
			c0,0.4-0.2,0.8-0.5,1.1c-0.4,0.3-0.8,0.5-1.4,0.5C42.2,167.1,41.7,166.9,41.4,166.7z M36.3,161.1h0.8v4c0,0.4,0.1,0.7,0.3,0.9
			c0.2,0.2,0.5,0.3,0.9,0.3c0.4,0,0.7-0.1,0.9-0.3c0.2-0.2,0.3-0.5,0.3-0.9v-4h0.8v4.1c0,0.6-0.2,1.1-0.6,1.4
			c-0.4,0.3-0.9,0.5-1.5,0.5c-0.7,0-1.2-0.2-1.5-0.5c-0.4-0.3-0.5-0.8-0.5-1.4V161.1z M32.5,164v2.2c0.3,0,0.5,0,0.6,0
			c0.5,0,0.9-0.1,1.1-0.3c0.2-0.2,0.3-0.5,0.3-0.9c0-0.4-0.1-0.7-0.3-0.8c-0.2-0.2-0.6-0.3-1.1-0.3L32.5,164z M32.5,161.7v1.7
			c0.2,0,0.4,0,0.6,0c0.8,0,1.1-0.3,1.1-0.9c0-0.5-0.3-0.8-1-0.8C32.9,161.7,32.7,161.7,32.5,161.7z M33.4,167h-1.7v-5.9
			c0.7,0,1.2-0.1,1.5-0.1c0.6,0,1,0.1,1.3,0.4c0.3,0.2,0.5,0.6,0.5,1.1c0,0.3-0.1,0.5-0.3,0.7c-0.2,0.2-0.4,0.4-0.7,0.4
			c0.5,0.1,0.8,0.3,1,0.6c0.2,0.3,0.3,0.6,0.3,1.1c0,0.5-0.2,0.9-0.6,1.2C34.5,166.8,34,167,33.4,167z M52.6,167.6
			c0,0,0.9,0.4,1.2,0.4c0.3,0,0.6-0.1,0.8-0.2c0.2-0.1,0.3-0.3,0.3-0.4c0-0.3-0.3-0.5-0.8-0.5c-0.1,0-0.2,0-0.5,0.1
			c-0.2,0-0.4,0.1-0.5,0.1c-0.6,0-0.9-0.2-0.9-0.7c0-0.1,0.1-0.3,0.2-0.4c0.1-0.1,0.3-0.2,0.5-0.2c-0.6-0.3-0.9-0.8-0.9-1.5
			c0-0.4,0.2-0.8,0.5-1.1c0.3-0.3,0.7-0.4,1.2-0.4c0.4,0,0.8,0.1,1,0.3l0.4-0.5l0.5,0.5l-0.5,0.3c0.2,0.3,0.3,0.6,0.3,1
			c0,0.4-0.1,0.8-0.4,1.1c-0.3,0.3-0.6,0.5-1.1,0.5l-0.6,0.1c-0.1,0-0.2,0-0.3,0.1c-0.1,0-0.2,0.1-0.2,0.2c0,0.1,0.1,0.2,0.4,0.2
			c0.1,0,0.3,0,0.5-0.1c0.2,0,0.4-0.1,0.5-0.1c0.4,0,0.7,0.1,1,0.3c0.2,0.2,0.4,0.5,0.4,0.8c0,0.4-0.2,0.7-0.5,1
			c-0.4,0.2-0.8,0.4-1.3,0.4c-0.3,0-0.6,0-0.9-0.1c-0.1,0-0.2-0.1-0.3-0.1c-1.8-0.9-3.9-0.5-5.8-0.3c-3.9,0.4-10.7,1.7-14.4,0.9
			c-0.9-0.2-1.5-0.4-2.3-0.8c-1.2,1-4.5,0.2-5.7-0.2l1.1-1.4l-1.9-1.5l0.4-0.6l1.9,1.4l1.3-1.8l-1.9-1.5l0.4-0.6l1.9,1.4l1-1.4
			c0.6,0.8,2.3,3.8,1.8,5.4c2.9,1.2,6.1,0.9,9.2,0.7c2.4-0.2,4.7-0.6,7.1-0.9C48.7,167.2,50.7,166.8,52.6,167.6z"/>
		<g>
			<g>
				<polygon class="st28" points="32.8,80 28.6,80 28.6,79 31.1,75.3 28.7,75.3 28.7,74.2 32.6,74.2 32.6,75.3 30.2,78.9 32.8,78.9 
									"/>
				<path class="st28" d="M37.2,80h-3.3v-1h1V76h-1V75c0.2,0,0.3,0,0.5,0c0.1,0,0.3-0.1,0.4-0.1c0.1-0.1,0.2-0.2,0.3-0.3
					c0.1-0.1,0.1-0.2,0.1-0.4h1.1V79h1V80z"/>
			</g>
			<polyline class="st32" points="44.1,83.6 44.1,89.2 35.9,89.2 			"/>
			<polyline class="st32" points="22,83.6 22,89.2 30.4,89.2 34,92.8 			"/>
		</g>
		<g>
			<g>
				<polygon class="st28" points="119,80 114.9,80 114.9,79 117.3,75.3 115,75.3 115,74.2 118.9,74.2 118.9,75.3 116.4,78.9 
					119,78.9 				"/>
				<path class="st28" d="M123.3,77.3c0.1,0.1,0.2,0.2,0.3,0.4c0.1,0.1,0.1,0.3,0.1,0.6c0,0.3,0,0.5-0.1,0.8
					c-0.1,0.2-0.2,0.4-0.4,0.6c-0.2,0.2-0.4,0.3-0.7,0.4c-0.2,0.1-0.6,0.1-0.9,0.1c-0.4,0-0.8,0-1.1-0.1c-0.3-0.1-0.5-0.2-0.7-0.3
					v-1.3h0.1c0.2,0.1,0.4,0.3,0.7,0.4c0.3,0.1,0.5,0.1,0.7,0.1c0.1,0,0.3,0,0.4,0c0.2,0,0.3-0.1,0.4-0.2c0.1-0.1,0.1-0.1,0.2-0.2
					c0-0.1,0.1-0.2,0.1-0.4c0-0.2,0-0.3-0.1-0.4c-0.1-0.1-0.2-0.2-0.3-0.2c-0.1,0-0.2-0.1-0.4-0.1c-0.2,0-0.3,0-0.4,0h-0.3v-1h0.3
					c0.2,0,0.3,0,0.5,0c0.1,0,0.2,0,0.3-0.1c0.1,0,0.2-0.1,0.2-0.2c0-0.1,0.1-0.2,0.1-0.4c0-0.1,0-0.2-0.1-0.3
					c-0.1-0.1-0.1-0.1-0.2-0.2c-0.1,0-0.2-0.1-0.3-0.1s-0.2,0-0.3,0c-0.2,0-0.4,0-0.7,0.1c-0.2,0.1-0.5,0.2-0.7,0.4h-0.1v-1.3
					c0.2-0.1,0.4-0.2,0.7-0.2c0.3-0.1,0.6-0.1,0.9-0.1c0.3,0,0.6,0,0.8,0.1c0.2,0.1,0.4,0.1,0.6,0.3c0.2,0.1,0.3,0.3,0.4,0.5
					c0.1,0.2,0.1,0.4,0.1,0.6c0,0.3-0.1,0.6-0.3,0.9c-0.2,0.3-0.4,0.4-0.7,0.5V77c0.1,0,0.2,0.1,0.4,0.1S123.2,77.2,123.3,77.3z"/>
			</g>
			<polyline class="st32" points="130.4,83.6 130.4,89.2 122.1,89.2 			"/>
			<polyline class="st32" points="108.3,83.6 108.3,89.2 116.7,89.2 120.3,92.8 			"/>
		</g>
		<g>
			<g>
				<polygon class="st28" points="76.5,80 72.4,80 72.4,79 74.8,75.3 72.5,75.3 72.5,74.2 76.4,74.2 76.4,75.3 73.9,78.9 76.5,78.9 
									"/>
				<path class="st28" d="M81.3,80h-3.9v-1c0.3-0.3,0.6-0.5,0.9-0.8c0.3-0.3,0.5-0.5,0.7-0.7c0.3-0.3,0.5-0.6,0.6-0.8
					s0.2-0.5,0.2-0.7c0-0.3-0.1-0.5-0.2-0.6c-0.1-0.1-0.4-0.2-0.6-0.2c-0.2,0-0.4,0-0.6,0.1c-0.2,0.1-0.4,0.2-0.6,0.4h-0.1v-1.3
					c0.2-0.1,0.4-0.2,0.7-0.2c0.3-0.1,0.6-0.1,0.9-0.1c0.6,0,1.1,0.2,1.4,0.5c0.3,0.3,0.5,0.7,0.5,1.3c0,0.4-0.1,0.7-0.2,1
					c-0.2,0.3-0.4,0.7-0.7,1c-0.2,0.2-0.4,0.4-0.6,0.6c-0.2,0.2-0.3,0.3-0.4,0.4h2.2V80z"/>
			</g>
			<polyline class="st32" points="87.9,83.6 87.9,89.2 79.6,89.2 			"/>
			<polyline class="st32" points="65.8,83.6 65.8,89.2 74.2,89.2 77.7,92.8 			"/>
		</g>
		<g>
			<g>
				<polygon class="st28" points="182.5,80 178.3,80 178.3,79 180.8,75.3 178.4,75.3 178.4,74.2 182.3,74.2 182.3,75.3 179.9,78.9 
					182.5,78.9 				"/>
				<path class="st28" d="M187.3,78.7h-0.7v1.4h-1.2v-1.4H183v-1.1l2.3-3.4h1.3v3.4h0.7V78.7z M185.4,77.6v-2.1l-1.4,2.1H185.4z"/>
			</g>
			<polyline class="st32" points="193.8,83.6 193.8,89.2 185.5,89.2 			"/>
			<polyline class="st32" points="171.7,83.6 171.7,89.2 180.1,89.2 183.7,92.8 			"/>
		</g>
		<g>
			<g>
				<polygon class="st28" points="267.5,80 263.4,80 263.4,79 265.8,75.3 263.5,75.3 263.5,74.2 267.4,74.2 267.4,75.3 264.9,78.9 
					267.5,78.9 				"/>
				<path class="st28" d="M272.3,78.1c0,0.3,0,0.6-0.1,0.8c-0.1,0.3-0.2,0.5-0.4,0.7c-0.2,0.2-0.4,0.3-0.6,0.4
					c-0.2,0.1-0.5,0.2-0.8,0.2c-0.3,0-0.6,0-0.8-0.1c-0.2-0.1-0.5-0.2-0.6-0.4c-0.2-0.2-0.4-0.5-0.5-0.9c-0.1-0.4-0.2-0.8-0.2-1.3
					c0-0.5,0-1,0.1-1.4c0.1-0.4,0.3-0.7,0.5-1.1c0.2-0.3,0.5-0.5,0.8-0.7c0.3-0.2,0.8-0.2,1.2-0.2c0.2,0,0.3,0,0.5,0
					c0.2,0,0.3,0,0.4,0.1v1.1h-0.1c-0.1,0-0.2-0.1-0.3-0.1c-0.1,0-0.3-0.1-0.5-0.1c-0.4,0-0.8,0.1-1,0.4c-0.2,0.2-0.4,0.6-0.4,1
					c0.2-0.1,0.3-0.2,0.5-0.3c0.2-0.1,0.4-0.1,0.6-0.1c0.2,0,0.4,0,0.5,0.1c0.2,0.1,0.3,0.1,0.5,0.2c0.2,0.2,0.3,0.4,0.4,0.6
					C272.2,77.4,272.2,77.7,272.3,78.1z M270.7,78.9c0.1-0.1,0.1-0.2,0.2-0.3c0-0.1,0.1-0.3,0.1-0.5c0-0.2,0-0.3-0.1-0.5
					c0-0.1-0.1-0.2-0.2-0.3c-0.1-0.1-0.2-0.1-0.3-0.1c-0.1,0-0.2,0-0.3,0c-0.1,0-0.2,0-0.3,0c-0.1,0-0.2,0.1-0.3,0.1
					c0,0,0,0.1,0,0.1c0,0.1,0,0.1,0,0.2c0,0.3,0,0.6,0.1,0.8c0.1,0.2,0.1,0.4,0.2,0.5c0.1,0.1,0.1,0.1,0.2,0.2
					c0.1,0,0.2,0.1,0.3,0.1c0.1,0,0.2,0,0.2-0.1C270.6,79.1,270.7,79,270.7,78.9z"/>
			</g>
			<polyline class="st32" points="278.9,83.6 278.9,89.2 270.6,89.2 			"/>
			<polyline class="st32" points="256.8,83.6 256.8,89.2 265.2,89.2 268.7,92.8 			"/>
		</g>
		<g>
			<g>
				<polygon class="st28" points="225,80 220.8,80 220.8,79 223.3,75.3 221,75.3 221,74.2 224.9,74.2 224.9,75.3 222.4,78.9 
					225,78.9 				"/>
				<path class="st28" d="M229.6,78.1c0,0.3,0,0.6-0.1,0.8c-0.1,0.3-0.2,0.5-0.4,0.7c-0.2,0.2-0.4,0.3-0.7,0.4
					c-0.3,0.1-0.6,0.1-0.9,0.1c-0.4,0-0.7,0-1-0.1c-0.3-0.1-0.5-0.2-0.7-0.2v-1.3h0.1c0.2,0.1,0.4,0.3,0.7,0.4
					c0.2,0.1,0.5,0.1,0.7,0.1c0.1,0,0.3,0,0.5-0.1c0.2,0,0.3-0.1,0.4-0.2c0.1-0.1,0.1-0.2,0.2-0.2c0-0.1,0.1-0.2,0.1-0.4
					c0-0.1,0-0.3-0.1-0.3c-0.1-0.1-0.1-0.2-0.2-0.2c-0.1-0.1-0.3-0.1-0.4-0.2c-0.2,0-0.3,0-0.5,0c-0.2,0-0.4,0-0.6,0.1
					c-0.2,0-0.3,0.1-0.5,0.1H226v-3.3h3.5v1.1h-2.3v0.9c0.1,0,0.2,0,0.3,0c0.1,0,0.2,0,0.3,0c0.3,0,0.5,0,0.7,0.1
					c0.2,0.1,0.4,0.1,0.6,0.3c0.2,0.1,0.4,0.3,0.5,0.6C229.6,77.4,229.6,77.7,229.6,78.1z"/>
			</g>
			<polyline class="st32" points="236.3,83.6 236.3,89.2 228.1,89.2 			"/>
			<polyline class="st32" points="214.2,83.6 214.2,89.2 222.6,89.2 226.2,92.8 			"/>
		</g>
		<g>
			<g>
				<polygon class="st28" points="330.6,80 326.4,80 326.4,79 328.9,75.3 326.5,75.3 326.5,74.2 330.4,74.2 330.4,75.3 328,78.9 
					330.6,78.9 				"/>
				<polygon class="st28" points="335.2,75.4 333,80 331.6,80 333.9,75.3 331.3,75.3 331.3,74.2 335.2,74.2 				"/>
			</g>
			<polyline class="st32" points="341.9,83.6 341.9,89.2 333.7,89.2 			"/>
			<polyline class="st32" points="319.8,83.6 319.8,89.2 328.2,89.2 331.8,92.8 			"/>
		</g>
		<g>
			<g>
				<polygon class="st28" points="415.6,80 411.5,80 411.5,79 413.9,75.3 411.6,75.3 411.6,74.2 415.5,74.2 415.5,75.3 413,78.9 
					415.6,78.9 				"/>
				<path class="st28" d="M420.3,76.8c0,0.5-0.1,0.9-0.2,1.4c-0.1,0.4-0.3,0.8-0.5,1.1c-0.2,0.3-0.5,0.5-0.9,0.7
					c-0.3,0.2-0.8,0.2-1.2,0.2c-0.2,0-0.3,0-0.5,0c-0.2,0-0.3,0-0.4-0.1v-1.1h0.1c0.1,0,0.2,0.1,0.3,0.1c0.1,0,0.3,0.1,0.5,0.1
					c0.2,0,0.3,0,0.5-0.1c0.2-0.1,0.3-0.1,0.4-0.2c0.1-0.1,0.2-0.3,0.3-0.4c0.1-0.2,0.1-0.4,0.2-0.6c-0.2,0.1-0.4,0.2-0.5,0.3
					c-0.2,0.1-0.4,0.1-0.6,0.1c-0.2,0-0.4,0-0.5-0.1c-0.2-0.1-0.3-0.1-0.5-0.2c-0.2-0.2-0.3-0.4-0.4-0.6c-0.1-0.3-0.2-0.6-0.2-1
					c0-0.6,0.2-1.1,0.6-1.5c0.4-0.4,0.9-0.6,1.5-0.6c0.3,0,0.6,0,0.8,0.1c0.2,0.1,0.4,0.2,0.6,0.4c0.2,0.2,0.4,0.5,0.5,0.9
					C420.2,75.9,420.3,76.3,420.3,76.8z M419,76.6c0-0.3,0-0.6-0.1-0.8c-0.1-0.2-0.1-0.4-0.2-0.5c-0.1-0.1-0.1-0.1-0.2-0.2
					c-0.1,0-0.2-0.1-0.3-0.1c-0.1,0-0.2,0-0.2,0.1c-0.1,0-0.2,0.1-0.2,0.2c-0.1,0.1-0.1,0.2-0.2,0.3c0,0.1-0.1,0.3-0.1,0.5
					c0,0.2,0,0.3,0.1,0.5c0,0.1,0.1,0.2,0.2,0.3c0.1,0.1,0.2,0.1,0.3,0.1c0.1,0,0.2,0,0.3,0c0.1,0,0.2,0,0.3,0
					c0.1,0,0.2-0.1,0.3-0.1c0,0,0-0.1,0-0.1C419,76.8,419,76.7,419,76.6z"/>
			</g>
			<polyline class="st32" points="427,83.6 427,89.2 418.7,89.2 			"/>
			<polyline class="st32" points="404.9,83.6 404.9,89.2 413.3,89.2 416.8,92.8 			"/>
		</g>
		<g>
			<g>
				<polygon class="st28" points="373.1,80 368.9,80 368.9,79 371.4,75.3 369.1,75.3 369.1,74.2 373,74.2 373,75.3 370.5,78.9 
					373.1,78.9 				"/>
				<path class="st28" d="M377.9,78.4c0,0.5-0.2,0.9-0.6,1.3c-0.4,0.3-0.9,0.5-1.5,0.5c-0.4,0-0.7,0-0.9-0.1
					c-0.3-0.1-0.5-0.2-0.6-0.4c-0.2-0.2-0.3-0.3-0.4-0.5c-0.1-0.2-0.1-0.4-0.1-0.7c0-0.3,0.1-0.5,0.2-0.8c0.1-0.2,0.4-0.4,0.8-0.6v0
					c-0.3-0.2-0.5-0.4-0.6-0.6c-0.1-0.2-0.2-0.5-0.2-0.8c0-0.5,0.2-0.8,0.5-1.1c0.4-0.3,0.8-0.4,1.4-0.4c0.6,0,1.1,0.1,1.4,0.4
					c0.3,0.3,0.5,0.6,0.5,1.1c0,0.3-0.1,0.5-0.2,0.7c-0.1,0.2-0.4,0.4-0.7,0.6v0c0.3,0.2,0.6,0.4,0.8,0.6
					C377.8,77.8,377.9,78.1,377.9,78.4z M376.5,75.7c0-0.2-0.1-0.4-0.2-0.5c-0.1-0.1-0.3-0.2-0.5-0.2c-0.1,0-0.2,0-0.2,0
					c-0.1,0-0.2,0.1-0.2,0.1c-0.1,0-0.1,0.1-0.2,0.2c0,0.1-0.1,0.2-0.1,0.2c0,0.2,0,0.3,0.1,0.4c0.1,0.1,0.2,0.2,0.4,0.3
					c0.1,0,0.1,0.1,0.3,0.1c0.1,0,0.2,0.1,0.4,0.2c0.1-0.1,0.2-0.3,0.2-0.4C376.5,76,376.5,75.9,376.5,75.7z M376.6,78.5
					c0-0.2,0-0.3-0.1-0.4c-0.1-0.1-0.2-0.2-0.5-0.3c-0.1,0-0.2-0.1-0.3-0.1c-0.1-0.1-0.3-0.1-0.4-0.1c-0.1,0.1-0.2,0.2-0.3,0.4
					c-0.1,0.1-0.1,0.3-0.1,0.5c0,0.3,0.1,0.5,0.2,0.6c0.2,0.2,0.4,0.2,0.6,0.2c0.1,0,0.2,0,0.2,0c0.1,0,0.2-0.1,0.2-0.1
					c0.1-0.1,0.1-0.1,0.2-0.2C376.6,78.7,376.6,78.6,376.6,78.5z"/>
			</g>
			<polyline class="st32" points="384.4,83.6 384.4,89.2 376.2,89.2 			"/>
			<polyline class="st32" points="362.3,83.6 362.3,89.2 370.7,89.2 374.3,92.8 			"/>
		</g>
		<g>
			<g>
				<polygon class="st28" points="116.7,165.8 112.6,165.8 112.6,164.7 115,161.1 112.7,161.1 112.7,160 116.6,160 116.6,161.1 
					114.1,164.7 116.7,164.7 				"/>
				<path class="st28" d="M121.2,165.8h-3.3v-1h1v-3.1h-1v-0.9c0.2,0,0.3,0,0.5,0c0.1,0,0.3-0.1,0.4-0.1c0.1-0.1,0.2-0.1,0.3-0.3
					c0.1-0.1,0.1-0.2,0.1-0.4h1.1v4.8h1V165.8z"/>
				<path class="st28" d="M126.3,163.8c0,0.3,0,0.6-0.1,0.8c-0.1,0.3-0.2,0.5-0.4,0.7c-0.2,0.2-0.4,0.3-0.6,0.4
					c-0.2,0.1-0.5,0.2-0.8,0.2c-0.3,0-0.6,0-0.8-0.1c-0.2-0.1-0.5-0.2-0.6-0.4c-0.2-0.2-0.4-0.5-0.5-0.9c-0.1-0.4-0.2-0.8-0.2-1.3
					c0-0.5,0-1,0.1-1.4c0.1-0.4,0.3-0.7,0.5-1.1c0.2-0.3,0.5-0.5,0.8-0.7c0.3-0.2,0.8-0.2,1.2-0.2c0.2,0,0.3,0,0.5,0
					c0.2,0,0.3,0,0.4,0.1v1.1h-0.1c-0.1,0-0.2-0.1-0.3-0.1c-0.1,0-0.3-0.1-0.5-0.1c-0.4,0-0.8,0.1-1,0.4c-0.2,0.2-0.4,0.6-0.4,1
					c0.2-0.1,0.3-0.2,0.5-0.3c0.2-0.1,0.4-0.1,0.6-0.1c0.2,0,0.4,0,0.5,0.1c0.2,0.1,0.3,0.1,0.5,0.2c0.2,0.2,0.3,0.4,0.4,0.6
					C126.2,163.1,126.3,163.4,126.3,163.8z M124.8,164.7c0.1-0.1,0.1-0.2,0.2-0.3c0-0.1,0.1-0.3,0.1-0.5c0-0.2,0-0.3-0.1-0.5
					c0-0.1-0.1-0.2-0.2-0.3c-0.1-0.1-0.2-0.1-0.3-0.1c-0.1,0-0.2,0-0.3,0c-0.1,0-0.2,0-0.3,0c-0.1,0-0.2,0.1-0.3,0.1
					c0,0,0,0.1,0,0.1c0,0.1,0,0.1,0,0.2c0,0.3,0,0.6,0.1,0.8c0.1,0.2,0.1,0.4,0.2,0.5c0.1,0.1,0.1,0.1,0.2,0.2
					c0.1,0,0.2,0.1,0.3,0.1c0.1,0,0.2,0,0.2-0.1S124.7,164.8,124.8,164.7z"/>
			</g>
			<g>
				<polyline class="st32" points="130.4,169.4 130.4,175 122.1,175 				"/>
				<polyline class="st32" points="108.3,169.4 108.3,175 116.7,175 120.3,178.6 				"/>
			</g>
		</g>
		<g>
			<g>
				<polygon class="st28" points="180.2,165.8 176,165.8 176,164.7 178.5,161.1 176.1,161.1 176.1,160 180,160 180,161.1 
					177.6,164.7 180.2,164.7 				"/>
				<path class="st28" d="M184.6,165.8h-3.3v-1h1v-3.1h-1v-0.9c0.2,0,0.3,0,0.5,0c0.1,0,0.3-0.1,0.4-0.1c0.1-0.1,0.2-0.1,0.3-0.3
					c0.1-0.1,0.1-0.2,0.1-0.4h1.1v4.8h1V165.8z"/>
				<path class="st28" d="M189.6,163.8c0,0.3,0,0.6-0.1,0.8c-0.1,0.3-0.2,0.5-0.4,0.7c-0.2,0.2-0.4,0.3-0.7,0.4
					c-0.3,0.1-0.6,0.1-0.9,0.1c-0.4,0-0.7,0-1-0.1c-0.3-0.1-0.5-0.1-0.7-0.2v-1.3h0.1c0.2,0.1,0.4,0.3,0.7,0.4s0.5,0.1,0.7,0.1
					c0.1,0,0.3,0,0.5-0.1c0.2,0,0.3-0.1,0.4-0.2c0.1-0.1,0.1-0.2,0.2-0.2c0-0.1,0.1-0.2,0.1-0.4c0-0.1,0-0.3-0.1-0.3
					c-0.1-0.1-0.1-0.2-0.2-0.2c-0.1-0.1-0.3-0.1-0.4-0.2c-0.2,0-0.3,0-0.5,0c-0.2,0-0.4,0-0.6,0.1c-0.2,0-0.3,0.1-0.5,0.1H186V160
					h3.5v1.1h-2.3v0.9c0.1,0,0.2,0,0.3,0c0.1,0,0.2,0,0.3,0c0.3,0,0.5,0,0.7,0.1c0.2,0.1,0.4,0.1,0.6,0.3c0.2,0.1,0.4,0.3,0.5,0.6
					C189.6,163.2,189.6,163.5,189.6,163.8z"/>
			</g>
			<g>
				<polyline class="st32" points="193.8,169.4 193.8,175 185.5,175 				"/>
				<polyline class="st32" points="171.7,169.4 171.7,175 180.1,175 183.7,178.6 				"/>
			</g>
		</g>
		<g>
			<g>
				<polygon class="st28" points="222.7,165.8 218.5,165.8 218.5,164.7 221,161.1 218.6,161.1 218.6,160 222.5,160 222.5,161.1 
					220.1,164.7 222.7,164.7 				"/>
				<path class="st28" d="M227.1,165.8h-3.3v-1h1v-3.1h-1v-0.9c0.2,0,0.3,0,0.5,0c0.1,0,0.3-0.1,0.4-0.1c0.1-0.1,0.2-0.1,0.3-0.3
					c0.1-0.1,0.1-0.2,0.1-0.4h1.1v4.8h1V165.8z"/>
				<path class="st28" d="M232.3,164.5h-0.7v1.4h-1.2v-1.4H228v-1.1l2.3-3.4h1.3v3.4h0.7V164.5z M230.4,163.4v-2.1l-1.4,2.1H230.4z"
					/>
			</g>
			<g>
				<polyline class="st32" points="236.3,169.4 236.3,175 228.1,175 				"/>
				<polyline class="st32" points="214.2,169.4 214.2,175 222.6,175 226.2,178.6 				"/>
			</g>
		</g>
		<g>
			<g>
				<polygon class="st28" points="265.2,165.8 261,165.8 261,164.7 263.5,161.1 261.2,161.1 261.2,160 265.1,160 265.1,161.1 
					262.6,164.7 265.2,164.7 				"/>
				<path class="st28" d="M269.6,165.8h-3.3v-1h1v-3.1h-1v-0.9c0.2,0,0.3,0,0.5,0c0.1,0,0.3-0.1,0.4-0.1c0.1-0.1,0.2-0.1,0.3-0.3
					c0.1-0.1,0.1-0.2,0.1-0.4h1.1v4.8h1V165.8z"/>
				<path class="st28" d="M274.3,163.1c0.1,0.1,0.2,0.2,0.3,0.4c0.1,0.1,0.1,0.3,0.1,0.6c0,0.3,0,0.5-0.1,0.8
					c-0.1,0.2-0.2,0.4-0.4,0.6c-0.2,0.2-0.4,0.3-0.7,0.4c-0.2,0.1-0.6,0.1-0.9,0.1c-0.4,0-0.8,0-1.1-0.1c-0.3-0.1-0.5-0.2-0.7-0.3
					v-1.3h0.1c0.2,0.1,0.4,0.3,0.7,0.4c0.3,0.1,0.5,0.1,0.7,0.1c0.1,0,0.3,0,0.4,0c0.2,0,0.3-0.1,0.4-0.2c0.1-0.1,0.1-0.1,0.2-0.2
					c0-0.1,0.1-0.2,0.1-0.4c0-0.2,0-0.3-0.1-0.4c-0.1-0.1-0.2-0.2-0.3-0.2c-0.1,0-0.2-0.1-0.4-0.1c-0.2,0-0.3,0-0.4,0h-0.3v-1h0.3
					c0.2,0,0.3,0,0.5,0c0.1,0,0.2,0,0.3-0.1c0.1,0,0.2-0.1,0.2-0.2c0-0.1,0.1-0.2,0.1-0.4c0-0.1,0-0.2-0.1-0.3
					c-0.1-0.1-0.1-0.1-0.2-0.2c-0.1,0-0.2-0.1-0.3-0.1c-0.1,0-0.2,0-0.3,0c-0.2,0-0.4,0-0.7,0.1c-0.2,0.1-0.5,0.2-0.7,0.4h-0.1v-1.3
					c0.2-0.1,0.4-0.2,0.7-0.2c0.3-0.1,0.6-0.1,0.9-0.1c0.3,0,0.6,0,0.8,0.1c0.2,0.1,0.4,0.1,0.6,0.3c0.2,0.1,0.3,0.3,0.4,0.5
					c0.1,0.2,0.1,0.4,0.1,0.6c0,0.3-0.1,0.6-0.3,0.9c-0.2,0.3-0.4,0.4-0.7,0.5v0.1c0.1,0,0.2,0.1,0.4,0.1S274.2,163,274.3,163.1z"/>
			</g>
			<g>
				<polyline class="st32" points="278.9,169.4 278.9,175 270.6,175 				"/>
				<polyline class="st32" points="256.8,169.4 256.8,175 265.2,175 268.7,178.6 				"/>
			</g>
		</g>
		<g>
			<g>
				<polygon class="st28" points="328.3,165.8 324.1,165.8 324.1,164.7 326.6,161.1 324.2,161.1 324.2,160 328.1,160 328.1,161.1 
					325.7,164.7 328.3,164.7 				"/>
				<path class="st28" d="M332.7,165.8h-3.3v-1h1v-3.1h-1v-0.9c0.2,0,0.3,0,0.5,0c0.1,0,0.3-0.1,0.4-0.1c0.1-0.1,0.2-0.1,0.3-0.3
					c0.1-0.1,0.1-0.2,0.1-0.4h1.1v4.8h1V165.8z"/>
				<path class="st28" d="M337.8,165.8H334v-1c0.3-0.3,0.6-0.5,0.9-0.8c0.3-0.3,0.5-0.5,0.7-0.7c0.3-0.3,0.5-0.6,0.6-0.8
					c0.1-0.2,0.2-0.5,0.2-0.7c0-0.3-0.1-0.5-0.2-0.6c-0.1-0.1-0.4-0.2-0.6-0.2c-0.2,0-0.4,0-0.6,0.1c-0.2,0.1-0.4,0.2-0.6,0.4h-0.1
					v-1.3c0.2-0.1,0.4-0.2,0.7-0.2c0.3-0.1,0.6-0.1,0.9-0.1c0.6,0,1.1,0.2,1.4,0.5c0.3,0.3,0.5,0.7,0.5,1.3c0,0.4-0.1,0.7-0.2,1
					c-0.2,0.3-0.4,0.7-0.7,1c-0.2,0.2-0.4,0.4-0.6,0.6c-0.2,0.2-0.3,0.3-0.4,0.4h2.2V165.8z"/>
			</g>
			<g>
				<polyline class="st32" points="341.9,169.4 341.9,175 333.7,175 				"/>
				<polyline class="st32" points="319.8,169.4 319.8,175 328.2,175 331.8,178.6 				"/>
			</g>
		</g>
		<g>
			<g>
				<polygon class="st28" points="370.8,165.8 366.6,165.8 366.6,164.7 369.1,161.1 366.7,161.1 366.7,160 370.6,160 370.6,161.1 
					368.2,164.7 370.8,164.7 				"/>
				<path class="st28" d="M375.2,165.8h-3.3v-1h1v-3.1h-1v-0.9c0.2,0,0.3,0,0.5,0c0.1,0,0.3-0.1,0.4-0.1c0.1-0.1,0.2-0.1,0.3-0.3
					c0.1-0.1,0.1-0.2,0.1-0.4h1.1v4.8h1V165.8z"/>
				<path class="st28" d="M380.1,165.8h-3.3v-1h1v-3.1h-1v-0.9c0.2,0,0.3,0,0.5,0c0.1,0,0.3-0.1,0.4-0.1c0.1-0.1,0.2-0.1,0.3-0.3
					c0.1-0.1,0.1-0.2,0.1-0.4h1.1v4.8h1V165.8z"/>
			</g>
			<g>
				<polyline class="st32" points="384.4,169.4 384.4,175 376.2,175 				"/>
				<polyline class="st32" points="362.3,169.4 362.3,175 370.7,175 374.3,178.6 				"/>
			</g>
		</g>
		<g>
			<g>
				<polygon class="st28" points="413.3,165.8 409.1,165.8 409.1,164.7 411.6,161.1 409.3,161.1 409.3,160 413.2,160 413.2,161.1 
					410.7,164.7 413.3,164.7 				"/>
				<path class="st28" d="M417.7,165.8h-3.3v-1h1v-3.1h-1v-0.9c0.2,0,0.3,0,0.5,0c0.1,0,0.3-0.1,0.4-0.1c0.1-0.1,0.2-0.1,0.3-0.3
					c0.1-0.1,0.1-0.2,0.1-0.4h1.1v4.8h1V165.8z"/>
				<path class="st28" d="M422.9,162.9c0,0.5,0,0.9-0.1,1.3c-0.1,0.4-0.2,0.7-0.4,0.9c-0.2,0.3-0.4,0.4-0.6,0.6
					c-0.3,0.1-0.6,0.2-0.9,0.2c-0.4,0-0.7-0.1-0.9-0.2c-0.3-0.1-0.5-0.3-0.6-0.6c-0.2-0.3-0.3-0.6-0.4-0.9c-0.1-0.4-0.1-0.8-0.1-1.3
					c0-0.5,0-0.9,0.1-1.3c0.1-0.4,0.2-0.7,0.4-0.9c0.2-0.3,0.4-0.4,0.6-0.6c0.3-0.1,0.6-0.2,0.9-0.2c0.4,0,0.7,0.1,1,0.2
					c0.3,0.1,0.5,0.3,0.6,0.6c0.2,0.3,0.3,0.6,0.4,0.9C422.8,162,422.9,162.4,422.9,162.9z M421.6,162.9c0-0.7-0.1-1.2-0.2-1.5
					c-0.1-0.3-0.3-0.4-0.6-0.4c-0.3,0-0.5,0.2-0.6,0.4c-0.1,0.3-0.2,0.8-0.2,1.5c0,0.7,0.1,1.2,0.2,1.5c0.1,0.3,0.3,0.5,0.6,0.5
					s0.5-0.2,0.6-0.5S421.6,163.6,421.6,162.9z"/>
			</g>
			<g>
				<polyline class="st32" points="427,169.4 427,175 418.7,175 				"/>
				<polyline class="st32" points="404.9,169.4 404.9,175 413.3,175 416.8,178.6 				"/>
			</g>
		</g>
		<g>
			<polygon class="st27" points="21.5,106.3 18.7,109.2 18.7,108.1 12.5,108.1 12.5,104.6 18.7,104.6 18.7,103.4 			"/>
			<path class="st27" d="M30.2,109.5h-1.3v-7.1h-1c-0.5,0.7-1,1.1-1.7,1.5v1.2c0.9-0.5,1.2-0.9,1.4-1.1v5.5h-1.4v1h4V109.5z"/>
			<path class="st27" d="M36.8,104.3c-0.1-0.5-0.5-1.9-2.3-1.9c-0.4,0-0.8,0.1-1.3,0.4c-1.3,0.9-1.5,2.9-1.5,4c0,0.6,0.1,1.3,0.3,2
				c0.1,0.3,0.6,1.9,2.4,1.9c1.5,0,2.5-1,2.5-2.7c0-1.8-1.1-2.6-2.2-2.6c-1.1,0-1.5,0.8-1.7,1.2c0-1.5,0.2-3.1,1.5-3.1
				c0.9,0,1.1,0.8,1.2,1.3L36.8,104.3z M34.4,106.4c1.2,0,1.2,1.4,1.2,1.6c0,0.5-0.1,1.6-1.2,1.6c-0.9,0-1.3-0.8-1.3-1.6
				C33.1,107.4,33.4,106.4,34.4,106.4z"/>
			<path class="st27" d="M42.8,104.3c-0.2-0.6-0.6-1.9-2.5-1.9c-1.7,0-2.5,1.2-2.5,2.3c0,0.7,0.3,1.3,0.7,1.6
				c0.4,0.4,0.8,0.5,1.7,0.9c0.7,0.3,1.4,0.6,1.4,1.3c0,0.4-0.2,1.2-1.3,1.2c-1.3,0-1.5-1.1-1.6-1.5l-1.2,0.3
				c0.1,0.5,0.5,2.2,2.8,2.2c1.9,0,2.7-1.3,2.7-2.4c0-1.6-1.3-2.1-2.2-2.4c-0.9-0.4-1.6-0.6-1.6-1.3c0-0.4,0.2-1,1.1-1
				c0.8,0,1.2,0.5,1.4,1.2L42.8,104.3z"/>
		</g>
		<g>
			<g>
				<path class="st27" d="M28,122.8c0-0.3,0-0.5-0.3-0.7c-0.2-0.1-0.5-0.2-0.8-0.2c-0.5,0-1,0.2-1.1,0.7l0.5,0.1
					c0-0.1,0.1-0.4,0.6-0.4c0.2,0,0.5,0.1,0.5,0.4v0.2c-0.5,0-1.6,0-1.6,0.8c0,0.4,0.3,0.8,0.8,0.8c0.6,0,0.8-0.4,0.8-0.5
					c0,0.2,0,0.3,0.1,0.5h0.5c0-0.1-0.1-0.3-0.1-0.5V122.8z M27.4,123.4c0,0.2-0.1,0.7-0.6,0.7c-0.4,0-0.4-0.3-0.4-0.4
					c0-0.3,0.3-0.4,0.4-0.4c0.1,0,0.3-0.1,0.7-0.1V123.4z"/>
				<path class="st27" d="M30.1,123.6c-0.1,0.3-0.2,0.5-0.5,0.5c-0.5,0-0.5-0.7-0.5-0.8c0-0.1,0-0.3,0.1-0.5c0-0.1,0.2-0.4,0.5-0.4
					c0.2,0,0.4,0.1,0.5,0.5l0.5-0.1c0-0.2-0.2-0.9-1-0.9c-0.7,0-1.1,0.6-1.1,1.3c0,0.6,0.3,1.3,1,1.3c0.8,0,1-0.7,1-0.9L30.1,123.6z
					"/>
				<path class="st27" d="M32.1,124c-0.1,0-0.1,0-0.1,0c-0.3,0-0.4-0.1-0.4-0.4v-1.2h0.5V122h-0.5v-0.7l-0.5,0l0,0.6h-0.3v0.4H31
					v1.3c0,0.3,0,0.4,0.2,0.6c0.1,0.1,0.3,0.2,0.5,0.2c0.1,0,0.3,0,0.4,0V124z"/>
				<path class="st27" d="M34.6,122h-0.6v1.2c0,0.2,0,0.4-0.1,0.5c-0.1,0.2-0.3,0.3-0.5,0.3c-0.3,0-0.3-0.2-0.3-0.5V122h-0.6v1.7
					c0,0.2,0,0.3,0.1,0.5c0.1,0.2,0.4,0.3,0.6,0.3c0.3,0,0.4-0.1,0.5-0.2c0.2-0.1,0.2-0.3,0.3-0.4v0.5h0.5V122z"/>
				<path class="st27" d="M37.3,122.8c0-0.3,0-0.5-0.3-0.7c-0.2-0.1-0.5-0.2-0.8-0.2c-0.5,0-1,0.2-1.1,0.7l0.5,0.1
					c0-0.1,0.1-0.4,0.6-0.4c0.2,0,0.5,0.1,0.5,0.4v0.2c-0.5,0-1.6,0-1.6,0.8c0,0.4,0.3,0.8,0.8,0.8c0.6,0,0.8-0.4,0.8-0.5
					c0,0.2,0,0.3,0.1,0.5h0.5c0-0.1-0.1-0.3-0.1-0.5V122.8z M36.8,123.4c0,0.2-0.1,0.7-0.6,0.7c-0.4,0-0.4-0.3-0.4-0.4
					c0-0.3,0.3-0.4,0.4-0.4c0.1,0,0.3-0.1,0.7-0.1V123.4z"/>
				<path class="st27" d="M39.1,124c-0.1,0-0.1,0-0.1,0c-0.3,0-0.4-0.1-0.4-0.4v-1.2h0.5V122h-0.5v-0.7l-0.5,0l-0.1,0.6h-0.3v0.4H38
					v1.3c0,0.3,0,0.4,0.2,0.6c0.1,0.1,0.3,0.2,0.5,0.2c0.1,0,0.3,0,0.4,0V124z"/>
				<path class="st27" d="M41.7,123.2c0-0.7-0.4-1.3-1.1-1.3c-0.8,0-1.2,0.6-1.2,1.3c0,0.6,0.3,1.3,1.1,1.3
					C41.2,124.5,41.7,124.1,41.7,123.2z M41.1,123.2c0,0.3,0,0.8-0.6,0.8c-0.6,0-0.6-0.7-0.6-0.8c0-0.4,0.1-0.8,0.6-0.8
					C41,122.4,41.1,122.8,41.1,123.2z"/>
				<path class="st27" d="M42.2,124.5h0.6v-1c0-0.4,0.1-0.6,0.2-0.7c0.2-0.2,0.4-0.2,0.5-0.2v-0.6c-0.5,0-0.7,0.5-0.8,0.7V122h-0.5
					V124.5z"/>
			</g>
			<g>
				<path class="st27" d="M28,116.8c0-0.3,0-0.5-0.3-0.7c-0.2-0.1-0.5-0.2-0.8-0.2c-0.5,0-1,0.2-1.1,0.7l0.5,0.1
					c0-0.1,0.1-0.4,0.6-0.4c0.2,0,0.5,0.1,0.5,0.4v0.2c-0.5,0-1.6,0-1.6,0.8c0,0.4,0.3,0.8,0.8,0.8c0.6,0,0.8-0.4,0.8-0.5
					c0,0.2,0,0.3,0.1,0.5h0.5c0-0.1-0.1-0.3-0.1-0.5V116.8z M27.4,117.4c0,0.2-0.1,0.7-0.6,0.7c-0.4,0-0.4-0.3-0.4-0.4
					c0-0.3,0.3-0.4,0.4-0.4c0.1,0,0.3-0.1,0.7-0.1V117.4z"/>
				<path class="st27" d="M30.1,117.6c-0.1,0.3-0.2,0.5-0.5,0.5c-0.5,0-0.5-0.7-0.5-0.8c0-0.1,0-0.3,0.1-0.5c0-0.1,0.2-0.4,0.5-0.4
					c0.2,0,0.4,0.1,0.5,0.5l0.5-0.1c0-0.2-0.2-0.9-1-0.9c-0.7,0-1.1,0.6-1.1,1.3c0,0.6,0.3,1.3,1,1.3c0.8,0,1-0.7,1-0.9L30.1,117.6z
					"/>
				<path class="st27" d="M32.1,118c-0.1,0-0.1,0-0.1,0c-0.3,0-0.4-0.1-0.4-0.4v-1.2h0.5V116h-0.5v-0.7l-0.5,0l0,0.6h-0.3v0.4H31
					v1.3c0,0.3,0,0.4,0.2,0.6c0.1,0.1,0.3,0.2,0.5,0.2c0.1,0,0.3,0,0.4,0V118z"/>
				<path class="st27" d="M34.6,116h-0.6v1.2c0,0.2,0,0.4-0.1,0.5c-0.1,0.2-0.3,0.3-0.5,0.3c-0.3,0-0.3-0.2-0.3-0.5V116h-0.6v1.7
					c0,0.2,0,0.3,0.1,0.5c0.1,0.2,0.4,0.3,0.6,0.3c0.3,0,0.4-0.1,0.5-0.2c0.2-0.1,0.2-0.3,0.3-0.4v0.5h0.5V116z"/>
				<path class="st27" d="M37.3,116.8c0-0.3,0-0.5-0.3-0.7c-0.2-0.1-0.5-0.2-0.8-0.2c-0.5,0-1,0.2-1.1,0.7l0.5,0.1
					c0-0.1,0.1-0.4,0.6-0.4c0.2,0,0.5,0.1,0.5,0.4v0.2c-0.5,0-1.6,0-1.6,0.8c0,0.4,0.3,0.8,0.8,0.8c0.6,0,0.8-0.4,0.8-0.5
					c0,0.2,0,0.3,0.1,0.5h0.5c0-0.1-0.1-0.3-0.1-0.5V116.8z M36.8,117.4c0,0.2-0.1,0.7-0.6,0.7c-0.4,0-0.4-0.3-0.4-0.4
					c0-0.3,0.3-0.4,0.4-0.4c0.1,0,0.3-0.1,0.7-0.1V117.4z"/>
				<path class="st27" d="M40,118.5v-3.3h-0.6v1.2c-0.2-0.4-0.4-0.4-0.7-0.4c-0.8,0-1,0.8-1,1.3c0,0.3,0.1,1.3,0.9,1.3
					c0.5,0,0.7-0.4,0.7-0.5v0.5H40z M39.4,117.4c0,0.4-0.3,0.6-0.5,0.6c-0.5,0-0.5-0.7-0.5-0.8c0-0.2,0-0.9,0.5-0.9
					c0.1,0,0.3,0.1,0.4,0.2c0.1,0.1,0.1,0.2,0.1,0.5V117.4z"/>
				<path class="st27" d="M42.8,117.2c0-0.7-0.4-1.3-1.1-1.3c-0.8,0-1.2,0.6-1.2,1.3c0,0.6,0.3,1.3,1.1,1.3
					C42.3,118.5,42.8,118.1,42.8,117.2z M42.2,117.2c0,0.3,0,0.8-0.6,0.8c-0.6,0-0.6-0.7-0.6-0.8c0-0.4,0.1-0.8,0.6-0.8
					C42.1,116.4,42.2,116.8,42.2,117.2z"/>
				<path class="st27" d="M43.3,118.5h0.6v-1c0-0.4,0.1-0.6,0.2-0.7c0.2-0.2,0.4-0.2,0.5-0.2v-0.6c-0.5,0-0.7,0.5-0.8,0.7V116h-0.5
					V118.5z"/>
			</g>
		</g>
		<g>
			<rect x="415.9" y="135.4" class="st33" width="13.5" height="13.5"/>
			<rect x="418.7" y="138.2" class="st33" width="8" height="8"/>
		</g>
		<g>
			<rect x="408.5" y="101" class="st27" width="28.3" height="28.3"/>
			<path class="st28" d="M416.7,101.9h1.8v0.9h-1.8V101.9z M424,101.9h3.7v0.9h-0.9v0.9h1.8v0.9h-0.9v1.8h0.9v1.8h-0.9v-0.9h-0.9
				v0.9h0.9v0.9h-0.9v0.9h1.8v-0.9h0.9v0.9h1.8v-0.9h2.7v0.9h-1.8v0.9h-1.8v0.9h-1.8V111h-1.8v1.8h-0.9V112H424v-5.5h-0.9v-0.9h-1.8
				v-0.9h-0.9v1.8h-1.8v0.9h-0.9v-0.9h-0.9v-2.7h0.9v0.9h0.9v0.9h0.9v-1.8h1.8v-0.9h1.8v1.8h2.7v0.9h0.9v-0.9h-0.9v-1.8h-0.9v0.9
				H424V101.9z M424.9,107.4h0.9v0.9h-0.9V107.4z M424.9,110.1h0.9v0.9h-0.9V110.1z M420.4,106.5h2.7v3.7h-0.9v-2.7h-0.9v0.9h-0.9
				V106.5z M416.7,107.4h0.9v0.9h-0.9V107.4z M418.5,107.4h0.9v0.9h-0.9V107.4z M417.6,108.3h0.9v0.9h-0.9V108.3z M419.4,108.3h0.9
				v0.9h-0.9V108.3z M409.4,109.2h3.7v0.9h0.9v0.9h3.7v1.8h0.9v0.9h0.9V112h1.8v-1.8h0.9v1.8h1.8v0.9h-0.9v0.9h-1.8v-0.9h-0.9v1.8
				h-1.8v0.9h-1.8v0.9h-0.9v-0.9h-0.9v-0.9h0.9v-0.9h-0.9v-0.9h0.9V112h-0.9v0.9H414v0.9H413V111h-1.8v-0.9h-1.8V109.2z
				 M416.7,113.8h0.9v0.9h-0.9V113.8z M414.9,109.2h0.9v0.9h-0.9V109.2z M416.7,109.2h0.9v0.9h-0.9V109.2z M435,109.2h0.9v1.8H435
				V109.2z M417.6,110.1h0.9v0.9h-0.9V110.1z M410.3,111h0.9v1.8h-0.9v0.9h-0.9V112h0.9V111z M433.2,111h1.8v0.9h-1.8V111z
				 M430.4,112h0.9v0.9h-0.9V112z M435,112h0.9v0.9H435V112z M411.2,112.9h0.9v0.9h-0.9V112.9z M424.9,112.9h0.9v2.7H424v-0.9h-0.9
				v-0.9h1.8V112.9z M432.2,112.9h1.8v0.9h1.8v1.8H435v2.7h-0.9v2.7h1.8v0.9H435v0.9h0.9v3.7H435v-2.7h-0.9V122h-0.9v1.8h-0.9v-3.7
				h0.9v-1.8h-0.9v-0.9h-0.9v0.9h-0.9v-3.7h1.8v1.8h0.9v0.9h0.9v-1.8h-0.9v-1.8h-0.9V112.9z M410.3,113.8h0.9v0.9h-0.9V113.8z
				 M414,113.8h0.9v0.9H414V113.8z M426.8,113.8h0.9v1.8h0.9v0.9h0.9v1.8h-0.9v-0.9h-1.8v4.6h-0.9v0.9H424v-1.8h0.9v-2.7h0.9v-2.7
				h0.9V113.8z M429.5,113.8h0.9v0.9h-0.9V113.8z M411.2,114.7h2.7v0.9h0.9v0.9H413v0.9h1.8v0.9h0.9v0.9h-0.9v0.9H414v-1.8H413v0.9
				h-0.9v-1.8h-2.7v-0.9h2.7v-0.9h-0.9V114.7z M420.4,114.7h0.9v1.8h-0.9V114.7z M422.2,115.6h0.9v1.8h-1.8v-0.9h0.9V115.6z
				 M414.9,116.5h0.9v0.9h-0.9V116.5z M416.7,116.5h3.7v0.9h-0.9v0.9h0.9v-0.9h0.9v0.9h1.8v-0.9h0.9v1.8h-2.7v0.9h-0.9v-0.9h-0.9
				v0.9h-1.8v-0.9h-0.9v-0.9h1.8v-0.9h-1.8V116.5z M424,116.5h0.9v0.9H424V116.5z M415.8,117.4h0.9v0.9h-0.9V117.4z M409.4,118.4
				h0.9v0.9h-0.9V118.4z M411.2,119.3h0.9v1.8h-1.8v-0.9h0.9V119.3z M428.6,119.3h0.9v0.9h-0.9V119.3z M431.3,119.3h0.9v0.9h-0.9
				V119.3z M413,120.2h0.9v0.9H413V120.2z M414.9,120.2h2.7v0.9h0.9v0.9h1.8v-0.9h0.9v1.8h0.9v-1.8h0.9v1.8h0.9v0.9h-1.8v0.9h-2.7
				v1.8h-0.9v1.8h-1.8v-3.7h1.8v-1.8h-0.9V122h-0.9v-0.9h-1.8V120.2z M419.4,120.2h0.9v0.9h-0.9V120.2z M426.8,122h0.9v0.9h-0.9V122
				z M425.8,122.9h0.9v0.9h-0.9V122.9z M424.9,123.8h0.9v0.9h1.8v1.8h0.9v0.9h0.9v0.9h-3.7v-2.7h-0.9V123.8z M433.2,123.8h0.9v0.9
				h-0.9V123.8z M423.1,124.8h0.9v0.9h-0.9V124.8z M428.6,124.8h0.9v0.9h-0.9V124.8z M430.4,124.8h2.7v0.9h-1.8v0.9h1.8v0.9h-0.9
				v0.9h-1.8v-0.9h-0.9v-0.9h0.9V124.8z M420.4,125.7h0.9v1.8h0.9v0.9h-2.7v-1.8h0.9V125.7z M422.2,125.7h0.9v0.9h-0.9V125.7z
				 M433.2,125.7h0.9v0.9h-0.9V125.7z M423.1,126.6h1.8v0.9h-1.8V126.6z M434.1,126.6h0.9v1.8h-0.9V126.6z"/>
			<path class="st28" d="M409.4,101.9h6.4l0,0l0,0v6.4l0,0l0,0h-6.4l0,0l0,0V101.9L409.4,101.9L409.4,101.9z M410.3,102.8h4.6l0,0
				l0,0v4.6l0,0l0,0h-4.6l0,0l0,0V102.8L410.3,102.8L410.3,102.8z M411.2,103.7h2.7l0,0l0,0v2.7l0,0l0,0h-2.7l0,0l0,0V103.7
				L411.2,103.7L411.2,103.7z M429.5,101.9h6.4l0,0l0,0v6.4l0,0l0,0h-6.4l0,0l0,0V101.9L429.5,101.9L429.5,101.9z M430.4,102.8h4.6
				l0,0l0,0v4.6l0,0l0,0h-4.6l0,0l0,0V102.8L430.4,102.8L430.4,102.8z M431.3,103.7h2.7l0,0l0,0v2.7l0,0l0,0h-2.7l0,0l0,0V103.7
				L431.3,103.7L431.3,103.7z M409.4,122h6.4l0,0l0,0v6.4l0,0l0,0h-6.4l0,0l0,0V122L409.4,122L409.4,122z M410.3,122.9h4.6l0,0l0,0
				v4.6l0,0l0,0h-4.6l0,0l0,0V122.9L410.3,122.9L410.3,122.9z M411.2,123.8h2.7l0,0l0,0v2.7l0,0l0,0h-2.7l0,0l0,0V123.8L411.2,123.8
				L411.2,123.8z M427.7,120.2h4.6l0,0l0,0v4.6l0,0l0,0h-4.6l0,0l0,0V120.2L427.7,120.2L427.7,120.2z M428.6,121.1h2.7l0,0l0,0v2.7
				l0,0l0,0h-2.7l0,0l0,0V121.1L428.6,121.1L428.6,121.1z M429.5,122h0.9l0,0l0,0v0.9l0,0l0,0h-0.9l0,0l0,0V122L429.5,122L429.5,122
				z"/>
			<g>
				<path class="st27" d="M406.5,128.7H404v0.6h2.5V128.7z M403.7,128.7h-0.6v0.6h0.6V128.7z"/>
				<path class="st27" d="M406.5,128v-0.6h-1.2c-0.8,0-0.9-0.4-0.9-0.5c0-0.1,0-0.4,0.6-0.4h1.4V126H405c-0.3,0-1.1,0-1.1,0.8
					c0,0.5,0.4,0.7,0.6,0.7H404v0.5H406.5z"/>
				<path class="st27" d="M406.5,124.7h-2v-0.5H404v0.5c-0.4,0-0.5,0-0.5-0.4c0,0,0-0.1,0-0.1h-0.4c0,0.4,0,0.7,0.1,0.8
					c0.2,0.3,0.5,0.3,0.8,0.3v0.4h0.4v-0.4h2V124.7z"/>
				<path class="st27" d="M405.2,121.6c-0.7,0-1.3,0.4-1.3,1.1c0,0.8,0.6,1.2,1.3,1.2c0.6,0,1.3-0.3,1.3-1.1
					C406.5,122.1,406.1,121.6,405.2,121.6z M405.2,122.2c0.3,0,0.8,0,0.8,0.6c0,0.6-0.7,0.6-0.8,0.6c-0.4,0-0.8-0.1-0.8-0.6
					C404.4,122.3,404.8,122.2,405.2,122.2z"/>
			</g>
		</g>
	</g>
</g>
</svg>
