<?xml version="1.0" encoding="utf-8"?>
<!-- Generator: Adobe Illustrator 24.3.0, SVG Export Plug-In . SVG Version: 6.00 Build 0)  -->
<svg version="1.1" id="Foreground" xmlns="http://www.w3.org/2000/svg" xmlns:xlink="http://www.w3.org/1999/xlink" x="0px" y="0px"
	 viewBox="0 0 462 261.4" style="enable-background:new 0 0 462 261.4;" xml:space="preserve">
<style type="text/css">
	.st0{fill-rule:evenodd;clip-rule:evenodd;fill:#314A7D;stroke:#1A171B;stroke-width:0.5;stroke-miterlimit:3.8637;}
	.st1{fill-rule:evenodd;clip-rule:evenodd;fill:#9C2828;stroke:#1A171B;stroke-width:0.5;stroke-miterlimit:3.8637;}
	.st2{fill-rule:evenodd;clip-rule:evenodd;fill:#BE091E;stroke:#1A171B;stroke-width:0.5;stroke-miterlimit:3.8637;}
	.st3{clip-path:url(#SVGID_4_);}
	.st4{clip-path:url(#SVGID_5_);}
	
		.st5{clip-path:url(#SVGID_6_);fill-rule:evenodd;clip-rule:evenodd;fill:#D1D1D1;stroke:#1A171B;stroke-width:0.5;stroke-miterlimit:3.8637;}
	.st6{clip-path:url(#SVGID_10_);}
	.st7{clip-path:url(#SVGID_11_);}
	
		.st8{clip-path:url(#SVGID_12_);fill-rule:evenodd;clip-rule:evenodd;fill:#D1D1D1;stroke:#1A171B;stroke-width:0.5;stroke-miterlimit:3.8637;}
	.st9{clip-path:url(#SVGID_16_);}
	.st10{clip-path:url(#SVGID_17_);}
	
		.st11{clip-path:url(#SVGID_18_);fill-rule:evenodd;clip-rule:evenodd;fill:#D1D1D1;stroke:#1A171B;stroke-width:0.5;stroke-miterlimit:3.8637;}
	.st12{clip-path:url(#SVGID_22_);}
	.st13{clip-path:url(#SVGID_23_);}
	
		.st14{clip-path:url(#SVGID_24_);fill-rule:evenodd;clip-rule:evenodd;fill:#D1D1D1;stroke:#1A171B;stroke-width:0.5;stroke-miterlimit:3.8637;}
	.st15{fill-rule:evenodd;clip-rule:evenodd;fill:none;stroke:#1A171B;stroke-width:0.5;stroke-miterlimit:3.8637;}
	.st16{fill-rule:evenodd;clip-rule:evenodd;fill:#312F32;stroke:#1A171B;stroke-width:0.5;stroke-miterlimit:3.8637;}
	.st17{fill-rule:evenodd;clip-rule:evenodd;fill:#E4E3E4;stroke:#1A171B;stroke-width:0.5;stroke-miterlimit:3.8637;}
	.st18{fill-rule:evenodd;clip-rule:evenodd;fill:#D6D5D6;stroke:#1A171B;stroke-width:0.5;stroke-miterlimit:3.8637;}
	.st19{fill:#D6D5D6;stroke:#1A171B;stroke-width:0.5;stroke-miterlimit:3.8637;}
	.st20{fill:#007F50;stroke:#1A171B;stroke-width:0.5;stroke-miterlimit:3.8637;}
	.st21{fill-rule:evenodd;clip-rule:evenodd;fill:#195A39;stroke:#1A171B;stroke-width:0.5;stroke-miterlimit:3.8637;}
	.st22{fill:#00A768;stroke:#1A171B;stroke-width:0.5;stroke-miterlimit:3.8637;}
	.st23{clip-path:url(#SVGID_28_);}
	.st24{clip-path:url(#SVGID_29_);}
	
		.st25{clip-path:url(#SVGID_30_);fill-rule:evenodd;clip-rule:evenodd;fill:#D1D1D1;stroke:#1A171B;stroke-width:0.5;stroke-miterlimit:3.8637;}
	.st26{clip-path:url(#SVGID_34_);}
	.st27{clip-path:url(#SVGID_35_);}
	
		.st28{clip-path:url(#SVGID_36_);fill-rule:evenodd;clip-rule:evenodd;fill:#D1D1D1;stroke:#1A171B;stroke-width:0.5;stroke-miterlimit:3.8637;}
	.st29{clip-path:url(#SVGID_40_);}
	.st30{clip-path:url(#SVGID_41_);}
	
		.st31{clip-path:url(#SVGID_42_);fill-rule:evenodd;clip-rule:evenodd;fill:#D1D1D1;stroke:#1A171B;stroke-width:0.5;stroke-miterlimit:3.8637;}
	.st32{clip-path:url(#SVGID_46_);}
	.st33{clip-path:url(#SVGID_47_);}
	
		.st34{clip-path:url(#SVGID_48_);fill-rule:evenodd;clip-rule:evenodd;fill:#D1D1D1;stroke:#1A171B;stroke-width:0.5;stroke-miterlimit:3.8637;}
	.st35{clip-path:url(#SVGID_52_);}
	.st36{clip-path:url(#SVGID_53_);}
	
		.st37{clip-path:url(#SVGID_54_);fill-rule:evenodd;clip-rule:evenodd;fill:#D1D1D1;stroke:#1A171B;stroke-width:0.5;stroke-miterlimit:3.8637;}
	.st38{clip-path:url(#SVGID_58_);}
	.st39{clip-path:url(#SVGID_59_);}
	
		.st40{clip-path:url(#SVGID_60_);fill-rule:evenodd;clip-rule:evenodd;fill:#D1D1D1;stroke:#1A171B;stroke-width:0.5;stroke-miterlimit:3.8637;}
	.st41{clip-path:url(#SVGID_64_);}
	.st42{clip-path:url(#SVGID_65_);}
	
		.st43{clip-path:url(#SVGID_66_);fill-rule:evenodd;clip-rule:evenodd;fill:#D1D1D1;stroke:#1A171B;stroke-width:0.5;stroke-miterlimit:3.8637;}
	.st44{clip-path:url(#SVGID_70_);}
	.st45{clip-path:url(#SVGID_71_);}
	
		.st46{clip-path:url(#SVGID_72_);fill-rule:evenodd;clip-rule:evenodd;fill:#D1D1D1;stroke:#1A171B;stroke-width:0.5;stroke-miterlimit:3.8637;}
	.st47{fill-rule:evenodd;clip-rule:evenodd;fill:#3C3A3E;stroke:#1A171B;stroke-width:0.5;stroke-miterlimit:3.8637;}
	.st48{fill-rule:evenodd;clip-rule:evenodd;fill:#484649;stroke:#1A171B;stroke-width:0.5;stroke-miterlimit:3.8637;}
	.st49{clip-path:url(#SVGID_76_);}
	.st50{clip-path:url(#SVGID_77_);}
	
		.st51{clip-path:url(#SVGID_78_);fill-rule:evenodd;clip-rule:evenodd;fill:#D1D1D1;stroke:#1A171B;stroke-width:0.5;stroke-miterlimit:3.8637;}
	.st52{clip-path:url(#SVGID_82_);}
	.st53{clip-path:url(#SVGID_83_);}
	
		.st54{clip-path:url(#SVGID_84_);fill-rule:evenodd;clip-rule:evenodd;fill:#D1D1D1;stroke:#1A171B;stroke-width:0.5;stroke-miterlimit:3.8637;}
	.st55{clip-path:url(#SVGID_88_);}
	.st56{clip-path:url(#SVGID_89_);}
	
		.st57{clip-path:url(#SVGID_90_);fill-rule:evenodd;clip-rule:evenodd;fill:#D1D1D1;stroke:#1A171B;stroke-width:0.5;stroke-miterlimit:3.8637;}
	.st58{clip-path:url(#SVGID_94_);}
	.st59{clip-path:url(#SVGID_95_);}
	
		.st60{clip-path:url(#SVGID_96_);fill-rule:evenodd;clip-rule:evenodd;fill:#D1D1D1;stroke:#1A171B;stroke-width:0.5;stroke-miterlimit:3.8637;}
	.st61{fill-rule:evenodd;clip-rule:evenodd;fill:#E8E8E8;stroke:#1A171B;stroke-width:0.5;stroke-miterlimit:3.8637;}
	.st62{fill:#312F32;stroke:#1A171B;stroke-width:0.5;stroke-miterlimit:3.8637;}
	.st63{clip-path:url(#SVGID_100_);}
	.st64{clip-path:url(#SVGID_101_);}
	
		.st65{clip-path:url(#SVGID_102_);fill-rule:evenodd;clip-rule:evenodd;fill:#D1D1D1;stroke:#1A171B;stroke-width:0.5;stroke-miterlimit:3.8637;}
	.st66{clip-path:url(#SVGID_106_);}
	.st67{clip-path:url(#SVGID_107_);}
	
		.st68{clip-path:url(#SVGID_108_);fill-rule:evenodd;clip-rule:evenodd;fill:#D1D1D1;stroke:#1A171B;stroke-width:0.5;stroke-miterlimit:3.8637;}
	.st69{fill-rule:evenodd;clip-rule:evenodd;fill:#FFFFFF;stroke:#1A171B;stroke-width:0.5;stroke-miterlimit:3.8637;}
	.st70{fill-rule:evenodd;clip-rule:evenodd;fill:#FFFFFF;}
	.st71{fill-rule:evenodd;clip-rule:evenodd;fill:#003E77;}
	.st72{fill:none;stroke:#003E77;stroke-width:0.25;stroke-miterlimit:3.8637;}
	.st73{fill-rule:evenodd;clip-rule:evenodd;fill:none;stroke:#003E77;stroke-width:1.0001;stroke-miterlimit:3.8637;}
	.st74{fill:#FFD616;}
	.st75{fill-rule:evenodd;clip-rule:evenodd;fill:none;stroke:#FFFFFF;stroke-width:0.7553;stroke-miterlimit:3.8637;}
	.st76{clip-path:url(#SVGID_112_);}
	.st77{clip-path:url(#SVGID_113_);}
	.st78{clip-path:url(#SVGID_114_);}
	.st79{fill-rule:evenodd;clip-rule:evenodd;fill:#007F50;stroke:#1A171B;stroke-width:0.5;stroke-miterlimit:3.8637;}
	.st80{fill-rule:evenodd;clip-rule:evenodd;fill:#00A768;stroke:#1A171B;stroke-width:0.5;stroke-miterlimit:3.8637;}
	.st81{clip-path:url(#SVGID_118_);}
	.st82{clip-path:url(#SVGID_119_);}
	.st83{clip-path:url(#SVGID_120_);}
	.st84{clip-path:url(#SVGID_124_);}
	.st85{clip-path:url(#SVGID_125_);}
	.st86{clip-path:url(#SVGID_126_);}
	.st87{clip-path:url(#SVGID_130_);}
	.st88{clip-path:url(#SVGID_131_);}
	.st89{clip-path:url(#SVGID_132_);}
</style>
<rect x="0.3" y="0.3" class="st0" width="201.3" height="252.3"/>
<g>
	<rect x="13.8" y="212.9" class="st1" width="57.5" height="35.4"/>
	<rect x="13.8" y="225.6" class="st2" width="57.5" height="17"/>
	<g>
		<defs>
			<path id="SVGID_1_" d="M58.9,233c0-3.1,2.5-5.7,5.7-5.7s5.7,2.5,5.7,5.7c0,3.1-2.5,5.7-5.7,5.7S58.9,236.2,58.9,233z"/>
		</defs>
		<defs>
			<path id="SVGID_2_" d="M58.9,233c0-3.1,2.5-5.7,5.7-5.7s5.7,2.5,5.7,5.7c0,3.1-2.5,5.7-5.7,5.7S58.9,236.2,58.9,233z"/>
		</defs>
		<defs>
			<path id="SVGID_3_" d="M58.9,233c0-3.1,2.5-5.7,5.7-5.7s5.7,2.5,5.7,5.7c0,3.1-2.5,5.7-5.7,5.7S58.9,236.2,58.9,233z"/>
		</defs>
		<use xlink:href="#SVGID_1_"  style="overflow:visible;fill-rule:evenodd;clip-rule:evenodd;fill:#FFFFFF;"/>
		<clipPath id="SVGID_4_">
			<use xlink:href="#SVGID_1_"  style="overflow:visible;"/>
		</clipPath>
		<clipPath id="SVGID_5_" class="st3">
			<use xlink:href="#SVGID_2_"  style="overflow:visible;"/>
		</clipPath>
		<clipPath id="SVGID_6_" class="st4">
			<use xlink:href="#SVGID_3_"  style="overflow:visible;"/>
		</clipPath>
		
			<rect x="63.5" y="226.8" transform="matrix(0.7071 -0.7071 0.7071 0.7071 -145.8554 113.9403)" class="st5" width="2.3" height="12.4"/>
		
			<use xlink:href="#SVGID_3_"  style="overflow:visible;fill-rule:evenodd;clip-rule:evenodd;fill:none;stroke:#1A171B;stroke-width:0.5;stroke-miterlimit:3.8637;"/>
	</g>
	<g>
		<defs>
			<path id="SVGID_7_" d="M44.4,233c0-3.1,2.5-5.7,5.7-5.7s5.7,2.5,5.7,5.7c0,3.1-2.5,5.7-5.7,5.7S44.4,236.2,44.4,233z"/>
		</defs>
		<defs>
			<path id="SVGID_8_" d="M44.4,233c0-3.1,2.5-5.7,5.7-5.7s5.7,2.5,5.7,5.7c0,3.1-2.5,5.7-5.7,5.7S44.4,236.2,44.4,233z"/>
		</defs>
		<defs>
			<path id="SVGID_9_" d="M44.4,233c0-3.1,2.5-5.7,5.7-5.7s5.7,2.5,5.7,5.7c0,3.1-2.5,5.7-5.7,5.7S44.4,236.2,44.4,233z"/>
		</defs>
		<use xlink:href="#SVGID_7_"  style="overflow:visible;fill-rule:evenodd;clip-rule:evenodd;fill:#FFFFFF;"/>
		<clipPath id="SVGID_10_">
			<use xlink:href="#SVGID_7_"  style="overflow:visible;"/>
		</clipPath>
		<clipPath id="SVGID_11_" class="st6">
			<use xlink:href="#SVGID_8_"  style="overflow:visible;"/>
		</clipPath>
		<clipPath id="SVGID_12_" class="st7">
			<use xlink:href="#SVGID_9_"  style="overflow:visible;"/>
		</clipPath>
		
			<rect x="48.9" y="226.8" transform="matrix(0.7071 -0.7071 0.7071 0.7071 -150.1283 103.6353)" class="st8" width="2.3" height="12.4"/>
		
			<use xlink:href="#SVGID_9_"  style="overflow:visible;fill-rule:evenodd;clip-rule:evenodd;fill:none;stroke:#1A171B;stroke-width:0.5;stroke-miterlimit:3.8637;"/>
	</g>
	<g>
		<defs>
			<path id="SVGID_13_" d="M29.8,233c0-3.1,2.5-5.7,5.7-5.7s5.7,2.5,5.7,5.7c0,3.1-2.5,5.7-5.7,5.7S29.8,236.2,29.8,233z"/>
		</defs>
		<defs>
			<path id="SVGID_14_" d="M29.8,233c0-3.1,2.5-5.7,5.7-5.7s5.7,2.5,5.7,5.7c0,3.1-2.5,5.7-5.7,5.7S29.8,236.2,29.8,233z"/>
		</defs>
		<defs>
			<path id="SVGID_15_" d="M29.8,233c0-3.1,2.5-5.7,5.7-5.7s5.7,2.5,5.7,5.7c0,3.1-2.5,5.7-5.7,5.7S29.8,236.2,29.8,233z"/>
		</defs>
		<use xlink:href="#SVGID_13_"  style="overflow:visible;fill-rule:evenodd;clip-rule:evenodd;fill:#FFFFFF;"/>
		<clipPath id="SVGID_16_">
			<use xlink:href="#SVGID_13_"  style="overflow:visible;"/>
		</clipPath>
		<clipPath id="SVGID_17_" class="st9">
			<use xlink:href="#SVGID_14_"  style="overflow:visible;"/>
		</clipPath>
		<clipPath id="SVGID_18_" class="st10">
			<use xlink:href="#SVGID_15_"  style="overflow:visible;"/>
		</clipPath>
		
			<rect x="34.3" y="226.8" transform="matrix(0.7071 -0.7071 0.7071 0.7071 -154.3956 93.3244)" class="st11" width="2.3" height="12.4"/>
		
			<use xlink:href="#SVGID_15_"  style="overflow:visible;fill-rule:evenodd;clip-rule:evenodd;fill:none;stroke:#1A171B;stroke-width:0.5;stroke-miterlimit:3.8637;"/>
	</g>
	<g>
		<defs>
			<path id="SVGID_19_" d="M15.2,233c0-3.1,2.5-5.7,5.7-5.7s5.7,2.5,5.7,5.7c0,3.1-2.5,5.7-5.7,5.7S15.2,236.2,15.2,233z"/>
		</defs>
		<defs>
			<path id="SVGID_20_" d="M15.2,233c0-3.1,2.5-5.7,5.7-5.7s5.7,2.5,5.7,5.7c0,3.1-2.5,5.7-5.7,5.7S15.2,236.2,15.2,233z"/>
		</defs>
		<defs>
			<path id="SVGID_21_" d="M15.2,233c0-3.1,2.5-5.7,5.7-5.7s5.7,2.5,5.7,5.7c0,3.1-2.5,5.7-5.7,5.7S15.2,236.2,15.2,233z"/>
		</defs>
		<use xlink:href="#SVGID_19_"  style="overflow:visible;fill-rule:evenodd;clip-rule:evenodd;fill:#FFFFFF;"/>
		<clipPath id="SVGID_22_">
			<use xlink:href="#SVGID_19_"  style="overflow:visible;"/>
		</clipPath>
		<clipPath id="SVGID_23_" class="st12">
			<use xlink:href="#SVGID_20_"  style="overflow:visible;"/>
		</clipPath>
		<clipPath id="SVGID_24_" class="st13">
			<use xlink:href="#SVGID_21_"  style="overflow:visible;"/>
		</clipPath>
		
			<rect x="19.7" y="226.8" transform="matrix(0.7071 -0.7071 0.7071 0.7071 -158.6632 83.0138)" class="st14" width="2.3" height="12.4"/>
		
			<use xlink:href="#SVGID_21_"  style="overflow:visible;fill-rule:evenodd;clip-rule:evenodd;fill:none;stroke:#1A171B;stroke-width:0.5;stroke-miterlimit:3.8637;"/>
	</g>
	<rect x="18" y="215.7" class="st15" width="5.7" height="5.7"/>
	<rect x="32.6" y="215.7" class="st15" width="5.7" height="5.7"/>
	<rect x="47.2" y="215.7" class="st15" width="5.7" height="5.7"/>
	<rect x="61.8" y="215.7" class="st15" width="5.7" height="5.7"/>
	<rect x="18" y="212.9" class="st16" width="5.7" height="2.8"/>
	<rect x="32.6" y="212.9" class="st16" width="5.7" height="2.8"/>
	<rect x="47.2" y="212.9" class="st16" width="5.7" height="2.8"/>
	<rect x="61.8" y="212.9" class="st16" width="5.7" height="2.8"/>
	<rect x="13.8" y="245.5" class="st1" width="57.5" height="2.8"/>
</g>
<rect x="0.3" y="40" class="st17" width="201.3" height="172.9"/>
<rect x="0.3" y="0.3" class="st18" width="201.3" height="4.3"/>
<polygon class="st19" points="201.5,0.3 201.5,40 197.3,40 197.3,4.5 193,4.5 193,0.3 "/>
<polygon class="st19" points="0.3,0.3 0.3,40 4.5,40 4.5,4.5 8.8,4.5 8.8,0.3 "/>
<rect x="0.3" y="248.3" class="st18" width="201.3" height="4.3"/>
<polygon class="st19" points="201.5,252.6 201.5,212.9 197.3,212.9 197.3,248.3 193,248.3 193,252.6 "/>
<polygon class="st19" points="0.3,252.6 0.3,212.9 4.5,212.9 4.5,248.3 8.8,248.3 8.8,252.6 "/>
<g>
	<polygon class="st20" points="15.9,7.1 58.4,7.1 58.4,38.8 15.9,38.8 15.9,30.5 17.7,30.5 17.7,17.9 15.9,17.9 	"/>
	<rect x="22.3" y="34.7" class="st21" width="8.5" height="2.8"/>
	<polygon class="st22" points="15.9,15.6 58.4,15.6 58.4,33.2 15.9,33.2 15.9,30.5 17.7,30.5 17.7,18.3 15.9,18.3 	"/>
	<rect x="35.3" y="18.3" class="st21" width="3.7" height="12.2"/>
	<rect x="43.5" y="34.7" class="st21" width="8.5" height="2.8"/>
	<rect x="58.4" y="7.1" class="st20" width="42.5" height="31.7"/>
	<rect x="64.8" y="34.7" class="st21" width="8.5" height="2.8"/>
	<rect x="58.4" y="15.6" class="st22" width="42.5" height="17.6"/>
	<rect x="77.8" y="18.3" class="st21" width="3.7" height="12.2"/>
	<rect x="86" y="34.7" class="st21" width="8.5" height="2.8"/>
	<polygon class="st20" points="143.4,7.1 186,7.1 186,17.9 184.1,17.9 184.1,30.5 186,30.5 186,38.8 143.4,38.8 	"/>
	<rect x="149.8" y="34.7" class="st21" width="8.5" height="2.8"/>
	<polygon class="st22" points="143.4,15.6 186,15.6 186,18.3 184.1,18.3 184.1,30.5 186,30.5 186,33.2 143.4,33.2 	"/>
	<rect x="162.9" y="18.3" class="st21" width="3.7" height="12.2"/>
	<rect x="171.1" y="34.7" class="st21" width="8.5" height="2.8"/>
	<rect x="100.9" y="7.1" class="st20" width="42.5" height="31.7"/>
	<rect x="107.3" y="34.7" class="st21" width="8.5" height="2.8"/>
	<rect x="100.9" y="15.6" class="st22" width="42.5" height="17.6"/>
	<rect x="120.3" y="18.3" class="st21" width="3.7" height="12.2"/>
	<rect x="128.6" y="34.7" class="st21" width="8.5" height="2.8"/>
	<rect x="141.6" y="18.3" class="st21" width="3.7" height="12.2"/>
	<rect x="99.1" y="18.3" class="st21" width="3.7" height="12.2"/>
	<rect x="56.6" y="18.3" class="st21" width="3.7" height="12.2"/>
	<g>
		<defs>
			<path id="SVGID_25_" d="M148.4,22.2c0-3.1,2.5-5.7,5.7-5.7s5.7,2.5,5.7,5.7c0,3.1-2.5,5.7-5.7,5.7S148.4,25.3,148.4,22.2z"/>
		</defs>
		<defs>
			<path id="SVGID_26_" d="M148.4,22.2c0-3.1,2.5-5.7,5.7-5.7s5.7,2.5,5.7,5.7c0,3.1-2.5,5.7-5.7,5.7S148.4,25.3,148.4,22.2z"/>
		</defs>
		<defs>
			<path id="SVGID_27_" d="M148.4,22.2c0-3.1,2.5-5.7,5.7-5.7s5.7,2.5,5.7,5.7c0,3.1-2.5,5.7-5.7,5.7S148.4,25.3,148.4,22.2z"/>
		</defs>
		<use xlink:href="#SVGID_25_"  style="overflow:visible;fill-rule:evenodd;clip-rule:evenodd;fill:#FFFFFF;"/>
		<clipPath id="SVGID_28_">
			<use xlink:href="#SVGID_25_"  style="overflow:visible;"/>
		</clipPath>
		<clipPath id="SVGID_29_" class="st23">
			<use xlink:href="#SVGID_26_"  style="overflow:visible;"/>
		</clipPath>
		<clipPath id="SVGID_30_" class="st24">
			<use xlink:href="#SVGID_27_"  style="overflow:visible;"/>
		</clipPath>
		
			<rect x="152.9" y="16" transform="matrix(0.7071 -0.7071 0.7071 0.7071 29.4538 115.4299)" class="st25" width="2.3" height="12.4"/>
		
			<use xlink:href="#SVGID_27_"  style="overflow:visible;fill-rule:evenodd;clip-rule:evenodd;fill:none;stroke:#1A171B;stroke-width:0.5;stroke-miterlimit:3.8637;"/>
	</g>
	<g>
		<defs>
			<path id="SVGID_31_" d="M169.7,22.2c0-3.1,2.5-5.7,5.7-5.7s5.7,2.5,5.7,5.7c0,3.1-2.5,5.7-5.7,5.7S169.7,25.3,169.7,22.2z"/>
		</defs>
		<defs>
			<path id="SVGID_32_" d="M169.7,22.2c0-3.1,2.5-5.7,5.7-5.7s5.7,2.5,5.7,5.7c0,3.1-2.5,5.7-5.7,5.7S169.7,25.3,169.7,22.2z"/>
		</defs>
		<defs>
			<path id="SVGID_33_" d="M169.7,22.2c0-3.1,2.5-5.7,5.7-5.7s5.7,2.5,5.7,5.7c0,3.1-2.5,5.7-5.7,5.7S169.7,25.3,169.7,22.2z"/>
		</defs>
		<use xlink:href="#SVGID_31_"  style="overflow:visible;fill-rule:evenodd;clip-rule:evenodd;fill:#FFFFFF;"/>
		<clipPath id="SVGID_34_">
			<use xlink:href="#SVGID_31_"  style="overflow:visible;"/>
		</clipPath>
		<clipPath id="SVGID_35_" class="st26">
			<use xlink:href="#SVGID_32_"  style="overflow:visible;"/>
		</clipPath>
		<clipPath id="SVGID_36_" class="st27">
			<use xlink:href="#SVGID_33_"  style="overflow:visible;"/>
		</clipPath>
		
			<rect x="174.2" y="16" transform="matrix(0.7071 -0.7071 0.7071 0.7071 35.6807 130.463)" class="st28" width="2.3" height="12.4"/>
		
			<use xlink:href="#SVGID_33_"  style="overflow:visible;fill-rule:evenodd;clip-rule:evenodd;fill:none;stroke:#1A171B;stroke-width:0.5;stroke-miterlimit:3.8637;"/>
	</g>
	<g>
		<defs>
			<path id="SVGID_37_" d="M105.9,22.2c0-3.1,2.5-5.7,5.7-5.7s5.7,2.5,5.7,5.7c0,3.1-2.5,5.7-5.7,5.7S105.9,25.3,105.9,22.2z"/>
		</defs>
		<defs>
			<path id="SVGID_38_" d="M105.9,22.2c0-3.1,2.5-5.7,5.7-5.7s5.7,2.5,5.7,5.7c0,3.1-2.5,5.7-5.7,5.7S105.9,25.3,105.9,22.2z"/>
		</defs>
		<defs>
			<path id="SVGID_39_" d="M105.9,22.2c0-3.1,2.5-5.7,5.7-5.7s5.7,2.5,5.7,5.7c0,3.1-2.5,5.7-5.7,5.7S105.9,25.3,105.9,22.2z"/>
		</defs>
		<use xlink:href="#SVGID_37_"  style="overflow:visible;fill-rule:evenodd;clip-rule:evenodd;fill:#FFFFFF;"/>
		<clipPath id="SVGID_40_">
			<use xlink:href="#SVGID_37_"  style="overflow:visible;"/>
		</clipPath>
		<clipPath id="SVGID_41_" class="st29">
			<use xlink:href="#SVGID_38_"  style="overflow:visible;"/>
		</clipPath>
		<clipPath id="SVGID_42_" class="st30">
			<use xlink:href="#SVGID_39_"  style="overflow:visible;"/>
		</clipPath>
		<rect x="110.4" y="16" transform="matrix(0.7071 -0.7071 0.7071 0.7071 17 85.364)" class="st31" width="2.3" height="12.4"/>
		
			<use xlink:href="#SVGID_39_"  style="overflow:visible;fill-rule:evenodd;clip-rule:evenodd;fill:none;stroke:#1A171B;stroke-width:0.5;stroke-miterlimit:3.8637;"/>
	</g>
	<g>
		<defs>
			<path id="SVGID_43_" d="M127.1,22.2c0-3.1,2.5-5.7,5.7-5.7s5.7,2.5,5.7,5.7c0,3.1-2.5,5.7-5.7,5.7S127.1,25.3,127.1,22.2z"/>
		</defs>
		<defs>
			<path id="SVGID_44_" d="M127.1,22.2c0-3.1,2.5-5.7,5.7-5.7s5.7,2.5,5.7,5.7c0,3.1-2.5,5.7-5.7,5.7S127.1,25.3,127.1,22.2z"/>
		</defs>
		<defs>
			<path id="SVGID_45_" d="M127.1,22.2c0-3.1,2.5-5.7,5.7-5.7s5.7,2.5,5.7,5.7c0,3.1-2.5,5.7-5.7,5.7S127.1,25.3,127.1,22.2z"/>
		</defs>
		<use xlink:href="#SVGID_43_"  style="overflow:visible;fill-rule:evenodd;clip-rule:evenodd;fill:#FFFFFF;"/>
		<clipPath id="SVGID_46_">
			<use xlink:href="#SVGID_43_"  style="overflow:visible;"/>
		</clipPath>
		<clipPath id="SVGID_47_" class="st32">
			<use xlink:href="#SVGID_44_"  style="overflow:visible;"/>
		</clipPath>
		<clipPath id="SVGID_48_" class="st33">
			<use xlink:href="#SVGID_45_"  style="overflow:visible;"/>
		</clipPath>
		
			<rect x="131.7" y="16" transform="matrix(0.7071 -0.7071 0.7071 0.7071 23.2269 100.3971)" class="st34" width="2.3" height="12.4"/>
		
			<use xlink:href="#SVGID_45_"  style="overflow:visible;fill-rule:evenodd;clip-rule:evenodd;fill:none;stroke:#1A171B;stroke-width:0.5;stroke-miterlimit:3.8637;"/>
	</g>
	<g>
		<defs>
			<path id="SVGID_49_" d="M63.4,22.2c0-3.1,2.5-5.7,5.7-5.7s5.7,2.5,5.7,5.7c0,3.1-2.5,5.7-5.7,5.7S63.4,25.3,63.4,22.2z"/>
		</defs>
		<defs>
			<path id="SVGID_50_" d="M63.4,22.2c0-3.1,2.5-5.7,5.7-5.7s5.7,2.5,5.7,5.7c0,3.1-2.5,5.7-5.7,5.7S63.4,25.3,63.4,22.2z"/>
		</defs>
		<defs>
			<path id="SVGID_51_" d="M63.4,22.2c0-3.1,2.5-5.7,5.7-5.7s5.7,2.5,5.7,5.7c0,3.1-2.5,5.7-5.7,5.7S63.4,25.3,63.4,22.2z"/>
		</defs>
		<use xlink:href="#SVGID_49_"  style="overflow:visible;fill-rule:evenodd;clip-rule:evenodd;fill:#FFFFFF;"/>
		<clipPath id="SVGID_52_">
			<use xlink:href="#SVGID_49_"  style="overflow:visible;"/>
		</clipPath>
		<clipPath id="SVGID_53_" class="st35">
			<use xlink:href="#SVGID_50_"  style="overflow:visible;"/>
		</clipPath>
		<clipPath id="SVGID_54_" class="st36">
			<use xlink:href="#SVGID_51_"  style="overflow:visible;"/>
		</clipPath>
		<rect x="67.9" y="16" transform="matrix(0.7071 -0.7071 0.7071 0.7071 4.5463 55.298)" class="st37" width="2.3" height="12.4"/>
		
			<use xlink:href="#SVGID_51_"  style="overflow:visible;fill-rule:evenodd;clip-rule:evenodd;fill:none;stroke:#1A171B;stroke-width:0.5;stroke-miterlimit:3.8637;"/>
	</g>
	<g>
		<defs>
			<path id="SVGID_55_" d="M84.6,22.2c0-3.1,2.5-5.7,5.7-5.7S96,19,96,22.2c0,3.1-2.5,5.7-5.7,5.7S84.6,25.3,84.6,22.2z"/>
		</defs>
		<defs>
			<path id="SVGID_56_" d="M84.6,22.2c0-3.1,2.5-5.7,5.7-5.7S96,19,96,22.2c0,3.1-2.5,5.7-5.7,5.7S84.6,25.3,84.6,22.2z"/>
		</defs>
		<defs>
			<path id="SVGID_57_" d="M84.6,22.2c0-3.1,2.5-5.7,5.7-5.7S96,19,96,22.2c0,3.1-2.5,5.7-5.7,5.7S84.6,25.3,84.6,22.2z"/>
		</defs>
		<use xlink:href="#SVGID_55_"  style="overflow:visible;fill-rule:evenodd;clip-rule:evenodd;fill:#FFFFFF;"/>
		<clipPath id="SVGID_58_">
			<use xlink:href="#SVGID_55_"  style="overflow:visible;"/>
		</clipPath>
		<clipPath id="SVGID_59_" class="st38">
			<use xlink:href="#SVGID_56_"  style="overflow:visible;"/>
		</clipPath>
		<clipPath id="SVGID_60_" class="st39">
			<use xlink:href="#SVGID_57_"  style="overflow:visible;"/>
		</clipPath>
		
			<rect x="89.1" y="16" transform="matrix(0.7071 -0.7071 0.7071 0.7071 10.7732 70.3311)" class="st40" width="2.3" height="12.4"/>
		
			<use xlink:href="#SVGID_57_"  style="overflow:visible;fill-rule:evenodd;clip-rule:evenodd;fill:none;stroke:#1A171B;stroke-width:0.5;stroke-miterlimit:3.8637;"/>
	</g>
	<g>
		<defs>
			<path id="SVGID_61_" d="M20.8,22.2c0-3.1,2.5-5.7,5.7-5.7s5.7,2.5,5.7,5.7c0,3.1-2.5,5.7-5.7,5.7S20.8,25.3,20.8,22.2z"/>
		</defs>
		<defs>
			<path id="SVGID_62_" d="M20.8,22.2c0-3.1,2.5-5.7,5.7-5.7s5.7,2.5,5.7,5.7c0,3.1-2.5,5.7-5.7,5.7S20.8,25.3,20.8,22.2z"/>
		</defs>
		<defs>
			<path id="SVGID_63_" d="M20.8,22.2c0-3.1,2.5-5.7,5.7-5.7s5.7,2.5,5.7,5.7c0,3.1-2.5,5.7-5.7,5.7S20.8,25.3,20.8,22.2z"/>
		</defs>
		<use xlink:href="#SVGID_61_"  style="overflow:visible;fill-rule:evenodd;clip-rule:evenodd;fill:#FFFFFF;"/>
		<clipPath id="SVGID_64_">
			<use xlink:href="#SVGID_61_"  style="overflow:visible;"/>
		</clipPath>
		<clipPath id="SVGID_65_" class="st41">
			<use xlink:href="#SVGID_62_"  style="overflow:visible;"/>
		</clipPath>
		<clipPath id="SVGID_66_" class="st42">
			<use xlink:href="#SVGID_63_"  style="overflow:visible;"/>
		</clipPath>
		<rect x="25.4" y="16" transform="matrix(0.7071 -0.7071 0.7071 0.7071 -7.9074 25.232)" class="st43" width="2.3" height="12.4"/>
		
			<use xlink:href="#SVGID_63_"  style="overflow:visible;fill-rule:evenodd;clip-rule:evenodd;fill:none;stroke:#1A171B;stroke-width:0.5;stroke-miterlimit:3.8637;"/>
	</g>
	<g>
		<defs>
			<path id="SVGID_67_" d="M42.1,22.2c0-3.1,2.5-5.7,5.7-5.7s5.7,2.5,5.7,5.7c0,3.1-2.5,5.7-5.7,5.7S42.1,25.3,42.1,22.2z"/>
		</defs>
		<defs>
			<path id="SVGID_68_" d="M42.1,22.2c0-3.1,2.5-5.7,5.7-5.7s5.7,2.5,5.7,5.7c0,3.1-2.5,5.7-5.7,5.7S42.1,25.3,42.1,22.2z"/>
		</defs>
		<defs>
			<path id="SVGID_69_" d="M42.1,22.2c0-3.1,2.5-5.7,5.7-5.7s5.7,2.5,5.7,5.7c0,3.1-2.5,5.7-5.7,5.7S42.1,25.3,42.1,22.2z"/>
		</defs>
		<use xlink:href="#SVGID_67_"  style="overflow:visible;fill-rule:evenodd;clip-rule:evenodd;fill:#FFFFFF;"/>
		<clipPath id="SVGID_70_">
			<use xlink:href="#SVGID_67_"  style="overflow:visible;"/>
		</clipPath>
		<clipPath id="SVGID_71_" class="st44">
			<use xlink:href="#SVGID_68_"  style="overflow:visible;"/>
		</clipPath>
		<clipPath id="SVGID_72_" class="st45">
			<use xlink:href="#SVGID_69_"  style="overflow:visible;"/>
		</clipPath>
		
			<rect x="46.6" y="16" transform="matrix(0.7071 -0.7071 0.7071 0.7071 -1.6805 40.2651)" class="st46" width="2.3" height="12.4"/>
		
			<use xlink:href="#SVGID_69_"  style="overflow:visible;fill-rule:evenodd;clip-rule:evenodd;fill:none;stroke:#1A171B;stroke-width:0.5;stroke-miterlimit:3.8637;"/>
	</g>
</g>
<g>
	<rect x="130.5" y="212.9" class="st47" width="57.8" height="35.4"/>
	<rect x="134.6" y="215.7" class="st48" width="5.7" height="5.7"/>
	<rect x="149.3" y="215.7" class="st48" width="5.7" height="5.7"/>
	<rect x="163.9" y="215.7" class="st48" width="5.7" height="5.7"/>
	<rect x="178.5" y="215.7" class="st48" width="5.7" height="5.7"/>
	<rect x="134.6" y="212.9" class="st16" width="5.7" height="2.8"/>
	<rect x="149.3" y="212.9" class="st16" width="5.7" height="2.8"/>
	<rect x="163.9" y="212.9" class="st16" width="5.7" height="2.8"/>
	<rect x="178.5" y="212.9" class="st16" width="5.7" height="2.8"/>
	<rect x="130.5" y="245.5" class="st16" width="57.8" height="2.8"/>
	<rect x="130.5" y="225.6" class="st48" width="57.8" height="17"/>
	<g>
		<defs>
			<path id="SVGID_73_" d="M175.6,233c0-3.1,2.5-5.7,5.7-5.7s5.7,2.5,5.7,5.7c0,3.1-2.5,5.7-5.7,5.7S175.6,236.2,175.6,233z"/>
		</defs>
		<defs>
			<path id="SVGID_74_" d="M175.6,233c0-3.1,2.5-5.7,5.7-5.7s5.7,2.5,5.7,5.7c0,3.1-2.5,5.7-5.7,5.7S175.6,236.2,175.6,233z"/>
		</defs>
		<defs>
			<path id="SVGID_75_" d="M175.6,233c0-3.1,2.5-5.7,5.7-5.7s5.7,2.5,5.7,5.7c0,3.1-2.5,5.7-5.7,5.7S175.6,236.2,175.6,233z"/>
		</defs>
		<use xlink:href="#SVGID_73_"  style="overflow:visible;fill-rule:evenodd;clip-rule:evenodd;fill:#FFFFFF;"/>
		<clipPath id="SVGID_76_">
			<use xlink:href="#SVGID_73_"  style="overflow:visible;"/>
		</clipPath>
		<clipPath id="SVGID_77_" class="st49">
			<use xlink:href="#SVGID_74_"  style="overflow:visible;"/>
		</clipPath>
		<clipPath id="SVGID_78_" class="st50">
			<use xlink:href="#SVGID_75_"  style="overflow:visible;"/>
		</clipPath>
		
			<rect x="180.2" y="226.8" transform="matrix(0.7071 -0.7071 0.7071 0.7071 -111.6798 196.4476)" class="st51" width="2.3" height="12.4"/>
		
			<use xlink:href="#SVGID_75_"  style="overflow:visible;fill-rule:evenodd;clip-rule:evenodd;fill:none;stroke:#1A171B;stroke-width:0.5;stroke-miterlimit:3.8637;"/>
	</g>
	<g>
		<defs>
			<path id="SVGID_79_" d="M161,233c0-3.1,2.5-5.7,5.7-5.7s5.7,2.5,5.7,5.7c0,3.1-2.5,5.7-5.7,5.7S161,236.2,161,233z"/>
		</defs>
		<defs>
			<path id="SVGID_80_" d="M161,233c0-3.1,2.5-5.7,5.7-5.7s5.7,2.5,5.7,5.7c0,3.1-2.5,5.7-5.7,5.7S161,236.2,161,233z"/>
		</defs>
		<defs>
			<path id="SVGID_81_" d="M161,233c0-3.1,2.5-5.7,5.7-5.7s5.7,2.5,5.7,5.7c0,3.1-2.5,5.7-5.7,5.7S161,236.2,161,233z"/>
		</defs>
		<use xlink:href="#SVGID_79_"  style="overflow:visible;fill-rule:evenodd;clip-rule:evenodd;fill:#FFFFFF;"/>
		<clipPath id="SVGID_82_">
			<use xlink:href="#SVGID_79_"  style="overflow:visible;"/>
		</clipPath>
		<clipPath id="SVGID_83_" class="st52">
			<use xlink:href="#SVGID_80_"  style="overflow:visible;"/>
		</clipPath>
		<clipPath id="SVGID_84_" class="st53">
			<use xlink:href="#SVGID_81_"  style="overflow:visible;"/>
		</clipPath>
		
			<rect x="165.6" y="226.8" transform="matrix(0.7071 -0.7071 0.7071 0.7071 -115.9527 186.1426)" class="st54" width="2.3" height="12.4"/>
		
			<use xlink:href="#SVGID_81_"  style="overflow:visible;fill-rule:evenodd;clip-rule:evenodd;fill:none;stroke:#1A171B;stroke-width:0.5;stroke-miterlimit:3.8637;"/>
	</g>
	<g>
		<defs>
			<path id="SVGID_85_" d="M146.5,233c0-3.1,2.5-5.7,5.7-5.7s5.7,2.5,5.7,5.7c0,3.1-2.5,5.7-5.7,5.7S146.5,236.2,146.5,233z"/>
		</defs>
		<defs>
			<path id="SVGID_86_" d="M146.5,233c0-3.1,2.5-5.7,5.7-5.7s5.7,2.5,5.7,5.7c0,3.1-2.5,5.7-5.7,5.7S146.5,236.2,146.5,233z"/>
		</defs>
		<defs>
			<path id="SVGID_87_" d="M146.5,233c0-3.1,2.5-5.7,5.7-5.7s5.7,2.5,5.7,5.7c0,3.1-2.5,5.7-5.7,5.7S146.5,236.2,146.5,233z"/>
		</defs>
		<use xlink:href="#SVGID_85_"  style="overflow:visible;fill-rule:evenodd;clip-rule:evenodd;fill:#FFFFFF;"/>
		<clipPath id="SVGID_88_">
			<use xlink:href="#SVGID_85_"  style="overflow:visible;"/>
		</clipPath>
		<clipPath id="SVGID_89_" class="st55">
			<use xlink:href="#SVGID_86_"  style="overflow:visible;"/>
		</clipPath>
		<clipPath id="SVGID_90_" class="st56">
			<use xlink:href="#SVGID_87_"  style="overflow:visible;"/>
		</clipPath>
		
			<rect x="151" y="226.8" transform="matrix(0.7071 -0.7071 0.7071 0.7071 -120.22 175.8316)" class="st57" width="2.3" height="12.4"/>
		
			<use xlink:href="#SVGID_87_"  style="overflow:visible;fill-rule:evenodd;clip-rule:evenodd;fill:none;stroke:#1A171B;stroke-width:0.5;stroke-miterlimit:3.8637;"/>
	</g>
	<g>
		<defs>
			<path id="SVGID_91_" d="M131.9,233c0-3.1,2.5-5.7,5.7-5.7s5.7,2.5,5.7,5.7c0,3.1-2.5,5.7-5.7,5.7S131.9,236.2,131.9,233z"/>
		</defs>
		<defs>
			<path id="SVGID_92_" d="M131.9,233c0-3.1,2.5-5.7,5.7-5.7s5.7,2.5,5.7,5.7c0,3.1-2.5,5.7-5.7,5.7S131.9,236.2,131.9,233z"/>
		</defs>
		<defs>
			<path id="SVGID_93_" d="M131.9,233c0-3.1,2.5-5.7,5.7-5.7s5.7,2.5,5.7,5.7c0,3.1-2.5,5.7-5.7,5.7S131.9,236.2,131.9,233z"/>
		</defs>
		<use xlink:href="#SVGID_91_"  style="overflow:visible;fill-rule:evenodd;clip-rule:evenodd;fill:#FFFFFF;"/>
		<clipPath id="SVGID_94_">
			<use xlink:href="#SVGID_91_"  style="overflow:visible;"/>
		</clipPath>
		<clipPath id="SVGID_95_" class="st58">
			<use xlink:href="#SVGID_92_"  style="overflow:visible;"/>
		</clipPath>
		<clipPath id="SVGID_96_" class="st59">
			<use xlink:href="#SVGID_93_"  style="overflow:visible;"/>
		</clipPath>
		
			<rect x="136.4" y="226.8" transform="matrix(0.7071 -0.7071 0.7071 0.7071 -124.4876 165.521)" class="st60" width="2.3" height="12.4"/>
		
			<use xlink:href="#SVGID_93_"  style="overflow:visible;fill-rule:evenodd;clip-rule:evenodd;fill:none;stroke:#1A171B;stroke-width:0.5;stroke-miterlimit:3.8637;"/>
	</g>
</g>
<rect x="0.3" y="62.6" class="st61" width="198.4" height="127.6"/>
<polygon class="st62" points="85.3,252.6 91,252.6 91,256.8 110.8,256.8 110.8,252.6 116.5,252.6 116.5,261.1 85.3,261.1 "/>
<rect x="116.5" y="252.6" class="st61" width="2.1" height="4.3"/>
<rect x="83.2" y="252.6" class="st61" width="2.1" height="4.3"/>
<g>
	<rect x="71.8" y="212.9" class="st47" width="28.6" height="35.4"/>
	<rect x="76" y="215.7" class="st48" width="5.7" height="5.7"/>
	<rect x="90.6" y="215.7" class="st48" width="5.7" height="5.7"/>
	<rect x="76" y="212.9" class="st16" width="5.7" height="2.8"/>
	<rect x="90.6" y="212.9" class="st16" width="5.7" height="2.8"/>
	<rect x="71.8" y="245.5" class="st16" width="28.6" height="2.8"/>
	<rect x="71.8" y="225.6" class="st48" width="28.6" height="17"/>
	<g>
		<defs>
			<path id="SVGID_97_" d="M87.8,233c0-3.1,2.5-5.7,5.7-5.7s5.7,2.5,5.7,5.7c0,3.1-2.5,5.7-5.7,5.7S87.8,236.2,87.8,233z"/>
		</defs>
		<defs>
			<path id="SVGID_98_" d="M87.8,233c0-3.1,2.5-5.7,5.7-5.7s5.7,2.5,5.7,5.7c0,3.1-2.5,5.7-5.7,5.7S87.8,236.2,87.8,233z"/>
		</defs>
		<defs>
			<path id="SVGID_99_" d="M87.8,233c0-3.1,2.5-5.7,5.7-5.7s5.7,2.5,5.7,5.7c0,3.1-2.5,5.7-5.7,5.7S87.8,236.2,87.8,233z"/>
		</defs>
		<use xlink:href="#SVGID_97_"  style="overflow:visible;fill-rule:evenodd;clip-rule:evenodd;fill:#FFFFFF;"/>
		<clipPath id="SVGID_100_">
			<use xlink:href="#SVGID_97_"  style="overflow:visible;"/>
		</clipPath>
		<clipPath id="SVGID_101_" class="st63">
			<use xlink:href="#SVGID_98_"  style="overflow:visible;"/>
		</clipPath>
		<clipPath id="SVGID_102_" class="st64">
			<use xlink:href="#SVGID_99_"  style="overflow:visible;"/>
		</clipPath>
		
			<rect x="92.4" y="226.8" transform="matrix(0.7071 -0.7071 0.7071 0.7071 -137.3983 134.3596)" class="st65" width="2.3" height="12.4"/>
		
			<use xlink:href="#SVGID_99_"  style="overflow:visible;fill-rule:evenodd;clip-rule:evenodd;fill:none;stroke:#1A171B;stroke-width:0.5;stroke-miterlimit:3.8637;"/>
	</g>
	<g>
		<defs>
			<path id="SVGID_103_" d="M73.2,233c0-3.1,2.5-5.7,5.7-5.7s5.7,2.5,5.7,5.7c0,3.1-2.5,5.7-5.7,5.7S73.2,236.2,73.2,233z"/>
		</defs>
		<defs>
			<path id="SVGID_104_" d="M73.2,233c0-3.1,2.5-5.7,5.7-5.7s5.7,2.5,5.7,5.7c0,3.1-2.5,5.7-5.7,5.7S73.2,236.2,73.2,233z"/>
		</defs>
		<defs>
			<path id="SVGID_105_" d="M73.2,233c0-3.1,2.5-5.7,5.7-5.7s5.7,2.5,5.7,5.7c0,3.1-2.5,5.7-5.7,5.7S73.2,236.2,73.2,233z"/>
		</defs>
		<use xlink:href="#SVGID_103_"  style="overflow:visible;fill-rule:evenodd;clip-rule:evenodd;fill:#FFFFFF;"/>
		<clipPath id="SVGID_106_">
			<use xlink:href="#SVGID_103_"  style="overflow:visible;"/>
		</clipPath>
		<clipPath id="SVGID_107_" class="st66">
			<use xlink:href="#SVGID_104_"  style="overflow:visible;"/>
		</clipPath>
		<clipPath id="SVGID_108_" class="st67">
			<use xlink:href="#SVGID_105_"  style="overflow:visible;"/>
		</clipPath>
		
			<rect x="77.8" y="226.8" transform="matrix(0.7071 -0.7071 0.7071 0.7071 -141.6659 124.0489)" class="st68" width="2.3" height="12.4"/>
		
			<use xlink:href="#SVGID_105_"  style="overflow:visible;fill-rule:evenodd;clip-rule:evenodd;fill:none;stroke:#1A171B;stroke-width:0.5;stroke-miterlimit:3.8637;"/>
	</g>
</g>
<rect x="4.5" y="66.9" class="st69" width="189.9" height="119.1"/>
<g>
	<rect x="8.8" y="71.3" class="st70" width="181.4" height="112"/>
	<rect x="4.5" y="110.2" class="st71" width="189.9" height="45.4"/>
	<g>
		<g>
			<polygon class="st71" points="18.5,176.6 18.5,177.8 20,177.8 20,178.5 18.5,178.5 18.5,179.7 17.7,179.7 17.7,178.5 16.1,178.5 
				16.1,177.8 17.7,177.8 17.7,176.6 			"/>
			<path class="st71" d="M20,173.1v2.3h-0.8v-0.7h-2.3v0.7h-0.7c0-0.1,0-0.2,0-0.3c0-0.1,0-0.2-0.1-0.3c0-0.1-0.1-0.1-0.2-0.2
				c-0.1,0-0.2-0.1-0.3-0.1v-0.8h3.6v-0.7H20z"/>
			<path class="st71" d="M20,169.5v2.7h-0.7c-0.2-0.2-0.4-0.4-0.6-0.6c-0.2-0.2-0.4-0.4-0.6-0.5c-0.2-0.2-0.4-0.3-0.6-0.4
				s-0.3-0.1-0.5-0.1c-0.2,0-0.4,0.1-0.5,0.2c-0.1,0.1-0.2,0.2-0.2,0.4c0,0.1,0,0.3,0.1,0.5c0.1,0.2,0.2,0.3,0.3,0.4v0.1h-1
				c-0.1-0.1-0.1-0.3-0.2-0.5c-0.1-0.2-0.1-0.4-0.1-0.7c0-0.4,0.1-0.8,0.3-1c0.2-0.2,0.6-0.3,1-0.3c0.3,0,0.5,0.1,0.8,0.2
				c0.2,0.1,0.5,0.3,0.8,0.5c0.2,0.1,0.3,0.3,0.5,0.4c0.1,0.1,0.2,0.2,0.3,0.3v-1.6H20z"/>
			<polygon class="st71" points="15.6,165.6 20,166.9 20,167.9 15.6,169.2 15.6,168.2 18.7,167.4 15.6,166.5 			"/>
		</g>
		<path class="st71" d="M34.6,175.6v1.2l-0.9,0.3v1.6l0.9,0.3v1.1l-4.4-1.6v-1.3L34.6,175.6z M32.9,177.4l-1.6,0.5l1.6,0.5V177.4z"
			/>
		<path class="st71" d="M47.8,175.9c0.2,0,0.4,0,0.6,0.1c0.2,0.1,0.3,0.2,0.4,0.3c0.1,0.2,0.2,0.4,0.3,0.6c0.1,0.2,0.1,0.5,0.1,0.8
			v1.9h-4.4V178c0-0.4,0-0.6,0-0.8c0-0.2,0.1-0.3,0.2-0.5c0.1-0.2,0.2-0.3,0.3-0.4c0.1-0.1,0.3-0.1,0.5-0.1c0.2,0,0.4,0.1,0.6,0.2
			c0.2,0.1,0.3,0.3,0.4,0.5h0c0.1-0.3,0.2-0.5,0.4-0.7C47.3,176,47.5,175.9,47.8,175.9z M46,177.4c-0.1,0-0.1,0-0.2,0.1
			c-0.1,0-0.1,0.1-0.2,0.2c0,0.1,0,0.2,0,0.3c0,0.1,0,0.3,0,0.5v0.1h0.9v-0.2c0-0.2,0-0.3,0-0.5s0-0.2-0.1-0.3
			c0-0.1-0.1-0.2-0.2-0.2C46.2,177.4,46.1,177.4,46,177.4z M47.8,177.1c-0.1,0-0.2,0-0.3,0.1c-0.1,0.1-0.1,0.1-0.2,0.3
			c0,0.1,0,0.2,0,0.4c0,0.2,0,0.3,0,0.5v0.2h1.1v-0.1c0-0.3,0-0.5,0-0.7c0-0.1,0-0.3-0.1-0.4c0-0.1-0.1-0.2-0.2-0.2
			C48,177.1,47.9,177.1,47.8,177.1z"/>
		<g>
			<path class="st71" d="M60.7,177.2c-0.1,0-0.2,0-0.3,0.1s-0.1,0.1-0.2,0.2c0,0.1,0,0.2-0.1,0.3c0,0.1,0,0.2,0,0.4v0.4h1.2v-0.3
				c0-0.2,0-0.3,0-0.5s-0.1-0.2-0.1-0.3c-0.1-0.1-0.1-0.1-0.2-0.2C60.9,177.2,60.8,177.2,60.7,177.2z M63.7,175.5v1.4l-1.6,1.2v0.5
				h1.6v1.1h-4.4v-1.9c0-0.3,0-0.5,0-0.7s0.1-0.4,0.2-0.5c0.1-0.2,0.2-0.3,0.4-0.4c0.2-0.1,0.3-0.1,0.6-0.1c0.3,0,0.6,0.1,0.8,0.2
				c0.2,0.1,0.4,0.4,0.5,0.6L63.7,175.5z"/>
			<path class="st71" d="M62.2,171.8v2.4c0.3,0,0.5-0.1,0.6-0.3c0.1-0.2,0.2-0.4,0.2-0.8c0-0.2,0-0.4-0.1-0.6s-0.2-0.4-0.3-0.5v-0.1
				h0.8c0.1,0.2,0.2,0.5,0.2,0.7s0.1,0.4,0.1,0.7c0,0.7-0.1,1.2-0.4,1.5s-0.7,0.5-1.3,0.5c-0.5,0-1-0.2-1.3-0.5
				c-0.3-0.3-0.5-0.8-0.5-1.4c0-0.5,0.1-0.9,0.4-1.2c0.3-0.3,0.7-0.4,1.2-0.4H62.2z M61.6,172.8c-0.2,0-0.4,0.1-0.5,0.2
				c-0.1,0.1-0.2,0.3-0.2,0.5c0,0.2,0.1,0.4,0.2,0.5s0.3,0.2,0.5,0.2V172.8z"/>
			<path class="st71" d="M59.9,168.9L59.9,168.9c0,0.1,0,0.2,0,0.3c0,0.1,0,0.2,0,0.2c0,0.2,0,0.3,0.1,0.4c0.1,0.1,0.2,0.1,0.4,0.1
				h0v-0.8h0.7v0.8h2.6v1.1h-2.6v0.5h-0.7V171h-0.1c-0.4,0-0.7-0.1-0.9-0.3c-0.2-0.2-0.3-0.5-0.3-1c0-0.2,0-0.3,0-0.4
				c0-0.1,0-0.2,0-0.3H59.9z"/>
			<rect x="62.5" y="167.4" class="st71" width="1.2" height="1.1"/>
		</g>
		<polyline class="st72" points="10.7,183.2 10.7,158.6 69,158.6 69,183.2 		"/>
	</g>
	<path class="st71" d="M29.5,168.3c0.3-0.4-0.1-2.4-1.1-4.1l-3,4.1C26.1,168.6,28.9,169.1,29.5,168.3z M55.6,161.5v0.3
		c0,0,0,0,0.1,0c0.1,0,0.2,0,0.2,0s0.1-0.1,0.1-0.1c0-0.1-0.1-0.2-0.2-0.2L55.6,161.5L55.6,161.5z M56,162.4l-0.3-0.4h-0.2v0.4h-0.1
		v-1h0.3c0.3,0,0.4,0.1,0.4,0.3c0,0.1-0.1,0.2-0.2,0.3l0.3,0.5H56z M56.4,161.9c0-0.2-0.1-0.4-0.2-0.5c-0.1-0.1-0.3-0.2-0.5-0.2
		s-0.4,0.1-0.5,0.2c-0.1,0.1-0.2,0.3-0.2,0.5c0,0.2,0.1,0.4,0.2,0.5c0.1,0.1,0.3,0.2,0.5,0.2s0.4-0.1,0.5-0.2
		C56.4,162.2,56.4,162.1,56.4,161.9z M54.9,161.9c0-0.2,0.1-0.4,0.2-0.6c0.2-0.2,0.4-0.2,0.6-0.2s0.4,0.1,0.6,0.2
		c0.2,0.2,0.2,0.4,0.2,0.6s-0.1,0.4-0.2,0.6c-0.2,0.2-0.4,0.2-0.6,0.2s-0.4-0.1-0.6-0.2C55,162.3,54.9,162.1,54.9,161.9z M53.6,164
		c-0.3,0-0.5,0.1-0.6,0.3c-0.2,0.2-0.2,0.4-0.2,0.7c0,0.3,0.1,0.5,0.2,0.7c0.2,0.2,0.4,0.3,0.7,0.3c0.3,0,0.5-0.1,0.6-0.3
		c0.2-0.2,0.2-0.4,0.2-0.8c0-0.3-0.1-0.5-0.2-0.7C54.1,164,53.9,164,53.6,164z M50.3,167.7v-2.5c0-0.5-0.1-0.8-0.2-1
		c-0.1-0.2-0.4-0.3-0.7-0.3c-0.2,0-0.4,0.1-0.5,0.2c-0.2,0.1-0.3,0.2-0.4,0.4v3.2h-0.8v-4.3h0.5l0.2,0.6c0.3-0.4,0.7-0.6,1.2-0.6
		c0.9,0,1.4,0.6,1.4,1.7v2.7H50.3z M45.7,167.7v-3.6h-0.6v-0.6h1.3v4.3H45.7z M46.1,161.8c0.1,0,0.2,0,0.3,0.1
		c0.1,0.1,0.1,0.2,0.1,0.3c0,0.1,0,0.2-0.1,0.3c-0.1,0.1-0.2,0.1-0.3,0.1c-0.1,0-0.2,0-0.3-0.1c-0.1-0.1-0.1-0.2-0.1-0.3
		s0-0.2,0.1-0.3C45.9,161.8,46,161.8,46.1,161.8z M41.2,167.4l0.3-0.7c0.1,0.1,0.3,0.2,0.6,0.3c0.2,0.1,0.4,0.1,0.6,0.1
		c0.3,0,0.6-0.1,0.8-0.3c0.2-0.2,0.3-0.4,0.3-0.7c0-0.2-0.1-0.4-0.2-0.5c-0.1-0.2-0.4-0.4-0.8-0.6l-0.5-0.2
		c-0.4-0.2-0.7-0.4-0.8-0.7c-0.2-0.3-0.2-0.6-0.2-0.9c0-0.4,0.2-0.8,0.5-1.1s0.7-0.4,1.2-0.4c0.6,0,1.1,0.1,1.4,0.3l-0.2,0.7
		c-0.1-0.1-0.3-0.2-0.5-0.2c-0.2-0.1-0.4-0.1-0.6-0.1c-0.3,0-0.5,0.1-0.6,0.2c-0.2,0.2-0.2,0.4-0.2,0.6c0,0.1,0,0.3,0.1,0.4
		c0.1,0.1,0.1,0.2,0.2,0.3c0.1,0.1,0.3,0.2,0.6,0.3l0.5,0.2c0.4,0.2,0.7,0.4,0.8,0.7c0.2,0.3,0.2,0.6,0.2,1c0,0.4-0.2,0.8-0.5,1.1
		c-0.4,0.3-0.8,0.5-1.4,0.5C42,167.8,41.6,167.7,41.2,167.4z M36.1,161.8h0.8v4c0,0.4,0.1,0.7,0.3,0.9c0.2,0.2,0.5,0.3,0.9,0.3
		c0.4,0,0.7-0.1,0.9-0.3s0.3-0.5,0.3-0.9v-4h0.8v4.1c0,0.6-0.2,1.1-0.6,1.4c-0.4,0.3-0.9,0.5-1.5,0.5c-0.7,0-1.2-0.2-1.5-0.5
		c-0.4-0.3-0.5-0.8-0.5-1.4V161.8z M32.3,164.8v2.2c0.3,0,0.5,0,0.6,0c0.5,0,0.9-0.1,1.1-0.3c0.2-0.2,0.3-0.5,0.3-0.9
		c0-0.4-0.1-0.7-0.3-0.8c-0.2-0.2-0.6-0.3-1.1-0.3L32.3,164.8z M32.3,162.5v1.7c0.2,0,0.4,0,0.6,0c0.8,0,1.1-0.3,1.1-0.9
		c0-0.5-0.3-0.8-1-0.8C32.8,162.5,32.5,162.5,32.3,162.5z M33.2,167.7h-1.7v-5.9c0.7,0,1.2-0.1,1.5-0.1c0.6,0,1,0.1,1.3,0.4
		c0.3,0.2,0.5,0.6,0.5,1.1c0,0.3-0.1,0.5-0.3,0.7c-0.2,0.2-0.4,0.4-0.7,0.4c0.5,0.1,0.8,0.3,1,0.6c0.2,0.3,0.3,0.6,0.3,1.1
		c0,0.5-0.2,0.9-0.6,1.2C34.3,167.6,33.8,167.7,33.2,167.7z M52.4,168.3c0,0,0.9,0.4,1.2,0.4c0.3,0,0.6-0.1,0.8-0.2
		c0.2-0.1,0.3-0.3,0.3-0.4c0-0.3-0.3-0.5-0.8-0.5c-0.1,0-0.2,0-0.5,0.1c-0.2,0-0.4,0.1-0.5,0.1c-0.6,0-0.9-0.2-0.9-0.7
		c0-0.1,0.1-0.3,0.2-0.4c0.1-0.1,0.3-0.2,0.5-0.2c-0.6-0.3-0.9-0.8-0.9-1.5c0-0.4,0.2-0.8,0.5-1.1s0.7-0.4,1.2-0.4
		c0.4,0,0.8,0.1,1,0.3l0.4-0.5l0.5,0.5L55,164c0.2,0.3,0.3,0.6,0.3,1c0,0.4-0.1,0.8-0.4,1.1s-0.6,0.5-1.1,0.5l-0.6,0.1
		c-0.1,0-0.2,0-0.3,0.1c-0.1,0-0.2,0.1-0.2,0.2c0,0.1,0.1,0.2,0.4,0.2c0.1,0,0.3,0,0.5-0.1c0.2,0,0.4-0.1,0.5-0.1
		c0.4,0,0.7,0.1,1,0.3c0.2,0.2,0.4,0.5,0.4,0.8c0,0.4-0.2,0.7-0.5,1c-0.4,0.2-0.8,0.4-1.3,0.4c-0.3,0-0.6,0-0.9-0.1
		c-0.1,0-0.2-0.1-0.3-0.1c-1.8-0.9-3.9-0.5-5.8-0.3c-3.9,0.4-10.7,1.7-14.4,0.9c-0.9-0.2-1.5-0.4-2.3-0.8c-1.2,1-4.5,0.2-5.7-0.2
		l1.1-1.4l-1.9-1.5l0.4-0.6l1.9,1.4l1.3-1.8l-1.9-1.5l0.4-0.6l1.9,1.4l1-1.4c0.6,0.8,2.3,3.8,1.8,5.4c2.9,1.2,6.1,0.9,9.2,0.7
		c2.4-0.2,4.7-0.6,7.1-0.9C48.5,167.9,50.5,167.5,52.4,168.3z"/>
	<g>
		<polygon class="st71" points="166.1,176.6 166.1,179.8 165.1,179.8 165.1,178.9 161.6,178.9 161.6,179.8 160.6,179.8 160.6,176.6 
			161.6,176.6 161.6,177.5 165.1,177.5 165.1,176.6 		"/>
		<polygon class="st71" points="166.1,170.5 166.1,171.8 162.3,174.1 166.1,174.1 166.1,175.4 160.6,175.4 160.6,173.7 163.7,171.8 
			160.6,171.8 160.6,170.5 		"/>
		<path class="st71" d="M163.5,162.8c0.1-0.1,0.2-0.2,0.4-0.3c0.1-0.1,0.3-0.1,0.5-0.1c0.3,0,0.5,0.1,0.7,0.2
			c0.2,0.1,0.4,0.3,0.6,0.5c0.2,0.2,0.3,0.4,0.4,0.7c0.1,0.3,0.1,0.6,0.1,1c0,0.5,0,0.8-0.1,1.2c-0.1,0.3-0.1,0.6-0.2,0.8h-1.2v-0.1
			c0.1-0.2,0.2-0.5,0.3-0.8c0.1-0.3,0.1-0.6,0.1-0.8c0-0.1,0-0.3,0-0.5c0-0.2-0.1-0.3-0.2-0.4c-0.1-0.1-0.1-0.2-0.2-0.2
			c-0.1-0.1-0.2-0.1-0.4-0.1c-0.2,0-0.3,0-0.4,0.1c-0.1,0.1-0.2,0.2-0.2,0.3c0,0.1-0.1,0.3-0.1,0.4c0,0.2,0,0.3,0,0.5v0.3h-1v-0.3
			c0-0.2,0-0.4,0-0.5c0-0.1,0-0.3-0.1-0.4c0-0.1-0.1-0.2-0.2-0.2c-0.1-0.1-0.2-0.1-0.3-0.1c-0.1,0-0.2,0-0.3,0.1
			c-0.1,0.1-0.1,0.1-0.2,0.2c0,0.1-0.1,0.2-0.1,0.3c0,0.1,0,0.2,0,0.3c0,0.2,0,0.5,0.1,0.7c0.1,0.3,0.2,0.5,0.3,0.8v0.1h-1.2
			c-0.1-0.2-0.2-0.5-0.2-0.8c-0.1-0.3-0.1-0.7-0.1-1c0-0.3,0-0.6,0.1-0.9c0.1-0.3,0.1-0.5,0.2-0.6c0.1-0.2,0.3-0.3,0.4-0.4
			c0.2-0.1,0.4-0.1,0.6-0.1c0.3,0,0.6,0.1,0.8,0.3c0.2,0.2,0.4,0.4,0.5,0.7h0.1c0-0.1,0.1-0.3,0.1-0.4
			C163.3,163,163.4,162.9,163.5,162.8z"/>
	</g>
	<g>
		<polygon class="st71" points="180.6,176.6 180.6,179.8 179.6,179.8 179.6,178.9 176.1,178.9 176.1,179.8 175.2,179.8 175.2,176.6 
			176.1,176.6 176.1,177.5 179.6,177.5 179.6,176.6 		"/>
		<polygon class="st71" points="180.6,170.5 180.6,171.8 176.9,174.1 180.6,174.1 180.6,175.4 175.2,175.4 175.2,173.7 178.3,171.8 
			175.2,171.8 175.2,170.5 		"/>
		<path class="st71" d="M179.4,162.2v0.7h1.3v1.3h-1.3v2.6h-1l-3.2-2.6v-1.4h3.2v-0.7H179.4z M178.4,164.3h-2l2,1.6V164.3z"/>
	</g>
	<g>
		<path class="st71" d="M79.6,169.7c0-0.1,0-0.3-0.1-0.4s-0.2-0.2-0.3-0.2c-0.1,0-0.2-0.1-0.3-0.1c-0.1,0-0.3,0-0.4,0H78v1.5h0.4
			c0.2,0,0.4,0,0.6,0c0.2,0,0.3-0.1,0.4-0.2c0.1-0.1,0.2-0.2,0.2-0.2C79.6,170,79.6,169.9,79.6,169.7z M81.8,173.5h-1.7l-1.5-2H78v2
			h-1.4v-5.5h2.4c0.3,0,0.6,0,0.8,0.1c0.2,0,0.4,0.1,0.7,0.2c0.2,0.1,0.4,0.3,0.5,0.5c0.1,0.2,0.2,0.4,0.2,0.7c0,0.4-0.1,0.7-0.3,1
			c-0.2,0.3-0.5,0.5-0.8,0.6L81.8,173.5z"/>
		<path class="st71" d="M86.4,171.7h-3c0,0.3,0.1,0.6,0.4,0.7c0.2,0.2,0.6,0.3,1,0.3c0.3,0,0.5-0.1,0.8-0.2c0.3-0.1,0.5-0.2,0.6-0.3
			h0.1v1.1c-0.3,0.1-0.6,0.2-0.8,0.3s-0.6,0.1-0.9,0.1c-0.8,0-1.5-0.2-1.9-0.6s-0.7-0.9-0.7-1.6c0-0.7,0.2-1.2,0.6-1.6
			c0.4-0.4,1-0.6,1.7-0.6c0.7,0,1.2,0.2,1.5,0.5c0.3,0.3,0.5,0.8,0.5,1.5V171.7z M85.1,170.9c0-0.3-0.1-0.5-0.2-0.6
			c-0.1-0.1-0.3-0.2-0.6-0.2c-0.3,0-0.5,0.1-0.6,0.2s-0.3,0.3-0.3,0.6H85.1z"/>
		<path class="st71" d="M90,168.8L90,168.8c-0.2,0-0.2,0-0.3-0.1c-0.1,0-0.2,0-0.3,0c-0.3,0-0.4,0-0.5,0.1c-0.1,0.1-0.1,0.3-0.1,0.5
			v0h1v0.9h-1v3.2h-1.3v-3.2h-0.6v-0.9h0.6v-0.1c0-0.5,0.1-0.9,0.4-1.1c0.3-0.3,0.7-0.4,1.2-0.4c0.2,0,0.4,0,0.5,0
			c0.2,0,0.3,0,0.4,0.1V168.8z"/>
		<rect x="90.6" y="172.1" class="st71" width="1.4" height="1.4"/>
	</g>
	<g>
		<polygon class="st71" points="136.9,176.6 136.9,179.8 136,179.8 136,178.9 132.5,178.9 132.5,179.8 131.5,179.8 131.5,176.6 
			132.5,176.6 132.5,177.5 136,177.5 136,176.6 		"/>
		<polygon class="st71" points="136.9,170.5 136.9,171.8 133.2,174.1 136.9,174.1 136.9,175.4 131.5,175.4 131.5,173.7 134.6,171.8 
			131.5,171.8 131.5,170.5 		"/>
		<path class="st71" d="M136.9,162.6v3.6h-1v-1.2h-2.9v1.2h-0.9c0-0.2,0-0.3,0-0.5c0-0.2-0.1-0.3-0.1-0.4c-0.1-0.1-0.1-0.2-0.2-0.3
			s-0.2-0.1-0.4-0.1v-1.2h4.5v-1.1H136.9z"/>
	</g>
	<g>
		<polygon class="st71" points="151.5,176.6 151.5,179.8 150.5,179.8 150.5,178.9 147,178.9 147,179.8 146,179.8 146,176.6 
			147,176.6 147,177.5 150.5,177.5 150.5,176.6 		"/>
		<polygon class="st71" points="151.5,170.5 151.5,171.8 147.8,174.1 151.5,174.1 151.5,175.4 146,175.4 146,173.7 149.2,171.8 
			146,171.8 146,170.5 		"/>
		<path class="st71" d="M151.5,162.2v4.3h-0.9c-0.2-0.3-0.5-0.7-0.8-1c-0.3-0.3-0.5-0.6-0.7-0.8c-0.3-0.3-0.5-0.5-0.7-0.6
			c-0.2-0.1-0.4-0.2-0.6-0.2c-0.2,0-0.4,0.1-0.6,0.2c-0.1,0.2-0.2,0.4-0.2,0.7c0,0.2,0,0.5,0.1,0.7c0.1,0.2,0.2,0.5,0.4,0.7v0.1
			h-1.2c-0.1-0.2-0.2-0.4-0.2-0.8c-0.1-0.3-0.1-0.7-0.1-1c0-0.7,0.1-1.2,0.4-1.6c0.3-0.4,0.7-0.5,1.2-0.5c0.3,0,0.7,0.1,1,0.3
			c0.3,0.2,0.6,0.4,1,0.8c0.2,0.2,0.4,0.4,0.6,0.7c0.2,0.2,0.3,0.4,0.4,0.5v-2.4H151.5z"/>
	</g>
	<g>
		<polygon class="st70" points="21.2,120.1 18.3,123 18.3,121.9 12.1,121.9 12.1,118.4 18.3,118.4 18.3,117.2 		"/>
		<path class="st70" d="M27.9,116.1l-2.9,5.3v1h3.1v1.9h1.3v-1.9h1v-1h-1v-5.2H27.9z M26.1,121.4l2.1-4.1v4.1H26.1z"/>
		<polygon class="st70" points="31.6,116.3 31.6,124.3 36.2,124.3 36.2,123.2 32.9,123.2 32.9,120.7 35.4,120.7 35.4,119.6 
			32.9,119.6 32.9,117.3 36.1,117.3 36.1,116.3 		"/>
		<path class="st70" d="M39.6,116.1l-2.9,5.3v1h3.1v1.9h1.3v-1.9h1v-1h-1v-5.2H39.6z M37.7,121.4l2.1-4.1v4.1H37.7z"/>
		<path class="st70" d="M48,118.1c-0.2-0.6-0.6-1.9-2.5-1.9c-1.7,0-2.5,1.2-2.5,2.3c0,0.7,0.3,1.3,0.7,1.6c0.4,0.4,0.8,0.5,1.7,0.9
			c0.7,0.3,1.4,0.6,1.4,1.3c0,0.4-0.2,1.2-1.3,1.2c-1.3,0-1.5-1.1-1.6-1.5l-1.2,0.3c0.1,0.5,0.5,2.2,2.8,2.2c1.9,0,2.7-1.3,2.7-2.4
			c0-1.6-1.3-2.1-2.2-2.4c-0.9-0.4-1.6-0.6-1.6-1.3c0-0.4,0.2-1,1.1-1c0.8,0,1.2,0.5,1.4,1.2L48,118.1z"/>
		<rect x="49" y="120.8" class="st70" width="2.5" height="1"/>
		<path class="st70" d="M53.6,118.4c0.1-0.4,0.3-1.2,1.3-1.2c0.8,0,1.1,0.6,1.1,1.2c0,0.3-0.1,0.8-0.4,1c-0.3,0.2-0.6,0.2-1,0.2H54
			v1h0.5c0.5,0,1.6,0,1.6,1.4c0,1-0.7,1.4-1.3,1.4c-1.1,0-1.4-1-1.4-1.4l-1.1,0.3c0.1,0.4,0.2,0.9,0.6,1.3c0.6,0.7,1.5,0.8,2,0.8
			c1.4,0,2.6-0.8,2.6-2.4c0-0.3-0.1-0.8-0.4-1.3c-0.4-0.5-0.8-0.6-1.1-0.7c0.5-0.2,1.2-0.6,1.2-1.8c0-1.4-1-2.1-2.3-2.1
			c-1.9,0-2.4,1.5-2.5,1.9L53.6,118.4z"/>
		<path class="st70" d="M61.2,116.1c-2.2,0-2.6,2.2-2.6,4.2c0,2,0.5,4,2.6,4c2.2,0,2.6-2.2,2.6-4.2
			C63.9,118.2,63.4,116.1,61.2,116.1z M61.2,117.1c1,0,1.2,1.4,1.2,3.2c0,1.9-0.3,3.2-1.2,3.2c-1,0-1.2-1.4-1.2-3.2
			C60,118.6,60.2,117.1,61.2,117.1z"/>
		<path class="st70" d="M66.6,116.3l-2.3,8h1.3l0.5-2h2.3l0.5,2h1.3l-2.1-8H66.6z M66.3,121.2l0.9-3.7l0.9,3.7H66.3z"/>
	</g>
	<g>
		<g>
			<path class="st70" d="M27.7,136.7c0-0.3,0-0.5-0.3-0.7c-0.2-0.1-0.5-0.2-0.8-0.2c-0.5,0-1,0.2-1.1,0.7l0.5,0.1
				c0-0.1,0.1-0.4,0.6-0.4c0.2,0,0.5,0.1,0.5,0.4v0.2c-0.5,0-1.6,0-1.6,0.8c0,0.4,0.3,0.8,0.8,0.8c0.6,0,0.8-0.4,0.8-0.5
				c0,0.2,0,0.3,0.1,0.5h0.5c0-0.1-0.1-0.3-0.1-0.5V136.7z M27.1,137.2c0,0.2-0.1,0.7-0.6,0.7c-0.4,0-0.4-0.3-0.4-0.4
				c0-0.3,0.3-0.4,0.4-0.4c0.1,0,0.3-0.1,0.7-0.1V137.2z"/>
			<path class="st70" d="M29.7,137.4c-0.1,0.3-0.2,0.5-0.5,0.5c-0.5,0-0.5-0.7-0.5-0.8c0-0.1,0-0.3,0.1-0.5c0-0.1,0.1-0.4,0.5-0.4
				c0.2,0,0.4,0.1,0.5,0.5l0.5-0.1c0-0.2-0.2-0.9-1-0.9c-0.7,0-1.1,0.6-1.1,1.3c0,0.6,0.3,1.3,1.1,1.3c0.8,0,1-0.7,1-0.9L29.7,137.4
				z"/>
			<path class="st70" d="M31.8,137.8c-0.1,0-0.1,0-0.1,0c-0.3,0-0.4-0.1-0.4-0.4v-1.2h0.5v-0.4h-0.5v-0.7l-0.5,0l-0.1,0.6h-0.3v0.4
				h0.3v1.3c0,0.3,0,0.4,0.2,0.6c0.1,0.1,0.3,0.2,0.5,0.2c0.1,0,0.3,0,0.4,0V137.8z"/>
			<path class="st70" d="M34.3,135.8h-0.6v1.2c0,0.2,0,0.4-0.1,0.5c-0.1,0.2-0.3,0.3-0.5,0.3c-0.3,0-0.3-0.2-0.3-0.5v-1.6h-0.6v1.7
				c0,0.2,0,0.3,0.1,0.5c0.1,0.2,0.4,0.3,0.6,0.3c0.3,0,0.4-0.1,0.5-0.2c0.2-0.1,0.2-0.3,0.3-0.4v0.5h0.5V135.8z"/>
			<path class="st70" d="M37,136.7c0-0.3,0-0.5-0.3-0.7c-0.2-0.1-0.5-0.2-0.8-0.2c-0.5,0-1,0.2-1.1,0.7l0.5,0.1
				c0-0.1,0.1-0.4,0.6-0.4c0.2,0,0.5,0.1,0.5,0.4v0.2c-0.5,0-1.7,0-1.7,0.8c0,0.4,0.3,0.8,0.8,0.8c0.6,0,0.8-0.4,0.8-0.5
				c0,0.2,0,0.3,0.1,0.5h0.5c0-0.1-0.1-0.3-0.1-0.5V136.7z M36.4,137.2c0,0.2-0.1,0.7-0.6,0.7c-0.4,0-0.4-0.3-0.4-0.4
				c0-0.3,0.3-0.4,0.4-0.4c0.1,0,0.3-0.1,0.7-0.1V137.2z"/>
			<path class="st70" d="M38.8,137.8c-0.1,0-0.1,0-0.1,0c-0.3,0-0.4-0.1-0.4-0.4v-1.2h0.5v-0.4h-0.5v-0.7l-0.5,0l-0.1,0.6h-0.3v0.4
				h0.3v1.3c0,0.3,0,0.4,0.2,0.6c0.1,0.1,0.3,0.2,0.5,0.2c0.1,0,0.3,0,0.4,0V137.8z"/>
			<path class="st70" d="M41.4,137c0-0.7-0.4-1.3-1.1-1.3c-0.8,0-1.2,0.6-1.2,1.3c0,0.6,0.3,1.3,1.1,1.3
				C40.9,138.3,41.4,137.9,41.4,137z M40.8,137c0,0.3,0,0.8-0.6,0.8c-0.6,0-0.6-0.7-0.6-0.8c0-0.4,0.1-0.8,0.6-0.8
				C40.7,136.2,40.8,136.6,40.8,137z"/>
			<path class="st70" d="M41.9,138.3h0.6v-1c0-0.4,0.1-0.6,0.2-0.7c0.2-0.2,0.4-0.2,0.5-0.2v-0.6c-0.5,0-0.7,0.5-0.8,0.7v-0.6h-0.5
				V138.3z"/>
		</g>
		<g>
			<path class="st70" d="M27.7,130.7c0-0.3,0-0.5-0.3-0.7c-0.2-0.1-0.5-0.2-0.8-0.2c-0.5,0-1,0.2-1.1,0.7l0.5,0.1
				c0-0.1,0.1-0.4,0.6-0.4c0.2,0,0.5,0.1,0.5,0.4v0.2c-0.5,0-1.6,0-1.6,0.8c0,0.4,0.3,0.8,0.8,0.8c0.6,0,0.8-0.4,0.8-0.5
				c0,0.2,0,0.3,0.1,0.5h0.5c0-0.1-0.1-0.3-0.1-0.5V130.7z M27.1,131.2c0,0.2-0.1,0.7-0.6,0.7c-0.4,0-0.4-0.3-0.4-0.4
				c0-0.3,0.3-0.4,0.4-0.4c0.1,0,0.3-0.1,0.7-0.1V131.2z"/>
			<path class="st70" d="M29.7,131.4c-0.1,0.3-0.2,0.5-0.5,0.5c-0.5,0-0.5-0.7-0.5-0.8c0-0.1,0-0.3,0.1-0.5c0-0.1,0.1-0.4,0.5-0.4
				c0.2,0,0.4,0.1,0.5,0.5l0.5-0.1c0-0.2-0.2-0.9-1-0.9c-0.7,0-1.1,0.6-1.1,1.3c0,0.6,0.3,1.3,1.1,1.3c0.8,0,1-0.7,1-0.9L29.7,131.4
				z"/>
			<path class="st70" d="M31.8,131.8c-0.1,0-0.1,0-0.1,0c-0.3,0-0.4-0.1-0.4-0.4v-1.2h0.5v-0.4h-0.5v-0.7l-0.5,0l-0.1,0.6h-0.3v0.4
				h0.3v1.3c0,0.3,0,0.4,0.2,0.6c0.1,0.1,0.3,0.2,0.5,0.2c0.1,0,0.3,0,0.4,0V131.8z"/>
			<path class="st70" d="M34.3,129.8h-0.6v1.2c0,0.2,0,0.4-0.1,0.5c-0.1,0.2-0.3,0.3-0.5,0.3c-0.3,0-0.3-0.2-0.3-0.5v-1.6h-0.6v1.7
				c0,0.2,0,0.3,0.1,0.5c0.1,0.2,0.4,0.3,0.6,0.3c0.3,0,0.4-0.1,0.5-0.2c0.2-0.1,0.2-0.3,0.3-0.4v0.5h0.5V129.8z"/>
			<path class="st70" d="M37,130.7c0-0.3,0-0.5-0.3-0.7c-0.2-0.1-0.5-0.2-0.8-0.2c-0.5,0-1,0.2-1.1,0.7l0.5,0.1
				c0-0.1,0.1-0.4,0.6-0.4c0.2,0,0.5,0.1,0.5,0.4v0.2c-0.5,0-1.7,0-1.7,0.8c0,0.4,0.3,0.8,0.8,0.8c0.6,0,0.8-0.4,0.8-0.5
				c0,0.2,0,0.3,0.1,0.5h0.5c0-0.1-0.1-0.3-0.1-0.5V130.7z M36.4,131.2c0,0.2-0.1,0.7-0.6,0.7c-0.4,0-0.4-0.3-0.4-0.4
				c0-0.3,0.3-0.4,0.4-0.4c0.1,0,0.3-0.1,0.7-0.1V131.2z"/>
			<path class="st70" d="M39.7,132.3v-3.3h-0.6v1.2c-0.2-0.4-0.4-0.4-0.7-0.4c-0.8,0-1,0.8-1,1.3c0,0.3,0.1,1.3,0.9,1.3
				c0.5,0,0.7-0.4,0.7-0.5v0.5H39.7z M39.1,131.2c0,0.4-0.3,0.6-0.5,0.6c-0.5,0-0.5-0.7-0.5-0.8c0-0.2,0-0.9,0.5-0.9
				c0.1,0,0.3,0.1,0.4,0.2c0.1,0.1,0.1,0.2,0.1,0.5V131.2z"/>
			<path class="st70" d="M42.5,131c0-0.7-0.4-1.3-1.1-1.3c-0.8,0-1.2,0.6-1.2,1.3c0,0.6,0.3,1.3,1.1,1.3
				C41.9,132.3,42.5,131.9,42.5,131z M41.9,131c0,0.3,0,0.8-0.6,0.8c-0.6,0-0.6-0.7-0.6-0.8c0-0.4,0.1-0.8,0.6-0.8
				C41.8,130.2,41.9,130.6,41.9,131z"/>
			<path class="st70" d="M43,132.3h0.6v-1c0-0.4,0.1-0.6,0.2-0.7c0.2-0.2,0.4-0.2,0.5-0.2v-0.6c-0.5,0-0.7,0.5-0.8,0.7v-0.6H43
				V132.3z"/>
		</g>
	</g>
	<g>
		<g>
			<polygon class="st71" points="35.5,77.1 31.4,77.1 31.4,76.1 33.8,72.5 31.5,72.5 31.5,71.3 35.4,71.3 35.4,72.4 32.9,76 
				35.5,76 			"/>
			<path class="st71" d="M39.9,77.1h-3.3v-1h1v-3.1h-1v-0.9c0.2,0,0.3,0,0.5,0c0.1,0,0.3-0.1,0.4-0.1c0.1-0.1,0.2-0.2,0.3-0.3
				c0.1-0.1,0.1-0.2,0.1-0.4h1.1v4.8h1V77.1z"/>
		</g>
		<polyline class="st73" points="46.9,72.9 46.9,78.6 38.6,78.6 		"/>
		<polyline class="st73" points="24.8,73.8 24.8,79.4 33.2,79.4 36.7,82.9 		"/>
	</g>
	<g>
		<g>
			<polygon class="st71" points="162.5,77.1 158.3,77.1 158.3,76.1 160.8,72.5 158.5,72.5 158.5,71.3 162.4,71.3 162.4,72.4 
				159.9,76 162.5,76 			"/>
			<path class="st71" d="M167.3,75.8h-0.7v1.4h-1.2v-1.4H163v-1.1l2.3-3.4h1.3v3.4h0.7V75.8z M165.4,74.7v-2.1l-1.4,2.1H165.4z"/>
		</g>
		<polyline class="st73" points="173.8,73.8 173.8,79.4 165.6,79.4 		"/>
		<polyline class="st73" points="151.7,73.8 151.7,79.4 160.1,79.4 163.7,82.9 		"/>
	</g>
	<g>
		<g>
			<polygon class="st71" points="121,76.9 116.9,76.9 116.9,75.8 119.3,72.2 117,72.2 117,71.1 120.9,71.1 120.9,72.2 118.4,75.8 
				121,75.8 			"/>
			<path class="st71" d="M125.3,74.2c0.1,0.1,0.2,0.2,0.3,0.4c0.1,0.1,0.1,0.3,0.1,0.6c0,0.3,0,0.5-0.1,0.8
				c-0.1,0.2-0.2,0.4-0.4,0.6c-0.2,0.2-0.4,0.3-0.7,0.4c-0.2,0.1-0.6,0.1-0.9,0.1c-0.4,0-0.8,0-1.1-0.1c-0.3-0.1-0.5-0.2-0.7-0.3
				v-1.3h0.1c0.2,0.1,0.4,0.3,0.7,0.4c0.3,0.1,0.5,0.1,0.7,0.1c0.1,0,0.3,0,0.4,0c0.2,0,0.3-0.1,0.4-0.2c0.1-0.1,0.1-0.1,0.2-0.2
				c0-0.1,0.1-0.2,0.1-0.4c0-0.2,0-0.3-0.1-0.4c-0.1-0.1-0.2-0.2-0.3-0.2c-0.1,0-0.2-0.1-0.4-0.1c-0.2,0-0.3,0-0.4,0h-0.3v-1h0.3
				c0.2,0,0.3,0,0.5,0c0.1,0,0.2,0,0.3-0.1c0.1,0,0.2-0.1,0.2-0.2c0-0.1,0.1-0.2,0.1-0.4c0-0.1,0-0.2-0.1-0.3
				c-0.1-0.1-0.1-0.1-0.2-0.2c-0.1,0-0.2-0.1-0.3-0.1s-0.2,0-0.3,0c-0.2,0-0.4,0-0.7,0.1c-0.2,0.1-0.5,0.2-0.7,0.4h-0.1v-1.3
				c0.2-0.1,0.4-0.2,0.7-0.2c0.3-0.1,0.6-0.1,0.9-0.1c0.3,0,0.6,0,0.8,0.1c0.2,0.1,0.4,0.1,0.6,0.3c0.2,0.1,0.3,0.3,0.4,0.5
				c0.1,0.2,0.1,0.4,0.1,0.6c0,0.3-0.1,0.6-0.3,0.9c-0.2,0.3-0.4,0.4-0.7,0.5v0.1c0.1,0,0.2,0.1,0.4,0.1S125.2,74.1,125.3,74.2z"/>
		</g>
		<polyline class="st73" points="132.4,73.5 132.4,79.1 124.1,79.1 		"/>
		<polyline class="st73" points="110.3,73.5 110.3,79.1 118.7,79.1 122.3,82.7 		"/>
	</g>
	<g>
		<g>
			<polygon class="st71" points="77.1,77.1 72.9,77.1 72.9,76.1 75.4,72.5 73.1,72.5 73.1,71.3 77,71.3 77,72.4 74.5,76 77.1,76 			
				"/>
			<path class="st71" d="M81.8,77.1H78v-1c0.3-0.3,0.6-0.5,0.9-0.8c0.3-0.3,0.5-0.5,0.7-0.7c0.3-0.3,0.5-0.6,0.6-0.8
				s0.2-0.5,0.2-0.7c0-0.3-0.1-0.5-0.2-0.6c-0.1-0.1-0.4-0.2-0.6-0.2c-0.2,0-0.4,0-0.6,0.1c-0.2,0.1-0.4,0.2-0.6,0.4h-0.1v-1.3
				c0.2-0.1,0.4-0.2,0.7-0.2c0.3-0.1,0.6-0.1,0.9-0.1c0.6,0,1.1,0.2,1.4,0.5c0.3,0.3,0.5,0.7,0.5,1.3c0,0.4-0.1,0.7-0.2,1
				c-0.2,0.3-0.4,0.7-0.7,1c-0.2,0.2-0.4,0.4-0.6,0.6c-0.2,0.2-0.3,0.3-0.4,0.4h2.2V77.1z"/>
		</g>
		<polyline class="st73" points="88.4,73.8 88.4,79.4 80.2,79.4 		"/>
		<polyline class="st73" points="66.3,73.8 66.3,79.4 74.8,79.4 78.3,82.9 		"/>
	</g>
	<g>
		<path class="st71" d="M50.5,89.2c0,0.6-0.2,1-0.5,1.4c-0.3,0.3-0.8,0.5-1.4,0.5c-0.6,0-1-0.2-1.4-0.5c-0.3-0.3-0.5-0.8-0.5-1.4
			c0-0.6,0.2-1,0.5-1.4c0.3-0.3,0.8-0.5,1.4-0.5c0.6,0,1,0.2,1.4,0.5C50.3,88.1,50.5,88.6,50.5,89.2z M49.2,90.1
			c0.1-0.1,0.2-0.2,0.2-0.4c0-0.2,0.1-0.3,0.1-0.5c0-0.2,0-0.4-0.1-0.6c-0.1-0.2-0.1-0.3-0.2-0.4c-0.1-0.1-0.2-0.2-0.3-0.2
			c-0.1,0-0.2-0.1-0.3-0.1c-0.1,0-0.2,0-0.3,0.1c-0.1,0-0.2,0.1-0.3,0.2c-0.1,0.1-0.1,0.2-0.2,0.4c-0.1,0.2-0.1,0.3-0.1,0.6
			c0,0.2,0,0.4,0.1,0.6c0.1,0.2,0.1,0.3,0.2,0.4c0.1,0.1,0.2,0.2,0.3,0.2c0.1,0,0.2,0.1,0.3,0.1c0.1,0,0.2,0,0.3-0.1
			C49,90.3,49.1,90.2,49.2,90.1z"/>
		<polygon class="st71" points="53.8,88.1 52.1,88.1 52.1,88.7 53.7,88.7 53.7,89.4 52.1,89.4 52.1,91 51.2,91 51.2,87.4 53.8,87.4 
					"/>
		<polygon class="st71" points="57,88.1 55.4,88.1 55.4,88.7 56.9,88.7 56.9,89.4 55.4,89.4 55.4,91 54.4,91 54.4,87.4 57,87.4 		
			"/>
	</g>
	<g>
		<path class="st71" d="M50.5,104.6c0,0.6-0.2,1-0.5,1.4c-0.3,0.3-0.8,0.5-1.4,0.5c-0.6,0-1-0.2-1.4-0.5c-0.3-0.3-0.5-0.8-0.5-1.4
			c0-0.6,0.2-1,0.5-1.4c0.3-0.3,0.8-0.5,1.4-0.5c0.6,0,1,0.2,1.4,0.5C50.3,103.5,50.5,104,50.5,104.6z M49.2,105.5
			c0.1-0.1,0.2-0.2,0.2-0.4c0-0.2,0.1-0.3,0.1-0.5c0-0.2,0-0.4-0.1-0.6c-0.1-0.2-0.1-0.3-0.2-0.4c-0.1-0.1-0.2-0.2-0.3-0.2
			c-0.1,0-0.2-0.1-0.3-0.1c-0.1,0-0.2,0-0.3,0.1c-0.1,0-0.2,0.1-0.3,0.2c-0.1,0.1-0.1,0.2-0.2,0.4c-0.1,0.2-0.1,0.3-0.1,0.6
			c0,0.2,0,0.4,0.1,0.6c0.1,0.2,0.1,0.3,0.2,0.4c0.1,0.1,0.2,0.2,0.3,0.2c0.1,0,0.2,0.1,0.3,0.1c0.1,0,0.2,0,0.3-0.1
			C49,105.7,49.1,105.6,49.2,105.5z"/>
		<polygon class="st71" points="54.5,106.4 53.6,106.4 52,103.9 52,106.4 51.2,106.4 51.2,102.8 52.3,102.8 53.6,104.8 53.6,102.8 
			54.5,102.8 		"/>
	</g>
	<g>
		<path class="st71" d="M92.6,89.2c0,0.6-0.2,1-0.5,1.4c-0.3,0.3-0.8,0.5-1.4,0.5c-0.6,0-1-0.2-1.4-0.5c-0.3-0.3-0.5-0.8-0.5-1.4
			c0-0.6,0.2-1,0.5-1.4c0.3-0.3,0.8-0.5,1.4-0.5c0.6,0,1,0.2,1.4,0.5C92.4,88.1,92.6,88.6,92.6,89.2z M91.3,90.1
			c0.1-0.1,0.2-0.2,0.2-0.4c0-0.2,0.1-0.3,0.1-0.5c0-0.2,0-0.4-0.1-0.6c-0.1-0.2-0.1-0.3-0.2-0.4c-0.1-0.1-0.2-0.2-0.3-0.2
			c-0.1,0-0.2-0.1-0.3-0.1c-0.1,0-0.2,0-0.3,0.1c-0.1,0-0.2,0.1-0.3,0.2c-0.1,0.1-0.1,0.2-0.2,0.4c-0.1,0.2-0.1,0.3-0.1,0.6
			c0,0.2,0,0.4,0.1,0.6c0.1,0.2,0.1,0.3,0.2,0.4c0.1,0.1,0.2,0.2,0.3,0.2c0.1,0,0.2,0.1,0.3,0.1c0.1,0,0.2,0,0.3-0.1
			C91.2,90.3,91.3,90.2,91.3,90.1z"/>
		<polygon class="st71" points="95.9,88.1 94.2,88.1 94.2,88.7 95.8,88.7 95.8,89.4 94.2,89.4 94.2,91 93.3,91 93.3,87.4 95.9,87.4 
					"/>
		<polygon class="st71" points="99.2,88.1 97.5,88.1 97.5,88.7 99,88.7 99,89.4 97.5,89.4 97.5,91 96.6,91 96.6,87.4 99.2,87.4 		
			"/>
	</g>
	<g>
		<path class="st71" d="M92.6,104.6c0,0.6-0.2,1-0.5,1.4c-0.3,0.3-0.8,0.5-1.4,0.5c-0.6,0-1-0.2-1.4-0.5c-0.3-0.3-0.5-0.8-0.5-1.4
			c0-0.6,0.2-1,0.5-1.4c0.3-0.3,0.8-0.5,1.4-0.5c0.6,0,1,0.2,1.4,0.5C92.4,103.5,92.6,104,92.6,104.6z M91.3,105.5
			c0.1-0.1,0.2-0.2,0.2-0.4c0-0.2,0.1-0.3,0.1-0.5c0-0.2,0-0.4-0.1-0.6c-0.1-0.2-0.1-0.3-0.2-0.4c-0.1-0.1-0.2-0.2-0.3-0.2
			c-0.1,0-0.2-0.1-0.3-0.1c-0.1,0-0.2,0-0.3,0.1c-0.1,0-0.2,0.1-0.3,0.2c-0.1,0.1-0.1,0.2-0.2,0.4c-0.1,0.2-0.1,0.3-0.1,0.6
			c0,0.2,0,0.4,0.1,0.6c0.1,0.2,0.1,0.3,0.2,0.4c0.1,0.1,0.2,0.2,0.3,0.2c0.1,0,0.2,0.1,0.3,0.1c0.1,0,0.2,0,0.3-0.1
			C91.2,105.7,91.3,105.6,91.3,105.5z"/>
		<polygon class="st71" points="96.6,106.4 95.7,106.4 94.2,103.9 94.2,106.4 93.3,106.4 93.3,102.8 94.4,102.8 95.7,104.8 
			95.7,102.8 96.6,102.8 		"/>
	</g>
	<g>
		<path class="st71" d="M135.7,89.2c0,0.6-0.2,1-0.5,1.4c-0.3,0.3-0.8,0.5-1.4,0.5c-0.6,0-1-0.2-1.4-0.5c-0.3-0.3-0.5-0.8-0.5-1.4
			c0-0.6,0.2-1,0.5-1.4c0.3-0.3,0.8-0.5,1.4-0.5c0.6,0,1,0.2,1.4,0.5C135.6,88.1,135.7,88.6,135.7,89.2z M134.5,90.1
			c0.1-0.1,0.2-0.2,0.2-0.4c0-0.2,0.1-0.3,0.1-0.5c0-0.2,0-0.4-0.1-0.6c-0.1-0.2-0.1-0.3-0.2-0.4c-0.1-0.1-0.2-0.2-0.3-0.2
			c-0.1,0-0.2-0.1-0.3-0.1c-0.1,0-0.2,0-0.3,0.1c-0.1,0-0.2,0.1-0.3,0.2c-0.1,0.1-0.1,0.2-0.2,0.4c-0.1,0.2-0.1,0.3-0.1,0.6
			c0,0.2,0,0.4,0.1,0.6c0.1,0.2,0.1,0.3,0.2,0.4c0.1,0.1,0.2,0.2,0.3,0.2s0.2,0.1,0.3,0.1s0.2,0,0.3-0.1
			C134.3,90.3,134.4,90.2,134.5,90.1z"/>
		<polygon class="st71" points="139,88.1 137.4,88.1 137.4,88.7 138.9,88.7 138.9,89.4 137.4,89.4 137.4,91 136.4,91 136.4,87.4 
			139,87.4 		"/>
		<polygon class="st71" points="142.3,88.1 140.6,88.1 140.6,88.7 142.2,88.7 142.2,89.4 140.6,89.4 140.6,91 139.7,91 139.7,87.4 
			142.3,87.4 		"/>
	</g>
	<g>
		<path class="st71" d="M135.7,104.6c0,0.6-0.2,1-0.5,1.4c-0.3,0.3-0.8,0.5-1.4,0.5c-0.6,0-1-0.2-1.4-0.5c-0.3-0.3-0.5-0.8-0.5-1.4
			c0-0.6,0.2-1,0.5-1.4c0.3-0.3,0.8-0.5,1.4-0.5c0.6,0,1,0.2,1.4,0.5C135.6,103.5,135.7,104,135.7,104.6z M134.5,105.5
			c0.1-0.1,0.2-0.2,0.2-0.4c0-0.2,0.1-0.3,0.1-0.5c0-0.2,0-0.4-0.1-0.6c-0.1-0.2-0.1-0.3-0.2-0.4c-0.1-0.1-0.2-0.2-0.3-0.2
			c-0.1,0-0.2-0.1-0.3-0.1c-0.1,0-0.2,0-0.3,0.1c-0.1,0-0.2,0.1-0.3,0.2c-0.1,0.1-0.1,0.2-0.2,0.4c-0.1,0.2-0.1,0.3-0.1,0.6
			c0,0.2,0,0.4,0.1,0.6c0.1,0.2,0.1,0.3,0.2,0.4c0.1,0.1,0.2,0.2,0.3,0.2s0.2,0.1,0.3,0.1s0.2,0,0.3-0.1
			C134.3,105.7,134.4,105.6,134.5,105.5z"/>
		<polygon class="st71" points="139.7,106.4 138.8,106.4 137.3,103.9 137.3,106.4 136.4,106.4 136.4,102.8 137.6,102.8 138.9,104.8 
			138.9,102.8 139.7,102.8 		"/>
	</g>
	<g>
		<path class="st71" d="M178,89.2c0,0.6-0.2,1-0.5,1.4c-0.3,0.3-0.8,0.5-1.4,0.5c-0.6,0-1-0.2-1.4-0.5c-0.3-0.3-0.5-0.8-0.5-1.4
			c0-0.6,0.2-1,0.5-1.4c0.3-0.3,0.8-0.5,1.4-0.5c0.6,0,1,0.2,1.4,0.5C177.9,88.1,178,88.6,178,89.2z M176.8,90.1
			c0.1-0.1,0.2-0.2,0.2-0.4c0-0.2,0.1-0.3,0.1-0.5c0-0.2,0-0.4-0.1-0.6c-0.1-0.2-0.1-0.3-0.2-0.4c-0.1-0.1-0.2-0.2-0.3-0.2
			c-0.1,0-0.2-0.1-0.3-0.1c-0.1,0-0.2,0-0.3,0.1c-0.1,0-0.2,0.1-0.3,0.2c-0.1,0.1-0.1,0.2-0.2,0.4c-0.1,0.2-0.1,0.3-0.1,0.6
			c0,0.2,0,0.4,0.1,0.6c0.1,0.2,0.1,0.3,0.2,0.4c0.1,0.1,0.2,0.2,0.3,0.2c0.1,0,0.2,0.1,0.3,0.1c0.1,0,0.2,0,0.3-0.1
			C176.6,90.3,176.7,90.2,176.8,90.1z"/>
		<polygon class="st71" points="181.4,88.1 179.7,88.1 179.7,88.7 181.2,88.7 181.2,89.4 179.7,89.4 179.7,91 178.8,91 178.8,87.4 
			181.4,87.4 		"/>
		<polygon class="st71" points="184.6,88.1 182.9,88.1 182.9,88.7 184.5,88.7 184.5,89.4 182.9,89.4 182.9,91 182,91 182,87.4 
			184.6,87.4 		"/>
	</g>
	<g>
		<path class="st71" d="M178,104.6c0,0.6-0.2,1-0.5,1.4c-0.3,0.3-0.8,0.5-1.4,0.5c-0.6,0-1-0.2-1.4-0.5c-0.3-0.3-0.5-0.8-0.5-1.4
			c0-0.6,0.2-1,0.5-1.4c0.3-0.3,0.8-0.5,1.4-0.5c0.6,0,1,0.2,1.4,0.5C177.9,103.5,178,104,178,104.6z M176.8,105.5
			c0.1-0.1,0.2-0.2,0.2-0.4c0-0.2,0.1-0.3,0.1-0.5c0-0.2,0-0.4-0.1-0.6c-0.1-0.2-0.1-0.3-0.2-0.4c-0.1-0.1-0.2-0.2-0.3-0.2
			c-0.1,0-0.2-0.1-0.3-0.1c-0.1,0-0.2,0-0.3,0.1c-0.1,0-0.2,0.1-0.3,0.2c-0.1,0.1-0.1,0.2-0.2,0.4c-0.1,0.2-0.1,0.3-0.1,0.6
			c0,0.2,0,0.4,0.1,0.6c0.1,0.2,0.1,0.3,0.2,0.4c0.1,0.1,0.2,0.2,0.3,0.2c0.1,0,0.2,0.1,0.3,0.1c0.1,0,0.2,0,0.3-0.1
			C176.6,105.7,176.7,105.6,176.8,105.5z"/>
		<polygon class="st71" points="182.1,106.4 181.2,106.4 179.6,103.9 179.6,106.4 178.8,106.4 178.8,102.8 179.9,102.8 181.2,104.8 
			181.2,102.8 182.1,102.8 		"/>
	</g>
	<g>
		<g>
			<path class="st70" d="M75.8,138.8c0.2,0,0.3,0.1,0.4,0.2c0.1,0.1,0.2,0.3,0.2,0.4c0,0.2-0.1,0.3-0.2,0.4
				c-0.1,0.1-0.3,0.2-0.4,0.2c-0.2,0-0.3-0.1-0.4-0.2c-0.1-0.1-0.2-0.3-0.2-0.4c0-0.2,0.1-0.3,0.2-0.4
				C75.5,138.9,75.6,138.8,75.8,138.8z M75.2,146.6v-4.8h-0.8V141h1.8v5.6H75.2z"/>
			<path class="st70" d="M81.3,146.6v-3.3c0-0.6-0.1-1-0.3-1.3c-0.2-0.2-0.5-0.4-0.9-0.4c-0.2,0-0.5,0.1-0.7,0.2
				c-0.2,0.1-0.4,0.3-0.6,0.5v4.2h-1V141h0.7l0.3,0.7c0.3-0.6,0.9-0.8,1.6-0.8c1.2,0,1.9,0.8,1.9,2.3v3.5H81.3z"/>
			<path class="st70" d="M83.5,148.1l0.5-0.8c0.6,0.4,1.1,0.6,1.6,0.6c0.5,0,0.8-0.1,1.1-0.2c0.3-0.2,0.4-0.3,0.4-0.6
				c0-0.5-0.3-0.7-1-0.7c-0.1,0-0.3,0-0.6,0.1c-0.3,0.1-0.5,0.1-0.7,0.1c-0.8,0-1.2-0.3-1.2-0.9c0-0.2,0.1-0.4,0.3-0.5
				c0.2-0.2,0.4-0.3,0.7-0.3c-0.8-0.4-1.2-1-1.2-1.9c0-0.6,0.2-1.1,0.6-1.5c0.4-0.4,0.9-0.6,1.5-0.6c0.6,0,1,0.1,1.3,0.3l0.5-0.6
				l0.7,0.6l-0.6,0.5c0.3,0.3,0.4,0.8,0.4,1.3c0,0.6-0.2,1-0.5,1.4c-0.4,0.4-0.8,0.6-1.4,0.7l-0.8,0.1c-0.1,0-0.2,0-0.4,0.1
				c-0.2,0.1-0.2,0.1-0.2,0.3c0,0.1,0.2,0.2,0.5,0.2c0.2,0,0.4,0,0.7-0.1c0.3-0.1,0.6-0.1,0.7-0.1c0.6,0,1,0.1,1.3,0.4
				c0.3,0.3,0.5,0.6,0.5,1.1c0,0.5-0.2,0.9-0.7,1.3c-0.5,0.3-1.1,0.5-1.8,0.5c-0.4,0-0.7-0.1-1.2-0.2
				C84.1,148.5,83.8,148.3,83.5,148.1z M85.6,141.7c-0.3,0-0.6,0.1-0.9,0.4c-0.2,0.2-0.3,0.5-0.3,0.9c0,0.4,0.1,0.7,0.3,1
				c0.2,0.3,0.5,0.4,0.9,0.4c0.4,0,0.6-0.1,0.8-0.4c0.2-0.3,0.3-0.6,0.3-1c0-0.4-0.1-0.6-0.3-0.9C86.2,141.8,86,141.7,85.6,141.7z"
				/>
			<path class="st70" d="M93.9,143.9h-4.1c0,0.7,0.2,1.2,0.5,1.5c0.3,0.3,0.7,0.5,1.2,0.5c0.6,0,1-0.2,1.4-0.5l0.4,0.7
				c-0.2,0.2-0.4,0.3-0.7,0.4c-0.4,0.1-0.8,0.2-1.3,0.2c-0.7,0-1.3-0.2-1.8-0.7c-0.6-0.5-0.8-1.2-0.8-2.1c0-0.9,0.3-1.7,0.8-2.2
				c0.5-0.5,1.1-0.8,1.8-0.8c0.8,0,1.4,0.2,1.9,0.7c0.4,0.4,0.7,1,0.7,1.7C94,143.5,93.9,143.7,93.9,143.9z M91.5,141.7
				c-0.4,0-0.8,0.1-1.1,0.4c-0.3,0.3-0.5,0.6-0.5,1H93c0-0.4-0.1-0.7-0.4-1C92.3,141.8,91.9,141.7,91.5,141.7z"/>
			<path class="st70" d="M98.5,146.6v-3.3c0-0.6-0.1-1-0.3-1.3c-0.2-0.2-0.5-0.4-0.9-0.4c-0.2,0-0.5,0.1-0.7,0.2
				c-0.2,0.1-0.4,0.3-0.6,0.5v4.2h-1V141h0.7l0.3,0.7c0.3-0.6,0.9-0.8,1.6-0.8c1.2,0,1.9,0.8,1.9,2.3v3.5H98.5z"/>
			<path class="st70" d="M102,138.8c0.2,0,0.3,0.1,0.4,0.2c0.1,0.1,0.2,0.3,0.2,0.4c0,0.2-0.1,0.3-0.2,0.4c-0.1,0.1-0.3,0.2-0.4,0.2
				c-0.2,0-0.3-0.1-0.4-0.2c-0.1-0.1-0.2-0.3-0.2-0.4c0-0.2,0.1-0.3,0.2-0.4C101.6,138.9,101.8,138.8,102,138.8z M101.4,146.6v-4.8
				h-0.8V141h1.8v5.6H101.4z"/>
			<path class="st70" d="M104.9,141v3.6c0,0.9,0.4,1.3,1.1,1.3c0.3,0,0.6-0.1,0.9-0.3s0.5-0.4,0.5-0.7v-4h1v5.6h-1v-0.8
				c-0.1,0.2-0.3,0.4-0.7,0.6c-0.3,0.2-0.7,0.3-1,0.3c-0.6,0-1.1-0.2-1.4-0.5c-0.3-0.4-0.5-0.9-0.5-1.5V141H104.9z"/>
			<path class="st70" d="M116.4,146.6V143c0-0.9-0.4-1.3-1.2-1.3c-0.2,0-0.5,0.1-0.7,0.2c-0.2,0.1-0.4,0.3-0.4,0.5v4.2h-1v-4
				c0-0.3-0.1-0.5-0.3-0.7c-0.2-0.2-0.5-0.2-0.8-0.2c-0.2,0-0.4,0.1-0.6,0.2c-0.2,0.2-0.4,0.3-0.5,0.5v4.2h-1V141h0.7l0.3,0.7
				c0.4-0.5,0.9-0.8,1.4-0.8c0.8,0,1.4,0.3,1.7,0.8c0.1-0.2,0.3-0.4,0.6-0.5c0.3-0.1,0.6-0.2,0.9-0.2c0.6,0,1,0.2,1.4,0.5
				c0.3,0.3,0.5,0.8,0.5,1.5v3.8H116.4z"/>
		</g>
		<g>
			<polygon class="st70" points="91.5,151.4 91.4,151.4 90.8,150 90.2,151.4 90.1,151.4 89.4,149.3 89.8,149.3 90.2,150.6 
				90.7,149.3 90.8,149.3 91.4,150.6 91.9,149.3 92.2,149.3 			"/>
			<polygon class="st70" points="94.4,151.4 94.3,151.4 93.7,150 93.1,151.4 93,151.4 92.3,149.3 92.7,149.3 93.1,150.6 93.6,149.3 
				93.7,149.3 94.3,150.6 94.7,149.3 95.1,149.3 			"/>
			<polygon class="st70" points="97.3,151.4 97.2,151.4 96.6,150 96,151.4 95.9,151.4 95.2,149.3 95.5,149.3 96,150.6 96.5,149.3 
				96.6,149.3 97.2,150.6 97.6,149.3 98,149.3 			"/>
			<path class="st70" d="M98.7,150.8c0.1,0,0.1,0,0.2,0.1c0.1,0.1,0.1,0.1,0.1,0.2s0,0.1-0.1,0.2c-0.1,0.1-0.1,0.1-0.2,0.1
				c-0.1,0-0.1,0-0.2-0.1c-0.1-0.1-0.1-0.1-0.1-0.2s0-0.1,0.1-0.2C98.5,150.8,98.6,150.8,98.7,150.8z"/>
			<path class="st70" d="M100.1,148.5c0.1,0,0.1,0,0.2,0.1c0,0,0.1,0.1,0.1,0.2c0,0.1,0,0.1-0.1,0.2c0,0-0.1,0.1-0.2,0.1
				c-0.1,0-0.1,0-0.2-0.1c0,0-0.1-0.1-0.1-0.2c0-0.1,0-0.1,0.1-0.2C99.9,148.6,100,148.5,100.1,148.5z M99.9,151.3v-1.7h-0.3v-0.3
				h0.6v2H99.9z"/>
			<path class="st70" d="M102,151.3v-1.2c0-0.2,0-0.4-0.1-0.5c-0.1-0.1-0.2-0.1-0.3-0.1c-0.1,0-0.2,0-0.3,0.1
				c-0.1,0-0.2,0.1-0.2,0.2v1.5h-0.4v-2h0.2l0.1,0.3c0.1-0.2,0.3-0.3,0.6-0.3c0.4,0,0.7,0.3,0.7,0.8v1.3H102z"/>
			<path class="st70" d="M102.8,151.9l0.2-0.3c0.2,0.1,0.4,0.2,0.6,0.2c0.2,0,0.3,0,0.4-0.1c0.1-0.1,0.1-0.1,0.1-0.2
				c0-0.2-0.1-0.2-0.4-0.2c0,0-0.1,0-0.2,0c-0.1,0-0.2,0-0.2,0c-0.3,0-0.4-0.1-0.4-0.3c0-0.1,0-0.1,0.1-0.2c0.1-0.1,0.2-0.1,0.3-0.1
				c-0.3-0.1-0.4-0.4-0.4-0.7c0-0.2,0.1-0.4,0.2-0.5c0.1-0.1,0.3-0.2,0.5-0.2c0.2,0,0.4,0,0.5,0.1l0.2-0.2l0.2,0.2l-0.2,0.2
				c0.1,0.1,0.1,0.3,0.1,0.5c0,0.2-0.1,0.4-0.2,0.5c-0.1,0.1-0.3,0.2-0.5,0.2l-0.3,0c0,0-0.1,0-0.1,0c-0.1,0-0.1,0.1-0.1,0.1
				c0,0.1,0.1,0.1,0.2,0.1c0.1,0,0.1,0,0.3,0c0.1,0,0.2,0,0.3,0c0.2,0,0.4,0,0.5,0.1c0.1,0.1,0.2,0.2,0.2,0.4c0,0.2-0.1,0.3-0.3,0.5
				c-0.2,0.1-0.4,0.2-0.6,0.2c-0.1,0-0.3,0-0.4-0.1C103,152,102.9,152,102.8,151.9z M103.6,149.6c-0.1,0-0.2,0-0.3,0.1
				c-0.1,0.1-0.1,0.2-0.1,0.3c0,0.1,0,0.3,0.1,0.4c0.1,0.1,0.2,0.1,0.3,0.1c0.1,0,0.2,0,0.3-0.1c0.1-0.1,0.1-0.2,0.1-0.4
				c0-0.1,0-0.2-0.1-0.3C103.8,149.6,103.7,149.6,103.6,149.6z"/>
			<path class="st70" d="M106.6,150.4h-1.5c0,0.2,0.1,0.4,0.2,0.5c0.1,0.1,0.3,0.2,0.4,0.2c0.2,0,0.4-0.1,0.5-0.2l0.2,0.3
				c-0.1,0.1-0.1,0.1-0.3,0.1c-0.1,0.1-0.3,0.1-0.5,0.1c-0.3,0-0.5-0.1-0.6-0.3c-0.2-0.2-0.3-0.4-0.3-0.8c0-0.3,0.1-0.6,0.3-0.8
				c0.2-0.2,0.4-0.3,0.6-0.3c0.3,0,0.5,0.1,0.7,0.2c0.2,0.2,0.2,0.4,0.2,0.6C106.6,150.2,106.6,150.3,106.6,150.4z M105.7,149.6
				c-0.2,0-0.3,0.1-0.4,0.2c-0.1,0.1-0.2,0.2-0.2,0.4h1.1c0-0.1,0-0.3-0.1-0.4C106,149.6,105.9,149.6,105.7,149.6z"/>
			<path class="st70" d="M108.2,151.3v-1.2c0-0.2,0-0.4-0.1-0.5c-0.1-0.1-0.2-0.1-0.3-0.1c-0.1,0-0.2,0-0.3,0.1
				c-0.1,0-0.2,0.1-0.2,0.2v1.5H107v-2h0.2l0.1,0.3c0.1-0.2,0.3-0.3,0.6-0.3c0.4,0,0.7,0.3,0.7,0.8v1.3H108.2z"/>
			<path class="st70" d="M109.4,148.5c0.1,0,0.1,0,0.2,0.1c0,0,0.1,0.1,0.1,0.2c0,0.1,0,0.1-0.1,0.2c0,0-0.1,0.1-0.2,0.1
				c-0.1,0-0.1,0-0.2-0.1c0,0-0.1-0.1-0.1-0.2c0-0.1,0-0.1,0.1-0.2C109.3,148.6,109.4,148.5,109.4,148.5z M109.3,151.3v-1.7H109
				v-0.3h0.6v2H109.3z"/>
			<path class="st70" d="M110.5,149.3v1.3c0,0.3,0.1,0.5,0.4,0.5c0.1,0,0.2,0,0.3-0.1s0.2-0.1,0.2-0.2v-1.4h0.4v2h-0.4v-0.3
				c0,0.1-0.1,0.2-0.2,0.2c-0.1,0.1-0.2,0.1-0.4,0.1c-0.2,0-0.4-0.1-0.5-0.2c-0.1-0.1-0.2-0.3-0.2-0.5v-1.3H110.5z"/>
			<path class="st70" d="M114.6,151.3V150c0-0.3-0.1-0.5-0.4-0.5c-0.1,0-0.2,0-0.2,0.1s-0.1,0.1-0.2,0.2v1.5h-0.4v-1.4
				c0-0.1,0-0.2-0.1-0.2c-0.1-0.1-0.2-0.1-0.3-0.1c-0.1,0-0.1,0-0.2,0.1c-0.1,0.1-0.1,0.1-0.2,0.2v1.5h-0.4v-2h0.2l0.1,0.2
				c0.1-0.2,0.3-0.3,0.5-0.3c0.3,0,0.5,0.1,0.6,0.3c0-0.1,0.1-0.1,0.2-0.2s0.2-0.1,0.3-0.1c0.2,0,0.4,0.1,0.5,0.2
				c0.1,0.1,0.2,0.3,0.2,0.5v1.4H114.6z"/>
			<path class="st70" d="M115.4,151.2l0.1-0.3c0.2,0.1,0.4,0.2,0.5,0.2c0.2,0,0.3-0.1,0.3-0.3c0-0.1-0.1-0.2-0.3-0.3
				c-0.2-0.1-0.3-0.1-0.3-0.2c-0.1,0-0.1-0.1-0.1-0.1c0-0.1-0.1-0.1-0.1-0.2c0-0.1,0-0.1,0-0.2c0-0.2,0.1-0.3,0.2-0.4
				c0.1-0.1,0.3-0.1,0.5-0.1c0.1,0,0.3,0,0.6,0.1l-0.1,0.3c-0.1-0.1-0.3-0.2-0.4-0.2c-0.1,0-0.2,0-0.2,0.1c-0.1,0-0.1,0.1-0.1,0.2
				c0,0.1,0.1,0.2,0.2,0.3l0.3,0.1c0.2,0.1,0.3,0.2,0.3,0.2c0.1,0.1,0.1,0.2,0.1,0.3c0,0.2-0.1,0.3-0.2,0.4
				c-0.1,0.1-0.3,0.2-0.5,0.2C115.8,151.4,115.6,151.3,115.4,151.2z"/>
			<path class="st70" d="M117.1,150.8v-2.3h0.4v2.2c0,0.1,0,0.2,0.1,0.3c0.1,0.1,0.1,0.1,0.2,0.1v0.3
				C117.3,151.4,117.1,151.2,117.1,150.8z"/>
			<path class="st70" d="M118.6,150.8c0.1,0,0.1,0,0.2,0.1s0.1,0.1,0.1,0.2s0,0.1-0.1,0.2c-0.1,0.1-0.1,0.1-0.2,0.1
				c-0.1,0-0.1,0-0.2-0.1c-0.1-0.1-0.1-0.1-0.1-0.2s0-0.1,0.1-0.2S118.6,150.8,118.6,150.8z"/>
			<path class="st70" d="M121.2,149.5l-0.2,0.3c0,0-0.1-0.1-0.2-0.1c-0.1,0-0.2,0-0.3,0c-0.2,0-0.4,0.1-0.5,0.2s-0.2,0.3-0.2,0.6
				c0,0.2,0.1,0.4,0.2,0.5c0.1,0.1,0.3,0.2,0.5,0.2c0.2,0,0.3-0.1,0.5-0.2l0.1,0.3c-0.2,0.1-0.4,0.2-0.7,0.2c-0.3,0-0.5-0.1-0.7-0.3
				c-0.2-0.2-0.3-0.4-0.3-0.8c0-0.3,0.1-0.6,0.3-0.8c0.2-0.2,0.4-0.3,0.8-0.3c0.1,0,0.2,0,0.3,0.1S121.1,149.4,121.2,149.5z"/>
			<path class="st70" d="M121.4,150.3c0-0.3,0.1-0.6,0.3-0.8c0.2-0.2,0.4-0.3,0.7-0.3c0.3,0,0.5,0.1,0.7,0.3
				c0.2,0.2,0.2,0.4,0.2,0.8c0,0.3-0.1,0.6-0.2,0.8c-0.2,0.2-0.4,0.3-0.7,0.3c-0.3,0-0.5-0.1-0.7-0.3S121.4,150.6,121.4,150.3z
				 M121.8,150.3c0,0.5,0.2,0.8,0.5,0.8c0.2,0,0.3-0.1,0.4-0.2c0.1-0.1,0.1-0.3,0.1-0.6c0-0.5-0.2-0.8-0.5-0.8
				c-0.2,0-0.3,0.1-0.4,0.2C121.9,149.9,121.8,150.1,121.8,150.3z"/>
			<path class="st70" d="M126,151.3V150c0-0.3-0.1-0.5-0.4-0.5c-0.1,0-0.2,0-0.2,0.1s-0.1,0.1-0.2,0.2v1.5h-0.4v-1.4
				c0-0.1,0-0.2-0.1-0.2c-0.1-0.1-0.2-0.1-0.3-0.1c-0.1,0-0.1,0-0.2,0.1c-0.1,0.1-0.1,0.1-0.2,0.2v1.5h-0.4v-2h0.2l0.1,0.2
				c0.1-0.2,0.3-0.3,0.5-0.3c0.3,0,0.5,0.1,0.6,0.3c0-0.1,0.1-0.1,0.2-0.2s0.2-0.1,0.3-0.1c0.2,0,0.4,0.1,0.5,0.2
				c0.1,0.1,0.2,0.3,0.2,0.5v1.4H126z"/>
		</g>
		<path class="st74" d="M93.9,120.7l5.4,5.4h4.8l6.8-6.8l4.3,4.3L101.7,137l-13.4-13.4l2.9-2.9c-0.1-0.2-0.2-0.5-0.2-0.7
			c0-0.9,0.7-1.6,1.6-1.6c0.9,0,1.6,0.7,1.6,1.6C94.1,120.2,94,120.4,93.9,120.7z M91.8,121.3l-2.3,2.3l12.2,12.2l12.2-12.2l-3-3
			l-6.4,6.4h-5.5l-5.6-5.6c-0.2,0.1-0.5,0.2-0.8,0.2C92.2,121.5,92,121.4,91.8,121.3z M99.3,113.7c0.1,0.2,0.2,0.5,0.2,0.8
			c0,0.3-0.1,0.6-0.3,0.9l2.3,2.3l3.1-3.1l-3.1-3.1L99.3,113.7z M96.4,114.5c0-0.9,0.7-1.6,1.6-1.6c0.2,0,0.5,0.1,0.7,0.2l2.9-2.9
			l4.4,4.4l-4.4,4.4l-3-3c-0.2,0.1-0.4,0.1-0.6,0.1C97.1,116,96.4,115.3,96.4,114.5z M93.7,117.2c0-0.9,0.7-1.6,1.6-1.6
			c0.9,0,1.6,0.7,1.6,1.6c0,0.3-0.1,0.6-0.2,0.8l4.1,4.1h2.1l5.1-5.1l0.6,0.6l-5.4,5.4h-2.9l-4.4-4.4c-0.2,0.1-0.4,0.1-0.6,0.1
			C94.4,118.8,93.7,118.1,93.7,117.2z"/>
	</g>
	<g>
		<rect x="161.9" y="113.1" class="st70" width="28.3" height="28.3"/>
		<path class="st71" d="M173.7,114h0.9v0.9h-0.9V114z M177.4,114h3.7v0.9h-1.8v0.9h-0.9v0.9h0.9v0.9h-0.9v0.9h-0.9v-0.9h-0.9v0.9
			h0.9v0.9h-0.9v0.9h-0.9v-2.7h-0.9v0.9h-1.8v-0.9h-0.9v1.8H171v0.9h-0.9v-1.8h0.9v-0.9h-0.9v-0.9h2.7v-0.9h0.9v0.9h1.8v-0.9h0.9
			v-0.9h0.9V114z M170.1,114.9h0.9v0.9h-0.9V114.9z M171.9,114.9h0.9v0.9h-0.9V114.9z M174.7,114.9h0.9v0.9h-0.9V114.9z
			 M181.1,114.9h0.9v1.8h-0.9V114.9z M180.1,116.7h0.9v0.9h0.9v3.7h-0.9v0.9h0.9v-0.9h0.9v0.9h0.9v-0.9h0.9v0.9h0.9v1.8h0.9v0.9h0.9
			v0.9h-1.8V125H182V124h0.9v-0.9H182v0.9h-0.9v-0.9h-1.8v-0.9h0.9v-1.8h0.9v-1.8h-0.9V116.7z M178.3,118.6h0.9v0.9h-0.9V118.6z
			 M171.9,119.5h0.9v1.8h-0.9v0.9H171v2.7h1.8v0.9H171v0.9h-0.9V125h-0.9V124h-1.8v-0.9h2.7v-0.9h-1.8v-0.9h2.7v-0.9h0.9V119.5z
			 M173.7,119.5h0.9v1.8h1.8v-0.9h0.9v-0.9h0.9v1.8h-0.9v0.9h-1.8v0.9h1.8v-0.9h0.9v2.7h-0.9V124h-0.9v2.7h-0.9v-0.9h-0.9V125h0.9
			V124h-0.9v0.9h-0.9v-1.8h0.9v-0.9h-0.9V119.5z M179.2,119.5h0.9v0.9h-0.9V119.5z M162.8,121.3h4.6v1.8h-0.9v-0.9h-3.7V121.3z
			 M178.3,121.3h0.9v0.9h-0.9V121.3z M185.6,121.3h0.9v0.9h-0.9V121.3z M187.5,121.3h0.9v0.9h-0.9V121.3z M171.9,122.2h1.8v0.9h-0.9
			v0.9h-0.9V122.2z M188.4,122.2h0.9v0.9h-0.9V122.2z M163.7,123.1h0.9v0.9h-0.9V123.1z M162.8,124h0.9v1.8h0.9V125h0.9v0.9h0.9v0.9
			h-0.9v0.9h0.9v-0.9h0.9v0.9h0.9v0.9h-0.9v0.9h-0.9v-0.9h-1.8v0.9h-0.9v3.7h-0.9v-4.6h0.9v-1.8h-0.9V124z M165.5,124h0.9v0.9h-0.9
			V124z M180.1,124h0.9v0.9h-0.9V124z M187.5,124h0.9v0.9h-0.9V124z M167.3,125h1.8v0.9h-1.8V125z M178.3,125h0.9v0.9h-0.9V125z
			 M172.8,125.9h1.8v0.9h-1.8V125.9z M177.4,125.9h0.9v0.9h-0.9V125.9z M179.2,125.9h6.4v0.9h-0.9v0.9h0.9v0.9h-1.8v-0.9H182v-0.9
			h-1.8v0.9h1.8v0.9h-0.9v1.8h-0.9v-1.8h-0.9v-0.9h-0.9v-0.9h0.9V125.9z M188.4,125.9h0.9v0.9h-0.9V125.9z M168.3,126.8h0.9v0.9
			h-0.9V126.8z M171,126.8h1.8v0.9H171V126.8z M174.7,126.8h0.9v0.9h-0.9V126.8z M176.5,126.8h0.9v0.9h-0.9V126.8z M185.6,126.8h1.8
			v0.9h-1.8V126.8z M172.8,127.7h1.8v0.9h-1.8V127.7z M175.6,127.7h0.9v0.9h-0.9V127.7z M187.5,127.7h0.9v0.9h-0.9V127.7z
			 M168.3,128.6h3.7v0.9H171v0.9h0.9v1.8h-1.8v-2.7h-1.8V128.6z M174.7,128.6h0.9v1.8h1.8v1.8h1.8v0.9h0.9v0.9h0.9v1.8h-0.9V135
			h-0.9v-0.9h-0.9v1.8h-0.9V135h-1.8v-1.8h0.9v0.9h0.9v-0.9h-0.9v-0.9h-0.9v-0.9h-0.9v-0.9h-2.7v-0.9h2.7V128.6z M176.5,128.6h2.7
			v0.9h-0.9v0.9h-0.9v-0.9h-0.9V128.6z M185.6,128.6h1.8v2.7h-0.9v-1.8h-0.9V128.6z M164.6,129.5h1.8v0.9h-1.8V129.5z M182.9,129.5
			h2.7v0.9h-2.7V129.5z M188.4,129.5h0.9v0.9h-0.9V129.5z M166.4,130.4h2.7v0.9h-2.7V130.4z M178.3,130.4h1.8v0.9h-1.8V130.4z
			 M165.5,131.4h0.9v0.9h0.9v0.9h-1.8V131.4z M181.1,131.4h0.9v0.9h-0.9V131.4z M183.8,131.4h0.9v0.9h-0.9V131.4z M187.5,131.4h0.9
			v0.9h0.9v1.8h-1.8v0.9h-1.8v-1.8h0.9v-0.9h0.9V131.4z M168.3,132.3h1.8v0.9h-1.8V132.3z M172.8,132.3h2.7v0.9h-0.9v0.9h-2.7v1.8
			H171V135h-0.9v-1.8h2.7V132.3z M180.1,132.3h0.9v0.9h-0.9V132.3z M172.8,135h1.8v0.9h-1.8V135z M187.5,135h1.8v0.9h-0.9v0.9h-0.9
			v0.9h0.9v1.8h-0.9v-0.9h-0.9v0.9h-3.7v-0.9H182v-0.9h3.7v-0.9h0.9v-0.9h0.9V135z M170.1,135.9h0.9v0.9h2.7v0.9h-0.9v0.9H171v1.8
			h-0.9V135.9z M174.7,135.9h1.8v0.9h-1.8V135.9z M178.3,135.9h0.9v0.9h-0.9V135.9z M180.1,136.8h1.8v0.9h-1.8V136.8z M188.4,136.8
			h0.9v0.9h-0.9V136.8z M173.7,137.8h0.9v0.9h-0.9V137.8z M175.6,137.8h2.7v1.8h-0.9v0.9h-0.9v-0.9h-0.9V137.8z M179.2,138.7h2.7
			v0.9h-0.9v0.9h-0.9v-0.9h-0.9V138.7z M171.9,139.6h0.9v0.9h-0.9V139.6z M174.7,139.6h0.9v0.9h-0.9V139.6z M178.3,139.6h0.9v0.9
			h-0.9V139.6z M186.5,139.6h0.9v0.9h-0.9V139.6z"/>
		<path class="st71" d="M162.8,114h6.4l0,0l0,0v6.4l0,0l0,0h-6.4l0,0l0,0V114L162.8,114L162.8,114z M163.7,114.9h4.6l0,0l0,0v4.6
			l0,0l0,0h-4.6l0,0l0,0V114.9L163.7,114.9L163.7,114.9z M164.6,115.8h2.7l0,0l0,0v2.7l0,0l0,0h-2.7l0,0l0,0V115.8L164.6,115.8
			L164.6,115.8z M182.9,114h6.4l0,0l0,0v6.4l0,0l0,0h-6.4l0,0l0,0V114L182.9,114L182.9,114z M183.8,114.9h4.6l0,0l0,0v4.6l0,0l0,0
			h-4.6l0,0l0,0V114.9L183.8,114.9L183.8,114.9z M184.7,115.8h2.7l0,0l0,0v2.7l0,0l0,0h-2.7l0,0l0,0V115.8L184.7,115.8L184.7,115.8z
			 M162.8,134.1h6.4l0,0l0,0v6.4l0,0l0,0h-6.4l0,0l0,0V134.1L162.8,134.1L162.8,134.1z M163.7,135h4.6l0,0l0,0v4.6l0,0l0,0h-4.6l0,0
			l0,0V135L163.7,135L163.7,135z M164.6,135.9h2.7l0,0l0,0v2.7l0,0l0,0h-2.7l0,0l0,0V135.9L164.6,135.9L164.6,135.9z M181.1,132.3
			h4.6l0,0l0,0v4.6l0,0l0,0h-4.6l0,0l0,0V132.3L181.1,132.3L181.1,132.3z M182,133.2h2.7l0,0l0,0v2.7l0,0l0,0H182l0,0l0,0V133.2
			L182,133.2L182,133.2z M182.9,134.1h0.9l0,0l0,0v0.9l0,0l0,0h-0.9l0,0l0,0V134.1L182.9,134.1L182.9,134.1z"/>
		<g>
			<path class="st70" d="M159.9,140.8h-2.5v0.6h2.5V140.8z M157.1,140.8h-0.6v0.6h0.6V140.8z"/>
			<path class="st70" d="M159.9,140.1v-0.6h-1.2c-0.8,0-0.9-0.4-0.9-0.5c0-0.1,0-0.4,0.6-0.4h1.4v-0.6h-1.5c-0.3,0-1.1,0-1.1,0.8
				c0,0.5,0.4,0.7,0.6,0.7h-0.6v0.5H159.9z"/>
			<path class="st70" d="M159.9,136.8h-2v-0.5h-0.4v0.5c-0.4,0-0.5,0-0.5-0.4c0,0,0-0.1,0-0.1h-0.4c0,0.4,0,0.7,0.1,0.8
				c0.2,0.3,0.5,0.3,0.8,0.3v0.4h0.4v-0.4h2V136.8z"/>
			<path class="st70" d="M158.6,133.7c-0.7,0-1.3,0.4-1.3,1.1c0,0.8,0.6,1.2,1.3,1.2c0.6,0,1.3-0.3,1.3-1.1
				C159.9,134.2,159.5,133.7,158.6,133.7z M158.6,134.3c0.3,0,0.8,0,0.8,0.6c0,0.6-0.7,0.6-0.8,0.6c-0.4,0-0.8-0.1-0.8-0.6
				C157.8,134.4,158.2,134.3,158.6,134.3z"/>
		</g>
	</g>
	<g>
		<rect x="139.9" y="113.6" class="st75" width="13.5" height="13.5"/>
		<rect x="142.7" y="116.3" class="st75" width="8" height="8"/>
	</g>
</g>
<g>
	<defs>
		<rect id="SVGID_109_" x="27.2" y="84.6" width="17" height="22.7"/>
	</defs>
	<defs>
		<rect id="SVGID_110_" x="27.2" y="84.6" width="17" height="22.7"/>
	</defs>
	<defs>
		<rect id="SVGID_111_" x="27.2" y="84.6" width="17" height="22.7"/>
	</defs>
	<use xlink:href="#SVGID_109_"  style="overflow:visible;fill-rule:evenodd;clip-rule:evenodd;fill:#535154;"/>
	<clipPath id="SVGID_112_">
		<use xlink:href="#SVGID_109_"  style="overflow:visible;"/>
	</clipPath>
	<clipPath id="SVGID_113_" class="st76">
		<use xlink:href="#SVGID_110_"  style="overflow:visible;"/>
	</clipPath>
	<clipPath id="SVGID_114_" class="st77">
		<use xlink:href="#SVGID_111_"  style="overflow:visible;"/>
	</clipPath>
	<g class="st78">
		<path class="st79" d="M26.6,90c0-1.6,1.3-2.8,2.8-2.8H42c1.6,0,2.8,1.3,2.8,2.8v11.9c0,1.6-1.3,2.8-2.8,2.8H29.4
			c-1.6,0-2.8-1.3-2.8-2.8V90z"/>
		<rect x="33.8" y="100.2" class="st21" width="3.8" height="2.2"/>
		<rect x="28" y="96.8" class="st80" width="15.5" height="3.6"/>
	</g>
	
		<use xlink:href="#SVGID_111_"  style="overflow:visible;fill-rule:evenodd;clip-rule:evenodd;fill:none;stroke:#1A171B;stroke-width:0.5;stroke-miterlimit:3.8637;"/>
</g>
<g>
	<defs>
		<rect id="SVGID_115_" x="69.3" y="84.6" width="17" height="22.7"/>
	</defs>
	<defs>
		<rect id="SVGID_116_" x="69.3" y="84.6" width="17" height="22.7"/>
	</defs>
	<defs>
		<rect id="SVGID_117_" x="69.3" y="84.6" width="17" height="22.7"/>
	</defs>
	<use xlink:href="#SVGID_115_"  style="overflow:visible;fill-rule:evenodd;clip-rule:evenodd;fill:#535154;"/>
	<clipPath id="SVGID_118_">
		<use xlink:href="#SVGID_115_"  style="overflow:visible;"/>
	</clipPath>
	<clipPath id="SVGID_119_" class="st81">
		<use xlink:href="#SVGID_116_"  style="overflow:visible;"/>
	</clipPath>
	<clipPath id="SVGID_120_" class="st82">
		<use xlink:href="#SVGID_117_"  style="overflow:visible;"/>
	</clipPath>
	<g class="st83">
		<path class="st79" d="M68.6,90c0-1.6,1.3-2.8,2.8-2.8h12.6c1.6,0,2.8,1.3,2.8,2.8v11.9c0,1.6-1.3,2.8-2.8,2.8H71.5
			c-1.6,0-2.8-1.3-2.8-2.8V90z"/>
		<rect x="75.9" y="100.2" class="st21" width="3.8" height="2.2"/>
		<rect x="70" y="96.8" class="st80" width="15.5" height="3.6"/>
	</g>
	
		<use xlink:href="#SVGID_117_"  style="overflow:visible;fill-rule:evenodd;clip-rule:evenodd;fill:none;stroke:#1A171B;stroke-width:0.5;stroke-miterlimit:3.8637;"/>
</g>
<g>
	<defs>
		<rect id="SVGID_121_" x="112.6" y="84.6" width="17" height="22.7"/>
	</defs>
	<defs>
		<rect id="SVGID_122_" x="112.6" y="84.6" width="17" height="22.7"/>
	</defs>
	<defs>
		<rect id="SVGID_123_" x="112.6" y="84.6" width="17" height="22.7"/>
	</defs>
	<use xlink:href="#SVGID_121_"  style="overflow:visible;fill-rule:evenodd;clip-rule:evenodd;fill:#535154;"/>
	<clipPath id="SVGID_124_">
		<use xlink:href="#SVGID_121_"  style="overflow:visible;"/>
	</clipPath>
	<clipPath id="SVGID_125_" class="st84">
		<use xlink:href="#SVGID_122_"  style="overflow:visible;"/>
	</clipPath>
	<clipPath id="SVGID_126_" class="st85">
		<use xlink:href="#SVGID_123_"  style="overflow:visible;"/>
	</clipPath>
	<g class="st86">
		<path class="st79" d="M111.9,90c0-1.6,1.3-2.8,2.8-2.8h12.6c1.6,0,2.8,1.3,2.8,2.8v11.9c0,1.6-1.3,2.8-2.8,2.8h-12.6
			c-1.6,0-2.8-1.3-2.8-2.8V90z"/>
		<rect x="119.1" y="100.2" class="st21" width="3.8" height="2.2"/>
		<rect x="113.3" y="96.8" class="st80" width="15.5" height="3.6"/>
	</g>
	
		<use xlink:href="#SVGID_123_"  style="overflow:visible;fill-rule:evenodd;clip-rule:evenodd;fill:none;stroke:#1A171B;stroke-width:0.5;stroke-miterlimit:3.8637;"/>
</g>
<g>
	<defs>
		<rect id="SVGID_127_" x="154.8" y="84.6" width="17" height="22.7"/>
	</defs>
	<defs>
		<rect id="SVGID_128_" x="154.8" y="84.6" width="17" height="22.7"/>
	</defs>
	<defs>
		<rect id="SVGID_129_" x="154.8" y="84.6" width="17" height="22.7"/>
	</defs>
	<use xlink:href="#SVGID_127_"  style="overflow:visible;fill-rule:evenodd;clip-rule:evenodd;fill:#535154;"/>
	<clipPath id="SVGID_130_">
		<use xlink:href="#SVGID_127_"  style="overflow:visible;"/>
	</clipPath>
	<clipPath id="SVGID_131_" class="st87">
		<use xlink:href="#SVGID_128_"  style="overflow:visible;"/>
	</clipPath>
	<clipPath id="SVGID_132_" class="st88">
		<use xlink:href="#SVGID_129_"  style="overflow:visible;"/>
	</clipPath>
	<g class="st89">
		<path class="st79" d="M154.1,90c0-1.6,1.3-2.8,2.8-2.8h12.6c1.6,0,2.8,1.3,2.8,2.8v11.9c0,1.6-1.3,2.8-2.8,2.8H157
			c-1.6,0-2.8-1.3-2.8-2.8V90z"/>
		<rect x="161.4" y="100.2" class="st21" width="3.8" height="2.2"/>
		<rect x="155.5" y="96.8" class="st80" width="15.5" height="3.6"/>
	</g>
	
		<use xlink:href="#SVGID_129_"  style="overflow:visible;fill-rule:evenodd;clip-rule:evenodd;fill:none;stroke:#1A171B;stroke-width:0.5;stroke-miterlimit:3.8637;"/>
</g>
<path class="st15" d="M8,71.2c0-0.8,0.6-0.7,1.4-0.7h180c0.8,0,1.4-0.1,1.4,0.7v109.8c0,0.8-0.6,1.4-1.4,1.4H9.4
	c-0.8,0-1.4-0.6-1.4-1.4V71.2z"/>
<rect x="191.6" y="166.1" class="st61" width="2.8" height="9.9"/>
<rect x="191.6" y="76.8" class="st61" width="2.8" height="9.9"/>
<rect x="4.5" y="166.1" class="st61" width="2.8" height="9.9"/>
<rect x="4.5" y="76.8" class="st61" width="2.8" height="9.9"/>
<rect x="80.3" y="66.9" class="st61" width="9.9" height="2.8"/>
<rect x="108" y="66.9" class="st61" width="9.9" height="2.8"/>
<rect x="80.3" y="183.1" class="st61" width="9.9" height="2.8"/>
<rect x="108" y="183.1" class="st61" width="9.9" height="2.8"/>
</svg>
