<?xml version="1.0" encoding="utf-8"?>
<!-- Generator: Adobe Illustrator 24.3.0, SVG Export Plug-In . SVG Version: 6.00 Build 0)  -->
<svg version="1.1" id="Foreground" xmlns="http://www.w3.org/2000/svg" xmlns:xlink="http://www.w3.org/1999/xlink" x="0px" y="0px"
	 viewBox="0 0 462 165" style="enable-background:new 0 0 462 165;" xml:space="preserve">
<style type="text/css">
	.st0{fill:#FFFFFF;stroke:#1A171B;stroke-width:0.5;stroke-miterlimit:3.8637;}
	.st1{fill-rule:evenodd;clip-rule:evenodd;fill:#314A7D;stroke:#1A171B;stroke-width:0.5;stroke-miterlimit:3.8637;}
	.st2{fill-rule:evenodd;clip-rule:evenodd;fill:#FFFFFF;stroke:#1A171B;stroke-width:0.5;stroke-miterlimit:3.8637;}
	.st3{fill-rule:evenodd;clip-rule:evenodd;fill:#007F50;stroke:#1A171B;stroke-width:0.5;stroke-miterlimit:3.8637;}
	.st4{fill-rule:evenodd;clip-rule:evenodd;fill:#00A768;stroke:#1A171B;stroke-width:0.5;stroke-miterlimit:3.8637;}
	.st5{clip-path:url(#SVGID_4_);}
	.st6{clip-path:url(#SVGID_5_);}
	
		.st7{clip-path:url(#SVGID_6_);fill-rule:evenodd;clip-rule:evenodd;fill:#D1D1D1;stroke:#1A171B;stroke-width:0.5;stroke-miterlimit:3.8637;}
	.st8{clip-path:url(#SVGID_10_);}
	.st9{clip-path:url(#SVGID_11_);}
	
		.st10{clip-path:url(#SVGID_12_);fill-rule:evenodd;clip-rule:evenodd;fill:#D1D1D1;stroke:#1A171B;stroke-width:0.5;stroke-miterlimit:3.8637;}
	.st11{clip-path:url(#SVGID_16_);}
	.st12{clip-path:url(#SVGID_17_);}
	
		.st13{clip-path:url(#SVGID_18_);fill-rule:evenodd;clip-rule:evenodd;fill:#D1D1D1;stroke:#1A171B;stroke-width:0.5;stroke-miterlimit:3.8637;}
	.st14{clip-path:url(#SVGID_22_);}
	.st15{clip-path:url(#SVGID_23_);}
	
		.st16{clip-path:url(#SVGID_24_);fill-rule:evenodd;clip-rule:evenodd;fill:#D1D1D1;stroke:#1A171B;stroke-width:0.5;stroke-miterlimit:3.8637;}
	.st17{fill-rule:evenodd;clip-rule:evenodd;fill:#195A39;stroke:#1A171B;stroke-width:0.5;stroke-miterlimit:3.8637;}
	
		.st18{fill-rule:evenodd;clip-rule:evenodd;fill:none;stroke:#1A171B;stroke-width:0.5;stroke-linejoin:round;stroke-miterlimit:3.8637;}
	.st19{fill-rule:evenodd;clip-rule:evenodd;fill:#003E77;}
	.st20{fill-rule:evenodd;clip-rule:evenodd;fill:#FFFFFF;}
	.st21{fill-rule:evenodd;clip-rule:evenodd;fill:#FFD616;}
</style>
<g>
	<path class="st0" d="M107.4,28.9c1.1,0,2.6,0.6,3.4,1.4l30.1,30.1c0.8,0.8,1.4,2.3,1.4,3.4v59.7c0,1.1-0.6,2.6-1.4,3.4l-36.4,36.4
		c-0.8,0.8-2.3,1.4-3.4,1.4H41.5c-1.1,0-2.6-0.6-3.4-1.4L1.7,126.9c-0.8-0.8-1.4-2.3-1.4-3.4V63.8c0-1.1,0.6-2.6,1.4-3.4l30.1-30.1
		c0.8-0.8,2.3-1.4,3.4-1.4H107.4z"/>
	<rect x="40.7" y="28.9" class="st1" width="61.3" height="132.9"/>
	<path class="st2" d="M102,31.8v20.7c0,1.5-0.6,3-1.7,4s-2.5,1.7-4,1.7h-50c-1.5,0-3-0.6-4-1.7s-1.7-2.5-1.7-4V31.8h-6.3L3.1,63
		v61.3l37.5,37.5H102l37.5-37.5V63l-31.3-31.2H102z"/>
	<path class="st1" d="M55,145.4c0-1.7,1.4-3.1,3.1-3.1h26.4c1.7,0,3.1,1.4,3.1,3.1v7.9c0,1.7-1.4,3.1-3.1,3.1H58.1
		c-1.7,0-3.1-1.4-3.1-3.1V145.4z"/>
	<g>
		<rect x="42.4" y="28.9" class="st3" width="57.8" height="23"/>
		<rect x="42.4" y="32.1" class="st4" width="57.8" height="14.2"/>
		<g>
			<defs>
				<path id="SVGID_1_" d="M87.6,38.8c0-3.1,2.5-5.7,5.7-5.7s5.7,2.5,5.7,5.7s-2.5,5.7-5.7,5.7S87.6,42,87.6,38.8z"/>
			</defs>
			<defs>
				<path id="SVGID_2_" d="M87.6,38.8c0-3.1,2.5-5.7,5.7-5.7s5.7,2.5,5.7,5.7s-2.5,5.7-5.7,5.7S87.6,42,87.6,38.8z"/>
			</defs>
			<defs>
				<path id="SVGID_3_" d="M87.6,38.8c0-3.1,2.5-5.7,5.7-5.7s5.7,2.5,5.7,5.7s-2.5,5.7-5.7,5.7S87.6,42,87.6,38.8z"/>
			</defs>
			<use xlink:href="#SVGID_1_"  style="overflow:visible;fill-rule:evenodd;clip-rule:evenodd;fill:#FFFFFF;"/>
			<clipPath id="SVGID_4_">
				<use xlink:href="#SVGID_1_"  style="overflow:visible;"/>
			</clipPath>
			<clipPath id="SVGID_5_" class="st5">
				<use xlink:href="#SVGID_2_"  style="overflow:visible;"/>
			</clipPath>
			<clipPath id="SVGID_6_" class="st6">
				<use xlink:href="#SVGID_3_"  style="overflow:visible;"/>
			</clipPath>
			
				<rect x="87" y="37.7" transform="matrix(0.7072 -0.7071 0.7071 0.7072 -0.1635 77.2869)" class="st7" width="12.4" height="2.3"/>
			
				<use xlink:href="#SVGID_3_"  style="overflow:visible;fill-rule:evenodd;clip-rule:evenodd;fill:none;stroke:#1A171B;stroke-width:0.5;stroke-miterlimit:3.8637;"/>
		</g>
		<g>
			<defs>
				<path id="SVGID_7_" d="M73,38.8c0-3.1,2.5-5.7,5.7-5.7s5.7,2.5,5.7,5.7s-2.5,5.7-5.7,5.7S73,42,73,38.8z"/>
			</defs>
			<defs>
				<path id="SVGID_8_" d="M73,38.8c0-3.1,2.5-5.7,5.7-5.7s5.7,2.5,5.7,5.7s-2.5,5.7-5.7,5.7S73,42,73,38.8z"/>
			</defs>
			<defs>
				<path id="SVGID_9_" d="M73,38.8c0-3.1,2.5-5.7,5.7-5.7s5.7,2.5,5.7,5.7s-2.5,5.7-5.7,5.7S73,42,73,38.8z"/>
			</defs>
			<use xlink:href="#SVGID_7_"  style="overflow:visible;fill-rule:evenodd;clip-rule:evenodd;fill:#FFFFFF;"/>
			<clipPath id="SVGID_10_">
				<use xlink:href="#SVGID_7_"  style="overflow:visible;"/>
			</clipPath>
			<clipPath id="SVGID_11_" class="st8">
				<use xlink:href="#SVGID_8_"  style="overflow:visible;"/>
			</clipPath>
			<clipPath id="SVGID_12_" class="st9">
				<use xlink:href="#SVGID_9_"  style="overflow:visible;"/>
			</clipPath>
			
				<rect x="72.4" y="37.7" transform="matrix(0.7071 -0.7071 0.7071 0.7071 -4.4255 66.9857)" class="st10" width="12.4" height="2.3"/>
			
				<use xlink:href="#SVGID_9_"  style="overflow:visible;fill-rule:evenodd;clip-rule:evenodd;fill:none;stroke:#1A171B;stroke-width:0.5;stroke-miterlimit:3.8637;"/>
		</g>
		<g>
			<defs>
				<path id="SVGID_13_" d="M58.4,38.8c0-3.1,2.5-5.7,5.7-5.7s5.7,2.5,5.7,5.7s-2.5,5.7-5.7,5.7S58.4,42,58.4,38.8z"/>
			</defs>
			<defs>
				<path id="SVGID_14_" d="M58.4,38.8c0-3.1,2.5-5.7,5.7-5.7s5.7,2.5,5.7,5.7s-2.5,5.7-5.7,5.7S58.4,42,58.4,38.8z"/>
			</defs>
			<defs>
				<path id="SVGID_15_" d="M58.4,38.8c0-3.1,2.5-5.7,5.7-5.7s5.7,2.5,5.7,5.7s-2.5,5.7-5.7,5.7S58.4,42,58.4,38.8z"/>
			</defs>
			<use xlink:href="#SVGID_13_"  style="overflow:visible;fill-rule:evenodd;clip-rule:evenodd;fill:#FFFFFF;"/>
			<clipPath id="SVGID_16_">
				<use xlink:href="#SVGID_13_"  style="overflow:visible;"/>
			</clipPath>
			<clipPath id="SVGID_17_" class="st11">
				<use xlink:href="#SVGID_14_"  style="overflow:visible;"/>
			</clipPath>
			<clipPath id="SVGID_18_" class="st12">
				<use xlink:href="#SVGID_15_"  style="overflow:visible;"/>
			</clipPath>
			
				<rect x="57.9" y="37.7" transform="matrix(0.7071 -0.7071 0.7071 0.7071 -8.6987 56.6773)" class="st13" width="12.4" height="2.3"/>
			
				<use xlink:href="#SVGID_15_"  style="overflow:visible;fill-rule:evenodd;clip-rule:evenodd;fill:none;stroke:#1A171B;stroke-width:0.5;stroke-miterlimit:3.8637;"/>
		</g>
		<g>
			<defs>
				<path id="SVGID_19_" d="M43.8,38.8c0-3.1,2.5-5.7,5.7-5.7s5.7,2.5,5.7,5.7s-2.5,5.7-5.7,5.7S43.8,42,43.8,38.8z"/>
			</defs>
			<defs>
				<path id="SVGID_20_" d="M43.8,38.8c0-3.1,2.5-5.7,5.7-5.7s5.7,2.5,5.7,5.7s-2.5,5.7-5.7,5.7S43.8,42,43.8,38.8z"/>
			</defs>
			<defs>
				<path id="SVGID_21_" d="M43.8,38.8c0-3.1,2.5-5.7,5.7-5.7s5.7,2.5,5.7,5.7s-2.5,5.7-5.7,5.7S43.8,42,43.8,38.8z"/>
			</defs>
			<use xlink:href="#SVGID_19_"  style="overflow:visible;fill-rule:evenodd;clip-rule:evenodd;fill:#FFFFFF;"/>
			<clipPath id="SVGID_22_">
				<use xlink:href="#SVGID_19_"  style="overflow:visible;"/>
			</clipPath>
			<clipPath id="SVGID_23_" class="st14">
				<use xlink:href="#SVGID_20_"  style="overflow:visible;"/>
			</clipPath>
			<clipPath id="SVGID_24_" class="st15">
				<use xlink:href="#SVGID_21_"  style="overflow:visible;"/>
			</clipPath>
			
				<rect x="43.3" y="37.7" transform="matrix(0.7071 -0.7071 0.7071 0.7071 -12.9725 46.3691)" class="st16" width="12.4" height="2.3"/>
			
				<use xlink:href="#SVGID_21_"  style="overflow:visible;fill-rule:evenodd;clip-rule:evenodd;fill:none;stroke:#1A171B;stroke-width:0.5;stroke-miterlimit:3.8637;"/>
		</g>
		<rect x="48.5" y="46.2" class="st17" width="2" height="3.4"/>
		<rect x="63.1" y="46.2" class="st17" width="2" height="3.4"/>
		<rect x="77.7" y="46.2" class="st17" width="2" height="3.4"/>
		<rect x="92.2" y="46.2" class="st17" width="2" height="3.4"/>
	</g>
	<g>
		<rect x="57.3" y="147" class="st2" width="27.8" height="7.9"/>
		<rect x="62.8" y="145.3" class="st2" width="17.3" height="9.6"/>
		<line class="st18" x1="65.6" y1="151.1" x2="65.6" y2="153.1"/>
		<line class="st18" x1="69.5" y1="151.1" x2="69.5" y2="153.1"/>
		<line class="st18" x1="73.3" y1="151.1" x2="73.3" y2="153.1"/>
		<line class="st18" x1="77.2" y1="151.1" x2="77.2" y2="153.1"/>
	</g>
	<g>
		<rect x="3.1" y="80.4" class="st19" width="136.1" height="42.5"/>
		<g>
			<polygon class="st20" points="16.1,88.7 13.3,91.6 13.3,90.5 7.1,90.5 7.1,87 13.3,87 13.3,85.8 			"/>
			<polygon class="st20" points="20.3,84.9 20.3,92.9 21.4,92.9 21.4,86 23.3,92.9 24.2,92.9 26.1,86.1 26.1,92.9 27.4,92.9 
				27.4,84.9 25.5,84.9 23.9,90.7 22.3,84.9 			"/>
			<polygon class="st20" points="28.9,84.9 28.9,92.9 33.6,92.9 33.6,91.8 30.2,91.8 30.2,89.3 32.8,89.3 32.8,88.2 30.2,88.2 
				30.2,85.9 33.5,85.9 33.5,84.9 			"/>
			<path class="st20" d="M38.5,90.2c-0.2,1.2-0.5,1.7-1.3,1.7c-1.3,0-1.5-1.5-1.5-3c0-1.3,0.2-3.1,1.5-3.1c1.1,0,1.3,1.1,1.3,1.8
				l1.2-0.2c-0.1-0.7-0.4-2.7-2.6-2.7c-2.7,0-2.9,2.9-2.9,4.2c0,1.3,0.3,4.1,2.9,4.1c2.2,0,2.5-2,2.6-2.7L38.5,90.2z"/>
			<path class="st20" d="M40.7,87v5.9H42V87H40.7z M42,86.2v-1.3h-1.3v1.3H42z"/>
			<path class="st20" d="M43.4,92.9h1.2v-3.3c0-0.6,0-1.8,1-1.8c0.7,0,0.7,0.6,0.7,1.3v3.7h1.2v-3.8c0-0.6,0-1.1-0.2-1.5
				c-0.3-0.6-0.9-0.7-1.3-0.7c-1,0-1.3,0.7-1.5,1.1V87h-1.1V92.9z"/>
			<path class="st20" d="M53.5,86c-0.1,0-0.2,0-0.4,0c-0.9,0-1,0.6-1.1,1.1c-0.3-0.1-0.6-0.3-1.1-0.3c-1.2,0-2.1,0.8-2.1,1.9
				c0,1,0.5,1.3,0.8,1.5c-0.3,0.1-0.9,0.4-0.9,1.2c0,0.6,0.4,0.8,0.6,1c-0.3,0.1-0.9,0.3-0.9,1.1c0,1.3,1.5,1.5,2.4,1.5
				c1.1,0,2.7-0.3,2.7-1.8c0-1.5-1.2-1.5-2.3-1.6c-1.2-0.1-1.5-0.1-1.5-0.5c0-0.3,0.3-0.4,0.4-0.5c0.2,0.1,0.4,0.1,0.8,0.1
				c1.4,0,2.1-1,2.1-1.9c0-0.5-0.2-0.9-0.5-1.3c0.1-0.5,0.3-0.6,0.6-0.6c0.1,0,0.2,0,0.3,0L53.5,86z M51,87.6c0.8,0,0.8,0.9,0.8,1.2
				c0,0.1,0,1.1-0.8,1.1s-0.8-1-0.8-1.1C50.1,88.3,50.2,87.6,51,87.6z M50.1,92.6c0.3,0,1.4,0.1,1.6,0.1c0.3,0,0.7,0.1,0.7,0.7
				c0,0.7-0.9,0.8-1.4,0.8c-0.9,0-1.4-0.2-1.4-0.8C49.6,92.9,50,92.7,50.1,92.6z"/>
		</g>
		<g>
			<polygon class="st19" points="63.8,134.7 63.8,136.8 63.2,136.8 63.2,136.2 60.8,136.2 60.8,136.8 60.2,136.8 60.2,134.7 
				60.8,134.7 60.8,135.3 63.2,135.3 63.2,134.7 			"/>
			<path class="st19" d="M63.8,131.2v0.9h-1.4c-0.1,0-0.2,0-0.3,0c-0.1,0-0.2,0-0.2,0.1c-0.1,0-0.1,0.1-0.1,0.1c0,0.1,0,0.1,0,0.3
				c0,0.1,0,0.2,0,0.2c0,0.1,0.1,0.2,0.1,0.3h1.9v0.9h-2.7v-0.9h0.3c-0.1-0.2-0.2-0.3-0.3-0.4c-0.1-0.1-0.1-0.3-0.1-0.5
				c0-0.3,0.1-0.5,0.3-0.7c0.2-0.2,0.4-0.3,0.8-0.3H63.8z"/>
			<path class="st19" d="M63.8,127.8v2.4h-0.6v-0.8h-1.9v0.8h-0.6c0-0.1,0-0.2,0-0.3c0-0.1,0-0.2-0.1-0.3c0-0.1-0.1-0.1-0.2-0.2
				c-0.1,0-0.1-0.1-0.2-0.1v-0.8h3v-0.8H63.8z"/>
		</g>
		<g>
			<polygon class="st19" points="70,134.7 70,136.8 69.4,136.8 69.4,136.2 67,136.2 67,136.8 66.4,136.8 66.4,134.7 67,134.7 
				67,135.3 69.4,135.3 69.4,134.7 			"/>
			<path class="st19" d="M70,131.2v0.9h-1.4c-0.1,0-0.2,0-0.3,0c-0.1,0-0.2,0-0.2,0.1c-0.1,0-0.1,0.1-0.1,0.1c0,0.1,0,0.1,0,0.3
				c0,0.1,0,0.2,0,0.2c0,0.1,0.1,0.2,0.1,0.3H70v0.9h-2.7v-0.9h0.3c-0.1-0.2-0.2-0.3-0.3-0.4c-0.1-0.1-0.1-0.3-0.1-0.5
				c0-0.3,0.1-0.5,0.3-0.7s0.4-0.3,0.8-0.3H70z"/>
			<path class="st19" d="M70,127.5v2.9h-0.6c-0.2-0.2-0.3-0.4-0.5-0.7c-0.2-0.2-0.3-0.4-0.5-0.5c-0.2-0.2-0.4-0.3-0.5-0.4
				s-0.3-0.1-0.4-0.1c-0.2,0-0.3,0.1-0.4,0.2c-0.1,0.1-0.1,0.3-0.1,0.5c0,0.2,0,0.3,0.1,0.5c0.1,0.2,0.1,0.3,0.2,0.5v0.1h-0.8
				c-0.1-0.1-0.1-0.3-0.2-0.5c-0.1-0.2-0.1-0.5-0.1-0.7c0-0.5,0.1-0.8,0.3-1c0.2-0.2,0.5-0.4,0.8-0.4c0.2,0,0.4,0.1,0.7,0.2
				c0.2,0.1,0.4,0.3,0.6,0.5c0.1,0.1,0.3,0.3,0.4,0.4c0.1,0.2,0.2,0.3,0.2,0.3v-1.6H70z"/>
		</g>
		<g>
			<polygon class="st19" points="76.2,134.7 76.2,136.8 75.5,136.8 75.5,136.2 73.2,136.2 73.2,136.8 72.6,136.8 72.6,134.7 
				73.2,134.7 73.2,135.3 75.5,135.3 75.5,134.7 			"/>
			<path class="st19" d="M76.2,131.2v0.9h-1.4c-0.1,0-0.2,0-0.3,0c-0.1,0-0.2,0-0.2,0.1c-0.1,0-0.1,0.1-0.1,0.1c0,0.1,0,0.1,0,0.3
				c0,0.1,0,0.2,0,0.2c0,0.1,0.1,0.2,0.1,0.3h1.9v0.9h-2.7v-0.9h0.3c-0.1-0.2-0.2-0.3-0.3-0.4c-0.1-0.1-0.1-0.3-0.1-0.5
				c0-0.3,0.1-0.5,0.3-0.7c0.2-0.2,0.4-0.3,0.8-0.3H76.2z"/>
			<path class="st19" d="M74.5,127.9c0.1-0.1,0.1-0.1,0.2-0.2c0.1,0,0.2-0.1,0.4-0.1c0.2,0,0.3,0,0.5,0.1c0.1,0.1,0.3,0.2,0.4,0.3
				c0.1,0.1,0.2,0.3,0.2,0.5c0.1,0.2,0.1,0.4,0.1,0.7c0,0.3,0,0.6-0.1,0.8c0,0.2-0.1,0.4-0.2,0.5h-0.8v-0.1c0.1-0.1,0.2-0.3,0.2-0.5
				c0.1-0.2,0.1-0.4,0.1-0.5c0-0.1,0-0.2,0-0.3c0-0.1-0.1-0.2-0.1-0.3c0-0.1-0.1-0.1-0.1-0.1c-0.1,0-0.1-0.1-0.3-0.1
				c-0.1,0-0.2,0-0.2,0.1c-0.1,0-0.1,0.1-0.1,0.2c0,0.1,0,0.2,0,0.3c0,0.1,0,0.2,0,0.3v0.2H74v-0.2c0-0.1,0-0.2,0-0.3
				c0-0.1,0-0.2-0.1-0.2c0-0.1-0.1-0.1-0.1-0.2c-0.1,0-0.1-0.1-0.2-0.1c-0.1,0-0.1,0-0.2,0.1c0,0-0.1,0.1-0.1,0.1
				c0,0.1,0,0.1-0.1,0.2c0,0.1,0,0.2,0,0.2c0,0.2,0,0.3,0.1,0.5c0.1,0.2,0.1,0.4,0.2,0.5v0.1h-0.8c-0.1-0.1-0.1-0.3-0.2-0.5
				c-0.1-0.2-0.1-0.5-0.1-0.7c0-0.2,0-0.4,0.1-0.6c0-0.2,0.1-0.3,0.2-0.4c0.1-0.1,0.2-0.2,0.3-0.3c0.1-0.1,0.2-0.1,0.4-0.1
				c0.2,0,0.4,0.1,0.5,0.2c0.2,0.1,0.3,0.3,0.3,0.5h0c0-0.1,0-0.2,0.1-0.3S74.4,128,74.5,127.9z"/>
		</g>
		<g>
			<path class="st19" d="M79.9,134.6c-0.1,0-0.2,0-0.2,0.1s-0.1,0.1-0.2,0.2c0,0.1,0,0.1,0,0.2c0,0.1,0,0.2,0,0.3v0.3h1v-0.3
				c0-0.1,0-0.3,0-0.4s0-0.2-0.1-0.3c-0.1-0.1-0.1-0.1-0.2-0.1C80,134.6,80,134.6,79.9,134.6z M82.4,133.2v1.1l-1.3,1v0.4h1.3v0.9
				h-3.6v-1.6c0-0.2,0-0.4,0-0.6c0-0.2,0.1-0.3,0.2-0.4c0.1-0.1,0.2-0.2,0.3-0.3c0.1-0.1,0.3-0.1,0.5-0.1c0.3,0,0.5,0.1,0.7,0.2
				c0.2,0.1,0.3,0.3,0.4,0.5L82.4,133.2z"/>
			<path class="st19" d="M81.2,130.1v2c0.2,0,0.4-0.1,0.5-0.2c0.1-0.2,0.2-0.4,0.2-0.7c0-0.2,0-0.4-0.1-0.5s-0.1-0.3-0.2-0.4v-0.1
				h0.7c0.1,0.2,0.1,0.4,0.2,0.6c0,0.2,0.1,0.4,0.1,0.6c0,0.5-0.1,1-0.4,1.3S81.5,133,81,133c-0.5,0-0.8-0.1-1.1-0.4
				c-0.3-0.3-0.4-0.7-0.4-1.1c0-0.4,0.1-0.8,0.3-1c0.2-0.2,0.5-0.3,1-0.3H81.2z M80.7,131c-0.2,0-0.3,0.1-0.4,0.1s-0.1,0.2-0.1,0.4
				c0,0.2,0,0.3,0.1,0.4s0.2,0.2,0.4,0.2V131z"/>
			<path class="st19" d="M79.2,127.7L79.2,127.7c0,0.1,0,0.2,0,0.2c0,0.1,0,0.1,0,0.2c0,0.2,0,0.3,0.1,0.4c0.1,0.1,0.2,0.1,0.4,0.1
				h0v-0.7h0.6v0.6h2.1v0.9h-2.1v0.4h-0.6v-0.4h-0.1c-0.3,0-0.6-0.1-0.8-0.3c-0.2-0.2-0.3-0.4-0.3-0.8c0-0.1,0-0.2,0-0.4
				c0-0.1,0-0.2,0-0.3H79.2z"/>
			<rect x="81.4" y="126.4" class="st19" width="1" height="0.9"/>
		</g>
		<g>
			<polygon class="st19" points="50.2,71.9 50.2,73.2 51.7,73.2 51.7,73.8 50.2,73.8 50.2,75 49.4,75 49.4,73.8 47.8,73.8 
				47.8,73.2 49.4,73.2 49.4,71.9 			"/>
			<path class="st19" d="M51.7,68.4v2.3h-0.8V70h-2.3v0.7h-0.7c0-0.1,0-0.2,0-0.3c0-0.1,0-0.2-0.1-0.3c0-0.1-0.1-0.1-0.2-0.2
				c-0.1,0-0.2-0.1-0.3-0.1v-0.8h3.6v-0.7H51.7z"/>
			<path class="st19" d="M51.7,64.8v2.7H51c-0.2-0.2-0.4-0.4-0.6-0.6c-0.2-0.2-0.4-0.4-0.6-0.5c-0.2-0.2-0.4-0.3-0.6-0.4
				c-0.2-0.1-0.3-0.1-0.5-0.1c-0.2,0-0.4,0.1-0.5,0.2c-0.1,0.1-0.2,0.2-0.2,0.4c0,0.1,0,0.3,0.1,0.5c0.1,0.2,0.2,0.3,0.3,0.4v0.1h-1
				c-0.1-0.1-0.1-0.3-0.2-0.5c-0.1-0.2-0.1-0.4-0.1-0.7c0-0.4,0.1-0.8,0.3-1c0.2-0.2,0.6-0.3,1-0.3c0.3,0,0.5,0.1,0.8,0.2
				c0.2,0.1,0.5,0.3,0.8,0.5c0.2,0.1,0.3,0.3,0.5,0.4c0.1,0.1,0.2,0.2,0.3,0.3v-1.6H51.7z"/>
			<polygon class="st19" points="47.3,61 51.7,62.2 51.7,63.2 47.3,64.5 47.3,63.6 50.4,62.7 47.3,61.9 			"/>
		</g>
		<path class="st19" d="M66.4,61v1.2l-0.9,0.3v1.6l0.9,0.3v1.1L62,63.9v-1.3L66.4,61z M64.7,62.7l-1.6,0.5l1.6,0.5V62.7z"/>
		<path class="st19" d="M79.7,61.2c0.2,0,0.4,0,0.6,0.1c0.2,0.1,0.3,0.2,0.4,0.3c0.1,0.2,0.2,0.4,0.3,0.6c0.1,0.2,0.1,0.5,0.1,0.8
			v1.9h-4.4v-1.7c0-0.4,0-0.6,0-0.8c0-0.2,0.1-0.3,0.2-0.5c0.1-0.2,0.2-0.3,0.3-0.4c0.1-0.1,0.3-0.1,0.5-0.1c0.2,0,0.4,0.1,0.6,0.2
			c0.2,0.1,0.3,0.3,0.4,0.5h0c0.1-0.3,0.2-0.5,0.4-0.7C79.2,61.3,79.5,61.2,79.7,61.2z M78,62.6c-0.1,0-0.1,0-0.2,0.1
			c-0.1,0-0.1,0.1-0.2,0.2c0,0.1,0,0.2,0,0.3c0,0.1,0,0.3,0,0.5v0.1h0.9v-0.2c0-0.2,0-0.3,0-0.5s0-0.2-0.1-0.3
			c0-0.1-0.1-0.2-0.2-0.2C78.1,62.6,78,62.6,78,62.6z M79.7,62.4c-0.1,0-0.2,0-0.3,0.1c-0.1,0.1-0.1,0.1-0.2,0.3c0,0.1,0,0.2,0,0.4
			s0,0.3,0,0.5v0.2h1.1v-0.1c0-0.3,0-0.5,0-0.7s0-0.3-0.1-0.4c0-0.1-0.1-0.2-0.2-0.2C79.9,62.4,79.8,62.4,79.7,62.4z"/>
		<g>
			<path class="st19" d="M92.7,71.3c-0.1,0-0.2,0-0.3,0.1s-0.1,0.1-0.2,0.2c0,0.1,0,0.2-0.1,0.3c0,0.1,0,0.2,0,0.4v0.4h1.2v-0.3
				c0-0.2,0-0.3,0-0.5s-0.1-0.2-0.1-0.3c-0.1-0.1-0.1-0.1-0.2-0.2C93,71.3,92.9,71.3,92.7,71.3z M95.8,69.5v1.4l-1.6,1.2v0.5h1.6
				v1.1h-4.4v-1.9c0-0.3,0-0.5,0-0.7s0.1-0.4,0.2-0.5c0.1-0.2,0.2-0.3,0.4-0.4c0.2-0.1,0.3-0.1,0.6-0.1c0.3,0,0.6,0.1,0.8,0.2
				c0.2,0.1,0.4,0.4,0.5,0.6L95.8,69.5z"/>
			<path class="st19" d="M94.3,65.9v2.4c0.3,0,0.5-0.1,0.6-0.3c0.1-0.2,0.2-0.4,0.2-0.8c0-0.2,0-0.4-0.1-0.6s-0.2-0.4-0.3-0.5v-0.1
				h0.8c0.1,0.2,0.2,0.5,0.2,0.7s0.1,0.4,0.1,0.7c0,0.7-0.1,1.2-0.4,1.5s-0.7,0.5-1.3,0.5c-0.5,0-1-0.2-1.3-0.5
				c-0.3-0.3-0.5-0.8-0.5-1.4c0-0.5,0.1-0.9,0.4-1.2c0.3-0.3,0.7-0.4,1.2-0.4H94.3z M93.7,66.9c-0.2,0-0.4,0.1-0.5,0.2
				S93,67.3,93,67.6c0,0.2,0.1,0.4,0.2,0.5s0.3,0.2,0.5,0.2V66.9z"/>
			<path class="st19" d="M92,63L92,63c0,0.1,0,0.2,0,0.3c0,0.1,0,0.2,0,0.2c0,0.2,0,0.3,0.1,0.4c0.1,0.1,0.2,0.1,0.4,0.1h0v-0.8h0.7
				V64h2.6V65h-2.6v0.5h-0.7V65h-0.1c-0.4,0-0.7-0.1-0.9-0.3c-0.2-0.2-0.3-0.5-0.3-1c0-0.2,0-0.3,0-0.4c0-0.1,0-0.2,0-0.3H92z"/>
			<rect x="94.6" y="61.4" class="st19" width="1.2" height="1.1"/>
		</g>
		<g>
			<rect x="108" y="83.2" class="st20" width="28.3" height="28.3"/>
			<path class="st19" d="M116.2,84.1h0.9v0.9h-0.9V84.1z M118.1,84.1h0.9v0.9h0.9v-0.9h0.9v0.9h1.8v1.8h2.7v0.9h0.9v-0.9h-0.9v-1.8
				h-0.9V86h-0.9v-1.8h3.7v0.9h-0.9V86h1.8v0.9h-0.9v1.8h0.9v1.8h-0.9v-0.9h-0.9v0.9h0.9v0.9h-0.9v0.9h1.8v-0.9h0.9v0.9h1.8v-0.9
				h2.7v0.9h-1.8v0.9h-1.8v0.9h-1.8v-0.9h-1.8v1.8h-0.9v-0.9h-1.8v-5.5h-0.9v-0.9h-1.8v0.9h-0.9v0.9H119v1.8h0.9v0.9H119v0.9h0.9
				v-0.9h1.8v1.8h1.8v0.9h-0.9V96h-4.6v0.9h-0.9V96h-2.7v0.9h0.9v0.9h-2.7v0.9h-0.9v-1.8h0.9v-1.8h2.7v-0.9h1.8v-0.9h0.9v-4.6h0.9
				v-0.9h0.9v-0.9h0.9V86H119v1.8h-1.8v0.9h-0.9V86h0.9v-0.9h0.9V84.1z M124.5,89.6h0.9v0.9h-0.9V89.6z M124.5,92.4h0.9v0.9h-0.9
				V92.4z M120.8,88.7h1.8v3.7h-0.9v-2.7h-0.9V88.7z M116.2,89.6h0.9v0.9h-0.9V89.6z M119.9,89.6h0.9v1.8h-0.9V89.6z M108.9,91.5
				h3.7v0.9h-0.9v0.9h-0.9v-0.9h-0.9v1.8h-0.9V91.5z M114.4,91.5h0.9v0.9h-0.9V91.5z M116.2,91.5h0.9v0.9h-0.9V91.5z M134.5,91.5
				h0.9v1.8h-0.9V91.5z M112.6,92.4h0.9v0.9h-0.9V92.4z M115.3,92.4h0.9v0.9h-0.9V92.4z M111.7,93.3h0.9v0.9h-0.9V93.3z M114.4,93.3
				h0.9v0.9h-0.9V93.3z M132.7,93.3h1.8v0.9h-1.8V93.3z M110.7,94.2h0.9v0.9h-0.9V94.2z M129.9,94.2h0.9v0.9h-0.9V94.2z M134.5,94.2
				h0.9v0.9h-0.9V94.2z M108.9,95.1h1.8v2.7h-1.8V95.1z M124.5,95.1h0.9v2.7h-1.8v-0.9h-0.9V96h1.8V95.1z M131.8,95.1h1.8V96h1.8
				v1.8h-0.9v2.7h-0.9v2.7h1.8v0.9h-0.9v0.9h-0.9v-0.9h-0.9v1.8h-0.9v-3.7h0.9v-1.8h-0.9v-0.9h-0.9v0.9h-0.9v-3.7h1.8v1.8h0.9v0.9
				h0.9v-1.8h-0.9V96h-0.9V95.1z M126.3,96h0.9v1.8h0.9v0.9h0.9v1.8h-0.9v-0.9h-1.8v4.6h-0.9v0.9h-1.8v-1.8h0.9v-2.7h0.9v-2.7h0.9
				V96z M129,96h0.9v0.9H129V96z M116.2,96.9h0.9v0.9h-0.9V96.9z M119.9,96.9h0.9v0.9h-0.9V96.9z M115.3,97.9h0.9v0.9h-0.9V97.9z
				 M117.1,97.9h0.9v0.9h-0.9V97.9z M119,97.9h0.9v1.8h0.9v0.9h1.8v-0.9h0.9v1.8h-2.7v0.9h-0.9v-1.8H119v-0.9h-0.9v-0.9h0.9V97.9z
				 M121.7,97.9h0.9v1.8h-1.8v-0.9h0.9V97.9z M108.9,98.8h0.9v0.9h-0.9V98.8z M113.5,98.8h1.8v0.9h-1.8V98.8z M123.5,98.8h0.9v0.9
				h-0.9V98.8z M109.8,99.7h0.9v0.9h-0.9V99.7z M116.2,99.7h0.9v1.8h0.9v0.9h-1.8v0.9h-1.8v-0.9h0.9v-0.9h-0.9v-0.9h1.8V99.7z
				 M108.9,100.6h0.9v0.9h-0.9V100.6z M112.6,100.6h0.9v0.9h0.9v0.9h-0.9v0.9h-0.9v-0.9h-0.9v0.9h-1.8v-0.9h0.9v-0.9h1.8V100.6z
				 M118.1,100.6h0.9v0.9h-0.9V100.6z M128.1,101.5h0.9v0.9h-0.9V101.5z M130.9,101.5h0.9v0.9h-0.9V101.5z M118.1,102.4h1.8v1.8h0.9
				v0.9H119v-0.9h-0.9V102.4z M121.7,102.4h0.9v0.9h-0.9V102.4z M116.2,103.3h0.9v0.9h-0.9V103.3z M120.8,103.3h0.9v0.9h-0.9V103.3z
				 M126.3,104.3h0.9v0.9h-0.9V104.3z M117.1,105.2h0.9v0.9h2.7v-0.9h2.7v0.9h-0.9v0.9h0.9v0.9h-0.9v0.9h1.8v0.9h-2.7v-0.9h-0.9v0.9
				h-0.9v0.9H119v-1.8h0.9V107h-1.8v0.9h-0.9v1.8h0.9v0.9h-1.8V107h0.9V105.2z M120.8,107h0.9v0.9h-0.9V107z M125.4,105.2h0.9v0.9
				h-0.9V105.2z M134.5,105.2h0.9v0.9h-0.9V105.2z M124.5,106.1h0.9v0.9h1.8v1.8h0.9v0.9h0.9v0.9h-3.7v-2.7h-0.9V106.1z
				 M132.7,106.1h1.8v0.9h0.9v1.8h-0.9v-0.9h-0.9V107h-0.9V106.1z M128.1,107h0.9v0.9h-0.9V107z M129.9,107h2.7v0.9h-1.8v0.9h1.8
				v0.9h-0.9v0.9h-1.8v-0.9H129v-0.9h0.9V107z M132.7,107.9h0.9v0.9h-0.9V107.9z M133.6,108.8h0.9v1.8h-0.9V108.8z M120.8,109.8h0.9
				v0.9h-0.9V109.8z"/>
			<path class="st19" d="M108.9,84.1h6.4l0,0l0,0v6.4l0,0l0,0h-6.4l0,0l0,0V84.1L108.9,84.1L108.9,84.1z M109.8,85.1h4.6l0,0l0,0
				v4.6l0,0l0,0h-4.6l0,0l0,0V85.1L109.8,85.1L109.8,85.1z M110.7,86h2.7l0,0l0,0v2.7l0,0l0,0h-2.7l0,0l0,0V86L110.7,86L110.7,86z
				 M129,84.1h6.4l0,0l0,0v6.4l0,0l0,0H129l0,0l0,0V84.1L129,84.1L129,84.1z M129.9,85.1h4.6l0,0l0,0v4.6l0,0l0,0h-4.6l0,0l0,0V85.1
				L129.9,85.1L129.9,85.1z M130.9,86h2.7l0,0l0,0v2.7l0,0l0,0h-2.7l0,0l0,0V86L130.9,86L130.9,86z M108.9,104.3h6.4l0,0l0,0v6.4
				l0,0l0,0h-6.4l0,0l0,0V104.3L108.9,104.3L108.9,104.3z M109.8,105.2h4.6l0,0l0,0v4.6l0,0l0,0h-4.6l0,0l0,0V105.2L109.8,105.2
				L109.8,105.2z M110.7,106.1h2.7l0,0l0,0v2.7l0,0l0,0h-2.7l0,0l0,0V106.1L110.7,106.1L110.7,106.1z M127.2,102.4h4.6l0,0l0,0v4.6
				l0,0l0,0h-4.6l0,0l0,0V102.4L127.2,102.4L127.2,102.4z M128.1,103.3h2.7l0,0l0,0v2.7l0,0l0,0h-2.7l0,0l0,0V103.3L128.1,103.3
				L128.1,103.3z M129,104.3h0.9l0,0l0,0v0.9l0,0l0,0H129l0,0l0,0V104.3L129,104.3L129,104.3z"/>
			<g>
				<path class="st20" d="M106,110.9h-2.5v0.6h2.5V110.9z M103.2,110.9h-0.6v0.6h0.6V110.9z"/>
				<path class="st20" d="M106,110.3v-0.6h-1.2c-0.8,0-0.9-0.4-0.9-0.5c0-0.1,0-0.4,0.6-0.4h1.4v-0.6h-1.5c-0.3,0-1.1,0-1.1,0.8
					c0,0.5,0.4,0.7,0.6,0.7h-0.6v0.5H106z"/>
				<path class="st20" d="M106,106.9h-2v-0.5h-0.4v0.5c-0.3,0-0.5,0-0.5-0.4c0,0,0-0.1,0-0.1h-0.4c0,0.4,0,0.7,0.1,0.8
					c0.2,0.3,0.5,0.3,0.8,0.3v0.4h0.4v-0.4h2V106.9z"/>
				<path class="st20" d="M104.8,103.8c-0.7,0-1.3,0.4-1.3,1.1c0,0.8,0.6,1.2,1.3,1.2c0.6,0,1.3-0.3,1.3-1.1
					C106.1,104.4,105.6,103.8,104.8,103.8z M104.8,104.4c0.3,0,0.8,0,0.8,0.6c0,0.6-0.7,0.6-0.8,0.6c-0.4,0-0.8-0.1-0.8-0.6
					C103.9,104.6,104.3,104.4,104.8,104.4z"/>
			</g>
			<g>
				<path class="st20" d="M106,110.9h-2.5v0.6h2.5V110.9z M103.2,110.9h-0.6v0.6h0.6V110.9z"/>
				<path class="st20" d="M106,110.3v-0.6h-1.2c-0.8,0-0.9-0.4-0.9-0.5c0-0.1,0-0.4,0.6-0.4h1.4v-0.6h-1.5c-0.3,0-1.1,0-1.1,0.8
					c0,0.5,0.4,0.7,0.6,0.7h-0.6v0.5H106z"/>
				<path class="st20" d="M106,106.9h-2v-0.5h-0.4v0.5c-0.3,0-0.5,0-0.5-0.4c0,0,0-0.1,0-0.1h-0.4c0,0.4,0,0.7,0.1,0.8
					c0.2,0.3,0.5,0.3,0.8,0.3v0.4h0.4v-0.4h2V106.9z"/>
				<path class="st20" d="M104.8,103.8c-0.7,0-1.3,0.4-1.3,1.1c0,0.8,0.6,1.2,1.3,1.2c0.6,0,1.3-0.3,1.3-1.1
					C106.1,104.4,105.6,103.8,104.8,103.8z M104.8,104.4c0.3,0,0.8,0,0.8,0.6c0,0.6-0.7,0.6-0.8,0.6c-0.4,0-0.8-0.1-0.8-0.6
					C103.9,104.6,104.3,104.4,104.8,104.4z"/>
			</g>
		</g>
		<path class="st19" d="M61.1,76.5c0.3-0.4-0.1-2.4-1.1-4.1l-3,4.1C57.8,76.8,60.6,77.3,61.1,76.5z M87.2,69.7V70c0,0,0,0,0.1,0
			c0.1,0,0.2,0,0.2,0s0.1-0.1,0.1-0.1c0-0.1-0.1-0.2-0.2-0.2L87.2,69.7L87.2,69.7z M87.6,70.6l-0.3-0.4h-0.2v0.4H87v-1h0.3
			c0.3,0,0.4,0.1,0.4,0.3c0,0.1-0.1,0.2-0.2,0.3l0.3,0.5H87.6z M88.1,70.1c0-0.2-0.1-0.4-0.2-0.5c-0.1-0.1-0.3-0.2-0.5-0.2
			s-0.4,0.1-0.5,0.2c-0.1,0.1-0.2,0.3-0.2,0.5s0.1,0.4,0.2,0.5c0.1,0.1,0.3,0.2,0.5,0.2s0.4-0.1,0.5-0.2
			C88,70.4,88.1,70.3,88.1,70.1z M86.5,70.1c0-0.2,0.1-0.4,0.2-0.6c0.2-0.2,0.4-0.2,0.6-0.2s0.4,0.1,0.6,0.2
			c0.2,0.2,0.2,0.4,0.2,0.6s-0.1,0.4-0.2,0.6c-0.2,0.2-0.4,0.2-0.6,0.2s-0.4-0.1-0.6-0.2C86.6,70.5,86.5,70.3,86.5,70.1z M85.2,72.2
			c-0.3,0-0.5,0.1-0.6,0.3c-0.2,0.2-0.2,0.4-0.2,0.7c0,0.3,0.1,0.5,0.2,0.7c0.2,0.2,0.4,0.3,0.7,0.3c0.3,0,0.5-0.1,0.6-0.3
			c0.2-0.2,0.2-0.4,0.2-0.8c0-0.3-0.1-0.5-0.2-0.7C85.7,72.3,85.5,72.2,85.2,72.2z M81.9,75.9v-2.5c0-0.5-0.1-0.8-0.2-1
			c-0.1-0.2-0.4-0.3-0.7-0.3c-0.2,0-0.4,0.1-0.5,0.2c-0.2,0.1-0.3,0.2-0.4,0.4v3.2h-0.8v-4.3h0.5l0.2,0.6c0.3-0.4,0.7-0.6,1.2-0.6
			c0.9,0,1.4,0.6,1.4,1.7v2.7H81.9z M77.3,75.9v-3.6h-0.6v-0.6h1.3v4.3H77.3z M77.8,70c0.1,0,0.2,0,0.3,0.1c0.1,0.1,0.1,0.2,0.1,0.3
			c0,0.1,0,0.2-0.1,0.3C78,70.9,77.9,71,77.8,71c-0.1,0-0.2,0-0.3-0.1c-0.1-0.1-0.1-0.2-0.1-0.3s0-0.2,0.1-0.3
			C77.5,70.1,77.6,70,77.8,70z M72.8,75.6l0.3-0.7c0.1,0.1,0.3,0.2,0.6,0.3c0.2,0.1,0.4,0.1,0.6,0.1c0.3,0,0.6-0.1,0.8-0.3
			c0.2-0.2,0.3-0.4,0.3-0.7c0-0.2-0.1-0.4-0.2-0.5c-0.1-0.2-0.4-0.4-0.8-0.6l-0.5-0.2c-0.4-0.2-0.7-0.4-0.8-0.7
			c-0.2-0.3-0.2-0.6-0.2-0.9c0-0.4,0.2-0.8,0.5-1.1S74,70,74.5,70c0.6,0,1.1,0.1,1.4,0.3L75.6,71c-0.1-0.1-0.3-0.2-0.5-0.2
			s-0.4-0.1-0.6-0.1c-0.3,0-0.5,0.1-0.6,0.2c-0.2,0.2-0.2,0.4-0.2,0.6c0,0.1,0,0.3,0.1,0.4c0.1,0.1,0.1,0.2,0.2,0.3
			c0.1,0.1,0.3,0.2,0.6,0.3l0.5,0.2c0.4,0.2,0.7,0.4,0.8,0.7c0.2,0.3,0.2,0.6,0.2,1c0,0.4-0.2,0.8-0.5,1.1c-0.4,0.3-0.8,0.5-1.4,0.5
			C73.6,76,73.2,75.9,72.8,75.6z M67.8,70.1h0.8v4c0,0.4,0.1,0.7,0.3,0.9c0.2,0.2,0.5,0.3,0.9,0.3c0.4,0,0.7-0.1,0.9-0.3
			c0.2-0.2,0.3-0.5,0.3-0.9v-4h0.8v4.1c0,0.6-0.2,1.1-0.6,1.4C71,75.8,70.5,76,69.8,76c-0.7,0-1.2-0.2-1.5-0.5
			c-0.4-0.3-0.5-0.8-0.5-1.4V70.1z M63.9,73v2.2c0.3,0,0.5,0,0.6,0c0.5,0,0.9-0.1,1.1-0.3c0.2-0.2,0.3-0.5,0.3-0.9
			c0-0.4-0.1-0.7-0.3-0.8c-0.2-0.2-0.6-0.3-1.1-0.3L63.9,73z M63.9,70.7v1.7c0.2,0,0.4,0,0.6,0c0.8,0,1.1-0.3,1.1-0.9
			c0-0.5-0.3-0.8-1-0.8C64.4,70.7,64.2,70.7,63.9,70.7z M64.8,75.9h-1.7v-5.9c0.7,0,1.2-0.1,1.5-0.1c0.6,0,1,0.1,1.3,0.4
			c0.3,0.2,0.5,0.6,0.5,1.1c0,0.3-0.1,0.5-0.3,0.7c-0.2,0.2-0.4,0.4-0.7,0.4c0.5,0.1,0.8,0.3,1,0.6c0.2,0.3,0.3,0.6,0.3,1.1
			c0,0.5-0.2,0.9-0.6,1.2C65.9,75.8,65.4,75.9,64.8,75.9z M84,76.5c0,0,0.9,0.4,1.2,0.4c0.3,0,0.6-0.1,0.8-0.2
			c0.2-0.1,0.3-0.3,0.3-0.4c0-0.3-0.3-0.5-0.8-0.5c-0.1,0-0.2,0-0.5,0.1c-0.2,0-0.4,0.1-0.5,0.1c-0.6,0-0.9-0.2-0.9-0.7
			c0-0.1,0.1-0.3,0.2-0.4c0.1-0.1,0.3-0.2,0.5-0.2c-0.6-0.3-0.9-0.8-0.9-1.5c0-0.4,0.2-0.8,0.5-1.1c0.3-0.3,0.7-0.4,1.2-0.4
			c0.4,0,0.8,0.1,1,0.3l0.4-0.5l0.5,0.5l-0.5,0.3c0.2,0.3,0.3,0.6,0.3,1c0,0.4-0.1,0.8-0.4,1.1s-0.6,0.5-1.1,0.5l-0.6,0.1
			c-0.1,0-0.2,0-0.3,0.1c-0.1,0-0.2,0.1-0.2,0.2c0,0.1,0.1,0.2,0.4,0.2c0.1,0,0.3,0,0.5-0.1c0.2,0,0.4-0.1,0.5-0.1
			c0.4,0,0.7,0.1,1,0.3c0.2,0.2,0.4,0.5,0.4,0.8c0,0.4-0.2,0.7-0.5,1c-0.4,0.2-0.8,0.4-1.3,0.4c-0.3,0-0.6,0-0.9-0.1
			c-0.1,0-0.2-0.1-0.3-0.1c-1.8-0.9-3.9-0.5-5.8-0.3c-3.9,0.4-10.7,1.7-14.4,0.9c-0.9-0.2-1.5-0.4-2.3-0.8c-1.2,1-4.5,0.2-5.7-0.2
			l1.1-1.4L55,74.1l0.4-0.6l1.9,1.4l1.3-1.8l-1.9-1.5l0.4-0.6l1.9,1.4l1-1.4c0.6,0.8,2.3,3.8,1.8,5.4c2.9,1.2,6.1,0.9,9.2,0.7
			c2.4-0.2,4.7-0.6,7.1-0.9C80.2,76.1,82.1,75.7,84,76.5z"/>
		<g>
			<g>
				<path class="st20" d="M55.2,105.2c0.1,0,0.3,0,0.4,0.1c0.1,0.1,0.1,0.2,0.1,0.3c0,0.1,0,0.3-0.1,0.4c-0.1,0.1-0.2,0.1-0.4,0.1
					c-0.1,0-0.3,0-0.4-0.1c-0.1-0.1-0.1-0.2-0.1-0.4s0-0.3,0.1-0.4C55,105.2,55.1,105.2,55.2,105.2z M54.8,111.4v-3.9h-0.6v-0.7h1.4
					v4.5H54.8z"/>
				<path class="st20" d="M59.7,111.4v-2.6c0-0.5-0.1-0.8-0.2-1c-0.1-0.2-0.4-0.3-0.7-0.3c-0.2,0-0.4,0.1-0.6,0.2
					c-0.2,0.1-0.4,0.2-0.5,0.4v3.4h-0.8v-4.5h0.6l0.3,0.6c0.3-0.4,0.7-0.7,1.3-0.7c1,0,1.5,0.6,1.5,1.8v2.8H59.7z"/>
				<path class="st20" d="M61.5,112.7l0.4-0.6c0.5,0.3,0.9,0.5,1.3,0.5c0.4,0,0.7-0.1,0.9-0.2c0.2-0.1,0.3-0.3,0.3-0.5
					c0-0.4-0.3-0.6-0.8-0.6c-0.1,0-0.3,0-0.5,0.1c-0.2,0-0.4,0.1-0.6,0.1c-0.6,0-1-0.2-1-0.7c0-0.1,0.1-0.3,0.2-0.4
					c0.2-0.1,0.3-0.2,0.6-0.3c-0.6-0.3-1-0.8-1-1.6c0-0.5,0.2-0.9,0.5-1.2c0.3-0.3,0.7-0.5,1.2-0.5c0.4,0,0.8,0.1,1,0.3l0.4-0.5
					l0.5,0.5l-0.5,0.4c0.2,0.3,0.3,0.6,0.3,1.1c0,0.5-0.1,0.8-0.4,1.2c-0.3,0.3-0.7,0.5-1.1,0.5l-0.7,0.1c-0.1,0-0.2,0-0.3,0.1
					c-0.1,0.1-0.2,0.1-0.2,0.2c0,0.1,0.1,0.2,0.4,0.2c0.1,0,0.3,0,0.6-0.1c0.3,0,0.4-0.1,0.6-0.1c0.4,0,0.8,0.1,1,0.3
					c0.3,0.2,0.4,0.5,0.4,0.9c0,0.4-0.2,0.8-0.6,1c-0.4,0.3-0.8,0.4-1.4,0.4c-0.3,0-0.6-0.1-0.9-0.2C61.9,113,61.7,112.8,61.5,112.7
					z M63.2,107.5c-0.3,0-0.5,0.1-0.7,0.3c-0.2,0.2-0.3,0.4-0.3,0.7c0,0.3,0.1,0.6,0.3,0.8c0.2,0.2,0.4,0.3,0.7,0.3
					c0.3,0,0.5-0.1,0.7-0.3c0.2-0.2,0.2-0.5,0.2-0.8c0-0.3-0.1-0.5-0.3-0.7C63.7,107.5,63.4,107.5,63.2,107.5z"/>
				<path class="st20" d="M69.8,109.2h-3.3c0,0.5,0.1,0.9,0.4,1.2c0.3,0.2,0.6,0.4,1,0.4c0.5,0,0.8-0.1,1.2-0.4l0.3,0.6
					c-0.1,0.1-0.3,0.2-0.6,0.3c-0.3,0.1-0.7,0.2-1.1,0.2c-0.6,0-1.1-0.2-1.5-0.6c-0.4-0.4-0.7-1-0.7-1.7c0-0.8,0.2-1.4,0.7-1.8
					c0.4-0.4,0.9-0.6,1.4-0.6c0.6,0,1.2,0.2,1.5,0.5c0.4,0.4,0.5,0.8,0.5,1.4C69.9,108.9,69.9,109.1,69.8,109.2z M67.9,107.5
					c-0.4,0-0.7,0.1-0.9,0.3c-0.2,0.2-0.4,0.5-0.4,0.8h2.5c0-0.3-0.1-0.6-0.3-0.8C68.6,107.6,68.3,107.5,67.9,107.5z"/>
				<path class="st20" d="M73.5,111.4v-2.6c0-0.5-0.1-0.8-0.2-1c-0.1-0.2-0.4-0.3-0.7-0.3c-0.2,0-0.4,0.1-0.6,0.2
					c-0.2,0.1-0.4,0.2-0.5,0.4v3.4h-0.8v-4.5h0.6l0.3,0.6c0.3-0.4,0.7-0.7,1.3-0.7c1,0,1.5,0.6,1.5,1.8v2.8H73.5z"/>
				<path class="st20" d="M76.3,105.2c0.1,0,0.3,0,0.4,0.1c0.1,0.1,0.1,0.2,0.1,0.3c0,0.1,0,0.3-0.1,0.4c-0.1,0.1-0.2,0.1-0.4,0.1
					c-0.1,0-0.3,0-0.4-0.1c-0.1-0.1-0.1-0.2-0.1-0.4s0-0.3,0.1-0.4C76.1,105.2,76.2,105.2,76.3,105.2z M75.9,111.4v-3.9h-0.6v-0.7
					h1.4v4.5H75.9z"/>
				<path class="st20" d="M78.7,106.9v2.9c0,0.7,0.3,1.1,0.9,1.1c0.3,0,0.5-0.1,0.7-0.2c0.2-0.2,0.4-0.3,0.4-0.5v-3.2h0.8v4.5h-0.8
					v-0.6c-0.1,0.2-0.3,0.3-0.5,0.5c-0.3,0.1-0.5,0.2-0.8,0.2c-0.5,0-0.9-0.1-1.1-0.4c-0.3-0.3-0.4-0.7-0.4-1.2v-3H78.7z"/>
				<path class="st20" d="M88,111.4v-2.9c0-0.7-0.3-1.1-0.9-1.1c-0.2,0-0.4,0.1-0.5,0.2c-0.2,0.1-0.3,0.3-0.3,0.4v3.4h-0.8v-3.2
					c0-0.2-0.1-0.4-0.3-0.5c-0.2-0.1-0.4-0.2-0.7-0.2c-0.2,0-0.3,0.1-0.5,0.2c-0.2,0.1-0.3,0.3-0.4,0.4v3.4h-0.8v-4.5h0.5l0.3,0.5
					c0.3-0.4,0.7-0.6,1.2-0.6c0.7,0,1.1,0.2,1.4,0.6c0.1-0.2,0.3-0.3,0.5-0.4c0.2-0.1,0.5-0.2,0.8-0.2c0.5,0,0.8,0.1,1.1,0.4
					c0.3,0.3,0.4,0.7,0.4,1.2v3H88z"/>
			</g>
			<path class="st21" d="M34.9,106.6l4.3,4.3h3.8l5.4-5.4l3.4,3.4l-10.8,10.8L30.4,109l2.3-2.3c-0.1-0.2-0.2-0.4-0.2-0.6
				c0-0.7,0.6-1.2,1.2-1.2s1.2,0.6,1.2,1.2C35.1,106.3,35,106.5,34.9,106.6z M41.2,98.2l3.5,3.5l-3.5,3.5l-2.4-2.4
				c-0.2,0.1-0.4,0.1-0.6,0.1c-0.7,0-1.2-0.6-1.2-1.2c0-0.7,0.6-1.2,1.2-1.2c0.2,0,0.4,0.1,0.6,0.2L41.2,98.2z M41.2,99.2l-1.9,1.9
				c0.1,0.2,0.1,0.4,0.1,0.6c0,0.2-0.1,0.4-0.2,0.6l1.9,1.9l2.5-2.5L41.2,99.2z M33.2,107.2l-1.8,1.8l9.8,9.8l9.8-9.8l-2.4-2.4
				l-5.1,5.1h-4.4l-4.5-4.5c-0.2,0.1-0.4,0.2-0.6,0.2C33.6,107.3,33.4,107.3,33.2,107.2z M46.6,104.2l-4.3,4.3H40l-3.5-3.5
				c-0.2,0.1-0.3,0.1-0.5,0.1c-0.7,0-1.2-0.6-1.2-1.2s0.6-1.2,1.2-1.2s1.2,0.6,1.2,1.2c0,0.2-0.1,0.5-0.2,0.7l3.3,3.3H42l4.4-4.4
				l0.5,0.5L46.6,104.2z"/>
		</g>
	</g>
</g>
</svg>
