<?xml version="1.0" encoding="utf-8"?>
<!-- Generator: Adobe Illustrator 23.0.5, SVG Export Plug-In . SVG Version: 6.00 Build 0)  -->
<svg version="1.1" xmlns="http://www.w3.org/2000/svg" xmlns:xlink="http://www.w3.org/1999/xlink" x="0px" y="0px" width="160px"
	 height="60px" viewBox="0 0 160 60" style="enable-background:new 0 0 160 60;" xml:space="preserve">
<style type="text/css">
	.st0{fill-rule:evenodd;clip-rule:evenodd;fill:#FFFFFF;}
	.st1{fill-rule:evenodd;clip-rule:evenodd;fill:#F9CD21;}
</style>
<g id="Background">
</g>
<g id="Guides">
</g>
<g id="Foreground">
</g>
<g id="Images">
	<g>
		<g>
			<path class="st0" d="M68.07,19.54c0.38,0,0.7,0.14,0.96,0.41c0.27,0.26,0.41,0.58,0.41,0.95c0,0.38-0.14,0.7-0.41,0.98
				c-0.26,0.26-0.58,0.39-0.96,0.39c-0.37,0-0.69-0.13-0.96-0.39c-0.26-0.27-0.39-0.6-0.39-0.98c0-0.38,0.13-0.7,0.39-0.96
				C67.37,19.67,67.69,19.54,68.07,19.54z M66.86,36.68V26.1h-1.71v-1.86h3.91v12.44H66.86z"/>
			<path class="st0" d="M80.23,36.68v-7.23c0-1.32-0.2-2.25-0.6-2.78c-0.39-0.53-1.06-0.8-2-0.8c-0.5,0-1.03,0.15-1.58,0.45
				c-0.55,0.3-0.97,0.67-1.27,1.11v9.24h-2.21V24.24h1.51l0.7,1.6c0.73-1.22,1.92-1.83,3.56-1.83c2.72,0,4.09,1.66,4.09,4.97v7.7
				H80.23z"/>
			<path class="st0" d="M85.12,40.08l1.2-1.76c1.29,0.86,2.47,1.29,3.55,1.29c1,0,1.78-0.17,2.36-0.52
				c0.58-0.34,0.87-0.77,0.87-1.28c0-1.01-0.73-1.51-2.18-1.51c-0.25,0-0.7,0.06-1.35,0.19c-0.65,0.12-1.16,0.19-1.52,0.19
				c-1.76,0-2.65-0.67-2.65-2c0-0.41,0.2-0.78,0.62-1.11c0.42-0.33,0.93-0.57,1.54-0.72c-1.75-0.82-2.62-2.24-2.62-4.27
				c0-1.3,0.45-2.38,1.36-3.25s2.02-1.3,3.36-1.3c1.22,0,2.18,0.25,2.87,0.75l1.1-1.32l1.44,1.36l-1.32,1
				c0.56,0.74,0.85,1.7,0.85,2.88c0,1.25-0.39,2.31-1.17,3.16c-0.78,0.85-1.81,1.34-3.08,1.46l-1.82,0.19
				c-0.22,0.02-0.51,0.11-0.87,0.26c-0.36,0.14-0.55,0.32-0.55,0.56c0,0.32,0.38,0.48,1.14,0.48c0.33,0,0.85-0.06,1.56-0.17
				c0.7-0.12,1.23-0.19,1.57-0.19c1.22,0,2.18,0.29,2.86,0.88c0.69,0.58,1.03,1.39,1.03,2.43c0,1.15-0.51,2.07-1.54,2.78
				c-1.02,0.7-2.32,1.06-3.89,1.06c-0.81,0-1.65-0.14-2.54-0.43C86.38,40.84,85.66,40.49,85.12,40.08z M89.8,25.78
				c-0.77,0-1.39,0.27-1.88,0.81c-0.48,0.54-0.72,1.2-0.72,1.97c0,0.87,0.23,1.59,0.7,2.16c0.47,0.57,1.11,0.85,1.9,0.85
				c0.78,0,1.39-0.27,1.83-0.82c0.44-0.56,0.66-1.29,0.66-2.18c0-0.77-0.24-1.43-0.72-1.97C91.1,26.05,90.51,25.78,89.8,25.78z"/>
			<path class="st0" d="M107.98,30.67h-8.96c0,1.46,0.4,2.57,1.2,3.36c0.7,0.68,1.61,1.02,2.72,1.02c1.26,0,2.31-0.37,3.16-1.1
				l0.93,1.59c-0.34,0.34-0.86,0.64-1.57,0.88c-0.88,0.32-1.87,0.49-2.95,0.49c-1.56,0-2.89-0.53-3.98-1.59
				c-1.22-1.17-1.82-2.74-1.82-4.71c0-2.05,0.62-3.7,1.87-4.93c1.11-1.11,2.43-1.66,3.96-1.66c1.77,0,3.16,0.5,4.17,1.5
				c0.98,0.96,1.46,2.23,1.46,3.82C108.16,29.81,108.1,30.26,107.98,30.67z M102.63,25.87c-0.98,0-1.81,0.32-2.47,0.95
				c-0.64,0.6-1,1.35-1.08,2.25h6.89c0-0.89-0.28-1.63-0.84-2.23C104.51,26.19,103.68,25.87,102.63,25.87z"/>
			<path class="st0" d="M118.13,36.68v-7.23c0-1.32-0.2-2.25-0.6-2.78c-0.39-0.53-1.06-0.8-2-0.8c-0.5,0-1.03,0.15-1.58,0.45
				c-0.55,0.3-0.97,0.67-1.27,1.11v9.24h-2.21V24.24h1.51l0.7,1.6c0.73-1.22,1.92-1.83,3.56-1.83c2.72,0,4.09,1.66,4.09,4.97v7.7
				H118.13z"/>
			<path class="st0" d="M125.75,19.54c0.38,0,0.7,0.14,0.96,0.41c0.27,0.26,0.41,0.58,0.41,0.95c0,0.38-0.14,0.7-0.41,0.98
				c-0.26,0.26-0.58,0.39-0.96,0.39c-0.37,0-0.69-0.13-0.96-0.39c-0.26-0.27-0.39-0.6-0.39-0.98c0-0.38,0.13-0.7,0.39-0.96
				C125.05,19.67,125.37,19.54,125.75,19.54z M124.54,36.68V26.1h-1.71v-1.86h3.91v12.44H124.54z"/>
			<path class="st0" d="M132.34,24.24v7.93c0,1.92,0.83,2.88,2.5,2.88c0.73,0,1.39-0.21,2-0.63c0.6-0.42,1-0.9,1.2-1.45v-8.73h2.21
				v12.44h-2.21v-1.72c-0.25,0.49-0.75,0.94-1.5,1.35c-0.74,0.4-1.47,0.6-2.18,0.6c-1.36,0-2.41-0.39-3.14-1.17
				c-0.72-0.78-1.08-1.89-1.08-3.33v-8.16H132.34z"/>
			<path class="st0" d="M157.65,36.68V28.8c0-1.96-0.85-2.94-2.54-2.94c-0.53,0-1.03,0.17-1.5,0.5c-0.46,0.33-0.78,0.7-0.95,1.11
				v9.2h-2.21v-8.84c0-0.61-0.23-1.09-0.7-1.44c-0.46-0.36-1.06-0.53-1.82-0.53c-0.44,0-0.91,0.17-1.42,0.51
				c-0.5,0.34-0.85,0.72-1.06,1.13v9.17h-2.21V24.24h1.44l0.73,1.44c0.85-1.11,1.92-1.67,3.19-1.67c1.78,0,3.03,0.55,3.74,1.66
				c0.25-0.47,0.71-0.87,1.38-1.18c0.67-0.32,1.37-0.48,2.08-0.48c1.29,0,2.28,0.38,2.98,1.15c0.7,0.76,1.06,1.83,1.06,3.2v8.31
				H157.65z"/>
		</g>
		<path class="st1" d="M12.53,23.58l11.81,11.81h10.5L49.63,20.6l9.4,9.4L29.59,59.44L0.15,30l6.33-6.33
			c-0.26-0.49-0.42-1.04-0.42-1.63c0-1.89,1.53-3.42,3.42-3.42s3.42,1.53,3.42,3.42C12.9,22.59,12.77,23.11,12.53,23.58z
			 M29.59,0.56l9.6,9.6l-9.6,9.6l-6.62-6.62c-0.45,0.22-0.97,0.35-1.51,0.35c-1.89,0-3.42-1.53-3.42-3.42s1.53-3.42,3.42-3.42
			c0.59,0,1.15,0.15,1.63,0.41L29.59,0.56z M29.59,3.32l-5.12,5.12c0.26,0.48,0.41,1.03,0.41,1.62c0,0.63-0.17,1.23-0.47,1.74
			l5.19,5.19l6.83-6.83L29.59,3.32z M7.87,25.04L2.91,30l26.68,26.68L56.27,30l-6.64-6.64L35.65,37.34H23.53L11.18,25
			c-0.5,0.29-1.08,0.45-1.7,0.45C8.9,25.45,8.35,25.3,7.87,25.04z M44.56,16.91L32.72,28.75h-6.26l-9.59-9.59
			c-0.43,0.19-0.9,0.3-1.4,0.3c-1.89,0-3.42-1.53-3.42-3.42c0-1.89,1.53-3.42,3.42-3.42s3.42,1.53,3.42,3.42
			c0,0.67-0.2,1.3-0.53,1.83l8.92,8.92h4.64l11.96-11.96l1.38,1.38L44.56,16.91z"/>
	</g>
</g>
</svg>
