<?xml version="1.0" encoding="utf-8"?>
<!-- Generator: Adobe Illustrator 24.3.0, SVG Export Plug-In . SVG Version: 6.00 Build 0)  -->
<svg version="1.1" id="Foreground" xmlns="http://www.w3.org/2000/svg" xmlns:xlink="http://www.w3.org/1999/xlink" x="0px" y="0px"
	 viewBox="0 0 462 261.4" style="enable-background:new 0 0 462 261.4;" xml:space="preserve">
<style type="text/css">
	.st0{fill-rule:evenodd;clip-rule:evenodd;fill:#314A7D;stroke:#1A171B;stroke-width:0.5;stroke-miterlimit:3.8637;}
	.st1{fill:#312F32;stroke:#1A171B;stroke-width:0.5;stroke-miterlimit:3.8637;}
	.st2{fill-rule:evenodd;clip-rule:evenodd;fill:#E8E8E8;stroke:#1A171B;stroke-width:0.5;stroke-miterlimit:3.8637;}
	.st3{fill-rule:evenodd;clip-rule:evenodd;fill:#007F50;stroke:#1A171B;stroke-width:0.5;stroke-miterlimit:3.8637;}
	.st4{fill-rule:evenodd;clip-rule:evenodd;fill:#195A39;stroke:#1A171B;stroke-width:0.5;stroke-miterlimit:3.8637;}
	.st5{fill:#00A768;stroke:#1A171B;stroke-width:0.5;stroke-miterlimit:3.8637;}
	.st6{clip-path:url(#SVGID_4_);}
	.st7{clip-path:url(#SVGID_5_);}
	
		.st8{clip-path:url(#SVGID_6_);fill-rule:evenodd;clip-rule:evenodd;fill:#D1D1D1;stroke:#1A171B;stroke-width:0.5;stroke-miterlimit:3.8637;}
	.st9{clip-path:url(#SVGID_10_);}
	.st10{clip-path:url(#SVGID_11_);}
	
		.st11{clip-path:url(#SVGID_12_);fill-rule:evenodd;clip-rule:evenodd;fill:#D1D1D1;stroke:#1A171B;stroke-width:0.5;stroke-miterlimit:3.8637;}
	.st12{fill-rule:evenodd;clip-rule:evenodd;fill:#9C2828;stroke:#1A171B;stroke-width:0.5;stroke-miterlimit:3.8637;}
	.st13{fill-rule:evenodd;clip-rule:evenodd;fill:#BE091E;stroke:#1A171B;stroke-width:0.5;stroke-miterlimit:3.8637;}
	.st14{clip-path:url(#SVGID_16_);}
	.st15{clip-path:url(#SVGID_17_);}
	
		.st16{clip-path:url(#SVGID_18_);fill-rule:evenodd;clip-rule:evenodd;fill:#D1D1D1;stroke:#1A171B;stroke-width:0.5;stroke-miterlimit:3.8637;}
	.st17{clip-path:url(#SVGID_22_);}
	.st18{clip-path:url(#SVGID_23_);}
	
		.st19{clip-path:url(#SVGID_24_);fill-rule:evenodd;clip-rule:evenodd;fill:#D1D1D1;stroke:#1A171B;stroke-width:0.5;stroke-miterlimit:3.8637;}
	.st20{clip-path:url(#SVGID_28_);}
	.st21{clip-path:url(#SVGID_29_);}
	
		.st22{clip-path:url(#SVGID_30_);fill-rule:evenodd;clip-rule:evenodd;fill:#D1D1D1;stroke:#1A171B;stroke-width:0.5;stroke-miterlimit:3.8637;}
	.st23{clip-path:url(#SVGID_34_);}
	.st24{clip-path:url(#SVGID_35_);}
	
		.st25{clip-path:url(#SVGID_36_);fill-rule:evenodd;clip-rule:evenodd;fill:#D1D1D1;stroke:#1A171B;stroke-width:0.5;stroke-miterlimit:3.8637;}
	.st26{fill-rule:evenodd;clip-rule:evenodd;fill:none;stroke:#1A171B;stroke-width:0.5;stroke-miterlimit:3.8637;}
	.st27{fill-rule:evenodd;clip-rule:evenodd;fill:#312F32;stroke:#1A171B;stroke-width:0.5;stroke-miterlimit:3.8637;}
	.st28{fill-rule:evenodd;clip-rule:evenodd;fill:#00A768;stroke:#1A171B;stroke-width:0.5;stroke-miterlimit:3.8637;}
	.st29{clip-path:url(#SVGID_40_);}
	.st30{clip-path:url(#SVGID_41_);}
	
		.st31{clip-path:url(#SVGID_42_);fill-rule:evenodd;clip-rule:evenodd;fill:#D1D1D1;stroke:#1A171B;stroke-width:0.5;stroke-miterlimit:3.8637;}
	.st32{clip-path:url(#SVGID_46_);}
	.st33{clip-path:url(#SVGID_47_);}
	
		.st34{clip-path:url(#SVGID_48_);fill-rule:evenodd;clip-rule:evenodd;fill:#D1D1D1;stroke:#1A171B;stroke-width:0.5;stroke-miterlimit:3.8637;}
	.st35{clip-path:url(#SVGID_52_);}
	.st36{clip-path:url(#SVGID_53_);}
	
		.st37{clip-path:url(#SVGID_54_);fill-rule:evenodd;clip-rule:evenodd;fill:#D1D1D1;stroke:#1A171B;stroke-width:0.5;stroke-miterlimit:3.8637;}
	.st38{clip-path:url(#SVGID_58_);}
	.st39{clip-path:url(#SVGID_59_);}
	
		.st40{clip-path:url(#SVGID_60_);fill-rule:evenodd;clip-rule:evenodd;fill:#D1D1D1;stroke:#1A171B;stroke-width:0.5;stroke-miterlimit:3.8637;}
	.st41{clip-path:url(#SVGID_64_);}
	.st42{clip-path:url(#SVGID_65_);}
	
		.st43{clip-path:url(#SVGID_66_);fill-rule:evenodd;clip-rule:evenodd;fill:#D1D1D1;stroke:#1A171B;stroke-width:0.5;stroke-miterlimit:3.8637;}
	.st44{clip-path:url(#SVGID_70_);}
	.st45{clip-path:url(#SVGID_71_);}
	
		.st46{clip-path:url(#SVGID_72_);fill-rule:evenodd;clip-rule:evenodd;fill:#D1D1D1;stroke:#1A171B;stroke-width:0.5;stroke-miterlimit:3.8637;}
	.st47{clip-path:url(#SVGID_76_);}
	.st48{clip-path:url(#SVGID_77_);}
	
		.st49{clip-path:url(#SVGID_78_);fill-rule:evenodd;clip-rule:evenodd;fill:#D1D1D1;stroke:#1A171B;stroke-width:0.5;stroke-miterlimit:3.8637;}
	.st50{clip-path:url(#SVGID_82_);}
	.st51{clip-path:url(#SVGID_83_);}
	
		.st52{clip-path:url(#SVGID_84_);fill-rule:evenodd;clip-rule:evenodd;fill:#D1D1D1;stroke:#1A171B;stroke-width:0.5;stroke-miterlimit:3.8637;}
	.st53{fill-rule:evenodd;clip-rule:evenodd;fill:#E4E3E4;stroke:#1A171B;stroke-width:0.5;stroke-miterlimit:3.8637;}
	.st54{fill-rule:evenodd;clip-rule:evenodd;fill:#D6D5D6;stroke:#1A171B;stroke-width:0.5;stroke-miterlimit:3.8637;}
	.st55{fill:#D6D5D6;stroke:#1A171B;stroke-width:0.5;stroke-miterlimit:3.8637;}
	.st56{fill-rule:evenodd;clip-rule:evenodd;fill:#3C3A3E;stroke:#1A171B;stroke-width:0.5;stroke-miterlimit:3.8637;}
	.st57{fill-rule:evenodd;clip-rule:evenodd;fill:#484649;stroke:#1A171B;stroke-width:0.5;stroke-miterlimit:3.8637;}
	.st58{clip-path:url(#SVGID_88_);}
	.st59{clip-path:url(#SVGID_89_);}
	
		.st60{clip-path:url(#SVGID_90_);fill-rule:evenodd;clip-rule:evenodd;fill:#D1D1D1;stroke:#1A171B;stroke-width:0.5;stroke-miterlimit:3.8637;}
	.st61{clip-path:url(#SVGID_94_);}
	.st62{clip-path:url(#SVGID_95_);}
	
		.st63{clip-path:url(#SVGID_96_);fill-rule:evenodd;clip-rule:evenodd;fill:#D1D1D1;stroke:#1A171B;stroke-width:0.5;stroke-miterlimit:3.8637;}
	.st64{clip-path:url(#SVGID_100_);}
	.st65{clip-path:url(#SVGID_101_);}
	
		.st66{clip-path:url(#SVGID_102_);fill-rule:evenodd;clip-rule:evenodd;fill:#D1D1D1;stroke:#1A171B;stroke-width:0.5;stroke-miterlimit:3.8637;}
	.st67{clip-path:url(#SVGID_106_);}
	.st68{clip-path:url(#SVGID_107_);}
	
		.st69{clip-path:url(#SVGID_108_);fill-rule:evenodd;clip-rule:evenodd;fill:#D1D1D1;stroke:#1A171B;stroke-width:0.5;stroke-miterlimit:3.8637;}
	.st70{clip-path:url(#SVGID_112_);}
	.st71{clip-path:url(#SVGID_113_);}
	
		.st72{clip-path:url(#SVGID_114_);fill-rule:evenodd;clip-rule:evenodd;fill:#D1D1D1;stroke:#1A171B;stroke-width:0.5;stroke-miterlimit:3.8637;}
	.st73{clip-path:url(#SVGID_118_);}
	.st74{clip-path:url(#SVGID_119_);}
	
		.st75{clip-path:url(#SVGID_120_);fill-rule:evenodd;clip-rule:evenodd;fill:#D1D1D1;stroke:#1A171B;stroke-width:0.5;stroke-miterlimit:3.8637;}
	.st76{fill-rule:evenodd;clip-rule:evenodd;fill:#FFFFFF;}
	.st77{fill-rule:evenodd;clip-rule:evenodd;fill:#003E77;}
	.st78{fill:#FFD616;}
	.st79{fill:none;stroke:#003E77;stroke-width:0.25;stroke-miterlimit:3.8637;}
	.st80{fill:none;stroke:#003E77;stroke-width:1.0001;stroke-linejoin:round;stroke-miterlimit:3.8637;}
	.st81{fill-rule:evenodd;clip-rule:evenodd;fill:none;stroke:#003E77;stroke-width:1.0001;stroke-miterlimit:3.8637;}
	.st82{fill-rule:evenodd;clip-rule:evenodd;fill:none;stroke:#FFFFFF;stroke-width:0.7553;stroke-miterlimit:3.8637;}
</style>
<g>
	<rect x="0.3" y="0.3" class="st0" width="201.3" height="252.3"/>
	<g>
		<polygon class="st1" points="85.3,252.6 91,252.6 91,256.8 110.8,256.8 110.8,252.6 116.5,252.6 116.5,261.1 85.3,261.1 		"/>
		<rect x="116.5" y="252.6" class="st2" width="2.1" height="4.3"/>
		<rect x="83.2" y="252.6" class="st2" width="2.1" height="4.3"/>
	</g>
	<g>
		<rect x="17.3" y="4.5" class="st3" width="53.9" height="35.4"/>
		<rect x="54.1" y="36.3" class="st4" width="5.7" height="3.7"/>
		<rect x="28.6" y="36.3" class="st4" width="5.7" height="3.7"/>
		<path class="st5" d="M17.3,15.5h53.9v18.9H17.3V15.5z M22.2,24.8c0-2.9,1.3-5.5,3.4-7.2h-6.1v14.6h6.4
			C23.6,30.5,22.2,27.8,22.2,24.8z M62.8,17.6c2.1,1.7,3.4,4.3,3.4,7.2c0,3-1.4,5.7-3.7,7.4H69V17.6H62.8z M47.6,24.8
			c0-2.9,1.3-5.5,3.4-7.2H37.4c2.1,1.7,3.4,4.3,3.4,7.2c0,3-1.4,5.7-3.7,7.4h14.1C49,30.5,47.6,27.8,47.6,24.8z"/>
		<g>
			<defs>
				<path id="SVGID_1_" d="M49.9,24.8c0-3.9,3.2-7.1,7.1-7.1s7.1,3.2,7.1,7.1c0,3.9-3.2,7.1-7.1,7.1S49.9,28.7,49.9,24.8z"/>
			</defs>
			<defs>
				<path id="SVGID_2_" d="M49.9,24.8c0-3.9,3.2-7.1,7.1-7.1s7.1,3.2,7.1,7.1c0,3.9-3.2,7.1-7.1,7.1S49.9,28.7,49.9,24.8z"/>
			</defs>
			<defs>
				<path id="SVGID_3_" d="M49.9,24.8c0-3.9,3.2-7.1,7.1-7.1s7.1,3.2,7.1,7.1c0,3.9-3.2,7.1-7.1,7.1S49.9,28.7,49.9,24.8z"/>
			</defs>
			<use xlink:href="#SVGID_1_"  style="overflow:visible;fill-rule:evenodd;clip-rule:evenodd;fill:#FFFFFF;"/>
			<clipPath id="SVGID_4_">
				<use xlink:href="#SVGID_1_"  style="overflow:visible;"/>
			</clipPath>
			<clipPath id="SVGID_5_" class="st6">
				<use xlink:href="#SVGID_2_"  style="overflow:visible;"/>
			</clipPath>
			<clipPath id="SVGID_6_" class="st7">
				<use xlink:href="#SVGID_3_"  style="overflow:visible;"/>
			</clipPath>
			<rect x="48.5" y="23.4" transform="matrix(0.707 -0.7072 0.7072 0.707 -0.8304 47.5532)" class="st8" width="17" height="2.8"/>
			
				<use xlink:href="#SVGID_3_"  style="overflow:visible;fill-rule:evenodd;clip-rule:evenodd;fill:none;stroke:#1A171B;stroke-width:0.5;stroke-miterlimit:3.8637;"/>
		</g>
		<g>
			<defs>
				<path id="SVGID_7_" d="M24.4,24.8c0-3.9,3.2-7.1,7.1-7.1s7.1,3.2,7.1,7.1c0,3.9-3.2,7.1-7.1,7.1S24.4,28.7,24.4,24.8z"/>
			</defs>
			<defs>
				<path id="SVGID_8_" d="M24.4,24.8c0-3.9,3.2-7.1,7.1-7.1s7.1,3.2,7.1,7.1c0,3.9-3.2,7.1-7.1,7.1S24.4,28.7,24.4,24.8z"/>
			</defs>
			<defs>
				<path id="SVGID_9_" d="M24.4,24.8c0-3.9,3.2-7.1,7.1-7.1s7.1,3.2,7.1,7.1c0,3.9-3.2,7.1-7.1,7.1S24.4,28.7,24.4,24.8z"/>
			</defs>
			<use xlink:href="#SVGID_7_"  style="overflow:visible;fill-rule:evenodd;clip-rule:evenodd;fill:#FFFFFF;"/>
			<clipPath id="SVGID_10_">
				<use xlink:href="#SVGID_7_"  style="overflow:visible;"/>
			</clipPath>
			<clipPath id="SVGID_11_" class="st9">
				<use xlink:href="#SVGID_8_"  style="overflow:visible;"/>
			</clipPath>
			<clipPath id="SVGID_12_" class="st10">
				<use xlink:href="#SVGID_9_"  style="overflow:visible;"/>
			</clipPath>
			<rect x="23" y="23.4" transform="matrix(0.707 -0.7072 0.7072 0.707 -8.3048 29.5114)" class="st11" width="17" height="2.8"/>
			
				<use xlink:href="#SVGID_9_"  style="overflow:visible;fill-rule:evenodd;clip-rule:evenodd;fill:none;stroke:#1A171B;stroke-width:0.5;stroke-miterlimit:3.8637;"/>
		</g>
	</g>
	<g>
		<rect x="13.8" y="212.9" class="st12" width="57.5" height="35.4"/>
		<rect x="13.8" y="225.6" class="st13" width="57.5" height="17"/>
		<g>
			<defs>
				<path id="SVGID_13_" d="M58.9,233c0-3.1,2.5-5.7,5.7-5.7s5.7,2.5,5.7,5.7c0,3.1-2.5,5.7-5.7,5.7S58.9,236.2,58.9,233z"/>
			</defs>
			<defs>
				<path id="SVGID_14_" d="M58.9,233c0-3.1,2.5-5.7,5.7-5.7s5.7,2.5,5.7,5.7c0,3.1-2.5,5.7-5.7,5.7S58.9,236.2,58.9,233z"/>
			</defs>
			<defs>
				<path id="SVGID_15_" d="M58.9,233c0-3.1,2.5-5.7,5.7-5.7s5.7,2.5,5.7,5.7c0,3.1-2.5,5.7-5.7,5.7S58.9,236.2,58.9,233z"/>
			</defs>
			<use xlink:href="#SVGID_13_"  style="overflow:visible;fill-rule:evenodd;clip-rule:evenodd;fill:#FFFFFF;"/>
			<clipPath id="SVGID_16_">
				<use xlink:href="#SVGID_13_"  style="overflow:visible;"/>
			</clipPath>
			<clipPath id="SVGID_17_" class="st14">
				<use xlink:href="#SVGID_14_"  style="overflow:visible;"/>
			</clipPath>
			<clipPath id="SVGID_18_" class="st15">
				<use xlink:href="#SVGID_15_"  style="overflow:visible;"/>
			</clipPath>
			
				<rect x="63.5" y="226.8" transform="matrix(0.7071 -0.7071 0.7071 0.7071 -145.8553 113.9405)" class="st16" width="2.3" height="12.4"/>
			
				<use xlink:href="#SVGID_15_"  style="overflow:visible;fill-rule:evenodd;clip-rule:evenodd;fill:none;stroke:#1A171B;stroke-width:0.5;stroke-miterlimit:3.8637;"/>
		</g>
		<g>
			<defs>
				<path id="SVGID_19_" d="M44.4,233c0-3.1,2.5-5.7,5.7-5.7s5.7,2.5,5.7,5.7c0,3.1-2.5,5.7-5.7,5.7S44.4,236.2,44.4,233z"/>
			</defs>
			<defs>
				<path id="SVGID_20_" d="M44.4,233c0-3.1,2.5-5.7,5.7-5.7s5.7,2.5,5.7,5.7c0,3.1-2.5,5.7-5.7,5.7S44.4,236.2,44.4,233z"/>
			</defs>
			<defs>
				<path id="SVGID_21_" d="M44.4,233c0-3.1,2.5-5.7,5.7-5.7s5.7,2.5,5.7,5.7c0,3.1-2.5,5.7-5.7,5.7S44.4,236.2,44.4,233z"/>
			</defs>
			<use xlink:href="#SVGID_19_"  style="overflow:visible;fill-rule:evenodd;clip-rule:evenodd;fill:#FFFFFF;"/>
			<clipPath id="SVGID_22_">
				<use xlink:href="#SVGID_19_"  style="overflow:visible;"/>
			</clipPath>
			<clipPath id="SVGID_23_" class="st17">
				<use xlink:href="#SVGID_20_"  style="overflow:visible;"/>
			</clipPath>
			<clipPath id="SVGID_24_" class="st18">
				<use xlink:href="#SVGID_21_"  style="overflow:visible;"/>
			</clipPath>
			
				<rect x="48.9" y="226.8" transform="matrix(0.7071 -0.7071 0.7071 0.7071 -150.1282 103.6355)" class="st19" width="2.3" height="12.4"/>
			
				<use xlink:href="#SVGID_21_"  style="overflow:visible;fill-rule:evenodd;clip-rule:evenodd;fill:none;stroke:#1A171B;stroke-width:0.5;stroke-miterlimit:3.8637;"/>
		</g>
		<g>
			<defs>
				<path id="SVGID_25_" d="M29.8,233c0-3.1,2.5-5.7,5.7-5.7s5.7,2.5,5.7,5.7c0,3.1-2.5,5.7-5.7,5.7S29.8,236.2,29.8,233z"/>
			</defs>
			<defs>
				<path id="SVGID_26_" d="M29.8,233c0-3.1,2.5-5.7,5.7-5.7s5.7,2.5,5.7,5.7c0,3.1-2.5,5.7-5.7,5.7S29.8,236.2,29.8,233z"/>
			</defs>
			<defs>
				<path id="SVGID_27_" d="M29.8,233c0-3.1,2.5-5.7,5.7-5.7s5.7,2.5,5.7,5.7c0,3.1-2.5,5.7-5.7,5.7S29.8,236.2,29.8,233z"/>
			</defs>
			<use xlink:href="#SVGID_25_"  style="overflow:visible;fill-rule:evenodd;clip-rule:evenodd;fill:#FFFFFF;"/>
			<clipPath id="SVGID_28_">
				<use xlink:href="#SVGID_25_"  style="overflow:visible;"/>
			</clipPath>
			<clipPath id="SVGID_29_" class="st20">
				<use xlink:href="#SVGID_26_"  style="overflow:visible;"/>
			</clipPath>
			<clipPath id="SVGID_30_" class="st21">
				<use xlink:href="#SVGID_27_"  style="overflow:visible;"/>
			</clipPath>
			
				<rect x="34.3" y="226.8" transform="matrix(0.7071 -0.7071 0.7071 0.7071 -154.3955 93.3247)" class="st22" width="2.3" height="12.4"/>
			
				<use xlink:href="#SVGID_27_"  style="overflow:visible;fill-rule:evenodd;clip-rule:evenodd;fill:none;stroke:#1A171B;stroke-width:0.5;stroke-miterlimit:3.8637;"/>
		</g>
		<g>
			<defs>
				<path id="SVGID_31_" d="M15.2,233c0-3.1,2.5-5.7,5.7-5.7s5.7,2.5,5.7,5.7c0,3.1-2.5,5.7-5.7,5.7S15.2,236.2,15.2,233z"/>
			</defs>
			<defs>
				<path id="SVGID_32_" d="M15.2,233c0-3.1,2.5-5.7,5.7-5.7s5.7,2.5,5.7,5.7c0,3.1-2.5,5.7-5.7,5.7S15.2,236.2,15.2,233z"/>
			</defs>
			<defs>
				<path id="SVGID_33_" d="M15.2,233c0-3.1,2.5-5.7,5.7-5.7s5.7,2.5,5.7,5.7c0,3.1-2.5,5.7-5.7,5.7S15.2,236.2,15.2,233z"/>
			</defs>
			<use xlink:href="#SVGID_31_"  style="overflow:visible;fill-rule:evenodd;clip-rule:evenodd;fill:#FFFFFF;"/>
			<clipPath id="SVGID_34_">
				<use xlink:href="#SVGID_31_"  style="overflow:visible;"/>
			</clipPath>
			<clipPath id="SVGID_35_" class="st23">
				<use xlink:href="#SVGID_32_"  style="overflow:visible;"/>
			</clipPath>
			<clipPath id="SVGID_36_" class="st24">
				<use xlink:href="#SVGID_33_"  style="overflow:visible;"/>
			</clipPath>
			
				<rect x="19.7" y="226.8" transform="matrix(0.7071 -0.7071 0.7071 0.7071 -158.6631 83.0139)" class="st25" width="2.3" height="12.4"/>
			
				<use xlink:href="#SVGID_33_"  style="overflow:visible;fill-rule:evenodd;clip-rule:evenodd;fill:none;stroke:#1A171B;stroke-width:0.5;stroke-miterlimit:3.8637;"/>
		</g>
		<rect x="18" y="215.7" class="st26" width="5.7" height="5.7"/>
		<rect x="32.6" y="215.7" class="st26" width="5.7" height="5.7"/>
		<rect x="47.2" y="215.7" class="st26" width="5.7" height="5.7"/>
		<rect x="61.8" y="215.7" class="st26" width="5.7" height="5.7"/>
		<rect x="18" y="212.9" class="st27" width="5.7" height="2.8"/>
		<rect x="32.6" y="212.9" class="st27" width="5.7" height="2.8"/>
		<rect x="47.2" y="212.9" class="st27" width="5.7" height="2.8"/>
		<rect x="61.8" y="212.9" class="st27" width="5.7" height="2.8"/>
		<rect x="13.8" y="245.5" class="st12" width="57.5" height="2.8"/>
	</g>
	<g>
		<rect x="72.6" y="4.5" class="st28" width="116.2" height="35.4"/>
		<rect x="72.6" y="10.2" class="st28" width="116.2" height="17"/>
		<g>
			<defs>
				<path id="SVGID_37_" d="M74,19.8c0-3.1,2.5-5.7,5.7-5.7s5.7,2.5,5.7,5.7c0,3.1-2.5,5.7-5.7,5.7S74,22.9,74,19.8z"/>
			</defs>
			<defs>
				<path id="SVGID_38_" d="M74,19.8c0-3.1,2.5-5.7,5.7-5.7s5.7,2.5,5.7,5.7c0,3.1-2.5,5.7-5.7,5.7S74,22.9,74,19.8z"/>
			</defs>
			<defs>
				<path id="SVGID_39_" d="M74,19.8c0-3.1,2.5-5.7,5.7-5.7s5.7,2.5,5.7,5.7c0,3.1-2.5,5.7-5.7,5.7S74,22.9,74,19.8z"/>
			</defs>
			<use xlink:href="#SVGID_37_"  style="overflow:visible;fill-rule:evenodd;clip-rule:evenodd;fill:#FFFFFF;"/>
			<clipPath id="SVGID_40_">
				<use xlink:href="#SVGID_37_"  style="overflow:visible;"/>
			</clipPath>
			<clipPath id="SVGID_41_" class="st29">
				<use xlink:href="#SVGID_38_"  style="overflow:visible;"/>
			</clipPath>
			<clipPath id="SVGID_42_" class="st30">
				<use xlink:href="#SVGID_39_"  style="overflow:visible;"/>
			</clipPath>
			
				<rect x="78.6" y="13.6" transform="matrix(0.7071 -0.7071 0.7071 0.7071 9.3258 62.1551)" class="st31" width="2.3" height="12.4"/>
			
				<use xlink:href="#SVGID_39_"  style="overflow:visible;fill-rule:evenodd;clip-rule:evenodd;fill:none;stroke:#1A171B;stroke-width:0.5;stroke-miterlimit:3.8637;"/>
		</g>
		<g>
			<defs>
				<path id="SVGID_43_" d="M88.6,19.8c0-3.1,2.5-5.7,5.7-5.7s5.7,2.5,5.7,5.7c0,3.1-2.5,5.7-5.7,5.7S88.6,22.9,88.6,19.8z"/>
			</defs>
			<defs>
				<path id="SVGID_44_" d="M88.6,19.8c0-3.1,2.5-5.7,5.7-5.7s5.7,2.5,5.7,5.7c0,3.1-2.5,5.7-5.7,5.7S88.6,22.9,88.6,19.8z"/>
			</defs>
			<defs>
				<path id="SVGID_45_" d="M88.6,19.8c0-3.1,2.5-5.7,5.7-5.7s5.7,2.5,5.7,5.7c0,3.1-2.5,5.7-5.7,5.7S88.6,22.9,88.6,19.8z"/>
			</defs>
			<use xlink:href="#SVGID_43_"  style="overflow:visible;fill-rule:evenodd;clip-rule:evenodd;fill:#FFFFFF;"/>
			<clipPath id="SVGID_46_">
				<use xlink:href="#SVGID_43_"  style="overflow:visible;"/>
			</clipPath>
			<clipPath id="SVGID_47_" class="st32">
				<use xlink:href="#SVGID_44_"  style="overflow:visible;"/>
			</clipPath>
			<clipPath id="SVGID_48_" class="st33">
				<use xlink:href="#SVGID_45_"  style="overflow:visible;"/>
			</clipPath>
			
				<rect x="93.1" y="13.6" transform="matrix(0.7071 -0.7071 0.7071 0.7071 13.5991 72.4601)" class="st34" width="2.3" height="12.4"/>
			
				<use xlink:href="#SVGID_45_"  style="overflow:visible;fill-rule:evenodd;clip-rule:evenodd;fill:none;stroke:#1A171B;stroke-width:0.5;stroke-miterlimit:3.8637;"/>
		</g>
		<g>
			<defs>
				<path id="SVGID_49_" d="M103.2,19.8c0-3.1,2.5-5.7,5.7-5.7s5.7,2.5,5.7,5.7c0,3.1-2.5,5.7-5.7,5.7S103.2,22.9,103.2,19.8z"/>
			</defs>
			<defs>
				<path id="SVGID_50_" d="M103.2,19.8c0-3.1,2.5-5.7,5.7-5.7s5.7,2.5,5.7,5.7c0,3.1-2.5,5.7-5.7,5.7S103.2,22.9,103.2,19.8z"/>
			</defs>
			<defs>
				<path id="SVGID_51_" d="M103.2,19.8c0-3.1,2.5-5.7,5.7-5.7s5.7,2.5,5.7,5.7c0,3.1-2.5,5.7-5.7,5.7S103.2,22.9,103.2,19.8z"/>
			</defs>
			<use xlink:href="#SVGID_49_"  style="overflow:visible;fill-rule:evenodd;clip-rule:evenodd;fill:#FFFFFF;"/>
			<clipPath id="SVGID_52_">
				<use xlink:href="#SVGID_49_"  style="overflow:visible;"/>
			</clipPath>
			<clipPath id="SVGID_53_" class="st35">
				<use xlink:href="#SVGID_50_"  style="overflow:visible;"/>
			</clipPath>
			<clipPath id="SVGID_54_" class="st36">
				<use xlink:href="#SVGID_51_"  style="overflow:visible;"/>
			</clipPath>
			
				<rect x="107.7" y="13.6" transform="matrix(0.7071 -0.7071 0.7071 0.7071 17.866 82.7711)" class="st37" width="2.3" height="12.4"/>
			
				<use xlink:href="#SVGID_51_"  style="overflow:visible;fill-rule:evenodd;clip-rule:evenodd;fill:none;stroke:#1A171B;stroke-width:0.5;stroke-miterlimit:3.8637;"/>
		</g>
		<g>
			<defs>
				<path id="SVGID_55_" d="M117.8,19.8c0-3.1,2.5-5.7,5.7-5.7s5.7,2.5,5.7,5.7c0,3.1-2.5,5.7-5.7,5.7S117.8,22.9,117.8,19.8z"/>
			</defs>
			<defs>
				<path id="SVGID_56_" d="M117.8,19.8c0-3.1,2.5-5.7,5.7-5.7s5.7,2.5,5.7,5.7c0,3.1-2.5,5.7-5.7,5.7S117.8,22.9,117.8,19.8z"/>
			</defs>
			<defs>
				<path id="SVGID_57_" d="M117.8,19.8c0-3.1,2.5-5.7,5.7-5.7s5.7,2.5,5.7,5.7c0,3.1-2.5,5.7-5.7,5.7S117.8,22.9,117.8,19.8z"/>
			</defs>
			<use xlink:href="#SVGID_55_"  style="overflow:visible;fill-rule:evenodd;clip-rule:evenodd;fill:#FFFFFF;"/>
			<clipPath id="SVGID_58_">
				<use xlink:href="#SVGID_55_"  style="overflow:visible;"/>
			</clipPath>
			<clipPath id="SVGID_59_" class="st38">
				<use xlink:href="#SVGID_56_"  style="overflow:visible;"/>
			</clipPath>
			<clipPath id="SVGID_60_" class="st39">
				<use xlink:href="#SVGID_57_"  style="overflow:visible;"/>
			</clipPath>
			
				<rect x="122.3" y="13.6" transform="matrix(0.7071 -0.7071 0.7071 0.7071 22.1393 93.076)" class="st40" width="2.3" height="12.4"/>
			
				<use xlink:href="#SVGID_57_"  style="overflow:visible;fill-rule:evenodd;clip-rule:evenodd;fill:none;stroke:#1A171B;stroke-width:0.5;stroke-miterlimit:3.8637;"/>
		</g>
		<g>
			<defs>
				<path id="SVGID_61_" d="M132.3,19.8c0-3.1,2.5-5.7,5.7-5.7s5.7,2.5,5.7,5.7c0,3.1-2.5,5.7-5.7,5.7S132.3,22.9,132.3,19.8z"/>
			</defs>
			<defs>
				<path id="SVGID_62_" d="M132.3,19.8c0-3.1,2.5-5.7,5.7-5.7s5.7,2.5,5.7,5.7c0,3.1-2.5,5.7-5.7,5.7S132.3,22.9,132.3,19.8z"/>
			</defs>
			<defs>
				<path id="SVGID_63_" d="M132.3,19.8c0-3.1,2.5-5.7,5.7-5.7s5.7,2.5,5.7,5.7c0,3.1-2.5,5.7-5.7,5.7S132.3,22.9,132.3,19.8z"/>
			</defs>
			<use xlink:href="#SVGID_61_"  style="overflow:visible;fill-rule:evenodd;clip-rule:evenodd;fill:#FFFFFF;"/>
			<clipPath id="SVGID_64_">
				<use xlink:href="#SVGID_61_"  style="overflow:visible;"/>
			</clipPath>
			<clipPath id="SVGID_65_" class="st41">
				<use xlink:href="#SVGID_62_"  style="overflow:visible;"/>
			</clipPath>
			<clipPath id="SVGID_66_" class="st42">
				<use xlink:href="#SVGID_63_"  style="overflow:visible;"/>
			</clipPath>
			
				<rect x="136.9" y="13.6" transform="matrix(0.7071 -0.7071 0.7071 0.7071 26.4069 103.3867)" class="st43" width="2.3" height="12.4"/>
			
				<use xlink:href="#SVGID_63_"  style="overflow:visible;fill-rule:evenodd;clip-rule:evenodd;fill:none;stroke:#1A171B;stroke-width:0.5;stroke-miterlimit:3.8637;"/>
		</g>
		<g>
			<defs>
				<path id="SVGID_67_" d="M146.9,19.8c0-3.1,2.5-5.7,5.7-5.7s5.7,2.5,5.7,5.7c0,3.1-2.5,5.7-5.7,5.7S146.9,22.9,146.9,19.8z"/>
			</defs>
			<defs>
				<path id="SVGID_68_" d="M146.9,19.8c0-3.1,2.5-5.7,5.7-5.7s5.7,2.5,5.7,5.7c0,3.1-2.5,5.7-5.7,5.7S146.9,22.9,146.9,19.8z"/>
			</defs>
			<defs>
				<path id="SVGID_69_" d="M146.9,19.8c0-3.1,2.5-5.7,5.7-5.7s5.7,2.5,5.7,5.7c0,3.1-2.5,5.7-5.7,5.7S146.9,22.9,146.9,19.8z"/>
			</defs>
			<use xlink:href="#SVGID_67_"  style="overflow:visible;fill-rule:evenodd;clip-rule:evenodd;fill:#FFFFFF;"/>
			<clipPath id="SVGID_70_">
				<use xlink:href="#SVGID_67_"  style="overflow:visible;"/>
			</clipPath>
			<clipPath id="SVGID_71_" class="st44">
				<use xlink:href="#SVGID_68_"  style="overflow:visible;"/>
			</clipPath>
			<clipPath id="SVGID_72_" class="st45">
				<use xlink:href="#SVGID_69_"  style="overflow:visible;"/>
			</clipPath>
			
				<rect x="151.4" y="13.6" transform="matrix(0.7071 -0.7071 0.7071 0.7071 30.6802 113.6917)" class="st46" width="2.3" height="12.4"/>
			
				<use xlink:href="#SVGID_69_"  style="overflow:visible;fill-rule:evenodd;clip-rule:evenodd;fill:none;stroke:#1A171B;stroke-width:0.5;stroke-miterlimit:3.8637;"/>
		</g>
		<g>
			<defs>
				<path id="SVGID_73_" d="M161.5,19.8c0-3.1,2.5-5.7,5.7-5.7s5.7,2.5,5.7,5.7c0,3.1-2.5,5.7-5.7,5.7S161.5,22.9,161.5,19.8z"/>
			</defs>
			<defs>
				<path id="SVGID_74_" d="M161.5,19.8c0-3.1,2.5-5.7,5.7-5.7s5.7,2.5,5.7,5.7c0,3.1-2.5,5.7-5.7,5.7S161.5,22.9,161.5,19.8z"/>
			</defs>
			<defs>
				<path id="SVGID_75_" d="M161.5,19.8c0-3.1,2.5-5.7,5.7-5.7s5.7,2.5,5.7,5.7c0,3.1-2.5,5.7-5.7,5.7S161.5,22.9,161.5,19.8z"/>
			</defs>
			<use xlink:href="#SVGID_73_"  style="overflow:visible;fill-rule:evenodd;clip-rule:evenodd;fill:#FFFFFF;"/>
			<clipPath id="SVGID_76_">
				<use xlink:href="#SVGID_73_"  style="overflow:visible;"/>
			</clipPath>
			<clipPath id="SVGID_77_" class="st47">
				<use xlink:href="#SVGID_74_"  style="overflow:visible;"/>
			</clipPath>
			<clipPath id="SVGID_78_" class="st48">
				<use xlink:href="#SVGID_75_"  style="overflow:visible;"/>
			</clipPath>
			
				<rect x="166" y="13.6" transform="matrix(0.7071 -0.7071 0.7071 0.7071 34.9472 124.0027)" class="st49" width="2.3" height="12.4"/>
			
				<use xlink:href="#SVGID_75_"  style="overflow:visible;fill-rule:evenodd;clip-rule:evenodd;fill:none;stroke:#1A171B;stroke-width:0.5;stroke-miterlimit:3.8637;"/>
		</g>
		<g>
			<defs>
				<path id="SVGID_79_" d="M176.1,19.8c0-3.1,2.5-5.7,5.7-5.7s5.7,2.5,5.7,5.7c0,3.1-2.5,5.7-5.7,5.7S176.1,22.9,176.1,19.8z"/>
			</defs>
			<defs>
				<path id="SVGID_80_" d="M176.1,19.8c0-3.1,2.5-5.7,5.7-5.7s5.7,2.5,5.7,5.7c0,3.1-2.5,5.7-5.7,5.7S176.1,22.9,176.1,19.8z"/>
			</defs>
			<defs>
				<path id="SVGID_81_" d="M176.1,19.8c0-3.1,2.5-5.7,5.7-5.7s5.7,2.5,5.7,5.7c0,3.1-2.5,5.7-5.7,5.7S176.1,22.9,176.1,19.8z"/>
			</defs>
			<use xlink:href="#SVGID_79_"  style="overflow:visible;fill-rule:evenodd;clip-rule:evenodd;fill:#FFFFFF;"/>
			<clipPath id="SVGID_82_">
				<use xlink:href="#SVGID_79_"  style="overflow:visible;"/>
			</clipPath>
			<clipPath id="SVGID_83_" class="st50">
				<use xlink:href="#SVGID_80_"  style="overflow:visible;"/>
			</clipPath>
			<clipPath id="SVGID_84_" class="st51">
				<use xlink:href="#SVGID_81_"  style="overflow:visible;"/>
			</clipPath>
			
				<rect x="180.6" y="13.6" transform="matrix(0.7071 -0.7071 0.7071 0.7071 39.2147 134.3134)" class="st52" width="2.3" height="12.4"/>
			
				<use xlink:href="#SVGID_81_"  style="overflow:visible;fill-rule:evenodd;clip-rule:evenodd;fill:none;stroke:#1A171B;stroke-width:0.5;stroke-miterlimit:3.8637;"/>
		</g>
		<rect x="179" y="37.1" class="st4" width="5.7" height="2.8"/>
		<rect x="164.4" y="37.1" class="st4" width="5.7" height="2.8"/>
		<rect x="149.7" y="37.1" class="st4" width="5.7" height="2.8"/>
		<rect x="135.1" y="37.1" class="st4" width="5.7" height="2.8"/>
		<rect x="120.5" y="37.1" class="st4" width="5.7" height="2.8"/>
		<rect x="105.9" y="37.1" class="st4" width="5.7" height="2.8"/>
		<rect x="91.3" y="37.1" class="st4" width="5.7" height="2.8"/>
		<rect x="76.6" y="37.1" class="st4" width="5.7" height="2.8"/>
		<rect x="72.6" y="4.5" class="st3" width="116.2" height="2.8"/>
	</g>
	<rect x="0.3" y="40" class="st53" width="201.3" height="172.9"/>
	<rect x="0.3" y="0.3" class="st54" width="201.3" height="4.3"/>
	<polygon class="st55" points="201.5,0.3 201.5,40 197.3,40 197.3,4.5 193,4.5 193,0.3 	"/>
	<polygon class="st55" points="0.3,0.3 0.3,40 4.5,40 4.5,4.5 8.8,4.5 8.8,0.3 	"/>
	<rect x="0.3" y="248.3" class="st54" width="201.3" height="4.3"/>
	<polygon class="st55" points="201.5,252.6 201.5,212.9 197.3,212.9 197.3,248.3 193,248.3 193,252.6 	"/>
	<polygon class="st55" points="0.3,252.6 0.3,212.9 4.5,212.9 4.5,248.3 8.8,248.3 8.8,252.6 	"/>
	<rect x="1.7" y="62.6" class="st2" width="198.4" height="127.6"/>
	<rect x="6" y="66.2" class="st26" width="189.9" height="120.5"/>
	<rect x="8.1" y="68.3" class="st26" width="185.7" height="116.2"/>
	<g>
		<rect x="130.5" y="212.9" class="st56" width="57.8" height="35.4"/>
		<rect x="134.6" y="215.7" class="st57" width="5.7" height="5.7"/>
		<rect x="149.3" y="215.7" class="st57" width="5.7" height="5.7"/>
		<rect x="163.9" y="215.7" class="st57" width="5.7" height="5.7"/>
		<rect x="178.5" y="215.7" class="st57" width="5.7" height="5.7"/>
		<rect x="134.6" y="212.9" class="st27" width="5.7" height="2.8"/>
		<rect x="149.3" y="212.9" class="st27" width="5.7" height="2.8"/>
		<rect x="163.9" y="212.9" class="st27" width="5.7" height="2.8"/>
		<rect x="178.5" y="212.9" class="st27" width="5.7" height="2.8"/>
		<rect x="130.5" y="245.5" class="st27" width="57.8" height="2.8"/>
		<rect x="130.5" y="225.6" class="st57" width="57.8" height="17"/>
		<g>
			<defs>
				<path id="SVGID_85_" d="M175.6,233c0-3.1,2.5-5.7,5.7-5.7s5.7,2.5,5.7,5.7c0,3.1-2.5,5.7-5.7,5.7S175.6,236.2,175.6,233z"/>
			</defs>
			<defs>
				<path id="SVGID_86_" d="M175.6,233c0-3.1,2.5-5.7,5.7-5.7s5.7,2.5,5.7,5.7c0,3.1-2.5,5.7-5.7,5.7S175.6,236.2,175.6,233z"/>
			</defs>
			<defs>
				<path id="SVGID_87_" d="M175.6,233c0-3.1,2.5-5.7,5.7-5.7s5.7,2.5,5.7,5.7c0,3.1-2.5,5.7-5.7,5.7S175.6,236.2,175.6,233z"/>
			</defs>
			<use xlink:href="#SVGID_85_"  style="overflow:visible;fill-rule:evenodd;clip-rule:evenodd;fill:#FFFFFF;"/>
			<clipPath id="SVGID_88_">
				<use xlink:href="#SVGID_85_"  style="overflow:visible;"/>
			</clipPath>
			<clipPath id="SVGID_89_" class="st58">
				<use xlink:href="#SVGID_86_"  style="overflow:visible;"/>
			</clipPath>
			<clipPath id="SVGID_90_" class="st59">
				<use xlink:href="#SVGID_87_"  style="overflow:visible;"/>
			</clipPath>
			
				<rect x="180.2" y="226.8" transform="matrix(0.7071 -0.7071 0.7071 0.7071 -111.6797 196.4478)" class="st60" width="2.3" height="12.4"/>
			
				<use xlink:href="#SVGID_87_"  style="overflow:visible;fill-rule:evenodd;clip-rule:evenodd;fill:none;stroke:#1A171B;stroke-width:0.5;stroke-miterlimit:3.8637;"/>
		</g>
		<g>
			<defs>
				<path id="SVGID_91_" d="M161,233c0-3.1,2.5-5.7,5.7-5.7s5.7,2.5,5.7,5.7c0,3.1-2.5,5.7-5.7,5.7S161,236.2,161,233z"/>
			</defs>
			<defs>
				<path id="SVGID_92_" d="M161,233c0-3.1,2.5-5.7,5.7-5.7s5.7,2.5,5.7,5.7c0,3.1-2.5,5.7-5.7,5.7S161,236.2,161,233z"/>
			</defs>
			<defs>
				<path id="SVGID_93_" d="M161,233c0-3.1,2.5-5.7,5.7-5.7s5.7,2.5,5.7,5.7c0,3.1-2.5,5.7-5.7,5.7S161,236.2,161,233z"/>
			</defs>
			<use xlink:href="#SVGID_91_"  style="overflow:visible;fill-rule:evenodd;clip-rule:evenodd;fill:#FFFFFF;"/>
			<clipPath id="SVGID_94_">
				<use xlink:href="#SVGID_91_"  style="overflow:visible;"/>
			</clipPath>
			<clipPath id="SVGID_95_" class="st61">
				<use xlink:href="#SVGID_92_"  style="overflow:visible;"/>
			</clipPath>
			<clipPath id="SVGID_96_" class="st62">
				<use xlink:href="#SVGID_93_"  style="overflow:visible;"/>
			</clipPath>
			
				<rect x="165.6" y="226.8" transform="matrix(0.7071 -0.7071 0.7071 0.7071 -115.9526 186.1428)" class="st63" width="2.3" height="12.4"/>
			
				<use xlink:href="#SVGID_93_"  style="overflow:visible;fill-rule:evenodd;clip-rule:evenodd;fill:none;stroke:#1A171B;stroke-width:0.5;stroke-miterlimit:3.8637;"/>
		</g>
		<g>
			<defs>
				<path id="SVGID_97_" d="M146.5,233c0-3.1,2.5-5.7,5.7-5.7s5.7,2.5,5.7,5.7c0,3.1-2.5,5.7-5.7,5.7S146.5,236.2,146.5,233z"/>
			</defs>
			<defs>
				<path id="SVGID_98_" d="M146.5,233c0-3.1,2.5-5.7,5.7-5.7s5.7,2.5,5.7,5.7c0,3.1-2.5,5.7-5.7,5.7S146.5,236.2,146.5,233z"/>
			</defs>
			<defs>
				<path id="SVGID_99_" d="M146.5,233c0-3.1,2.5-5.7,5.7-5.7s5.7,2.5,5.7,5.7c0,3.1-2.5,5.7-5.7,5.7S146.5,236.2,146.5,233z"/>
			</defs>
			<use xlink:href="#SVGID_97_"  style="overflow:visible;fill-rule:evenodd;clip-rule:evenodd;fill:#FFFFFF;"/>
			<clipPath id="SVGID_100_">
				<use xlink:href="#SVGID_97_"  style="overflow:visible;"/>
			</clipPath>
			<clipPath id="SVGID_101_" class="st64">
				<use xlink:href="#SVGID_98_"  style="overflow:visible;"/>
			</clipPath>
			<clipPath id="SVGID_102_" class="st65">
				<use xlink:href="#SVGID_99_"  style="overflow:visible;"/>
			</clipPath>
			
				<rect x="151" y="226.8" transform="matrix(0.7071 -0.7071 0.7071 0.7071 -120.2199 175.8319)" class="st66" width="2.3" height="12.4"/>
			
				<use xlink:href="#SVGID_99_"  style="overflow:visible;fill-rule:evenodd;clip-rule:evenodd;fill:none;stroke:#1A171B;stroke-width:0.5;stroke-miterlimit:3.8637;"/>
		</g>
		<g>
			<defs>
				<path id="SVGID_103_" d="M131.9,233c0-3.1,2.5-5.7,5.7-5.7s5.7,2.5,5.7,5.7c0,3.1-2.5,5.7-5.7,5.7S131.9,236.2,131.9,233z"/>
			</defs>
			<defs>
				<path id="SVGID_104_" d="M131.9,233c0-3.1,2.5-5.7,5.7-5.7s5.7,2.5,5.7,5.7c0,3.1-2.5,5.7-5.7,5.7S131.9,236.2,131.9,233z"/>
			</defs>
			<defs>
				<path id="SVGID_105_" d="M131.9,233c0-3.1,2.5-5.7,5.7-5.7s5.7,2.5,5.7,5.7c0,3.1-2.5,5.7-5.7,5.7S131.9,236.2,131.9,233z"/>
			</defs>
			<use xlink:href="#SVGID_103_"  style="overflow:visible;fill-rule:evenodd;clip-rule:evenodd;fill:#FFFFFF;"/>
			<clipPath id="SVGID_106_">
				<use xlink:href="#SVGID_103_"  style="overflow:visible;"/>
			</clipPath>
			<clipPath id="SVGID_107_" class="st67">
				<use xlink:href="#SVGID_104_"  style="overflow:visible;"/>
			</clipPath>
			<clipPath id="SVGID_108_" class="st68">
				<use xlink:href="#SVGID_105_"  style="overflow:visible;"/>
			</clipPath>
			
				<rect x="136.4" y="226.8" transform="matrix(0.7071 -0.7071 0.7071 0.7071 -124.4875 165.5212)" class="st69" width="2.3" height="12.4"/>
			
				<use xlink:href="#SVGID_105_"  style="overflow:visible;fill-rule:evenodd;clip-rule:evenodd;fill:none;stroke:#1A171B;stroke-width:0.5;stroke-miterlimit:3.8637;"/>
		</g>
	</g>
	<g>
		<rect x="71.8" y="212.9" class="st56" width="28.6" height="35.4"/>
		<rect x="76" y="215.7" class="st57" width="5.7" height="5.7"/>
		<rect x="90.6" y="215.7" class="st57" width="5.7" height="5.7"/>
		<rect x="76" y="212.9" class="st27" width="5.7" height="2.8"/>
		<rect x="90.6" y="212.9" class="st27" width="5.7" height="2.8"/>
		<rect x="71.8" y="245.5" class="st27" width="28.6" height="2.8"/>
		<rect x="71.8" y="225.6" class="st57" width="28.6" height="17"/>
		<g>
			<defs>
				<path id="SVGID_109_" d="M87.8,233c0-3.1,2.5-5.7,5.7-5.7s5.7,2.5,5.7,5.7c0,3.1-2.5,5.7-5.7,5.7S87.8,236.2,87.8,233z"/>
			</defs>
			<defs>
				<path id="SVGID_110_" d="M87.8,233c0-3.1,2.5-5.7,5.7-5.7s5.7,2.5,5.7,5.7c0,3.1-2.5,5.7-5.7,5.7S87.8,236.2,87.8,233z"/>
			</defs>
			<defs>
				<path id="SVGID_111_" d="M87.8,233c0-3.1,2.5-5.7,5.7-5.7s5.7,2.5,5.7,5.7c0,3.1-2.5,5.7-5.7,5.7S87.8,236.2,87.8,233z"/>
			</defs>
			<use xlink:href="#SVGID_109_"  style="overflow:visible;fill-rule:evenodd;clip-rule:evenodd;fill:#FFFFFF;"/>
			<clipPath id="SVGID_112_">
				<use xlink:href="#SVGID_109_"  style="overflow:visible;"/>
			</clipPath>
			<clipPath id="SVGID_113_" class="st70">
				<use xlink:href="#SVGID_110_"  style="overflow:visible;"/>
			</clipPath>
			<clipPath id="SVGID_114_" class="st71">
				<use xlink:href="#SVGID_111_"  style="overflow:visible;"/>
			</clipPath>
			
				<rect x="92.4" y="226.8" transform="matrix(0.7071 -0.7071 0.7071 0.7071 -137.3982 134.3598)" class="st72" width="2.3" height="12.4"/>
			
				<use xlink:href="#SVGID_111_"  style="overflow:visible;fill-rule:evenodd;clip-rule:evenodd;fill:none;stroke:#1A171B;stroke-width:0.5;stroke-miterlimit:3.8637;"/>
		</g>
		<g>
			<defs>
				<path id="SVGID_115_" d="M73.2,233c0-3.1,2.5-5.7,5.7-5.7s5.7,2.5,5.7,5.7c0,3.1-2.5,5.7-5.7,5.7S73.2,236.2,73.2,233z"/>
			</defs>
			<defs>
				<path id="SVGID_116_" d="M73.2,233c0-3.1,2.5-5.7,5.7-5.7s5.7,2.5,5.7,5.7c0,3.1-2.5,5.7-5.7,5.7S73.2,236.2,73.2,233z"/>
			</defs>
			<defs>
				<path id="SVGID_117_" d="M73.2,233c0-3.1,2.5-5.7,5.7-5.7s5.7,2.5,5.7,5.7c0,3.1-2.5,5.7-5.7,5.7S73.2,236.2,73.2,233z"/>
			</defs>
			<use xlink:href="#SVGID_115_"  style="overflow:visible;fill-rule:evenodd;clip-rule:evenodd;fill:#FFFFFF;"/>
			<clipPath id="SVGID_118_">
				<use xlink:href="#SVGID_115_"  style="overflow:visible;"/>
			</clipPath>
			<clipPath id="SVGID_119_" class="st73">
				<use xlink:href="#SVGID_116_"  style="overflow:visible;"/>
			</clipPath>
			<clipPath id="SVGID_120_" class="st74">
				<use xlink:href="#SVGID_117_"  style="overflow:visible;"/>
			</clipPath>
			
				<rect x="77.8" y="226.8" transform="matrix(0.7071 -0.7071 0.7071 0.7071 -141.6658 124.0491)" class="st75" width="2.3" height="12.4"/>
			
				<use xlink:href="#SVGID_117_"  style="overflow:visible;fill-rule:evenodd;clip-rule:evenodd;fill:none;stroke:#1A171B;stroke-width:0.5;stroke-miterlimit:3.8637;"/>
		</g>
	</g>
	<g>
		<rect x="10.2" y="70.5" class="st76" width="181.4" height="112"/>
		<rect x="10.2" y="98.2" class="st77" width="181.4" height="56.7"/>
		<g>
			<g>
				<path class="st76" d="M69.9,134.5c0.2,0,0.4,0.1,0.6,0.2c0.2,0.2,0.2,0.3,0.2,0.5c0,0.2-0.1,0.4-0.2,0.6
					c-0.2,0.2-0.3,0.2-0.6,0.2c-0.2,0-0.4-0.1-0.6-0.2c-0.2-0.2-0.2-0.3-0.2-0.6s0.1-0.4,0.2-0.6C69.5,134.5,69.7,134.5,69.9,134.5z
					 M69.2,144.3v-6.1h-1v-1.1h2.2v7.1H69.2z"/>
				<path class="st76" d="M76.8,144.3v-4.2c0-0.8-0.1-1.3-0.3-1.6c-0.2-0.3-0.6-0.5-1.1-0.5c-0.3,0-0.6,0.1-0.9,0.3
					c-0.3,0.2-0.6,0.4-0.7,0.6v5.3h-1.3v-7.1h0.9l0.4,0.9c0.4-0.7,1.1-1.1,2-1.1c1.6,0,2.3,1,2.3,2.9v4.4H76.8z"/>
				<path class="st76" d="M79.6,146.2l0.7-1c0.7,0.5,1.4,0.7,2,0.7c0.6,0,1-0.1,1.4-0.3c0.3-0.2,0.5-0.4,0.5-0.7
					c0-0.6-0.4-0.9-1.3-0.9c-0.1,0-0.4,0-0.8,0.1c-0.4,0.1-0.7,0.1-0.9,0.1c-1,0-1.5-0.4-1.5-1.1c0-0.2,0.1-0.4,0.4-0.6
					c0.2-0.2,0.5-0.3,0.9-0.4c-1-0.5-1.5-1.3-1.5-2.5c0-0.7,0.3-1.4,0.8-1.9c0.5-0.5,1.2-0.7,1.9-0.7c0.7,0,1.3,0.1,1.6,0.4l0.6-0.8
					l0.8,0.8l-0.8,0.6c0.3,0.4,0.5,1,0.5,1.7c0,0.7-0.2,1.3-0.7,1.8c-0.4,0.5-1,0.8-1.8,0.8l-1,0.1c-0.1,0-0.3,0.1-0.5,0.1
					c-0.2,0.1-0.3,0.2-0.3,0.3c0,0.2,0.2,0.3,0.7,0.3c0.2,0,0.5,0,0.9-0.1c0.4-0.1,0.7-0.1,0.9-0.1c0.7,0,1.2,0.2,1.6,0.5
					c0.4,0.3,0.6,0.8,0.6,1.4c0,0.7-0.3,1.2-0.9,1.6c-0.6,0.4-1.3,0.6-2.2,0.6c-0.5,0-0.9-0.1-1.5-0.2
					C80.4,146.7,80,146.5,79.6,146.2z M82.3,138c-0.4,0-0.8,0.2-1.1,0.5c-0.3,0.3-0.4,0.7-0.4,1.1c0,0.5,0.1,0.9,0.4,1.2
					c0.3,0.3,0.6,0.5,1.1,0.5c0.4,0,0.8-0.2,1.1-0.5c0.3-0.3,0.4-0.7,0.4-1.3c0-0.4-0.1-0.8-0.4-1.1C83.1,138.2,82.7,138,82.3,138z"
					/>
				<path class="st76" d="M92.8,140.8h-5.1c0,0.8,0.2,1.5,0.7,1.9c0.4,0.4,0.9,0.6,1.6,0.6c0.7,0,1.3-0.2,1.8-0.6l0.5,0.9
					c-0.2,0.2-0.5,0.4-0.9,0.5c-0.5,0.2-1.1,0.3-1.7,0.3c-0.9,0-1.7-0.3-2.3-0.9c-0.7-0.7-1-1.6-1-2.7c0-1.2,0.4-2.1,1.1-2.8
					c0.6-0.6,1.4-1,2.3-1c1,0,1.8,0.3,2.4,0.9c0.6,0.6,0.8,1.3,0.8,2.2C92.9,140.3,92.8,140.6,92.8,140.8z M89.7,138.1
					c-0.6,0-1,0.2-1.4,0.5c-0.4,0.3-0.6,0.8-0.6,1.3h4c0-0.5-0.2-0.9-0.5-1.3C90.8,138.3,90.3,138.1,89.7,138.1z"/>
				<path class="st76" d="M98.6,144.3v-4.2c0-0.8-0.1-1.3-0.3-1.6c-0.2-0.3-0.6-0.5-1.1-0.5c-0.3,0-0.6,0.1-0.9,0.3
					c-0.3,0.2-0.6,0.4-0.7,0.6v5.3h-1.3v-7.1h0.9l0.4,0.9c0.4-0.7,1.1-1.1,2-1.1c1.6,0,2.3,1,2.3,2.9v4.4H98.6z"/>
				<path class="st76" d="M103,134.5c0.2,0,0.4,0.1,0.6,0.2c0.2,0.2,0.2,0.3,0.2,0.5c0,0.2-0.1,0.4-0.2,0.6
					c-0.2,0.2-0.3,0.2-0.6,0.2c-0.2,0-0.4-0.1-0.6-0.2c-0.2-0.2-0.2-0.3-0.2-0.6s0.1-0.4,0.2-0.6C102.6,134.5,102.7,134.5,103,134.5
					z M102.3,144.3v-6.1h-1v-1.1h2.2v7.1H102.3z"/>
				<path class="st76" d="M106.7,137.1v4.5c0,1.1,0.5,1.7,1.4,1.7c0.4,0,0.8-0.1,1.1-0.4c0.3-0.2,0.6-0.5,0.7-0.8v-5h1.3v7.1H110v-1
					c-0.1,0.3-0.4,0.5-0.9,0.8c-0.4,0.2-0.8,0.3-1.3,0.3c-0.8,0-1.4-0.2-1.8-0.7c-0.4-0.4-0.6-1.1-0.6-1.9v-4.7H106.7z"/>
				<path class="st76" d="M121.3,144.3v-4.5c0-1.1-0.5-1.7-1.5-1.7c-0.3,0-0.6,0.1-0.9,0.3c-0.3,0.2-0.4,0.4-0.5,0.6v5.3h-1.3v-5.1
					c0-0.4-0.1-0.6-0.4-0.8c-0.3-0.2-0.6-0.3-1-0.3c-0.3,0-0.5,0.1-0.8,0.3c-0.3,0.2-0.5,0.4-0.6,0.6v5.3H113v-7.1h0.8l0.4,0.8
					c0.5-0.6,1.1-1,1.8-1c1,0,1.7,0.3,2.1,1c0.1-0.3,0.4-0.5,0.8-0.7s0.8-0.3,1.2-0.3c0.7,0,1.3,0.2,1.7,0.7c0.4,0.4,0.6,1,0.6,1.8
					v4.8H121.3z"/>
			</g>
			<g>
				<polygon class="st76" points="89.7,150.3 89.6,150.3 88.9,148.6 88.1,150.3 88,150.3 87.1,147.7 87.6,147.7 88.1,149.4 
					88.8,147.7 88.9,147.7 89.6,149.4 90.2,147.7 90.6,147.7 				"/>
				<polygon class="st76" points="93.4,150.3 93.2,150.3 92.5,148.6 91.8,150.3 91.6,150.3 90.7,147.7 91.2,147.7 91.7,149.4 
					92.4,147.7 92.5,147.7 93.3,149.4 93.8,147.7 94.3,147.7 				"/>
				<polygon class="st76" points="97,150.3 96.9,150.3 96.1,148.6 95.4,150.3 95.3,150.3 94.4,147.7 94.8,147.7 95.4,149.4 
					96.1,147.7 96.2,147.7 96.9,149.4 97.5,147.7 97.9,147.7 				"/>
				<path class="st76" d="M98.8,149.6c0.1,0,0.2,0,0.3,0.1s0.1,0.2,0.1,0.3c0,0.1,0,0.2-0.1,0.3c-0.1,0.1-0.2,0.1-0.3,0.1
					c-0.1,0-0.2,0-0.3-0.1c-0.1-0.1-0.1-0.2-0.1-0.3c0-0.1,0-0.2,0.1-0.3C98.6,149.6,98.7,149.6,98.8,149.6z"/>
				<path class="st76" d="M100.6,146.7c0.1,0,0.1,0,0.2,0.1c0.1,0.1,0.1,0.1,0.1,0.2c0,0.1,0,0.1-0.1,0.2c-0.1,0.1-0.1,0.1-0.2,0.1
					c-0.1,0-0.1,0-0.2-0.1c-0.1-0.1-0.1-0.1-0.1-0.2s0-0.1,0.1-0.2C100.4,146.8,100.5,146.7,100.6,146.7z M100.3,150.3v-2.2H100
					v-0.4h0.8v2.6H100.3z"/>
				<path class="st76" d="M103.1,150.3v-1.5c0-0.3,0-0.5-0.1-0.6c-0.1-0.1-0.2-0.2-0.4-0.2c-0.1,0-0.2,0-0.3,0.1
					c-0.1,0.1-0.2,0.1-0.3,0.2v1.9h-0.5v-2.6h0.3l0.1,0.3c0.1-0.3,0.4-0.4,0.7-0.4c0.6,0,0.8,0.3,0.8,1v1.6H103.1z"/>
				<path class="st76" d="M104.1,151l0.2-0.4c0.3,0.2,0.5,0.3,0.7,0.3c0.2,0,0.4,0,0.5-0.1c0.1-0.1,0.2-0.2,0.2-0.3
					c0-0.2-0.1-0.3-0.4-0.3c-0.1,0-0.1,0-0.3,0c-0.1,0-0.2,0-0.3,0c-0.4,0-0.5-0.1-0.5-0.4c0-0.1,0-0.2,0.1-0.2
					c0.1-0.1,0.2-0.1,0.3-0.1c-0.4-0.2-0.5-0.5-0.5-0.9c0-0.3,0.1-0.5,0.3-0.7s0.4-0.3,0.7-0.3c0.3,0,0.4,0.1,0.6,0.2l0.2-0.3
					l0.3,0.3l-0.3,0.2c0.1,0.2,0.2,0.3,0.2,0.6c0,0.3-0.1,0.5-0.2,0.7c-0.2,0.2-0.4,0.3-0.6,0.3l-0.4,0c0,0-0.1,0-0.2,0.1
					c-0.1,0-0.1,0.1-0.1,0.1c0,0.1,0.1,0.1,0.2,0.1c0.1,0,0.2,0,0.3,0c0.1,0,0.3,0,0.3,0c0.3,0,0.4,0.1,0.6,0.2
					c0.1,0.1,0.2,0.3,0.2,0.5c0,0.2-0.1,0.4-0.3,0.6c-0.2,0.1-0.5,0.2-0.8,0.2c-0.2,0-0.3,0-0.5-0.1
					C104.3,151.1,104.2,151,104.1,151z M105,148c-0.2,0-0.3,0.1-0.4,0.2c-0.1,0.1-0.1,0.2-0.1,0.4c0,0.2,0,0.3,0.1,0.4
					c0.1,0.1,0.2,0.2,0.4,0.2c0.2,0,0.3-0.1,0.4-0.2c0.1-0.1,0.1-0.3,0.1-0.5c0-0.2,0-0.3-0.1-0.4C105.3,148.1,105.2,148,105,148z"
					/>
				<path class="st76" d="M108.8,149h-1.8c0,0.3,0.1,0.5,0.2,0.7c0.1,0.1,0.3,0.2,0.6,0.2c0.3,0,0.5-0.1,0.7-0.2l0.2,0.3
					c-0.1,0.1-0.2,0.1-0.3,0.2c-0.2,0.1-0.4,0.1-0.6,0.1c-0.3,0-0.6-0.1-0.8-0.3c-0.3-0.2-0.4-0.6-0.4-1c0-0.4,0.1-0.8,0.4-1
					c0.2-0.2,0.5-0.3,0.8-0.3c0.4,0,0.7,0.1,0.9,0.3c0.2,0.2,0.3,0.5,0.3,0.8C108.8,148.8,108.8,148.9,108.8,149z M107.7,148
					c-0.2,0-0.4,0.1-0.5,0.2c-0.1,0.1-0.2,0.3-0.2,0.5h1.4c0-0.2-0.1-0.3-0.2-0.5C108.1,148.1,107.9,148,107.7,148z"/>
				<path class="st76" d="M110.9,150.3v-1.5c0-0.3,0-0.5-0.1-0.6c-0.1-0.1-0.2-0.2-0.4-0.2c-0.1,0-0.2,0-0.3,0.1
					c-0.1,0.1-0.2,0.1-0.3,0.2v1.9h-0.5v-2.6h0.3l0.1,0.3c0.1-0.3,0.4-0.4,0.7-0.4c0.6,0,0.8,0.3,0.8,1v1.6H110.9z"/>
				<path class="st76" d="M112.4,146.7c0.1,0,0.1,0,0.2,0.1c0.1,0.1,0.1,0.1,0.1,0.2c0,0.1,0,0.1-0.1,0.2c-0.1,0.1-0.1,0.1-0.2,0.1
					c-0.1,0-0.1,0-0.2-0.1c-0.1-0.1-0.1-0.1-0.1-0.2s0-0.1,0.1-0.2C112.3,146.8,112.4,146.7,112.4,146.7z M112.2,150.3v-2.2h-0.4
					v-0.4h0.8v2.6H112.2z"/>
				<path class="st76" d="M113.8,147.7v1.6c0,0.4,0.2,0.6,0.5,0.6c0.1,0,0.3,0,0.4-0.1c0.1-0.1,0.2-0.2,0.2-0.3v-1.8h0.5v2.6H115
					v-0.4c-0.1,0.1-0.2,0.2-0.3,0.3c-0.2,0.1-0.3,0.1-0.4,0.1c-0.3,0-0.5-0.1-0.6-0.2c-0.1-0.2-0.2-0.4-0.2-0.7v-1.7H113.8z"/>
				<path class="st76" d="M119,150.3v-1.6c0-0.4-0.2-0.6-0.5-0.6c-0.1,0-0.2,0-0.3,0.1c-0.1,0.1-0.2,0.1-0.2,0.2v1.9h-0.5v-1.8
					c0-0.1,0-0.2-0.1-0.3c-0.1-0.1-0.2-0.1-0.4-0.1c-0.1,0-0.2,0-0.3,0.1c-0.1,0.1-0.2,0.1-0.2,0.2v1.9H116v-2.6h0.3l0.2,0.3
					c0.2-0.2,0.4-0.3,0.7-0.3c0.4,0,0.6,0.1,0.8,0.3c0.1-0.1,0.1-0.2,0.3-0.2s0.3-0.1,0.4-0.1c0.3,0,0.5,0.1,0.6,0.2
					c0.1,0.2,0.2,0.4,0.2,0.7v1.7H119z"/>
				<path class="st76" d="M119.9,150.1l0.2-0.4c0.3,0.2,0.5,0.2,0.6,0.2c0.3,0,0.4-0.1,0.4-0.4c0-0.2-0.1-0.3-0.4-0.4
					c-0.2-0.1-0.4-0.2-0.4-0.2c-0.1,0-0.1-0.1-0.2-0.2c-0.1-0.1-0.1-0.1-0.1-0.2c0-0.1,0-0.1,0-0.2c0-0.2,0.1-0.4,0.2-0.5
					s0.4-0.2,0.6-0.2c0.2,0,0.4,0.1,0.7,0.2l-0.1,0.4c-0.2-0.1-0.4-0.2-0.5-0.2c-0.1,0-0.2,0-0.3,0.1c-0.1,0.1-0.1,0.1-0.1,0.2
					c0,0.2,0.1,0.3,0.3,0.4l0.3,0.1c0.2,0.1,0.3,0.2,0.4,0.3c0.1,0.1,0.1,0.3,0.1,0.4c0,0.2-0.1,0.4-0.2,0.5
					c-0.2,0.1-0.4,0.2-0.7,0.2C120.4,150.3,120.2,150.2,119.9,150.1z"/>
				<path class="st76" d="M122.1,149.5v-2.9h0.5v2.8c0,0.1,0,0.2,0.1,0.3c0.1,0.1,0.2,0.1,0.3,0.1v0.4
					C122.4,150.3,122.1,150.1,122.1,149.5z"/>
				<path class="st76" d="M124.1,149.6c0.1,0,0.2,0,0.3,0.1c0.1,0.1,0.1,0.2,0.1,0.3c0,0.1,0,0.2-0.1,0.3c-0.1,0.1-0.2,0.1-0.3,0.1
					s-0.2,0-0.3-0.1c-0.1-0.1-0.1-0.2-0.1-0.3c0-0.1,0-0.2,0.1-0.3C123.9,149.6,124,149.6,124.1,149.6z"/>
				<path class="st76" d="M127.3,147.9l-0.2,0.3c0,0-0.1-0.1-0.2-0.1c-0.1,0-0.2-0.1-0.3-0.1c-0.2,0-0.4,0.1-0.6,0.3
					c-0.1,0.2-0.2,0.4-0.2,0.7c0,0.3,0.1,0.5,0.2,0.7c0.1,0.2,0.4,0.2,0.6,0.2c0.2,0,0.4-0.1,0.6-0.2l0.2,0.4
					c-0.2,0.2-0.5,0.2-0.9,0.2c-0.3,0-0.6-0.1-0.9-0.4c-0.2-0.2-0.3-0.6-0.3-1c0-0.4,0.1-0.7,0.4-1c0.2-0.2,0.6-0.4,1-0.4
					c0.1,0,0.3,0,0.4,0.1C127.1,147.8,127.2,147.8,127.3,147.9z"/>
				<path class="st76" d="M127.6,149c0-0.4,0.1-0.7,0.3-1c0.2-0.2,0.5-0.4,0.8-0.4c0.4,0,0.7,0.1,0.9,0.4c0.2,0.2,0.3,0.6,0.3,1
					c0,0.4-0.1,0.7-0.3,1s-0.5,0.4-0.8,0.4c-0.4,0-0.6-0.1-0.9-0.4C127.7,149.7,127.6,149.4,127.6,149z M128.1,149
					c0,0.6,0.2,1,0.7,1c0.2,0,0.4-0.1,0.5-0.3c0.1-0.2,0.2-0.4,0.2-0.7c0-0.6-0.2-1-0.7-1c-0.2,0-0.4,0.1-0.5,0.3
					C128.1,148.4,128.1,148.7,128.1,149z"/>
				<path class="st76" d="M133.3,150.3v-1.6c0-0.4-0.2-0.6-0.5-0.6c-0.1,0-0.2,0-0.3,0.1c-0.1,0.1-0.2,0.1-0.2,0.2v1.9h-0.5v-1.8
					c0-0.1,0-0.2-0.1-0.3c-0.1-0.1-0.2-0.1-0.4-0.1c-0.1,0-0.2,0-0.3,0.1c-0.1,0.1-0.2,0.1-0.2,0.2v1.9h-0.5v-2.6h0.3l0.2,0.3
					c0.2-0.2,0.4-0.3,0.7-0.3c0.4,0,0.6,0.1,0.8,0.3c0.1-0.1,0.1-0.2,0.3-0.2s0.3-0.1,0.4-0.1c0.3,0,0.5,0.1,0.6,0.2
					c0.1,0.2,0.2,0.4,0.2,0.7v1.7H133.3z"/>
			</g>
			<path class="st78" d="M92.8,111.5l6.8,6.8h6.1l8.5-8.5l5.4,5.4l-17,17l-17-17l3.7-3.7c-0.2-0.3-0.2-0.6-0.2-0.9c0-1.1,0.9-2,2-2
				c1.1,0,2,0.9,2,2C93,110.9,92.9,111.2,92.8,111.5z M90.1,112.3l-2.9,2.9l15.4,15.4l15.4-15.4l-3.8-3.8l-8.1,8.1h-7l-7.1-7.1
				c-0.3,0.2-0.6,0.3-1,0.3C90.7,112.6,90.4,112.5,90.1,112.3z M99.6,102.6c0.2,0.3,0.3,0.6,0.3,1c0,0.4-0.1,0.8-0.3,1.1l2.9,2.9
				l3.9-3.9l-3.9-3.9L99.6,102.6z M96,103.7c0-1.1,0.9-2,2-2c0.3,0,0.6,0.1,0.9,0.2l3.7-3.7l5.5,5.5l-5.5,5.5l-3.8-3.8
				c-0.2,0.1-0.5,0.1-0.7,0.1C96.8,105.6,96,104.8,96,103.7z M92.5,107.1c0-1.1,0.9-2,2-2c1.1,0,2,0.9,2,2c0,0.4-0.1,0.8-0.3,1.1
				l5.1,5.1h2.7l6.5-6.5l0.8,0.8l-6.8,6.8h-3.6l-5.5-5.5c-0.2,0.1-0.5,0.2-0.8,0.2C93.4,109.1,92.5,108.2,92.5,107.1z"/>
		</g>
		<g>
			<polygon class="st77" points="86.6,80 82.5,80 82.5,79 84.9,75.4 82.6,75.4 82.6,74.2 86.5,74.2 86.5,75.3 84,78.9 86.6,78.9 			
				"/>
			<path class="st77" d="M91,80h-3.3v-1h1V76h-1V75c0.2,0,0.3,0,0.5,0c0.1,0,0.3-0.1,0.4-0.1c0.1-0.1,0.2-0.1,0.3-0.3
				c0.1-0.1,0.1-0.2,0.1-0.4H90V79h1V80z"/>
		</g>
		<g>
			<polygon class="st77" points="115.9,80 111.7,80 111.7,79 114.2,75.4 111.8,75.4 111.8,74.2 115.7,74.2 115.7,75.3 113.3,78.9 
				115.9,78.9 			"/>
			<path class="st77" d="M120.6,80h-3.9v-1c0.3-0.3,0.6-0.5,0.9-0.8c0.3-0.3,0.5-0.5,0.7-0.7c0.3-0.3,0.5-0.6,0.6-0.8
				c0.1-0.2,0.2-0.5,0.2-0.7c0-0.3-0.1-0.5-0.2-0.6c-0.1-0.1-0.4-0.2-0.6-0.2c-0.2,0-0.4,0-0.6,0.1c-0.2,0.1-0.4,0.2-0.6,0.4h-0.1
				v-1.3c0.2-0.1,0.4-0.2,0.7-0.2c0.3-0.1,0.6-0.1,0.9-0.1c0.6,0,1.1,0.2,1.4,0.5c0.3,0.3,0.5,0.7,0.5,1.3c0,0.4-0.1,0.7-0.2,1
				c-0.2,0.3-0.4,0.7-0.7,1c-0.2,0.2-0.4,0.4-0.6,0.6c-0.2,0.2-0.3,0.3-0.4,0.4h2.2V80z"/>
		</g>
		<g>
			<polygon class="st77" points="145.1,80 140.9,80 140.9,79 143.4,75.4 141.1,75.4 141.1,74.2 145,74.2 145,75.3 142.5,78.9 
				145.1,78.9 			"/>
			<path class="st77" d="M149.4,77.3c0.1,0.1,0.2,0.2,0.3,0.4c0.1,0.1,0.1,0.3,0.1,0.6c0,0.3,0,0.5-0.1,0.8
				c-0.1,0.2-0.2,0.4-0.4,0.6c-0.2,0.2-0.4,0.3-0.7,0.4c-0.2,0.1-0.6,0.1-0.9,0.1c-0.4,0-0.8,0-1.1-0.1c-0.3-0.1-0.5-0.2-0.7-0.3
				v-1.3h0.1c0.2,0.1,0.4,0.3,0.7,0.4c0.3,0.1,0.5,0.1,0.7,0.1c0.1,0,0.3,0,0.4,0c0.2,0,0.3-0.1,0.4-0.2c0.1-0.1,0.1-0.1,0.2-0.2
				c0-0.1,0.1-0.2,0.1-0.4c0-0.2,0-0.3-0.1-0.4c-0.1-0.1-0.2-0.2-0.3-0.2c-0.1,0-0.2-0.1-0.4-0.1c-0.2,0-0.3,0-0.4,0H147v-1h0.3
				c0.2,0,0.3,0,0.5,0c0.1,0,0.2,0,0.3-0.1c0.1,0,0.2-0.1,0.2-0.2c0-0.1,0.1-0.2,0.1-0.4c0-0.1,0-0.2-0.1-0.3
				c-0.1-0.1-0.1-0.1-0.2-0.2c-0.1,0-0.2-0.1-0.3-0.1s-0.2,0-0.3,0c-0.2,0-0.4,0-0.7,0.1c-0.2,0.1-0.5,0.2-0.7,0.4H146v-1.3
				c0.2-0.1,0.4-0.2,0.7-0.2c0.3-0.1,0.6-0.1,0.9-0.1c0.3,0,0.6,0,0.8,0.1c0.2,0.1,0.4,0.1,0.6,0.3c0.2,0.1,0.3,0.3,0.4,0.5
				c0.1,0.2,0.1,0.4,0.1,0.6c0,0.3-0.1,0.6-0.3,0.9c-0.2,0.3-0.4,0.4-0.7,0.5V77c0.1,0,0.2,0.1,0.4,0.1S149.3,77.2,149.4,77.3z"/>
		</g>
		<g>
			<polygon class="st77" points="168.9,175.8 168.9,179 167.9,179 167.9,178.1 164.4,178.1 164.4,179 163.4,179 163.4,175.8 
				164.4,175.8 164.4,176.7 167.9,176.7 167.9,175.8 			"/>
			<polygon class="st77" points="168.9,169.7 168.9,171.1 165.1,173.4 168.9,173.4 168.9,174.7 163.4,174.7 163.4,173 166.6,171 
				163.4,171 163.4,169.7 			"/>
			<path class="st77" d="M166.3,162c0.1-0.1,0.2-0.2,0.4-0.3c0.1-0.1,0.3-0.1,0.5-0.1c0.3,0,0.5,0.1,0.7,0.2
				c0.2,0.1,0.4,0.3,0.6,0.5c0.2,0.2,0.3,0.4,0.4,0.7c0.1,0.3,0.1,0.6,0.1,1c0,0.5,0,0.8-0.1,1.2c-0.1,0.3-0.2,0.6-0.2,0.8h-1.2
				v-0.1c0.1-0.2,0.2-0.5,0.3-0.8c0.1-0.3,0.1-0.6,0.1-0.8c0-0.1,0-0.3,0-0.5c0-0.2-0.1-0.3-0.2-0.4c-0.1-0.1-0.1-0.2-0.2-0.2
				c-0.1-0.1-0.2-0.1-0.4-0.1c-0.2,0-0.3,0-0.4,0.1c-0.1,0.1-0.2,0.2-0.2,0.3c0,0.1-0.1,0.3-0.1,0.4c0,0.2,0,0.3,0,0.5v0.3h-1v-0.3
				c0-0.2,0-0.4,0-0.5s0-0.3-0.1-0.4c0-0.1-0.1-0.2-0.2-0.2c-0.1-0.1-0.2-0.1-0.3-0.1c-0.1,0-0.2,0-0.3,0.1
				c-0.1,0.1-0.1,0.1-0.2,0.2c0,0.1-0.1,0.2-0.1,0.3c0,0.1,0,0.2,0,0.3c0,0.2,0,0.5,0.1,0.7c0.1,0.3,0.2,0.5,0.3,0.8v0.1h-1.2
				c-0.1-0.2-0.2-0.5-0.2-0.8c-0.1-0.3-0.1-0.7-0.1-1c0-0.3,0-0.6,0.1-0.9c0.1-0.3,0.1-0.5,0.2-0.6c0.1-0.2,0.3-0.3,0.4-0.4
				s0.4-0.1,0.6-0.1c0.3,0,0.6,0.1,0.8,0.3c0.2,0.2,0.4,0.4,0.5,0.7h0.1c0-0.1,0.1-0.3,0.1-0.4C166.2,162.3,166.2,162.1,166.3,162z"
				/>
		</g>
		<g>
			<polygon class="st77" points="183.5,175.8 183.5,179 182.5,179 182.5,178.1 179,178.1 179,179 178,179 178,175.8 179,175.8 
				179,176.7 182.5,176.7 182.5,175.8 			"/>
			<polygon class="st77" points="183.5,169.7 183.5,171.1 179.7,173.4 183.5,173.4 183.5,174.7 178,174.7 178,173 181.1,171 
				178,171 178,169.7 			"/>
			<path class="st77" d="M182.2,161.4v0.7h1.3v1.3h-1.3v2.6h-1l-3.2-2.6v-1.4h3.2v-0.7H182.2z M181.2,163.5h-2l2,1.6V163.5z"/>
		</g>
		<g>
			<path class="st77" d="M82.5,169c0-0.1,0-0.3-0.1-0.4c-0.1-0.1-0.2-0.2-0.3-0.2c-0.1,0-0.2-0.1-0.3-0.1c-0.1,0-0.3,0-0.4,0h-0.5
				v1.5h0.4c0.2,0,0.4,0,0.6,0c0.2,0,0.3-0.1,0.4-0.2c0.1-0.1,0.2-0.2,0.2-0.2C82.4,169.3,82.5,169.1,82.5,169z M84.6,172.8h-1.7
				l-1.5-2h-0.6v2h-1.4v-5.5h2.4c0.3,0,0.6,0,0.8,0.1c0.2,0,0.4,0.1,0.7,0.2c0.2,0.1,0.4,0.3,0.5,0.5c0.1,0.2,0.2,0.4,0.2,0.7
				c0,0.4-0.1,0.7-0.3,1c-0.2,0.3-0.5,0.5-0.8,0.6L84.6,172.8z"/>
			<path class="st77" d="M89.2,171h-3c0,0.3,0.1,0.6,0.4,0.7c0.2,0.2,0.6,0.3,1,0.3c0.3,0,0.5,0,0.8-0.2c0.3-0.1,0.5-0.2,0.6-0.3
				h0.1v1.1c-0.3,0.1-0.6,0.2-0.8,0.3s-0.6,0.1-0.9,0.1c-0.8,0-1.5-0.2-1.9-0.6s-0.7-0.9-0.7-1.6c0-0.7,0.2-1.2,0.6-1.6
				c0.4-0.4,1-0.6,1.7-0.6c0.7,0,1.2,0.2,1.5,0.5c0.3,0.3,0.5,0.8,0.5,1.5V171z M87.9,170.2c0-0.3-0.1-0.5-0.2-0.6
				c-0.1-0.1-0.3-0.2-0.6-0.2c-0.3,0-0.5,0.1-0.6,0.2c-0.2,0.1-0.3,0.3-0.3,0.6H87.9z"/>
			<path class="st77" d="M92.8,168L92.8,168c-0.2,0-0.2,0-0.3-0.1c-0.1,0-0.2,0-0.3,0c-0.3,0-0.4,0-0.5,0.1
				c-0.1,0.1-0.1,0.3-0.1,0.5v0h1v0.9h-1v3.2h-1.3v-3.2h-0.6v-0.9h0.6v-0.1c0-0.5,0.1-0.9,0.4-1.1c0.3-0.3,0.7-0.4,1.2-0.4
				c0.2,0,0.4,0,0.5,0c0.2,0,0.3,0,0.4,0.1V168z"/>
			<rect x="93.4" y="171.3" class="st77" width="1.4" height="1.4"/>
		</g>
		<g>
			<polygon class="st77" points="139.8,175.8 139.8,179 138.8,179 138.8,178.1 135.3,178.1 135.3,179 134.3,179 134.3,175.8 
				135.3,175.8 135.3,176.7 138.8,176.7 138.8,175.8 			"/>
			<polygon class="st77" points="139.8,169.7 139.8,171.1 136,173.4 139.8,173.4 139.8,174.7 134.3,174.7 134.3,173 137.4,171 
				134.3,171 134.3,169.7 			"/>
			<path class="st77" d="M139.8,161.8v3.6h-1v-1.2h-2.9v1.2H135c0-0.2,0-0.3,0-0.5c0-0.2-0.1-0.3-0.1-0.4c-0.1-0.1-0.1-0.2-0.2-0.3
				s-0.2-0.1-0.4-0.1V163h4.5v-1.1H139.8z"/>
		</g>
		<g>
			<polygon class="st77" points="154.3,175.8 154.3,179 153.4,179 153.4,178.1 149.8,178.1 149.8,179 148.9,179 148.9,175.8 
				149.8,175.8 149.8,176.7 153.4,176.7 153.4,175.8 			"/>
			<polygon class="st77" points="154.3,169.7 154.3,171.1 150.6,173.4 154.3,173.4 154.3,174.7 148.9,174.7 148.9,173 152,171 
				148.9,171 148.9,169.7 			"/>
			<path class="st77" d="M154.3,161.5v4.3h-0.9c-0.2-0.3-0.5-0.7-0.8-1c-0.3-0.3-0.5-0.6-0.7-0.8c-0.3-0.3-0.5-0.5-0.7-0.6
				c-0.2-0.1-0.4-0.2-0.6-0.2c-0.2,0-0.4,0.1-0.6,0.2c-0.1,0.2-0.2,0.4-0.2,0.7c0,0.2,0,0.5,0.1,0.7c0.1,0.2,0.2,0.5,0.4,0.7v0.1
				h-1.2c-0.1-0.2-0.2-0.4-0.2-0.8c-0.1-0.3-0.1-0.7-0.1-1c0-0.7,0.1-1.2,0.4-1.6c0.3-0.4,0.7-0.5,1.2-0.5c0.3,0,0.7,0.1,1,0.3
				c0.3,0.2,0.6,0.4,1,0.8c0.2,0.2,0.4,0.4,0.6,0.7c0.2,0.2,0.3,0.4,0.4,0.5v-2.4H154.3z"/>
		</g>
		<g>
			<polygon class="st77" points="174.3,80 170.2,80 170.2,79 172.7,75.4 170.3,75.4 170.3,74.2 174.2,74.2 174.2,75.3 171.8,78.9 
				174.3,78.9 			"/>
			<path class="st77" d="M179.2,78.7h-0.7v1.4h-1.2v-1.4h-2.4v-1.1l2.3-3.4h1.3v3.4h0.7V78.7z M177.3,77.6v-2.1l-1.4,2.1H177.3z"/>
		</g>
		<g>
			<g>
				<polygon class="st77" points="21.3,175.8 21.3,177.1 22.8,177.1 22.8,177.7 21.3,177.7 21.3,179 20.5,179 20.5,177.7 19,177.7 
					19,177.1 20.5,177.1 20.5,175.8 				"/>
				<path class="st77" d="M22.8,172.3v2.3h-0.8v-0.7h-2.3v0.7h-0.7c0-0.1,0-0.2,0-0.3c0-0.1,0-0.2-0.1-0.3c0-0.1-0.1-0.1-0.2-0.2
					s-0.2-0.1-0.3-0.1v-0.8h3.6v-0.7H22.8z"/>
				<path class="st77" d="M22.8,168.7v2.7h-0.7c-0.2-0.2-0.4-0.4-0.6-0.6c-0.2-0.2-0.4-0.4-0.6-0.5c-0.2-0.2-0.4-0.3-0.6-0.4
					s-0.3-0.1-0.5-0.1c-0.2,0-0.4,0.1-0.5,0.2c-0.1,0.1-0.2,0.2-0.2,0.4c0,0.1,0,0.3,0.1,0.5c0.1,0.2,0.2,0.3,0.3,0.4v0.1h-1
					c-0.1-0.1-0.1-0.3-0.2-0.5c-0.1-0.2-0.1-0.4-0.1-0.7c0-0.4,0.1-0.8,0.3-1c0.2-0.2,0.6-0.3,1-0.3c0.3,0,0.5,0.1,0.8,0.2
					c0.2,0.1,0.5,0.3,0.8,0.5c0.2,0.1,0.3,0.3,0.5,0.4c0.1,0.1,0.2,0.2,0.3,0.3v-1.6H22.8z"/>
				<polygon class="st77" points="18.5,164.9 22.8,166.1 22.8,167.1 18.5,168.4 18.5,167.5 21.5,166.6 18.5,165.8 				"/>
			</g>
			<path class="st77" d="M37.4,174.9v1.2l-0.9,0.3v1.6l0.9,0.3v1.1l-4.4-1.6v-1.3L37.4,174.9z M35.7,176.6l-1.6,0.5l1.6,0.5V176.6z"
				/>
			<path class="st77" d="M50.6,175.2c0.2,0,0.4,0,0.6,0.1c0.2,0.1,0.3,0.2,0.4,0.3c0.1,0.2,0.2,0.4,0.3,0.6c0.1,0.2,0.1,0.5,0.1,0.8
				v1.9h-4.4v-1.7c0-0.4,0-0.6,0-0.8c0-0.2,0.1-0.3,0.2-0.5c0.1-0.2,0.2-0.3,0.3-0.4c0.1-0.1,0.3-0.1,0.5-0.1c0.2,0,0.4,0.1,0.6,0.2
				c0.2,0.1,0.3,0.3,0.4,0.5h0c0.1-0.3,0.2-0.5,0.4-0.7C50.1,175.3,50.3,175.2,50.6,175.2z M48.8,176.6c-0.1,0-0.1,0-0.2,0.1
				c-0.1,0-0.1,0.1-0.2,0.2c0,0.1,0,0.2,0,0.3c0,0.1,0,0.3,0,0.5v0.1h0.9v-0.2c0-0.2,0-0.3,0-0.5s0-0.2-0.1-0.3
				c0-0.1-0.1-0.2-0.2-0.2C49,176.6,48.9,176.6,48.8,176.6z M50.6,176.3c-0.1,0-0.2,0-0.3,0.1c-0.1,0.1-0.1,0.1-0.2,0.3
				c0,0.1,0,0.2,0,0.4s0,0.3,0,0.5v0.2h1.1v-0.1c0-0.3,0-0.5,0-0.7s0-0.3-0.1-0.4c0-0.1-0.1-0.2-0.2-0.2
				C50.8,176.4,50.7,176.3,50.6,176.3z"/>
			<g>
				<path class="st77" d="M63.5,176.5c-0.1,0-0.2,0-0.3,0.1s-0.1,0.1-0.2,0.2c0,0.1,0,0.2-0.1,0.3c0,0.1,0,0.2,0,0.4v0.4h1.2v-0.3
					c0-0.2,0-0.3,0-0.5s-0.1-0.2-0.1-0.3c-0.1-0.1-0.1-0.1-0.2-0.2C63.7,176.5,63.6,176.5,63.5,176.5z M66.5,174.7v1.4l-1.6,1.2v0.5
					h1.6v1.1h-4.4V177c0-0.3,0-0.5,0-0.7s0.1-0.4,0.2-0.5c0.1-0.2,0.2-0.3,0.4-0.4c0.2-0.1,0.3-0.1,0.6-0.1c0.3,0,0.6,0.1,0.8,0.2
					c0.2,0.1,0.4,0.4,0.5,0.6L66.5,174.7z"/>
				<path class="st77" d="M65.1,171v2.4c0.3,0,0.5-0.1,0.6-0.3c0.1-0.2,0.2-0.4,0.2-0.8c0-0.2,0-0.4-0.1-0.6s-0.2-0.4-0.3-0.5v-0.1
					h0.8c0.1,0.2,0.2,0.5,0.2,0.7s0.1,0.4,0.1,0.7c0,0.7-0.1,1.2-0.4,1.5s-0.7,0.5-1.3,0.5c-0.5,0-1-0.2-1.3-0.5
					c-0.3-0.3-0.5-0.8-0.5-1.4c0-0.5,0.1-0.9,0.4-1.2c0.3-0.3,0.7-0.4,1.2-0.4H65.1z M64.5,172.1c-0.2,0-0.4,0.1-0.5,0.2
					s-0.2,0.3-0.2,0.5c0,0.2,0.1,0.4,0.2,0.5s0.3,0.2,0.5,0.2V172.1z"/>
				<path class="st77" d="M62.7,168.2L62.7,168.2c0,0.1,0,0.2,0,0.3c0,0.1,0,0.2,0,0.2c0,0.2,0,0.3,0.1,0.4c0.1,0.1,0.2,0.1,0.4,0.1
					h0v-0.8h0.7v0.8h2.6v1.1h-2.6v0.5h-0.7v-0.5h-0.1c-0.4,0-0.7-0.1-0.9-0.3c-0.2-0.2-0.3-0.5-0.3-1c0-0.2,0-0.3,0-0.4
					c0-0.1,0-0.2,0-0.3H62.7z"/>
				<rect x="65.4" y="166.6" class="st77" width="1.2" height="1.1"/>
			</g>
			<polyline class="st79" points="13.6,182.5 13.6,157.8 71.8,157.8 71.8,182.5 			"/>
		</g>
		<path class="st77" d="M32.3,167.6c0.3-0.4-0.1-2.4-1.1-4.1l-3,4.1C29,167.8,31.8,168.4,32.3,167.6z M58.4,160.7v0.3c0,0,0,0,0.1,0
			c0.1,0,0.2,0,0.2,0s0.1-0.1,0.1-0.1c0-0.1-0.1-0.2-0.2-0.2L58.4,160.7L58.4,160.7z M58.8,161.6l-0.3-0.4h-0.2v0.4h-0.1v-1h0.3
			c0.3,0,0.4,0.1,0.4,0.3c0,0.1-0.1,0.2-0.2,0.3l0.3,0.5H58.8z M59.3,161.1c0-0.2-0.1-0.4-0.2-0.5c-0.1-0.1-0.3-0.2-0.5-0.2
			c-0.2,0-0.4,0.1-0.5,0.2c-0.1,0.1-0.2,0.3-0.2,0.5c0,0.2,0.1,0.4,0.2,0.5c0.1,0.1,0.3,0.2,0.5,0.2c0.2,0,0.4-0.1,0.5-0.2
			C59.2,161.5,59.3,161.3,59.3,161.1z M57.7,161.1c0-0.2,0.1-0.4,0.2-0.6c0.2-0.2,0.4-0.2,0.6-0.2s0.4,0.1,0.6,0.2
			c0.2,0.2,0.2,0.4,0.2,0.6s-0.1,0.4-0.2,0.6c-0.2,0.2-0.4,0.2-0.6,0.2s-0.4-0.1-0.6-0.2S57.7,161.3,57.7,161.1z M56.4,163.2
			c-0.3,0-0.5,0.1-0.6,0.3c-0.2,0.2-0.2,0.4-0.2,0.7c0,0.3,0.1,0.5,0.2,0.7c0.2,0.2,0.4,0.3,0.7,0.3c0.3,0,0.5-0.1,0.6-0.3
			c0.2-0.2,0.2-0.4,0.2-0.8c0-0.3-0.1-0.5-0.2-0.7C56.9,163.3,56.7,163.2,56.4,163.2z M53.1,167v-2.5c0-0.5-0.1-0.8-0.2-1
			c-0.1-0.2-0.4-0.3-0.7-0.3c-0.2,0-0.4,0.1-0.5,0.2c-0.2,0.1-0.3,0.2-0.4,0.4v3.2h-0.8v-4.3H51l0.2,0.6c0.3-0.4,0.7-0.6,1.2-0.6
			c0.9,0,1.4,0.6,1.4,1.7v2.7H53.1z M48.5,167v-3.6H48v-0.6h1.3v4.3H48.5z M49,161.1c0.1,0,0.2,0,0.3,0.1c0.1,0.1,0.1,0.2,0.1,0.3
			c0,0.1,0,0.2-0.1,0.3c-0.1,0.1-0.2,0.1-0.3,0.1c-0.1,0-0.2,0-0.3-0.1c-0.1-0.1-0.1-0.2-0.1-0.3s0-0.2,0.1-0.3
			C48.7,161.1,48.8,161.1,49,161.1z M44,166.7l0.3-0.7c0.1,0.1,0.3,0.2,0.6,0.3c0.2,0.1,0.4,0.1,0.6,0.1c0.3,0,0.6-0.1,0.8-0.3
			c0.2-0.2,0.3-0.4,0.3-0.7c0-0.2-0.1-0.4-0.2-0.5c-0.1-0.2-0.4-0.4-0.8-0.6l-0.5-0.2c-0.4-0.2-0.7-0.4-0.8-0.7
			c-0.2-0.3-0.2-0.6-0.2-0.9c0-0.4,0.2-0.8,0.5-1.1c0.3-0.3,0.7-0.4,1.2-0.4c0.6,0,1.1,0.1,1.4,0.3l-0.2,0.7
			c-0.1-0.1-0.3-0.2-0.5-0.2c-0.2-0.1-0.4-0.1-0.6-0.1c-0.3,0-0.5,0.1-0.6,0.2c-0.2,0.2-0.2,0.4-0.2,0.6c0,0.1,0,0.3,0.1,0.4
			c0.1,0.1,0.1,0.2,0.2,0.3c0.1,0.1,0.3,0.2,0.6,0.3l0.5,0.2c0.4,0.2,0.7,0.4,0.8,0.7c0.2,0.3,0.2,0.6,0.2,1c0,0.4-0.2,0.8-0.5,1.1
			c-0.4,0.3-0.8,0.5-1.4,0.5C44.8,167.1,44.4,166.9,44,166.7z M39,161.1h0.8v4c0,0.4,0.1,0.7,0.3,0.9c0.2,0.2,0.5,0.3,0.9,0.3
			c0.4,0,0.7-0.1,0.9-0.3c0.2-0.2,0.3-0.5,0.3-0.9v-4h0.8v4.1c0,0.6-0.2,1.1-0.6,1.4c-0.4,0.3-0.9,0.5-1.5,0.5
			c-0.7,0-1.2-0.2-1.5-0.5s-0.5-0.8-0.5-1.4V161.1z M35.1,164v2.2c0.3,0,0.5,0,0.6,0c0.5,0,0.9-0.1,1.1-0.3c0.2-0.2,0.3-0.5,0.3-0.9
			c0-0.4-0.1-0.7-0.3-0.8c-0.2-0.2-0.6-0.3-1.1-0.3L35.1,164z M35.1,161.7v1.7c0.2,0,0.4,0,0.6,0c0.8,0,1.1-0.3,1.1-0.9
			c0-0.5-0.3-0.8-1-0.8C35.6,161.7,35.4,161.7,35.1,161.7z M36,167h-1.7v-5.9c0.7,0,1.2-0.1,1.5-0.1c0.6,0,1,0.1,1.3,0.4
			c0.3,0.2,0.5,0.6,0.5,1.1c0,0.3-0.1,0.5-0.3,0.7s-0.4,0.4-0.7,0.4c0.5,0.1,0.8,0.3,1,0.6c0.2,0.3,0.3,0.6,0.3,1.1
			c0,0.5-0.2,0.9-0.6,1.2C37.1,166.8,36.6,167,36,167z M55.2,167.6c0,0,0.9,0.4,1.2,0.4c0.3,0,0.6-0.1,0.8-0.2
			c0.2-0.1,0.3-0.3,0.3-0.4c0-0.3-0.3-0.5-0.8-0.5c-0.1,0-0.2,0-0.5,0.1c-0.2,0-0.4,0.1-0.5,0.1c-0.6,0-0.9-0.2-0.9-0.7
			c0-0.1,0.1-0.3,0.2-0.4c0.1-0.1,0.3-0.2,0.5-0.2c-0.6-0.3-0.9-0.8-0.9-1.5c0-0.4,0.2-0.8,0.5-1.1c0.3-0.3,0.7-0.4,1.2-0.4
			c0.4,0,0.8,0.1,1,0.3l0.4-0.5l0.5,0.5l-0.5,0.3c0.2,0.3,0.3,0.6,0.3,1c0,0.4-0.1,0.8-0.4,1.1c-0.3,0.3-0.6,0.5-1.1,0.5l-0.6,0.1
			c-0.1,0-0.2,0-0.3,0.1c-0.1,0-0.2,0.1-0.2,0.2c0,0.1,0.1,0.2,0.4,0.2c0.1,0,0.3,0,0.5-0.1c0.2,0,0.4-0.1,0.5-0.1
			c0.4,0,0.7,0.1,1,0.3c0.2,0.2,0.4,0.5,0.4,0.8c0,0.4-0.2,0.7-0.5,1c-0.4,0.2-0.8,0.4-1.3,0.4c-0.3,0-0.6,0-0.9-0.1
			c-0.1,0-0.2-0.1-0.3-0.1c-1.8-0.9-3.9-0.5-5.8-0.3c-3.9,0.4-10.7,1.7-14.4,0.9c-0.9-0.2-1.5-0.4-2.3-0.8c-1.2,1-4.5,0.2-5.7-0.2
			l1.1-1.4l-1.9-1.5l0.4-0.6l1.9,1.4l1.3-1.8l-1.9-1.5l0.4-0.6l1.9,1.4l1-1.4c0.6,0.8,2.3,3.8,1.8,5.4c2.9,1.2,6.1,0.9,9.2,0.7
			c2.4-0.2,4.7-0.6,7.1-0.9C51.4,167.2,53.3,166.8,55.2,167.6z"/>
		<g>
			<polygon class="st77" points="35.4,83.2 33.3,83.2 29.6,77.2 29.6,83.2 27.5,83.2 27.5,74.5 30.2,74.5 33.4,79.5 33.4,74.5 
				35.4,74.5 			"/>
			<polygon class="st77" points="60.6,83.2 54.3,83.2 54.3,74.5 56.5,74.5 56.5,81.5 60.6,81.5 			"/>
			<polygon class="st80" points="39.3,88.2 39.3,83.6 49.2,83.6 49.2,88.2 55.6,88.2 44.2,93.9 32.9,88.2 			"/>
			<path class="st77" d="M49.2,74.8c0,1.3-0.2,2.3-0.6,3c-0.4,0.7-1.1,1-1.9,1c-0.3,0-0.5,0-0.7-0.1c-0.2-0.1-0.4-0.2-0.6-0.3
				c-0.2-0.1-0.3-0.2-0.4-0.4c-0.1-0.1-0.3-0.3-0.4-0.5c-0.1-0.1-0.2-0.2-0.3-0.4c-0.1-0.2-0.2-0.3-0.3-0.4
				c-0.1-0.1-0.2-0.2-0.3-0.3c-0.1-0.1-0.2-0.1-0.3-0.1c-0.2,0-0.4,0.1-0.5,0.2s-0.2,0.3-0.3,0.5c-0.1,0.2-0.1,0.5-0.1,0.8
				c0,0.3,0,0.6,0,0.9h-1.6c0-1.3,0.2-2.3,0.7-3c0.4-0.7,1.1-1,1.9-1c0.3,0,0.5,0,0.7,0.1c0.2,0.1,0.4,0.2,0.6,0.3
				c0.2,0.1,0.3,0.2,0.4,0.4c0.1,0.1,0.3,0.3,0.4,0.4c0.1,0.1,0.2,0.2,0.3,0.4c0.1,0.1,0.2,0.3,0.4,0.4c0.1,0.1,0.2,0.2,0.3,0.3
				c0.1,0.1,0.2,0.1,0.3,0.1c0.2,0,0.4-0.1,0.5-0.2s0.2-0.3,0.3-0.5c0.1-0.2,0.1-0.5,0.1-0.8c0-0.3,0-0.6,0-1H49.2z"/>
		</g>
		<g>
			<polygon class="st76" points="22.6,106.3 19.8,109.2 19.8,108.1 13.6,108.1 13.6,104.6 19.8,104.6 19.8,103.4 			"/>
			<path class="st76" d="M29.3,102.3l-2.9,5.3v1h3.1v1.9h1.3v-1.9h1v-1h-1v-5.2H29.3z M27.5,107.6l2.1-4.1v4.1H27.5z"/>
			<polygon class="st76" points="33,102.5 33,110.5 37.6,110.5 37.6,109.4 34.3,109.4 34.3,106.9 36.8,106.9 36.8,105.8 34.3,105.8 
				34.3,103.5 37.5,103.5 37.5,102.5 			"/>
			<path class="st76" d="M41,102.3l-2.9,5.3v1h3.1v1.9h1.3v-1.9h1v-1h-1v-5.2H41z M39.1,107.6l2.1-4.1v4.1H39.1z"/>
			<path class="st76" d="M49.4,104.3c-0.2-0.6-0.6-1.9-2.5-1.9c-1.7,0-2.5,1.2-2.5,2.3c0,0.7,0.3,1.3,0.7,1.6
				c0.4,0.4,0.8,0.5,1.7,0.9c0.7,0.3,1.4,0.6,1.4,1.3c0,0.4-0.2,1.2-1.3,1.2c-1.3,0-1.5-1.1-1.6-1.5l-1.2,0.3
				c0.1,0.5,0.5,2.2,2.8,2.2c1.9,0,2.7-1.3,2.7-2.4c0-1.6-1.3-2.1-2.2-2.4c-0.9-0.4-1.6-0.6-1.6-1.3c0-0.4,0.2-1,1.1-1
				c0.8,0,1.2,0.5,1.4,1.2L49.4,104.3z"/>
		</g>
		<g>
			<g>
				<path class="st76" d="M29.1,122.8c0-0.3,0-0.5-0.3-0.7c-0.2-0.1-0.5-0.2-0.8-0.2c-0.5,0-1,0.1-1.1,0.7l0.5,0.1
					c0-0.1,0.1-0.4,0.6-0.4c0.2,0,0.5,0.1,0.5,0.4v0.2c-0.5,0-1.6,0-1.6,0.8c0,0.4,0.3,0.8,0.8,0.8c0.6,0,0.8-0.4,0.8-0.5
					c0,0.2,0,0.3,0.1,0.5h0.5c0-0.1-0.1-0.3-0.1-0.5V122.8z M28.5,123.4c0,0.2-0.1,0.7-0.6,0.7c-0.4,0-0.4-0.3-0.4-0.4
					c0-0.3,0.3-0.4,0.4-0.4c0.1,0,0.3-0.1,0.7-0.1V123.4z"/>
				<path class="st76" d="M31.2,123.6c-0.1,0.3-0.2,0.5-0.5,0.5c-0.5,0-0.5-0.7-0.5-0.8c0-0.1,0-0.3,0.1-0.5c0-0.1,0.1-0.4,0.5-0.4
					c0.2,0,0.4,0.1,0.5,0.5l0.5-0.1c0-0.2-0.2-0.8-1-0.8c-0.7,0-1.1,0.6-1.1,1.3c0,0.6,0.3,1.3,1.1,1.3c0.8,0,1-0.7,1-0.9
					L31.2,123.6z"/>
				<path class="st76" d="M33.2,124c-0.1,0-0.1,0-0.1,0c-0.3,0-0.4-0.1-0.4-0.4v-1.2h0.5V122h-0.5v-0.7l-0.5,0l-0.1,0.6h-0.3v0.4
					h0.3v1.3c0,0.3,0,0.4,0.2,0.6c0.1,0.1,0.3,0.2,0.5,0.2c0.1,0,0.3,0,0.4,0V124z"/>
				<path class="st76" d="M35.7,122h-0.6v1.2c0,0.2,0,0.4-0.1,0.5c-0.1,0.2-0.3,0.3-0.5,0.3c-0.3,0-0.3-0.2-0.3-0.5V122h-0.6v1.7
					c0,0.2,0,0.3,0.1,0.5c0.1,0.2,0.4,0.3,0.6,0.3c0.3,0,0.4-0.1,0.5-0.2c0.2-0.1,0.2-0.3,0.3-0.4v0.5h0.5V122z"/>
				<path class="st76" d="M38.4,122.8c0-0.3,0-0.5-0.3-0.7c-0.2-0.1-0.5-0.2-0.8-0.2c-0.5,0-1,0.1-1.1,0.7l0.5,0.1
					c0-0.1,0.1-0.4,0.6-0.4c0.3,0,0.5,0.1,0.5,0.4v0.2c-0.5,0-1.6,0-1.6,0.8c0,0.4,0.3,0.8,0.8,0.8c0.6,0,0.8-0.4,0.8-0.5
					c0,0.2,0,0.3,0.1,0.5h0.5c0-0.1-0.1-0.3-0.1-0.5V122.8z M37.9,123.4c0,0.2-0.1,0.7-0.6,0.7c-0.4,0-0.4-0.3-0.4-0.4
					c0-0.3,0.3-0.4,0.4-0.4c0.1,0,0.3-0.1,0.7-0.1V123.4z"/>
				<path class="st76" d="M40.2,124c-0.1,0-0.1,0-0.1,0c-0.3,0-0.4-0.1-0.4-0.4v-1.2h0.5V122h-0.5v-0.7l-0.5,0l-0.1,0.6h-0.3v0.4
					h0.3v1.3c0,0.3,0,0.4,0.2,0.6c0.1,0.1,0.3,0.2,0.5,0.2c0.1,0,0.3,0,0.4,0V124z"/>
				<path class="st76" d="M42.8,123.2c0-0.7-0.4-1.3-1.1-1.3c-0.8,0-1.2,0.6-1.2,1.3c0,0.6,0.3,1.3,1.1,1.3
					C42.3,124.5,42.8,124.1,42.8,123.2z M42.2,123.2c0,0.3,0,0.8-0.6,0.8c-0.6,0-0.6-0.7-0.6-0.8c0-0.4,0.1-0.8,0.6-0.8
					C42.1,122.4,42.2,122.8,42.2,123.2z"/>
				<path class="st76" d="M43.3,124.5h0.6v-1c0-0.4,0.1-0.6,0.2-0.7c0.2-0.2,0.4-0.2,0.5-0.2v-0.6c-0.5,0-0.7,0.5-0.8,0.7V122h-0.5
					V124.5z"/>
			</g>
			<g>
				<path class="st76" d="M29.1,116.8c0-0.3,0-0.5-0.3-0.7c-0.2-0.1-0.5-0.2-0.8-0.2c-0.5,0-1,0.1-1.1,0.7l0.5,0.1
					c0-0.1,0.1-0.4,0.6-0.4c0.2,0,0.5,0.1,0.5,0.4v0.2c-0.5,0-1.6,0-1.6,0.8c0,0.4,0.3,0.8,0.8,0.8c0.6,0,0.8-0.4,0.8-0.5
					c0,0.2,0,0.3,0.1,0.5h0.5c0-0.1-0.1-0.3-0.1-0.5V116.8z M28.5,117.4c0,0.2-0.1,0.7-0.6,0.7c-0.4,0-0.4-0.3-0.4-0.4
					c0-0.3,0.3-0.4,0.4-0.4c0.1,0,0.3-0.1,0.7-0.1V117.4z"/>
				<path class="st76" d="M31.2,117.6c-0.1,0.3-0.2,0.5-0.5,0.5c-0.5,0-0.5-0.7-0.5-0.8c0-0.1,0-0.3,0.1-0.5c0-0.1,0.1-0.4,0.5-0.4
					c0.2,0,0.4,0.1,0.5,0.5l0.5-0.1c0-0.2-0.2-0.8-1-0.8c-0.7,0-1.1,0.6-1.1,1.3c0,0.6,0.3,1.3,1.1,1.3c0.8,0,1-0.7,1-0.9
					L31.2,117.6z"/>
				<path class="st76" d="M33.2,118c-0.1,0-0.1,0-0.1,0c-0.3,0-0.4-0.1-0.4-0.4v-1.2h0.5V116h-0.5v-0.7l-0.5,0l-0.1,0.6h-0.3v0.4
					h0.3v1.3c0,0.3,0,0.4,0.2,0.6c0.1,0.1,0.3,0.2,0.5,0.2c0.1,0,0.3,0,0.4,0V118z"/>
				<path class="st76" d="M35.7,116h-0.6v1.2c0,0.2,0,0.4-0.1,0.5c-0.1,0.2-0.3,0.3-0.5,0.3c-0.3,0-0.3-0.2-0.3-0.5V116h-0.6v1.7
					c0,0.2,0,0.3,0.1,0.5c0.1,0.2,0.4,0.3,0.6,0.3c0.3,0,0.4-0.1,0.5-0.2c0.2-0.1,0.2-0.3,0.3-0.4v0.5h0.5V116z"/>
				<path class="st76" d="M38.4,116.8c0-0.3,0-0.5-0.3-0.7c-0.2-0.1-0.5-0.2-0.8-0.2c-0.5,0-1,0.1-1.1,0.7l0.5,0.1
					c0-0.1,0.1-0.4,0.6-0.4c0.3,0,0.5,0.1,0.5,0.4v0.2c-0.5,0-1.6,0-1.6,0.8c0,0.4,0.3,0.8,0.8,0.8c0.6,0,0.8-0.4,0.8-0.5
					c0,0.2,0,0.3,0.1,0.5h0.5c0-0.1-0.1-0.3-0.1-0.5V116.8z M37.9,117.4c0,0.2-0.1,0.7-0.6,0.7c-0.4,0-0.4-0.3-0.4-0.4
					c0-0.3,0.3-0.4,0.4-0.4c0.1,0,0.3-0.1,0.7-0.1V117.4z"/>
				<path class="st76" d="M41.1,118.5v-3.3h-0.6v1.2c-0.2-0.4-0.4-0.4-0.7-0.4c-0.8,0-1,0.8-1,1.3c0,0.3,0.1,1.3,0.9,1.3
					c0.5,0,0.7-0.4,0.7-0.5v0.5H41.1z M40.5,117.4c0,0.4-0.3,0.6-0.5,0.6c-0.5,0-0.5-0.7-0.5-0.8c0-0.2,0-0.9,0.5-0.9
					c0.1,0,0.3,0.1,0.4,0.2c0.1,0.1,0.1,0.2,0.1,0.5V117.4z"/>
				<path class="st76" d="M43.9,117.2c0-0.7-0.4-1.3-1.1-1.3c-0.8,0-1.2,0.6-1.2,1.3c0,0.6,0.3,1.3,1.1,1.3
					C43.4,118.5,43.9,118.1,43.9,117.2z M43.3,117.2c0,0.3,0,0.8-0.6,0.8c-0.6,0-0.6-0.7-0.6-0.8c0-0.4,0.1-0.8,0.6-0.8
					C43.2,116.4,43.3,116.8,43.3,117.2z"/>
				<path class="st76" d="M44.4,118.5H45v-1c0-0.4,0.1-0.6,0.2-0.7c0.2-0.2,0.4-0.2,0.5-0.2v-0.6c-0.5,0-0.7,0.5-0.8,0.7V116h-0.5
					V118.5z"/>
			</g>
		</g>
		<g>
			<polyline class="st81" points="94,83.6 94,89.2 89.7,89.2 			"/>
			<polyline class="st81" points="79.9,83.6 79.9,89.2 84.3,89.2 87.8,92.8 			"/>
		</g>
		<g>
			<polyline class="st81" points="123.2,83.6 123.2,89.2 118.9,89.2 			"/>
			<polyline class="st81" points="109.1,83.6 109.1,89.2 113.5,89.2 117.1,92.8 			"/>
		</g>
		<g>
			<polyline class="st81" points="152.5,83.6 152.5,89.2 148.2,89.2 			"/>
			<polyline class="st81" points="138.4,83.6 138.4,89.2 142.8,89.2 146.3,92.8 			"/>
		</g>
		<g>
			<polyline class="st81" points="181.7,83.6 181.7,89.2 177.4,89.2 			"/>
			<polyline class="st81" points="167.6,83.6 167.6,89.2 172,89.2 175.6,92.8 			"/>
		</g>
		<g>
			<rect x="160.4" y="101" class="st76" width="28.3" height="28.3"/>
			<path class="st77" d="M168.7,101.9h0.9v0.9h-0.9V101.9z M170.5,101.9h0.9v0.9h0.9v-0.9h0.9v0.9h1.8v1.8h2.7v0.9h0.9v-0.9h-0.9
				v-1.8h-0.9v0.9H176v-1.8h3.7v0.9h-0.9v0.9h1.8v0.9h-0.9v1.8h0.9v1.8h-0.9v-0.9h-0.9v0.9h0.9v0.9h-0.9v0.9h1.8v-0.9h0.9v0.9h1.8
				v-0.9h2.7v0.9h-1.8v0.9h-1.8v0.9h-1.8V111h-1.8v1.8h-0.9V112H176v-5.5h-0.9v-0.9h-1.8v0.9h-0.9v0.9h-0.9v1.8h0.9v-1.8h0.9v2.7
				h0.9v1.8h1.8v0.9h-0.9v0.9h-1.8v0.9h-0.9v1.8h-0.9v-0.9h-0.9v0.9h-1.8v-0.9h-4.6v-0.9h3.7v-0.9h-0.9v-0.9h1.8v1.8h0.9V111h0.9
				v-4.6h0.9v-0.9h0.9v-0.9h0.9v-0.9h-1.8v1.8h-1.8v0.9h-0.9v-2.7h0.9v-0.9h0.9V101.9z M176.9,107.4h0.9v0.9h-0.9V107.4z
				 M171.4,110.1h0.9v0.9h-0.9V110.1z M176.9,110.1h0.9v0.9h-0.9V110.1z M171.4,112h1.8v0.9h-0.9v0.9h-0.9V112z M170.5,113.8h0.9
				v0.9h-0.9V113.8z M173.2,106.5h1.8v3.7h-0.9v-2.7h-0.9V106.5z M168.7,107.4h0.9v0.9h-0.9V107.4z M161.4,109.2h3.7v0.9h-0.9v1.8
				h-0.9V111h-1.8V109.2z M166.8,109.2h0.9v0.9h-0.9V109.2z M168.7,109.2h0.9v1.8h-0.9V109.2z M187,109.2h0.9v1.8H187V109.2z
				 M165,110.1h0.9v0.9H165V110.1z M166.8,111h1.8v0.9h-1.8V111z M185.1,111h1.8v0.9h-1.8V111z M161.4,112h1.8v0.9h2.7v0.9h-1.8v0.9
				h-0.9v-0.9h-0.9v-0.9h-0.9V112z M165.9,112h0.9v0.9h-0.9V112z M182.4,112h0.9v0.9h-0.9V112z M187,112h0.9v0.9H187V112z
				 M176.9,112.9h0.9v2.7H176v-0.9h-0.9v-0.9h1.8V112.9z M184.2,112.9h1.8v0.9h1.8v1.8H187v2.7H186v2.7h1.8v0.9H187v0.9H186V122
				h-0.9v1.8h-0.9v-3.7h0.9v-1.8h-0.9v-0.9h-0.9v0.9h-0.9v-3.7h1.8v1.8h0.9v0.9h0.9v-1.8h-0.9v-1.8h-0.9V112.9z M178.7,113.8h0.9
				v1.8h0.9v0.9h0.9v1.8h-0.9v-0.9h-1.8v4.6h-0.9v0.9H176v-1.8h0.9v-2.7h0.9v-2.7h0.9V113.8z M181.5,113.8h0.9v0.9h-0.9V113.8z
				 M161.4,115.6h0.9v0.9h0.9v0.9h0.9v-0.9h0.9v0.9h0.9v0.9h-1.8v0.9h-0.9v-0.9h-0.9v-0.9h-0.9V115.6z M174.2,115.6h0.9v1.8h-1.8
				v-0.9h0.9V115.6z M166.8,116.5h0.9v0.9h-0.9V116.5z M170.5,116.5h0.9v0.9h-0.9V116.5z M176,116.5h0.9v0.9H176V116.5z
				 M167.8,117.4h2.7v2.7h1.8v0.9h0.9v1.8h-0.9v0.9h-0.9v-0.9h-0.9V122h0.9v-0.9h-0.9v0.9h-1.8v-0.9h0.9v-2.7h-0.9v0.9h-2.7v-0.9
				h1.8V117.4z M175.1,117.4h0.9v1.8h-2.7v-0.9h1.8V117.4z M161.4,118.4h0.9v0.9h-0.9V118.4z M164.1,119.3h1.8v0.9H165v0.9h-2.7
				v-0.9h1.8V119.3z M172.3,119.3h0.9v0.9h-0.9V119.3z M180.6,119.3h0.9v0.9h-0.9V119.3z M183.3,119.3h0.9v0.9h-0.9V119.3z
				 M166.8,120.2h0.9v0.9h-0.9V120.2z M174.2,121.1h0.9v0.9h-0.9V121.1z M178.7,122h0.9v0.9h-0.9V122z M173.2,122.9h0.9v0.9h0.9v0.9
				h0.9v0.9h-0.9v0.9h1.8v0.9h-1.8v0.9h-3.7v-0.9h2.7v-0.9h-0.9v-0.9h0.9v-0.9h-0.9V122.9z M175.1,122.9h0.9v0.9h-0.9V122.9z
				 M177.8,122.9h0.9v0.9h-0.9V122.9z M169.6,123.8h1.8v1.8h-1.8v1.8h0.9v0.9h-1.8v-3.7h0.9V123.8z M176.9,123.8h0.9v0.9h1.8v1.8
				h0.9v0.9h0.9v0.9h-3.7v-2.7h-0.9V123.8z M185.1,123.8h0.9v0.9h-0.9V123.8z M187,123.8h0.9v2.7H187V123.8z M172.3,124.8h0.9v0.9
				h-0.9V124.8z M180.6,124.8h0.9v0.9h-0.9V124.8z M182.4,124.8h2.7v0.9h-1.8v0.9h1.8v0.9h-0.9v0.9h-1.8v-0.9h-0.9v-0.9h0.9V124.8z
				 M185.1,125.7h0.9v0.9h-0.9V125.7z M170.5,126.6h0.9v0.9h-0.9V126.6z M186,126.6h0.9v1.8H186V126.6z"/>
			<path class="st77" d="M161.4,101.9h6.4l0,0l0,0v6.4l0,0l0,0h-6.4l0,0l0,0V101.9L161.4,101.9L161.4,101.9z M162.3,102.8h4.6l0,0
				l0,0v4.6l0,0l0,0h-4.6l0,0l0,0V102.8L162.3,102.8L162.3,102.8z M163.2,103.7h2.7l0,0l0,0v2.7l0,0l0,0h-2.7l0,0l0,0V103.7
				L163.2,103.7L163.2,103.7z M181.5,101.9h6.4l0,0l0,0v6.4l0,0l0,0h-6.4l0,0l0,0V101.9L181.5,101.9L181.5,101.9z M182.4,102.8h4.6
				l0,0l0,0v4.6l0,0l0,0h-4.6l0,0l0,0V102.8L182.4,102.8L182.4,102.8z M183.3,103.7h2.7l0,0l0,0v2.7l0,0l0,0h-2.7l0,0l0,0V103.7
				L183.3,103.7L183.3,103.7z M161.4,122h6.4l0,0l0,0v6.4l0,0l0,0h-6.4l0,0l0,0V122L161.4,122L161.4,122z M162.3,122.9h4.6l0,0l0,0
				v4.6l0,0l0,0h-4.6l0,0l0,0V122.9L162.3,122.9L162.3,122.9z M163.2,123.8h2.7l0,0l0,0v2.7l0,0l0,0h-2.7l0,0l0,0V123.8L163.2,123.8
				L163.2,123.8z M179.6,120.2h4.6l0,0l0,0v4.6l0,0l0,0h-4.6l0,0l0,0V120.2L179.6,120.2L179.6,120.2z M180.6,121.1h2.7l0,0l0,0v2.7
				l0,0l0,0h-2.7l0,0l0,0V121.1L180.6,121.1L180.6,121.1z M181.5,122h0.9l0,0l0,0v0.9l0,0l0,0h-0.9l0,0l0,0V122L181.5,122L181.5,122
				z"/>
			<g>
				<path class="st76" d="M158.4,128.7H156v0.6h2.5V128.7z M155.7,128.7h-0.6v0.6h0.6V128.7z"/>
				<path class="st76" d="M158.4,128v-0.6h-1.2c-0.8,0-0.9-0.4-0.9-0.5c0-0.1,0-0.4,0.6-0.4h1.4V126H157c-0.3,0-1.1,0-1.1,0.8
					c0,0.5,0.4,0.7,0.6,0.7H156v0.5H158.4z"/>
				<path class="st76" d="M158.4,124.7h-2v-0.5H156v0.5c-0.4,0-0.5,0-0.5-0.4c0,0,0-0.1,0-0.1h-0.4c0,0.4,0,0.7,0.1,0.8
					c0.2,0.3,0.5,0.3,0.8,0.3v0.4h0.4v-0.4h2V124.7z"/>
				<path class="st76" d="M157.2,121.6c-0.7,0-1.3,0.4-1.3,1.1c0,0.8,0.6,1.2,1.3,1.2c0.6,0,1.3-0.3,1.3-1.1
					C158.5,122.1,158,121.6,157.2,121.6z M157.2,122.2c0.3,0,0.8,0,0.8,0.6c0,0.6-0.7,0.6-0.8,0.6c-0.4,0-0.8-0.1-0.8-0.6
					C156.4,122.3,156.8,122.2,157.2,122.2z"/>
			</g>
		</g>
		<g>
			<rect x="167.9" y="135.4" class="st82" width="13.5" height="13.5"/>
			<rect x="170.6" y="138.2" class="st82" width="8" height="8"/>
		</g>
	</g>
</g>
</svg>
