<?xml version="1.0" encoding="utf-8"?>
<!-- Generator: Adobe Illustrator 24.3.0, SVG Export Plug-In . SVG Version: 6.00 Build 0)  -->
<svg version="1.1" id="Foreground" xmlns="http://www.w3.org/2000/svg" xmlns:xlink="http://www.w3.org/1999/xlink" x="0px" y="0px"
	 viewBox="0 0 462 261.4" style="enable-background:new 0 0 462 261.4;" xml:space="preserve">
<style type="text/css">
	.st0{fill-rule:evenodd;clip-rule:evenodd;fill:#314A7D;stroke:#1A171B;stroke-width:0.5;stroke-miterlimit:3.8637;}
	.st1{fill:#312F32;stroke:#1A171B;stroke-width:0.5;stroke-miterlimit:3.8637;}
	.st2{fill-rule:evenodd;clip-rule:evenodd;fill:#E8E8E8;stroke:#1A171B;stroke-width:0.5;stroke-miterlimit:3.8637;}
	.st3{fill-rule:evenodd;clip-rule:evenodd;fill:#007F50;stroke:#1A171B;stroke-width:0.5;stroke-miterlimit:3.8637;}
	.st4{fill-rule:evenodd;clip-rule:evenodd;fill:#195A39;stroke:#1A171B;stroke-width:0.5;stroke-miterlimit:3.8637;}
	.st5{fill:#00A768;stroke:#1A171B;stroke-width:0.5;stroke-miterlimit:3.8637;}
	.st6{clip-path:url(#SVGID_4_);}
	.st7{clip-path:url(#SVGID_5_);}
	
		.st8{clip-path:url(#SVGID_6_);fill-rule:evenodd;clip-rule:evenodd;fill:#D1D1D1;stroke:#1A171B;stroke-width:0.5;stroke-miterlimit:3.8637;}
	.st9{clip-path:url(#SVGID_10_);}
	.st10{clip-path:url(#SVGID_11_);}
	
		.st11{clip-path:url(#SVGID_12_);fill-rule:evenodd;clip-rule:evenodd;fill:#D1D1D1;stroke:#1A171B;stroke-width:0.5;stroke-miterlimit:3.8637;}
	.st12{fill-rule:evenodd;clip-rule:evenodd;fill:#00A768;stroke:#1A171B;stroke-width:0.5;stroke-miterlimit:3.8637;}
	.st13{clip-path:url(#SVGID_16_);}
	.st14{clip-path:url(#SVGID_17_);}
	
		.st15{clip-path:url(#SVGID_18_);fill-rule:evenodd;clip-rule:evenodd;fill:#D1D1D1;stroke:#1A171B;stroke-width:0.5;stroke-miterlimit:3.8637;}
	.st16{clip-path:url(#SVGID_22_);}
	.st17{clip-path:url(#SVGID_23_);}
	
		.st18{clip-path:url(#SVGID_24_);fill-rule:evenodd;clip-rule:evenodd;fill:#D1D1D1;stroke:#1A171B;stroke-width:0.5;stroke-miterlimit:3.8637;}
	.st19{clip-path:url(#SVGID_28_);}
	.st20{clip-path:url(#SVGID_29_);}
	
		.st21{clip-path:url(#SVGID_30_);fill-rule:evenodd;clip-rule:evenodd;fill:#D1D1D1;stroke:#1A171B;stroke-width:0.5;stroke-miterlimit:3.8637;}
	.st22{clip-path:url(#SVGID_34_);}
	.st23{clip-path:url(#SVGID_35_);}
	
		.st24{clip-path:url(#SVGID_36_);fill-rule:evenodd;clip-rule:evenodd;fill:#D1D1D1;stroke:#1A171B;stroke-width:0.5;stroke-miterlimit:3.8637;}
	.st25{clip-path:url(#SVGID_40_);}
	.st26{clip-path:url(#SVGID_41_);}
	
		.st27{clip-path:url(#SVGID_42_);fill-rule:evenodd;clip-rule:evenodd;fill:#D1D1D1;stroke:#1A171B;stroke-width:0.5;stroke-miterlimit:3.8637;}
	.st28{clip-path:url(#SVGID_46_);}
	.st29{clip-path:url(#SVGID_47_);}
	
		.st30{clip-path:url(#SVGID_48_);fill-rule:evenodd;clip-rule:evenodd;fill:#D1D1D1;stroke:#1A171B;stroke-width:0.5;stroke-miterlimit:3.8637;}
	.st31{fill-rule:evenodd;clip-rule:evenodd;fill:#9C2828;stroke:#1A171B;stroke-width:0.5;stroke-miterlimit:3.8637;}
	.st32{fill-rule:evenodd;clip-rule:evenodd;fill:#BE091E;stroke:#1A171B;stroke-width:0.5;stroke-miterlimit:3.8637;}
	.st33{clip-path:url(#SVGID_52_);}
	.st34{clip-path:url(#SVGID_53_);}
	
		.st35{clip-path:url(#SVGID_54_);fill-rule:evenodd;clip-rule:evenodd;fill:#D1D1D1;stroke:#1A171B;stroke-width:0.5;stroke-miterlimit:3.8637;}
	.st36{clip-path:url(#SVGID_58_);}
	.st37{clip-path:url(#SVGID_59_);}
	
		.st38{clip-path:url(#SVGID_60_);fill-rule:evenodd;clip-rule:evenodd;fill:#D1D1D1;stroke:#1A171B;stroke-width:0.5;stroke-miterlimit:3.8637;}
	.st39{clip-path:url(#SVGID_64_);}
	.st40{clip-path:url(#SVGID_65_);}
	
		.st41{clip-path:url(#SVGID_66_);fill-rule:evenodd;clip-rule:evenodd;fill:#D1D1D1;stroke:#1A171B;stroke-width:0.5;stroke-miterlimit:3.8637;}
	.st42{clip-path:url(#SVGID_70_);}
	.st43{clip-path:url(#SVGID_71_);}
	
		.st44{clip-path:url(#SVGID_72_);fill-rule:evenodd;clip-rule:evenodd;fill:#D1D1D1;stroke:#1A171B;stroke-width:0.5;stroke-miterlimit:3.8637;}
	.st45{fill-rule:evenodd;clip-rule:evenodd;fill:none;stroke:#1A171B;stroke-width:0.5;stroke-miterlimit:3.8637;}
	.st46{fill-rule:evenodd;clip-rule:evenodd;fill:#1A171B;stroke:#1A171B;stroke-width:0.5;stroke-miterlimit:3.8637;}
	.st47{fill-rule:evenodd;clip-rule:evenodd;fill:#3C3A3E;stroke:#1A171B;stroke-width:0.5;stroke-miterlimit:3.8637;}
	.st48{fill-rule:evenodd;clip-rule:evenodd;fill:#484649;stroke:#1A171B;stroke-width:0.5;stroke-miterlimit:3.8637;}
	.st49{fill-rule:evenodd;clip-rule:evenodd;fill:#312F32;stroke:#1A171B;stroke-width:0.5;stroke-miterlimit:3.8637;}
	.st50{clip-path:url(#SVGID_76_);}
	.st51{clip-path:url(#SVGID_77_);}
	
		.st52{clip-path:url(#SVGID_78_);fill-rule:evenodd;clip-rule:evenodd;fill:#D1D1D1;stroke:#1A171B;stroke-width:0.5;stroke-miterlimit:3.8637;}
	.st53{clip-path:url(#SVGID_82_);}
	.st54{clip-path:url(#SVGID_83_);}
	
		.st55{clip-path:url(#SVGID_84_);fill-rule:evenodd;clip-rule:evenodd;fill:#D1D1D1;stroke:#1A171B;stroke-width:0.5;stroke-miterlimit:3.8637;}
	.st56{clip-path:url(#SVGID_88_);}
	.st57{clip-path:url(#SVGID_89_);}
	
		.st58{clip-path:url(#SVGID_90_);fill-rule:evenodd;clip-rule:evenodd;fill:#D1D1D1;stroke:#1A171B;stroke-width:0.5;stroke-miterlimit:3.8637;}
	.st59{clip-path:url(#SVGID_94_);}
	.st60{clip-path:url(#SVGID_95_);}
	
		.st61{clip-path:url(#SVGID_96_);fill-rule:evenodd;clip-rule:evenodd;fill:#D1D1D1;stroke:#1A171B;stroke-width:0.5;stroke-miterlimit:3.8637;}
	.st62{clip-path:url(#SVGID_100_);}
	.st63{clip-path:url(#SVGID_101_);}
	
		.st64{clip-path:url(#SVGID_102_);fill-rule:evenodd;clip-rule:evenodd;fill:#D1D1D1;stroke:#1A171B;stroke-width:0.5;stroke-miterlimit:3.8637;}
	.st65{clip-path:url(#SVGID_106_);}
	.st66{clip-path:url(#SVGID_107_);}
	
		.st67{clip-path:url(#SVGID_108_);fill-rule:evenodd;clip-rule:evenodd;fill:#D1D1D1;stroke:#1A171B;stroke-width:0.5;stroke-miterlimit:3.8637;}
	.st68{clip-path:url(#SVGID_112_);}
	.st69{clip-path:url(#SVGID_113_);}
	
		.st70{clip-path:url(#SVGID_114_);fill-rule:evenodd;clip-rule:evenodd;fill:#D1D1D1;stroke:#1A171B;stroke-width:0.5;stroke-miterlimit:3.8637;}
	.st71{clip-path:url(#SVGID_118_);}
	.st72{clip-path:url(#SVGID_119_);}
	
		.st73{clip-path:url(#SVGID_120_);fill-rule:evenodd;clip-rule:evenodd;fill:#D1D1D1;stroke:#1A171B;stroke-width:0.5;stroke-miterlimit:3.8637;}
	.st74{fill-rule:evenodd;clip-rule:evenodd;fill:#E4E3E4;stroke:#1A171B;stroke-width:0.5;stroke-miterlimit:3.8637;}
	.st75{fill-rule:evenodd;clip-rule:evenodd;fill:#D6D5D6;stroke:#1A171B;stroke-width:0.5;stroke-miterlimit:3.8637;}
	.st76{fill:#D6D5D6;stroke:#1A171B;stroke-width:0.5;stroke-miterlimit:3.8637;}
	.st77{fill-rule:evenodd;clip-rule:evenodd;fill:#FFFFFF;}
	.st78{fill-rule:evenodd;clip-rule:evenodd;fill:#003E77;}
	.st79{fill-rule:evenodd;clip-rule:evenodd;fill:none;}
	.st80{fill:#003E77;}
	.st81{font-family:'Verdana-Bold';}
	.st82{font-size:8px;}
	.st83{font-size:7.5px;}
	.st84{font-size:6px;}
	.st85{fill:none;stroke:#003E77;stroke-width:0.25;stroke-miterlimit:3.8637;}
	.st86{font-size:12px;}
	.st87{fill:none;stroke:#003E77;stroke-width:1.0001;stroke-linejoin:round;stroke-miterlimit:3.8637;}
	.st88{fill:#FFFFFF;}
	.st89{font-family:'MyriadPro-Regular';}
	.st90{font-family:'ITCFranklinGothicStdMedCd';}
	.st91{font-family:'ITCFranklinGothicStdMed';}
	.st92{font-size:5px;}
	.st93{font-family:'TrebuchetMS';}
	.st94{font-size:13.644px;}
	.st95{font-size:4.8975px;}
	.st96{fill:#FFD616;}
	.st97{fill-rule:evenodd;clip-rule:evenodd;fill:none;stroke:#FFFFFF;stroke-width:0.7553;stroke-miterlimit:3.8637;}
</style>
<g>
	<rect x="0.3" y="0.3" class="st0" width="201.3" height="252.3"/>
	<g>
		<polygon class="st1" points="85.3,252.6 91,252.6 91,256.8 110.8,256.8 110.8,252.6 116.5,252.6 116.5,261.1 85.3,261.1 		"/>
		<rect x="116.5" y="252.6" class="st2" width="2.1" height="4.3"/>
		<rect x="83.2" y="252.6" class="st2" width="2.1" height="4.3"/>
	</g>
	<g>
		<rect x="17.3" y="4.5" class="st3" width="53.9" height="35.4"/>
		<rect x="54.1" y="36.3" class="st4" width="5.7" height="3.7"/>
		<rect x="28.6" y="36.3" class="st4" width="5.7" height="3.7"/>
		<path class="st5" d="M17.3,15.5h53.9v18.9H17.3V15.5z M22.2,24.8c0-2.9,1.3-5.5,3.4-7.2h-6.1v14.6h6.4
			C23.6,30.5,22.2,27.8,22.2,24.8z M62.8,17.6c2.1,1.7,3.4,4.3,3.4,7.2c0,3-1.4,5.7-3.7,7.4H69V17.6H62.8z M47.6,24.8
			c0-2.9,1.3-5.5,3.4-7.2H37.4c2.1,1.7,3.4,4.3,3.4,7.2c0,3-1.4,5.7-3.7,7.4h14.1C49,30.5,47.6,27.8,47.6,24.8z"/>
		<g>
			<defs>
				<path id="SVGID_1_" d="M49.9,24.8c0-3.9,3.2-7.1,7.1-7.1c3.9,0,7.1,3.2,7.1,7.1c0,3.9-3.2,7.1-7.1,7.1
					C53.1,31.9,49.9,28.7,49.9,24.8z"/>
			</defs>
			<defs>
				<path id="SVGID_2_" d="M49.9,24.8c0-3.9,3.2-7.1,7.1-7.1c3.9,0,7.1,3.2,7.1,7.1c0,3.9-3.2,7.1-7.1,7.1
					C53.1,31.9,49.9,28.7,49.9,24.8z"/>
			</defs>
			<defs>
				<path id="SVGID_3_" d="M49.9,24.8c0-3.9,3.2-7.1,7.1-7.1c3.9,0,7.1,3.2,7.1,7.1c0,3.9-3.2,7.1-7.1,7.1
					C53.1,31.9,49.9,28.7,49.9,24.8z"/>
			</defs>
			<use xlink:href="#SVGID_1_"  style="overflow:visible;fill-rule:evenodd;clip-rule:evenodd;fill:#FFFFFF;"/>
			<clipPath id="SVGID_4_">
				<use xlink:href="#SVGID_1_"  style="overflow:visible;"/>
			</clipPath>
			<clipPath id="SVGID_5_" class="st6">
				<use xlink:href="#SVGID_2_"  style="overflow:visible;"/>
			</clipPath>
			<clipPath id="SVGID_6_" class="st7">
				<use xlink:href="#SVGID_3_"  style="overflow:visible;"/>
			</clipPath>
			<rect x="48.5" y="23.4" transform="matrix(0.707 -0.7072 0.7072 0.707 -0.8304 47.5531)" class="st8" width="17" height="2.8"/>
			
				<use xlink:href="#SVGID_3_"  style="overflow:visible;fill-rule:evenodd;clip-rule:evenodd;fill:none;stroke:#1A171B;stroke-width:0.5;stroke-miterlimit:3.8637;"/>
		</g>
		<g>
			<defs>
				<path id="SVGID_7_" d="M24.4,24.8c0-3.9,3.2-7.1,7.1-7.1c3.9,0,7.1,3.2,7.1,7.1c0,3.9-3.2,7.1-7.1,7.1
					C27.6,31.9,24.4,28.7,24.4,24.8z"/>
			</defs>
			<defs>
				<path id="SVGID_8_" d="M24.4,24.8c0-3.9,3.2-7.1,7.1-7.1c3.9,0,7.1,3.2,7.1,7.1c0,3.9-3.2,7.1-7.1,7.1
					C27.6,31.9,24.4,28.7,24.4,24.8z"/>
			</defs>
			<defs>
				<path id="SVGID_9_" d="M24.4,24.8c0-3.9,3.2-7.1,7.1-7.1c3.9,0,7.1,3.2,7.1,7.1c0,3.9-3.2,7.1-7.1,7.1
					C27.6,31.9,24.4,28.7,24.4,24.8z"/>
			</defs>
			<use xlink:href="#SVGID_7_"  style="overflow:visible;fill-rule:evenodd;clip-rule:evenodd;fill:#FFFFFF;"/>
			<clipPath id="SVGID_10_">
				<use xlink:href="#SVGID_7_"  style="overflow:visible;"/>
			</clipPath>
			<clipPath id="SVGID_11_" class="st9">
				<use xlink:href="#SVGID_8_"  style="overflow:visible;"/>
			</clipPath>
			<clipPath id="SVGID_12_" class="st10">
				<use xlink:href="#SVGID_9_"  style="overflow:visible;"/>
			</clipPath>
			<rect x="23" y="23.4" transform="matrix(0.707 -0.7072 0.7072 0.707 -8.3049 29.5114)" class="st11" width="17" height="2.8"/>
			
				<use xlink:href="#SVGID_9_"  style="overflow:visible;fill-rule:evenodd;clip-rule:evenodd;fill:none;stroke:#1A171B;stroke-width:0.5;stroke-miterlimit:3.8637;"/>
		</g>
	</g>
	<g>
		<rect x="87.1" y="4.5" class="st12" width="87" height="35.4"/>
		<rect x="164.3" y="37.1" class="st4" width="5.7" height="2.8"/>
		<rect x="149.7" y="37.1" class="st4" width="5.7" height="2.8"/>
		<rect x="135" y="37.1" class="st4" width="5.7" height="2.8"/>
		<rect x="120.4" y="37.1" class="st4" width="5.7" height="2.8"/>
		<rect x="105.8" y="37.1" class="st4" width="5.7" height="2.8"/>
		<rect x="91.2" y="37.1" class="st4" width="5.7" height="2.8"/>
		<rect x="87.1" y="4.5" class="st3" width="87" height="2.8"/>
		<rect x="87.1" y="10.2" class="st12" width="87" height="17"/>
		<g>
			<defs>
				<path id="SVGID_13_" d="M88.5,19.8c0-3.1,2.5-5.7,5.7-5.7s5.7,2.5,5.7,5.7s-2.5,5.7-5.7,5.7S88.5,23,88.5,19.8z"/>
			</defs>
			<defs>
				<path id="SVGID_14_" d="M88.5,19.8c0-3.1,2.5-5.7,5.7-5.7s5.7,2.5,5.7,5.7s-2.5,5.7-5.7,5.7S88.5,23,88.5,19.8z"/>
			</defs>
			<defs>
				<path id="SVGID_15_" d="M88.5,19.8c0-3.1,2.5-5.7,5.7-5.7s5.7,2.5,5.7,5.7s-2.5,5.7-5.7,5.7S88.5,23,88.5,19.8z"/>
			</defs>
			<use xlink:href="#SVGID_13_"  style="overflow:visible;fill-rule:evenodd;clip-rule:evenodd;fill:#FFFFFF;"/>
			<clipPath id="SVGID_16_">
				<use xlink:href="#SVGID_13_"  style="overflow:visible;"/>
			</clipPath>
			<clipPath id="SVGID_17_" class="st13">
				<use xlink:href="#SVGID_14_"  style="overflow:visible;"/>
			</clipPath>
			<clipPath id="SVGID_18_" class="st14">
				<use xlink:href="#SVGID_15_"  style="overflow:visible;"/>
			</clipPath>
			
				<rect x="93.1" y="13.6" transform="matrix(0.7071 -0.7071 0.7071 0.7071 13.5786 72.43)" class="st15" width="2.3" height="12.4"/>
			
				<use xlink:href="#SVGID_15_"  style="overflow:visible;fill-rule:evenodd;clip-rule:evenodd;fill:none;stroke:#1A171B;stroke-width:0.5;stroke-miterlimit:3.8637;"/>
		</g>
		<g>
			<defs>
				<path id="SVGID_19_" d="M103.1,19.8c0-3.1,2.5-5.7,5.7-5.7s5.7,2.5,5.7,5.7s-2.5,5.7-5.7,5.7S103.1,23,103.1,19.8z"/>
			</defs>
			<defs>
				<path id="SVGID_20_" d="M103.1,19.8c0-3.1,2.5-5.7,5.7-5.7s5.7,2.5,5.7,5.7s-2.5,5.7-5.7,5.7S103.1,23,103.1,19.8z"/>
			</defs>
			<defs>
				<path id="SVGID_21_" d="M103.1,19.8c0-3.1,2.5-5.7,5.7-5.7s5.7,2.5,5.7,5.7s-2.5,5.7-5.7,5.7S103.1,23,103.1,19.8z"/>
			</defs>
			<use xlink:href="#SVGID_19_"  style="overflow:visible;fill-rule:evenodd;clip-rule:evenodd;fill:#FFFFFF;"/>
			<clipPath id="SVGID_22_">
				<use xlink:href="#SVGID_19_"  style="overflow:visible;"/>
			</clipPath>
			<clipPath id="SVGID_23_" class="st16">
				<use xlink:href="#SVGID_20_"  style="overflow:visible;"/>
			</clipPath>
			<clipPath id="SVGID_24_" class="st17">
				<use xlink:href="#SVGID_21_"  style="overflow:visible;"/>
			</clipPath>
			
				<rect x="107.7" y="13.6" transform="matrix(0.7071 -0.7071 0.7071 0.7071 17.8518 82.7349)" class="st18" width="2.3" height="12.4"/>
			
				<use xlink:href="#SVGID_21_"  style="overflow:visible;fill-rule:evenodd;clip-rule:evenodd;fill:none;stroke:#1A171B;stroke-width:0.5;stroke-miterlimit:3.8637;"/>
		</g>
		<g>
			<defs>
				<path id="SVGID_25_" d="M117.7,19.8c0-3.1,2.5-5.7,5.7-5.7s5.7,2.5,5.7,5.7s-2.5,5.7-5.7,5.7S117.7,23,117.7,19.8z"/>
			</defs>
			<defs>
				<path id="SVGID_26_" d="M117.7,19.8c0-3.1,2.5-5.7,5.7-5.7s5.7,2.5,5.7,5.7s-2.5,5.7-5.7,5.7S117.7,23,117.7,19.8z"/>
			</defs>
			<defs>
				<path id="SVGID_27_" d="M117.7,19.8c0-3.1,2.5-5.7,5.7-5.7s5.7,2.5,5.7,5.7s-2.5,5.7-5.7,5.7S117.7,23,117.7,19.8z"/>
			</defs>
			<use xlink:href="#SVGID_25_"  style="overflow:visible;fill-rule:evenodd;clip-rule:evenodd;fill:#FFFFFF;"/>
			<clipPath id="SVGID_28_">
				<use xlink:href="#SVGID_25_"  style="overflow:visible;"/>
			</clipPath>
			<clipPath id="SVGID_29_" class="st19">
				<use xlink:href="#SVGID_26_"  style="overflow:visible;"/>
			</clipPath>
			<clipPath id="SVGID_30_" class="st20">
				<use xlink:href="#SVGID_27_"  style="overflow:visible;"/>
			</clipPath>
			
				<rect x="122.2" y="13.6" transform="matrix(0.7071 -0.7071 0.7071 0.7071 22.1195 93.0456)" class="st21" width="2.3" height="12.4"/>
			
				<use xlink:href="#SVGID_27_"  style="overflow:visible;fill-rule:evenodd;clip-rule:evenodd;fill:none;stroke:#1A171B;stroke-width:0.5;stroke-miterlimit:3.8637;"/>
		</g>
		<g>
			<defs>
				<path id="SVGID_31_" d="M132.3,19.8c0-3.1,2.5-5.7,5.7-5.7s5.7,2.5,5.7,5.7s-2.5,5.7-5.7,5.7S132.3,23,132.3,19.8z"/>
			</defs>
			<defs>
				<path id="SVGID_32_" d="M132.3,19.8c0-3.1,2.5-5.7,5.7-5.7s5.7,2.5,5.7,5.7s-2.5,5.7-5.7,5.7S132.3,23,132.3,19.8z"/>
			</defs>
			<defs>
				<path id="SVGID_33_" d="M132.3,19.8c0-3.1,2.5-5.7,5.7-5.7s5.7,2.5,5.7,5.7s-2.5,5.7-5.7,5.7S132.3,23,132.3,19.8z"/>
			</defs>
			<use xlink:href="#SVGID_31_"  style="overflow:visible;fill-rule:evenodd;clip-rule:evenodd;fill:#FFFFFF;"/>
			<clipPath id="SVGID_34_">
				<use xlink:href="#SVGID_31_"  style="overflow:visible;"/>
			</clipPath>
			<clipPath id="SVGID_35_" class="st22">
				<use xlink:href="#SVGID_32_"  style="overflow:visible;"/>
			</clipPath>
			<clipPath id="SVGID_36_" class="st23">
				<use xlink:href="#SVGID_33_"  style="overflow:visible;"/>
			</clipPath>
			
				<rect x="136.8" y="13.6" transform="matrix(0.7071 -0.7071 0.7071 0.7071 26.3928 103.3506)" class="st24" width="2.3" height="12.4"/>
			
				<use xlink:href="#SVGID_33_"  style="overflow:visible;fill-rule:evenodd;clip-rule:evenodd;fill:none;stroke:#1A171B;stroke-width:0.5;stroke-miterlimit:3.8637;"/>
		</g>
		<g>
			<defs>
				<path id="SVGID_37_" d="M146.9,19.8c0-3.1,2.5-5.7,5.7-5.7s5.7,2.5,5.7,5.7s-2.5,5.7-5.7,5.7S146.9,23,146.9,19.8z"/>
			</defs>
			<defs>
				<path id="SVGID_38_" d="M146.9,19.8c0-3.1,2.5-5.7,5.7-5.7s5.7,2.5,5.7,5.7s-2.5,5.7-5.7,5.7S146.9,23,146.9,19.8z"/>
			</defs>
			<defs>
				<path id="SVGID_39_" d="M146.9,19.8c0-3.1,2.5-5.7,5.7-5.7s5.7,2.5,5.7,5.7s-2.5,5.7-5.7,5.7S146.9,23,146.9,19.8z"/>
			</defs>
			<use xlink:href="#SVGID_37_"  style="overflow:visible;fill-rule:evenodd;clip-rule:evenodd;fill:#FFFFFF;"/>
			<clipPath id="SVGID_40_">
				<use xlink:href="#SVGID_37_"  style="overflow:visible;"/>
			</clipPath>
			<clipPath id="SVGID_41_" class="st25">
				<use xlink:href="#SVGID_38_"  style="overflow:visible;"/>
			</clipPath>
			<clipPath id="SVGID_42_" class="st26">
				<use xlink:href="#SVGID_39_"  style="overflow:visible;"/>
			</clipPath>
			
				<rect x="151.4" y="13.6" transform="matrix(0.7071 -0.7071 0.7071 0.7071 30.6596 113.6615)" class="st27" width="2.3" height="12.4"/>
			
				<use xlink:href="#SVGID_39_"  style="overflow:visible;fill-rule:evenodd;clip-rule:evenodd;fill:none;stroke:#1A171B;stroke-width:0.5;stroke-miterlimit:3.8637;"/>
		</g>
		<g>
			<defs>
				<path id="SVGID_43_" d="M161.4,19.8c0-3.1,2.5-5.7,5.7-5.7s5.7,2.5,5.7,5.7s-2.5,5.7-5.7,5.7S161.4,23,161.4,19.8z"/>
			</defs>
			<defs>
				<path id="SVGID_44_" d="M161.4,19.8c0-3.1,2.5-5.7,5.7-5.7s5.7,2.5,5.7,5.7s-2.5,5.7-5.7,5.7S161.4,23,161.4,19.8z"/>
			</defs>
			<defs>
				<path id="SVGID_45_" d="M161.4,19.8c0-3.1,2.5-5.7,5.7-5.7s5.7,2.5,5.7,5.7s-2.5,5.7-5.7,5.7S161.4,23,161.4,19.8z"/>
			</defs>
			<use xlink:href="#SVGID_43_"  style="overflow:visible;fill-rule:evenodd;clip-rule:evenodd;fill:#FFFFFF;"/>
			<clipPath id="SVGID_46_">
				<use xlink:href="#SVGID_43_"  style="overflow:visible;"/>
			</clipPath>
			<clipPath id="SVGID_47_" class="st28">
				<use xlink:href="#SVGID_44_"  style="overflow:visible;"/>
			</clipPath>
			<clipPath id="SVGID_48_" class="st29">
				<use xlink:href="#SVGID_45_"  style="overflow:visible;"/>
			</clipPath>
			
				<rect x="166" y="13.6" transform="matrix(0.7071 -0.7071 0.7071 0.7071 34.933 123.9665)" class="st30" width="2.3" height="12.4"/>
			
				<use xlink:href="#SVGID_45_"  style="overflow:visible;fill-rule:evenodd;clip-rule:evenodd;fill:none;stroke:#1A171B;stroke-width:0.5;stroke-miterlimit:3.8637;"/>
		</g>
	</g>
	<g>
		<rect x="13.8" y="212.9" class="st31" width="57.5" height="35.4"/>
		<rect x="13.8" y="225.6" class="st32" width="57.5" height="17"/>
		<g>
			<defs>
				<path id="SVGID_49_" d="M58.9,233c0-3.1,2.5-5.7,5.7-5.7s5.7,2.5,5.7,5.7c0,3.1-2.5,5.7-5.7,5.7S58.9,236.2,58.9,233z"/>
			</defs>
			<defs>
				<path id="SVGID_50_" d="M58.9,233c0-3.1,2.5-5.7,5.7-5.7s5.7,2.5,5.7,5.7c0,3.1-2.5,5.7-5.7,5.7S58.9,236.2,58.9,233z"/>
			</defs>
			<defs>
				<path id="SVGID_51_" d="M58.9,233c0-3.1,2.5-5.7,5.7-5.7s5.7,2.5,5.7,5.7c0,3.1-2.5,5.7-5.7,5.7S58.9,236.2,58.9,233z"/>
			</defs>
			<use xlink:href="#SVGID_49_"  style="overflow:visible;fill-rule:evenodd;clip-rule:evenodd;fill:#FFFFFF;"/>
			<clipPath id="SVGID_52_">
				<use xlink:href="#SVGID_49_"  style="overflow:visible;"/>
			</clipPath>
			<clipPath id="SVGID_53_" class="st33">
				<use xlink:href="#SVGID_50_"  style="overflow:visible;"/>
			</clipPath>
			<clipPath id="SVGID_54_" class="st34">
				<use xlink:href="#SVGID_51_"  style="overflow:visible;"/>
			</clipPath>
			
				<rect x="63.5" y="226.8" transform="matrix(0.7071 -0.7071 0.7071 0.7071 -145.8553 113.9405)" class="st35" width="2.3" height="12.4"/>
			
				<use xlink:href="#SVGID_51_"  style="overflow:visible;fill-rule:evenodd;clip-rule:evenodd;fill:none;stroke:#1A171B;stroke-width:0.5;stroke-miterlimit:3.8637;"/>
		</g>
		<g>
			<defs>
				<path id="SVGID_55_" d="M44.4,233c0-3.1,2.5-5.7,5.7-5.7s5.7,2.5,5.7,5.7c0,3.1-2.5,5.7-5.7,5.7S44.4,236.2,44.4,233z"/>
			</defs>
			<defs>
				<path id="SVGID_56_" d="M44.4,233c0-3.1,2.5-5.7,5.7-5.7s5.7,2.5,5.7,5.7c0,3.1-2.5,5.7-5.7,5.7S44.4,236.2,44.4,233z"/>
			</defs>
			<defs>
				<path id="SVGID_57_" d="M44.4,233c0-3.1,2.5-5.7,5.7-5.7s5.7,2.5,5.7,5.7c0,3.1-2.5,5.7-5.7,5.7S44.4,236.2,44.4,233z"/>
			</defs>
			<use xlink:href="#SVGID_55_"  style="overflow:visible;fill-rule:evenodd;clip-rule:evenodd;fill:#FFFFFF;"/>
			<clipPath id="SVGID_58_">
				<use xlink:href="#SVGID_55_"  style="overflow:visible;"/>
			</clipPath>
			<clipPath id="SVGID_59_" class="st36">
				<use xlink:href="#SVGID_56_"  style="overflow:visible;"/>
			</clipPath>
			<clipPath id="SVGID_60_" class="st37">
				<use xlink:href="#SVGID_57_"  style="overflow:visible;"/>
			</clipPath>
			
				<rect x="48.9" y="226.8" transform="matrix(0.7071 -0.7071 0.7071 0.7071 -150.1282 103.6355)" class="st38" width="2.3" height="12.4"/>
			
				<use xlink:href="#SVGID_57_"  style="overflow:visible;fill-rule:evenodd;clip-rule:evenodd;fill:none;stroke:#1A171B;stroke-width:0.5;stroke-miterlimit:3.8637;"/>
		</g>
		<g>
			<defs>
				<path id="SVGID_61_" d="M29.8,233c0-3.1,2.5-5.7,5.7-5.7s5.7,2.5,5.7,5.7c0,3.1-2.5,5.7-5.7,5.7S29.8,236.2,29.8,233z"/>
			</defs>
			<defs>
				<path id="SVGID_62_" d="M29.8,233c0-3.1,2.5-5.7,5.7-5.7s5.7,2.5,5.7,5.7c0,3.1-2.5,5.7-5.7,5.7S29.8,236.2,29.8,233z"/>
			</defs>
			<defs>
				<path id="SVGID_63_" d="M29.8,233c0-3.1,2.5-5.7,5.7-5.7s5.7,2.5,5.7,5.7c0,3.1-2.5,5.7-5.7,5.7S29.8,236.2,29.8,233z"/>
			</defs>
			<use xlink:href="#SVGID_61_"  style="overflow:visible;fill-rule:evenodd;clip-rule:evenodd;fill:#FFFFFF;"/>
			<clipPath id="SVGID_64_">
				<use xlink:href="#SVGID_61_"  style="overflow:visible;"/>
			</clipPath>
			<clipPath id="SVGID_65_" class="st39">
				<use xlink:href="#SVGID_62_"  style="overflow:visible;"/>
			</clipPath>
			<clipPath id="SVGID_66_" class="st40">
				<use xlink:href="#SVGID_63_"  style="overflow:visible;"/>
			</clipPath>
			
				<rect x="34.3" y="226.8" transform="matrix(0.7071 -0.7071 0.7071 0.7071 -154.3955 93.3247)" class="st41" width="2.3" height="12.4"/>
			
				<use xlink:href="#SVGID_63_"  style="overflow:visible;fill-rule:evenodd;clip-rule:evenodd;fill:none;stroke:#1A171B;stroke-width:0.5;stroke-miterlimit:3.8637;"/>
		</g>
		<g>
			<defs>
				<path id="SVGID_67_" d="M15.2,233c0-3.1,2.5-5.7,5.7-5.7s5.7,2.5,5.7,5.7c0,3.1-2.5,5.7-5.7,5.7S15.2,236.2,15.2,233z"/>
			</defs>
			<defs>
				<path id="SVGID_68_" d="M15.2,233c0-3.1,2.5-5.7,5.7-5.7s5.7,2.5,5.7,5.7c0,3.1-2.5,5.7-5.7,5.7S15.2,236.2,15.2,233z"/>
			</defs>
			<defs>
				<path id="SVGID_69_" d="M15.2,233c0-3.1,2.5-5.7,5.7-5.7s5.7,2.5,5.7,5.7c0,3.1-2.5,5.7-5.7,5.7S15.2,236.2,15.2,233z"/>
			</defs>
			<use xlink:href="#SVGID_67_"  style="overflow:visible;fill-rule:evenodd;clip-rule:evenodd;fill:#FFFFFF;"/>
			<clipPath id="SVGID_70_">
				<use xlink:href="#SVGID_67_"  style="overflow:visible;"/>
			</clipPath>
			<clipPath id="SVGID_71_" class="st42">
				<use xlink:href="#SVGID_68_"  style="overflow:visible;"/>
			</clipPath>
			<clipPath id="SVGID_72_" class="st43">
				<use xlink:href="#SVGID_69_"  style="overflow:visible;"/>
			</clipPath>
			
				<rect x="19.7" y="226.8" transform="matrix(0.7071 -0.7071 0.7071 0.7071 -158.6631 83.0139)" class="st44" width="2.3" height="12.4"/>
			
				<use xlink:href="#SVGID_69_"  style="overflow:visible;fill-rule:evenodd;clip-rule:evenodd;fill:none;stroke:#1A171B;stroke-width:0.5;stroke-miterlimit:3.8637;"/>
		</g>
		<rect x="18" y="215.7" class="st45" width="5.7" height="5.7"/>
		<rect x="32.6" y="215.7" class="st45" width="5.7" height="5.7"/>
		<rect x="47.2" y="215.7" class="st45" width="5.7" height="5.7"/>
		<rect x="61.8" y="215.7" class="st45" width="5.7" height="5.7"/>
		<rect x="18" y="212.9" class="st46" width="5.7" height="2.8"/>
		<rect x="32.6" y="212.9" class="st46" width="5.7" height="2.8"/>
		<rect x="47.2" y="212.9" class="st46" width="5.7" height="2.8"/>
		<rect x="61.8" y="212.9" class="st46" width="5.7" height="2.8"/>
		<rect x="13.8" y="245.5" class="st31" width="57.5" height="2.8"/>
	</g>
	<g>
		<rect x="72.1" y="212.9" class="st47" width="116.2" height="35.4"/>
		<rect x="76.2" y="215.7" class="st48" width="5.7" height="5.7"/>
		<rect x="90.9" y="215.7" class="st48" width="5.7" height="5.7"/>
		<rect x="105.5" y="215.7" class="st48" width="5.7" height="5.7"/>
		<rect x="120.1" y="215.7" class="st48" width="5.7" height="5.7"/>
		<rect x="134.7" y="215.7" class="st48" width="5.7" height="5.7"/>
		<rect x="149.4" y="215.7" class="st48" width="5.7" height="5.7"/>
		<rect x="164" y="215.7" class="st48" width="5.7" height="5.7"/>
		<rect x="178.6" y="215.7" class="st48" width="5.7" height="5.7"/>
		<rect x="76.2" y="212.9" class="st49" width="5.7" height="2.8"/>
		<rect x="90.9" y="212.9" class="st49" width="5.7" height="2.8"/>
		<rect x="105.5" y="212.9" class="st49" width="5.7" height="2.8"/>
		<rect x="120.1" y="212.9" class="st49" width="5.7" height="2.8"/>
		<rect x="134.7" y="212.9" class="st49" width="5.7" height="2.8"/>
		<rect x="149.4" y="212.9" class="st49" width="5.7" height="2.8"/>
		<rect x="164" y="212.9" class="st49" width="5.7" height="2.8"/>
		<rect x="178.6" y="212.9" class="st49" width="5.7" height="2.8"/>
		<rect x="72.1" y="225.6" class="st48" width="116.2" height="17"/>
		<g>
			<defs>
				<path id="SVGID_73_" d="M175.5,233c0-3.1,2.5-5.7,5.7-5.7s5.7,2.5,5.7,5.7c0,3.1-2.5,5.7-5.7,5.7S175.5,236.2,175.5,233z"/>
			</defs>
			<defs>
				<path id="SVGID_74_" d="M175.5,233c0-3.1,2.5-5.7,5.7-5.7s5.7,2.5,5.7,5.7c0,3.1-2.5,5.7-5.7,5.7S175.5,236.2,175.5,233z"/>
			</defs>
			<defs>
				<path id="SVGID_75_" d="M175.5,233c0-3.1,2.5-5.7,5.7-5.7s5.7,2.5,5.7,5.7c0,3.1-2.5,5.7-5.7,5.7S175.5,236.2,175.5,233z"/>
			</defs>
			<use xlink:href="#SVGID_73_"  style="overflow:visible;fill-rule:evenodd;clip-rule:evenodd;fill:#FFFFFF;"/>
			<clipPath id="SVGID_76_">
				<use xlink:href="#SVGID_73_"  style="overflow:visible;"/>
			</clipPath>
			<clipPath id="SVGID_77_" class="st50">
				<use xlink:href="#SVGID_74_"  style="overflow:visible;"/>
			</clipPath>
			<clipPath id="SVGID_78_" class="st51">
				<use xlink:href="#SVGID_75_"  style="overflow:visible;"/>
			</clipPath>
			
				<rect x="180.1" y="226.8" transform="matrix(0.7071 -0.7071 0.7071 0.7071 -111.7017 196.3888)" class="st52" width="2.3" height="12.4"/>
			
				<use xlink:href="#SVGID_75_"  style="overflow:visible;fill-rule:evenodd;clip-rule:evenodd;fill:none;stroke:#1A171B;stroke-width:0.5;stroke-miterlimit:3.8637;"/>
		</g>
		<g>
			<defs>
				<path id="SVGID_79_" d="M161,233c0-3.1,2.5-5.7,5.7-5.7s5.7,2.5,5.7,5.7c0,3.1-2.5,5.7-5.7,5.7S161,236.2,161,233z"/>
			</defs>
			<defs>
				<path id="SVGID_80_" d="M161,233c0-3.1,2.5-5.7,5.7-5.7s5.7,2.5,5.7,5.7c0,3.1-2.5,5.7-5.7,5.7S161,236.2,161,233z"/>
			</defs>
			<defs>
				<path id="SVGID_81_" d="M161,233c0-3.1,2.5-5.7,5.7-5.7s5.7,2.5,5.7,5.7c0,3.1-2.5,5.7-5.7,5.7S161,236.2,161,233z"/>
			</defs>
			<use xlink:href="#SVGID_79_"  style="overflow:visible;fill-rule:evenodd;clip-rule:evenodd;fill:#FFFFFF;"/>
			<clipPath id="SVGID_82_">
				<use xlink:href="#SVGID_79_"  style="overflow:visible;"/>
			</clipPath>
			<clipPath id="SVGID_83_" class="st53">
				<use xlink:href="#SVGID_80_"  style="overflow:visible;"/>
			</clipPath>
			<clipPath id="SVGID_84_" class="st54">
				<use xlink:href="#SVGID_81_"  style="overflow:visible;"/>
			</clipPath>
			
				<rect x="165.5" y="226.8" transform="matrix(0.7071 -0.7071 0.7071 0.7071 -115.975 186.0839)" class="st55" width="2.3" height="12.4"/>
			
				<use xlink:href="#SVGID_81_"  style="overflow:visible;fill-rule:evenodd;clip-rule:evenodd;fill:none;stroke:#1A171B;stroke-width:0.5;stroke-miterlimit:3.8637;"/>
		</g>
		<g>
			<defs>
				<path id="SVGID_85_" d="M146.4,233c0-3.1,2.5-5.7,5.7-5.7s5.7,2.5,5.7,5.7c0,3.1-2.5,5.7-5.7,5.7S146.4,236.2,146.4,233z"/>
			</defs>
			<defs>
				<path id="SVGID_86_" d="M146.4,233c0-3.1,2.5-5.7,5.7-5.7s5.7,2.5,5.7,5.7c0,3.1-2.5,5.7-5.7,5.7S146.4,236.2,146.4,233z"/>
			</defs>
			<defs>
				<path id="SVGID_87_" d="M146.4,233c0-3.1,2.5-5.7,5.7-5.7s5.7,2.5,5.7,5.7c0,3.1-2.5,5.7-5.7,5.7S146.4,236.2,146.4,233z"/>
			</defs>
			<use xlink:href="#SVGID_85_"  style="overflow:visible;fill-rule:evenodd;clip-rule:evenodd;fill:#FFFFFF;"/>
			<clipPath id="SVGID_88_">
				<use xlink:href="#SVGID_85_"  style="overflow:visible;"/>
			</clipPath>
			<clipPath id="SVGID_89_" class="st56">
				<use xlink:href="#SVGID_86_"  style="overflow:visible;"/>
			</clipPath>
			<clipPath id="SVGID_90_" class="st57">
				<use xlink:href="#SVGID_87_"  style="overflow:visible;"/>
			</clipPath>
			
				<rect x="150.9" y="226.8" transform="matrix(0.7071 -0.7071 0.7071 0.7071 -120.2419 175.7729)" class="st58" width="2.3" height="12.4"/>
			
				<use xlink:href="#SVGID_87_"  style="overflow:visible;fill-rule:evenodd;clip-rule:evenodd;fill:none;stroke:#1A171B;stroke-width:0.5;stroke-miterlimit:3.8637;"/>
		</g>
		<g>
			<defs>
				<path id="SVGID_91_" d="M131.8,233c0-3.1,2.5-5.7,5.7-5.7s5.7,2.5,5.7,5.7c0,3.1-2.5,5.7-5.7,5.7S131.8,236.2,131.8,233z"/>
			</defs>
			<defs>
				<path id="SVGID_92_" d="M131.8,233c0-3.1,2.5-5.7,5.7-5.7s5.7,2.5,5.7,5.7c0,3.1-2.5,5.7-5.7,5.7S131.8,236.2,131.8,233z"/>
			</defs>
			<defs>
				<path id="SVGID_93_" d="M131.8,233c0-3.1,2.5-5.7,5.7-5.7s5.7,2.5,5.7,5.7c0,3.1-2.5,5.7-5.7,5.7S131.8,236.2,131.8,233z"/>
			</defs>
			<use xlink:href="#SVGID_91_"  style="overflow:visible;fill-rule:evenodd;clip-rule:evenodd;fill:#FFFFFF;"/>
			<clipPath id="SVGID_94_">
				<use xlink:href="#SVGID_91_"  style="overflow:visible;"/>
			</clipPath>
			<clipPath id="SVGID_95_" class="st59">
				<use xlink:href="#SVGID_92_"  style="overflow:visible;"/>
			</clipPath>
			<clipPath id="SVGID_96_" class="st60">
				<use xlink:href="#SVGID_93_"  style="overflow:visible;"/>
			</clipPath>
			
				<rect x="136.3" y="226.8" transform="matrix(0.7071 -0.7071 0.7071 0.7071 -124.5152 165.4679)" class="st61" width="2.3" height="12.4"/>
			
				<use xlink:href="#SVGID_93_"  style="overflow:visible;fill-rule:evenodd;clip-rule:evenodd;fill:none;stroke:#1A171B;stroke-width:0.5;stroke-miterlimit:3.8637;"/>
		</g>
		<g>
			<defs>
				<path id="SVGID_97_" d="M117.2,233c0-3.1,2.5-5.7,5.7-5.7s5.7,2.5,5.7,5.7c0,3.1-2.5,5.7-5.7,5.7S117.2,236.2,117.2,233z"/>
			</defs>
			<defs>
				<path id="SVGID_98_" d="M117.2,233c0-3.1,2.5-5.7,5.7-5.7s5.7,2.5,5.7,5.7c0,3.1-2.5,5.7-5.7,5.7S117.2,236.2,117.2,233z"/>
			</defs>
			<defs>
				<path id="SVGID_99_" d="M117.2,233c0-3.1,2.5-5.7,5.7-5.7s5.7,2.5,5.7,5.7c0,3.1-2.5,5.7-5.7,5.7S117.2,236.2,117.2,233z"/>
			</defs>
			<use xlink:href="#SVGID_97_"  style="overflow:visible;fill-rule:evenodd;clip-rule:evenodd;fill:#FFFFFF;"/>
			<clipPath id="SVGID_100_">
				<use xlink:href="#SVGID_97_"  style="overflow:visible;"/>
			</clipPath>
			<clipPath id="SVGID_101_" class="st62">
				<use xlink:href="#SVGID_98_"  style="overflow:visible;"/>
			</clipPath>
			<clipPath id="SVGID_102_" class="st63">
				<use xlink:href="#SVGID_99_"  style="overflow:visible;"/>
			</clipPath>
			
				<rect x="121.8" y="226.8" transform="matrix(0.7071 -0.7071 0.7071 0.7071 -128.7828 155.1572)" class="st64" width="2.3" height="12.4"/>
			
				<use xlink:href="#SVGID_99_"  style="overflow:visible;fill-rule:evenodd;clip-rule:evenodd;fill:none;stroke:#1A171B;stroke-width:0.5;stroke-miterlimit:3.8637;"/>
		</g>
		<g>
			<defs>
				<path id="SVGID_103_" d="M102.7,233c0-3.1,2.5-5.7,5.7-5.7s5.7,2.5,5.7,5.7c0,3.1-2.5,5.7-5.7,5.7S102.7,236.2,102.7,233z"/>
			</defs>
			<defs>
				<path id="SVGID_104_" d="M102.7,233c0-3.1,2.5-5.7,5.7-5.7s5.7,2.5,5.7,5.7c0,3.1-2.5,5.7-5.7,5.7S102.7,236.2,102.7,233z"/>
			</defs>
			<defs>
				<path id="SVGID_105_" d="M102.7,233c0-3.1,2.5-5.7,5.7-5.7s5.7,2.5,5.7,5.7c0,3.1-2.5,5.7-5.7,5.7S102.7,236.2,102.7,233z"/>
			</defs>
			<use xlink:href="#SVGID_103_"  style="overflow:visible;fill-rule:evenodd;clip-rule:evenodd;fill:#FFFFFF;"/>
			<clipPath id="SVGID_106_">
				<use xlink:href="#SVGID_103_"  style="overflow:visible;"/>
			</clipPath>
			<clipPath id="SVGID_107_" class="st65">
				<use xlink:href="#SVGID_104_"  style="overflow:visible;"/>
			</clipPath>
			<clipPath id="SVGID_108_" class="st66">
				<use xlink:href="#SVGID_105_"  style="overflow:visible;"/>
			</clipPath>
			
				<rect x="107.2" y="226.8" transform="matrix(0.7071 -0.7071 0.7071 0.7071 -133.0558 144.8521)" class="st67" width="2.3" height="12.4"/>
			
				<use xlink:href="#SVGID_105_"  style="overflow:visible;fill-rule:evenodd;clip-rule:evenodd;fill:none;stroke:#1A171B;stroke-width:0.5;stroke-miterlimit:3.8637;"/>
		</g>
		<g>
			<defs>
				<path id="SVGID_109_" d="M88.1,233c0-3.1,2.5-5.7,5.7-5.7s5.7,2.5,5.7,5.7c0,3.1-2.5,5.7-5.7,5.7S88.1,236.2,88.1,233z"/>
			</defs>
			<defs>
				<path id="SVGID_110_" d="M88.1,233c0-3.1,2.5-5.7,5.7-5.7s5.7,2.5,5.7,5.7c0,3.1-2.5,5.7-5.7,5.7S88.1,236.2,88.1,233z"/>
			</defs>
			<defs>
				<path id="SVGID_111_" d="M88.1,233c0-3.1,2.5-5.7,5.7-5.7s5.7,2.5,5.7,5.7c0,3.1-2.5,5.7-5.7,5.7S88.1,236.2,88.1,233z"/>
			</defs>
			<use xlink:href="#SVGID_109_"  style="overflow:visible;fill-rule:evenodd;clip-rule:evenodd;fill:#FFFFFF;"/>
			<clipPath id="SVGID_112_">
				<use xlink:href="#SVGID_109_"  style="overflow:visible;"/>
			</clipPath>
			<clipPath id="SVGID_113_" class="st68">
				<use xlink:href="#SVGID_110_"  style="overflow:visible;"/>
			</clipPath>
			<clipPath id="SVGID_114_" class="st69">
				<use xlink:href="#SVGID_111_"  style="overflow:visible;"/>
			</clipPath>
			
				<rect x="92.6" y="226.8" transform="matrix(0.7071 -0.7071 0.7071 0.7071 -137.323 134.5413)" class="st70" width="2.3" height="12.4"/>
			
				<use xlink:href="#SVGID_111_"  style="overflow:visible;fill-rule:evenodd;clip-rule:evenodd;fill:none;stroke:#1A171B;stroke-width:0.5;stroke-miterlimit:3.8637;"/>
		</g>
		<g>
			<defs>
				<path id="SVGID_115_" d="M73.5,233c0-3.1,2.5-5.7,5.7-5.7s5.7,2.5,5.7,5.7c0,3.1-2.5,5.7-5.7,5.7S73.5,236.2,73.5,233z"/>
			</defs>
			<defs>
				<path id="SVGID_116_" d="M73.5,233c0-3.1,2.5-5.7,5.7-5.7s5.7,2.5,5.7,5.7c0,3.1-2.5,5.7-5.7,5.7S73.5,236.2,73.5,233z"/>
			</defs>
			<defs>
				<path id="SVGID_117_" d="M73.5,233c0-3.1,2.5-5.7,5.7-5.7s5.7,2.5,5.7,5.7c0,3.1-2.5,5.7-5.7,5.7S73.5,236.2,73.5,233z"/>
			</defs>
			<use xlink:href="#SVGID_115_"  style="overflow:visible;fill-rule:evenodd;clip-rule:evenodd;fill:#FFFFFF;"/>
			<clipPath id="SVGID_118_">
				<use xlink:href="#SVGID_115_"  style="overflow:visible;"/>
			</clipPath>
			<clipPath id="SVGID_119_" class="st71">
				<use xlink:href="#SVGID_116_"  style="overflow:visible;"/>
			</clipPath>
			<clipPath id="SVGID_120_" class="st72">
				<use xlink:href="#SVGID_117_"  style="overflow:visible;"/>
			</clipPath>
			
				<rect x="78" y="226.8" transform="matrix(0.7071 -0.7071 0.7071 0.7071 -141.5906 124.2305)" class="st73" width="2.3" height="12.4"/>
			
				<use xlink:href="#SVGID_117_"  style="overflow:visible;fill-rule:evenodd;clip-rule:evenodd;fill:none;stroke:#1A171B;stroke-width:0.5;stroke-miterlimit:3.8637;"/>
		</g>
		<rect x="72.1" y="245.5" class="st49" width="116.2" height="2.8"/>
	</g>
	<rect x="0.3" y="40" class="st74" width="201.3" height="172.9"/>
	<rect x="0.3" y="0.3" class="st75" width="201.3" height="4.3"/>
	<polygon class="st76" points="201.5,0.3 201.5,40 197.3,40 197.3,4.5 193,4.5 193,0.3 	"/>
	<polygon class="st76" points="0.3,0.3 0.3,40 4.5,40 4.5,4.5 8.8,4.5 8.8,0.3 	"/>
	<rect x="0.3" y="248.3" class="st75" width="201.3" height="4.3"/>
	<polygon class="st76" points="201.5,252.6 201.5,212.9 197.3,212.9 197.3,248.3 193,248.3 193,252.6 	"/>
	<polygon class="st76" points="0.3,252.6 0.3,212.9 4.5,212.9 4.5,248.3 8.8,248.3 8.8,252.6 	"/>
	<rect x="1.7" y="62.6" class="st2" width="198.4" height="127.6"/>
	<rect x="6" y="66.2" class="st45" width="189.9" height="120.5"/>
	<rect x="8.1" y="68.3" class="st45" width="185.7" height="116.2"/>
	<g>
		<rect x="10.2" y="70.5" class="st77" width="181.4" height="112"/>
		<rect x="10.2" y="98.2" class="st78" width="181.4" height="56.7"/>
		<rect x="89.5" y="73.6" class="st79" width="10.6" height="9"/>
		<text transform="matrix(0.85 0 0 1 89.9751 80.4456)" class="st80 st81 st82">Z1</text>
		<rect x="104.2" y="73.6" class="st79" width="10.6" height="9"/>
		<text transform="matrix(0.85 0 0 1 104.6949 80.4456)" class="st80 st81 st82">Z2</text>
		<rect x="118.9" y="73.6" class="st79" width="10.6" height="9"/>
		<text transform="matrix(0.85 0 0 1 119.4148 80.4456)" class="st80 st81 st82">Z3</text>
		<rect x="163.1" y="73.6" class="st79" width="10.6" height="9"/>
		<text transform="matrix(0.85 0 0 1 163.5752 80.4456)" class="st80 st81 st82">Z6</text>
		<rect x="162.9" y="160.1" class="st79" width="8.5" height="19.4"/>
		<text transform="matrix(0 -1 1 0 169.2666 179.463)" class="st80 st81 st83">IN 5</text>
		<rect x="177.5" y="160.1" class="st79" width="8.5" height="19.4"/>
		<text transform="matrix(0 -1 1 0 183.8262 179.463)" class="st80 st81 st83">IN 6</text>
		<rect x="78.7" y="166.8" class="st79" width="17.8" height="8.5"/>
		<text transform="matrix(1 0 0 1 79.2002 173.1476)" class="st80 st81 st83">Ref.</text>
		<rect x="104.7" y="160.1" class="st79" width="8.5" height="19.4"/>
		<text transform="matrix(0 -1 1 0 111.0274 179.463)" class="st80 st81 st83">IN 1</text>
		<rect x="119.2" y="160.1" class="st79" width="8.5" height="19.4"/>
		<text transform="matrix(0 -1 1 0 125.5869 179.463)" class="st80 st81 st83">IN 2</text>
		<rect x="133.8" y="160.1" class="st79" width="8.5" height="19.4"/>
		<text transform="matrix(0 -1 1 0 140.1475 179.463)" class="st80 st81 st83">IN 3</text>
		<rect x="148.3" y="160.1" class="st79" width="8.5" height="19.4"/>
		<text transform="matrix(0 -1 1 0 154.7071 179.463)" class="st80 st81 st83">IN 4</text>
		<rect x="133.6" y="73.6" class="st79" width="10.6" height="9"/>
		<text transform="matrix(0.85 0 0 1 134.1346 80.4456)" class="st80 st81 st82">Z4</text>
		<rect x="148.3" y="73.6" class="st79" width="10.6" height="9"/>
		<text transform="matrix(0.85 0 0 1 148.8543 80.4456)" class="st80 st81 st82">Z5</text>
		<g>
			<rect x="18" y="163.8" class="st79" width="7" height="15.7"/>
			<text transform="matrix(0 -0.8 1 0 23.1438 179.463)" class="st80 st81 st84">+12V</text>
			<rect x="32.6" y="173.8" class="st79" width="7" height="5.7"/>
			<text transform="matrix(0 -1 1 0 37.7034 179.463)" class="st80 st81 st84">A</text>
			<rect x="47.2" y="173.9" class="st79" width="7" height="5.6"/>
			<text transform="matrix(0 -1 1 0 52.263 179.463)" class="st80 st81 st84">B</text>
			<rect x="61.7" y="165" class="st79" width="7" height="14.4"/>
			<text transform="matrix(0 -1 1 0 66.8225 179.463)" class="st80 st81 st84">Ref.</text>
			<polyline class="st85" points="13.6,182.5 13.6,157.8 71.8,157.8 71.8,182.5 			"/>
		</g>
		<path class="st78" d="M32.3,167.6c0.3-0.4-0.1-2.4-1.1-4.1l-3,4.1C29,167.8,31.8,168.4,32.3,167.6z M58.4,160.7v0.3c0,0,0,0,0.1,0
			c0.1,0,0.2,0,0.2,0s0.1-0.1,0.1-0.1c0-0.1-0.1-0.2-0.2-0.2L58.4,160.7L58.4,160.7z M58.8,161.6l-0.3-0.4h-0.2v0.4h-0.1v-1h0.3
			c0.3,0,0.4,0.1,0.4,0.3c0,0.1-0.1,0.2-0.2,0.3l0.3,0.5H58.8z M59.3,161.1c0-0.2-0.1-0.4-0.2-0.5c-0.1-0.1-0.3-0.2-0.5-0.2
			c-0.2,0-0.4,0.1-0.5,0.2c-0.1,0.1-0.2,0.3-0.2,0.5c0,0.2,0.1,0.4,0.2,0.5c0.1,0.1,0.3,0.2,0.5,0.2c0.2,0,0.4-0.1,0.5-0.2
			C59.2,161.5,59.3,161.3,59.3,161.1z M57.7,161.1c0-0.2,0.1-0.4,0.2-0.6c0.2-0.2,0.4-0.2,0.6-0.2c0.2,0,0.4,0.1,0.6,0.2
			c0.2,0.2,0.2,0.4,0.2,0.6s-0.1,0.4-0.2,0.6c-0.2,0.2-0.4,0.2-0.6,0.2c-0.2,0-0.4-0.1-0.6-0.2S57.7,161.3,57.7,161.1z M56.4,163.2
			c-0.3,0-0.5,0.1-0.6,0.3c-0.2,0.2-0.2,0.4-0.2,0.7c0,0.3,0.1,0.5,0.2,0.7c0.2,0.2,0.4,0.3,0.7,0.3c0.3,0,0.5-0.1,0.6-0.3
			c0.2-0.2,0.2-0.4,0.2-0.8c0-0.3-0.1-0.5-0.2-0.7C56.9,163.3,56.7,163.2,56.4,163.2z M53.1,167v-2.5c0-0.5-0.1-0.8-0.2-1
			c-0.1-0.2-0.4-0.3-0.7-0.3c-0.2,0-0.4,0.1-0.5,0.2c-0.2,0.1-0.3,0.2-0.4,0.4v3.2h-0.8v-4.3H51l0.2,0.6c0.3-0.4,0.7-0.6,1.2-0.6
			c0.9,0,1.4,0.6,1.4,1.7v2.7H53.1z M48.5,167v-3.6H48v-0.6h1.3v4.3H48.5z M49,161.1c0.1,0,0.2,0,0.3,0.1c0.1,0.1,0.1,0.2,0.1,0.3
			c0,0.1,0,0.2-0.1,0.3c-0.1,0.1-0.2,0.1-0.3,0.1c-0.1,0-0.2,0-0.3-0.1c-0.1-0.1-0.1-0.2-0.1-0.3s0-0.2,0.1-0.3S48.8,161.1,49,161.1
			z M44,166.7l0.3-0.7c0.1,0.1,0.3,0.2,0.6,0.3c0.2,0.1,0.4,0.1,0.6,0.1c0.3,0,0.6-0.1,0.8-0.3s0.3-0.4,0.3-0.7
			c0-0.2-0.1-0.4-0.2-0.5c-0.1-0.2-0.4-0.4-0.8-0.6l-0.5-0.2c-0.4-0.2-0.7-0.4-0.8-0.7c-0.2-0.3-0.2-0.6-0.2-0.9
			c0-0.4,0.2-0.8,0.5-1.1c0.3-0.3,0.7-0.4,1.2-0.4c0.6,0,1.1,0.1,1.4,0.3l-0.2,0.7c-0.1-0.1-0.3-0.2-0.5-0.2
			c-0.2-0.1-0.4-0.1-0.6-0.1c-0.3,0-0.5,0.1-0.6,0.2c-0.2,0.2-0.2,0.4-0.2,0.6c0,0.1,0,0.3,0.1,0.4c0.1,0.1,0.1,0.2,0.2,0.3
			c0.1,0.1,0.3,0.2,0.6,0.3l0.5,0.2c0.4,0.2,0.7,0.4,0.8,0.7c0.2,0.3,0.2,0.6,0.2,1c0,0.4-0.2,0.8-0.5,1.1c-0.4,0.3-0.8,0.5-1.4,0.5
			C44.8,167.1,44.4,166.9,44,166.7z M39,161.1h0.8v4c0,0.4,0.1,0.7,0.3,0.9c0.2,0.2,0.5,0.3,0.9,0.3c0.4,0,0.7-0.1,0.9-0.3
			c0.2-0.2,0.3-0.5,0.3-0.9v-4h0.8v4.1c0,0.6-0.2,1.1-0.6,1.4c-0.4,0.3-0.9,0.5-1.5,0.5c-0.7,0-1.2-0.2-1.5-0.5s-0.5-0.8-0.5-1.4
			V161.1z M35.1,164v2.2c0.3,0,0.5,0,0.6,0c0.5,0,0.9-0.1,1.1-0.3c0.2-0.2,0.3-0.5,0.3-0.9c0-0.4-0.1-0.7-0.3-0.8
			c-0.2-0.2-0.6-0.3-1.1-0.3L35.1,164z M35.1,161.7v1.7c0.2,0,0.4,0,0.6,0c0.8,0,1.1-0.3,1.1-0.9c0-0.5-0.3-0.8-1-0.8
			C35.6,161.7,35.4,161.7,35.1,161.7z M36,167h-1.7v-5.9c0.7,0,1.2-0.1,1.5-0.1c0.6,0,1,0.1,1.3,0.4c0.3,0.2,0.5,0.6,0.5,1.1
			c0,0.3-0.1,0.5-0.3,0.7s-0.4,0.4-0.7,0.4c0.5,0.1,0.8,0.3,1,0.6c0.2,0.3,0.3,0.6,0.3,1.1c0,0.5-0.2,0.9-0.6,1.2
			C37.1,166.8,36.6,167,36,167z M55.2,167.6c0,0,0.9,0.4,1.2,0.4c0.3,0,0.6-0.1,0.8-0.2c0.2-0.1,0.3-0.3,0.3-0.4
			c0-0.3-0.3-0.5-0.8-0.5c-0.1,0-0.2,0-0.5,0.1c-0.2,0-0.4,0.1-0.5,0.1c-0.6,0-0.9-0.2-0.9-0.7c0-0.1,0.1-0.3,0.2-0.4
			c0.1-0.1,0.3-0.2,0.5-0.2c-0.6-0.3-0.9-0.8-0.9-1.5c0-0.4,0.2-0.8,0.5-1.1c0.3-0.3,0.7-0.4,1.2-0.4c0.4,0,0.8,0.1,1,0.3l0.4-0.5
			l0.5,0.5l-0.5,0.3c0.2,0.3,0.3,0.6,0.3,1c0,0.4-0.1,0.8-0.4,1.1s-0.6,0.5-1.1,0.5l-0.6,0.1c-0.1,0-0.2,0-0.3,0.1
			c-0.1,0-0.2,0.1-0.2,0.2c0,0.1,0.1,0.2,0.4,0.2c0.1,0,0.3,0,0.5-0.1c0.2,0,0.4-0.1,0.5-0.1c0.4,0,0.7,0.1,1,0.3
			c0.2,0.2,0.4,0.5,0.4,0.8c0,0.4-0.2,0.7-0.5,1c-0.4,0.2-0.8,0.4-1.3,0.4c-0.3,0-0.6,0-0.9-0.1c-0.1,0-0.2-0.1-0.3-0.1
			c-1.8-0.9-3.9-0.5-5.8-0.3c-3.9,0.4-10.7,1.7-14.4,0.9c-0.9-0.2-1.5-0.4-2.3-0.8c-1.2,1-4.5,0.2-5.7-0.2l1.1-1.4l-1.9-1.5l0.4-0.6
			l1.9,1.4l1.3-1.8l-1.9-1.5l0.4-0.6l1.9,1.4l1-1.4c0.6,0.8,2.3,3.8,1.8,5.4c2.9,1.2,6.1,0.9,9.2,0.7c2.4-0.2,4.7-0.6,7.1-0.9
			C51.4,167.2,53.3,166.8,55.2,167.6z"/>
		<g>
			<rect x="26.4" y="73.6" class="st79" width="11.2" height="13"/>
			<text transform="matrix(1 0 0 1 26.8846 83.7909)" class="st80 st81 st86">N</text>
			<rect x="53.1" y="73.6" class="st79" width="8.7" height="13"/>
			<text transform="matrix(1 0 0 1 53.6534 83.7909)" class="st80 st81 st86">L</text>
			<polygon class="st87" points="39.3,88.2 39.3,83.6 49.2,83.6 49.2,88.2 55.6,88.2 44.2,93.9 32.9,88.2 			"/>
			<rect x="39.6" y="71.1" class="st79" width="11.4" height="13"/>
			<text transform="matrix(1 0 0 1 40.1463 81.2733)" class="st80 st81 st86">~</text>
		</g>
		<rect x="13.1" y="100.9" class="st79" width="37.9" height="13"/>
		<text transform="matrix(1 0 0 1 13.1324 110.4837)"><tspan x="0" y="0" class="st88 st89 st86"></tspan><tspan x="6" y="0" class="st88 st90 st86"> 6E6S</tspan></text>
		<rect x="26.7" y="114.5" class="st79" width="20.1" height="12"/>
		<text transform="matrix(1 0 0 1 26.708 118.4571)"><tspan x="0" y="0" class="st88 st91 st92">actuador</tspan><tspan x="0" y="6" class="st88 st91 st92">actuator</tspan></text>
		<g>
			<rect x="67.7" y="133.4" class="st79" width="56.8" height="14.6"/>
			<text transform="matrix(1 0 0 1 67.6631 144.6519)" class="st88 st93 st94">ingenium</text>
			<rect x="87" y="146.3" class="st79" width="48.1" height="5.9"/>
			<text transform="matrix(1 0 0 1 87.0342 150.3922)" class="st88 st93 st95">www.ingeniumsl.com</text>
			<path class="st96" d="M92.8,111.5l6.8,6.8h6.1l8.5-8.5l5.4,5.4l-17,17l-17-17l3.7-3.7c-0.2-0.3-0.2-0.6-0.2-0.9c0-1.1,0.9-2,2-2
				c1.1,0,2,0.9,2,2C93,110.9,92.9,111.2,92.8,111.5z M90.1,112.3l-2.9,2.9l15.4,15.4l15.4-15.4l-3.8-3.8l-8.1,8.1h-7l-7.1-7.1
				c-0.3,0.2-0.6,0.3-1,0.3C90.7,112.6,90.4,112.5,90.1,112.3z M99.6,102.6c0.2,0.3,0.3,0.6,0.3,1c0,0.4-0.1,0.8-0.3,1.1l2.9,2.9
				l3.9-3.9l-3.9-3.9L99.6,102.6z M96,103.7c0-1.1,0.9-2,2-2c0.3,0,0.6,0.1,0.9,0.2l3.7-3.7l5.5,5.5l-5.5,5.5l-3.8-3.8
				c-0.2,0.1-0.5,0.1-0.7,0.1C96.8,105.6,96,104.8,96,103.7z M92.5,107.1c0-1.1,0.9-2,2-2c1.1,0,2,0.9,2,2c0,0.4-0.1,0.8-0.3,1.1
				l5.1,5.1h2.7l6.5-6.5l0.8,0.8l-6.8,6.8h-3.6l-5.5-5.5c-0.2,0.1-0.5,0.2-0.8,0.2C93.4,109.1,92.5,108.2,92.5,107.1z"/>
		</g>
		<g>
			<rect x="160.4" y="101" class="st77" width="28.3" height="28.3"/>
			<path class="st78" d="M170.5,101.9h0.9v1.8h-0.9V101.9z M172.3,101.9h0.9v0.9h-0.9V101.9z M176,101.9h3.7v0.9h-1.8v0.9h-0.9v0.9
				h0.9v0.9h-0.9v0.9H176v-0.9h-0.9v0.9h0.9v0.9h-0.9v0.9h-0.9v-2.7h-1.8v-1.8h0.9v0.9h0.9v-0.9h0.9v-0.9h0.9V101.9z M168.7,102.8
				h0.9v0.9h-0.9V102.8z M173.2,102.8h0.9v0.9h-0.9V102.8z M179.6,102.8h0.9v1.8h-0.9V102.8z M168.7,104.6h2.7v0.9h-0.9v1.8h-0.9
				v0.9h-0.9v-1.8h0.9v-0.9h-0.9V104.6z M178.7,104.6h0.9v0.9h0.9v3.7h-0.9v0.9h0.9v-0.9h0.9v0.9h0.9v-0.9h0.9v0.9h0.9v1.8h0.9v0.9
				h0.9v0.9h-1.8v-0.9h-3.7V112h0.9V111h-0.9v0.9h-0.9V111h-1.8v-0.9h0.9v-1.8h0.9v-1.8h-0.9V104.6z M171.4,106.5h1.8v1.8h-0.9v-0.9
				h-0.9V106.5z M176.9,106.5h0.9v0.9h-0.9V106.5z M170.5,107.4h0.9v0.9h0.9v1.8h-0.9v-0.9h-0.9v0.9h-3.7v-0.9h2.7v-0.9h0.9V107.4z
				 M176,107.4h0.9v1.8H176v0.9h-1.8v0.9h1.8v-0.9h0.9v2.7H176V112h-0.9v2.7h-0.9v-0.9h-1.8V112h0.9v0.9h0.9V112h-0.9V111h-0.9v-0.9
				h0.9v-0.9h1.8v-0.9h0.9V107.4z M177.8,107.4h0.9v0.9h-0.9V107.4z M161.4,109.2h4.6v1.8h1.8v0.9h-1.8v4.6H165v0.9h-0.9v-1.8h0.9
				v-1.8h-0.9V112h0.9v-1.8h-1.8v0.9h-0.9v-0.9h-0.9V109.2z M176.9,109.2h0.9v0.9h-0.9V109.2z M184.2,109.2h0.9v0.9h-0.9V109.2z
				 M186,109.2h0.9v0.9H186V109.2z M170.5,110.1h0.9v1.8h-0.9V110.1z M187,110.1h0.9v0.9H187V110.1z M161.4,111h0.9v0.9h-0.9V111z
				 M168.7,111h0.9v0.9h-0.9V111z M167.8,112h0.9v0.9h-0.9V112z M178.7,112h0.9v0.9h-0.9V112z M186,112h0.9v0.9H186V112z
				 M166.8,112.9h0.9v0.9h-0.9V112.9z M169.6,112.9h1.8v0.9h-1.8V112.9z M176.9,112.9h0.9v0.9h-0.9V112.9z M163.2,113.8h0.9v0.9
				h-0.9V113.8z M167.8,113.8h0.9v1.8h-1.8v-0.9h0.9V113.8z M176,113.8h0.9v0.9H176V113.8z M177.8,113.8h6.4v0.9h-0.9v0.9h0.9v0.9
				h-1.8v-0.9h-1.8v-0.9h-1.8v0.9h1.8v0.9h-0.9v1.8h-0.9v-1.8h-0.9v-0.9h-0.9v-0.9h0.9V113.8z M187,113.8h0.9v0.9H187V113.8z
				 M161.4,114.7h0.9v0.9h-0.9V114.7z M171.4,114.7h2.7v0.9h-1.8v0.9h1.8v1.8h1.8v1.8h1.8v0.9h0.9v0.9h0.9v1.8h-0.9v-0.9h-0.9V122
				h-0.9v1.8H176v-0.9h-2.7V122h0.9v-0.9h0.9v0.9h0.9v-0.9h-0.9v-0.9h-0.9v-0.9h-0.9v-0.9h-0.9v-0.9h-0.9V114.7z M175.1,114.7h0.9
				v0.9h-0.9V114.7z M184.2,114.7h1.8v0.9h-1.8V114.7z M174.2,115.6h0.9v0.9h-0.9V115.6z M186,115.6h0.9v0.9H186V115.6z
				 M161.4,116.5h0.9v0.9h1.8v0.9h1.8v0.9h0.9v0.9h0.9v0.9h-4.6v-0.9h0.9v-0.9h-0.9v-0.9h-0.9v2.7h-0.9V116.5z M166.8,116.5h2.7v0.9
				h1.8v0.9h-0.9v0.9h1.8v0.9h1.8v0.9h-0.9v0.9h-1.8v-0.9h-0.9v-0.9h-0.9v-0.9h-0.9v-1.8h-1.8V116.5z M175.1,116.5h2.7v0.9h-0.9v0.9
				H176v-0.9h-0.9V116.5z M184.2,116.5h1.8v2.7h-0.9v-1.8h-0.9V116.5z M181.5,117.4h2.7v0.9h-2.7V117.4z M187,117.4h0.9v0.9H187
				V117.4z M166.8,118.4h0.9v0.9h-0.9V118.4z M176.9,118.4h1.8v0.9h-1.8V118.4z M167.8,119.3h0.9v0.9h-0.9V119.3z M179.6,119.3h0.9
				v0.9h-0.9V119.3z M182.4,119.3h0.9v0.9h-0.9V119.3z M186,119.3h0.9v0.9h0.9v1.8H186v0.9h-1.8v-1.8h0.9v-0.9h0.9V119.3z
				 M178.7,120.2h0.9v0.9h-0.9V120.2z M168.7,121.1h1.8v0.9h0.9v0.9h-0.9v0.9h-0.9v-0.9h-0.9V121.1z M171.4,122.9h1.8v0.9h-1.8
				V122.9z M186,122.9h1.8v2.7H187v1.8H186v-0.9h-0.9v0.9h-3.7v-0.9h-0.9v-0.9h3.7v-0.9h0.9v-0.9h0.9v0.9h0.9v-0.9H186V122.9z
				 M168.7,123.8h0.9v0.9h2.7v0.9h-2.7v0.9h0.9v1.8h-1.8V123.8z M173.2,123.8h1.8v0.9h-1.8V123.8z M176.9,123.8h0.9v0.9h-0.9V123.8z
				 M178.7,124.8h1.8v0.9h-1.8V124.8z M172.3,125.7h0.9v0.9h-0.9V125.7z M174.2,125.7h2.7v1.8H176v0.9h-0.9v-0.9h-0.9V125.7z
				 M171.4,126.6h0.9v0.9h-0.9V126.6z M177.8,126.6h2.7v0.9h-0.9v0.9h-0.9v-0.9h-0.9V126.6z M173.2,127.5h0.9v0.9h-0.9V127.5z
				 M176.9,127.5h0.9v0.9h-0.9V127.5z M185.1,127.5h0.9v0.9h-0.9V127.5z"/>
			<path class="st78" d="M161.4,101.9h6.4l0,0l0,0v6.4l0,0l0,0h-6.4l0,0l0,0V101.9L161.4,101.9L161.4,101.9z M162.3,102.8h4.6l0,0
				l0,0v4.6l0,0l0,0h-4.6l0,0l0,0V102.8L162.3,102.8L162.3,102.8z M163.2,103.7h2.7l0,0l0,0v2.7l0,0l0,0h-2.7l0,0l0,0V103.7
				L163.2,103.7L163.2,103.7z M181.5,101.9h6.4l0,0l0,0v6.4l0,0l0,0h-6.4l0,0l0,0V101.9L181.5,101.9L181.5,101.9z M182.4,102.8h4.6
				l0,0l0,0v4.6l0,0l0,0h-4.6l0,0l0,0V102.8L182.4,102.8L182.4,102.8z M183.3,103.7h2.7l0,0l0,0v2.7l0,0l0,0h-2.7l0,0l0,0V103.7
				L183.3,103.7L183.3,103.7z M161.4,122h6.4l0,0l0,0v6.4l0,0l0,0h-6.4l0,0l0,0V122L161.4,122L161.4,122z M162.3,122.9h4.6l0,0l0,0
				v4.6l0,0l0,0h-4.6l0,0l0,0V122.9L162.3,122.9L162.3,122.9z M163.2,123.8h2.7l0,0l0,0v2.7l0,0l0,0h-2.7l0,0l0,0V123.8L163.2,123.8
				L163.2,123.8z M179.6,120.2h4.6l0,0l0,0v4.6l0,0l0,0h-4.6l0,0l0,0V120.2L179.6,120.2L179.6,120.2z M180.6,121.1h2.7l0,0l0,0v2.7
				l0,0l0,0h-2.7l0,0l0,0V121.1L180.6,121.1L180.6,121.1z M181.5,122h0.9l0,0l0,0v0.9l0,0l0,0h-0.9l0,0l0,0V122L181.5,122L181.5,122
				z"/>
			<rect x="154.4" y="120.4" class="st79" width="6" height="9.2"/>
			<text transform="matrix(0 -1 1 0 158.4414 129.5694)" class="st88 st91 st92">info</text>
		</g>
		<g>
			<rect x="167.9" y="135.4" class="st97" width="13.5" height="13.5"/>
			<rect x="170.6" y="138.2" class="st97" width="8" height="8"/>
		</g>
	</g>
</g>
</svg>
