<?xml version="1.0" encoding="utf-8"?>
<!-- Generator: Adobe Illustrator 24.3.0, SVG Export Plug-In . SVG Version: 6.00 Build 0)  -->
<svg version="1.1" id="Foreground" xmlns="http://www.w3.org/2000/svg" xmlns:xlink="http://www.w3.org/1999/xlink" x="0px" y="0px"
	 viewBox="0 0 462 261.4" style="enable-background:new 0 0 462 261.4;" xml:space="preserve">
<style type="text/css">
	.st0{fill-rule:evenodd;clip-rule:evenodd;fill:#314A7D;stroke:#1A171B;stroke-width:0.5;stroke-miterlimit:3.8637;}
	.st1{fill:#312F32;stroke:#1A171B;stroke-width:0.5;stroke-miterlimit:3.8637;}
	.st2{fill-rule:evenodd;clip-rule:evenodd;fill:#E8E8E8;stroke:#1A171B;stroke-width:0.5;stroke-miterlimit:3.8637;}
	.st3{fill-rule:evenodd;clip-rule:evenodd;fill:#007F50;stroke:#1A171B;stroke-width:0.5;stroke-miterlimit:3.8637;}
	.st4{fill-rule:evenodd;clip-rule:evenodd;fill:#195A39;stroke:#1A171B;stroke-width:0.5;stroke-miterlimit:3.8637;}
	.st5{fill:#00A768;stroke:#1A171B;stroke-width:0.5;stroke-miterlimit:3.8637;}
	.st6{clip-path:url(#SVGID_4_);}
	.st7{clip-path:url(#SVGID_5_);}
	
		.st8{clip-path:url(#SVGID_6_);fill-rule:evenodd;clip-rule:evenodd;fill:#D1D1D1;stroke:#1A171B;stroke-width:0.5;stroke-miterlimit:3.8637;}
	.st9{clip-path:url(#SVGID_10_);}
	.st10{clip-path:url(#SVGID_11_);}
	
		.st11{clip-path:url(#SVGID_12_);fill-rule:evenodd;clip-rule:evenodd;fill:#D1D1D1;stroke:#1A171B;stroke-width:0.5;stroke-miterlimit:3.8637;}
	.st12{fill-rule:evenodd;clip-rule:evenodd;fill:#E4E3E4;stroke:#1A171B;stroke-width:0.5;stroke-miterlimit:3.8637;}
	.st13{fill-rule:evenodd;clip-rule:evenodd;fill:#D6D5D6;stroke:#1A171B;stroke-width:0.5;stroke-miterlimit:3.8637;}
	.st14{fill:#D6D5D6;stroke:#1A171B;stroke-width:0.5;stroke-miterlimit:3.8637;}
	.st15{fill-rule:evenodd;clip-rule:evenodd;fill:none;stroke:#1A171B;stroke-width:0.5;stroke-miterlimit:3.8637;}
	.st16{fill-rule:evenodd;clip-rule:evenodd;fill:#3C3A3E;stroke:#1A171B;stroke-width:0.5;stroke-miterlimit:3.8637;}
	.st17{fill-rule:evenodd;clip-rule:evenodd;fill:#312F32;stroke:#1A171B;stroke-width:0.5;stroke-miterlimit:3.8637;}
	.st18{fill-rule:evenodd;clip-rule:evenodd;fill:#484649;stroke:#1A171B;stroke-width:0.5;stroke-miterlimit:3.8637;}
	.st19{clip-path:url(#SVGID_16_);}
	.st20{clip-path:url(#SVGID_17_);}
	
		.st21{clip-path:url(#SVGID_18_);fill-rule:evenodd;clip-rule:evenodd;fill:#D1D1D1;stroke:#1A171B;stroke-width:0.5;stroke-miterlimit:3.8637;}
	.st22{clip-path:url(#SVGID_22_);}
	.st23{clip-path:url(#SVGID_23_);}
	
		.st24{clip-path:url(#SVGID_24_);fill-rule:evenodd;clip-rule:evenodd;fill:#D1D1D1;stroke:#1A171B;stroke-width:0.5;stroke-miterlimit:3.8637;}
	.st25{clip-path:url(#SVGID_28_);}
	.st26{clip-path:url(#SVGID_29_);}
	
		.st27{clip-path:url(#SVGID_30_);fill-rule:evenodd;clip-rule:evenodd;fill:#D1D1D1;stroke:#1A171B;stroke-width:0.5;stroke-miterlimit:3.8637;}
	.st28{clip-path:url(#SVGID_34_);}
	.st29{clip-path:url(#SVGID_35_);}
	
		.st30{clip-path:url(#SVGID_36_);fill-rule:evenodd;clip-rule:evenodd;fill:#D1D1D1;stroke:#1A171B;stroke-width:0.5;stroke-miterlimit:3.8637;}
	.st31{clip-path:url(#SVGID_40_);}
	.st32{clip-path:url(#SVGID_41_);}
	
		.st33{clip-path:url(#SVGID_42_);fill-rule:evenodd;clip-rule:evenodd;fill:#D1D1D1;stroke:#1A171B;stroke-width:0.5;stroke-miterlimit:3.8637;}
	.st34{clip-path:url(#SVGID_46_);}
	.st35{clip-path:url(#SVGID_47_);}
	
		.st36{clip-path:url(#SVGID_48_);fill-rule:evenodd;clip-rule:evenodd;fill:#D1D1D1;stroke:#1A171B;stroke-width:0.5;stroke-miterlimit:3.8637;}
	.st37{clip-path:url(#SVGID_52_);}
	.st38{clip-path:url(#SVGID_53_);}
	
		.st39{clip-path:url(#SVGID_54_);fill-rule:evenodd;clip-rule:evenodd;fill:#D1D1D1;stroke:#1A171B;stroke-width:0.5;stroke-miterlimit:3.8637;}
	.st40{clip-path:url(#SVGID_58_);}
	.st41{clip-path:url(#SVGID_59_);}
	
		.st42{clip-path:url(#SVGID_60_);fill-rule:evenodd;clip-rule:evenodd;fill:#D1D1D1;stroke:#1A171B;stroke-width:0.5;stroke-miterlimit:3.8637;}
	.st43{clip-path:url(#SVGID_64_);}
	.st44{clip-path:url(#SVGID_65_);}
	
		.st45{clip-path:url(#SVGID_66_);fill-rule:evenodd;clip-rule:evenodd;fill:#D1D1D1;stroke:#1A171B;stroke-width:0.5;stroke-miterlimit:3.8637;}
	.st46{fill-rule:evenodd;clip-rule:evenodd;fill:#9C2828;stroke:#1A171B;stroke-width:0.5;stroke-miterlimit:3.8637;}
	.st47{fill-rule:evenodd;clip-rule:evenodd;fill:#BE091E;stroke:#1A171B;stroke-width:0.5;stroke-miterlimit:3.8637;}
	.st48{clip-path:url(#SVGID_70_);}
	.st49{clip-path:url(#SVGID_71_);}
	
		.st50{clip-path:url(#SVGID_72_);fill-rule:evenodd;clip-rule:evenodd;fill:#D1D1D1;stroke:#1A171B;stroke-width:0.5;stroke-miterlimit:3.8637;}
	.st51{clip-path:url(#SVGID_76_);}
	.st52{clip-path:url(#SVGID_77_);}
	
		.st53{clip-path:url(#SVGID_78_);fill-rule:evenodd;clip-rule:evenodd;fill:#D1D1D1;stroke:#1A171B;stroke-width:0.5;stroke-miterlimit:3.8637;}
	.st54{clip-path:url(#SVGID_82_);}
	.st55{clip-path:url(#SVGID_83_);}
	
		.st56{clip-path:url(#SVGID_84_);fill-rule:evenodd;clip-rule:evenodd;fill:#D1D1D1;stroke:#1A171B;stroke-width:0.5;stroke-miterlimit:3.8637;}
	.st57{clip-path:url(#SVGID_88_);}
	.st58{clip-path:url(#SVGID_89_);}
	
		.st59{clip-path:url(#SVGID_90_);fill-rule:evenodd;clip-rule:evenodd;fill:#D1D1D1;stroke:#1A171B;stroke-width:0.5;stroke-miterlimit:3.8637;}
	.st60{fill-rule:evenodd;clip-rule:evenodd;fill:#1A171B;stroke:#1A171B;stroke-width:0.5;stroke-miterlimit:3.8637;}
	.st61{fill-rule:evenodd;clip-rule:evenodd;fill:#FFFFFF;}
	.st62{fill-rule:evenodd;clip-rule:evenodd;fill:#003E77;}
	.st63{fill:none;stroke:#003E77;stroke-width:1.0001;stroke-linejoin:round;stroke-miterlimit:3.8637;}
	.st64{fill:#FFD616;}
	.st65{fill:none;stroke:#003E77;stroke-width:0.8504;stroke-linejoin:round;stroke-miterlimit:3.8637;}
	.st66{fill:none;stroke:#003E77;stroke-width:0.25;stroke-miterlimit:3.8637;}
	.st67{fill-rule:evenodd;clip-rule:evenodd;fill:none;stroke:#FFFFFF;stroke-width:0.7553;stroke-miterlimit:3.8637;}
</style>
<g>
	<rect x="0.3" y="0.3" class="st0" width="201.3" height="252.3"/>
	<g>
		<polygon class="st1" points="85.3,252.6 91,252.6 91,256.8 110.8,256.8 110.8,252.6 116.5,252.6 116.5,261.1 85.3,261.1 		"/>
		<rect x="116.5" y="252.6" class="st2" width="2.1" height="4.3"/>
		<rect x="83.2" y="252.6" class="st2" width="2.1" height="4.3"/>
	</g>
	<g>
		<rect x="8.1" y="4.5" class="st3" width="53.9" height="35.4"/>
		<rect x="44.9" y="36.3" class="st4" width="5.7" height="3.7"/>
		<rect x="19.4" y="36.3" class="st4" width="5.7" height="3.7"/>
		<path class="st5" d="M8.1,15.5H62v18.9H8.1V15.5z M13,24.8c0-2.9,1.3-5.5,3.4-7.2h-6.1v14.6h6.4C14.4,30.5,13,27.8,13,24.8z
			 M53.6,17.6c2.1,1.7,3.4,4.3,3.4,7.2c0,3-1.4,5.7-3.7,7.4h6.4V17.6H53.6z M38.4,24.8c0-2.9,1.3-5.5,3.4-7.2H28.2
			c2.1,1.7,3.4,4.3,3.4,7.2c0,3-1.4,5.7-3.7,7.4h14.1C39.8,30.5,38.4,27.8,38.4,24.8z"/>
		<g>
			<defs>
				<path id="SVGID_1_" d="M40.7,24.8c0-3.9,3.2-7.1,7.1-7.1s7.1,3.2,7.1,7.1c0,3.9-3.2,7.1-7.1,7.1S40.7,28.7,40.7,24.8z"/>
			</defs>
			<defs>
				<path id="SVGID_2_" d="M40.7,24.8c0-3.9,3.2-7.1,7.1-7.1s7.1,3.2,7.1,7.1c0,3.9-3.2,7.1-7.1,7.1S40.7,28.7,40.7,24.8z"/>
			</defs>
			<defs>
				<path id="SVGID_3_" d="M40.7,24.8c0-3.9,3.2-7.1,7.1-7.1s7.1,3.2,7.1,7.1c0,3.9-3.2,7.1-7.1,7.1S40.7,28.7,40.7,24.8z"/>
			</defs>
			<use xlink:href="#SVGID_1_"  style="overflow:visible;fill-rule:evenodd;clip-rule:evenodd;fill:#FFFFFF;"/>
			<clipPath id="SVGID_4_">
				<use xlink:href="#SVGID_1_"  style="overflow:visible;"/>
			</clipPath>
			<clipPath id="SVGID_5_" class="st6">
				<use xlink:href="#SVGID_2_"  style="overflow:visible;"/>
			</clipPath>
			<clipPath id="SVGID_6_" class="st7">
				<use xlink:href="#SVGID_3_"  style="overflow:visible;"/>
			</clipPath>
			<rect x="39.3" y="23.4" transform="matrix(0.707 -0.7072 0.7072 0.707 -3.5251 41.0487)" class="st8" width="17" height="2.8"/>
			
				<use xlink:href="#SVGID_3_"  style="overflow:visible;fill-rule:evenodd;clip-rule:evenodd;fill:none;stroke:#1A171B;stroke-width:0.5;stroke-miterlimit:3.8637;"/>
		</g>
		<g>
			<defs>
				<path id="SVGID_7_" d="M15.2,24.8c0-3.9,3.2-7.1,7.1-7.1c3.9,0,7.1,3.2,7.1,7.1c0,3.9-3.2,7.1-7.1,7.1
					C18.4,31.9,15.2,28.7,15.2,24.8z"/>
			</defs>
			<defs>
				<path id="SVGID_8_" d="M15.2,24.8c0-3.9,3.2-7.1,7.1-7.1c3.9,0,7.1,3.2,7.1,7.1c0,3.9-3.2,7.1-7.1,7.1
					C18.4,31.9,15.2,28.7,15.2,24.8z"/>
			</defs>
			<defs>
				<path id="SVGID_9_" d="M15.2,24.8c0-3.9,3.2-7.1,7.1-7.1c3.9,0,7.1,3.2,7.1,7.1c0,3.9-3.2,7.1-7.1,7.1
					C18.4,31.9,15.2,28.7,15.2,24.8z"/>
			</defs>
			<use xlink:href="#SVGID_7_"  style="overflow:visible;fill-rule:evenodd;clip-rule:evenodd;fill:#FFFFFF;"/>
			<clipPath id="SVGID_10_">
				<use xlink:href="#SVGID_7_"  style="overflow:visible;"/>
			</clipPath>
			<clipPath id="SVGID_11_" class="st9">
				<use xlink:href="#SVGID_8_"  style="overflow:visible;"/>
			</clipPath>
			<clipPath id="SVGID_12_" class="st10">
				<use xlink:href="#SVGID_9_"  style="overflow:visible;"/>
			</clipPath>
			
				<rect x="13.8" y="23.4" transform="matrix(0.707 -0.7072 0.7072 0.707 -10.9996 23.0068)" class="st11" width="17" height="2.8"/>
			
				<use xlink:href="#SVGID_9_"  style="overflow:visible;fill-rule:evenodd;clip-rule:evenodd;fill:none;stroke:#1A171B;stroke-width:0.5;stroke-miterlimit:3.8637;"/>
		</g>
	</g>
	<rect x="0.3" y="40" class="st12" width="201.3" height="172.9"/>
	<rect x="0.3" y="0.3" class="st13" width="201.3" height="4.3"/>
	<polygon class="st14" points="201.5,0.3 201.5,40 197.3,40 197.3,4.5 193,4.5 193,0.3 	"/>
	<polygon class="st14" points="0.3,0.3 0.3,40 4.5,40 4.5,4.5 8.8,4.5 8.8,0.3 	"/>
	<rect x="0.3" y="248.3" class="st13" width="201.3" height="4.3"/>
	<polygon class="st14" points="201.5,252.6 201.5,212.9 197.3,212.9 197.3,248.3 193,248.3 193,252.6 	"/>
	<rect x="1.7" y="62.6" class="st2" width="198.4" height="127.6"/>
	<rect x="6" y="66.2" class="st15" width="189.9" height="120.5"/>
	<rect x="8.1" y="68.3" class="st15" width="185.7" height="116.2"/>
	<g>
		<rect x="62.1" y="4.5" class="st16" width="130.8" height="35.4"/>
		<rect x="183" y="37.1" class="st17" width="5.7" height="2.8"/>
		<rect x="168.4" y="37.1" class="st17" width="5.7" height="2.8"/>
		<rect x="153.8" y="37.1" class="st17" width="5.7" height="2.8"/>
		<rect x="139.2" y="37.1" class="st17" width="5.7" height="2.8"/>
		<rect x="124.5" y="37.1" class="st17" width="5.7" height="2.8"/>
		<rect x="109.9" y="37.1" class="st17" width="5.7" height="2.8"/>
		<rect x="95.3" y="37.1" class="st17" width="5.7" height="2.8"/>
		<rect x="80.7" y="37.1" class="st17" width="5.7" height="2.8"/>
		<rect x="62.1" y="4.5" class="st17" width="130.8" height="2.8"/>
		<rect x="66.1" y="37.1" class="st17" width="5.7" height="2.8"/>
		<rect x="62.1" y="10.2" class="st18" width="130.8" height="17"/>
		<g>
			<defs>
				<path id="SVGID_13_" d="M63.5,19.8c0-3.1,2.5-5.7,5.7-5.7s5.7,2.5,5.7,5.7c0,3.1-2.5,5.7-5.7,5.7S63.5,22.9,63.5,19.8z"/>
			</defs>
			<defs>
				<path id="SVGID_14_" d="M63.5,19.8c0-3.1,2.5-5.7,5.7-5.7s5.7,2.5,5.7,5.7c0,3.1-2.5,5.7-5.7,5.7S63.5,22.9,63.5,19.8z"/>
			</defs>
			<defs>
				<path id="SVGID_15_" d="M63.5,19.8c0-3.1,2.5-5.7,5.7-5.7s5.7,2.5,5.7,5.7c0,3.1-2.5,5.7-5.7,5.7S63.5,22.9,63.5,19.8z"/>
			</defs>
			<use xlink:href="#SVGID_13_"  style="overflow:visible;fill-rule:evenodd;clip-rule:evenodd;fill:#FFFFFF;"/>
			<clipPath id="SVGID_16_">
				<use xlink:href="#SVGID_13_"  style="overflow:visible;"/>
			</clipPath>
			<clipPath id="SVGID_17_" class="st19">
				<use xlink:href="#SVGID_14_"  style="overflow:visible;"/>
			</clipPath>
			<clipPath id="SVGID_18_" class="st20">
				<use xlink:href="#SVGID_15_"  style="overflow:visible;"/>
			</clipPath>
			
				<rect x="68" y="13.6" transform="matrix(0.7071 -0.7071 0.7071 0.7071 6.2401 54.7057)" class="st21" width="2.3" height="12.4"/>
			
				<use xlink:href="#SVGID_15_"  style="overflow:visible;fill-rule:evenodd;clip-rule:evenodd;fill:none;stroke:#1A171B;stroke-width:0.5;stroke-miterlimit:3.8637;"/>
		</g>
		<g>
			<defs>
				<path id="SVGID_19_" d="M78.1,19.8c0-3.1,2.5-5.7,5.7-5.7s5.7,2.5,5.7,5.7c0,3.1-2.5,5.7-5.7,5.7S78.1,22.9,78.1,19.8z"/>
			</defs>
			<defs>
				<path id="SVGID_20_" d="M78.1,19.8c0-3.1,2.5-5.7,5.7-5.7s5.7,2.5,5.7,5.7c0,3.1-2.5,5.7-5.7,5.7S78.1,22.9,78.1,19.8z"/>
			</defs>
			<defs>
				<path id="SVGID_21_" d="M78.1,19.8c0-3.1,2.5-5.7,5.7-5.7s5.7,2.5,5.7,5.7c0,3.1-2.5,5.7-5.7,5.7S78.1,22.9,78.1,19.8z"/>
			</defs>
			<use xlink:href="#SVGID_19_"  style="overflow:visible;fill-rule:evenodd;clip-rule:evenodd;fill:#FFFFFF;"/>
			<clipPath id="SVGID_22_">
				<use xlink:href="#SVGID_19_"  style="overflow:visible;"/>
			</clipPath>
			<clipPath id="SVGID_23_" class="st22">
				<use xlink:href="#SVGID_20_"  style="overflow:visible;"/>
			</clipPath>
			<clipPath id="SVGID_24_" class="st23">
				<use xlink:href="#SVGID_21_"  style="overflow:visible;"/>
			</clipPath>
			
				<rect x="82.6" y="13.6" transform="matrix(0.7071 -0.7071 0.7071 0.7071 10.5101 65.0143)" class="st24" width="2.3" height="12.4"/>
			
				<use xlink:href="#SVGID_21_"  style="overflow:visible;fill-rule:evenodd;clip-rule:evenodd;fill:none;stroke:#1A171B;stroke-width:0.5;stroke-miterlimit:3.8637;"/>
		</g>
		<g>
			<defs>
				<path id="SVGID_25_" d="M92.6,19.8c0-3.1,2.5-5.7,5.7-5.7s5.7,2.5,5.7,5.7c0,3.1-2.5,5.7-5.7,5.7S92.6,22.9,92.6,19.8z"/>
			</defs>
			<defs>
				<path id="SVGID_26_" d="M92.6,19.8c0-3.1,2.5-5.7,5.7-5.7s5.7,2.5,5.7,5.7c0,3.1-2.5,5.7-5.7,5.7S92.6,22.9,92.6,19.8z"/>
			</defs>
			<defs>
				<path id="SVGID_27_" d="M92.6,19.8c0-3.1,2.5-5.7,5.7-5.7s5.7,2.5,5.7,5.7c0,3.1-2.5,5.7-5.7,5.7S92.6,22.9,92.6,19.8z"/>
			</defs>
			<use xlink:href="#SVGID_25_"  style="overflow:visible;fill-rule:evenodd;clip-rule:evenodd;fill:#FFFFFF;"/>
			<clipPath id="SVGID_28_">
				<use xlink:href="#SVGID_25_"  style="overflow:visible;"/>
			</clipPath>
			<clipPath id="SVGID_29_" class="st25">
				<use xlink:href="#SVGID_26_"  style="overflow:visible;"/>
			</clipPath>
			<clipPath id="SVGID_30_" class="st26">
				<use xlink:href="#SVGID_27_"  style="overflow:visible;"/>
			</clipPath>
			
				<rect x="97.2" y="13.6" transform="matrix(0.7071 -0.7071 0.7071 0.7071 14.7834 75.3192)" class="st27" width="2.3" height="12.4"/>
			
				<use xlink:href="#SVGID_27_"  style="overflow:visible;fill-rule:evenodd;clip-rule:evenodd;fill:none;stroke:#1A171B;stroke-width:0.5;stroke-miterlimit:3.8637;"/>
		</g>
		<g>
			<defs>
				<path id="SVGID_31_" d="M107.2,19.8c0-3.1,2.5-5.7,5.7-5.7s5.7,2.5,5.7,5.7c0,3.1-2.5,5.7-5.7,5.7S107.2,22.9,107.2,19.8z"/>
			</defs>
			<defs>
				<path id="SVGID_32_" d="M107.2,19.8c0-3.1,2.5-5.7,5.7-5.7s5.7,2.5,5.7,5.7c0,3.1-2.5,5.7-5.7,5.7S107.2,22.9,107.2,19.8z"/>
			</defs>
			<defs>
				<path id="SVGID_33_" d="M107.2,19.8c0-3.1,2.5-5.7,5.7-5.7s5.7,2.5,5.7,5.7c0,3.1-2.5,5.7-5.7,5.7S107.2,22.9,107.2,19.8z"/>
			</defs>
			<use xlink:href="#SVGID_31_"  style="overflow:visible;fill-rule:evenodd;clip-rule:evenodd;fill:#FFFFFF;"/>
			<clipPath id="SVGID_34_">
				<use xlink:href="#SVGID_31_"  style="overflow:visible;"/>
			</clipPath>
			<clipPath id="SVGID_35_" class="st28">
				<use xlink:href="#SVGID_32_"  style="overflow:visible;"/>
			</clipPath>
			<clipPath id="SVGID_36_" class="st29">
				<use xlink:href="#SVGID_33_"  style="overflow:visible;"/>
			</clipPath>
			
				<rect x="111.8" y="13.6" transform="matrix(0.7071 -0.7071 0.7071 0.7071 19.0503 85.6302)" class="st30" width="2.3" height="12.4"/>
			
				<use xlink:href="#SVGID_33_"  style="overflow:visible;fill-rule:evenodd;clip-rule:evenodd;fill:none;stroke:#1A171B;stroke-width:0.5;stroke-miterlimit:3.8637;"/>
		</g>
		<g>
			<defs>
				<path id="SVGID_37_" d="M121.8,19.8c0-3.1,2.5-5.7,5.7-5.7s5.7,2.5,5.7,5.7c0,3.1-2.5,5.7-5.7,5.7S121.8,22.9,121.8,19.8z"/>
			</defs>
			<defs>
				<path id="SVGID_38_" d="M121.8,19.8c0-3.1,2.5-5.7,5.7-5.7s5.7,2.5,5.7,5.7c0,3.1-2.5,5.7-5.7,5.7S121.8,22.9,121.8,19.8z"/>
			</defs>
			<defs>
				<path id="SVGID_39_" d="M121.8,19.8c0-3.1,2.5-5.7,5.7-5.7s5.7,2.5,5.7,5.7c0,3.1-2.5,5.7-5.7,5.7S121.8,22.9,121.8,19.8z"/>
			</defs>
			<use xlink:href="#SVGID_37_"  style="overflow:visible;fill-rule:evenodd;clip-rule:evenodd;fill:#FFFFFF;"/>
			<clipPath id="SVGID_40_">
				<use xlink:href="#SVGID_37_"  style="overflow:visible;"/>
			</clipPath>
			<clipPath id="SVGID_41_" class="st31">
				<use xlink:href="#SVGID_38_"  style="overflow:visible;"/>
			</clipPath>
			<clipPath id="SVGID_42_" class="st32">
				<use xlink:href="#SVGID_39_"  style="overflow:visible;"/>
			</clipPath>
			
				<rect x="126.3" y="13.6" transform="matrix(0.7071 -0.7071 0.7071 0.7071 23.3236 95.9351)" class="st33" width="2.3" height="12.4"/>
			
				<use xlink:href="#SVGID_39_"  style="overflow:visible;fill-rule:evenodd;clip-rule:evenodd;fill:none;stroke:#1A171B;stroke-width:0.5;stroke-miterlimit:3.8637;"/>
		</g>
		<g>
			<defs>
				<path id="SVGID_43_" d="M136.4,19.8c0-3.1,2.5-5.7,5.7-5.7s5.7,2.5,5.7,5.7c0,3.1-2.5,5.7-5.7,5.7S136.4,22.9,136.4,19.8z"/>
			</defs>
			<defs>
				<path id="SVGID_44_" d="M136.4,19.8c0-3.1,2.5-5.7,5.7-5.7s5.7,2.5,5.7,5.7c0,3.1-2.5,5.7-5.7,5.7S136.4,22.9,136.4,19.8z"/>
			</defs>
			<defs>
				<path id="SVGID_45_" d="M136.4,19.8c0-3.1,2.5-5.7,5.7-5.7s5.7,2.5,5.7,5.7c0,3.1-2.5,5.7-5.7,5.7S136.4,22.9,136.4,19.8z"/>
			</defs>
			<use xlink:href="#SVGID_43_"  style="overflow:visible;fill-rule:evenodd;clip-rule:evenodd;fill:#FFFFFF;"/>
			<clipPath id="SVGID_46_">
				<use xlink:href="#SVGID_43_"  style="overflow:visible;"/>
			</clipPath>
			<clipPath id="SVGID_47_" class="st34">
				<use xlink:href="#SVGID_44_"  style="overflow:visible;"/>
			</clipPath>
			<clipPath id="SVGID_48_" class="st35">
				<use xlink:href="#SVGID_45_"  style="overflow:visible;"/>
			</clipPath>
			
				<rect x="140.9" y="13.6" transform="matrix(0.7071 -0.7071 0.7071 0.7071 27.5912 106.2459)" class="st36" width="2.3" height="12.4"/>
			
				<use xlink:href="#SVGID_45_"  style="overflow:visible;fill-rule:evenodd;clip-rule:evenodd;fill:none;stroke:#1A171B;stroke-width:0.5;stroke-miterlimit:3.8637;"/>
		</g>
		<g>
			<defs>
				<path id="SVGID_49_" d="M151,19.8c0-3.1,2.5-5.7,5.7-5.7s5.7,2.5,5.7,5.7c0,3.1-2.5,5.7-5.7,5.7S151,22.9,151,19.8z"/>
			</defs>
			<defs>
				<path id="SVGID_50_" d="M151,19.8c0-3.1,2.5-5.7,5.7-5.7s5.7,2.5,5.7,5.7c0,3.1-2.5,5.7-5.7,5.7S151,22.9,151,19.8z"/>
			</defs>
			<defs>
				<path id="SVGID_51_" d="M151,19.8c0-3.1,2.5-5.7,5.7-5.7s5.7,2.5,5.7,5.7c0,3.1-2.5,5.7-5.7,5.7S151,22.9,151,19.8z"/>
			</defs>
			<use xlink:href="#SVGID_49_"  style="overflow:visible;fill-rule:evenodd;clip-rule:evenodd;fill:#FFFFFF;"/>
			<clipPath id="SVGID_52_">
				<use xlink:href="#SVGID_49_"  style="overflow:visible;"/>
			</clipPath>
			<clipPath id="SVGID_53_" class="st37">
				<use xlink:href="#SVGID_50_"  style="overflow:visible;"/>
			</clipPath>
			<clipPath id="SVGID_54_" class="st38">
				<use xlink:href="#SVGID_51_"  style="overflow:visible;"/>
			</clipPath>
			
				<rect x="155.5" y="13.6" transform="matrix(0.7071 -0.7071 0.7071 0.7071 31.8645 116.5508)" class="st39" width="2.3" height="12.4"/>
			
				<use xlink:href="#SVGID_51_"  style="overflow:visible;fill-rule:evenodd;clip-rule:evenodd;fill:none;stroke:#1A171B;stroke-width:0.5;stroke-miterlimit:3.8637;"/>
		</g>
		<g>
			<defs>
				<path id="SVGID_55_" d="M165.5,19.8c0-3.1,2.5-5.7,5.7-5.7s5.7,2.5,5.7,5.7c0,3.1-2.5,5.7-5.7,5.7S165.5,22.9,165.5,19.8z"/>
			</defs>
			<defs>
				<path id="SVGID_56_" d="M165.5,19.8c0-3.1,2.5-5.7,5.7-5.7s5.7,2.5,5.7,5.7c0,3.1-2.5,5.7-5.7,5.7S165.5,22.9,165.5,19.8z"/>
			</defs>
			<defs>
				<path id="SVGID_57_" d="M165.5,19.8c0-3.1,2.5-5.7,5.7-5.7s5.7,2.5,5.7,5.7c0,3.1-2.5,5.7-5.7,5.7S165.5,22.9,165.5,19.8z"/>
			</defs>
			<use xlink:href="#SVGID_55_"  style="overflow:visible;fill-rule:evenodd;clip-rule:evenodd;fill:#FFFFFF;"/>
			<clipPath id="SVGID_58_">
				<use xlink:href="#SVGID_55_"  style="overflow:visible;"/>
			</clipPath>
			<clipPath id="SVGID_59_" class="st40">
				<use xlink:href="#SVGID_56_"  style="overflow:visible;"/>
			</clipPath>
			<clipPath id="SVGID_60_" class="st41">
				<use xlink:href="#SVGID_57_"  style="overflow:visible;"/>
			</clipPath>
			
				<rect x="170.1" y="13.6" transform="matrix(0.7071 -0.7071 0.7071 0.7071 36.1315 126.8619)" class="st42" width="2.3" height="12.4"/>
			
				<use xlink:href="#SVGID_57_"  style="overflow:visible;fill-rule:evenodd;clip-rule:evenodd;fill:none;stroke:#1A171B;stroke-width:0.5;stroke-miterlimit:3.8637;"/>
		</g>
		<g>
			<defs>
				<path id="SVGID_61_" d="M180.1,19.8c0-3.1,2.5-5.7,5.7-5.7s5.7,2.5,5.7,5.7c0,3.1-2.5,5.7-5.7,5.7S180.1,22.9,180.1,19.8z"/>
			</defs>
			<defs>
				<path id="SVGID_62_" d="M180.1,19.8c0-3.1,2.5-5.7,5.7-5.7s5.7,2.5,5.7,5.7c0,3.1-2.5,5.7-5.7,5.7S180.1,22.9,180.1,19.8z"/>
			</defs>
			<defs>
				<path id="SVGID_63_" d="M180.1,19.8c0-3.1,2.5-5.7,5.7-5.7s5.7,2.5,5.7,5.7c0,3.1-2.5,5.7-5.7,5.7S180.1,22.9,180.1,19.8z"/>
			</defs>
			<use xlink:href="#SVGID_61_"  style="overflow:visible;fill-rule:evenodd;clip-rule:evenodd;fill:#FFFFFF;"/>
			<clipPath id="SVGID_64_">
				<use xlink:href="#SVGID_61_"  style="overflow:visible;"/>
			</clipPath>
			<clipPath id="SVGID_65_" class="st43">
				<use xlink:href="#SVGID_62_"  style="overflow:visible;"/>
			</clipPath>
			<clipPath id="SVGID_66_" class="st44">
				<use xlink:href="#SVGID_63_"  style="overflow:visible;"/>
			</clipPath>
			
				<rect x="184.6" y="13.6" transform="matrix(0.7071 -0.7071 0.7071 0.7071 40.399 137.1725)" class="st45" width="2.3" height="12.4"/>
			
				<use xlink:href="#SVGID_63_"  style="overflow:visible;fill-rule:evenodd;clip-rule:evenodd;fill:none;stroke:#1A171B;stroke-width:0.5;stroke-miterlimit:3.8637;"/>
		</g>
	</g>
	<g>
		<rect x="13.8" y="212.9" class="st46" width="57.5" height="35.4"/>
		<rect x="13.8" y="225.6" class="st47" width="57.5" height="17"/>
		<g>
			<defs>
				<path id="SVGID_67_" d="M58.9,233c0-3.1,2.5-5.7,5.7-5.7s5.7,2.5,5.7,5.7c0,3.1-2.5,5.7-5.7,5.7S58.9,236.2,58.9,233z"/>
			</defs>
			<defs>
				<path id="SVGID_68_" d="M58.9,233c0-3.1,2.5-5.7,5.7-5.7s5.7,2.5,5.7,5.7c0,3.1-2.5,5.7-5.7,5.7S58.9,236.2,58.9,233z"/>
			</defs>
			<defs>
				<path id="SVGID_69_" d="M58.9,233c0-3.1,2.5-5.7,5.7-5.7s5.7,2.5,5.7,5.7c0,3.1-2.5,5.7-5.7,5.7S58.9,236.2,58.9,233z"/>
			</defs>
			<use xlink:href="#SVGID_67_"  style="overflow:visible;fill-rule:evenodd;clip-rule:evenodd;fill:#FFFFFF;"/>
			<clipPath id="SVGID_70_">
				<use xlink:href="#SVGID_67_"  style="overflow:visible;"/>
			</clipPath>
			<clipPath id="SVGID_71_" class="st48">
				<use xlink:href="#SVGID_68_"  style="overflow:visible;"/>
			</clipPath>
			<clipPath id="SVGID_72_" class="st49">
				<use xlink:href="#SVGID_69_"  style="overflow:visible;"/>
			</clipPath>
			
				<rect x="63.5" y="226.8" transform="matrix(0.7071 -0.7071 0.7071 0.7071 -145.8553 113.9405)" class="st50" width="2.3" height="12.4"/>
			
				<use xlink:href="#SVGID_69_"  style="overflow:visible;fill-rule:evenodd;clip-rule:evenodd;fill:none;stroke:#1A171B;stroke-width:0.5;stroke-miterlimit:3.8637;"/>
		</g>
		<g>
			<defs>
				<path id="SVGID_73_" d="M44.4,233c0-3.1,2.5-5.7,5.7-5.7s5.7,2.5,5.7,5.7c0,3.1-2.5,5.7-5.7,5.7S44.4,236.2,44.4,233z"/>
			</defs>
			<defs>
				<path id="SVGID_74_" d="M44.4,233c0-3.1,2.5-5.7,5.7-5.7s5.7,2.5,5.7,5.7c0,3.1-2.5,5.7-5.7,5.7S44.4,236.2,44.4,233z"/>
			</defs>
			<defs>
				<path id="SVGID_75_" d="M44.4,233c0-3.1,2.5-5.7,5.7-5.7s5.7,2.5,5.7,5.7c0,3.1-2.5,5.7-5.7,5.7S44.4,236.2,44.4,233z"/>
			</defs>
			<use xlink:href="#SVGID_73_"  style="overflow:visible;fill-rule:evenodd;clip-rule:evenodd;fill:#FFFFFF;"/>
			<clipPath id="SVGID_76_">
				<use xlink:href="#SVGID_73_"  style="overflow:visible;"/>
			</clipPath>
			<clipPath id="SVGID_77_" class="st51">
				<use xlink:href="#SVGID_74_"  style="overflow:visible;"/>
			</clipPath>
			<clipPath id="SVGID_78_" class="st52">
				<use xlink:href="#SVGID_75_"  style="overflow:visible;"/>
			</clipPath>
			
				<rect x="48.9" y="226.8" transform="matrix(0.7071 -0.7071 0.7071 0.7071 -150.1282 103.6355)" class="st53" width="2.3" height="12.4"/>
			
				<use xlink:href="#SVGID_75_"  style="overflow:visible;fill-rule:evenodd;clip-rule:evenodd;fill:none;stroke:#1A171B;stroke-width:0.5;stroke-miterlimit:3.8637;"/>
		</g>
		<g>
			<defs>
				<path id="SVGID_79_" d="M29.8,233c0-3.1,2.5-5.7,5.7-5.7s5.7,2.5,5.7,5.7c0,3.1-2.5,5.7-5.7,5.7S29.8,236.2,29.8,233z"/>
			</defs>
			<defs>
				<path id="SVGID_80_" d="M29.8,233c0-3.1,2.5-5.7,5.7-5.7s5.7,2.5,5.7,5.7c0,3.1-2.5,5.7-5.7,5.7S29.8,236.2,29.8,233z"/>
			</defs>
			<defs>
				<path id="SVGID_81_" d="M29.8,233c0-3.1,2.5-5.7,5.7-5.7s5.7,2.5,5.7,5.7c0,3.1-2.5,5.7-5.7,5.7S29.8,236.2,29.8,233z"/>
			</defs>
			<use xlink:href="#SVGID_79_"  style="overflow:visible;fill-rule:evenodd;clip-rule:evenodd;fill:#FFFFFF;"/>
			<clipPath id="SVGID_82_">
				<use xlink:href="#SVGID_79_"  style="overflow:visible;"/>
			</clipPath>
			<clipPath id="SVGID_83_" class="st54">
				<use xlink:href="#SVGID_80_"  style="overflow:visible;"/>
			</clipPath>
			<clipPath id="SVGID_84_" class="st55">
				<use xlink:href="#SVGID_81_"  style="overflow:visible;"/>
			</clipPath>
			
				<rect x="34.3" y="226.8" transform="matrix(0.7071 -0.7071 0.7071 0.7071 -154.3955 93.3247)" class="st56" width="2.3" height="12.4"/>
			
				<use xlink:href="#SVGID_81_"  style="overflow:visible;fill-rule:evenodd;clip-rule:evenodd;fill:none;stroke:#1A171B;stroke-width:0.5;stroke-miterlimit:3.8637;"/>
		</g>
		<g>
			<defs>
				<path id="SVGID_85_" d="M15.2,233c0-3.1,2.5-5.7,5.7-5.7s5.7,2.5,5.7,5.7c0,3.1-2.5,5.7-5.7,5.7S15.2,236.2,15.2,233z"/>
			</defs>
			<defs>
				<path id="SVGID_86_" d="M15.2,233c0-3.1,2.5-5.7,5.7-5.7s5.7,2.5,5.7,5.7c0,3.1-2.5,5.7-5.7,5.7S15.2,236.2,15.2,233z"/>
			</defs>
			<defs>
				<path id="SVGID_87_" d="M15.2,233c0-3.1,2.5-5.7,5.7-5.7s5.7,2.5,5.7,5.7c0,3.1-2.5,5.7-5.7,5.7S15.2,236.2,15.2,233z"/>
			</defs>
			<use xlink:href="#SVGID_85_"  style="overflow:visible;fill-rule:evenodd;clip-rule:evenodd;fill:#FFFFFF;"/>
			<clipPath id="SVGID_88_">
				<use xlink:href="#SVGID_85_"  style="overflow:visible;"/>
			</clipPath>
			<clipPath id="SVGID_89_" class="st57">
				<use xlink:href="#SVGID_86_"  style="overflow:visible;"/>
			</clipPath>
			<clipPath id="SVGID_90_" class="st58">
				<use xlink:href="#SVGID_87_"  style="overflow:visible;"/>
			</clipPath>
			
				<rect x="19.7" y="226.8" transform="matrix(0.7071 -0.7071 0.7071 0.7071 -158.6631 83.0139)" class="st59" width="2.3" height="12.4"/>
			
				<use xlink:href="#SVGID_87_"  style="overflow:visible;fill-rule:evenodd;clip-rule:evenodd;fill:none;stroke:#1A171B;stroke-width:0.5;stroke-miterlimit:3.8637;"/>
		</g>
		<rect x="18" y="215.7" class="st46" width="5.7" height="5.7"/>
		<rect x="32.6" y="215.7" class="st46" width="5.7" height="5.7"/>
		<rect x="47.2" y="215.7" class="st46" width="5.7" height="5.7"/>
		<rect x="61.8" y="215.7" class="st46" width="5.7" height="5.7"/>
		<rect x="18" y="212.9" class="st60" width="5.7" height="2.8"/>
		<rect x="32.6" y="212.9" class="st60" width="5.7" height="2.8"/>
		<rect x="47.2" y="212.9" class="st60" width="5.7" height="2.8"/>
		<rect x="61.8" y="212.9" class="st60" width="5.7" height="2.8"/>
		<rect x="13.8" y="245.5" class="st46" width="57.5" height="2.8"/>
	</g>
	<polygon class="st14" points="0.3,252.6 0.3,212.9 4.5,212.9 4.5,248.3 8.8,248.3 8.8,252.6 	"/>
	<g>
		<rect x="10.2" y="70.5" class="st61" width="181.4" height="112"/>
		<rect x="10.2" y="98.2" class="st62" width="181.4" height="56.7"/>
		<g>
			<polygon class="st62" points="26.7,83.2 24.5,83.2 20.8,77.2 20.8,83.2 18.7,83.2 18.7,74.5 21.4,74.5 24.6,79.5 24.6,74.5 
				26.7,74.5 			"/>
			<polygon class="st62" points="51.8,83.2 45.5,83.2 45.5,74.5 47.8,74.5 47.8,81.5 51.8,81.5 			"/>
			<polygon class="st63" points="30.5,88.2 30.5,83.6 40.4,83.6 40.4,88.2 46.8,88.2 35.5,93.9 24.1,88.2 			"/>
			<path class="st62" d="M40.4,74.8c0,1.3-0.2,2.3-0.6,3c-0.4,0.7-1.1,1-1.9,1c-0.3,0-0.5,0-0.7-0.1c-0.2-0.1-0.4-0.2-0.6-0.3
				c-0.2-0.1-0.3-0.2-0.4-0.4c-0.1-0.1-0.3-0.3-0.4-0.5c-0.1-0.1-0.2-0.2-0.3-0.4c-0.1-0.2-0.2-0.3-0.3-0.4
				c-0.1-0.1-0.2-0.2-0.3-0.3c-0.1-0.1-0.2-0.1-0.3-0.1c-0.2,0-0.4,0.1-0.5,0.2s-0.2,0.3-0.3,0.5c-0.1,0.2-0.1,0.5-0.1,0.8
				c0,0.3,0,0.6,0,0.9h-1.6c0-1.3,0.2-2.3,0.7-3c0.4-0.7,1.1-1,1.9-1c0.3,0,0.5,0,0.7,0.1c0.2,0.1,0.4,0.2,0.6,0.3
				c0.2,0.1,0.3,0.2,0.4,0.4c0.1,0.1,0.3,0.3,0.4,0.4c0.1,0.1,0.2,0.2,0.3,0.4c0.1,0.1,0.2,0.3,0.4,0.4c0.1,0.1,0.2,0.2,0.3,0.3
				c0.1,0.1,0.2,0.1,0.3,0.1c0.2,0,0.4-0.1,0.5-0.2s0.2-0.3,0.3-0.5c0.1-0.2,0.1-0.5,0.1-0.8c0-0.3,0-0.6,0-1H40.4z"/>
		</g>
		<g>
			<polygon class="st61" points="22.6,106.3 19.8,109.2 19.8,108.1 13.6,108.1 13.6,104.6 19.8,104.6 19.8,103.4 			"/>
			<polygon class="st61" points="26.8,102.5 26.8,110.5 28.2,110.5 28.2,107 30.7,107 30.7,105.9 28.2,105.9 28.2,103.5 31.3,103.5 
				31.3,102.5 			"/>
			<path class="st61" d="M36,107.8c-0.2,1.2-0.5,1.7-1.3,1.7c-1.3,0-1.5-1.5-1.5-3c0-1.3,0.2-3.1,1.5-3.1c1.1,0,1.3,1.1,1.3,1.8
				l1.2-0.2c-0.1-0.7-0.4-2.7-2.6-2.7c-2.7,0-2.9,2.9-2.9,4.2c0,1.3,0.3,4.1,2.9,4.1c2.2,0,2.5-2,2.6-2.7L36,107.8z"/>
			<rect x="38" y="107" class="st61" width="2.5" height="1"/>
			<path class="st61" d="M42.6,105c0-0.4,0.2-1.6,1.3-1.6c0.9,0,1.1,0.7,1.1,1.3c0,0.6-0.3,1.2-0.6,1.5c-0.8,1.1-2.4,2.4-3.1,3v1.2
				h5l0.1-1.2h-3.6c3-2.2,3.6-3.5,3.6-4.6c0-1.2-0.7-2.4-2.4-2.4c-2.1,0-2.5,1.9-2.6,2.5L42.6,105z"/>
			<polygon class="st61" points="47.1,102.5 49.1,110.5 50.6,110.5 52.7,102.5 51.5,102.5 50,108.9 48.5,102.5 			"/>
		</g>
		<g>
			<g>
				<path class="st61" d="M27.1,124.5h1.5c0.3,0,0.5,0,0.8-0.2c0.2-0.2,0.3-0.4,0.3-0.7c0-0.2,0-0.4-0.2-0.5
					c-0.2-0.2-0.4-0.2-0.5-0.3c0.6-0.1,0.6-0.6,0.6-0.7c0-0.2,0-0.4-0.2-0.5c-0.3-0.3-0.6-0.3-0.9-0.3h-1.3V124.5z M27.6,123h0.8
					c0.3,0,0.5,0.2,0.5,0.5c0,0.3-0.2,0.5-0.5,0.5h-0.8V123z M27.6,121.6h0.7c0.1,0,0.5,0.1,0.5,0.4c0,0.3-0.2,0.5-0.5,0.5h-0.7
					V121.6z"/>
				<path class="st61" d="M32.4,121.1h-0.5v2.1c0,0.2,0,0.4-0.1,0.5c-0.1,0.1-0.3,0.2-0.5,0.2c-0.2,0-0.4-0.1-0.5-0.2
					c-0.1-0.1-0.1-0.3-0.1-0.5v-2.1h-0.6v2.2c0,0.3,0,0.6,0.3,0.9c0.2,0.3,0.7,0.3,0.9,0.3c0.1,0,0.4,0,0.7-0.2
					c0.5-0.3,0.5-0.7,0.5-1.1V121.1z"/>
				<path class="st61" d="M32.7,123.7c0.1,0.2,0.1,0.4,0.3,0.5c0.3,0.2,0.6,0.3,1,0.3c0.8,0,1.3-0.4,1.3-1c0-0.7-0.6-0.9-0.9-1
					l-0.6-0.1c-0.2,0-0.5-0.1-0.5-0.4c0-0.2,0.1-0.4,0.6-0.4c0.5,0,0.6,0.3,0.6,0.4l0.6-0.1c0-0.1-0.1-0.3-0.3-0.4
					c-0.3-0.2-0.6-0.3-0.9-0.3c-0.7,0-1.2,0.4-1.2,1c0,0.4,0.2,0.8,0.7,0.9l0.7,0.2c0.1,0,0.4,0.1,0.4,0.4c0,0.1-0.1,0.4-0.7,0.4
					c-0.1,0-0.2,0-0.4-0.1c-0.3-0.1-0.4-0.3-0.4-0.4L32.7,123.7z"/>
				<path class="st61" d="M36.5,124.5V122h-0.6v2.5H36.5z M36.5,121.7v-0.6h-0.6v0.6H36.5z"/>
				<path class="st61" d="M37.1,124.5h0.6v-1.2c0-0.8,0.4-0.9,0.5-0.9c0.1,0,0.4,0,0.4,0.6v1.5h0.6V123c0-0.3,0-1.1-0.8-1.1
					c-0.5,0-0.7,0.4-0.7,0.6V122h-0.5V124.5z"/>
				<path class="st61" d="M42.1,121.5h-0.2c-0.2,0-0.3,0-0.4,0.1c-0.1,0.1-0.2,0.2-0.2,0.4c-0.1,0-0.3-0.1-0.5-0.1
					c-0.9,0-1,0.5-1,0.7c0,0.3,0.2,0.5,0.3,0.6c-0.1,0.1-0.4,0.2-0.4,0.5c0,0.2,0.1,0.3,0.2,0.4c-0.2,0.1-0.4,0.2-0.4,0.5
					c0,0.5,0.5,0.7,1.2,0.7c1,0,1.3-0.5,1.3-0.8c0-0.3-0.2-0.7-0.8-0.7h-0.6c-0.3,0-0.4-0.2-0.4-0.2c0-0.2,0.1-0.2,0.2-0.2
					c0.2,0,0.3,0.1,0.5,0.1c0.6,0,1-0.3,1-0.8c0-0.3-0.2-0.4-0.3-0.5c0.1-0.1,0.2-0.2,0.4-0.2h0.2V121.5z M41.3,122.7
					c0,0.1,0,0.2-0.1,0.3c-0.1,0.1-0.2,0.1-0.3,0.1c-0.3,0-0.5-0.2-0.5-0.4c0-0.2,0.1-0.4,0.5-0.4C41.2,122.3,41.3,122.5,41.3,122.7
					z M40.1,124.5c0-0.1,0-0.1,0.1-0.2c0.2,0.1,0.4,0.1,0.6,0.1h0.4c0.2,0,0.4,0.1,0.4,0.2c0,0.3-0.4,0.3-0.6,0.3
					c-0.1,0-0.3,0-0.5-0.1C40.3,124.9,40.1,124.7,40.1,124.5z"/>
				<path class="st61" d="M44.5,124.5v-2H45V122h-0.5c0-0.4,0-0.5,0.4-0.5c0,0,0.1,0,0.1,0v-0.4c-0.4,0-0.7,0-0.8,0.1
					c-0.3,0.2-0.3,0.5-0.3,0.8h-0.4v0.4H44v2H44.5z"/>
				<path class="st61" d="M47.5,122.8c0-0.3,0-0.5-0.3-0.7c-0.2-0.1-0.5-0.2-0.8-0.2c-0.5,0-1,0.2-1.1,0.7l0.5,0.1
					c0-0.1,0.1-0.4,0.6-0.4c0.2,0,0.5,0.1,0.5,0.4v0.2c-0.5,0-1.7,0-1.7,0.8c0,0.4,0.3,0.8,0.8,0.8c0.6,0,0.8-0.4,0.8-0.5
					c0,0.2,0,0.3,0.1,0.5h0.5c0-0.1-0.1-0.3-0.1-0.5V122.8z M46.9,123.4c0,0.2-0.1,0.7-0.6,0.7c-0.4,0-0.4-0.3-0.4-0.4
					c0-0.3,0.3-0.4,0.4-0.4c0.1,0,0.3-0.1,0.7-0.1V123.4z"/>
				<path class="st61" d="M48.2,124.5h0.6v-1.2c0-0.8,0.4-0.9,0.5-0.9c0.1,0,0.4,0,0.4,0.6v1.5h0.6V123c0-0.3,0-1.1-0.8-1.1
					c-0.5,0-0.6,0.4-0.7,0.6V122h-0.5V124.5z"/>
				<path class="st61" d="M52.3,123.6c-0.1,0.3-0.2,0.5-0.5,0.5c-0.5,0-0.5-0.7-0.5-0.8c0-0.1,0-0.3,0.1-0.5c0-0.1,0.1-0.4,0.5-0.4
					c0.2,0,0.4,0.1,0.5,0.5l0.5-0.1c0-0.2-0.2-0.9-1-0.9c-0.7,0-1.1,0.6-1.1,1.3c0,0.6,0.3,1.3,1,1.3c0.8,0,1-0.7,1-0.9L52.3,123.6z
					"/>
				<path class="st61" d="M55.3,123.2c0-0.7-0.4-1.3-1.1-1.3c-0.8,0-1.2,0.6-1.2,1.3c0,0.6,0.3,1.3,1.1,1.3
					C54.8,124.5,55.3,124.1,55.3,123.2z M54.7,123.2c0,0.3,0,0.8-0.6,0.8c-0.6,0-0.6-0.7-0.6-0.8c0-0.4,0.1-0.8,0.6-0.8
					C54.6,122.4,54.7,122.8,54.7,123.2z"/>
				<path class="st61" d="M56.4,124.5V122h-0.6v2.5H56.4z M56.4,121.7v-0.6h-0.6v0.6H56.4z"/>
				<rect x="57.1" y="121.1" class="st61" width="0.6" height="3.3"/>
			</g>
			<g>
				<path class="st61" d="M27.7,118.5v-2h0.5V116h-0.5c0-0.4,0-0.5,0.4-0.5c0,0,0.1,0,0.1,0v-0.4c-0.4,0-0.7,0-0.8,0.1
					c-0.3,0.2-0.3,0.5-0.3,0.8h-0.4v0.4h0.4v2H27.7z"/>
				<path class="st61" d="M30.7,116.8c0-0.3,0-0.5-0.3-0.7c-0.2-0.1-0.5-0.2-0.8-0.2c-0.5,0-1,0.2-1.1,0.7l0.5,0.1
					c0-0.1,0.1-0.4,0.6-0.4c0.2,0,0.5,0.1,0.5,0.4v0.2c-0.5,0-1.7,0-1.7,0.8c0,0.4,0.3,0.8,0.8,0.8c0.6,0,0.8-0.4,0.8-0.5
					c0,0.2,0,0.3,0.1,0.5h0.5c0-0.1-0.1-0.3-0.1-0.5V116.8z M30.1,117.4c0,0.2-0.1,0.7-0.6,0.7c-0.4,0-0.4-0.3-0.4-0.4
					c0-0.3,0.3-0.4,0.4-0.4c0.1,0,0.3-0.1,0.7-0.1V117.4z"/>
				<path class="st61" d="M31.3,118.5h0.6v-1.2c0-0.8,0.4-0.9,0.5-0.9c0.1,0,0.4,0,0.4,0.6v1.5h0.6V117c0-0.3,0-1.1-0.8-1.1
					c-0.5,0-0.7,0.4-0.7,0.6V116h-0.5V118.5z"/>
				<path class="st61" d="M35.4,117.6c-0.1,0.3-0.2,0.5-0.5,0.5c-0.5,0-0.5-0.7-0.5-0.8c0-0.1,0-0.3,0.1-0.5c0-0.1,0.1-0.4,0.5-0.4
					c0.2,0,0.4,0.1,0.5,0.5l0.5-0.1c0-0.2-0.2-0.9-1-0.9c-0.7,0-1.1,0.6-1.1,1.3c0,0.6,0.3,1.3,1,1.3c0.8,0,1-0.7,1-0.9L35.4,117.6z
					"/>
				<path class="st61" d="M38.5,117.2c0-0.7-0.4-1.3-1.1-1.3c-0.8,0-1.2,0.6-1.2,1.3c0,0.6,0.3,1.3,1.1,1.3
					C38,118.5,38.5,118.1,38.5,117.2z M37.9,117.2c0,0.3,0,0.8-0.6,0.8c-0.6,0-0.6-0.7-0.6-0.8c0-0.4,0.1-0.8,0.6-0.8
					C37.8,116.4,37.9,116.8,37.9,117.2z"/>
				<path class="st61" d="M39.6,118.5V116H39v2.5H39.6z M39.6,115.7v-0.6H39v0.6H39.6z"/>
				<rect x="40.2" y="115.1" class="st61" width="0.6" height="3.3"/>
				<path class="st61" d="M42.9,118.5h1.5c0.3,0,0.5,0,0.8-0.2c0.2-0.2,0.3-0.4,0.3-0.7c0-0.2,0-0.4-0.2-0.5
					c-0.2-0.2-0.4-0.2-0.5-0.3c0.6-0.1,0.6-0.6,0.6-0.7c0-0.2,0-0.4-0.2-0.5c-0.3-0.3-0.6-0.3-0.9-0.3h-1.3V118.5z M43.5,117h0.8
					c0.3,0,0.5,0.2,0.5,0.5c0,0.3-0.2,0.5-0.5,0.5h-0.8V117z M43.5,115.6h0.7c0.1,0,0.5,0.1,0.5,0.4c0,0.3-0.2,0.5-0.5,0.5h-0.7
					V115.6z"/>
				<path class="st61" d="M48.3,115.1h-0.5v2.1c0,0.2,0,0.4-0.1,0.5c-0.1,0.1-0.3,0.2-0.5,0.2c-0.2,0-0.4-0.1-0.5-0.2
					c-0.1-0.1-0.1-0.3-0.1-0.5v-2.1h-0.6v2.2c0,0.3,0,0.6,0.3,0.9c0.2,0.3,0.7,0.3,0.9,0.3c0.1,0,0.4,0,0.7-0.2
					c0.5-0.3,0.5-0.7,0.5-1.1V115.1z"/>
				<path class="st61" d="M48.6,117.7c0.1,0.2,0.1,0.4,0.3,0.5c0.3,0.2,0.6,0.3,1,0.3c0.8,0,1.3-0.4,1.3-1c0-0.7-0.6-0.9-0.9-1
					l-0.6-0.1c-0.2,0-0.5-0.1-0.5-0.4c0-0.2,0.1-0.4,0.6-0.4c0.5,0,0.6,0.3,0.6,0.4l0.6-0.1c0-0.1-0.1-0.3-0.3-0.4
					c-0.3-0.2-0.6-0.3-0.9-0.3c-0.7,0-1.2,0.4-1.2,1c0,0.4,0.2,0.8,0.7,0.9l0.7,0.2c0.1,0,0.4,0.1,0.4,0.4c0,0.1-0.1,0.4-0.7,0.4
					c-0.1,0-0.3,0-0.4-0.1c-0.3-0.1-0.4-0.3-0.4-0.4L48.6,117.7z"/>
				<path class="st61" d="M52.3,118.5V116h-0.6v2.5H52.3z M52.3,115.7v-0.6h-0.6v0.6H52.3z"/>
				<path class="st61" d="M53,118.5h0.6v-1.2c0-0.8,0.4-0.9,0.5-0.9c0.1,0,0.4,0,0.4,0.6v1.5H55V117c0-0.3,0-1.1-0.8-1.1
					c-0.5,0-0.6,0.4-0.7,0.6V116H53V118.5z"/>
				<path class="st61" d="M57.9,115.5h-0.2c-0.2,0-0.3,0-0.4,0.1c-0.1,0.1-0.2,0.2-0.2,0.4c-0.1,0-0.3-0.1-0.5-0.1
					c-0.9,0-1,0.5-1,0.7c0,0.3,0.2,0.5,0.3,0.6c-0.1,0.1-0.4,0.2-0.4,0.5c0,0.2,0.1,0.3,0.2,0.4c-0.2,0.1-0.4,0.2-0.4,0.5
					c0,0.5,0.5,0.7,1.2,0.7c1,0,1.3-0.5,1.3-0.8c0-0.3-0.2-0.7-0.8-0.7h-0.6c-0.3,0-0.4-0.2-0.4-0.2c0-0.2,0.1-0.2,0.2-0.2
					c0.2,0,0.3,0.1,0.5,0.1c0.6,0,1-0.3,1-0.8c0-0.3-0.2-0.4-0.3-0.5c0.1-0.1,0.2-0.2,0.4-0.2h0.2V115.5z M57.1,116.7
					c0,0.1,0,0.2-0.1,0.3c-0.1,0.1-0.2,0.1-0.3,0.1c-0.3,0-0.5-0.2-0.5-0.4c0-0.2,0.1-0.4,0.5-0.4C57,116.3,57.1,116.5,57.1,116.7z
					 M56,118.5c0-0.1,0-0.1,0.1-0.2c0.2,0.1,0.4,0.1,0.6,0.1h0.4c0.2,0,0.4,0.1,0.4,0.2c0,0.3-0.4,0.3-0.6,0.3c-0.1,0-0.3,0-0.5-0.1
					C56.1,118.9,56,118.7,56,118.5z"/>
			</g>
		</g>
		<g>
			<g>
				<path class="st61" d="M69.9,134.5c0.2,0,0.4,0.1,0.6,0.2c0.2,0.2,0.2,0.3,0.2,0.5c0,0.2-0.1,0.4-0.2,0.6
					c-0.2,0.2-0.3,0.2-0.6,0.2c-0.2,0-0.4-0.1-0.6-0.2c-0.2-0.2-0.2-0.3-0.2-0.6s0.1-0.4,0.2-0.6C69.5,134.5,69.7,134.5,69.9,134.5z
					 M69.2,144.3v-6.1h-1v-1.1h2.2v7.1H69.2z"/>
				<path class="st61" d="M76.8,144.3v-4.2c0-0.8-0.1-1.3-0.3-1.6c-0.2-0.3-0.6-0.5-1.1-0.5c-0.3,0-0.6,0.1-0.9,0.3
					c-0.3,0.2-0.6,0.4-0.7,0.6v5.3h-1.3v-7.1h0.9l0.4,0.9c0.4-0.7,1.1-1.1,2-1.1c1.6,0,2.3,1,2.3,2.9v4.4H76.8z"/>
				<path class="st61" d="M79.6,146.2l0.7-1c0.7,0.5,1.4,0.7,2,0.7c0.6,0,1-0.1,1.4-0.3c0.3-0.2,0.5-0.4,0.5-0.7
					c0-0.6-0.4-0.9-1.3-0.9c-0.1,0-0.4,0-0.8,0.1s-0.7,0.1-0.9,0.1c-1,0-1.5-0.4-1.5-1.1c0-0.2,0.1-0.4,0.4-0.6
					c0.2-0.2,0.5-0.3,0.9-0.4c-1-0.5-1.5-1.3-1.5-2.5c0-0.7,0.3-1.4,0.8-1.9c0.5-0.5,1.2-0.7,1.9-0.7c0.7,0,1.3,0.1,1.6,0.4l0.6-0.8
					l0.8,0.8l-0.8,0.6c0.3,0.4,0.5,1,0.5,1.7c0,0.7-0.2,1.3-0.7,1.8c-0.4,0.5-1,0.8-1.8,0.8l-1,0.1c-0.1,0-0.3,0.1-0.5,0.1
					c-0.2,0.1-0.3,0.2-0.3,0.3c0,0.2,0.2,0.3,0.7,0.3c0.2,0,0.5,0,0.9-0.1c0.4-0.1,0.7-0.1,0.9-0.1c0.7,0,1.2,0.2,1.6,0.5
					c0.4,0.3,0.6,0.8,0.6,1.4c0,0.7-0.3,1.2-0.9,1.6c-0.6,0.4-1.3,0.6-2.2,0.6c-0.5,0-0.9-0.1-1.5-0.2
					C80.4,146.7,80,146.5,79.6,146.2z M82.3,138c-0.4,0-0.8,0.2-1.1,0.5c-0.3,0.3-0.4,0.7-0.4,1.1c0,0.5,0.1,0.9,0.4,1.2
					c0.3,0.3,0.6,0.5,1.1,0.5c0.4,0,0.8-0.2,1.1-0.5c0.3-0.3,0.4-0.7,0.4-1.3c0-0.4-0.1-0.8-0.4-1.1C83.1,138.2,82.7,138,82.3,138z"
					/>
				<path class="st61" d="M92.8,140.8h-5.1c0,0.8,0.2,1.5,0.7,1.9c0.4,0.4,0.9,0.6,1.6,0.6c0.7,0,1.3-0.2,1.8-0.6l0.5,0.9
					c-0.2,0.2-0.5,0.4-0.9,0.5c-0.5,0.2-1.1,0.3-1.7,0.3c-0.9,0-1.7-0.3-2.3-0.9c-0.7-0.7-1-1.6-1-2.7c0-1.2,0.4-2.1,1.1-2.8
					c0.6-0.6,1.4-1,2.3-1c1,0,1.8,0.3,2.4,0.9c0.6,0.6,0.8,1.3,0.8,2.2C92.9,140.3,92.8,140.6,92.8,140.8z M89.7,138.1
					c-0.6,0-1,0.2-1.4,0.5c-0.4,0.3-0.6,0.8-0.6,1.3h4c0-0.5-0.2-0.9-0.5-1.3C90.8,138.3,90.3,138.1,89.7,138.1z"/>
				<path class="st61" d="M98.6,144.3v-4.2c0-0.8-0.1-1.3-0.3-1.6c-0.2-0.3-0.6-0.5-1.1-0.5c-0.3,0-0.6,0.1-0.9,0.3
					c-0.3,0.2-0.6,0.4-0.7,0.6v5.3h-1.3v-7.1h0.9l0.4,0.9c0.4-0.7,1.1-1.1,2-1.1c1.6,0,2.3,1,2.3,2.9v4.4H98.6z"/>
				<path class="st61" d="M103,134.5c0.2,0,0.4,0.1,0.6,0.2c0.2,0.2,0.2,0.3,0.2,0.5c0,0.2-0.1,0.4-0.2,0.6
					c-0.2,0.2-0.3,0.2-0.6,0.2c-0.2,0-0.4-0.1-0.6-0.2c-0.2-0.2-0.2-0.3-0.2-0.6s0.1-0.4,0.2-0.6C102.6,134.5,102.7,134.5,103,134.5
					z M102.3,144.3v-6.1h-1v-1.1h2.2v7.1H102.3z"/>
				<path class="st61" d="M106.7,137.1v4.5c0,1.1,0.5,1.7,1.4,1.7c0.4,0,0.8-0.1,1.1-0.4c0.3-0.2,0.6-0.5,0.7-0.8v-5h1.3v7.1H110v-1
					c-0.1,0.3-0.4,0.5-0.9,0.8c-0.4,0.2-0.8,0.3-1.3,0.3c-0.8,0-1.4-0.2-1.8-0.7c-0.4-0.4-0.6-1.1-0.6-1.9v-4.7H106.7z"/>
				<path class="st61" d="M121.3,144.3v-4.5c0-1.1-0.5-1.7-1.5-1.7c-0.3,0-0.6,0.1-0.9,0.3c-0.3,0.2-0.4,0.4-0.5,0.6v5.3h-1.3v-5.1
					c0-0.4-0.1-0.6-0.4-0.8c-0.3-0.2-0.6-0.3-1-0.3c-0.3,0-0.5,0.1-0.8,0.3c-0.3,0.2-0.5,0.4-0.6,0.6v5.3H113v-7.1h0.8l0.4,0.8
					c0.5-0.6,1.1-1,1.8-1c1,0,1.7,0.3,2.1,1c0.1-0.3,0.4-0.5,0.8-0.7c0.4-0.2,0.8-0.3,1.2-0.3c0.7,0,1.3,0.2,1.7,0.7
					c0.4,0.4,0.6,1,0.6,1.8v4.8H121.3z"/>
			</g>
			<g>
				<polygon class="st61" points="89.7,150.3 89.6,150.3 88.9,148.6 88.1,150.3 88,150.3 87.1,147.7 87.6,147.7 88.1,149.4 
					88.8,147.7 88.9,147.7 89.6,149.4 90.2,147.7 90.6,147.7 				"/>
				<polygon class="st61" points="93.4,150.3 93.2,150.3 92.5,148.6 91.8,150.3 91.6,150.3 90.7,147.7 91.2,147.7 91.7,149.4 
					92.4,147.7 92.5,147.7 93.3,149.4 93.8,147.7 94.3,147.7 				"/>
				<polygon class="st61" points="97,150.3 96.9,150.3 96.1,148.6 95.4,150.3 95.3,150.3 94.4,147.7 94.8,147.7 95.4,149.4 
					96.1,147.7 96.2,147.7 96.9,149.4 97.5,147.7 97.9,147.7 				"/>
				<path class="st61" d="M98.8,149.6c0.1,0,0.2,0,0.3,0.1s0.1,0.2,0.1,0.3c0,0.1,0,0.2-0.1,0.3c-0.1,0.1-0.2,0.1-0.3,0.1
					s-0.2,0-0.3-0.1c-0.1-0.1-0.1-0.2-0.1-0.3c0-0.1,0-0.2,0.1-0.3C98.6,149.6,98.7,149.6,98.8,149.6z"/>
				<path class="st61" d="M100.6,146.7c0.1,0,0.1,0,0.2,0.1c0.1,0.1,0.1,0.1,0.1,0.2c0,0.1,0,0.1-0.1,0.2c-0.1,0.1-0.1,0.1-0.2,0.1
					c-0.1,0-0.1,0-0.2-0.1c-0.1-0.1-0.1-0.1-0.1-0.2s0-0.1,0.1-0.2C100.4,146.8,100.5,146.7,100.6,146.7z M100.3,150.3v-2.2H100
					v-0.4h0.8v2.6H100.3z"/>
				<path class="st61" d="M103.1,150.3v-1.5c0-0.3,0-0.5-0.1-0.6c-0.1-0.1-0.2-0.2-0.4-0.2c-0.1,0-0.2,0-0.3,0.1
					c-0.1,0.1-0.2,0.1-0.3,0.2v1.9h-0.5v-2.6h0.3l0.1,0.3c0.1-0.3,0.4-0.4,0.7-0.4c0.6,0,0.8,0.3,0.8,1v1.6H103.1z"/>
				<path class="st61" d="M104.1,151l0.2-0.4c0.3,0.2,0.5,0.3,0.7,0.3c0.2,0,0.4,0,0.5-0.1c0.1-0.1,0.2-0.2,0.2-0.3
					c0-0.2-0.1-0.3-0.4-0.3c-0.1,0-0.1,0-0.3,0s-0.2,0-0.3,0c-0.4,0-0.5-0.1-0.5-0.4c0-0.1,0-0.2,0.1-0.2c0.1-0.1,0.2-0.1,0.3-0.1
					c-0.4-0.2-0.5-0.5-0.5-0.9c0-0.3,0.1-0.5,0.3-0.7s0.4-0.3,0.7-0.3c0.3,0,0.4,0.1,0.6,0.2l0.2-0.3l0.3,0.3l-0.3,0.2
					c0.1,0.2,0.2,0.3,0.2,0.6c0,0.3-0.1,0.5-0.2,0.7c-0.2,0.2-0.4,0.3-0.6,0.3l-0.4,0c0,0-0.1,0-0.2,0.1c-0.1,0-0.1,0.1-0.1,0.1
					c0,0.1,0.1,0.1,0.2,0.1c0.1,0,0.2,0,0.3,0c0.1,0,0.3,0,0.3,0c0.3,0,0.4,0.1,0.6,0.2c0.1,0.1,0.2,0.3,0.2,0.5
					c0,0.2-0.1,0.4-0.3,0.6c-0.2,0.1-0.5,0.2-0.8,0.2c-0.2,0-0.3,0-0.5-0.1C104.3,151.1,104.2,151,104.1,151z M105,148
					c-0.2,0-0.3,0.1-0.4,0.2c-0.1,0.1-0.1,0.2-0.1,0.4c0,0.2,0,0.3,0.1,0.4c0.1,0.1,0.2,0.2,0.4,0.2c0.2,0,0.3-0.1,0.4-0.2
					c0.1-0.1,0.1-0.3,0.1-0.5c0-0.2,0-0.3-0.1-0.4C105.3,148.1,105.2,148,105,148z"/>
				<path class="st61" d="M108.8,149h-1.8c0,0.3,0.1,0.5,0.2,0.7c0.1,0.1,0.3,0.2,0.6,0.2c0.3,0,0.5-0.1,0.7-0.2l0.2,0.3
					c-0.1,0.1-0.2,0.1-0.3,0.2c-0.2,0.1-0.4,0.1-0.6,0.1c-0.3,0-0.6-0.1-0.8-0.3c-0.3-0.2-0.4-0.6-0.4-1c0-0.4,0.1-0.8,0.4-1
					c0.2-0.2,0.5-0.3,0.8-0.3c0.4,0,0.7,0.1,0.9,0.3c0.2,0.2,0.3,0.5,0.3,0.8C108.8,148.8,108.8,148.9,108.8,149z M107.7,148
					c-0.2,0-0.4,0.1-0.5,0.2c-0.1,0.1-0.2,0.3-0.2,0.5h1.4c0-0.2-0.1-0.3-0.2-0.5C108.1,148.1,107.9,148,107.7,148z"/>
				<path class="st61" d="M110.9,150.3v-1.5c0-0.3,0-0.5-0.1-0.6c-0.1-0.1-0.2-0.2-0.4-0.2c-0.1,0-0.2,0-0.3,0.1
					c-0.1,0.1-0.2,0.1-0.3,0.2v1.9h-0.5v-2.6h0.3l0.1,0.3c0.1-0.3,0.4-0.4,0.7-0.4c0.6,0,0.8,0.3,0.8,1v1.6H110.9z"/>
				<path class="st61" d="M112.4,146.7c0.1,0,0.1,0,0.2,0.1c0.1,0.1,0.1,0.1,0.1,0.2c0,0.1,0,0.1-0.1,0.2c-0.1,0.1-0.1,0.1-0.2,0.1
					c-0.1,0-0.1,0-0.2-0.1c-0.1-0.1-0.1-0.1-0.1-0.2s0-0.1,0.1-0.2C112.3,146.8,112.4,146.7,112.4,146.7z M112.2,150.3v-2.2h-0.4
					v-0.4h0.8v2.6H112.2z"/>
				<path class="st61" d="M113.8,147.7v1.6c0,0.4,0.2,0.6,0.5,0.6c0.1,0,0.3,0,0.4-0.1s0.2-0.2,0.2-0.3v-1.8h0.5v2.6H115v-0.4
					c-0.1,0.1-0.2,0.2-0.3,0.3c-0.2,0.1-0.3,0.1-0.4,0.1c-0.3,0-0.5-0.1-0.6-0.2c-0.1-0.2-0.2-0.4-0.2-0.7v-1.7H113.8z"/>
				<path class="st61" d="M119,150.3v-1.6c0-0.4-0.2-0.6-0.5-0.6c-0.1,0-0.2,0-0.3,0.1c-0.1,0.1-0.2,0.1-0.2,0.2v1.9h-0.5v-1.8
					c0-0.1,0-0.2-0.1-0.3c-0.1-0.1-0.2-0.1-0.4-0.1c-0.1,0-0.2,0-0.3,0.1c-0.1,0.1-0.2,0.1-0.2,0.2v1.9H116v-2.6h0.3l0.2,0.3
					c0.2-0.2,0.4-0.3,0.7-0.3c0.4,0,0.6,0.1,0.8,0.3c0.1-0.1,0.1-0.2,0.3-0.2c0.1-0.1,0.3-0.1,0.4-0.1c0.3,0,0.5,0.1,0.6,0.2
					c0.1,0.2,0.2,0.4,0.2,0.7v1.7H119z"/>
				<path class="st61" d="M119.9,150.1l0.2-0.4c0.3,0.2,0.5,0.2,0.6,0.2c0.3,0,0.4-0.1,0.4-0.4c0-0.2-0.1-0.3-0.4-0.4
					c-0.2-0.1-0.3-0.2-0.4-0.2c-0.1,0-0.1-0.1-0.2-0.2c-0.1-0.1-0.1-0.1-0.1-0.2c0-0.1,0-0.1,0-0.2c0-0.2,0.1-0.4,0.2-0.5
					c0.2-0.1,0.4-0.2,0.6-0.2c0.2,0,0.4,0.1,0.7,0.2l-0.1,0.4c-0.2-0.1-0.4-0.2-0.5-0.2c-0.1,0-0.2,0-0.3,0.1
					c-0.1,0.1-0.1,0.1-0.1,0.2c0,0.2,0.1,0.3,0.3,0.4l0.3,0.1c0.2,0.1,0.3,0.2,0.4,0.3c0.1,0.1,0.1,0.3,0.1,0.4
					c0,0.2-0.1,0.4-0.2,0.5c-0.2,0.1-0.4,0.2-0.7,0.2C120.4,150.3,120.2,150.2,119.9,150.1z"/>
				<path class="st61" d="M122.1,149.5v-2.9h0.5v2.8c0,0.1,0,0.2,0.1,0.3c0.1,0.1,0.2,0.1,0.3,0.1v0.4
					C122.4,150.3,122.1,150.1,122.1,149.5z"/>
				<path class="st61" d="M124.1,149.6c0.1,0,0.2,0,0.3,0.1c0.1,0.1,0.1,0.2,0.1,0.3c0,0.1,0,0.2-0.1,0.3c-0.1,0.1-0.2,0.1-0.3,0.1
					c-0.1,0-0.2,0-0.3-0.1c-0.1-0.1-0.1-0.2-0.1-0.3c0-0.1,0-0.2,0.1-0.3S124,149.6,124.1,149.6z"/>
				<path class="st61" d="M127.3,147.9l-0.2,0.3c0,0-0.1-0.1-0.2-0.1c-0.1,0-0.2-0.1-0.3-0.1c-0.2,0-0.4,0.1-0.6,0.3
					c-0.1,0.2-0.2,0.4-0.2,0.7c0,0.3,0.1,0.5,0.2,0.7c0.1,0.2,0.4,0.2,0.6,0.2c0.2,0,0.4-0.1,0.6-0.2l0.2,0.4
					c-0.2,0.2-0.5,0.2-0.9,0.2c-0.3,0-0.6-0.1-0.9-0.4s-0.3-0.6-0.3-1c0-0.4,0.1-0.7,0.4-1c0.2-0.2,0.6-0.4,1-0.4
					c0.1,0,0.3,0,0.4,0.1C127.1,147.8,127.2,147.8,127.3,147.9z"/>
				<path class="st61" d="M127.6,149c0-0.4,0.1-0.7,0.3-1c0.2-0.2,0.5-0.4,0.8-0.4c0.4,0,0.7,0.1,0.9,0.4c0.2,0.2,0.3,0.6,0.3,1
					c0,0.4-0.1,0.7-0.3,1c-0.2,0.2-0.5,0.4-0.8,0.4c-0.4,0-0.6-0.1-0.9-0.4C127.7,149.7,127.6,149.4,127.6,149z M128.1,149
					c0,0.6,0.2,1,0.7,1c0.2,0,0.4-0.1,0.5-0.3c0.1-0.2,0.2-0.4,0.2-0.7c0-0.6-0.2-1-0.7-1c-0.2,0-0.4,0.1-0.5,0.3
					C128.1,148.4,128.1,148.7,128.1,149z"/>
				<path class="st61" d="M133.3,150.3v-1.6c0-0.4-0.2-0.6-0.5-0.6c-0.1,0-0.2,0-0.3,0.1c-0.1,0.1-0.2,0.1-0.2,0.2v1.9h-0.5v-1.8
					c0-0.1,0-0.2-0.1-0.3c-0.1-0.1-0.2-0.1-0.4-0.1c-0.1,0-0.2,0-0.3,0.1c-0.1,0.1-0.2,0.1-0.2,0.2v1.9h-0.5v-2.6h0.3l0.2,0.3
					c0.2-0.2,0.4-0.3,0.7-0.3c0.4,0,0.6,0.1,0.8,0.3c0.1-0.1,0.1-0.2,0.3-0.2c0.1-0.1,0.3-0.1,0.4-0.1c0.3,0,0.5,0.1,0.6,0.2
					c0.1,0.2,0.2,0.4,0.2,0.7v1.7H133.3z"/>
			</g>
			<path class="st64" d="M92.8,111.5l6.8,6.8h6.1l8.5-8.5l5.4,5.4l-17,17l-17-17l3.7-3.7c-0.2-0.3-0.2-0.6-0.2-0.9c0-1.1,0.9-2,2-2
				c1.1,0,2,0.9,2,2C93,110.9,92.9,111.2,92.8,111.5z M90.1,112.3l-2.9,2.9l15.4,15.4l15.4-15.4l-3.8-3.8l-8.1,8.1h-7l-7.1-7.1
				c-0.3,0.2-0.6,0.3-1,0.3C90.7,112.6,90.4,112.5,90.1,112.3z M99.6,102.6c0.2,0.3,0.3,0.6,0.3,1c0,0.4-0.1,0.8-0.3,1.1l2.9,2.9
				l3.9-3.9l-3.9-4.2L99.6,102.6z M96,103.7c0-1.1,0.9-2,2-2c0.3,0,0.6,0.1,0.9,0.2l3.7-3.9l5.5,5.8l-5.5,5.5l-3.8-3.8
				c-0.2,0.1-0.5,0.1-0.7,0.1C96.8,105.6,96,104.8,96,103.7z M92.5,107.1c0-1.1,0.9-2,2-2s2,0.9,2,2c0,0.4-0.1,0.8-0.3,1.1l5.1,5.1
				h2.7l6.5-6.5l0.8,0.8l-6.8,6.8h-3.6l-5.5-5.5c-0.2,0.1-0.5,0.2-0.8,0.2C93.4,109.1,92.5,108.2,92.5,107.1z"/>
		</g>
		<g>
			<polygon class="st62" points="84.9,91.9 83.4,91.9 83.4,92.6 84.8,92.6 84.8,93.3 83.4,93.3 83.4,94.8 82.6,94.8 82.6,91.2 
				84.9,91.2 			"/>
			<path class="st62" d="M86.9,94.1v-0.6c-0.1,0-0.2,0-0.3,0c-0.1,0-0.2,0-0.3,0.1c-0.1,0-0.1,0.1-0.2,0.1c0,0.1-0.1,0.1-0.1,0.2
				c0,0.1,0,0.1,0,0.1s0,0.1,0.1,0.1c0,0,0.1,0.1,0.1,0.1c0,0,0.1,0,0.2,0c0.1,0,0.2,0,0.2-0.1C86.8,94.2,86.9,94.2,86.9,94.1z
				 M86.9,94.5c0,0-0.1,0.1-0.2,0.1s-0.1,0.1-0.2,0.1c-0.1,0-0.2,0.1-0.2,0.1c-0.1,0-0.2,0-0.3,0c-0.2,0-0.4-0.1-0.6-0.2
				s-0.2-0.4-0.2-0.6c0-0.2,0-0.4,0.1-0.5s0.2-0.2,0.3-0.3c0.1-0.1,0.3-0.1,0.5-0.2s0.4-0.1,0.7-0.1v0c0-0.2-0.1-0.3-0.2-0.3
				c-0.1-0.1-0.3-0.1-0.5-0.1c-0.1,0-0.3,0-0.4,0.1c-0.1,0.1-0.3,0.1-0.3,0.1h-0.1v-0.7c0.1,0,0.2-0.1,0.4-0.1
				c0.2,0,0.4-0.1,0.6-0.1c0.4,0,0.8,0.1,1,0.2c0.2,0.2,0.3,0.4,0.3,0.7v1.9h-0.8V94.5z"/>
			<path class="st62" d="M90.9,94.8h-0.8v-1.4c0-0.1,0-0.2,0-0.3c0-0.1,0-0.2-0.1-0.2c0-0.1-0.1-0.1-0.1-0.1c-0.1,0-0.1,0-0.2,0
				c-0.1,0-0.1,0-0.2,0c-0.1,0-0.2,0.1-0.2,0.1v1.9h-0.8v-2.7h0.8v0.3c0.1-0.1,0.3-0.2,0.4-0.3c0.1-0.1,0.3-0.1,0.4-0.1
				c0.3,0,0.5,0.1,0.6,0.3c0.2,0.2,0.2,0.4,0.2,0.8V94.8z"/>
			<path class="st62" d="M92.9,94.9c-0.2,0-0.4,0-0.6-0.1c-0.2-0.1-0.3-0.1-0.5-0.3c-0.1-0.1-0.2-0.3-0.3-0.4
				c-0.1-0.2-0.1-0.4-0.1-0.6c0-0.3,0-0.5,0.1-0.7c0.1-0.2,0.2-0.3,0.3-0.5c0.1-0.1,0.3-0.2,0.5-0.3c0.2-0.1,0.4-0.1,0.5-0.1
				c0.2,0,0.3,0,0.5,0.1c0.1,0,0.3,0.1,0.4,0.2V93h-0.1c0,0-0.1-0.1-0.1-0.1c0,0-0.1-0.1-0.2-0.1c-0.1,0-0.1-0.1-0.2-0.1
				c-0.1,0-0.2,0-0.3,0c-0.2,0-0.4,0.1-0.5,0.2c-0.1,0.1-0.2,0.4-0.2,0.6c0,0.3,0.1,0.5,0.2,0.6c0.1,0.1,0.3,0.2,0.5,0.2
				c0.1,0,0.2,0,0.3,0c0.1,0,0.1-0.1,0.2-0.1c0,0,0.1-0.1,0.1-0.1c0,0,0.1-0.1,0.1-0.1h0.1v0.7c-0.1,0.1-0.3,0.1-0.4,0.2
				C93.3,94.9,93.1,94.9,92.9,94.9z"/>
			<path class="st62" d="M96.8,93.5c0,0.5-0.1,0.8-0.4,1.1c-0.2,0.3-0.6,0.4-1,0.4c-0.4,0-0.8-0.1-1-0.4c-0.2-0.3-0.4-0.6-0.4-1.1
				c0-0.5,0.1-0.8,0.4-1.1c0.2-0.3,0.6-0.4,1-0.4c0.4,0,0.8,0.1,1,0.4C96.7,92.6,96.8,93,96.8,93.5z M95.9,94.1
				c0.1-0.1,0.1-0.2,0.1-0.3c0-0.1,0-0.2,0-0.4c0-0.2,0-0.3,0-0.4c0-0.1-0.1-0.2-0.1-0.3c0-0.1-0.1-0.1-0.2-0.1s-0.1,0-0.2,0
				c-0.1,0-0.1,0-0.2,0c-0.1,0-0.1,0.1-0.2,0.1c0,0.1-0.1,0.2-0.1,0.3c0,0.1,0,0.2,0,0.4c0,0.2,0,0.3,0,0.4c0,0.1,0.1,0.2,0.1,0.3
				c0,0.1,0.1,0.1,0.2,0.1c0.1,0,0.1,0,0.2,0c0.1,0,0.1,0,0.2,0C95.8,94.2,95.8,94.2,95.9,94.1z"/>
			<path class="st62" d="M98.2,94.8h-0.8v-2.7h0.8V94.8z M98.2,91.7h-0.8V91h0.8V91.7z"/>
			<rect x="98.9" y="91" class="st62" width="0.8" height="3.8"/>
		</g>
		<g>
			<polygon class="st62" points="139.5,94.8 137.1,94.8 137.1,91.2 139.5,91.2 139.5,91.9 138,91.9 138,92.5 139.4,92.5 139.4,93.2 
				138,93.2 138,94.1 139.5,94.1 			"/>
			<rect x="140.2" y="91" class="st62" width="0.8" height="3.8"/>
			<path class="st62" d="M144.1,93.6h-1.8c0,0.2,0.1,0.4,0.2,0.5c0.1,0.1,0.3,0.2,0.6,0.2c0.2,0,0.3,0,0.5-0.1s0.3-0.1,0.4-0.2h0.1
				v0.7c-0.2,0.1-0.3,0.1-0.5,0.2s-0.3,0.1-0.5,0.1c-0.5,0-0.9-0.1-1.1-0.4s-0.4-0.6-0.4-1.1c0-0.5,0.1-0.8,0.4-1.1
				c0.3-0.3,0.6-0.4,1-0.4c0.4,0,0.7,0.1,0.9,0.3c0.2,0.2,0.3,0.5,0.3,1V93.6z M143.4,93.1c0-0.2,0-0.3-0.1-0.4s-0.2-0.1-0.4-0.1
				c-0.2,0-0.3,0-0.4,0.1s-0.2,0.2-0.2,0.4H143.4z"/>
			<path class="st62" d="M146,94.9c-0.2,0-0.4,0-0.6-0.1c-0.2-0.1-0.3-0.1-0.5-0.3c-0.1-0.1-0.2-0.3-0.3-0.4
				c-0.1-0.2-0.1-0.4-0.1-0.6c0-0.3,0-0.5,0.1-0.7c0.1-0.2,0.2-0.3,0.3-0.5c0.1-0.1,0.3-0.2,0.5-0.3c0.2-0.1,0.4-0.1,0.5-0.1
				c0.2,0,0.3,0,0.5,0.1c0.1,0,0.3,0.1,0.4,0.2V93h-0.1c0,0-0.1-0.1-0.1-0.1c0,0-0.1-0.1-0.2-0.1c-0.1,0-0.1-0.1-0.2-0.1
				c-0.1,0-0.2,0-0.3,0c-0.2,0-0.4,0.1-0.5,0.2c-0.1,0.1-0.2,0.4-0.2,0.6c0,0.3,0.1,0.5,0.2,0.6c0.1,0.1,0.3,0.2,0.5,0.2
				c0.1,0,0.2,0,0.3,0c0.1,0,0.1-0.1,0.2-0.1c0,0,0.1-0.1,0.1-0.1c0,0,0.1-0.1,0.1-0.1h0.1v0.7c-0.1,0.1-0.3,0.1-0.4,0.2
				C146.3,94.9,146.2,94.9,146,94.9z"/>
			<path class="st62" d="M148.9,94.8c-0.1,0-0.2,0-0.3,0.1c-0.1,0-0.2,0-0.3,0c-0.3,0-0.5-0.1-0.7-0.2c-0.1-0.1-0.2-0.4-0.2-0.7
				v-1.3h-0.3v-0.6h0.3v-0.8h0.8v0.8h0.7v0.6h-0.7v1c0,0.1,0,0.2,0,0.3s0,0.1,0,0.2c0,0.1,0.1,0.1,0.1,0.1c0.1,0,0.1,0,0.2,0
				c0,0,0.1,0,0.2,0c0.1,0,0.1,0,0.1-0.1h0.1V94.8z"/>
			<path class="st62" d="M151.2,92.9L151.2,92.9c-0.1,0-0.2,0-0.2,0s-0.1,0-0.2,0c-0.1,0-0.2,0-0.3,0s-0.2,0-0.3,0.1v1.8h-0.8v-2.7
				h0.8v0.4c0.2-0.2,0.3-0.3,0.5-0.3c0.1-0.1,0.2-0.1,0.4-0.1c0,0,0.1,0,0.1,0s0.1,0,0.1,0V92.9z"/>
			<path class="st62" d="M154.2,93.5c0,0.5-0.1,0.8-0.4,1.1c-0.2,0.3-0.6,0.4-1,0.4s-0.8-0.1-1-0.4c-0.2-0.3-0.4-0.6-0.4-1.1
				c0-0.5,0.1-0.8,0.4-1.1c0.2-0.3,0.6-0.4,1-0.4c0.4,0,0.8,0.1,1,0.4C154,92.6,154.2,93,154.2,93.5z M153.2,94.1
				c0.1-0.1,0.1-0.2,0.1-0.3c0-0.1,0-0.2,0-0.4c0-0.2,0-0.3,0-0.4c0-0.1-0.1-0.2-0.1-0.3c0-0.1-0.1-0.1-0.2-0.1s-0.1,0-0.2,0
				c-0.1,0-0.1,0-0.2,0c-0.1,0-0.1,0.1-0.2,0.1c0,0.1-0.1,0.2-0.1,0.3c0,0.1,0,0.2,0,0.4c0,0.2,0,0.3,0,0.4c0,0.1,0.1,0.2,0.1,0.3
				c0,0.1,0.1,0.1,0.2,0.1c0.1,0,0.1,0,0.2,0c0.1,0,0.1,0,0.2,0C153.1,94.2,153.1,94.2,153.2,94.1z"/>
			<polygon class="st62" points="157.2,92.1 156.3,94.8 155.4,94.8 154.4,92.1 155.3,92.1 155.8,94 156.4,92.1 			"/>
			<path class="st62" d="M159.1,94.1v-0.6c-0.1,0-0.2,0-0.3,0c-0.1,0-0.2,0-0.3,0.1c-0.1,0-0.1,0.1-0.2,0.1c0,0.1-0.1,0.1-0.1,0.2
				c0,0.1,0,0.1,0,0.1s0,0.1,0.1,0.1c0,0,0.1,0.1,0.1,0.1c0,0,0.1,0,0.2,0c0.1,0,0.2,0,0.2-0.1C159,94.2,159.1,94.2,159.1,94.1z
				 M159.1,94.5c0,0-0.1,0.1-0.2,0.1s-0.1,0.1-0.2,0.1c-0.1,0-0.2,0.1-0.2,0.1c-0.1,0-0.2,0-0.3,0c-0.2,0-0.4-0.1-0.6-0.2
				s-0.2-0.4-0.2-0.6c0-0.2,0-0.4,0.1-0.5s0.2-0.2,0.3-0.3c0.1-0.1,0.3-0.1,0.5-0.2s0.4-0.1,0.7-0.1v0c0-0.2-0.1-0.3-0.2-0.3
				c-0.1-0.1-0.3-0.1-0.5-0.1c-0.1,0-0.3,0-0.4,0.1c-0.1,0.1-0.3,0.1-0.3,0.1h-0.1v-0.7c0.1,0,0.2-0.1,0.4-0.1
				c0.2,0,0.4-0.1,0.6-0.1c0.4,0,0.8,0.1,1,0.2c0.2,0.2,0.3,0.4,0.3,0.7v1.9h-0.8V94.5z M159.6,90.7L159.6,90.7l-0.8,1h-0.5l0.5-1
				H159.6z"/>
			<rect x="160.7" y="91" class="st62" width="0.8" height="3.8"/>
			<polygon class="st62" points="164.7,92.1 163.7,94.8 162.8,94.8 161.9,92.1 162.7,92.1 163.3,94 163.9,92.1 			"/>
			<path class="st62" d="M167.6,94.8h-0.8v-0.3c-0.1,0.1-0.3,0.2-0.4,0.3c-0.1,0.1-0.3,0.1-0.4,0.1c-0.3,0-0.5-0.1-0.6-0.3
				c-0.1-0.2-0.2-0.4-0.2-0.8v-1.8h0.8v1.4c0,0.1,0,0.3,0,0.3c0,0.1,0,0.2,0.1,0.2c0,0.1,0.1,0.1,0.1,0.1c0.1,0,0.1,0,0.2,0
				c0.1,0,0.1,0,0.2,0c0.1,0,0.2-0.1,0.2-0.1v-1.9h0.8V94.8z"/>
			<rect x="168.3" y="91" class="st62" width="0.8" height="3.8"/>
			<path class="st62" d="M171.4,94.1v-0.6c-0.1,0-0.2,0-0.3,0c-0.1,0-0.2,0-0.3,0.1c-0.1,0-0.1,0.1-0.2,0.1c0,0.1-0.1,0.1-0.1,0.2
				c0,0.1,0,0.1,0,0.1s0,0.1,0.1,0.1c0,0,0.1,0.1,0.1,0.1c0,0,0.1,0,0.2,0c0.1,0,0.2,0,0.2-0.1C171.2,94.2,171.3,94.2,171.4,94.1z
				 M171.4,94.5c0,0-0.1,0.1-0.2,0.1s-0.1,0.1-0.2,0.1c-0.1,0-0.2,0.1-0.2,0.1c-0.1,0-0.2,0-0.3,0c-0.2,0-0.4-0.1-0.6-0.2
				s-0.2-0.4-0.2-0.6c0-0.2,0-0.4,0.1-0.5s0.2-0.2,0.3-0.3c0.1-0.1,0.3-0.1,0.5-0.2s0.4-0.1,0.7-0.1v0c0-0.2-0.1-0.3-0.2-0.3
				c-0.1-0.1-0.3-0.1-0.5-0.1c-0.1,0-0.3,0-0.4,0.1c-0.1,0.1-0.3,0.1-0.3,0.1h-0.1v-0.7c0.1,0,0.2-0.1,0.4-0.1
				c0.2,0,0.4-0.1,0.6-0.1c0.4,0,0.8,0.1,1,0.2c0.2,0.2,0.3,0.4,0.3,0.7v1.9h-0.8V94.5z"/>
			<path class="st62" d="M175,94c0,0.3-0.1,0.5-0.3,0.7c-0.2,0.2-0.5,0.3-0.9,0.3c-0.2,0-0.4,0-0.6-0.1c-0.2,0-0.3-0.1-0.4-0.2V94
				h0.1c0,0,0.1,0.1,0.1,0.1c0.1,0,0.1,0.1,0.2,0.1c0.1,0,0.2,0.1,0.3,0.1c0.1,0,0.2,0,0.3,0c0.2,0,0.3,0,0.3-0.1
				c0.1,0,0.1-0.1,0.1-0.2c0-0.1,0-0.1-0.1-0.1s-0.1-0.1-0.3-0.1c-0.1,0-0.1,0-0.2,0c-0.1,0-0.2,0-0.3-0.1c-0.2-0.1-0.4-0.2-0.5-0.3
				c-0.1-0.1-0.2-0.3-0.2-0.5c0-0.3,0.1-0.5,0.3-0.7c0.2-0.2,0.5-0.3,0.9-0.3c0.2,0,0.4,0,0.5,0.1c0.2,0,0.3,0.1,0.4,0.1v0.7h-0.1
				c-0.1-0.1-0.3-0.2-0.4-0.2c-0.1-0.1-0.3-0.1-0.5-0.1c-0.1,0-0.2,0-0.3,0.1c-0.1,0-0.1,0.1-0.1,0.2c0,0.1,0,0.1,0.1,0.1
				s0.1,0.1,0.3,0.1c0.1,0,0.2,0,0.3,0.1c0.1,0,0.2,0,0.3,0.1c0.2,0.1,0.4,0.2,0.5,0.3C175,93.6,175,93.8,175,94z"/>
		</g>
		<g>
			<polygon class="st62" points="83.8,73.9 82.2,78.2 81,78.2 79.4,73.9 80.6,73.9 81.6,76.9 82.7,73.9 			"/>
			<path class="st62" d="M87.4,76.2c0.1,0.1,0.2,0.2,0.2,0.3s0.1,0.3,0.1,0.4c0,0.2,0,0.4-0.1,0.6c-0.1,0.2-0.2,0.3-0.4,0.5
				c-0.2,0.1-0.4,0.2-0.6,0.3c-0.2,0.1-0.5,0.1-0.8,0.1c-0.4,0-0.7,0-0.9-0.1c-0.3-0.1-0.5-0.1-0.6-0.2v-1h0.1
				c0.2,0.1,0.4,0.2,0.6,0.3c0.2,0.1,0.4,0.1,0.6,0.1c0.1,0,0.2,0,0.4,0c0.1,0,0.2-0.1,0.3-0.1c0.1,0,0.1-0.1,0.2-0.2
				c0-0.1,0.1-0.2,0.1-0.3c0-0.1,0-0.2-0.1-0.3c-0.1-0.1-0.1-0.1-0.2-0.1c-0.1,0-0.2,0-0.3,0c-0.1,0-0.3,0-0.4,0h-0.2v-0.8h0.2
				c0.2,0,0.3,0,0.4,0s0.2,0,0.3-0.1c0.1,0,0.2-0.1,0.2-0.1c0-0.1,0.1-0.2,0.1-0.3c0-0.1,0-0.2-0.1-0.2c0-0.1-0.1-0.1-0.2-0.1
				c-0.1,0-0.2-0.1-0.3-0.1s-0.2,0-0.3,0c-0.2,0-0.4,0-0.6,0.1c-0.2,0.1-0.4,0.2-0.6,0.3h-0.1v-0.9c0.2-0.1,0.4-0.1,0.7-0.2
				c0.3-0.1,0.6-0.1,0.8-0.1c0.3,0,0.5,0,0.7,0.1c0.2,0,0.4,0.1,0.5,0.2c0.2,0.1,0.3,0.2,0.4,0.3s0.1,0.3,0.1,0.5
				c0,0.2-0.1,0.5-0.2,0.7c-0.2,0.2-0.3,0.3-0.6,0.4v0c0.1,0,0.2,0,0.3,0.1S87.3,76.1,87.4,76.2z"/>
		</g>
		<g>
			<polygon class="st62" points="98.4,73.9 96.8,78.2 95.5,78.2 94,73.9 95.1,73.9 96.2,76.9 97.2,73.9 			"/>
			<path class="st62" d="M102.4,78.2H99v-0.7c0.3-0.2,0.5-0.4,0.8-0.6c0.3-0.2,0.5-0.4,0.6-0.6c0.2-0.2,0.4-0.4,0.5-0.6
				s0.1-0.3,0.1-0.5c0-0.2-0.1-0.4-0.2-0.5c-0.1-0.1-0.3-0.2-0.6-0.2c-0.2,0-0.4,0-0.6,0.1c-0.2,0.1-0.4,0.2-0.6,0.3h-0.1v-1
				c0.1-0.1,0.3-0.1,0.6-0.2c0.3-0.1,0.5-0.1,0.8-0.1c0.5,0,1,0.1,1.3,0.3c0.3,0.2,0.4,0.6,0.4,1c0,0.3-0.1,0.5-0.2,0.8
				c-0.1,0.2-0.3,0.5-0.6,0.8c-0.2,0.2-0.4,0.3-0.5,0.5c-0.2,0.1-0.3,0.2-0.4,0.3h2V78.2z"/>
		</g>
		<g>
			<polygon class="st62" points="113,73.9 111.4,78.2 110.1,78.2 108.5,73.9 109.7,73.9 110.8,76.9 111.8,73.9 			"/>
			<path class="st62" d="M116.7,78.2h-2.9v-0.8h0.9v-2.3h-0.9v-0.7c0.1,0,0.3,0,0.4,0c0.1,0,0.2,0,0.3-0.1c0.1,0,0.2-0.1,0.2-0.2
				c0.1-0.1,0.1-0.2,0.1-0.3h1v3.6h0.9V78.2z"/>
		</g>
		<polygon class="st62" points="71.4,73.9 69.8,78.2 68.5,78.2 66.9,73.9 68.1,73.9 69.2,76.9 70.2,73.9 		"/>
		<g>
			<polygon class="st62" points="126.8,78.2 123.7,78.2 123.7,73.9 126.8,73.9 126.8,74.7 124.8,74.7 124.8,75.5 126.7,75.5 
				126.7,76.3 124.8,76.3 124.8,77.4 126.8,77.4 			"/>
			<polygon class="st62" points="131.7,73.9 130.1,78.2 128.9,78.2 127.3,73.9 128.5,73.9 129.5,76.9 130.6,73.9 			"/>
		</g>
		<g>
			<polygon class="st62" points="175.5,78.2 172.3,78.2 172.3,73.9 175.5,73.9 175.5,74.7 173.5,74.7 173.5,75.5 175.4,75.5 
				175.4,76.3 173.5,76.3 173.5,77.4 175.5,77.4 			"/>
			<polygon class="st62" points="180.4,73.9 178.8,78.2 177.5,78.2 176,73.9 177.1,73.9 178.2,76.9 179.2,73.9 			"/>
			<path class="st62" d="M184.4,78.2H181v-0.7c0.3-0.2,0.5-0.4,0.8-0.6c0.3-0.2,0.5-0.4,0.6-0.6c0.2-0.2,0.4-0.4,0.5-0.6
				s0.1-0.3,0.1-0.5c0-0.2-0.1-0.4-0.2-0.5c-0.1-0.1-0.3-0.2-0.6-0.2c-0.2,0-0.4,0-0.6,0.1c-0.2,0.1-0.4,0.2-0.6,0.3h-0.1v-1
				c0.1-0.1,0.3-0.1,0.6-0.2c0.3-0.1,0.5-0.1,0.8-0.1c0.5,0,1,0.1,1.3,0.3c0.3,0.2,0.4,0.6,0.4,1c0,0.3-0.1,0.5-0.2,0.8
				c-0.1,0.2-0.3,0.5-0.6,0.8c-0.2,0.2-0.4,0.3-0.5,0.5c-0.2,0.1-0.3,0.2-0.4,0.3h2V78.2z"/>
		</g>
		<g>
			<polygon class="st62" points="146.6,78.2 143.4,78.2 143.4,73.9 146.6,73.9 146.6,74.7 144.5,74.7 144.5,75.5 146.4,75.5 
				146.4,76.3 144.5,76.3 144.5,77.4 146.6,77.4 			"/>
			<polygon class="st62" points="151.5,73.9 149.9,78.2 148.6,78.2 147,73.9 148.2,73.9 149.2,76.9 150.3,73.9 			"/>
			<path class="st62" d="M155.2,78.2h-2.9v-0.8h0.9v-2.3h-0.9v-0.7c0.1,0,0.3,0,0.4,0c0.1,0,0.2,0,0.3-0.1c0.1,0,0.2-0.1,0.2-0.2
				c0.1-0.1,0.1-0.2,0.1-0.3h1v3.6h0.9V78.2z"/>
		</g>
		<polygon class="st65" points="144.2,81.8 144.2,83.8 139.9,83.8 139.9,81.8 137.2,81.8 142,79.4 146.9,81.8 		"/>
		<polygon class="st65" points="158.7,81.8 158.7,83.8 154.5,83.8 154.5,81.8 151.8,81.8 156.6,79.4 161.4,81.8 		"/>
		<polygon class="st65" points="173.3,81.8 173.3,83.8 169.1,83.8 169.1,81.8 166.4,81.8 171.2,79.4 176,81.8 		"/>
		<polygon class="st65" points="187.9,81.8 187.9,83.8 183.7,83.8 183.7,81.8 181,81.8 185.8,79.4 190.6,81.8 		"/>
		<polygon class="st65" points="85.8,81.8 85.8,83.8 81.6,83.8 81.6,81.8 78.9,81.8 83.7,79.4 88.6,81.8 		"/>
		<polygon class="st65" points="100.4,81.8 100.4,83.8 96.2,83.8 96.2,81.8 93.5,81.8 98.3,79.4 103.1,81.8 		"/>
		<polygon class="st65" points="115,81.8 115,83.8 110.8,83.8 110.8,81.8 108.1,81.8 112.9,79.4 117.7,81.8 		"/>
		<polygon class="st65" points="125.4,81.4 125.4,79.4 129.6,79.4 129.6,81.4 132.3,81.4 127.5,83.8 122.6,81.4 		"/>
		<polygon class="st65" points="67,81.4 67,79.4 71.3,79.4 71.3,81.4 74,81.4 69.2,83.8 64.3,81.4 		"/>
		<polyline class="st66" points="62.1,70.5 62.1,93.4 81,93.4 		"/>
		<line class="st66" x1="120.2" y1="70.5" x2="120.2" y2="93.4"/>
		<line class="st66" x1="101.4" y1="93.4" x2="135.2" y2="93.4"/>
		<line class="st66" x1="191.6" y1="93.4" x2="176.8" y2="93.4"/>
		<line class="st66" x1="76.4" y1="70.8" x2="76.4" y2="84.1"/>
		<line class="st66" x1="135" y1="70.8" x2="135" y2="84.1"/>
		<g>
			<polygon class="st62" points="141.8,88.7 140.9,88.7 139.3,86.2 139.3,88.7 138.5,88.7 138.5,85.1 139.6,85.1 140.9,87.2 
				140.9,85.1 141.8,85.1 			"/>
			<path class="st62" d="M146,88.7h-1l-0.3-0.7h-1.3l-0.3,0.7h-0.9l1.3-3.6h1.1L146,88.7z M144.6,87.3l-0.4-1.3l-0.4,1.3H144.6z"/>
		</g>
		<g>
			<polygon class="st62" points="156.5,88.9 155.6,88.9 154,86.4 154,88.9 153.2,88.9 153.2,85.3 154.3,85.3 155.6,87.4 155.6,85.3 
				156.5,85.3 			"/>
			<path class="st62" d="M159,89c-0.3,0-0.5,0-0.7-0.1c-0.2-0.1-0.4-0.2-0.6-0.4c-0.2-0.2-0.3-0.4-0.4-0.6c-0.1-0.2-0.1-0.5-0.1-0.8
				c0-0.3,0-0.5,0.1-0.8c0.1-0.2,0.2-0.4,0.4-0.6c0.2-0.2,0.4-0.3,0.6-0.4c0.2-0.1,0.5-0.1,0.8-0.1c0.2,0,0.3,0,0.4,0
				c0.1,0,0.2,0,0.3,0.1c0.1,0,0.2,0.1,0.3,0.1c0.1,0,0.2,0.1,0.2,0.1v0.9h-0.1c0,0-0.1-0.1-0.2-0.1c-0.1-0.1-0.1-0.1-0.2-0.2
				c-0.1-0.1-0.2-0.1-0.3-0.1c-0.1,0-0.2-0.1-0.3-0.1c-0.1,0-0.3,0-0.4,0.1c-0.1,0-0.2,0.1-0.3,0.2c-0.1,0.1-0.2,0.2-0.2,0.4
				c-0.1,0.2-0.1,0.3-0.1,0.6c0,0.2,0,0.4,0.1,0.6c0.1,0.2,0.1,0.3,0.2,0.4c0.1,0.1,0.2,0.2,0.3,0.2c0.1,0,0.2,0.1,0.4,0.1
				c0.1,0,0.2,0,0.3-0.1c0.1,0,0.2-0.1,0.3-0.1c0.1,0,0.2-0.1,0.2-0.2c0.1-0.1,0.1-0.1,0.2-0.1h0.1v0.9c-0.1,0-0.2,0.1-0.3,0.1
				c-0.1,0-0.2,0.1-0.3,0.1c-0.1,0-0.2,0.1-0.3,0.1C159.4,89,159.2,89,159,89z"/>
		</g>
		<g>
			<polygon class="st62" points="185.6,88.9 184.7,88.9 183.2,86.4 183.2,88.9 182.3,88.9 182.3,85.3 183.4,85.3 184.8,87.4 
				184.8,85.3 185.6,85.3 			"/>
			<path class="st62" d="M188.2,89c-0.3,0-0.5,0-0.7-0.1c-0.2-0.1-0.4-0.2-0.6-0.4c-0.2-0.2-0.3-0.4-0.4-0.6
				c-0.1-0.2-0.1-0.5-0.1-0.8c0-0.3,0-0.5,0.1-0.8s0.2-0.4,0.4-0.6c0.2-0.2,0.4-0.3,0.6-0.4c0.2-0.1,0.5-0.1,0.8-0.1
				c0.2,0,0.3,0,0.4,0c0.1,0,0.2,0,0.3,0.1c0.1,0,0.2,0.1,0.3,0.1c0.1,0,0.2,0.1,0.2,0.1v0.9h-0.1c0,0-0.1-0.1-0.2-0.1
				c-0.1-0.1-0.1-0.1-0.2-0.2c-0.1-0.1-0.2-0.1-0.3-0.1s-0.2-0.1-0.3-0.1c-0.1,0-0.3,0-0.4,0.1c-0.1,0-0.2,0.1-0.3,0.2
				c-0.1,0.1-0.2,0.2-0.2,0.4c-0.1,0.2-0.1,0.3-0.1,0.6c0,0.2,0,0.4,0.1,0.6c0.1,0.2,0.1,0.3,0.2,0.4c0.1,0.1,0.2,0.2,0.3,0.2
				c0.1,0,0.2,0.1,0.4,0.1c0.1,0,0.2,0,0.3-0.1c0.1,0,0.2-0.1,0.3-0.1c0.1,0,0.2-0.1,0.2-0.2s0.1-0.1,0.2-0.1h0.1v0.9
				c-0.1,0-0.2,0.1-0.3,0.1c-0.1,0-0.2,0.1-0.3,0.1c-0.1,0-0.2,0.1-0.3,0.1C188.5,89,188.4,89,188.2,89z"/>
		</g>
		<g>
			<polygon class="st62" points="170.9,88.9 170,88.9 168.5,86.4 168.5,88.9 167.6,88.9 167.6,85.3 168.7,85.3 170.1,87.4 
				170.1,85.3 170.9,85.3 			"/>
			<path class="st62" d="M175.2,88.9h-1l-0.3-0.7h-1.3l-0.3,0.7h-0.9l1.3-3.6h1.1L175.2,88.9z M173.8,87.5l-0.4-1.3l-0.4,1.3H173.8z
				"/>
		</g>
		<line class="st66" x1="163.7" y1="70.8" x2="163.7" y2="84.1"/>
		<g>
			<g>
				<g>
					<polygon class="st62" points="21.4,175.8 21.4,177.1 22.9,177.1 22.9,177.7 21.4,177.7 21.4,179 20.6,179 20.6,177.7 19,177.7 
						19,177.1 20.6,177.1 20.6,175.8 					"/>
					<path class="st62" d="M22.9,172.4v2.3h-0.8v-0.7h-2.3v0.7h-0.7c0-0.1,0-0.2,0-0.3c0-0.1,0-0.2-0.1-0.3c0-0.1-0.1-0.1-0.2-0.2
						s-0.2-0.1-0.3-0.1v-0.8h3.6v-0.7H22.9z"/>
					<path class="st62" d="M22.9,168.7v2.7h-0.7c-0.2-0.2-0.4-0.4-0.6-0.6c-0.2-0.2-0.4-0.4-0.6-0.5c-0.2-0.2-0.4-0.3-0.6-0.4
						s-0.3-0.1-0.5-0.1c-0.2,0-0.4,0.1-0.5,0.2c-0.1,0.1-0.2,0.2-0.2,0.4c0,0.1,0,0.3,0.1,0.5c0.1,0.2,0.2,0.3,0.3,0.4v0.1h-1
						c-0.1-0.1-0.1-0.3-0.2-0.5c-0.1-0.2-0.1-0.4-0.1-0.7c0-0.4,0.1-0.8,0.3-1c0.2-0.2,0.6-0.3,1-0.3c0.3,0,0.5,0.1,0.8,0.2
						c0.2,0.1,0.5,0.3,0.8,0.5c0.2,0.1,0.3,0.3,0.5,0.4c0.1,0.1,0.2,0.2,0.3,0.3v-1.6H22.9z"/>
					<polygon class="st62" points="18.5,164.9 22.9,166.1 22.9,167.1 18.5,168.4 18.5,167.5 21.6,166.6 18.5,165.8 					"/>
				</g>
				<path class="st62" d="M37.5,174.9v1.2l-0.9,0.3v1.6l0.9,0.3v1.1l-4.4-1.6v-1.3L37.5,174.9z M35.8,176.6l-1.6,0.5l1.6,0.5V176.6z
					"/>
				<path class="st62" d="M50.7,175.2c0.2,0,0.4,0,0.6,0.1c0.2,0.1,0.3,0.2,0.4,0.3c0.1,0.2,0.2,0.4,0.3,0.6
					c0.1,0.2,0.1,0.5,0.1,0.8v1.9h-4.4v-1.7c0-0.4,0-0.6,0-0.8c0-0.2,0.1-0.3,0.2-0.5c0.1-0.2,0.2-0.3,0.3-0.4
					c0.1-0.1,0.3-0.1,0.5-0.1c0.2,0,0.4,0.1,0.6,0.2c0.2,0.1,0.3,0.3,0.4,0.5h0c0.1-0.3,0.2-0.5,0.4-0.7
					C50.2,175.3,50.4,175.2,50.7,175.2z M48.9,176.6c-0.1,0-0.1,0-0.2,0.1c-0.1,0-0.1,0.1-0.2,0.2c0,0.1,0,0.2,0,0.3
					c0,0.1,0,0.3,0,0.5v0.1h0.9v-0.2c0-0.2,0-0.3,0-0.5s0-0.2-0.1-0.3c0-0.1-0.1-0.2-0.2-0.2C49.1,176.6,49,176.6,48.9,176.6z
					 M50.7,176.3c-0.1,0-0.2,0-0.3,0.1c-0.1,0.1-0.1,0.1-0.2,0.3c0,0.1,0,0.2,0,0.4s0,0.3,0,0.5v0.2h1.1v-0.1c0-0.3,0-0.5,0-0.7
					s0-0.3-0.1-0.4c0-0.1-0.1-0.2-0.2-0.2C50.9,176.4,50.8,176.3,50.7,176.3z"/>
				<g>
					<path class="st62" d="M63.6,176.5c-0.1,0-0.2,0-0.3,0.1s-0.1,0.1-0.2,0.2c0,0.1,0,0.2-0.1,0.3c0,0.1,0,0.2,0,0.4v0.4h1.2v-0.3
						c0-0.2,0-0.3,0-0.5s-0.1-0.2-0.1-0.3c-0.1-0.1-0.1-0.1-0.2-0.2C63.8,176.5,63.7,176.5,63.6,176.5z M66.6,174.7v1.4l-1.6,1.2
						v0.5h1.6v1.1h-4.4V177c0-0.3,0-0.5,0-0.7s0.1-0.4,0.2-0.5c0.1-0.2,0.2-0.3,0.4-0.4c0.2-0.1,0.3-0.1,0.6-0.1
						c0.3,0,0.6,0.1,0.8,0.2c0.2,0.1,0.4,0.4,0.5,0.6L66.6,174.7z"/>
					<path class="st62" d="M65.1,171v2.4c0.3,0,0.5-0.1,0.6-0.3c0.1-0.2,0.2-0.4,0.2-0.8c0-0.2,0-0.4-0.1-0.6s-0.2-0.4-0.3-0.5v-0.1
						h0.8c0.1,0.2,0.2,0.5,0.2,0.7c0,0.2,0.1,0.4,0.1,0.7c0,0.7-0.1,1.2-0.4,1.5s-0.7,0.5-1.3,0.5c-0.5,0-1-0.2-1.3-0.5
						c-0.3-0.3-0.5-0.8-0.5-1.4c0-0.5,0.1-0.9,0.4-1.2c0.3-0.3,0.7-0.4,1.2-0.4H65.1z M64.5,172.1c-0.2,0-0.4,0.1-0.5,0.2
						s-0.2,0.3-0.2,0.5c0,0.2,0.1,0.4,0.2,0.5s0.3,0.2,0.5,0.2V172.1z"/>
					<path class="st62" d="M62.8,168.2L62.8,168.2c0,0.1,0,0.2,0,0.3c0,0.1,0,0.2,0,0.2c0,0.2,0,0.3,0.1,0.4
						c0.1,0.1,0.2,0.1,0.4,0.1h0v-0.8H64v0.8h2.6v1.1H64v0.5h-0.7v-0.5h-0.1c-0.4,0-0.7-0.1-0.9-0.3c-0.2-0.2-0.3-0.5-0.3-1
						c0-0.2,0-0.3,0-0.4c0-0.1,0-0.2,0-0.3H62.8z"/>
					<rect x="65.4" y="166.6" class="st62" width="1.2" height="1.1"/>
				</g>
				<polyline class="st66" points="13.6,182.5 13.6,157.8 71.9,157.8 71.9,182.5 				"/>
			</g>
			<path class="st62" d="M32.4,167.6c0.3-0.4-0.1-2.4-1.1-4.1l-3,4.1C29,167.8,31.8,168.4,32.4,167.6z M58.5,160.7v0.3
				c0,0,0,0,0.1,0c0.1,0,0.2,0,0.2,0s0.1-0.1,0.1-0.1c0-0.1-0.1-0.2-0.2-0.2L58.5,160.7L58.5,160.7z M58.9,161.6l-0.3-0.4h-0.2v0.4
				h-0.1v-1h0.3c0.3,0,0.4,0.1,0.4,0.3c0,0.1-0.1,0.2-0.2,0.3l0.3,0.5H58.9z M59.3,161.1c0-0.2-0.1-0.4-0.2-0.5
				c-0.1-0.1-0.3-0.2-0.5-0.2c-0.2,0-0.4,0.1-0.5,0.2c-0.1,0.1-0.2,0.3-0.2,0.5c0,0.2,0.1,0.4,0.2,0.5c0.1,0.1,0.3,0.2,0.5,0.2
				c0.2,0,0.4-0.1,0.5-0.2C59.3,161.5,59.3,161.3,59.3,161.1z M57.8,161.1c0-0.2,0.1-0.4,0.2-0.6c0.2-0.2,0.4-0.2,0.6-0.2
				s0.4,0.1,0.6,0.2c0.2,0.2,0.2,0.4,0.2,0.6s-0.1,0.4-0.2,0.6c-0.2,0.2-0.4,0.2-0.6,0.2s-0.4-0.1-0.6-0.2
				C57.8,161.5,57.8,161.4,57.8,161.1z M56.5,163.2c-0.3,0-0.5,0.1-0.6,0.3c-0.2,0.2-0.2,0.4-0.2,0.7c0,0.3,0.1,0.5,0.2,0.7
				c0.2,0.2,0.4,0.3,0.7,0.3c0.3,0,0.5-0.1,0.6-0.3c0.2-0.2,0.2-0.4,0.2-0.8c0-0.3-0.1-0.5-0.2-0.7C57,163.3,56.7,163.2,56.5,163.2z
				 M53.2,167v-2.5c0-0.5-0.1-0.8-0.2-1c-0.1-0.2-0.4-0.3-0.7-0.3c-0.2,0-0.4,0.1-0.5,0.2c-0.2,0.1-0.3,0.2-0.4,0.4v3.2h-0.8v-4.3
				h0.5l0.2,0.6c0.3-0.4,0.7-0.6,1.2-0.6c0.9,0,1.4,0.6,1.4,1.7v2.7H53.2z M48.6,167v-3.6H48v-0.6h1.3v4.3H48.6z M49,161.1
				c0.1,0,0.2,0,0.3,0.1c0.1,0.1,0.1,0.2,0.1,0.3c0,0.1,0,0.2-0.1,0.3c-0.1,0.1-0.2,0.1-0.3,0.1c-0.1,0-0.2,0-0.3-0.1
				c-0.1-0.1-0.1-0.2-0.1-0.3s0-0.2,0.1-0.3C48.8,161.1,48.9,161.1,49,161.1z M44.1,166.7l0.3-0.7c0.1,0.1,0.3,0.2,0.6,0.3
				c0.2,0.1,0.4,0.1,0.6,0.1c0.3,0,0.6-0.1,0.8-0.3s0.3-0.4,0.3-0.7c0-0.2-0.1-0.4-0.2-0.5c-0.1-0.2-0.4-0.4-0.8-0.6l-0.5-0.2
				c-0.4-0.2-0.7-0.4-0.8-0.7c-0.2-0.3-0.2-0.6-0.2-0.9c0-0.4,0.2-0.8,0.5-1.1c0.3-0.3,0.7-0.4,1.2-0.4c0.6,0,1.1,0.1,1.4,0.3
				l-0.2,0.7c-0.1-0.1-0.3-0.2-0.5-0.2c-0.2-0.1-0.4-0.1-0.6-0.1c-0.3,0-0.5,0.1-0.6,0.2c-0.2,0.2-0.2,0.4-0.2,0.6
				c0,0.1,0,0.3,0.1,0.4c0.1,0.1,0.1,0.2,0.2,0.3c0.1,0.1,0.3,0.2,0.6,0.3l0.5,0.2c0.4,0.2,0.7,0.4,0.8,0.7c0.2,0.3,0.2,0.6,0.2,1
				c0,0.4-0.2,0.8-0.5,1.1c-0.4,0.3-0.8,0.5-1.4,0.5C44.9,167.1,44.5,166.9,44.1,166.7z M39,161.1h0.8v4c0,0.4,0.1,0.7,0.3,0.9
				c0.2,0.2,0.5,0.3,0.9,0.3c0.4,0,0.7-0.1,0.9-0.3c0.2-0.2,0.3-0.5,0.3-0.9v-4h0.8v4.1c0,0.6-0.2,1.1-0.6,1.4
				c-0.4,0.3-0.9,0.5-1.5,0.5c-0.7,0-1.2-0.2-1.5-0.5c-0.4-0.3-0.5-0.8-0.5-1.4V161.1z M35.2,164v2.2c0.3,0,0.5,0,0.6,0
				c0.5,0,0.9-0.1,1.1-0.3c0.2-0.2,0.3-0.5,0.3-0.9c0-0.4-0.1-0.7-0.3-0.8c-0.2-0.2-0.6-0.3-1.1-0.3L35.2,164z M35.2,161.7v1.7
				c0.2,0,0.4,0,0.6,0c0.8,0,1.1-0.3,1.1-0.9c0-0.5-0.3-0.8-1-0.8C35.7,161.7,35.4,161.7,35.2,161.7z M36.1,167h-1.7v-5.9
				c0.7,0,1.2-0.1,1.5-0.1c0.6,0,1,0.1,1.3,0.4c0.3,0.2,0.5,0.6,0.5,1.1c0,0.3-0.1,0.5-0.3,0.7c-0.2,0.2-0.4,0.4-0.7,0.4
				c0.5,0.1,0.8,0.3,1,0.6c0.2,0.3,0.3,0.6,0.3,1.1c0,0.5-0.2,0.9-0.6,1.2C37.2,166.8,36.7,167,36.1,167z M55.3,167.6
				c0,0,0.9,0.4,1.2,0.4c0.3,0,0.6-0.1,0.8-0.2c0.2-0.1,0.3-0.3,0.3-0.4c0-0.3-0.3-0.5-0.8-0.5c-0.1,0-0.2,0-0.5,0.1
				c-0.2,0-0.4,0.1-0.5,0.1c-0.6,0-0.9-0.2-0.9-0.7c0-0.1,0.1-0.3,0.2-0.4c0.1-0.1,0.3-0.2,0.5-0.2c-0.6-0.3-0.9-0.8-0.9-1.5
				c0-0.4,0.2-0.8,0.5-1.1s0.7-0.4,1.2-0.4c0.4,0,0.8,0.1,1,0.3l0.4-0.5l0.5,0.5l-0.5,0.3c0.2,0.3,0.3,0.6,0.3,1
				c0,0.4-0.1,0.8-0.4,1.1s-0.6,0.5-1.1,0.5l-0.6,0.1c-0.1,0-0.2,0-0.3,0.1c-0.1,0-0.2,0.1-0.2,0.2c0,0.1,0.1,0.2,0.4,0.2
				c0.1,0,0.3,0,0.5-0.1c0.2,0,0.4-0.1,0.5-0.1c0.4,0,0.7,0.1,1,0.3c0.2,0.2,0.4,0.5,0.4,0.8c0,0.4-0.2,0.7-0.5,1
				c-0.4,0.2-0.8,0.4-1.3,0.4c-0.3,0-0.6,0-0.9-0.1c-0.1,0-0.2-0.1-0.3-0.1c-1.8-0.9-3.9-0.5-5.8-0.3c-3.9,0.4-10.7,1.7-14.4,0.9
				c-0.9-0.2-1.5-0.4-2.3-0.8c-1.2,1-4.5,0.2-5.7-0.2l1.1-1.4l-1.9-1.5l0.4-0.6l1.9,1.4l1.3-1.8l-1.9-1.5l0.4-0.6l1.9,1.4l1-1.4
				c0.6,0.8,2.3,3.8,1.8,5.4c2.9,1.2,6.1,0.9,9.2,0.7c2.4-0.2,4.7-0.6,7.1-0.9C51.4,167.2,53.4,166.8,55.3,167.6z"/>
		</g>
		<g>
			<rect x="160.4" y="101" class="st61" width="28.3" height="28.3"/>
			<path class="st62" d="M169.6,101.9h0.9v1.8h0.9v-0.9h2.7v0.9h-1.8v1.8h-0.9v-0.9h-0.9v0.9h-1.8v-0.9h0.9v-0.9h-0.9v-0.9h0.9
				V101.9z M176,101.9h3.7v0.9h-1.8v0.9h-0.9v0.9h0.9v0.9h-0.9v0.9H176v-0.9h-0.9v0.9h0.9v0.9h-0.9v0.9h-0.9v-2.7h-0.9v-0.9h0.9
				v-0.9h0.9v-0.9h0.9V101.9z M179.6,102.8h0.9v1.8h-0.9V102.8z M178.7,104.7h0.9v0.9h0.9v3.7h-0.9v0.9h0.9v-0.9h0.9v0.9h0.9v-0.9
				h0.9v0.9h0.9v1.8h0.9v0.9h0.9v0.9h-1.8v-0.9h-3.7V112h0.9v-0.9h-0.9v0.9h-0.9v-0.9h-1.8v-0.9h0.9v-1.8h0.9v-1.8h-0.9V104.7z
				 M170.5,105.6h0.9v2.7h-0.9V105.6z M172.3,105.6h0.9v0.9h-0.9V105.6z M168.7,106.5h0.9v1.8h-0.9V106.5z M176.9,106.5h0.9v0.9
				h-0.9V106.5z M172.3,107.4h0.9v1.8h1.8v-0.9h0.9v-0.9h0.9v1.8H176v0.9h-1.8v0.9h1.8v-0.9h0.9v2.7H176V112h-0.9v2.7h-0.9v-0.9
				h-0.9v0.9h-0.9v-0.9h-0.9v-0.9h-0.9v0.9h-0.9v-0.9h-1.8V112h-0.9v-0.9h1.8v-0.9h-1.8v-0.9h4.6v0.9h-0.9v1.8h0.9v-0.9h1.8v-0.9
				h-0.9V107.4z M172.3,112h1.8v0.9h-1.8V112z M177.8,107.4h0.9v0.9h-0.9V107.4z M161.4,109.2h4.6v0.9h-1.8v0.9h-0.9v-0.9h-1.8
				V109.2z M176.9,109.2h0.9v0.9h-0.9V109.2z M184.2,109.2h0.9v0.9h-0.9V109.2z M186,109.2h0.9v0.9H186V109.2z M165.9,110.1h0.9v0.9
				h-0.9V110.1z M187,110.1h0.9v0.9H187V110.1z M161.4,111.1h0.9v0.9h0.9v0.9h-0.9v1.8h0.9v1.8h-0.9v-0.9h-0.9V111.1z M164.1,111.1
				h0.9v1.8h-0.9V111.1z M178.7,112h0.9v0.9h-0.9V112z M186,112h0.9v0.9H186V112z M163.2,112.9h0.9v0.9h-0.9V112.9z M166.8,112.9
				h0.9v0.9h-0.9V112.9z M176.9,112.9h0.9v0.9h-0.9V112.9z M164.1,113.8h0.9v0.9h-0.9V113.8z M165.9,113.8h0.9v0.9h1.8v1.8h-0.9
				v-0.9h-0.9v0.9h-0.9v-0.9H165v-0.9h0.9V113.8z M168.7,113.8h0.9v0.9h-0.9V113.8z M170.5,113.8h0.9v1.8h0.9v0.9h1.8v1.8h1.8v1.8
				h1.8v0.9h0.9v0.9h0.9v1.8h-0.9v-0.9h-0.9V122h-0.9v1.8H176v-0.9h-2.7v0.9h-1.8v-0.9h0.9V122h3.7v-0.9h-2.7v-0.9h0.9v-0.9h-1.8
				v-0.9h-0.9v0.9h0.9v0.9h-0.9v0.9h-1.8v1.8h-0.9v-2.7h1.8v-2.7h-0.9v1.8h-0.9v-0.9h-0.9v-0.9h0.9v-0.9h0.9v-1.8h0.9V113.8z
				 M176,113.8h0.9v0.9H176V113.8z M177.8,113.8h6.4v0.9h-0.9v0.9h0.9v0.9h-1.8v-0.9h-1.8v-0.9h-1.8v0.9h1.8v0.9h-0.9v1.8h-0.9v-1.8
				h-0.9v-0.9h-0.9v-0.9h0.9V113.8z M187,113.8h0.9v0.9H187V113.8z M173.2,114.7h0.9v0.9h-0.9V114.7z M175.1,114.7h0.9v0.9h-0.9
				V114.7z M184.2,114.7h1.8v0.9h-1.8V114.7z M164.1,115.6h0.9v0.9h-0.9V115.6z M174.2,115.6h0.9v0.9h-0.9V115.6z M186,115.6h0.9
				v0.9H186V115.6z M161.4,116.5h0.9v4.6h-0.9V116.5z M166.8,116.5h0.9v0.9h-0.9V116.5z M175.1,116.5h2.7v0.9h-0.9v0.9H176v-0.9
				h-0.9V116.5z M184.2,116.5h1.8v2.7h-0.9v-1.8h-0.9V116.5z M163.2,117.5h1.8v2.7h0.9v-0.9h0.9v0.9h0.9v0.9h-3.7v-2.7h-0.9V117.5z
				 M165.9,117.5h0.9v0.9h-0.9V117.5z M181.5,117.5h2.7v0.9h-2.7V117.5z M187,117.5h0.9v0.9H187V117.5z M166.8,118.4h0.9v0.9h-0.9
				V118.4z M176.9,118.4h1.8v0.9h-1.8V118.4z M167.8,119.3h0.9v0.9h-0.9V119.3z M179.6,119.3h0.9v0.9h-0.9V119.3z M182.4,119.3h0.9
				v0.9h-0.9V119.3z M186,119.3h0.9v0.9h0.9v1.8H186v0.9h-1.8v-1.8h0.9v-0.9h0.9V119.3z M178.7,120.2h0.9v0.9h-0.9V120.2z
				 M171.4,121.1h0.9v0.9h-0.9V121.1z M187,122.9h0.9v2.7H187v1.8H186v-0.9h-0.9v0.9h-3.7v-0.9h-0.9v-0.9h3.7v-0.9h0.9v-0.9h0.9v0.9
				h0.9V122.9z M168.7,123.9h0.9v0.9h0.9v0.9h-0.9v0.9h0.9v0.9h-0.9v0.9h-0.9V123.9z M170.5,123.9h0.9v0.9h-0.9V123.9z M173.2,123.9
				h1.8v0.9h-1.8V123.9z M176.9,123.9h0.9v0.9h-0.9V123.9z M171.4,124.8h1.8v0.9h-1.8V124.8z M178.7,124.8h1.8v0.9h-1.8V124.8z
				 M173.2,125.7h0.9v0.9h-0.9V125.7z M175.1,125.7h1.8v1.8H176v0.9h-0.9v-0.9h-0.9v-0.9h0.9V125.7z M177.8,126.6h2.7v0.9h-0.9v0.9
				h-0.9v-0.9h-0.9V126.6z M171.4,127.5h2.7v0.9h-2.7V127.5z M176.9,127.5h0.9v0.9h-0.9V127.5z M185.1,127.5h0.9v0.9h-0.9V127.5z"/>
			<path class="st62" d="M161.4,101.9h6.4l0,0l0,0v6.4l0,0l0,0h-6.4l0,0l0,0V101.9L161.4,101.9L161.4,101.9z M162.3,102.8h4.6l0,0
				l0,0v4.6l0,0l0,0h-4.6l0,0l0,0V102.8L162.3,102.8L162.3,102.8z M163.2,103.7h2.7l0,0l0,0v2.7l0,0l0,0h-2.7l0,0l0,0V103.7
				L163.2,103.7L163.2,103.7z M181.5,101.9h6.4l0,0l0,0v6.4l0,0l0,0h-6.4l0,0l0,0V101.9L181.5,101.9L181.5,101.9z M182.4,102.8h4.6
				l0,0l0,0v4.6l0,0l0,0h-4.6l0,0l0,0V102.8L182.4,102.8L182.4,102.8z M183.3,103.7h2.7l0,0l0,0v2.7l0,0l0,0h-2.7l0,0l0,0V103.7
				L183.3,103.7L183.3,103.7z M161.4,122h6.4l0,0l0,0v6.4l0,0l0,0h-6.4l0,0l0,0V122L161.4,122L161.4,122z M162.3,122.9h4.6l0,0l0,0
				v4.6l0,0l0,0h-4.6l0,0l0,0V122.9L162.3,122.9L162.3,122.9z M163.2,123.9h2.7l0,0l0,0v2.7l0,0l0,0h-2.7l0,0l0,0V123.9L163.2,123.9
				L163.2,123.9z M179.6,120.2h4.6l0,0l0,0v4.6l0,0l0,0h-4.6l0,0l0,0V120.2L179.6,120.2L179.6,120.2z M180.6,121.1h2.7l0,0l0,0v2.7
				l0,0l0,0h-2.7l0,0l0,0V121.1L180.6,121.1L180.6,121.1z M181.5,122h0.9l0,0l0,0v0.9l0,0l0,0h-0.9l0,0l0,0V122L181.5,122L181.5,122
				z"/>
			<g>
				<path class="st61" d="M158.4,128.7H156v0.6h2.5V128.7z M155.7,128.7h-0.6v0.6h0.6V128.7z"/>
				<path class="st61" d="M158.4,128v-0.6h-1.2c-0.8,0-0.9-0.4-0.9-0.5c0-0.1,0-0.4,0.6-0.4h1.4V126H157c-0.3,0-1.1,0-1.1,0.8
					c0,0.5,0.4,0.7,0.6,0.7H156v0.5H158.4z"/>
				<path class="st61" d="M158.4,124.7h-2v-0.5H156v0.5c-0.4,0-0.5,0-0.5-0.4c0,0,0-0.1,0-0.1h-0.4c0,0.4,0,0.7,0.1,0.8
					c0.2,0.3,0.5,0.3,0.8,0.3v0.4h0.4v-0.4h2V124.7z"/>
				<path class="st61" d="M157.2,121.6c-0.7,0-1.3,0.4-1.3,1.1c0,0.8,0.6,1.2,1.3,1.2c0.6,0,1.3-0.3,1.3-1.1
					C158.5,122.1,158,121.6,157.2,121.6z M157.2,122.2c0.3,0,0.8,0,0.8,0.6c0,0.6-0.7,0.6-0.8,0.6c-0.4,0-0.8-0.1-0.8-0.6
					C156.4,122.3,156.8,122.2,157.2,122.2z"/>
			</g>
		</g>
		<g>
			<rect x="167.9" y="135.5" class="st67" width="13.5" height="13.5"/>
			<rect x="170.6" y="138.2" class="st67" width="8" height="8"/>
		</g>
	</g>
</g>
</svg>
