<?xml version="1.0" standalone="no"?>
<!DOCTYPE svg PUBLIC "-//W3C//DTD SVG 20010904//EN"
 "http://www.w3.org/TR/2001/REC-SVG-20010904/DTD/svg10.dtd">
<svg version="1.0" xmlns="http://www.w3.org/2000/svg"
 width="512.000000pt" height="512.000000pt" viewBox="0 0 512.000000 512.000000"
 preserveAspectRatio="xMidYMid meet">

<g transform="translate(0.000000,512.000000) scale(0.100000,-0.100000)"
fill="#000000" stroke="none">
<path d="M361 4150 c-79 -17 -165 -65 -226 -125 -164 -165 -177 -429 -29 -607
148 -177 2133 -2354 2170 -2379 85 -58 144 -73 284 -73 140 0 199 15 284 73
35 24 1472 1598 2124 2326 83 93 119 158 139 250 54 246 -111 489 -362 536
-148 27 -298 -26 -417 -148 -31 -32 -439 -481 -907 -998 -468 -517 -856 -940
-861 -940 -5 0 -372 401 -816 890 -443 490 -849 937 -902 994 -102 110 -173
163 -250 187 -61 19 -175 26 -231 14z"/>
</g>
</svg>
